%TF.GenerationSoftware,KiCad,Pcbnew,(5.1.8)-1*%
%TF.CreationDate,2021-02-13T13:18:39-08:00*%
%TF.ProjectId,20210213_Projects_PassiveBalanceBoard,32303231-3032-4313-935f-50726f6a6563,A0*%
%TF.SameCoordinates,PX5b5cac0PY99e0170*%
%TF.FileFunction,Legend,Top*%
%TF.FilePolarity,Positive*%
%FSLAX46Y46*%
G04 Gerber Fmt 4.6, Leading zero omitted, Abs format (unit mm)*
G04 Created by KiCad (PCBNEW (5.1.8)-1) date 2021-02-13 13:18:39*
%MOMM*%
%LPD*%
G01*
G04 APERTURE LIST*
%ADD10C,0.250000*%
%ADD11C,0.150000*%
%ADD12C,0.120000*%
%ADD13C,0.100000*%
G04 APERTURE END LIST*
D10*
X3724404Y38300000D02*
X3629166Y38347620D01*
X3486309Y38347620D01*
X3343452Y38300000D01*
X3248214Y38204762D01*
X3200595Y38109524D01*
X3152976Y37919048D01*
X3152976Y37776191D01*
X3200595Y37585715D01*
X3248214Y37490477D01*
X3343452Y37395239D01*
X3486309Y37347620D01*
X3581547Y37347620D01*
X3724404Y37395239D01*
X3772023Y37442858D01*
X3772023Y37776191D01*
X3581547Y37776191D01*
X4200595Y37347620D02*
X4200595Y38347620D01*
X4772023Y37347620D01*
X4772023Y38347620D01*
X5248214Y37347620D02*
X5248214Y38347620D01*
X5486309Y38347620D01*
X5629166Y38300000D01*
X5724404Y38204762D01*
X5772023Y38109524D01*
X5819642Y37919048D01*
X5819642Y37776191D01*
X5772023Y37585715D01*
X5724404Y37490477D01*
X5629166Y37395239D01*
X5486309Y37347620D01*
X5248214Y37347620D01*
X3200595Y34947620D02*
X3200595Y35947620D01*
X3438690Y35947620D01*
X3581547Y35900000D01*
X3676785Y35804762D01*
X3724404Y35709524D01*
X3772023Y35519048D01*
X3772023Y35376191D01*
X3724404Y35185715D01*
X3676785Y35090477D01*
X3581547Y34995239D01*
X3438690Y34947620D01*
X3200595Y34947620D01*
X4105357Y35947620D02*
X4772023Y35947620D01*
X4343452Y34947620D01*
X3200595Y32347620D02*
X3200595Y33347620D01*
X3438690Y33347620D01*
X3581547Y33300000D01*
X3676785Y33204762D01*
X3724404Y33109524D01*
X3772023Y32919048D01*
X3772023Y32776191D01*
X3724404Y32585715D01*
X3676785Y32490477D01*
X3581547Y32395239D01*
X3438690Y32347620D01*
X3200595Y32347620D01*
X4629166Y33347620D02*
X4438690Y33347620D01*
X4343452Y33300000D01*
X4295833Y33252381D01*
X4200595Y33109524D01*
X4152976Y32919048D01*
X4152976Y32538096D01*
X4200595Y32442858D01*
X4248214Y32395239D01*
X4343452Y32347620D01*
X4533928Y32347620D01*
X4629166Y32395239D01*
X4676785Y32442858D01*
X4724404Y32538096D01*
X4724404Y32776191D01*
X4676785Y32871429D01*
X4629166Y32919048D01*
X4533928Y32966667D01*
X4343452Y32966667D01*
X4248214Y32919048D01*
X4200595Y32871429D01*
X4152976Y32776191D01*
X3200595Y29847620D02*
X3200595Y30847620D01*
X3438690Y30847620D01*
X3581547Y30800000D01*
X3676785Y30704762D01*
X3724404Y30609524D01*
X3772023Y30419048D01*
X3772023Y30276191D01*
X3724404Y30085715D01*
X3676785Y29990477D01*
X3581547Y29895239D01*
X3438690Y29847620D01*
X3200595Y29847620D01*
X4676785Y30847620D02*
X4200595Y30847620D01*
X4152976Y30371429D01*
X4200595Y30419048D01*
X4295833Y30466667D01*
X4533928Y30466667D01*
X4629166Y30419048D01*
X4676785Y30371429D01*
X4724404Y30276191D01*
X4724404Y30038096D01*
X4676785Y29942858D01*
X4629166Y29895239D01*
X4533928Y29847620D01*
X4295833Y29847620D01*
X4200595Y29895239D01*
X4152976Y29942858D01*
X3200595Y27347620D02*
X3200595Y28347620D01*
X3438690Y28347620D01*
X3581547Y28300000D01*
X3676785Y28204762D01*
X3724404Y28109524D01*
X3772023Y27919048D01*
X3772023Y27776191D01*
X3724404Y27585715D01*
X3676785Y27490477D01*
X3581547Y27395239D01*
X3438690Y27347620D01*
X3200595Y27347620D01*
X4629166Y28014286D02*
X4629166Y27347620D01*
X4391071Y28395239D02*
X4152976Y27680953D01*
X4772023Y27680953D01*
X3200595Y24747620D02*
X3200595Y25747620D01*
X3438690Y25747620D01*
X3581547Y25700000D01*
X3676785Y25604762D01*
X3724404Y25509524D01*
X3772023Y25319048D01*
X3772023Y25176191D01*
X3724404Y24985715D01*
X3676785Y24890477D01*
X3581547Y24795239D01*
X3438690Y24747620D01*
X3200595Y24747620D01*
X4105357Y25747620D02*
X4724404Y25747620D01*
X4391071Y25366667D01*
X4533928Y25366667D01*
X4629166Y25319048D01*
X4676785Y25271429D01*
X4724404Y25176191D01*
X4724404Y24938096D01*
X4676785Y24842858D01*
X4629166Y24795239D01*
X4533928Y24747620D01*
X4248214Y24747620D01*
X4152976Y24795239D01*
X4105357Y24842858D01*
X3200595Y22247620D02*
X3200595Y23247620D01*
X3438690Y23247620D01*
X3581547Y23200000D01*
X3676785Y23104762D01*
X3724404Y23009524D01*
X3772023Y22819048D01*
X3772023Y22676191D01*
X3724404Y22485715D01*
X3676785Y22390477D01*
X3581547Y22295239D01*
X3438690Y22247620D01*
X3200595Y22247620D01*
X4152976Y23152381D02*
X4200595Y23200000D01*
X4295833Y23247620D01*
X4533928Y23247620D01*
X4629166Y23200000D01*
X4676785Y23152381D01*
X4724404Y23057143D01*
X4724404Y22961905D01*
X4676785Y22819048D01*
X4105357Y22247620D01*
X4724404Y22247620D01*
X3200595Y19747620D02*
X3200595Y20747620D01*
X3438690Y20747620D01*
X3581547Y20700000D01*
X3676785Y20604762D01*
X3724404Y20509524D01*
X3772023Y20319048D01*
X3772023Y20176191D01*
X3724404Y19985715D01*
X3676785Y19890477D01*
X3581547Y19795239D01*
X3438690Y19747620D01*
X3200595Y19747620D01*
X4724404Y19747620D02*
X4152976Y19747620D01*
X4438690Y19747620D02*
X4438690Y20747620D01*
X4343452Y20604762D01*
X4248214Y20509524D01*
X4152976Y20461905D01*
X3200595Y18152381D02*
X3200595Y17152381D01*
X3438690Y17152381D01*
X3581547Y17200000D01*
X3676785Y17295239D01*
X3724404Y17390477D01*
X3772023Y17580953D01*
X3772023Y17723810D01*
X3724404Y17914286D01*
X3676785Y18009524D01*
X3581547Y18104762D01*
X3438690Y18152381D01*
X3200595Y18152381D01*
X4391071Y17152381D02*
X4486309Y17152381D01*
X4581547Y17200000D01*
X4629166Y17247620D01*
X4676785Y17342858D01*
X4724404Y17533334D01*
X4724404Y17771429D01*
X4676785Y17961905D01*
X4629166Y18057143D01*
X4581547Y18104762D01*
X4486309Y18152381D01*
X4391071Y18152381D01*
X4295833Y18104762D01*
X4248214Y18057143D01*
X4200595Y17961905D01*
X4152976Y17771429D01*
X4152976Y17533334D01*
X4200595Y17342858D01*
X4248214Y17247620D01*
X4295833Y17200000D01*
X4391071Y17152381D01*
D11*
X6675000Y6350000D02*
G75*
G03*
X6675000Y6350000I-3175000J0D01*
G01*
X6675000Y48750000D02*
G75*
G03*
X6675000Y48750000I-3175000J0D01*
G01*
D12*
X30027064Y26385000D02*
X25922936Y26385000D01*
X30027064Y22965000D02*
X25922936Y22965000D01*
X44470000Y39630000D02*
X44470000Y16770000D01*
X44470000Y16770000D02*
X41930000Y16770000D01*
X41930000Y16770000D02*
X41930000Y39630000D01*
X41930000Y39630000D02*
X44470000Y39630000D01*
X13160000Y22195000D02*
X11700000Y22195000D01*
X13160000Y25355000D02*
X11000000Y25355000D01*
X13160000Y25355000D02*
X13160000Y24425000D01*
X13160000Y22195000D02*
X13160000Y23125000D01*
X13160000Y16195000D02*
X11700000Y16195000D01*
X13160000Y19355000D02*
X11000000Y19355000D01*
X13160000Y19355000D02*
X13160000Y18425000D01*
X13160000Y16195000D02*
X13160000Y17125000D01*
X13160000Y10195000D02*
X11700000Y10195000D01*
X13160000Y13355000D02*
X11000000Y13355000D01*
X13160000Y13355000D02*
X13160000Y12425000D01*
X13160000Y10195000D02*
X13160000Y11125000D01*
X13160000Y4145000D02*
X11700000Y4145000D01*
X13160000Y7305000D02*
X11000000Y7305000D01*
X13160000Y7305000D02*
X13160000Y6375000D01*
X13160000Y4145000D02*
X13160000Y5075000D01*
X16785000Y22195000D02*
X16785000Y23125000D01*
X16785000Y25355000D02*
X16785000Y24425000D01*
X16785000Y25355000D02*
X14625000Y25355000D01*
X16785000Y22195000D02*
X15325000Y22195000D01*
X16785000Y16195000D02*
X15325000Y16195000D01*
X16785000Y19355000D02*
X14625000Y19355000D01*
X16785000Y19355000D02*
X16785000Y18425000D01*
X16785000Y16195000D02*
X16785000Y17125000D01*
X16785000Y10195000D02*
X15325000Y10195000D01*
X16785000Y13355000D02*
X14625000Y13355000D01*
X16785000Y13355000D02*
X16785000Y12425000D01*
X16785000Y10195000D02*
X16785000Y11125000D01*
X16960000Y4145000D02*
X16960000Y5075000D01*
X16960000Y7305000D02*
X16960000Y6375000D01*
X16960000Y7305000D02*
X14800000Y7305000D01*
X16960000Y4145000D02*
X15500000Y4145000D01*
X21950000Y25385000D02*
X19000000Y25385000D01*
X20150000Y22165000D02*
X21950000Y22165000D01*
X21950000Y19385000D02*
X19000000Y19385000D01*
X20150000Y16165000D02*
X21950000Y16165000D01*
X20150000Y10165000D02*
X21950000Y10165000D01*
X21950000Y13385000D02*
X19000000Y13385000D01*
X21950000Y7385000D02*
X19000000Y7385000D01*
X20150000Y4165000D02*
X21950000Y4165000D01*
X13285000Y46295000D02*
X13285000Y47225000D01*
X13285000Y49455000D02*
X13285000Y48525000D01*
X13285000Y49455000D02*
X11125000Y49455000D01*
X13285000Y46295000D02*
X11825000Y46295000D01*
X13160000Y40145000D02*
X13160000Y41075000D01*
X13160000Y43305000D02*
X13160000Y42375000D01*
X13160000Y43305000D02*
X11000000Y43305000D01*
X13160000Y40145000D02*
X11700000Y40145000D01*
X13160000Y34245000D02*
X13160000Y35175000D01*
X13160000Y37405000D02*
X13160000Y36475000D01*
X13160000Y37405000D02*
X11000000Y37405000D01*
X13160000Y34245000D02*
X11700000Y34245000D01*
X13160000Y28195000D02*
X13160000Y29125000D01*
X13160000Y31355000D02*
X13160000Y30425000D01*
X13160000Y31355000D02*
X11000000Y31355000D01*
X13160000Y28195000D02*
X11700000Y28195000D01*
X16785000Y46295000D02*
X15325000Y46295000D01*
X16785000Y49455000D02*
X14625000Y49455000D01*
X16785000Y49455000D02*
X16785000Y48525000D01*
X16785000Y46295000D02*
X16785000Y47225000D01*
X16785000Y40145000D02*
X16785000Y41075000D01*
X16785000Y43305000D02*
X16785000Y42375000D01*
X16785000Y43305000D02*
X14625000Y43305000D01*
X16785000Y40145000D02*
X15325000Y40145000D01*
X16785000Y34245000D02*
X16785000Y35175000D01*
X16785000Y37405000D02*
X16785000Y36475000D01*
X16785000Y37405000D02*
X14625000Y37405000D01*
X16785000Y34245000D02*
X15325000Y34245000D01*
X16785000Y28195000D02*
X15325000Y28195000D01*
X16785000Y31355000D02*
X14625000Y31355000D01*
X16785000Y31355000D02*
X16785000Y30425000D01*
X16785000Y28195000D02*
X16785000Y29125000D01*
X21950000Y49385000D02*
X19000000Y49385000D01*
X20150000Y46165000D02*
X21950000Y46165000D01*
X20150000Y40115000D02*
X21950000Y40115000D01*
X21950000Y43335000D02*
X19000000Y43335000D01*
X20150000Y34165000D02*
X21950000Y34165000D01*
X21950000Y37385000D02*
X19000000Y37385000D01*
X20150000Y28165000D02*
X21950000Y28165000D01*
X21950000Y31385000D02*
X19000000Y31385000D01*
X10410000Y24021267D02*
X10410000Y23678733D01*
X9390000Y24021267D02*
X9390000Y23678733D01*
X9390000Y18021267D02*
X9390000Y17678733D01*
X10410000Y18021267D02*
X10410000Y17678733D01*
X10410000Y12021267D02*
X10410000Y11678733D01*
X9390000Y12021267D02*
X9390000Y11678733D01*
X10410000Y5971267D02*
X10410000Y5628733D01*
X9390000Y5971267D02*
X9390000Y5628733D01*
X21353733Y20665000D02*
X21696267Y20665000D01*
X21353733Y21685000D02*
X21696267Y21685000D01*
X21353733Y14665000D02*
X21696267Y14665000D01*
X21353733Y15685000D02*
X21696267Y15685000D01*
X21353733Y9685000D02*
X21696267Y9685000D01*
X21353733Y8665000D02*
X21696267Y8665000D01*
X21353733Y3685000D02*
X21696267Y3685000D01*
X21353733Y2665000D02*
X21696267Y2665000D01*
X9515000Y48121267D02*
X9515000Y47778733D01*
X10535000Y48121267D02*
X10535000Y47778733D01*
X10410000Y41971267D02*
X10410000Y41628733D01*
X9390000Y41971267D02*
X9390000Y41628733D01*
X9390000Y36071267D02*
X9390000Y35728733D01*
X10410000Y36071267D02*
X10410000Y35728733D01*
X10410000Y30021267D02*
X10410000Y29678733D01*
X9390000Y30021267D02*
X9390000Y29678733D01*
X14446267Y44860000D02*
X14103733Y44860000D01*
X14446267Y43840000D02*
X14103733Y43840000D01*
X14446267Y37915000D02*
X14103733Y37915000D01*
X14446267Y38935000D02*
X14103733Y38935000D01*
X14446267Y32885000D02*
X14103733Y32885000D01*
X14446267Y31865000D02*
X14103733Y31865000D01*
X21353733Y38615000D02*
X21696267Y38615000D01*
X21353733Y39635000D02*
X21696267Y39635000D01*
X21353733Y33685000D02*
X21696267Y33685000D01*
X21353733Y32665000D02*
X21696267Y32665000D01*
X21353733Y27685000D02*
X21696267Y27685000D01*
X21353733Y26665000D02*
X21696267Y26665000D01*
X30027064Y17015000D02*
X25922936Y17015000D01*
X30027064Y20435000D02*
X25922936Y20435000D01*
X30027064Y14385000D02*
X25922936Y14385000D01*
X30027064Y10965000D02*
X25922936Y10965000D01*
X30027064Y4965000D02*
X25922936Y4965000D01*
X30027064Y8385000D02*
X25922936Y8385000D01*
X30027064Y47015000D02*
X25922936Y47015000D01*
X30027064Y50435000D02*
X25922936Y50435000D01*
X30027064Y44385000D02*
X25922936Y44385000D01*
X30027064Y40965000D02*
X25922936Y40965000D01*
X30027064Y38435000D02*
X25922936Y38435000D01*
X30027064Y35015000D02*
X25922936Y35015000D01*
X30027064Y29015000D02*
X25922936Y29015000D01*
X30027064Y32435000D02*
X25922936Y32435000D01*
X17878733Y49890000D02*
X18221267Y49890000D01*
X17878733Y50910000D02*
X18221267Y50910000D01*
X17753733Y44885000D02*
X18096267Y44885000D01*
X17753733Y43865000D02*
X18096267Y43865000D01*
X17753733Y37915000D02*
X18096267Y37915000D01*
X17753733Y38935000D02*
X18096267Y38935000D01*
X17753733Y32885000D02*
X18096267Y32885000D01*
X17753733Y31865000D02*
X18096267Y31865000D01*
X14446267Y26885000D02*
X14103733Y26885000D01*
X14446267Y25865000D02*
X14103733Y25865000D01*
X14446267Y20885000D02*
X14103733Y20885000D01*
X14446267Y19865000D02*
X14103733Y19865000D01*
X14446267Y14885000D02*
X14103733Y14885000D01*
X14446267Y13865000D02*
X14103733Y13865000D01*
X17753733Y26885000D02*
X18096267Y26885000D01*
X17753733Y25865000D02*
X18096267Y25865000D01*
X17753733Y20885000D02*
X18096267Y20885000D01*
X17753733Y19865000D02*
X18096267Y19865000D01*
X17753733Y14885000D02*
X18096267Y14885000D01*
X17753733Y13865000D02*
X18096267Y13865000D01*
X130000Y39280000D02*
X2670000Y39280000D01*
X130000Y16420000D02*
X130000Y39280000D01*
X2670000Y16420000D02*
X130000Y16420000D01*
X2670000Y39280000D02*
X2670000Y16420000D01*
X14446267Y7765000D02*
X14103733Y7765000D01*
X14446267Y8785000D02*
X14103733Y8785000D01*
X14571267Y49915000D02*
X14228733Y49915000D01*
X14571267Y50935000D02*
X14228733Y50935000D01*
X21353733Y44665000D02*
X21696267Y44665000D01*
X21353733Y45685000D02*
X21696267Y45685000D01*
X17978733Y2665000D02*
X18321267Y2665000D01*
X17978733Y3685000D02*
X18321267Y3685000D01*
X35914500Y18055000D02*
X35914500Y20595000D01*
X35914500Y20595000D02*
X32612500Y20595000D01*
X32549000Y20595000D02*
X32485500Y20595000D01*
X32485500Y20595000D02*
X32485500Y18055000D01*
X32485500Y18055000D02*
X35914500Y18055000D01*
X32485500Y12005000D02*
X35914500Y12005000D01*
X32485500Y14545000D02*
X32485500Y12005000D01*
X32549000Y14545000D02*
X32485500Y14545000D01*
X35914500Y14545000D02*
X32612500Y14545000D01*
X35914500Y12005000D02*
X35914500Y14545000D01*
X35914500Y6005000D02*
X35914500Y8545000D01*
X35914500Y8545000D02*
X32612500Y8545000D01*
X32549000Y8545000D02*
X32485500Y8545000D01*
X32485500Y8545000D02*
X32485500Y6005000D01*
X32485500Y6005000D02*
X35914500Y6005000D01*
X32485500Y48055000D02*
X35914500Y48055000D01*
X32485500Y50595000D02*
X32485500Y48055000D01*
X32549000Y50595000D02*
X32485500Y50595000D01*
X35914500Y50595000D02*
X32612500Y50595000D01*
X35914500Y48055000D02*
X35914500Y50595000D01*
X35914500Y42030000D02*
X35914500Y44570000D01*
X35914500Y44570000D02*
X32612500Y44570000D01*
X32549000Y44570000D02*
X32485500Y44570000D01*
X32485500Y44570000D02*
X32485500Y42030000D01*
X32485500Y42030000D02*
X35914500Y42030000D01*
X32485500Y36080000D02*
X35914500Y36080000D01*
X32485500Y38620000D02*
X32485500Y36080000D01*
X32549000Y38620000D02*
X32485500Y38620000D01*
X35914500Y38620000D02*
X32612500Y38620000D01*
X35914500Y36080000D02*
X35914500Y38620000D01*
X35914500Y30080000D02*
X35914500Y32620000D01*
X35914500Y32620000D02*
X32612500Y32620000D01*
X32549000Y32620000D02*
X32485500Y32620000D01*
X32485500Y32620000D02*
X32485500Y30080000D01*
X32485500Y30080000D02*
X35914500Y30080000D01*
X32485500Y24030000D02*
X35914500Y24030000D01*
X32485500Y26570000D02*
X32485500Y24030000D01*
X32549000Y26570000D02*
X32485500Y26570000D01*
X35914500Y26570000D02*
X32612500Y26570000D01*
X35914500Y24030000D02*
X35914500Y26570000D01*
D13*
X27303571Y21783572D02*
X27103571Y22069286D01*
X26960714Y21783572D02*
X26960714Y22383572D01*
X27189285Y22383572D01*
X27246428Y22355000D01*
X27275000Y22326429D01*
X27303571Y22269286D01*
X27303571Y22183572D01*
X27275000Y22126429D01*
X27246428Y22097858D01*
X27189285Y22069286D01*
X26960714Y22069286D01*
X27532142Y22326429D02*
X27560714Y22355000D01*
X27617857Y22383572D01*
X27760714Y22383572D01*
X27817857Y22355000D01*
X27846428Y22326429D01*
X27875000Y22269286D01*
X27875000Y22212143D01*
X27846428Y22126429D01*
X27503571Y21783572D01*
X27875000Y21783572D01*
X28075000Y22383572D02*
X28446428Y22383572D01*
X28246428Y22155000D01*
X28332142Y22155000D01*
X28389285Y22126429D01*
X28417857Y22097858D01*
X28446428Y22040715D01*
X28446428Y21897858D01*
X28417857Y21840715D01*
X28389285Y21812143D01*
X28332142Y21783572D01*
X28160714Y21783572D01*
X28103571Y21812143D01*
X28075000Y21840715D01*
X28675000Y22326429D02*
X28703571Y22355000D01*
X28760714Y22383572D01*
X28903571Y22383572D01*
X28960714Y22355000D01*
X28989285Y22326429D01*
X29017857Y22269286D01*
X29017857Y22212143D01*
X28989285Y22126429D01*
X28646428Y21783572D01*
X29017857Y21783572D01*
X42185714Y15928572D02*
X42185714Y16528572D01*
X42414285Y16528572D01*
X42471428Y16500000D01*
X42500000Y16471429D01*
X42528571Y16414286D01*
X42528571Y16328572D01*
X42500000Y16271429D01*
X42471428Y16242858D01*
X42414285Y16214286D01*
X42185714Y16214286D01*
X42728571Y16528572D02*
X43100000Y16528572D01*
X42900000Y16300000D01*
X42985714Y16300000D01*
X43042857Y16271429D01*
X43071428Y16242858D01*
X43100000Y16185715D01*
X43100000Y16042858D01*
X43071428Y15985715D01*
X43042857Y15957143D01*
X42985714Y15928572D01*
X42814285Y15928572D01*
X42757142Y15957143D01*
X42728571Y15985715D01*
X43471428Y16528572D02*
X43528571Y16528572D01*
X43585714Y16500000D01*
X43614285Y16471429D01*
X43642857Y16414286D01*
X43671428Y16300000D01*
X43671428Y16157143D01*
X43642857Y16042858D01*
X43614285Y15985715D01*
X43585714Y15957143D01*
X43528571Y15928572D01*
X43471428Y15928572D01*
X43414285Y15957143D01*
X43385714Y15985715D01*
X43357142Y16042858D01*
X43328571Y16157143D01*
X43328571Y16300000D01*
X43357142Y16414286D01*
X43385714Y16471429D01*
X43414285Y16500000D01*
X43471428Y16528572D01*
X44242857Y15928572D02*
X43900000Y15928572D01*
X44071428Y15928572D02*
X44071428Y16528572D01*
X44014285Y16442858D01*
X43957142Y16385715D01*
X43900000Y16357143D01*
X11771428Y21246429D02*
X11714285Y21275000D01*
X11657142Y21332143D01*
X11571428Y21417858D01*
X11514285Y21446429D01*
X11457142Y21446429D01*
X11485714Y21303572D02*
X11428571Y21332143D01*
X11371428Y21389286D01*
X11342857Y21503572D01*
X11342857Y21703572D01*
X11371428Y21817858D01*
X11428571Y21875000D01*
X11485714Y21903572D01*
X11600000Y21903572D01*
X11657142Y21875000D01*
X11714285Y21817858D01*
X11742857Y21703572D01*
X11742857Y21503572D01*
X11714285Y21389286D01*
X11657142Y21332143D01*
X11600000Y21303572D01*
X11485714Y21303572D01*
X11971428Y21846429D02*
X12000000Y21875000D01*
X12057142Y21903572D01*
X12200000Y21903572D01*
X12257142Y21875000D01*
X12285714Y21846429D01*
X12314285Y21789286D01*
X12314285Y21732143D01*
X12285714Y21646429D01*
X11942857Y21303572D01*
X12314285Y21303572D01*
X12685714Y21903572D02*
X12742857Y21903572D01*
X12800000Y21875000D01*
X12828571Y21846429D01*
X12857142Y21789286D01*
X12885714Y21675000D01*
X12885714Y21532143D01*
X12857142Y21417858D01*
X12828571Y21360715D01*
X12800000Y21332143D01*
X12742857Y21303572D01*
X12685714Y21303572D01*
X12628571Y21332143D01*
X12600000Y21360715D01*
X12571428Y21417858D01*
X12542857Y21532143D01*
X12542857Y21675000D01*
X12571428Y21789286D01*
X12600000Y21846429D01*
X12628571Y21875000D01*
X12685714Y21903572D01*
X13457142Y21303572D02*
X13114285Y21303572D01*
X13285714Y21303572D02*
X13285714Y21903572D01*
X13228571Y21817858D01*
X13171428Y21760715D01*
X13114285Y21732143D01*
X11771428Y15246429D02*
X11714285Y15275000D01*
X11657142Y15332143D01*
X11571428Y15417858D01*
X11514285Y15446429D01*
X11457142Y15446429D01*
X11485714Y15303572D02*
X11428571Y15332143D01*
X11371428Y15389286D01*
X11342857Y15503572D01*
X11342857Y15703572D01*
X11371428Y15817858D01*
X11428571Y15875000D01*
X11485714Y15903572D01*
X11600000Y15903572D01*
X11657142Y15875000D01*
X11714285Y15817858D01*
X11742857Y15703572D01*
X11742857Y15503572D01*
X11714285Y15389286D01*
X11657142Y15332143D01*
X11600000Y15303572D01*
X11485714Y15303572D01*
X11971428Y15846429D02*
X12000000Y15875000D01*
X12057142Y15903572D01*
X12200000Y15903572D01*
X12257142Y15875000D01*
X12285714Y15846429D01*
X12314285Y15789286D01*
X12314285Y15732143D01*
X12285714Y15646429D01*
X11942857Y15303572D01*
X12314285Y15303572D01*
X12685714Y15903572D02*
X12742857Y15903572D01*
X12800000Y15875000D01*
X12828571Y15846429D01*
X12857142Y15789286D01*
X12885714Y15675000D01*
X12885714Y15532143D01*
X12857142Y15417858D01*
X12828571Y15360715D01*
X12800000Y15332143D01*
X12742857Y15303572D01*
X12685714Y15303572D01*
X12628571Y15332143D01*
X12600000Y15360715D01*
X12571428Y15417858D01*
X12542857Y15532143D01*
X12542857Y15675000D01*
X12571428Y15789286D01*
X12600000Y15846429D01*
X12628571Y15875000D01*
X12685714Y15903572D01*
X13114285Y15846429D02*
X13142857Y15875000D01*
X13200000Y15903572D01*
X13342857Y15903572D01*
X13400000Y15875000D01*
X13428571Y15846429D01*
X13457142Y15789286D01*
X13457142Y15732143D01*
X13428571Y15646429D01*
X13085714Y15303572D01*
X13457142Y15303572D01*
X11771428Y9146429D02*
X11714285Y9175000D01*
X11657142Y9232143D01*
X11571428Y9317858D01*
X11514285Y9346429D01*
X11457142Y9346429D01*
X11485714Y9203572D02*
X11428571Y9232143D01*
X11371428Y9289286D01*
X11342857Y9403572D01*
X11342857Y9603572D01*
X11371428Y9717858D01*
X11428571Y9775000D01*
X11485714Y9803572D01*
X11600000Y9803572D01*
X11657142Y9775000D01*
X11714285Y9717858D01*
X11742857Y9603572D01*
X11742857Y9403572D01*
X11714285Y9289286D01*
X11657142Y9232143D01*
X11600000Y9203572D01*
X11485714Y9203572D01*
X11971428Y9746429D02*
X12000000Y9775000D01*
X12057142Y9803572D01*
X12200000Y9803572D01*
X12257142Y9775000D01*
X12285714Y9746429D01*
X12314285Y9689286D01*
X12314285Y9632143D01*
X12285714Y9546429D01*
X11942857Y9203572D01*
X12314285Y9203572D01*
X12685714Y9803572D02*
X12742857Y9803572D01*
X12800000Y9775000D01*
X12828571Y9746429D01*
X12857142Y9689286D01*
X12885714Y9575000D01*
X12885714Y9432143D01*
X12857142Y9317858D01*
X12828571Y9260715D01*
X12800000Y9232143D01*
X12742857Y9203572D01*
X12685714Y9203572D01*
X12628571Y9232143D01*
X12600000Y9260715D01*
X12571428Y9317858D01*
X12542857Y9432143D01*
X12542857Y9575000D01*
X12571428Y9689286D01*
X12600000Y9746429D01*
X12628571Y9775000D01*
X12685714Y9803572D01*
X13085714Y9803572D02*
X13457142Y9803572D01*
X13257142Y9575000D01*
X13342857Y9575000D01*
X13400000Y9546429D01*
X13428571Y9517858D01*
X13457142Y9460715D01*
X13457142Y9317858D01*
X13428571Y9260715D01*
X13400000Y9232143D01*
X13342857Y9203572D01*
X13171428Y9203572D01*
X13114285Y9232143D01*
X13085714Y9260715D01*
X11771428Y3096429D02*
X11714285Y3125000D01*
X11657142Y3182143D01*
X11571428Y3267858D01*
X11514285Y3296429D01*
X11457142Y3296429D01*
X11485714Y3153572D02*
X11428571Y3182143D01*
X11371428Y3239286D01*
X11342857Y3353572D01*
X11342857Y3553572D01*
X11371428Y3667858D01*
X11428571Y3725000D01*
X11485714Y3753572D01*
X11600000Y3753572D01*
X11657142Y3725000D01*
X11714285Y3667858D01*
X11742857Y3553572D01*
X11742857Y3353572D01*
X11714285Y3239286D01*
X11657142Y3182143D01*
X11600000Y3153572D01*
X11485714Y3153572D01*
X11971428Y3696429D02*
X12000000Y3725000D01*
X12057142Y3753572D01*
X12200000Y3753572D01*
X12257142Y3725000D01*
X12285714Y3696429D01*
X12314285Y3639286D01*
X12314285Y3582143D01*
X12285714Y3496429D01*
X11942857Y3153572D01*
X12314285Y3153572D01*
X12685714Y3753572D02*
X12742857Y3753572D01*
X12800000Y3725000D01*
X12828571Y3696429D01*
X12857142Y3639286D01*
X12885714Y3525000D01*
X12885714Y3382143D01*
X12857142Y3267858D01*
X12828571Y3210715D01*
X12800000Y3182143D01*
X12742857Y3153572D01*
X12685714Y3153572D01*
X12628571Y3182143D01*
X12600000Y3210715D01*
X12571428Y3267858D01*
X12542857Y3382143D01*
X12542857Y3525000D01*
X12571428Y3639286D01*
X12600000Y3696429D01*
X12628571Y3725000D01*
X12685714Y3753572D01*
X13400000Y3553572D02*
X13400000Y3153572D01*
X13257142Y3782143D02*
X13114285Y3353572D01*
X13485714Y3353572D01*
X18503571Y23146429D02*
X18475000Y23089286D01*
X18417857Y23032143D01*
X18332142Y22946429D01*
X18303571Y22889286D01*
X18303571Y22832143D01*
X18446428Y22860715D02*
X18417857Y22803572D01*
X18360714Y22746429D01*
X18246428Y22717858D01*
X18046428Y22717858D01*
X17932142Y22746429D01*
X17875000Y22803572D01*
X17846428Y22860715D01*
X17846428Y22975000D01*
X17875000Y23032143D01*
X17932142Y23089286D01*
X18046428Y23117858D01*
X18246428Y23117858D01*
X18360714Y23089286D01*
X18417857Y23032143D01*
X18446428Y22975000D01*
X18446428Y22860715D01*
X17903571Y23346429D02*
X17875000Y23375000D01*
X17846428Y23432143D01*
X17846428Y23575000D01*
X17875000Y23632143D01*
X17903571Y23660715D01*
X17960714Y23689286D01*
X18017857Y23689286D01*
X18103571Y23660715D01*
X18446428Y23317858D01*
X18446428Y23689286D01*
X17846428Y24060715D02*
X17846428Y24117858D01*
X17875000Y24175000D01*
X17903571Y24203572D01*
X17960714Y24232143D01*
X18075000Y24260715D01*
X18217857Y24260715D01*
X18332142Y24232143D01*
X18389285Y24203572D01*
X18417857Y24175000D01*
X18446428Y24117858D01*
X18446428Y24060715D01*
X18417857Y24003572D01*
X18389285Y23975000D01*
X18332142Y23946429D01*
X18217857Y23917858D01*
X18075000Y23917858D01*
X17960714Y23946429D01*
X17903571Y23975000D01*
X17875000Y24003572D01*
X17846428Y24060715D01*
X17846428Y24803572D02*
X17846428Y24517858D01*
X18132142Y24489286D01*
X18103571Y24517858D01*
X18075000Y24575000D01*
X18075000Y24717858D01*
X18103571Y24775000D01*
X18132142Y24803572D01*
X18189285Y24832143D01*
X18332142Y24832143D01*
X18389285Y24803572D01*
X18417857Y24775000D01*
X18446428Y24717858D01*
X18446428Y24575000D01*
X18417857Y24517858D01*
X18389285Y24489286D01*
X18603571Y17146429D02*
X18575000Y17089286D01*
X18517857Y17032143D01*
X18432142Y16946429D01*
X18403571Y16889286D01*
X18403571Y16832143D01*
X18546428Y16860715D02*
X18517857Y16803572D01*
X18460714Y16746429D01*
X18346428Y16717858D01*
X18146428Y16717858D01*
X18032142Y16746429D01*
X17975000Y16803572D01*
X17946428Y16860715D01*
X17946428Y16975000D01*
X17975000Y17032143D01*
X18032142Y17089286D01*
X18146428Y17117858D01*
X18346428Y17117858D01*
X18460714Y17089286D01*
X18517857Y17032143D01*
X18546428Y16975000D01*
X18546428Y16860715D01*
X18003571Y17346429D02*
X17975000Y17375000D01*
X17946428Y17432143D01*
X17946428Y17575000D01*
X17975000Y17632143D01*
X18003571Y17660715D01*
X18060714Y17689286D01*
X18117857Y17689286D01*
X18203571Y17660715D01*
X18546428Y17317858D01*
X18546428Y17689286D01*
X17946428Y18060715D02*
X17946428Y18117858D01*
X17975000Y18175000D01*
X18003571Y18203572D01*
X18060714Y18232143D01*
X18175000Y18260715D01*
X18317857Y18260715D01*
X18432142Y18232143D01*
X18489285Y18203572D01*
X18517857Y18175000D01*
X18546428Y18117858D01*
X18546428Y18060715D01*
X18517857Y18003572D01*
X18489285Y17975000D01*
X18432142Y17946429D01*
X18317857Y17917858D01*
X18175000Y17917858D01*
X18060714Y17946429D01*
X18003571Y17975000D01*
X17975000Y18003572D01*
X17946428Y18060715D01*
X17946428Y18775000D02*
X17946428Y18660715D01*
X17975000Y18603572D01*
X18003571Y18575000D01*
X18089285Y18517858D01*
X18203571Y18489286D01*
X18432142Y18489286D01*
X18489285Y18517858D01*
X18517857Y18546429D01*
X18546428Y18603572D01*
X18546428Y18717858D01*
X18517857Y18775000D01*
X18489285Y18803572D01*
X18432142Y18832143D01*
X18289285Y18832143D01*
X18232142Y18803572D01*
X18203571Y18775000D01*
X18175000Y18717858D01*
X18175000Y18603572D01*
X18203571Y18546429D01*
X18232142Y18517858D01*
X18289285Y18489286D01*
X18553571Y11146429D02*
X18525000Y11089286D01*
X18467857Y11032143D01*
X18382142Y10946429D01*
X18353571Y10889286D01*
X18353571Y10832143D01*
X18496428Y10860715D02*
X18467857Y10803572D01*
X18410714Y10746429D01*
X18296428Y10717858D01*
X18096428Y10717858D01*
X17982142Y10746429D01*
X17925000Y10803572D01*
X17896428Y10860715D01*
X17896428Y10975000D01*
X17925000Y11032143D01*
X17982142Y11089286D01*
X18096428Y11117858D01*
X18296428Y11117858D01*
X18410714Y11089286D01*
X18467857Y11032143D01*
X18496428Y10975000D01*
X18496428Y10860715D01*
X17953571Y11346429D02*
X17925000Y11375000D01*
X17896428Y11432143D01*
X17896428Y11575000D01*
X17925000Y11632143D01*
X17953571Y11660715D01*
X18010714Y11689286D01*
X18067857Y11689286D01*
X18153571Y11660715D01*
X18496428Y11317858D01*
X18496428Y11689286D01*
X17896428Y12060715D02*
X17896428Y12117858D01*
X17925000Y12175000D01*
X17953571Y12203572D01*
X18010714Y12232143D01*
X18125000Y12260715D01*
X18267857Y12260715D01*
X18382142Y12232143D01*
X18439285Y12203572D01*
X18467857Y12175000D01*
X18496428Y12117858D01*
X18496428Y12060715D01*
X18467857Y12003572D01*
X18439285Y11975000D01*
X18382142Y11946429D01*
X18267857Y11917858D01*
X18125000Y11917858D01*
X18010714Y11946429D01*
X17953571Y11975000D01*
X17925000Y12003572D01*
X17896428Y12060715D01*
X17896428Y12460715D02*
X17896428Y12860715D01*
X18496428Y12603572D01*
X18628571Y5096429D02*
X18600000Y5039286D01*
X18542857Y4982143D01*
X18457142Y4896429D01*
X18428571Y4839286D01*
X18428571Y4782143D01*
X18571428Y4810715D02*
X18542857Y4753572D01*
X18485714Y4696429D01*
X18371428Y4667858D01*
X18171428Y4667858D01*
X18057142Y4696429D01*
X18000000Y4753572D01*
X17971428Y4810715D01*
X17971428Y4925000D01*
X18000000Y4982143D01*
X18057142Y5039286D01*
X18171428Y5067858D01*
X18371428Y5067858D01*
X18485714Y5039286D01*
X18542857Y4982143D01*
X18571428Y4925000D01*
X18571428Y4810715D01*
X18028571Y5296429D02*
X18000000Y5325000D01*
X17971428Y5382143D01*
X17971428Y5525000D01*
X18000000Y5582143D01*
X18028571Y5610715D01*
X18085714Y5639286D01*
X18142857Y5639286D01*
X18228571Y5610715D01*
X18571428Y5267858D01*
X18571428Y5639286D01*
X17971428Y6010715D02*
X17971428Y6067858D01*
X18000000Y6125000D01*
X18028571Y6153572D01*
X18085714Y6182143D01*
X18200000Y6210715D01*
X18342857Y6210715D01*
X18457142Y6182143D01*
X18514285Y6153572D01*
X18542857Y6125000D01*
X18571428Y6067858D01*
X18571428Y6010715D01*
X18542857Y5953572D01*
X18514285Y5925000D01*
X18457142Y5896429D01*
X18342857Y5867858D01*
X18200000Y5867858D01*
X18085714Y5896429D01*
X18028571Y5925000D01*
X18000000Y5953572D01*
X17971428Y6010715D01*
X18228571Y6553572D02*
X18200000Y6496429D01*
X18171428Y6467858D01*
X18114285Y6439286D01*
X18085714Y6439286D01*
X18028571Y6467858D01*
X18000000Y6496429D01*
X17971428Y6553572D01*
X17971428Y6667858D01*
X18000000Y6725000D01*
X18028571Y6753572D01*
X18085714Y6782143D01*
X18114285Y6782143D01*
X18171428Y6753572D01*
X18200000Y6725000D01*
X18228571Y6667858D01*
X18228571Y6553572D01*
X18257142Y6496429D01*
X18285714Y6467858D01*
X18342857Y6439286D01*
X18457142Y6439286D01*
X18514285Y6467858D01*
X18542857Y6496429D01*
X18571428Y6553572D01*
X18571428Y6667858D01*
X18542857Y6725000D01*
X18514285Y6753572D01*
X18457142Y6782143D01*
X18342857Y6782143D01*
X18285714Y6753572D01*
X18257142Y6725000D01*
X18228571Y6667858D01*
X24021428Y21946429D02*
X23964285Y21975000D01*
X23907142Y22032143D01*
X23821428Y22117858D01*
X23764285Y22146429D01*
X23707142Y22146429D01*
X23735714Y22003572D02*
X23678571Y22032143D01*
X23621428Y22089286D01*
X23592857Y22203572D01*
X23592857Y22403572D01*
X23621428Y22517858D01*
X23678571Y22575000D01*
X23735714Y22603572D01*
X23850000Y22603572D01*
X23907142Y22575000D01*
X23964285Y22517858D01*
X23992857Y22403572D01*
X23992857Y22203572D01*
X23964285Y22089286D01*
X23907142Y22032143D01*
X23850000Y22003572D01*
X23735714Y22003572D01*
X24221428Y22546429D02*
X24250000Y22575000D01*
X24307142Y22603572D01*
X24450000Y22603572D01*
X24507142Y22575000D01*
X24535714Y22546429D01*
X24564285Y22489286D01*
X24564285Y22432143D01*
X24535714Y22346429D01*
X24192857Y22003572D01*
X24564285Y22003572D01*
X24935714Y22603572D02*
X24992857Y22603572D01*
X25050000Y22575000D01*
X25078571Y22546429D01*
X25107142Y22489286D01*
X25135714Y22375000D01*
X25135714Y22232143D01*
X25107142Y22117858D01*
X25078571Y22060715D01*
X25050000Y22032143D01*
X24992857Y22003572D01*
X24935714Y22003572D01*
X24878571Y22032143D01*
X24850000Y22060715D01*
X24821428Y22117858D01*
X24792857Y22232143D01*
X24792857Y22375000D01*
X24821428Y22489286D01*
X24850000Y22546429D01*
X24878571Y22575000D01*
X24935714Y22603572D01*
X25421428Y22003572D02*
X25535714Y22003572D01*
X25592857Y22032143D01*
X25621428Y22060715D01*
X25678571Y22146429D01*
X25707142Y22260715D01*
X25707142Y22489286D01*
X25678571Y22546429D01*
X25650000Y22575000D01*
X25592857Y22603572D01*
X25478571Y22603572D01*
X25421428Y22575000D01*
X25392857Y22546429D01*
X25364285Y22489286D01*
X25364285Y22346429D01*
X25392857Y22289286D01*
X25421428Y22260715D01*
X25478571Y22232143D01*
X25592857Y22232143D01*
X25650000Y22260715D01*
X25678571Y22289286D01*
X25707142Y22346429D01*
X24021428Y15946429D02*
X23964285Y15975000D01*
X23907142Y16032143D01*
X23821428Y16117858D01*
X23764285Y16146429D01*
X23707142Y16146429D01*
X23735714Y16003572D02*
X23678571Y16032143D01*
X23621428Y16089286D01*
X23592857Y16203572D01*
X23592857Y16403572D01*
X23621428Y16517858D01*
X23678571Y16575000D01*
X23735714Y16603572D01*
X23850000Y16603572D01*
X23907142Y16575000D01*
X23964285Y16517858D01*
X23992857Y16403572D01*
X23992857Y16203572D01*
X23964285Y16089286D01*
X23907142Y16032143D01*
X23850000Y16003572D01*
X23735714Y16003572D01*
X24221428Y16546429D02*
X24250000Y16575000D01*
X24307142Y16603572D01*
X24450000Y16603572D01*
X24507142Y16575000D01*
X24535714Y16546429D01*
X24564285Y16489286D01*
X24564285Y16432143D01*
X24535714Y16346429D01*
X24192857Y16003572D01*
X24564285Y16003572D01*
X25135714Y16003572D02*
X24792857Y16003572D01*
X24964285Y16003572D02*
X24964285Y16603572D01*
X24907142Y16517858D01*
X24850000Y16460715D01*
X24792857Y16432143D01*
X25507142Y16603572D02*
X25564285Y16603572D01*
X25621428Y16575000D01*
X25650000Y16546429D01*
X25678571Y16489286D01*
X25707142Y16375000D01*
X25707142Y16232143D01*
X25678571Y16117858D01*
X25650000Y16060715D01*
X25621428Y16032143D01*
X25564285Y16003572D01*
X25507142Y16003572D01*
X25450000Y16032143D01*
X25421428Y16060715D01*
X25392857Y16117858D01*
X25364285Y16232143D01*
X25364285Y16375000D01*
X25392857Y16489286D01*
X25421428Y16546429D01*
X25450000Y16575000D01*
X25507142Y16603572D01*
X24021428Y9946429D02*
X23964285Y9975000D01*
X23907142Y10032143D01*
X23821428Y10117858D01*
X23764285Y10146429D01*
X23707142Y10146429D01*
X23735714Y10003572D02*
X23678571Y10032143D01*
X23621428Y10089286D01*
X23592857Y10203572D01*
X23592857Y10403572D01*
X23621428Y10517858D01*
X23678571Y10575000D01*
X23735714Y10603572D01*
X23850000Y10603572D01*
X23907142Y10575000D01*
X23964285Y10517858D01*
X23992857Y10403572D01*
X23992857Y10203572D01*
X23964285Y10089286D01*
X23907142Y10032143D01*
X23850000Y10003572D01*
X23735714Y10003572D01*
X24221428Y10546429D02*
X24250000Y10575000D01*
X24307142Y10603572D01*
X24450000Y10603572D01*
X24507142Y10575000D01*
X24535714Y10546429D01*
X24564285Y10489286D01*
X24564285Y10432143D01*
X24535714Y10346429D01*
X24192857Y10003572D01*
X24564285Y10003572D01*
X25135714Y10003572D02*
X24792857Y10003572D01*
X24964285Y10003572D02*
X24964285Y10603572D01*
X24907142Y10517858D01*
X24850000Y10460715D01*
X24792857Y10432143D01*
X25707142Y10003572D02*
X25364285Y10003572D01*
X25535714Y10003572D02*
X25535714Y10603572D01*
X25478571Y10517858D01*
X25421428Y10460715D01*
X25364285Y10432143D01*
X23971428Y4021429D02*
X23914285Y4050000D01*
X23857142Y4107143D01*
X23771428Y4192858D01*
X23714285Y4221429D01*
X23657142Y4221429D01*
X23685714Y4078572D02*
X23628571Y4107143D01*
X23571428Y4164286D01*
X23542857Y4278572D01*
X23542857Y4478572D01*
X23571428Y4592858D01*
X23628571Y4650000D01*
X23685714Y4678572D01*
X23800000Y4678572D01*
X23857142Y4650000D01*
X23914285Y4592858D01*
X23942857Y4478572D01*
X23942857Y4278572D01*
X23914285Y4164286D01*
X23857142Y4107143D01*
X23800000Y4078572D01*
X23685714Y4078572D01*
X24171428Y4621429D02*
X24200000Y4650000D01*
X24257142Y4678572D01*
X24400000Y4678572D01*
X24457142Y4650000D01*
X24485714Y4621429D01*
X24514285Y4564286D01*
X24514285Y4507143D01*
X24485714Y4421429D01*
X24142857Y4078572D01*
X24514285Y4078572D01*
X25085714Y4078572D02*
X24742857Y4078572D01*
X24914285Y4078572D02*
X24914285Y4678572D01*
X24857142Y4592858D01*
X24800000Y4535715D01*
X24742857Y4507143D01*
X25314285Y4621429D02*
X25342857Y4650000D01*
X25400000Y4678572D01*
X25542857Y4678572D01*
X25600000Y4650000D01*
X25628571Y4621429D01*
X25657142Y4564286D01*
X25657142Y4507143D01*
X25628571Y4421429D01*
X25285714Y4078572D01*
X25657142Y4078572D01*
X11896428Y45296429D02*
X11839285Y45325000D01*
X11782142Y45382143D01*
X11696428Y45467858D01*
X11639285Y45496429D01*
X11582142Y45496429D01*
X11610714Y45353572D02*
X11553571Y45382143D01*
X11496428Y45439286D01*
X11467857Y45553572D01*
X11467857Y45753572D01*
X11496428Y45867858D01*
X11553571Y45925000D01*
X11610714Y45953572D01*
X11725000Y45953572D01*
X11782142Y45925000D01*
X11839285Y45867858D01*
X11867857Y45753572D01*
X11867857Y45553572D01*
X11839285Y45439286D01*
X11782142Y45382143D01*
X11725000Y45353572D01*
X11610714Y45353572D01*
X12096428Y45896429D02*
X12125000Y45925000D01*
X12182142Y45953572D01*
X12325000Y45953572D01*
X12382142Y45925000D01*
X12410714Y45896429D01*
X12439285Y45839286D01*
X12439285Y45782143D01*
X12410714Y45696429D01*
X12067857Y45353572D01*
X12439285Y45353572D01*
X13010714Y45353572D02*
X12667857Y45353572D01*
X12839285Y45353572D02*
X12839285Y45953572D01*
X12782142Y45867858D01*
X12725000Y45810715D01*
X12667857Y45782143D01*
X13210714Y45953572D02*
X13582142Y45953572D01*
X13382142Y45725000D01*
X13467857Y45725000D01*
X13525000Y45696429D01*
X13553571Y45667858D01*
X13582142Y45610715D01*
X13582142Y45467858D01*
X13553571Y45410715D01*
X13525000Y45382143D01*
X13467857Y45353572D01*
X13296428Y45353572D01*
X13239285Y45382143D01*
X13210714Y45410715D01*
X9971428Y39196429D02*
X9914285Y39225000D01*
X9857142Y39282143D01*
X9771428Y39367858D01*
X9714285Y39396429D01*
X9657142Y39396429D01*
X9685714Y39253572D02*
X9628571Y39282143D01*
X9571428Y39339286D01*
X9542857Y39453572D01*
X9542857Y39653572D01*
X9571428Y39767858D01*
X9628571Y39825000D01*
X9685714Y39853572D01*
X9800000Y39853572D01*
X9857142Y39825000D01*
X9914285Y39767858D01*
X9942857Y39653572D01*
X9942857Y39453572D01*
X9914285Y39339286D01*
X9857142Y39282143D01*
X9800000Y39253572D01*
X9685714Y39253572D01*
X10171428Y39796429D02*
X10200000Y39825000D01*
X10257142Y39853572D01*
X10400000Y39853572D01*
X10457142Y39825000D01*
X10485714Y39796429D01*
X10514285Y39739286D01*
X10514285Y39682143D01*
X10485714Y39596429D01*
X10142857Y39253572D01*
X10514285Y39253572D01*
X11085714Y39253572D02*
X10742857Y39253572D01*
X10914285Y39253572D02*
X10914285Y39853572D01*
X10857142Y39767858D01*
X10800000Y39710715D01*
X10742857Y39682143D01*
X11600000Y39653572D02*
X11600000Y39253572D01*
X11457142Y39882143D02*
X11314285Y39453572D01*
X11685714Y39453572D01*
X9971428Y33196429D02*
X9914285Y33225000D01*
X9857142Y33282143D01*
X9771428Y33367858D01*
X9714285Y33396429D01*
X9657142Y33396429D01*
X9685714Y33253572D02*
X9628571Y33282143D01*
X9571428Y33339286D01*
X9542857Y33453572D01*
X9542857Y33653572D01*
X9571428Y33767858D01*
X9628571Y33825000D01*
X9685714Y33853572D01*
X9800000Y33853572D01*
X9857142Y33825000D01*
X9914285Y33767858D01*
X9942857Y33653572D01*
X9942857Y33453572D01*
X9914285Y33339286D01*
X9857142Y33282143D01*
X9800000Y33253572D01*
X9685714Y33253572D01*
X10171428Y33796429D02*
X10200000Y33825000D01*
X10257142Y33853572D01*
X10400000Y33853572D01*
X10457142Y33825000D01*
X10485714Y33796429D01*
X10514285Y33739286D01*
X10514285Y33682143D01*
X10485714Y33596429D01*
X10142857Y33253572D01*
X10514285Y33253572D01*
X11085714Y33253572D02*
X10742857Y33253572D01*
X10914285Y33253572D02*
X10914285Y33853572D01*
X10857142Y33767858D01*
X10800000Y33710715D01*
X10742857Y33682143D01*
X11628571Y33853572D02*
X11342857Y33853572D01*
X11314285Y33567858D01*
X11342857Y33596429D01*
X11400000Y33625000D01*
X11542857Y33625000D01*
X11600000Y33596429D01*
X11628571Y33567858D01*
X11657142Y33510715D01*
X11657142Y33367858D01*
X11628571Y33310715D01*
X11600000Y33282143D01*
X11542857Y33253572D01*
X11400000Y33253572D01*
X11342857Y33282143D01*
X11314285Y33310715D01*
X11796428Y27096429D02*
X11739285Y27125000D01*
X11682142Y27182143D01*
X11596428Y27267858D01*
X11539285Y27296429D01*
X11482142Y27296429D01*
X11510714Y27153572D02*
X11453571Y27182143D01*
X11396428Y27239286D01*
X11367857Y27353572D01*
X11367857Y27553572D01*
X11396428Y27667858D01*
X11453571Y27725000D01*
X11510714Y27753572D01*
X11625000Y27753572D01*
X11682142Y27725000D01*
X11739285Y27667858D01*
X11767857Y27553572D01*
X11767857Y27353572D01*
X11739285Y27239286D01*
X11682142Y27182143D01*
X11625000Y27153572D01*
X11510714Y27153572D01*
X11996428Y27696429D02*
X12025000Y27725000D01*
X12082142Y27753572D01*
X12225000Y27753572D01*
X12282142Y27725000D01*
X12310714Y27696429D01*
X12339285Y27639286D01*
X12339285Y27582143D01*
X12310714Y27496429D01*
X11967857Y27153572D01*
X12339285Y27153572D01*
X12910714Y27153572D02*
X12567857Y27153572D01*
X12739285Y27153572D02*
X12739285Y27753572D01*
X12682142Y27667858D01*
X12625000Y27610715D01*
X12567857Y27582143D01*
X13425000Y27753572D02*
X13310714Y27753572D01*
X13253571Y27725000D01*
X13225000Y27696429D01*
X13167857Y27610715D01*
X13139285Y27496429D01*
X13139285Y27267858D01*
X13167857Y27210715D01*
X13196428Y27182143D01*
X13253571Y27153572D01*
X13367857Y27153572D01*
X13425000Y27182143D01*
X13453571Y27210715D01*
X13482142Y27267858D01*
X13482142Y27410715D01*
X13453571Y27467858D01*
X13425000Y27496429D01*
X13367857Y27525000D01*
X13253571Y27525000D01*
X13196428Y27496429D01*
X13167857Y27467858D01*
X13139285Y27410715D01*
X14671428Y45296429D02*
X14614285Y45325000D01*
X14557142Y45382143D01*
X14471428Y45467858D01*
X14414285Y45496429D01*
X14357142Y45496429D01*
X14385714Y45353572D02*
X14328571Y45382143D01*
X14271428Y45439286D01*
X14242857Y45553572D01*
X14242857Y45753572D01*
X14271428Y45867858D01*
X14328571Y45925000D01*
X14385714Y45953572D01*
X14500000Y45953572D01*
X14557142Y45925000D01*
X14614285Y45867858D01*
X14642857Y45753572D01*
X14642857Y45553572D01*
X14614285Y45439286D01*
X14557142Y45382143D01*
X14500000Y45353572D01*
X14385714Y45353572D01*
X14871428Y45896429D02*
X14900000Y45925000D01*
X14957142Y45953572D01*
X15100000Y45953572D01*
X15157142Y45925000D01*
X15185714Y45896429D01*
X15214285Y45839286D01*
X15214285Y45782143D01*
X15185714Y45696429D01*
X14842857Y45353572D01*
X15214285Y45353572D01*
X15785714Y45353572D02*
X15442857Y45353572D01*
X15614285Y45353572D02*
X15614285Y45953572D01*
X15557142Y45867858D01*
X15500000Y45810715D01*
X15442857Y45782143D01*
X15985714Y45953572D02*
X16385714Y45953572D01*
X16128571Y45353572D01*
X18553571Y41096429D02*
X18525000Y41039286D01*
X18467857Y40982143D01*
X18382142Y40896429D01*
X18353571Y40839286D01*
X18353571Y40782143D01*
X18496428Y40810715D02*
X18467857Y40753572D01*
X18410714Y40696429D01*
X18296428Y40667858D01*
X18096428Y40667858D01*
X17982142Y40696429D01*
X17925000Y40753572D01*
X17896428Y40810715D01*
X17896428Y40925000D01*
X17925000Y40982143D01*
X17982142Y41039286D01*
X18096428Y41067858D01*
X18296428Y41067858D01*
X18410714Y41039286D01*
X18467857Y40982143D01*
X18496428Y40925000D01*
X18496428Y40810715D01*
X17953571Y41296429D02*
X17925000Y41325000D01*
X17896428Y41382143D01*
X17896428Y41525000D01*
X17925000Y41582143D01*
X17953571Y41610715D01*
X18010714Y41639286D01*
X18067857Y41639286D01*
X18153571Y41610715D01*
X18496428Y41267858D01*
X18496428Y41639286D01*
X18496428Y42210715D02*
X18496428Y41867858D01*
X18496428Y42039286D02*
X17896428Y42039286D01*
X17982142Y41982143D01*
X18039285Y41925000D01*
X18067857Y41867858D01*
X18153571Y42553572D02*
X18125000Y42496429D01*
X18096428Y42467858D01*
X18039285Y42439286D01*
X18010714Y42439286D01*
X17953571Y42467858D01*
X17925000Y42496429D01*
X17896428Y42553572D01*
X17896428Y42667858D01*
X17925000Y42725000D01*
X17953571Y42753572D01*
X18010714Y42782143D01*
X18039285Y42782143D01*
X18096428Y42753572D01*
X18125000Y42725000D01*
X18153571Y42667858D01*
X18153571Y42553572D01*
X18182142Y42496429D01*
X18210714Y42467858D01*
X18267857Y42439286D01*
X18382142Y42439286D01*
X18439285Y42467858D01*
X18467857Y42496429D01*
X18496428Y42553572D01*
X18496428Y42667858D01*
X18467857Y42725000D01*
X18439285Y42753572D01*
X18382142Y42782143D01*
X18267857Y42782143D01*
X18210714Y42753572D01*
X18182142Y42725000D01*
X18153571Y42667858D01*
X18553571Y35196429D02*
X18525000Y35139286D01*
X18467857Y35082143D01*
X18382142Y34996429D01*
X18353571Y34939286D01*
X18353571Y34882143D01*
X18496428Y34910715D02*
X18467857Y34853572D01*
X18410714Y34796429D01*
X18296428Y34767858D01*
X18096428Y34767858D01*
X17982142Y34796429D01*
X17925000Y34853572D01*
X17896428Y34910715D01*
X17896428Y35025000D01*
X17925000Y35082143D01*
X17982142Y35139286D01*
X18096428Y35167858D01*
X18296428Y35167858D01*
X18410714Y35139286D01*
X18467857Y35082143D01*
X18496428Y35025000D01*
X18496428Y34910715D01*
X17953571Y35396429D02*
X17925000Y35425000D01*
X17896428Y35482143D01*
X17896428Y35625000D01*
X17925000Y35682143D01*
X17953571Y35710715D01*
X18010714Y35739286D01*
X18067857Y35739286D01*
X18153571Y35710715D01*
X18496428Y35367858D01*
X18496428Y35739286D01*
X18496428Y36310715D02*
X18496428Y35967858D01*
X18496428Y36139286D02*
X17896428Y36139286D01*
X17982142Y36082143D01*
X18039285Y36025000D01*
X18067857Y35967858D01*
X18496428Y36596429D02*
X18496428Y36710715D01*
X18467857Y36767858D01*
X18439285Y36796429D01*
X18353571Y36853572D01*
X18239285Y36882143D01*
X18010714Y36882143D01*
X17953571Y36853572D01*
X17925000Y36825000D01*
X17896428Y36767858D01*
X17896428Y36653572D01*
X17925000Y36596429D01*
X17953571Y36567858D01*
X18010714Y36539286D01*
X18153571Y36539286D01*
X18210714Y36567858D01*
X18239285Y36596429D01*
X18267857Y36653572D01*
X18267857Y36767858D01*
X18239285Y36825000D01*
X18210714Y36853572D01*
X18153571Y36882143D01*
X18453571Y29146429D02*
X18425000Y29089286D01*
X18367857Y29032143D01*
X18282142Y28946429D01*
X18253571Y28889286D01*
X18253571Y28832143D01*
X18396428Y28860715D02*
X18367857Y28803572D01*
X18310714Y28746429D01*
X18196428Y28717858D01*
X17996428Y28717858D01*
X17882142Y28746429D01*
X17825000Y28803572D01*
X17796428Y28860715D01*
X17796428Y28975000D01*
X17825000Y29032143D01*
X17882142Y29089286D01*
X17996428Y29117858D01*
X18196428Y29117858D01*
X18310714Y29089286D01*
X18367857Y29032143D01*
X18396428Y28975000D01*
X18396428Y28860715D01*
X17853571Y29346429D02*
X17825000Y29375000D01*
X17796428Y29432143D01*
X17796428Y29575000D01*
X17825000Y29632143D01*
X17853571Y29660715D01*
X17910714Y29689286D01*
X17967857Y29689286D01*
X18053571Y29660715D01*
X18396428Y29317858D01*
X18396428Y29689286D01*
X17853571Y29917858D02*
X17825000Y29946429D01*
X17796428Y30003572D01*
X17796428Y30146429D01*
X17825000Y30203572D01*
X17853571Y30232143D01*
X17910714Y30260715D01*
X17967857Y30260715D01*
X18053571Y30232143D01*
X18396428Y29889286D01*
X18396428Y30260715D01*
X17796428Y30632143D02*
X17796428Y30689286D01*
X17825000Y30746429D01*
X17853571Y30775000D01*
X17910714Y30803572D01*
X18025000Y30832143D01*
X18167857Y30832143D01*
X18282142Y30803572D01*
X18339285Y30775000D01*
X18367857Y30746429D01*
X18396428Y30689286D01*
X18396428Y30632143D01*
X18367857Y30575000D01*
X18339285Y30546429D01*
X18282142Y30517858D01*
X18167857Y30489286D01*
X18025000Y30489286D01*
X17910714Y30517858D01*
X17853571Y30546429D01*
X17825000Y30575000D01*
X17796428Y30632143D01*
X24046428Y45671429D02*
X23989285Y45700000D01*
X23932142Y45757143D01*
X23846428Y45842858D01*
X23789285Y45871429D01*
X23732142Y45871429D01*
X23760714Y45728572D02*
X23703571Y45757143D01*
X23646428Y45814286D01*
X23617857Y45928572D01*
X23617857Y46128572D01*
X23646428Y46242858D01*
X23703571Y46300000D01*
X23760714Y46328572D01*
X23875000Y46328572D01*
X23932142Y46300000D01*
X23989285Y46242858D01*
X24017857Y46128572D01*
X24017857Y45928572D01*
X23989285Y45814286D01*
X23932142Y45757143D01*
X23875000Y45728572D01*
X23760714Y45728572D01*
X24246428Y46271429D02*
X24275000Y46300000D01*
X24332142Y46328572D01*
X24475000Y46328572D01*
X24532142Y46300000D01*
X24560714Y46271429D01*
X24589285Y46214286D01*
X24589285Y46157143D01*
X24560714Y46071429D01*
X24217857Y45728572D01*
X24589285Y45728572D01*
X24817857Y46271429D02*
X24846428Y46300000D01*
X24903571Y46328572D01*
X25046428Y46328572D01*
X25103571Y46300000D01*
X25132142Y46271429D01*
X25160714Y46214286D01*
X25160714Y46157143D01*
X25132142Y46071429D01*
X24789285Y45728572D01*
X25160714Y45728572D01*
X25732142Y45728572D02*
X25389285Y45728572D01*
X25560714Y45728572D02*
X25560714Y46328572D01*
X25503571Y46242858D01*
X25446428Y46185715D01*
X25389285Y46157143D01*
X24121428Y39896429D02*
X24064285Y39925000D01*
X24007142Y39982143D01*
X23921428Y40067858D01*
X23864285Y40096429D01*
X23807142Y40096429D01*
X23835714Y39953572D02*
X23778571Y39982143D01*
X23721428Y40039286D01*
X23692857Y40153572D01*
X23692857Y40353572D01*
X23721428Y40467858D01*
X23778571Y40525000D01*
X23835714Y40553572D01*
X23950000Y40553572D01*
X24007142Y40525000D01*
X24064285Y40467858D01*
X24092857Y40353572D01*
X24092857Y40153572D01*
X24064285Y40039286D01*
X24007142Y39982143D01*
X23950000Y39953572D01*
X23835714Y39953572D01*
X24321428Y40496429D02*
X24350000Y40525000D01*
X24407142Y40553572D01*
X24550000Y40553572D01*
X24607142Y40525000D01*
X24635714Y40496429D01*
X24664285Y40439286D01*
X24664285Y40382143D01*
X24635714Y40296429D01*
X24292857Y39953572D01*
X24664285Y39953572D01*
X24892857Y40496429D02*
X24921428Y40525000D01*
X24978571Y40553572D01*
X25121428Y40553572D01*
X25178571Y40525000D01*
X25207142Y40496429D01*
X25235714Y40439286D01*
X25235714Y40382143D01*
X25207142Y40296429D01*
X24864285Y39953572D01*
X25235714Y39953572D01*
X25464285Y40496429D02*
X25492857Y40525000D01*
X25550000Y40553572D01*
X25692857Y40553572D01*
X25750000Y40525000D01*
X25778571Y40496429D01*
X25807142Y40439286D01*
X25807142Y40382143D01*
X25778571Y40296429D01*
X25435714Y39953572D01*
X25807142Y39953572D01*
X24021428Y33946429D02*
X23964285Y33975000D01*
X23907142Y34032143D01*
X23821428Y34117858D01*
X23764285Y34146429D01*
X23707142Y34146429D01*
X23735714Y34003572D02*
X23678571Y34032143D01*
X23621428Y34089286D01*
X23592857Y34203572D01*
X23592857Y34403572D01*
X23621428Y34517858D01*
X23678571Y34575000D01*
X23735714Y34603572D01*
X23850000Y34603572D01*
X23907142Y34575000D01*
X23964285Y34517858D01*
X23992857Y34403572D01*
X23992857Y34203572D01*
X23964285Y34089286D01*
X23907142Y34032143D01*
X23850000Y34003572D01*
X23735714Y34003572D01*
X24221428Y34546429D02*
X24250000Y34575000D01*
X24307142Y34603572D01*
X24450000Y34603572D01*
X24507142Y34575000D01*
X24535714Y34546429D01*
X24564285Y34489286D01*
X24564285Y34432143D01*
X24535714Y34346429D01*
X24192857Y34003572D01*
X24564285Y34003572D01*
X24792857Y34546429D02*
X24821428Y34575000D01*
X24878571Y34603572D01*
X25021428Y34603572D01*
X25078571Y34575000D01*
X25107142Y34546429D01*
X25135714Y34489286D01*
X25135714Y34432143D01*
X25107142Y34346429D01*
X24764285Y34003572D01*
X25135714Y34003572D01*
X25335714Y34603572D02*
X25707142Y34603572D01*
X25507142Y34375000D01*
X25592857Y34375000D01*
X25650000Y34346429D01*
X25678571Y34317858D01*
X25707142Y34260715D01*
X25707142Y34117858D01*
X25678571Y34060715D01*
X25650000Y34032143D01*
X25592857Y34003572D01*
X25421428Y34003572D01*
X25364285Y34032143D01*
X25335714Y34060715D01*
X24021428Y27946429D02*
X23964285Y27975000D01*
X23907142Y28032143D01*
X23821428Y28117858D01*
X23764285Y28146429D01*
X23707142Y28146429D01*
X23735714Y28003572D02*
X23678571Y28032143D01*
X23621428Y28089286D01*
X23592857Y28203572D01*
X23592857Y28403572D01*
X23621428Y28517858D01*
X23678571Y28575000D01*
X23735714Y28603572D01*
X23850000Y28603572D01*
X23907142Y28575000D01*
X23964285Y28517858D01*
X23992857Y28403572D01*
X23992857Y28203572D01*
X23964285Y28089286D01*
X23907142Y28032143D01*
X23850000Y28003572D01*
X23735714Y28003572D01*
X24221428Y28546429D02*
X24250000Y28575000D01*
X24307142Y28603572D01*
X24450000Y28603572D01*
X24507142Y28575000D01*
X24535714Y28546429D01*
X24564285Y28489286D01*
X24564285Y28432143D01*
X24535714Y28346429D01*
X24192857Y28003572D01*
X24564285Y28003572D01*
X24792857Y28546429D02*
X24821428Y28575000D01*
X24878571Y28603572D01*
X25021428Y28603572D01*
X25078571Y28575000D01*
X25107142Y28546429D01*
X25135714Y28489286D01*
X25135714Y28432143D01*
X25107142Y28346429D01*
X24764285Y28003572D01*
X25135714Y28003572D01*
X25650000Y28403572D02*
X25650000Y28003572D01*
X25507142Y28632143D02*
X25364285Y28203572D01*
X25735714Y28203572D01*
X8971428Y23178572D02*
X8685714Y22978572D01*
X8971428Y22835715D02*
X8371428Y22835715D01*
X8371428Y23064286D01*
X8400000Y23121429D01*
X8428571Y23150000D01*
X8485714Y23178572D01*
X8571428Y23178572D01*
X8628571Y23150000D01*
X8657142Y23121429D01*
X8685714Y23064286D01*
X8685714Y22835715D01*
X8428571Y23407143D02*
X8400000Y23435715D01*
X8371428Y23492858D01*
X8371428Y23635715D01*
X8400000Y23692858D01*
X8428571Y23721429D01*
X8485714Y23750000D01*
X8542857Y23750000D01*
X8628571Y23721429D01*
X8971428Y23378572D01*
X8971428Y23750000D01*
X8971428Y24321429D02*
X8971428Y23978572D01*
X8971428Y24150000D02*
X8371428Y24150000D01*
X8457142Y24092858D01*
X8514285Y24035715D01*
X8542857Y23978572D01*
X8371428Y24521429D02*
X8371428Y24921429D01*
X8971428Y24664286D01*
X8971428Y17178572D02*
X8685714Y16978572D01*
X8971428Y16835715D02*
X8371428Y16835715D01*
X8371428Y17064286D01*
X8400000Y17121429D01*
X8428571Y17150000D01*
X8485714Y17178572D01*
X8571428Y17178572D01*
X8628571Y17150000D01*
X8657142Y17121429D01*
X8685714Y17064286D01*
X8685714Y16835715D01*
X8428571Y17407143D02*
X8400000Y17435715D01*
X8371428Y17492858D01*
X8371428Y17635715D01*
X8400000Y17692858D01*
X8428571Y17721429D01*
X8485714Y17750000D01*
X8542857Y17750000D01*
X8628571Y17721429D01*
X8971428Y17378572D01*
X8971428Y17750000D01*
X8971428Y18321429D02*
X8971428Y17978572D01*
X8971428Y18150000D02*
X8371428Y18150000D01*
X8457142Y18092858D01*
X8514285Y18035715D01*
X8542857Y17978572D01*
X8628571Y18664286D02*
X8600000Y18607143D01*
X8571428Y18578572D01*
X8514285Y18550000D01*
X8485714Y18550000D01*
X8428571Y18578572D01*
X8400000Y18607143D01*
X8371428Y18664286D01*
X8371428Y18778572D01*
X8400000Y18835715D01*
X8428571Y18864286D01*
X8485714Y18892858D01*
X8514285Y18892858D01*
X8571428Y18864286D01*
X8600000Y18835715D01*
X8628571Y18778572D01*
X8628571Y18664286D01*
X8657142Y18607143D01*
X8685714Y18578572D01*
X8742857Y18550000D01*
X8857142Y18550000D01*
X8914285Y18578572D01*
X8942857Y18607143D01*
X8971428Y18664286D01*
X8971428Y18778572D01*
X8942857Y18835715D01*
X8914285Y18864286D01*
X8857142Y18892858D01*
X8742857Y18892858D01*
X8685714Y18864286D01*
X8657142Y18835715D01*
X8628571Y18778572D01*
X9228571Y9278572D02*
X9028571Y9564286D01*
X8885714Y9278572D02*
X8885714Y9878572D01*
X9114285Y9878572D01*
X9171428Y9850000D01*
X9200000Y9821429D01*
X9228571Y9764286D01*
X9228571Y9678572D01*
X9200000Y9621429D01*
X9171428Y9592858D01*
X9114285Y9564286D01*
X8885714Y9564286D01*
X9457142Y9821429D02*
X9485714Y9850000D01*
X9542857Y9878572D01*
X9685714Y9878572D01*
X9742857Y9850000D01*
X9771428Y9821429D01*
X9800000Y9764286D01*
X9800000Y9707143D01*
X9771428Y9621429D01*
X9428571Y9278572D01*
X9800000Y9278572D01*
X10371428Y9278572D02*
X10028571Y9278572D01*
X10200000Y9278572D02*
X10200000Y9878572D01*
X10142857Y9792858D01*
X10085714Y9735715D01*
X10028571Y9707143D01*
X10657142Y9278572D02*
X10771428Y9278572D01*
X10828571Y9307143D01*
X10857142Y9335715D01*
X10914285Y9421429D01*
X10942857Y9535715D01*
X10942857Y9764286D01*
X10914285Y9821429D01*
X10885714Y9850000D01*
X10828571Y9878572D01*
X10714285Y9878572D01*
X10657142Y9850000D01*
X10628571Y9821429D01*
X10600000Y9764286D01*
X10600000Y9621429D01*
X10628571Y9564286D01*
X10657142Y9535715D01*
X10714285Y9507143D01*
X10828571Y9507143D01*
X10885714Y9535715D01*
X10914285Y9564286D01*
X10942857Y9621429D01*
X8921428Y5128572D02*
X8635714Y4928572D01*
X8921428Y4785715D02*
X8321428Y4785715D01*
X8321428Y5014286D01*
X8350000Y5071429D01*
X8378571Y5100000D01*
X8435714Y5128572D01*
X8521428Y5128572D01*
X8578571Y5100000D01*
X8607142Y5071429D01*
X8635714Y5014286D01*
X8635714Y4785715D01*
X8378571Y5357143D02*
X8350000Y5385715D01*
X8321428Y5442858D01*
X8321428Y5585715D01*
X8350000Y5642858D01*
X8378571Y5671429D01*
X8435714Y5700000D01*
X8492857Y5700000D01*
X8578571Y5671429D01*
X8921428Y5328572D01*
X8921428Y5700000D01*
X8378571Y5928572D02*
X8350000Y5957143D01*
X8321428Y6014286D01*
X8321428Y6157143D01*
X8350000Y6214286D01*
X8378571Y6242858D01*
X8435714Y6271429D01*
X8492857Y6271429D01*
X8578571Y6242858D01*
X8921428Y5900000D01*
X8921428Y6271429D01*
X8321428Y6642858D02*
X8321428Y6700000D01*
X8350000Y6757143D01*
X8378571Y6785715D01*
X8435714Y6814286D01*
X8550000Y6842858D01*
X8692857Y6842858D01*
X8807142Y6814286D01*
X8864285Y6785715D01*
X8892857Y6757143D01*
X8921428Y6700000D01*
X8921428Y6642858D01*
X8892857Y6585715D01*
X8864285Y6557143D01*
X8807142Y6528572D01*
X8692857Y6500000D01*
X8550000Y6500000D01*
X8435714Y6528572D01*
X8378571Y6557143D01*
X8350000Y6585715D01*
X8321428Y6642858D01*
X20853571Y19728572D02*
X20653571Y20014286D01*
X20510714Y19728572D02*
X20510714Y20328572D01*
X20739285Y20328572D01*
X20796428Y20300000D01*
X20825000Y20271429D01*
X20853571Y20214286D01*
X20853571Y20128572D01*
X20825000Y20071429D01*
X20796428Y20042858D01*
X20739285Y20014286D01*
X20510714Y20014286D01*
X21082142Y20271429D02*
X21110714Y20300000D01*
X21167857Y20328572D01*
X21310714Y20328572D01*
X21367857Y20300000D01*
X21396428Y20271429D01*
X21425000Y20214286D01*
X21425000Y20157143D01*
X21396428Y20071429D01*
X21053571Y19728572D01*
X21425000Y19728572D01*
X21653571Y20271429D02*
X21682142Y20300000D01*
X21739285Y20328572D01*
X21882142Y20328572D01*
X21939285Y20300000D01*
X21967857Y20271429D01*
X21996428Y20214286D01*
X21996428Y20157143D01*
X21967857Y20071429D01*
X21625000Y19728572D01*
X21996428Y19728572D01*
X22339285Y20071429D02*
X22282142Y20100000D01*
X22253571Y20128572D01*
X22225000Y20185715D01*
X22225000Y20214286D01*
X22253571Y20271429D01*
X22282142Y20300000D01*
X22339285Y20328572D01*
X22453571Y20328572D01*
X22510714Y20300000D01*
X22539285Y20271429D01*
X22567857Y20214286D01*
X22567857Y20185715D01*
X22539285Y20128572D01*
X22510714Y20100000D01*
X22453571Y20071429D01*
X22339285Y20071429D01*
X22282142Y20042858D01*
X22253571Y20014286D01*
X22225000Y19957143D01*
X22225000Y19842858D01*
X22253571Y19785715D01*
X22282142Y19757143D01*
X22339285Y19728572D01*
X22453571Y19728572D01*
X22510714Y19757143D01*
X22539285Y19785715D01*
X22567857Y19842858D01*
X22567857Y19957143D01*
X22539285Y20014286D01*
X22510714Y20042858D01*
X22453571Y20071429D01*
X20853571Y13703572D02*
X20653571Y13989286D01*
X20510714Y13703572D02*
X20510714Y14303572D01*
X20739285Y14303572D01*
X20796428Y14275000D01*
X20825000Y14246429D01*
X20853571Y14189286D01*
X20853571Y14103572D01*
X20825000Y14046429D01*
X20796428Y14017858D01*
X20739285Y13989286D01*
X20510714Y13989286D01*
X21082142Y14246429D02*
X21110714Y14275000D01*
X21167857Y14303572D01*
X21310714Y14303572D01*
X21367857Y14275000D01*
X21396428Y14246429D01*
X21425000Y14189286D01*
X21425000Y14132143D01*
X21396428Y14046429D01*
X21053571Y13703572D01*
X21425000Y13703572D01*
X21653571Y14246429D02*
X21682142Y14275000D01*
X21739285Y14303572D01*
X21882142Y14303572D01*
X21939285Y14275000D01*
X21967857Y14246429D01*
X21996428Y14189286D01*
X21996428Y14132143D01*
X21967857Y14046429D01*
X21625000Y13703572D01*
X21996428Y13703572D01*
X22282142Y13703572D02*
X22396428Y13703572D01*
X22453571Y13732143D01*
X22482142Y13760715D01*
X22539285Y13846429D01*
X22567857Y13960715D01*
X22567857Y14189286D01*
X22539285Y14246429D01*
X22510714Y14275000D01*
X22453571Y14303572D01*
X22339285Y14303572D01*
X22282142Y14275000D01*
X22253571Y14246429D01*
X22225000Y14189286D01*
X22225000Y14046429D01*
X22253571Y13989286D01*
X22282142Y13960715D01*
X22339285Y13932143D01*
X22453571Y13932143D01*
X22510714Y13960715D01*
X22539285Y13989286D01*
X22567857Y14046429D01*
X20828571Y7703572D02*
X20628571Y7989286D01*
X20485714Y7703572D02*
X20485714Y8303572D01*
X20714285Y8303572D01*
X20771428Y8275000D01*
X20800000Y8246429D01*
X20828571Y8189286D01*
X20828571Y8103572D01*
X20800000Y8046429D01*
X20771428Y8017858D01*
X20714285Y7989286D01*
X20485714Y7989286D01*
X21057142Y8246429D02*
X21085714Y8275000D01*
X21142857Y8303572D01*
X21285714Y8303572D01*
X21342857Y8275000D01*
X21371428Y8246429D01*
X21400000Y8189286D01*
X21400000Y8132143D01*
X21371428Y8046429D01*
X21028571Y7703572D01*
X21400000Y7703572D01*
X21600000Y8303572D02*
X21971428Y8303572D01*
X21771428Y8075000D01*
X21857142Y8075000D01*
X21914285Y8046429D01*
X21942857Y8017858D01*
X21971428Y7960715D01*
X21971428Y7817858D01*
X21942857Y7760715D01*
X21914285Y7732143D01*
X21857142Y7703572D01*
X21685714Y7703572D01*
X21628571Y7732143D01*
X21600000Y7760715D01*
X22342857Y8303572D02*
X22400000Y8303572D01*
X22457142Y8275000D01*
X22485714Y8246429D01*
X22514285Y8189286D01*
X22542857Y8075000D01*
X22542857Y7932143D01*
X22514285Y7817858D01*
X22485714Y7760715D01*
X22457142Y7732143D01*
X22400000Y7703572D01*
X22342857Y7703572D01*
X22285714Y7732143D01*
X22257142Y7760715D01*
X22228571Y7817858D01*
X22200000Y7932143D01*
X22200000Y8075000D01*
X22228571Y8189286D01*
X22257142Y8246429D01*
X22285714Y8275000D01*
X22342857Y8303572D01*
X20853571Y1703572D02*
X20653571Y1989286D01*
X20510714Y1703572D02*
X20510714Y2303572D01*
X20739285Y2303572D01*
X20796428Y2275000D01*
X20825000Y2246429D01*
X20853571Y2189286D01*
X20853571Y2103572D01*
X20825000Y2046429D01*
X20796428Y2017858D01*
X20739285Y1989286D01*
X20510714Y1989286D01*
X21082142Y2246429D02*
X21110714Y2275000D01*
X21167857Y2303572D01*
X21310714Y2303572D01*
X21367857Y2275000D01*
X21396428Y2246429D01*
X21425000Y2189286D01*
X21425000Y2132143D01*
X21396428Y2046429D01*
X21053571Y1703572D01*
X21425000Y1703572D01*
X21625000Y2303572D02*
X21996428Y2303572D01*
X21796428Y2075000D01*
X21882142Y2075000D01*
X21939285Y2046429D01*
X21967857Y2017858D01*
X21996428Y1960715D01*
X21996428Y1817858D01*
X21967857Y1760715D01*
X21939285Y1732143D01*
X21882142Y1703572D01*
X21710714Y1703572D01*
X21653571Y1732143D01*
X21625000Y1760715D01*
X22567857Y1703572D02*
X22225000Y1703572D01*
X22396428Y1703572D02*
X22396428Y2303572D01*
X22339285Y2217858D01*
X22282142Y2160715D01*
X22225000Y2132143D01*
X9096428Y47278572D02*
X8810714Y47078572D01*
X9096428Y46935715D02*
X8496428Y46935715D01*
X8496428Y47164286D01*
X8525000Y47221429D01*
X8553571Y47250000D01*
X8610714Y47278572D01*
X8696428Y47278572D01*
X8753571Y47250000D01*
X8782142Y47221429D01*
X8810714Y47164286D01*
X8810714Y46935715D01*
X8553571Y47507143D02*
X8525000Y47535715D01*
X8496428Y47592858D01*
X8496428Y47735715D01*
X8525000Y47792858D01*
X8553571Y47821429D01*
X8610714Y47850000D01*
X8667857Y47850000D01*
X8753571Y47821429D01*
X9096428Y47478572D01*
X9096428Y47850000D01*
X8496428Y48050000D02*
X8496428Y48421429D01*
X8725000Y48221429D01*
X8725000Y48307143D01*
X8753571Y48364286D01*
X8782142Y48392858D01*
X8839285Y48421429D01*
X8982142Y48421429D01*
X9039285Y48392858D01*
X9067857Y48364286D01*
X9096428Y48307143D01*
X9096428Y48135715D01*
X9067857Y48078572D01*
X9039285Y48050000D01*
X8496428Y48935715D02*
X8496428Y48821429D01*
X8525000Y48764286D01*
X8553571Y48735715D01*
X8639285Y48678572D01*
X8753571Y48650000D01*
X8982142Y48650000D01*
X9039285Y48678572D01*
X9067857Y48707143D01*
X9096428Y48764286D01*
X9096428Y48878572D01*
X9067857Y48935715D01*
X9039285Y48964286D01*
X8982142Y48992858D01*
X8839285Y48992858D01*
X8782142Y48964286D01*
X8753571Y48935715D01*
X8725000Y48878572D01*
X8725000Y48764286D01*
X8753571Y48707143D01*
X8782142Y48678572D01*
X8839285Y48650000D01*
X8971428Y41128572D02*
X8685714Y40928572D01*
X8971428Y40785715D02*
X8371428Y40785715D01*
X8371428Y41014286D01*
X8400000Y41071429D01*
X8428571Y41100000D01*
X8485714Y41128572D01*
X8571428Y41128572D01*
X8628571Y41100000D01*
X8657142Y41071429D01*
X8685714Y41014286D01*
X8685714Y40785715D01*
X8428571Y41357143D02*
X8400000Y41385715D01*
X8371428Y41442858D01*
X8371428Y41585715D01*
X8400000Y41642858D01*
X8428571Y41671429D01*
X8485714Y41700000D01*
X8542857Y41700000D01*
X8628571Y41671429D01*
X8971428Y41328572D01*
X8971428Y41700000D01*
X8371428Y41900000D02*
X8371428Y42271429D01*
X8600000Y42071429D01*
X8600000Y42157143D01*
X8628571Y42214286D01*
X8657142Y42242858D01*
X8714285Y42271429D01*
X8857142Y42271429D01*
X8914285Y42242858D01*
X8942857Y42214286D01*
X8971428Y42157143D01*
X8971428Y41985715D01*
X8942857Y41928572D01*
X8914285Y41900000D01*
X8371428Y42471429D02*
X8371428Y42871429D01*
X8971428Y42614286D01*
X8871428Y35428572D02*
X8585714Y35228572D01*
X8871428Y35085715D02*
X8271428Y35085715D01*
X8271428Y35314286D01*
X8300000Y35371429D01*
X8328571Y35400000D01*
X8385714Y35428572D01*
X8471428Y35428572D01*
X8528571Y35400000D01*
X8557142Y35371429D01*
X8585714Y35314286D01*
X8585714Y35085715D01*
X8328571Y35657143D02*
X8300000Y35685715D01*
X8271428Y35742858D01*
X8271428Y35885715D01*
X8300000Y35942858D01*
X8328571Y35971429D01*
X8385714Y36000000D01*
X8442857Y36000000D01*
X8528571Y35971429D01*
X8871428Y35628572D01*
X8871428Y36000000D01*
X8271428Y36200000D02*
X8271428Y36571429D01*
X8500000Y36371429D01*
X8500000Y36457143D01*
X8528571Y36514286D01*
X8557142Y36542858D01*
X8614285Y36571429D01*
X8757142Y36571429D01*
X8814285Y36542858D01*
X8842857Y36514286D01*
X8871428Y36457143D01*
X8871428Y36285715D01*
X8842857Y36228572D01*
X8814285Y36200000D01*
X8528571Y36914286D02*
X8500000Y36857143D01*
X8471428Y36828572D01*
X8414285Y36800000D01*
X8385714Y36800000D01*
X8328571Y36828572D01*
X8300000Y36857143D01*
X8271428Y36914286D01*
X8271428Y37028572D01*
X8300000Y37085715D01*
X8328571Y37114286D01*
X8385714Y37142858D01*
X8414285Y37142858D01*
X8471428Y37114286D01*
X8500000Y37085715D01*
X8528571Y37028572D01*
X8528571Y36914286D01*
X8557142Y36857143D01*
X8585714Y36828572D01*
X8642857Y36800000D01*
X8757142Y36800000D01*
X8814285Y36828572D01*
X8842857Y36857143D01*
X8871428Y36914286D01*
X8871428Y37028572D01*
X8842857Y37085715D01*
X8814285Y37114286D01*
X8757142Y37142858D01*
X8642857Y37142858D01*
X8585714Y37114286D01*
X8557142Y37085715D01*
X8528571Y37028572D01*
X9071428Y29178572D02*
X8785714Y28978572D01*
X9071428Y28835715D02*
X8471428Y28835715D01*
X8471428Y29064286D01*
X8500000Y29121429D01*
X8528571Y29150000D01*
X8585714Y29178572D01*
X8671428Y29178572D01*
X8728571Y29150000D01*
X8757142Y29121429D01*
X8785714Y29064286D01*
X8785714Y28835715D01*
X8528571Y29407143D02*
X8500000Y29435715D01*
X8471428Y29492858D01*
X8471428Y29635715D01*
X8500000Y29692858D01*
X8528571Y29721429D01*
X8585714Y29750000D01*
X8642857Y29750000D01*
X8728571Y29721429D01*
X9071428Y29378572D01*
X9071428Y29750000D01*
X8471428Y29950000D02*
X8471428Y30321429D01*
X8700000Y30121429D01*
X8700000Y30207143D01*
X8728571Y30264286D01*
X8757142Y30292858D01*
X8814285Y30321429D01*
X8957142Y30321429D01*
X9014285Y30292858D01*
X9042857Y30264286D01*
X9071428Y30207143D01*
X9071428Y30035715D01*
X9042857Y29978572D01*
X9014285Y29950000D01*
X9071428Y30607143D02*
X9071428Y30721429D01*
X9042857Y30778572D01*
X9014285Y30807143D01*
X8928571Y30864286D01*
X8814285Y30892858D01*
X8585714Y30892858D01*
X8528571Y30864286D01*
X8500000Y30835715D01*
X8471428Y30778572D01*
X8471428Y30664286D01*
X8500000Y30607143D01*
X8528571Y30578572D01*
X8585714Y30550000D01*
X8728571Y30550000D01*
X8785714Y30578572D01*
X8814285Y30607143D01*
X8842857Y30664286D01*
X8842857Y30778572D01*
X8814285Y30835715D01*
X8785714Y30864286D01*
X8728571Y30892858D01*
X10703571Y44078572D02*
X10503571Y44364286D01*
X10360714Y44078572D02*
X10360714Y44678572D01*
X10589285Y44678572D01*
X10646428Y44650000D01*
X10675000Y44621429D01*
X10703571Y44564286D01*
X10703571Y44478572D01*
X10675000Y44421429D01*
X10646428Y44392858D01*
X10589285Y44364286D01*
X10360714Y44364286D01*
X10932142Y44621429D02*
X10960714Y44650000D01*
X11017857Y44678572D01*
X11160714Y44678572D01*
X11217857Y44650000D01*
X11246428Y44621429D01*
X11275000Y44564286D01*
X11275000Y44507143D01*
X11246428Y44421429D01*
X10903571Y44078572D01*
X11275000Y44078572D01*
X11789285Y44478572D02*
X11789285Y44078572D01*
X11646428Y44707143D02*
X11503571Y44278572D01*
X11875000Y44278572D01*
X12046428Y44678572D02*
X12417857Y44678572D01*
X12217857Y44450000D01*
X12303571Y44450000D01*
X12360714Y44421429D01*
X12389285Y44392858D01*
X12417857Y44335715D01*
X12417857Y44192858D01*
X12389285Y44135715D01*
X12360714Y44107143D01*
X12303571Y44078572D01*
X12132142Y44078572D01*
X12075000Y44107143D01*
X12046428Y44135715D01*
X10678571Y38153572D02*
X10478571Y38439286D01*
X10335714Y38153572D02*
X10335714Y38753572D01*
X10564285Y38753572D01*
X10621428Y38725000D01*
X10650000Y38696429D01*
X10678571Y38639286D01*
X10678571Y38553572D01*
X10650000Y38496429D01*
X10621428Y38467858D01*
X10564285Y38439286D01*
X10335714Y38439286D01*
X10907142Y38696429D02*
X10935714Y38725000D01*
X10992857Y38753572D01*
X11135714Y38753572D01*
X11192857Y38725000D01*
X11221428Y38696429D01*
X11250000Y38639286D01*
X11250000Y38582143D01*
X11221428Y38496429D01*
X10878571Y38153572D01*
X11250000Y38153572D01*
X11764285Y38553572D02*
X11764285Y38153572D01*
X11621428Y38782143D02*
X11478571Y38353572D01*
X11850000Y38353572D01*
X12364285Y38753572D02*
X12078571Y38753572D01*
X12050000Y38467858D01*
X12078571Y38496429D01*
X12135714Y38525000D01*
X12278571Y38525000D01*
X12335714Y38496429D01*
X12364285Y38467858D01*
X12392857Y38410715D01*
X12392857Y38267858D01*
X12364285Y38210715D01*
X12335714Y38182143D01*
X12278571Y38153572D01*
X12135714Y38153572D01*
X12078571Y38182143D01*
X12050000Y38210715D01*
X10678571Y32003572D02*
X10478571Y32289286D01*
X10335714Y32003572D02*
X10335714Y32603572D01*
X10564285Y32603572D01*
X10621428Y32575000D01*
X10650000Y32546429D01*
X10678571Y32489286D01*
X10678571Y32403572D01*
X10650000Y32346429D01*
X10621428Y32317858D01*
X10564285Y32289286D01*
X10335714Y32289286D01*
X10907142Y32546429D02*
X10935714Y32575000D01*
X10992857Y32603572D01*
X11135714Y32603572D01*
X11192857Y32575000D01*
X11221428Y32546429D01*
X11250000Y32489286D01*
X11250000Y32432143D01*
X11221428Y32346429D01*
X10878571Y32003572D01*
X11250000Y32003572D01*
X11764285Y32403572D02*
X11764285Y32003572D01*
X11621428Y32632143D02*
X11478571Y32203572D01*
X11850000Y32203572D01*
X12021428Y32603572D02*
X12421428Y32603572D01*
X12164285Y32003572D01*
X23653571Y38853572D02*
X23453571Y39139286D01*
X23310714Y38853572D02*
X23310714Y39453572D01*
X23539285Y39453572D01*
X23596428Y39425000D01*
X23625000Y39396429D01*
X23653571Y39339286D01*
X23653571Y39253572D01*
X23625000Y39196429D01*
X23596428Y39167858D01*
X23539285Y39139286D01*
X23310714Y39139286D01*
X23882142Y39396429D02*
X23910714Y39425000D01*
X23967857Y39453572D01*
X24110714Y39453572D01*
X24167857Y39425000D01*
X24196428Y39396429D01*
X24225000Y39339286D01*
X24225000Y39282143D01*
X24196428Y39196429D01*
X23853571Y38853572D01*
X24225000Y38853572D01*
X24739285Y39253572D02*
X24739285Y38853572D01*
X24596428Y39482143D02*
X24453571Y39053572D01*
X24825000Y39053572D01*
X25082142Y38853572D02*
X25196428Y38853572D01*
X25253571Y38882143D01*
X25282142Y38910715D01*
X25339285Y38996429D01*
X25367857Y39110715D01*
X25367857Y39339286D01*
X25339285Y39396429D01*
X25310714Y39425000D01*
X25253571Y39453572D01*
X25139285Y39453572D01*
X25082142Y39425000D01*
X25053571Y39396429D01*
X25025000Y39339286D01*
X25025000Y39196429D01*
X25053571Y39139286D01*
X25082142Y39110715D01*
X25139285Y39082143D01*
X25253571Y39082143D01*
X25310714Y39110715D01*
X25339285Y39139286D01*
X25367857Y39196429D01*
X23753571Y32903572D02*
X23553571Y33189286D01*
X23410714Y32903572D02*
X23410714Y33503572D01*
X23639285Y33503572D01*
X23696428Y33475000D01*
X23725000Y33446429D01*
X23753571Y33389286D01*
X23753571Y33303572D01*
X23725000Y33246429D01*
X23696428Y33217858D01*
X23639285Y33189286D01*
X23410714Y33189286D01*
X23982142Y33446429D02*
X24010714Y33475000D01*
X24067857Y33503572D01*
X24210714Y33503572D01*
X24267857Y33475000D01*
X24296428Y33446429D01*
X24325000Y33389286D01*
X24325000Y33332143D01*
X24296428Y33246429D01*
X23953571Y32903572D01*
X24325000Y32903572D01*
X24867857Y33503572D02*
X24582142Y33503572D01*
X24553571Y33217858D01*
X24582142Y33246429D01*
X24639285Y33275000D01*
X24782142Y33275000D01*
X24839285Y33246429D01*
X24867857Y33217858D01*
X24896428Y33160715D01*
X24896428Y33017858D01*
X24867857Y32960715D01*
X24839285Y32932143D01*
X24782142Y32903572D01*
X24639285Y32903572D01*
X24582142Y32932143D01*
X24553571Y32960715D01*
X25267857Y33503572D02*
X25325000Y33503572D01*
X25382142Y33475000D01*
X25410714Y33446429D01*
X25439285Y33389286D01*
X25467857Y33275000D01*
X25467857Y33132143D01*
X25439285Y33017858D01*
X25410714Y32960715D01*
X25382142Y32932143D01*
X25325000Y32903572D01*
X25267857Y32903572D01*
X25210714Y32932143D01*
X25182142Y32960715D01*
X25153571Y33017858D01*
X25125000Y33132143D01*
X25125000Y33275000D01*
X25153571Y33389286D01*
X25182142Y33446429D01*
X25210714Y33475000D01*
X25267857Y33503572D01*
X20853571Y25703572D02*
X20653571Y25989286D01*
X20510714Y25703572D02*
X20510714Y26303572D01*
X20739285Y26303572D01*
X20796428Y26275000D01*
X20825000Y26246429D01*
X20853571Y26189286D01*
X20853571Y26103572D01*
X20825000Y26046429D01*
X20796428Y26017858D01*
X20739285Y25989286D01*
X20510714Y25989286D01*
X21082142Y26246429D02*
X21110714Y26275000D01*
X21167857Y26303572D01*
X21310714Y26303572D01*
X21367857Y26275000D01*
X21396428Y26246429D01*
X21425000Y26189286D01*
X21425000Y26132143D01*
X21396428Y26046429D01*
X21053571Y25703572D01*
X21425000Y25703572D01*
X21967857Y26303572D02*
X21682142Y26303572D01*
X21653571Y26017858D01*
X21682142Y26046429D01*
X21739285Y26075000D01*
X21882142Y26075000D01*
X21939285Y26046429D01*
X21967857Y26017858D01*
X21996428Y25960715D01*
X21996428Y25817858D01*
X21967857Y25760715D01*
X21939285Y25732143D01*
X21882142Y25703572D01*
X21739285Y25703572D01*
X21682142Y25732143D01*
X21653571Y25760715D01*
X22567857Y25703572D02*
X22225000Y25703572D01*
X22396428Y25703572D02*
X22396428Y26303572D01*
X22339285Y26217858D01*
X22282142Y26160715D01*
X22225000Y26132143D01*
X27303571Y15833572D02*
X27103571Y16119286D01*
X26960714Y15833572D02*
X26960714Y16433572D01*
X27189285Y16433572D01*
X27246428Y16405000D01*
X27275000Y16376429D01*
X27303571Y16319286D01*
X27303571Y16233572D01*
X27275000Y16176429D01*
X27246428Y16147858D01*
X27189285Y16119286D01*
X26960714Y16119286D01*
X27532142Y16376429D02*
X27560714Y16405000D01*
X27617857Y16433572D01*
X27760714Y16433572D01*
X27817857Y16405000D01*
X27846428Y16376429D01*
X27875000Y16319286D01*
X27875000Y16262143D01*
X27846428Y16176429D01*
X27503571Y15833572D01*
X27875000Y15833572D01*
X28075000Y16433572D02*
X28446428Y16433572D01*
X28246428Y16205000D01*
X28332142Y16205000D01*
X28389285Y16176429D01*
X28417857Y16147858D01*
X28446428Y16090715D01*
X28446428Y15947858D01*
X28417857Y15890715D01*
X28389285Y15862143D01*
X28332142Y15833572D01*
X28160714Y15833572D01*
X28103571Y15862143D01*
X28075000Y15890715D01*
X28646428Y16433572D02*
X29017857Y16433572D01*
X28817857Y16205000D01*
X28903571Y16205000D01*
X28960714Y16176429D01*
X28989285Y16147858D01*
X29017857Y16090715D01*
X29017857Y15947858D01*
X28989285Y15890715D01*
X28960714Y15862143D01*
X28903571Y15833572D01*
X28732142Y15833572D01*
X28675000Y15862143D01*
X28646428Y15890715D01*
X27303571Y9783572D02*
X27103571Y10069286D01*
X26960714Y9783572D02*
X26960714Y10383572D01*
X27189285Y10383572D01*
X27246428Y10355000D01*
X27275000Y10326429D01*
X27303571Y10269286D01*
X27303571Y10183572D01*
X27275000Y10126429D01*
X27246428Y10097858D01*
X27189285Y10069286D01*
X26960714Y10069286D01*
X27532142Y10326429D02*
X27560714Y10355000D01*
X27617857Y10383572D01*
X27760714Y10383572D01*
X27817857Y10355000D01*
X27846428Y10326429D01*
X27875000Y10269286D01*
X27875000Y10212143D01*
X27846428Y10126429D01*
X27503571Y9783572D01*
X27875000Y9783572D01*
X28075000Y10383572D02*
X28446428Y10383572D01*
X28246428Y10155000D01*
X28332142Y10155000D01*
X28389285Y10126429D01*
X28417857Y10097858D01*
X28446428Y10040715D01*
X28446428Y9897858D01*
X28417857Y9840715D01*
X28389285Y9812143D01*
X28332142Y9783572D01*
X28160714Y9783572D01*
X28103571Y9812143D01*
X28075000Y9840715D01*
X28960714Y10183572D02*
X28960714Y9783572D01*
X28817857Y10412143D02*
X28675000Y9983572D01*
X29046428Y9983572D01*
X27303571Y3783572D02*
X27103571Y4069286D01*
X26960714Y3783572D02*
X26960714Y4383572D01*
X27189285Y4383572D01*
X27246428Y4355000D01*
X27275000Y4326429D01*
X27303571Y4269286D01*
X27303571Y4183572D01*
X27275000Y4126429D01*
X27246428Y4097858D01*
X27189285Y4069286D01*
X26960714Y4069286D01*
X27532142Y4326429D02*
X27560714Y4355000D01*
X27617857Y4383572D01*
X27760714Y4383572D01*
X27817857Y4355000D01*
X27846428Y4326429D01*
X27875000Y4269286D01*
X27875000Y4212143D01*
X27846428Y4126429D01*
X27503571Y3783572D01*
X27875000Y3783572D01*
X28075000Y4383572D02*
X28446428Y4383572D01*
X28246428Y4155000D01*
X28332142Y4155000D01*
X28389285Y4126429D01*
X28417857Y4097858D01*
X28446428Y4040715D01*
X28446428Y3897858D01*
X28417857Y3840715D01*
X28389285Y3812143D01*
X28332142Y3783572D01*
X28160714Y3783572D01*
X28103571Y3812143D01*
X28075000Y3840715D01*
X28989285Y4383572D02*
X28703571Y4383572D01*
X28675000Y4097858D01*
X28703571Y4126429D01*
X28760714Y4155000D01*
X28903571Y4155000D01*
X28960714Y4126429D01*
X28989285Y4097858D01*
X29017857Y4040715D01*
X29017857Y3897858D01*
X28989285Y3840715D01*
X28960714Y3812143D01*
X28903571Y3783572D01*
X28760714Y3783572D01*
X28703571Y3812143D01*
X28675000Y3840715D01*
X27303571Y45833572D02*
X27103571Y46119286D01*
X26960714Y45833572D02*
X26960714Y46433572D01*
X27189285Y46433572D01*
X27246428Y46405000D01*
X27275000Y46376429D01*
X27303571Y46319286D01*
X27303571Y46233572D01*
X27275000Y46176429D01*
X27246428Y46147858D01*
X27189285Y46119286D01*
X26960714Y46119286D01*
X27532142Y46376429D02*
X27560714Y46405000D01*
X27617857Y46433572D01*
X27760714Y46433572D01*
X27817857Y46405000D01*
X27846428Y46376429D01*
X27875000Y46319286D01*
X27875000Y46262143D01*
X27846428Y46176429D01*
X27503571Y45833572D01*
X27875000Y45833572D01*
X28417857Y46433572D02*
X28132142Y46433572D01*
X28103571Y46147858D01*
X28132142Y46176429D01*
X28189285Y46205000D01*
X28332142Y46205000D01*
X28389285Y46176429D01*
X28417857Y46147858D01*
X28446428Y46090715D01*
X28446428Y45947858D01*
X28417857Y45890715D01*
X28389285Y45862143D01*
X28332142Y45833572D01*
X28189285Y45833572D01*
X28132142Y45862143D01*
X28103571Y45890715D01*
X28675000Y46376429D02*
X28703571Y46405000D01*
X28760714Y46433572D01*
X28903571Y46433572D01*
X28960714Y46405000D01*
X28989285Y46376429D01*
X29017857Y46319286D01*
X29017857Y46262143D01*
X28989285Y46176429D01*
X28646428Y45833572D01*
X29017857Y45833572D01*
X27203571Y40003572D02*
X27003571Y40289286D01*
X26860714Y40003572D02*
X26860714Y40603572D01*
X27089285Y40603572D01*
X27146428Y40575000D01*
X27175000Y40546429D01*
X27203571Y40489286D01*
X27203571Y40403572D01*
X27175000Y40346429D01*
X27146428Y40317858D01*
X27089285Y40289286D01*
X26860714Y40289286D01*
X27432142Y40546429D02*
X27460714Y40575000D01*
X27517857Y40603572D01*
X27660714Y40603572D01*
X27717857Y40575000D01*
X27746428Y40546429D01*
X27775000Y40489286D01*
X27775000Y40432143D01*
X27746428Y40346429D01*
X27403571Y40003572D01*
X27775000Y40003572D01*
X28317857Y40603572D02*
X28032142Y40603572D01*
X28003571Y40317858D01*
X28032142Y40346429D01*
X28089285Y40375000D01*
X28232142Y40375000D01*
X28289285Y40346429D01*
X28317857Y40317858D01*
X28346428Y40260715D01*
X28346428Y40117858D01*
X28317857Y40060715D01*
X28289285Y40032143D01*
X28232142Y40003572D01*
X28089285Y40003572D01*
X28032142Y40032143D01*
X28003571Y40060715D01*
X28546428Y40603572D02*
X28917857Y40603572D01*
X28717857Y40375000D01*
X28803571Y40375000D01*
X28860714Y40346429D01*
X28889285Y40317858D01*
X28917857Y40260715D01*
X28917857Y40117858D01*
X28889285Y40060715D01*
X28860714Y40032143D01*
X28803571Y40003572D01*
X28632142Y40003572D01*
X28575000Y40032143D01*
X28546428Y40060715D01*
X27303571Y33833572D02*
X27103571Y34119286D01*
X26960714Y33833572D02*
X26960714Y34433572D01*
X27189285Y34433572D01*
X27246428Y34405000D01*
X27275000Y34376429D01*
X27303571Y34319286D01*
X27303571Y34233572D01*
X27275000Y34176429D01*
X27246428Y34147858D01*
X27189285Y34119286D01*
X26960714Y34119286D01*
X27532142Y34376429D02*
X27560714Y34405000D01*
X27617857Y34433572D01*
X27760714Y34433572D01*
X27817857Y34405000D01*
X27846428Y34376429D01*
X27875000Y34319286D01*
X27875000Y34262143D01*
X27846428Y34176429D01*
X27503571Y33833572D01*
X27875000Y33833572D01*
X28417857Y34433572D02*
X28132142Y34433572D01*
X28103571Y34147858D01*
X28132142Y34176429D01*
X28189285Y34205000D01*
X28332142Y34205000D01*
X28389285Y34176429D01*
X28417857Y34147858D01*
X28446428Y34090715D01*
X28446428Y33947858D01*
X28417857Y33890715D01*
X28389285Y33862143D01*
X28332142Y33833572D01*
X28189285Y33833572D01*
X28132142Y33862143D01*
X28103571Y33890715D01*
X28960714Y34233572D02*
X28960714Y33833572D01*
X28817857Y34462143D02*
X28675000Y34033572D01*
X29046428Y34033572D01*
X27303571Y27833572D02*
X27103571Y28119286D01*
X26960714Y27833572D02*
X26960714Y28433572D01*
X27189285Y28433572D01*
X27246428Y28405000D01*
X27275000Y28376429D01*
X27303571Y28319286D01*
X27303571Y28233572D01*
X27275000Y28176429D01*
X27246428Y28147858D01*
X27189285Y28119286D01*
X26960714Y28119286D01*
X27532142Y28376429D02*
X27560714Y28405000D01*
X27617857Y28433572D01*
X27760714Y28433572D01*
X27817857Y28405000D01*
X27846428Y28376429D01*
X27875000Y28319286D01*
X27875000Y28262143D01*
X27846428Y28176429D01*
X27503571Y27833572D01*
X27875000Y27833572D01*
X28417857Y28433572D02*
X28132142Y28433572D01*
X28103571Y28147858D01*
X28132142Y28176429D01*
X28189285Y28205000D01*
X28332142Y28205000D01*
X28389285Y28176429D01*
X28417857Y28147858D01*
X28446428Y28090715D01*
X28446428Y27947858D01*
X28417857Y27890715D01*
X28389285Y27862143D01*
X28332142Y27833572D01*
X28189285Y27833572D01*
X28132142Y27862143D01*
X28103571Y27890715D01*
X28989285Y28433572D02*
X28703571Y28433572D01*
X28675000Y28147858D01*
X28703571Y28176429D01*
X28760714Y28205000D01*
X28903571Y28205000D01*
X28960714Y28176429D01*
X28989285Y28147858D01*
X29017857Y28090715D01*
X29017857Y27947858D01*
X28989285Y27890715D01*
X28960714Y27862143D01*
X28903571Y27833572D01*
X28760714Y27833572D01*
X28703571Y27862143D01*
X28675000Y27890715D01*
X20578571Y50028572D02*
X20378571Y50314286D01*
X20235714Y50028572D02*
X20235714Y50628572D01*
X20464285Y50628572D01*
X20521428Y50600000D01*
X20550000Y50571429D01*
X20578571Y50514286D01*
X20578571Y50428572D01*
X20550000Y50371429D01*
X20521428Y50342858D01*
X20464285Y50314286D01*
X20235714Y50314286D01*
X20778571Y50628572D02*
X21150000Y50628572D01*
X20950000Y50400000D01*
X21035714Y50400000D01*
X21092857Y50371429D01*
X21121428Y50342858D01*
X21150000Y50285715D01*
X21150000Y50142858D01*
X21121428Y50085715D01*
X21092857Y50057143D01*
X21035714Y50028572D01*
X20864285Y50028572D01*
X20807142Y50057143D01*
X20778571Y50085715D01*
X21521428Y50628572D02*
X21578571Y50628572D01*
X21635714Y50600000D01*
X21664285Y50571429D01*
X21692857Y50514286D01*
X21721428Y50400000D01*
X21721428Y50257143D01*
X21692857Y50142858D01*
X21664285Y50085715D01*
X21635714Y50057143D01*
X21578571Y50028572D01*
X21521428Y50028572D01*
X21464285Y50057143D01*
X21435714Y50085715D01*
X21407142Y50142858D01*
X21378571Y50257143D01*
X21378571Y50400000D01*
X21407142Y50514286D01*
X21435714Y50571429D01*
X21464285Y50600000D01*
X21521428Y50628572D01*
X22292857Y50028572D02*
X21950000Y50028572D01*
X22121428Y50028572D02*
X22121428Y50628572D01*
X22064285Y50542858D01*
X22007142Y50485715D01*
X21950000Y50457143D01*
X17753571Y45228572D02*
X17553571Y45514286D01*
X17410714Y45228572D02*
X17410714Y45828572D01*
X17639285Y45828572D01*
X17696428Y45800000D01*
X17725000Y45771429D01*
X17753571Y45714286D01*
X17753571Y45628572D01*
X17725000Y45571429D01*
X17696428Y45542858D01*
X17639285Y45514286D01*
X17410714Y45514286D01*
X17953571Y45828572D02*
X18325000Y45828572D01*
X18125000Y45600000D01*
X18210714Y45600000D01*
X18267857Y45571429D01*
X18296428Y45542858D01*
X18325000Y45485715D01*
X18325000Y45342858D01*
X18296428Y45285715D01*
X18267857Y45257143D01*
X18210714Y45228572D01*
X18039285Y45228572D01*
X17982142Y45257143D01*
X17953571Y45285715D01*
X18696428Y45828572D02*
X18753571Y45828572D01*
X18810714Y45800000D01*
X18839285Y45771429D01*
X18867857Y45714286D01*
X18896428Y45600000D01*
X18896428Y45457143D01*
X18867857Y45342858D01*
X18839285Y45285715D01*
X18810714Y45257143D01*
X18753571Y45228572D01*
X18696428Y45228572D01*
X18639285Y45257143D01*
X18610714Y45285715D01*
X18582142Y45342858D01*
X18553571Y45457143D01*
X18553571Y45600000D01*
X18582142Y45714286D01*
X18610714Y45771429D01*
X18639285Y45800000D01*
X18696428Y45828572D01*
X19125000Y45771429D02*
X19153571Y45800000D01*
X19210714Y45828572D01*
X19353571Y45828572D01*
X19410714Y45800000D01*
X19439285Y45771429D01*
X19467857Y45714286D01*
X19467857Y45657143D01*
X19439285Y45571429D01*
X19096428Y45228572D01*
X19467857Y45228572D01*
X17253571Y39353572D02*
X17053571Y39639286D01*
X16910714Y39353572D02*
X16910714Y39953572D01*
X17139285Y39953572D01*
X17196428Y39925000D01*
X17225000Y39896429D01*
X17253571Y39839286D01*
X17253571Y39753572D01*
X17225000Y39696429D01*
X17196428Y39667858D01*
X17139285Y39639286D01*
X16910714Y39639286D01*
X17453571Y39953572D02*
X17825000Y39953572D01*
X17625000Y39725000D01*
X17710714Y39725000D01*
X17767857Y39696429D01*
X17796428Y39667858D01*
X17825000Y39610715D01*
X17825000Y39467858D01*
X17796428Y39410715D01*
X17767857Y39382143D01*
X17710714Y39353572D01*
X17539285Y39353572D01*
X17482142Y39382143D01*
X17453571Y39410715D01*
X18196428Y39953572D02*
X18253571Y39953572D01*
X18310714Y39925000D01*
X18339285Y39896429D01*
X18367857Y39839286D01*
X18396428Y39725000D01*
X18396428Y39582143D01*
X18367857Y39467858D01*
X18339285Y39410715D01*
X18310714Y39382143D01*
X18253571Y39353572D01*
X18196428Y39353572D01*
X18139285Y39382143D01*
X18110714Y39410715D01*
X18082142Y39467858D01*
X18053571Y39582143D01*
X18053571Y39725000D01*
X18082142Y39839286D01*
X18110714Y39896429D01*
X18139285Y39925000D01*
X18196428Y39953572D01*
X18596428Y39953572D02*
X18967857Y39953572D01*
X18767857Y39725000D01*
X18853571Y39725000D01*
X18910714Y39696429D01*
X18939285Y39667858D01*
X18967857Y39610715D01*
X18967857Y39467858D01*
X18939285Y39410715D01*
X18910714Y39382143D01*
X18853571Y39353572D01*
X18682142Y39353572D01*
X18625000Y39382143D01*
X18596428Y39410715D01*
X17253571Y33253572D02*
X17053571Y33539286D01*
X16910714Y33253572D02*
X16910714Y33853572D01*
X17139285Y33853572D01*
X17196428Y33825000D01*
X17225000Y33796429D01*
X17253571Y33739286D01*
X17253571Y33653572D01*
X17225000Y33596429D01*
X17196428Y33567858D01*
X17139285Y33539286D01*
X16910714Y33539286D01*
X17453571Y33853572D02*
X17825000Y33853572D01*
X17625000Y33625000D01*
X17710714Y33625000D01*
X17767857Y33596429D01*
X17796428Y33567858D01*
X17825000Y33510715D01*
X17825000Y33367858D01*
X17796428Y33310715D01*
X17767857Y33282143D01*
X17710714Y33253572D01*
X17539285Y33253572D01*
X17482142Y33282143D01*
X17453571Y33310715D01*
X18196428Y33853572D02*
X18253571Y33853572D01*
X18310714Y33825000D01*
X18339285Y33796429D01*
X18367857Y33739286D01*
X18396428Y33625000D01*
X18396428Y33482143D01*
X18367857Y33367858D01*
X18339285Y33310715D01*
X18310714Y33282143D01*
X18253571Y33253572D01*
X18196428Y33253572D01*
X18139285Y33282143D01*
X18110714Y33310715D01*
X18082142Y33367858D01*
X18053571Y33482143D01*
X18053571Y33625000D01*
X18082142Y33739286D01*
X18110714Y33796429D01*
X18139285Y33825000D01*
X18196428Y33853572D01*
X18910714Y33653572D02*
X18910714Y33253572D01*
X18767857Y33882143D02*
X18625000Y33453572D01*
X18996428Y33453572D01*
X10753571Y26103572D02*
X10553571Y26389286D01*
X10410714Y26103572D02*
X10410714Y26703572D01*
X10639285Y26703572D01*
X10696428Y26675000D01*
X10725000Y26646429D01*
X10753571Y26589286D01*
X10753571Y26503572D01*
X10725000Y26446429D01*
X10696428Y26417858D01*
X10639285Y26389286D01*
X10410714Y26389286D01*
X10953571Y26703572D02*
X11325000Y26703572D01*
X11125000Y26475000D01*
X11210714Y26475000D01*
X11267857Y26446429D01*
X11296428Y26417858D01*
X11325000Y26360715D01*
X11325000Y26217858D01*
X11296428Y26160715D01*
X11267857Y26132143D01*
X11210714Y26103572D01*
X11039285Y26103572D01*
X10982142Y26132143D01*
X10953571Y26160715D01*
X11696428Y26703572D02*
X11753571Y26703572D01*
X11810714Y26675000D01*
X11839285Y26646429D01*
X11867857Y26589286D01*
X11896428Y26475000D01*
X11896428Y26332143D01*
X11867857Y26217858D01*
X11839285Y26160715D01*
X11810714Y26132143D01*
X11753571Y26103572D01*
X11696428Y26103572D01*
X11639285Y26132143D01*
X11610714Y26160715D01*
X11582142Y26217858D01*
X11553571Y26332143D01*
X11553571Y26475000D01*
X11582142Y26589286D01*
X11610714Y26646429D01*
X11639285Y26675000D01*
X11696428Y26703572D01*
X12439285Y26703572D02*
X12153571Y26703572D01*
X12125000Y26417858D01*
X12153571Y26446429D01*
X12210714Y26475000D01*
X12353571Y26475000D01*
X12410714Y26446429D01*
X12439285Y26417858D01*
X12467857Y26360715D01*
X12467857Y26217858D01*
X12439285Y26160715D01*
X12410714Y26132143D01*
X12353571Y26103572D01*
X12210714Y26103572D01*
X12153571Y26132143D01*
X12125000Y26160715D01*
X10703571Y20103572D02*
X10503571Y20389286D01*
X10360714Y20103572D02*
X10360714Y20703572D01*
X10589285Y20703572D01*
X10646428Y20675000D01*
X10675000Y20646429D01*
X10703571Y20589286D01*
X10703571Y20503572D01*
X10675000Y20446429D01*
X10646428Y20417858D01*
X10589285Y20389286D01*
X10360714Y20389286D01*
X10903571Y20703572D02*
X11275000Y20703572D01*
X11075000Y20475000D01*
X11160714Y20475000D01*
X11217857Y20446429D01*
X11246428Y20417858D01*
X11275000Y20360715D01*
X11275000Y20217858D01*
X11246428Y20160715D01*
X11217857Y20132143D01*
X11160714Y20103572D01*
X10989285Y20103572D01*
X10932142Y20132143D01*
X10903571Y20160715D01*
X11646428Y20703572D02*
X11703571Y20703572D01*
X11760714Y20675000D01*
X11789285Y20646429D01*
X11817857Y20589286D01*
X11846428Y20475000D01*
X11846428Y20332143D01*
X11817857Y20217858D01*
X11789285Y20160715D01*
X11760714Y20132143D01*
X11703571Y20103572D01*
X11646428Y20103572D01*
X11589285Y20132143D01*
X11560714Y20160715D01*
X11532142Y20217858D01*
X11503571Y20332143D01*
X11503571Y20475000D01*
X11532142Y20589286D01*
X11560714Y20646429D01*
X11589285Y20675000D01*
X11646428Y20703572D01*
X12360714Y20703572D02*
X12246428Y20703572D01*
X12189285Y20675000D01*
X12160714Y20646429D01*
X12103571Y20560715D01*
X12075000Y20446429D01*
X12075000Y20217858D01*
X12103571Y20160715D01*
X12132142Y20132143D01*
X12189285Y20103572D01*
X12303571Y20103572D01*
X12360714Y20132143D01*
X12389285Y20160715D01*
X12417857Y20217858D01*
X12417857Y20360715D01*
X12389285Y20417858D01*
X12360714Y20446429D01*
X12303571Y20475000D01*
X12189285Y20475000D01*
X12132142Y20446429D01*
X12103571Y20417858D01*
X12075000Y20360715D01*
X10703571Y14103572D02*
X10503571Y14389286D01*
X10360714Y14103572D02*
X10360714Y14703572D01*
X10589285Y14703572D01*
X10646428Y14675000D01*
X10675000Y14646429D01*
X10703571Y14589286D01*
X10703571Y14503572D01*
X10675000Y14446429D01*
X10646428Y14417858D01*
X10589285Y14389286D01*
X10360714Y14389286D01*
X10903571Y14703572D02*
X11275000Y14703572D01*
X11075000Y14475000D01*
X11160714Y14475000D01*
X11217857Y14446429D01*
X11246428Y14417858D01*
X11275000Y14360715D01*
X11275000Y14217858D01*
X11246428Y14160715D01*
X11217857Y14132143D01*
X11160714Y14103572D01*
X10989285Y14103572D01*
X10932142Y14132143D01*
X10903571Y14160715D01*
X11646428Y14703572D02*
X11703571Y14703572D01*
X11760714Y14675000D01*
X11789285Y14646429D01*
X11817857Y14589286D01*
X11846428Y14475000D01*
X11846428Y14332143D01*
X11817857Y14217858D01*
X11789285Y14160715D01*
X11760714Y14132143D01*
X11703571Y14103572D01*
X11646428Y14103572D01*
X11589285Y14132143D01*
X11560714Y14160715D01*
X11532142Y14217858D01*
X11503571Y14332143D01*
X11503571Y14475000D01*
X11532142Y14589286D01*
X11560714Y14646429D01*
X11589285Y14675000D01*
X11646428Y14703572D01*
X12046428Y14703572D02*
X12446428Y14703572D01*
X12189285Y14103572D01*
X17253571Y27253572D02*
X17053571Y27539286D01*
X16910714Y27253572D02*
X16910714Y27853572D01*
X17139285Y27853572D01*
X17196428Y27825000D01*
X17225000Y27796429D01*
X17253571Y27739286D01*
X17253571Y27653572D01*
X17225000Y27596429D01*
X17196428Y27567858D01*
X17139285Y27539286D01*
X16910714Y27539286D01*
X17453571Y27853572D02*
X17825000Y27853572D01*
X17625000Y27625000D01*
X17710714Y27625000D01*
X17767857Y27596429D01*
X17796428Y27567858D01*
X17825000Y27510715D01*
X17825000Y27367858D01*
X17796428Y27310715D01*
X17767857Y27282143D01*
X17710714Y27253572D01*
X17539285Y27253572D01*
X17482142Y27282143D01*
X17453571Y27310715D01*
X18196428Y27853572D02*
X18253571Y27853572D01*
X18310714Y27825000D01*
X18339285Y27796429D01*
X18367857Y27739286D01*
X18396428Y27625000D01*
X18396428Y27482143D01*
X18367857Y27367858D01*
X18339285Y27310715D01*
X18310714Y27282143D01*
X18253571Y27253572D01*
X18196428Y27253572D01*
X18139285Y27282143D01*
X18110714Y27310715D01*
X18082142Y27367858D01*
X18053571Y27482143D01*
X18053571Y27625000D01*
X18082142Y27739286D01*
X18110714Y27796429D01*
X18139285Y27825000D01*
X18196428Y27853572D01*
X18682142Y27253572D02*
X18796428Y27253572D01*
X18853571Y27282143D01*
X18882142Y27310715D01*
X18939285Y27396429D01*
X18967857Y27510715D01*
X18967857Y27739286D01*
X18939285Y27796429D01*
X18910714Y27825000D01*
X18853571Y27853572D01*
X18739285Y27853572D01*
X18682142Y27825000D01*
X18653571Y27796429D01*
X18625000Y27739286D01*
X18625000Y27596429D01*
X18653571Y27539286D01*
X18682142Y27510715D01*
X18739285Y27482143D01*
X18853571Y27482143D01*
X18910714Y27510715D01*
X18939285Y27539286D01*
X18967857Y27596429D01*
X17253571Y21253572D02*
X17053571Y21539286D01*
X16910714Y21253572D02*
X16910714Y21853572D01*
X17139285Y21853572D01*
X17196428Y21825000D01*
X17225000Y21796429D01*
X17253571Y21739286D01*
X17253571Y21653572D01*
X17225000Y21596429D01*
X17196428Y21567858D01*
X17139285Y21539286D01*
X16910714Y21539286D01*
X17453571Y21853572D02*
X17825000Y21853572D01*
X17625000Y21625000D01*
X17710714Y21625000D01*
X17767857Y21596429D01*
X17796428Y21567858D01*
X17825000Y21510715D01*
X17825000Y21367858D01*
X17796428Y21310715D01*
X17767857Y21282143D01*
X17710714Y21253572D01*
X17539285Y21253572D01*
X17482142Y21282143D01*
X17453571Y21310715D01*
X18396428Y21253572D02*
X18053571Y21253572D01*
X18225000Y21253572D02*
X18225000Y21853572D01*
X18167857Y21767858D01*
X18110714Y21710715D01*
X18053571Y21682143D01*
X18767857Y21853572D02*
X18825000Y21853572D01*
X18882142Y21825000D01*
X18910714Y21796429D01*
X18939285Y21739286D01*
X18967857Y21625000D01*
X18967857Y21482143D01*
X18939285Y21367858D01*
X18910714Y21310715D01*
X18882142Y21282143D01*
X18825000Y21253572D01*
X18767857Y21253572D01*
X18710714Y21282143D01*
X18682142Y21310715D01*
X18653571Y21367858D01*
X18625000Y21482143D01*
X18625000Y21625000D01*
X18653571Y21739286D01*
X18682142Y21796429D01*
X18710714Y21825000D01*
X18767857Y21853572D01*
X17253571Y15253572D02*
X17053571Y15539286D01*
X16910714Y15253572D02*
X16910714Y15853572D01*
X17139285Y15853572D01*
X17196428Y15825000D01*
X17225000Y15796429D01*
X17253571Y15739286D01*
X17253571Y15653572D01*
X17225000Y15596429D01*
X17196428Y15567858D01*
X17139285Y15539286D01*
X16910714Y15539286D01*
X17453571Y15853572D02*
X17825000Y15853572D01*
X17625000Y15625000D01*
X17710714Y15625000D01*
X17767857Y15596429D01*
X17796428Y15567858D01*
X17825000Y15510715D01*
X17825000Y15367858D01*
X17796428Y15310715D01*
X17767857Y15282143D01*
X17710714Y15253572D01*
X17539285Y15253572D01*
X17482142Y15282143D01*
X17453571Y15310715D01*
X18396428Y15253572D02*
X18053571Y15253572D01*
X18225000Y15253572D02*
X18225000Y15853572D01*
X18167857Y15767858D01*
X18110714Y15710715D01*
X18053571Y15682143D01*
X18967857Y15253572D02*
X18625000Y15253572D01*
X18796428Y15253572D02*
X18796428Y15853572D01*
X18739285Y15767858D01*
X18682142Y15710715D01*
X18625000Y15682143D01*
X485714Y15578572D02*
X485714Y16178572D01*
X714285Y16178572D01*
X771428Y16150000D01*
X800000Y16121429D01*
X828571Y16064286D01*
X828571Y15978572D01*
X800000Y15921429D01*
X771428Y15892858D01*
X714285Y15864286D01*
X485714Y15864286D01*
X1400000Y15578572D02*
X1057142Y15578572D01*
X1228571Y15578572D02*
X1228571Y16178572D01*
X1171428Y16092858D01*
X1114285Y16035715D01*
X1057142Y16007143D01*
X1771428Y16178572D02*
X1828571Y16178572D01*
X1885714Y16150000D01*
X1914285Y16121429D01*
X1942857Y16064286D01*
X1971428Y15950000D01*
X1971428Y15807143D01*
X1942857Y15692858D01*
X1914285Y15635715D01*
X1885714Y15607143D01*
X1828571Y15578572D01*
X1771428Y15578572D01*
X1714285Y15607143D01*
X1685714Y15635715D01*
X1657142Y15692858D01*
X1628571Y15807143D01*
X1628571Y15950000D01*
X1657142Y16064286D01*
X1685714Y16121429D01*
X1714285Y16150000D01*
X1771428Y16178572D01*
X2542857Y15578572D02*
X2200000Y15578572D01*
X2371428Y15578572D02*
X2371428Y16178572D01*
X2314285Y16092858D01*
X2257142Y16035715D01*
X2200000Y16007143D01*
X10678571Y8003572D02*
X10478571Y8289286D01*
X10335714Y8003572D02*
X10335714Y8603572D01*
X10564285Y8603572D01*
X10621428Y8575000D01*
X10650000Y8546429D01*
X10678571Y8489286D01*
X10678571Y8403572D01*
X10650000Y8346429D01*
X10621428Y8317858D01*
X10564285Y8289286D01*
X10335714Y8289286D01*
X10907142Y8546429D02*
X10935714Y8575000D01*
X10992857Y8603572D01*
X11135714Y8603572D01*
X11192857Y8575000D01*
X11221428Y8546429D01*
X11250000Y8489286D01*
X11250000Y8432143D01*
X11221428Y8346429D01*
X10878571Y8003572D01*
X11250000Y8003572D01*
X11478571Y8546429D02*
X11507142Y8575000D01*
X11564285Y8603572D01*
X11707142Y8603572D01*
X11764285Y8575000D01*
X11792857Y8546429D01*
X11821428Y8489286D01*
X11821428Y8432143D01*
X11792857Y8346429D01*
X11450000Y8003572D01*
X11821428Y8003572D01*
X12021428Y8603572D02*
X12421428Y8603572D01*
X12164285Y8003572D01*
X10828571Y50153572D02*
X10628571Y50439286D01*
X10485714Y50153572D02*
X10485714Y50753572D01*
X10714285Y50753572D01*
X10771428Y50725000D01*
X10800000Y50696429D01*
X10828571Y50639286D01*
X10828571Y50553572D01*
X10800000Y50496429D01*
X10771428Y50467858D01*
X10714285Y50439286D01*
X10485714Y50439286D01*
X11057142Y50696429D02*
X11085714Y50725000D01*
X11142857Y50753572D01*
X11285714Y50753572D01*
X11342857Y50725000D01*
X11371428Y50696429D01*
X11400000Y50639286D01*
X11400000Y50582143D01*
X11371428Y50496429D01*
X11028571Y50153572D01*
X11400000Y50153572D01*
X11914285Y50553572D02*
X11914285Y50153572D01*
X11771428Y50782143D02*
X11628571Y50353572D01*
X12000000Y50353572D01*
X12542857Y50153572D02*
X12200000Y50153572D01*
X12371428Y50153572D02*
X12371428Y50753572D01*
X12314285Y50667858D01*
X12257142Y50610715D01*
X12200000Y50582143D01*
X20853571Y43703572D02*
X20653571Y43989286D01*
X20510714Y43703572D02*
X20510714Y44303572D01*
X20739285Y44303572D01*
X20796428Y44275000D01*
X20825000Y44246429D01*
X20853571Y44189286D01*
X20853571Y44103572D01*
X20825000Y44046429D01*
X20796428Y44017858D01*
X20739285Y43989286D01*
X20510714Y43989286D01*
X21082142Y44246429D02*
X21110714Y44275000D01*
X21167857Y44303572D01*
X21310714Y44303572D01*
X21367857Y44275000D01*
X21396428Y44246429D01*
X21425000Y44189286D01*
X21425000Y44132143D01*
X21396428Y44046429D01*
X21053571Y43703572D01*
X21425000Y43703572D01*
X21939285Y44103572D02*
X21939285Y43703572D01*
X21796428Y44332143D02*
X21653571Y43903572D01*
X22025000Y43903572D01*
X22339285Y44046429D02*
X22282142Y44075000D01*
X22253571Y44103572D01*
X22225000Y44160715D01*
X22225000Y44189286D01*
X22253571Y44246429D01*
X22282142Y44275000D01*
X22339285Y44303572D01*
X22453571Y44303572D01*
X22510714Y44275000D01*
X22539285Y44246429D01*
X22567857Y44189286D01*
X22567857Y44160715D01*
X22539285Y44103572D01*
X22510714Y44075000D01*
X22453571Y44046429D01*
X22339285Y44046429D01*
X22282142Y44017858D01*
X22253571Y43989286D01*
X22225000Y43932143D01*
X22225000Y43817858D01*
X22253571Y43760715D01*
X22282142Y43732143D01*
X22339285Y43703572D01*
X22453571Y43703572D01*
X22510714Y43732143D01*
X22539285Y43760715D01*
X22567857Y43817858D01*
X22567857Y43932143D01*
X22539285Y43989286D01*
X22510714Y44017858D01*
X22453571Y44046429D01*
X14528571Y2853572D02*
X14328571Y3139286D01*
X14185714Y2853572D02*
X14185714Y3453572D01*
X14414285Y3453572D01*
X14471428Y3425000D01*
X14500000Y3396429D01*
X14528571Y3339286D01*
X14528571Y3253572D01*
X14500000Y3196429D01*
X14471428Y3167858D01*
X14414285Y3139286D01*
X14185714Y3139286D01*
X14728571Y3453572D02*
X15100000Y3453572D01*
X14900000Y3225000D01*
X14985714Y3225000D01*
X15042857Y3196429D01*
X15071428Y3167858D01*
X15100000Y3110715D01*
X15100000Y2967858D01*
X15071428Y2910715D01*
X15042857Y2882143D01*
X14985714Y2853572D01*
X14814285Y2853572D01*
X14757142Y2882143D01*
X14728571Y2910715D01*
X15671428Y2853572D02*
X15328571Y2853572D01*
X15500000Y2853572D02*
X15500000Y3453572D01*
X15442857Y3367858D01*
X15385714Y3310715D01*
X15328571Y3282143D01*
X15900000Y3396429D02*
X15928571Y3425000D01*
X15985714Y3453572D01*
X16128571Y3453572D01*
X16185714Y3425000D01*
X16214285Y3396429D01*
X16242857Y3339286D01*
X16242857Y3282143D01*
X16214285Y3196429D01*
X15871428Y2853572D01*
X16242857Y2853572D01*
X33528571Y19058571D02*
X33328571Y19344285D01*
X33185714Y19058571D02*
X33185714Y19658571D01*
X33414285Y19658571D01*
X33471428Y19629999D01*
X33500000Y19601428D01*
X33528571Y19544285D01*
X33528571Y19458571D01*
X33500000Y19401428D01*
X33471428Y19372857D01*
X33414285Y19344285D01*
X33185714Y19344285D01*
X33728571Y19658571D02*
X34100000Y19658571D01*
X33900000Y19429999D01*
X33985714Y19429999D01*
X34042857Y19401428D01*
X34071428Y19372857D01*
X34100000Y19315714D01*
X34100000Y19172857D01*
X34071428Y19115714D01*
X34042857Y19087142D01*
X33985714Y19058571D01*
X33814285Y19058571D01*
X33757142Y19087142D01*
X33728571Y19115714D01*
X34671428Y19058571D02*
X34328571Y19058571D01*
X34500000Y19058571D02*
X34500000Y19658571D01*
X34442857Y19572857D01*
X34385714Y19515714D01*
X34328571Y19487142D01*
X34871428Y19658571D02*
X35242857Y19658571D01*
X35042857Y19429999D01*
X35128571Y19429999D01*
X35185714Y19401428D01*
X35214285Y19372857D01*
X35242857Y19315714D01*
X35242857Y19172857D01*
X35214285Y19115714D01*
X35185714Y19087142D01*
X35128571Y19058571D01*
X34957142Y19058571D01*
X34900000Y19087142D01*
X34871428Y19115714D01*
X33218072Y13168571D02*
X33018072Y13454285D01*
X32875215Y13168571D02*
X32875215Y13768571D01*
X33103786Y13768571D01*
X33160929Y13739999D01*
X33189501Y13711428D01*
X33218072Y13654285D01*
X33218072Y13568571D01*
X33189501Y13511428D01*
X33160929Y13482857D01*
X33103786Y13454285D01*
X32875215Y13454285D01*
X33418072Y13768571D02*
X33789501Y13768571D01*
X33589501Y13539999D01*
X33675215Y13539999D01*
X33732358Y13511428D01*
X33760929Y13482857D01*
X33789501Y13425714D01*
X33789501Y13282857D01*
X33760929Y13225714D01*
X33732358Y13197142D01*
X33675215Y13168571D01*
X33503786Y13168571D01*
X33446643Y13197142D01*
X33418072Y13225714D01*
X34360929Y13168571D02*
X34018072Y13168571D01*
X34189501Y13168571D02*
X34189501Y13768571D01*
X34132358Y13682857D01*
X34075215Y13625714D01*
X34018072Y13597142D01*
X34875215Y13568571D02*
X34875215Y13168571D01*
X34732358Y13797142D02*
X34589501Y13368571D01*
X34960929Y13368571D01*
X33463072Y6983571D02*
X33263072Y7269285D01*
X33120215Y6983571D02*
X33120215Y7583571D01*
X33348786Y7583571D01*
X33405929Y7554999D01*
X33434501Y7526428D01*
X33463072Y7469285D01*
X33463072Y7383571D01*
X33434501Y7326428D01*
X33405929Y7297857D01*
X33348786Y7269285D01*
X33120215Y7269285D01*
X33663072Y7583571D02*
X34034501Y7583571D01*
X33834501Y7354999D01*
X33920215Y7354999D01*
X33977358Y7326428D01*
X34005929Y7297857D01*
X34034501Y7240714D01*
X34034501Y7097857D01*
X34005929Y7040714D01*
X33977358Y7012142D01*
X33920215Y6983571D01*
X33748786Y6983571D01*
X33691643Y7012142D01*
X33663072Y7040714D01*
X34605929Y6983571D02*
X34263072Y6983571D01*
X34434501Y6983571D02*
X34434501Y7583571D01*
X34377358Y7497857D01*
X34320215Y7440714D01*
X34263072Y7412142D01*
X35148786Y7583571D02*
X34863072Y7583571D01*
X34834501Y7297857D01*
X34863072Y7326428D01*
X34920215Y7354999D01*
X35063072Y7354999D01*
X35120215Y7326428D01*
X35148786Y7297857D01*
X35177358Y7240714D01*
X35177358Y7097857D01*
X35148786Y7040714D01*
X35120215Y7012142D01*
X35063072Y6983571D01*
X34920215Y6983571D01*
X34863072Y7012142D01*
X34834501Y7040714D01*
X33313072Y49018571D02*
X33113072Y49304285D01*
X32970215Y49018571D02*
X32970215Y49618571D01*
X33198786Y49618571D01*
X33255929Y49589999D01*
X33284501Y49561428D01*
X33313072Y49504285D01*
X33313072Y49418571D01*
X33284501Y49361428D01*
X33255929Y49332857D01*
X33198786Y49304285D01*
X32970215Y49304285D01*
X33513072Y49618571D02*
X33884501Y49618571D01*
X33684501Y49389999D01*
X33770215Y49389999D01*
X33827358Y49361428D01*
X33855929Y49332857D01*
X33884501Y49275714D01*
X33884501Y49132857D01*
X33855929Y49075714D01*
X33827358Y49047142D01*
X33770215Y49018571D01*
X33598786Y49018571D01*
X33541643Y49047142D01*
X33513072Y49075714D01*
X34455929Y49018571D02*
X34113072Y49018571D01*
X34284501Y49018571D02*
X34284501Y49618571D01*
X34227358Y49532857D01*
X34170215Y49475714D01*
X34113072Y49447142D01*
X34970215Y49618571D02*
X34855929Y49618571D01*
X34798786Y49589999D01*
X34770215Y49561428D01*
X34713072Y49475714D01*
X34684501Y49361428D01*
X34684501Y49132857D01*
X34713072Y49075714D01*
X34741643Y49047142D01*
X34798786Y49018571D01*
X34913072Y49018571D01*
X34970215Y49047142D01*
X34998786Y49075714D01*
X35027358Y49132857D01*
X35027358Y49275714D01*
X34998786Y49332857D01*
X34970215Y49361428D01*
X34913072Y49389999D01*
X34798786Y49389999D01*
X34741643Y49361428D01*
X34713072Y49332857D01*
X34684501Y49275714D01*
X33333072Y42958571D02*
X33133072Y43244285D01*
X32990215Y42958571D02*
X32990215Y43558571D01*
X33218786Y43558571D01*
X33275929Y43529999D01*
X33304501Y43501428D01*
X33333072Y43444285D01*
X33333072Y43358571D01*
X33304501Y43301428D01*
X33275929Y43272857D01*
X33218786Y43244285D01*
X32990215Y43244285D01*
X33533072Y43558571D02*
X33904501Y43558571D01*
X33704501Y43329999D01*
X33790215Y43329999D01*
X33847358Y43301428D01*
X33875929Y43272857D01*
X33904501Y43215714D01*
X33904501Y43072857D01*
X33875929Y43015714D01*
X33847358Y42987142D01*
X33790215Y42958571D01*
X33618786Y42958571D01*
X33561643Y42987142D01*
X33533072Y43015714D01*
X34475929Y42958571D02*
X34133072Y42958571D01*
X34304501Y42958571D02*
X34304501Y43558571D01*
X34247358Y43472857D01*
X34190215Y43415714D01*
X34133072Y43387142D01*
X34675929Y43558571D02*
X35075929Y43558571D01*
X34818786Y42958571D01*
X33683072Y37143571D02*
X33483072Y37429285D01*
X33340215Y37143571D02*
X33340215Y37743571D01*
X33568786Y37743571D01*
X33625929Y37714999D01*
X33654501Y37686428D01*
X33683072Y37629285D01*
X33683072Y37543571D01*
X33654501Y37486428D01*
X33625929Y37457857D01*
X33568786Y37429285D01*
X33340215Y37429285D01*
X33883072Y37743571D02*
X34254501Y37743571D01*
X34054501Y37514999D01*
X34140215Y37514999D01*
X34197358Y37486428D01*
X34225929Y37457857D01*
X34254501Y37400714D01*
X34254501Y37257857D01*
X34225929Y37200714D01*
X34197358Y37172142D01*
X34140215Y37143571D01*
X33968786Y37143571D01*
X33911643Y37172142D01*
X33883072Y37200714D01*
X34825929Y37143571D02*
X34483072Y37143571D01*
X34654501Y37143571D02*
X34654501Y37743571D01*
X34597358Y37657857D01*
X34540215Y37600714D01*
X34483072Y37572142D01*
X35168786Y37486428D02*
X35111643Y37514999D01*
X35083072Y37543571D01*
X35054501Y37600714D01*
X35054501Y37629285D01*
X35083072Y37686428D01*
X35111643Y37714999D01*
X35168786Y37743571D01*
X35283072Y37743571D01*
X35340215Y37714999D01*
X35368786Y37686428D01*
X35397358Y37629285D01*
X35397358Y37600714D01*
X35368786Y37543571D01*
X35340215Y37514999D01*
X35283072Y37486428D01*
X35168786Y37486428D01*
X35111643Y37457857D01*
X35083072Y37429285D01*
X35054501Y37372142D01*
X35054501Y37257857D01*
X35083072Y37200714D01*
X35111643Y37172142D01*
X35168786Y37143571D01*
X35283072Y37143571D01*
X35340215Y37172142D01*
X35368786Y37200714D01*
X35397358Y37257857D01*
X35397358Y37372142D01*
X35368786Y37429285D01*
X35340215Y37457857D01*
X35283072Y37486428D01*
X33653072Y31033571D02*
X33453072Y31319285D01*
X33310215Y31033571D02*
X33310215Y31633571D01*
X33538786Y31633571D01*
X33595929Y31604999D01*
X33624501Y31576428D01*
X33653072Y31519285D01*
X33653072Y31433571D01*
X33624501Y31376428D01*
X33595929Y31347857D01*
X33538786Y31319285D01*
X33310215Y31319285D01*
X33853072Y31633571D02*
X34224501Y31633571D01*
X34024501Y31404999D01*
X34110215Y31404999D01*
X34167358Y31376428D01*
X34195929Y31347857D01*
X34224501Y31290714D01*
X34224501Y31147857D01*
X34195929Y31090714D01*
X34167358Y31062142D01*
X34110215Y31033571D01*
X33938786Y31033571D01*
X33881643Y31062142D01*
X33853072Y31090714D01*
X34795929Y31033571D02*
X34453072Y31033571D01*
X34624501Y31033571D02*
X34624501Y31633571D01*
X34567358Y31547857D01*
X34510215Y31490714D01*
X34453072Y31462142D01*
X35081643Y31033571D02*
X35195929Y31033571D01*
X35253072Y31062142D01*
X35281643Y31090714D01*
X35338786Y31176428D01*
X35367358Y31290714D01*
X35367358Y31519285D01*
X35338786Y31576428D01*
X35310215Y31604999D01*
X35253072Y31633571D01*
X35138786Y31633571D01*
X35081643Y31604999D01*
X35053072Y31576428D01*
X35024501Y31519285D01*
X35024501Y31376428D01*
X35053072Y31319285D01*
X35081643Y31290714D01*
X35138786Y31262142D01*
X35253072Y31262142D01*
X35310215Y31290714D01*
X35338786Y31319285D01*
X35367358Y31376428D01*
X33803072Y24918571D02*
X33603072Y25204285D01*
X33460215Y24918571D02*
X33460215Y25518571D01*
X33688786Y25518571D01*
X33745929Y25489999D01*
X33774501Y25461428D01*
X33803072Y25404285D01*
X33803072Y25318571D01*
X33774501Y25261428D01*
X33745929Y25232857D01*
X33688786Y25204285D01*
X33460215Y25204285D01*
X34003072Y25518571D02*
X34374501Y25518571D01*
X34174501Y25289999D01*
X34260215Y25289999D01*
X34317358Y25261428D01*
X34345929Y25232857D01*
X34374501Y25175714D01*
X34374501Y25032857D01*
X34345929Y24975714D01*
X34317358Y24947142D01*
X34260215Y24918571D01*
X34088786Y24918571D01*
X34031643Y24947142D01*
X34003072Y24975714D01*
X34603072Y25461428D02*
X34631643Y25489999D01*
X34688786Y25518571D01*
X34831643Y25518571D01*
X34888786Y25489999D01*
X34917358Y25461428D01*
X34945929Y25404285D01*
X34945929Y25347142D01*
X34917358Y25261428D01*
X34574501Y24918571D01*
X34945929Y24918571D01*
X35317358Y25518571D02*
X35374501Y25518571D01*
X35431643Y25489999D01*
X35460215Y25461428D01*
X35488786Y25404285D01*
X35517358Y25289999D01*
X35517358Y25147142D01*
X35488786Y25032857D01*
X35460215Y24975714D01*
X35431643Y24947142D01*
X35374501Y24918571D01*
X35317358Y24918571D01*
X35260215Y24947142D01*
X35231643Y24975714D01*
X35203072Y25032857D01*
X35174501Y25147142D01*
X35174501Y25289999D01*
X35203072Y25404285D01*
X35231643Y25461428D01*
X35260215Y25489999D01*
X35317358Y25518571D01*
M02*
