%TF.GenerationSoftware,KiCad,Pcbnew,(5.1.8)-1*%
%TF.CreationDate,2021-02-13T13:18:38-08:00*%
%TF.ProjectId,20210213_Projects_PassiveBalanceBoard,32303231-3032-4313-935f-50726f6a6563,A0*%
%TF.SameCoordinates,PX5b5cac0PY99e0170*%
%TF.FileFunction,Copper,L1,Top*%
%TF.FilePolarity,Positive*%
%FSLAX46Y46*%
G04 Gerber Fmt 4.6, Leading zero omitted, Abs format (unit mm)*
G04 Created by KiCad (PCBNEW (5.1.8)-1) date 2021-02-13 13:18:38*
%MOMM*%
%LPD*%
G01*
G04 APERTURE LIST*
%TA.AperFunction,ComponentPad*%
%ADD10C,6.000000*%
%TD*%
%TA.AperFunction,ComponentPad*%
%ADD11C,2.000000*%
%TD*%
%TA.AperFunction,SMDPad,CuDef*%
%ADD12R,0.900000X0.800000*%
%TD*%
%TA.AperFunction,SMDPad,CuDef*%
%ADD13R,1.560000X0.650000*%
%TD*%
%TA.AperFunction,SMDPad,CuDef*%
%ADD14R,3.200400X0.381000*%
%TD*%
%TA.AperFunction,ViaPad*%
%ADD15C,0.800000*%
%TD*%
%TA.AperFunction,ViaPad*%
%ADD16C,1.000000*%
%TD*%
%TA.AperFunction,ViaPad*%
%ADD17C,2.000000*%
%TD*%
%TA.AperFunction,Conductor*%
%ADD18C,0.600000*%
%TD*%
%TA.AperFunction,Conductor*%
%ADD19C,0.700000*%
%TD*%
%TA.AperFunction,Conductor*%
%ADD20C,0.800000*%
%TD*%
%TA.AperFunction,Conductor*%
%ADD21C,0.650000*%
%TD*%
%TA.AperFunction,Conductor*%
%ADD22C,0.400000*%
%TD*%
%TA.AperFunction,Conductor*%
%ADD23C,0.254000*%
%TD*%
G04 APERTURE END LIST*
D10*
X3500000Y6350000D03*
X3500000Y48750000D03*
%TA.AperFunction,SMDPad,CuDef*%
G36*
G01*
X31725000Y26100001D02*
X31725000Y23249999D01*
G75*
G02*
X31475001Y23000000I-249999J0D01*
G01*
X30449999Y23000000D01*
G75*
G02*
X30200000Y23249999I0J249999D01*
G01*
X30200000Y26100001D01*
G75*
G02*
X30449999Y26350000I249999J0D01*
G01*
X31475001Y26350000D01*
G75*
G02*
X31725000Y26100001I0J-249999D01*
G01*
G37*
%TD.AperFunction*%
%TA.AperFunction,SMDPad,CuDef*%
G36*
G01*
X25750000Y26100001D02*
X25750000Y23249999D01*
G75*
G02*
X25500001Y23000000I-249999J0D01*
G01*
X24474999Y23000000D01*
G75*
G02*
X24225000Y23249999I0J249999D01*
G01*
X24225000Y26100001D01*
G75*
G02*
X24474999Y26350000I249999J0D01*
G01*
X25500001Y26350000D01*
G75*
G02*
X25750000Y26100001I0J-249999D01*
G01*
G37*
%TD.AperFunction*%
D11*
X43200000Y18040000D03*
X43200000Y20580000D03*
X43200000Y23120000D03*
X43200000Y25660000D03*
X43200000Y28200000D03*
X43200000Y30740000D03*
X43200000Y33280000D03*
X43200000Y35820000D03*
X43200000Y38360000D03*
D12*
X11400000Y24725000D03*
X11400000Y22825000D03*
X13400000Y23775000D03*
X11400000Y18725000D03*
X11400000Y16825000D03*
X13400000Y17775000D03*
X11400000Y12725000D03*
X11400000Y10825000D03*
X13400000Y11775000D03*
X11400000Y6675000D03*
X11400000Y4775000D03*
X13400000Y5725000D03*
X17025000Y23775000D03*
X15025000Y22825000D03*
X15025000Y24725000D03*
X15025000Y18725000D03*
X15025000Y16825000D03*
X17025000Y17775000D03*
X15025000Y12725000D03*
X15025000Y10825000D03*
X17025000Y11775000D03*
X17200000Y5725000D03*
X15200000Y4775000D03*
X15200000Y6675000D03*
D13*
X19700000Y24725000D03*
X19700000Y23775000D03*
X19700000Y22825000D03*
X22400000Y22825000D03*
X22400000Y24725000D03*
X22400000Y23775000D03*
X19700000Y18725000D03*
X19700000Y17775000D03*
X19700000Y16825000D03*
X22400000Y16825000D03*
X22400000Y18725000D03*
X22400000Y17775000D03*
X22400000Y11775000D03*
X22400000Y12725000D03*
X22400000Y10825000D03*
X19700000Y10825000D03*
X19700000Y11775000D03*
X19700000Y12725000D03*
X19700000Y6725000D03*
X19700000Y5775000D03*
X19700000Y4825000D03*
X22400000Y4825000D03*
X22400000Y6725000D03*
X22400000Y5775000D03*
D12*
X13525000Y47875000D03*
X11525000Y46925000D03*
X11525000Y48825000D03*
X13400000Y41725000D03*
X11400000Y40775000D03*
X11400000Y42675000D03*
X13400000Y35825000D03*
X11400000Y34875000D03*
X11400000Y36775000D03*
X13400000Y29775000D03*
X11400000Y28825000D03*
X11400000Y30725000D03*
X15025000Y48825000D03*
X15025000Y46925000D03*
X17025000Y47875000D03*
X17025000Y41725000D03*
X15025000Y40775000D03*
X15025000Y42675000D03*
X17025000Y35825000D03*
X15025000Y34875000D03*
X15025000Y36775000D03*
X15025000Y30725000D03*
X15025000Y28825000D03*
X17025000Y29775000D03*
D13*
X19700000Y48725000D03*
X19700000Y47775000D03*
X19700000Y46825000D03*
X22400000Y46825000D03*
X22400000Y48725000D03*
X22400000Y47775000D03*
X22400000Y41725000D03*
X22400000Y42675000D03*
X22400000Y40775000D03*
X19700000Y40775000D03*
X19700000Y41725000D03*
X19700000Y42675000D03*
X22400000Y35775000D03*
X22400000Y36725000D03*
X22400000Y34825000D03*
X19700000Y34825000D03*
X19700000Y35775000D03*
X19700000Y36725000D03*
X22400000Y29775000D03*
X22400000Y30725000D03*
X22400000Y28825000D03*
X19700000Y28825000D03*
X19700000Y29775000D03*
X19700000Y30725000D03*
%TA.AperFunction,SMDPad,CuDef*%
G36*
G01*
X9662500Y23500000D02*
X10137500Y23500000D01*
G75*
G02*
X10375000Y23262500I0J-237500D01*
G01*
X10375000Y22687500D01*
G75*
G02*
X10137500Y22450000I-237500J0D01*
G01*
X9662500Y22450000D01*
G75*
G02*
X9425000Y22687500I0J237500D01*
G01*
X9425000Y23262500D01*
G75*
G02*
X9662500Y23500000I237500J0D01*
G01*
G37*
%TD.AperFunction*%
%TA.AperFunction,SMDPad,CuDef*%
G36*
G01*
X9662500Y25250000D02*
X10137500Y25250000D01*
G75*
G02*
X10375000Y25012500I0J-237500D01*
G01*
X10375000Y24437500D01*
G75*
G02*
X10137500Y24200000I-237500J0D01*
G01*
X9662500Y24200000D01*
G75*
G02*
X9425000Y24437500I0J237500D01*
G01*
X9425000Y25012500D01*
G75*
G02*
X9662500Y25250000I237500J0D01*
G01*
G37*
%TD.AperFunction*%
%TA.AperFunction,SMDPad,CuDef*%
G36*
G01*
X9662500Y19250000D02*
X10137500Y19250000D01*
G75*
G02*
X10375000Y19012500I0J-237500D01*
G01*
X10375000Y18437500D01*
G75*
G02*
X10137500Y18200000I-237500J0D01*
G01*
X9662500Y18200000D01*
G75*
G02*
X9425000Y18437500I0J237500D01*
G01*
X9425000Y19012500D01*
G75*
G02*
X9662500Y19250000I237500J0D01*
G01*
G37*
%TD.AperFunction*%
%TA.AperFunction,SMDPad,CuDef*%
G36*
G01*
X9662500Y17500000D02*
X10137500Y17500000D01*
G75*
G02*
X10375000Y17262500I0J-237500D01*
G01*
X10375000Y16687500D01*
G75*
G02*
X10137500Y16450000I-237500J0D01*
G01*
X9662500Y16450000D01*
G75*
G02*
X9425000Y16687500I0J237500D01*
G01*
X9425000Y17262500D01*
G75*
G02*
X9662500Y17500000I237500J0D01*
G01*
G37*
%TD.AperFunction*%
%TA.AperFunction,SMDPad,CuDef*%
G36*
G01*
X9662500Y11500000D02*
X10137500Y11500000D01*
G75*
G02*
X10375000Y11262500I0J-237500D01*
G01*
X10375000Y10687500D01*
G75*
G02*
X10137500Y10450000I-237500J0D01*
G01*
X9662500Y10450000D01*
G75*
G02*
X9425000Y10687500I0J237500D01*
G01*
X9425000Y11262500D01*
G75*
G02*
X9662500Y11500000I237500J0D01*
G01*
G37*
%TD.AperFunction*%
%TA.AperFunction,SMDPad,CuDef*%
G36*
G01*
X9662500Y13250000D02*
X10137500Y13250000D01*
G75*
G02*
X10375000Y13012500I0J-237500D01*
G01*
X10375000Y12437500D01*
G75*
G02*
X10137500Y12200000I-237500J0D01*
G01*
X9662500Y12200000D01*
G75*
G02*
X9425000Y12437500I0J237500D01*
G01*
X9425000Y13012500D01*
G75*
G02*
X9662500Y13250000I237500J0D01*
G01*
G37*
%TD.AperFunction*%
%TA.AperFunction,SMDPad,CuDef*%
G36*
G01*
X9662500Y5450000D02*
X10137500Y5450000D01*
G75*
G02*
X10375000Y5212500I0J-237500D01*
G01*
X10375000Y4637500D01*
G75*
G02*
X10137500Y4400000I-237500J0D01*
G01*
X9662500Y4400000D01*
G75*
G02*
X9425000Y4637500I0J237500D01*
G01*
X9425000Y5212500D01*
G75*
G02*
X9662500Y5450000I237500J0D01*
G01*
G37*
%TD.AperFunction*%
%TA.AperFunction,SMDPad,CuDef*%
G36*
G01*
X9662500Y7200000D02*
X10137500Y7200000D01*
G75*
G02*
X10375000Y6962500I0J-237500D01*
G01*
X10375000Y6387500D01*
G75*
G02*
X10137500Y6150000I-237500J0D01*
G01*
X9662500Y6150000D01*
G75*
G02*
X9425000Y6387500I0J237500D01*
G01*
X9425000Y6962500D01*
G75*
G02*
X9662500Y7200000I237500J0D01*
G01*
G37*
%TD.AperFunction*%
%TA.AperFunction,SMDPad,CuDef*%
G36*
G01*
X20125000Y20937500D02*
X20125000Y21412500D01*
G75*
G02*
X20362500Y21650000I237500J0D01*
G01*
X20937500Y21650000D01*
G75*
G02*
X21175000Y21412500I0J-237500D01*
G01*
X21175000Y20937500D01*
G75*
G02*
X20937500Y20700000I-237500J0D01*
G01*
X20362500Y20700000D01*
G75*
G02*
X20125000Y20937500I0J237500D01*
G01*
G37*
%TD.AperFunction*%
%TA.AperFunction,SMDPad,CuDef*%
G36*
G01*
X21875000Y20937500D02*
X21875000Y21412500D01*
G75*
G02*
X22112500Y21650000I237500J0D01*
G01*
X22687500Y21650000D01*
G75*
G02*
X22925000Y21412500I0J-237500D01*
G01*
X22925000Y20937500D01*
G75*
G02*
X22687500Y20700000I-237500J0D01*
G01*
X22112500Y20700000D01*
G75*
G02*
X21875000Y20937500I0J237500D01*
G01*
G37*
%TD.AperFunction*%
%TA.AperFunction,SMDPad,CuDef*%
G36*
G01*
X20125000Y14937500D02*
X20125000Y15412500D01*
G75*
G02*
X20362500Y15650000I237500J0D01*
G01*
X20937500Y15650000D01*
G75*
G02*
X21175000Y15412500I0J-237500D01*
G01*
X21175000Y14937500D01*
G75*
G02*
X20937500Y14700000I-237500J0D01*
G01*
X20362500Y14700000D01*
G75*
G02*
X20125000Y14937500I0J237500D01*
G01*
G37*
%TD.AperFunction*%
%TA.AperFunction,SMDPad,CuDef*%
G36*
G01*
X21875000Y14937500D02*
X21875000Y15412500D01*
G75*
G02*
X22112500Y15650000I237500J0D01*
G01*
X22687500Y15650000D01*
G75*
G02*
X22925000Y15412500I0J-237500D01*
G01*
X22925000Y14937500D01*
G75*
G02*
X22687500Y14700000I-237500J0D01*
G01*
X22112500Y14700000D01*
G75*
G02*
X21875000Y14937500I0J237500D01*
G01*
G37*
%TD.AperFunction*%
%TA.AperFunction,SMDPad,CuDef*%
G36*
G01*
X21875000Y8937500D02*
X21875000Y9412500D01*
G75*
G02*
X22112500Y9650000I237500J0D01*
G01*
X22687500Y9650000D01*
G75*
G02*
X22925000Y9412500I0J-237500D01*
G01*
X22925000Y8937500D01*
G75*
G02*
X22687500Y8700000I-237500J0D01*
G01*
X22112500Y8700000D01*
G75*
G02*
X21875000Y8937500I0J237500D01*
G01*
G37*
%TD.AperFunction*%
%TA.AperFunction,SMDPad,CuDef*%
G36*
G01*
X20125000Y8937500D02*
X20125000Y9412500D01*
G75*
G02*
X20362500Y9650000I237500J0D01*
G01*
X20937500Y9650000D01*
G75*
G02*
X21175000Y9412500I0J-237500D01*
G01*
X21175000Y8937500D01*
G75*
G02*
X20937500Y8700000I-237500J0D01*
G01*
X20362500Y8700000D01*
G75*
G02*
X20125000Y8937500I0J237500D01*
G01*
G37*
%TD.AperFunction*%
%TA.AperFunction,SMDPad,CuDef*%
G36*
G01*
X21875000Y2937500D02*
X21875000Y3412500D01*
G75*
G02*
X22112500Y3650000I237500J0D01*
G01*
X22687500Y3650000D01*
G75*
G02*
X22925000Y3412500I0J-237500D01*
G01*
X22925000Y2937500D01*
G75*
G02*
X22687500Y2700000I-237500J0D01*
G01*
X22112500Y2700000D01*
G75*
G02*
X21875000Y2937500I0J237500D01*
G01*
G37*
%TD.AperFunction*%
%TA.AperFunction,SMDPad,CuDef*%
G36*
G01*
X20125000Y2937500D02*
X20125000Y3412500D01*
G75*
G02*
X20362500Y3650000I237500J0D01*
G01*
X20937500Y3650000D01*
G75*
G02*
X21175000Y3412500I0J-237500D01*
G01*
X21175000Y2937500D01*
G75*
G02*
X20937500Y2700000I-237500J0D01*
G01*
X20362500Y2700000D01*
G75*
G02*
X20125000Y2937500I0J237500D01*
G01*
G37*
%TD.AperFunction*%
%TA.AperFunction,SMDPad,CuDef*%
G36*
G01*
X9787500Y49350000D02*
X10262500Y49350000D01*
G75*
G02*
X10500000Y49112500I0J-237500D01*
G01*
X10500000Y48537500D01*
G75*
G02*
X10262500Y48300000I-237500J0D01*
G01*
X9787500Y48300000D01*
G75*
G02*
X9550000Y48537500I0J237500D01*
G01*
X9550000Y49112500D01*
G75*
G02*
X9787500Y49350000I237500J0D01*
G01*
G37*
%TD.AperFunction*%
%TA.AperFunction,SMDPad,CuDef*%
G36*
G01*
X9787500Y47600000D02*
X10262500Y47600000D01*
G75*
G02*
X10500000Y47362500I0J-237500D01*
G01*
X10500000Y46787500D01*
G75*
G02*
X10262500Y46550000I-237500J0D01*
G01*
X9787500Y46550000D01*
G75*
G02*
X9550000Y46787500I0J237500D01*
G01*
X9550000Y47362500D01*
G75*
G02*
X9787500Y47600000I237500J0D01*
G01*
G37*
%TD.AperFunction*%
%TA.AperFunction,SMDPad,CuDef*%
G36*
G01*
X9662500Y41450000D02*
X10137500Y41450000D01*
G75*
G02*
X10375000Y41212500I0J-237500D01*
G01*
X10375000Y40637500D01*
G75*
G02*
X10137500Y40400000I-237500J0D01*
G01*
X9662500Y40400000D01*
G75*
G02*
X9425000Y40637500I0J237500D01*
G01*
X9425000Y41212500D01*
G75*
G02*
X9662500Y41450000I237500J0D01*
G01*
G37*
%TD.AperFunction*%
%TA.AperFunction,SMDPad,CuDef*%
G36*
G01*
X9662500Y43200000D02*
X10137500Y43200000D01*
G75*
G02*
X10375000Y42962500I0J-237500D01*
G01*
X10375000Y42387500D01*
G75*
G02*
X10137500Y42150000I-237500J0D01*
G01*
X9662500Y42150000D01*
G75*
G02*
X9425000Y42387500I0J237500D01*
G01*
X9425000Y42962500D01*
G75*
G02*
X9662500Y43200000I237500J0D01*
G01*
G37*
%TD.AperFunction*%
%TA.AperFunction,SMDPad,CuDef*%
G36*
G01*
X9662500Y37300000D02*
X10137500Y37300000D01*
G75*
G02*
X10375000Y37062500I0J-237500D01*
G01*
X10375000Y36487500D01*
G75*
G02*
X10137500Y36250000I-237500J0D01*
G01*
X9662500Y36250000D01*
G75*
G02*
X9425000Y36487500I0J237500D01*
G01*
X9425000Y37062500D01*
G75*
G02*
X9662500Y37300000I237500J0D01*
G01*
G37*
%TD.AperFunction*%
%TA.AperFunction,SMDPad,CuDef*%
G36*
G01*
X9662500Y35550000D02*
X10137500Y35550000D01*
G75*
G02*
X10375000Y35312500I0J-237500D01*
G01*
X10375000Y34737500D01*
G75*
G02*
X10137500Y34500000I-237500J0D01*
G01*
X9662500Y34500000D01*
G75*
G02*
X9425000Y34737500I0J237500D01*
G01*
X9425000Y35312500D01*
G75*
G02*
X9662500Y35550000I237500J0D01*
G01*
G37*
%TD.AperFunction*%
%TA.AperFunction,SMDPad,CuDef*%
G36*
G01*
X9662500Y29500000D02*
X10137500Y29500000D01*
G75*
G02*
X10375000Y29262500I0J-237500D01*
G01*
X10375000Y28687500D01*
G75*
G02*
X10137500Y28450000I-237500J0D01*
G01*
X9662500Y28450000D01*
G75*
G02*
X9425000Y28687500I0J237500D01*
G01*
X9425000Y29262500D01*
G75*
G02*
X9662500Y29500000I237500J0D01*
G01*
G37*
%TD.AperFunction*%
%TA.AperFunction,SMDPad,CuDef*%
G36*
G01*
X9662500Y31250000D02*
X10137500Y31250000D01*
G75*
G02*
X10375000Y31012500I0J-237500D01*
G01*
X10375000Y30437500D01*
G75*
G02*
X10137500Y30200000I-237500J0D01*
G01*
X9662500Y30200000D01*
G75*
G02*
X9425000Y30437500I0J237500D01*
G01*
X9425000Y31012500D01*
G75*
G02*
X9662500Y31250000I237500J0D01*
G01*
G37*
%TD.AperFunction*%
%TA.AperFunction,SMDPad,CuDef*%
G36*
G01*
X15675000Y44587500D02*
X15675000Y44112500D01*
G75*
G02*
X15437500Y43875000I-237500J0D01*
G01*
X14862500Y43875000D01*
G75*
G02*
X14625000Y44112500I0J237500D01*
G01*
X14625000Y44587500D01*
G75*
G02*
X14862500Y44825000I237500J0D01*
G01*
X15437500Y44825000D01*
G75*
G02*
X15675000Y44587500I0J-237500D01*
G01*
G37*
%TD.AperFunction*%
%TA.AperFunction,SMDPad,CuDef*%
G36*
G01*
X13925000Y44587500D02*
X13925000Y44112500D01*
G75*
G02*
X13687500Y43875000I-237500J0D01*
G01*
X13112500Y43875000D01*
G75*
G02*
X12875000Y44112500I0J237500D01*
G01*
X12875000Y44587500D01*
G75*
G02*
X13112500Y44825000I237500J0D01*
G01*
X13687500Y44825000D01*
G75*
G02*
X13925000Y44587500I0J-237500D01*
G01*
G37*
%TD.AperFunction*%
%TA.AperFunction,SMDPad,CuDef*%
G36*
G01*
X13925000Y38662500D02*
X13925000Y38187500D01*
G75*
G02*
X13687500Y37950000I-237500J0D01*
G01*
X13112500Y37950000D01*
G75*
G02*
X12875000Y38187500I0J237500D01*
G01*
X12875000Y38662500D01*
G75*
G02*
X13112500Y38900000I237500J0D01*
G01*
X13687500Y38900000D01*
G75*
G02*
X13925000Y38662500I0J-237500D01*
G01*
G37*
%TD.AperFunction*%
%TA.AperFunction,SMDPad,CuDef*%
G36*
G01*
X15675000Y38662500D02*
X15675000Y38187500D01*
G75*
G02*
X15437500Y37950000I-237500J0D01*
G01*
X14862500Y37950000D01*
G75*
G02*
X14625000Y38187500I0J237500D01*
G01*
X14625000Y38662500D01*
G75*
G02*
X14862500Y38900000I237500J0D01*
G01*
X15437500Y38900000D01*
G75*
G02*
X15675000Y38662500I0J-237500D01*
G01*
G37*
%TD.AperFunction*%
%TA.AperFunction,SMDPad,CuDef*%
G36*
G01*
X15675000Y32612500D02*
X15675000Y32137500D01*
G75*
G02*
X15437500Y31900000I-237500J0D01*
G01*
X14862500Y31900000D01*
G75*
G02*
X14625000Y32137500I0J237500D01*
G01*
X14625000Y32612500D01*
G75*
G02*
X14862500Y32850000I237500J0D01*
G01*
X15437500Y32850000D01*
G75*
G02*
X15675000Y32612500I0J-237500D01*
G01*
G37*
%TD.AperFunction*%
%TA.AperFunction,SMDPad,CuDef*%
G36*
G01*
X13925000Y32612500D02*
X13925000Y32137500D01*
G75*
G02*
X13687500Y31900000I-237500J0D01*
G01*
X13112500Y31900000D01*
G75*
G02*
X12875000Y32137500I0J237500D01*
G01*
X12875000Y32612500D01*
G75*
G02*
X13112500Y32850000I237500J0D01*
G01*
X13687500Y32850000D01*
G75*
G02*
X13925000Y32612500I0J-237500D01*
G01*
G37*
%TD.AperFunction*%
%TA.AperFunction,SMDPad,CuDef*%
G36*
G01*
X20125000Y38887500D02*
X20125000Y39362500D01*
G75*
G02*
X20362500Y39600000I237500J0D01*
G01*
X20937500Y39600000D01*
G75*
G02*
X21175000Y39362500I0J-237500D01*
G01*
X21175000Y38887500D01*
G75*
G02*
X20937500Y38650000I-237500J0D01*
G01*
X20362500Y38650000D01*
G75*
G02*
X20125000Y38887500I0J237500D01*
G01*
G37*
%TD.AperFunction*%
%TA.AperFunction,SMDPad,CuDef*%
G36*
G01*
X21875000Y38887500D02*
X21875000Y39362500D01*
G75*
G02*
X22112500Y39600000I237500J0D01*
G01*
X22687500Y39600000D01*
G75*
G02*
X22925000Y39362500I0J-237500D01*
G01*
X22925000Y38887500D01*
G75*
G02*
X22687500Y38650000I-237500J0D01*
G01*
X22112500Y38650000D01*
G75*
G02*
X21875000Y38887500I0J237500D01*
G01*
G37*
%TD.AperFunction*%
%TA.AperFunction,SMDPad,CuDef*%
G36*
G01*
X21875000Y32937500D02*
X21875000Y33412500D01*
G75*
G02*
X22112500Y33650000I237500J0D01*
G01*
X22687500Y33650000D01*
G75*
G02*
X22925000Y33412500I0J-237500D01*
G01*
X22925000Y32937500D01*
G75*
G02*
X22687500Y32700000I-237500J0D01*
G01*
X22112500Y32700000D01*
G75*
G02*
X21875000Y32937500I0J237500D01*
G01*
G37*
%TD.AperFunction*%
%TA.AperFunction,SMDPad,CuDef*%
G36*
G01*
X20125000Y32937500D02*
X20125000Y33412500D01*
G75*
G02*
X20362500Y33650000I237500J0D01*
G01*
X20937500Y33650000D01*
G75*
G02*
X21175000Y33412500I0J-237500D01*
G01*
X21175000Y32937500D01*
G75*
G02*
X20937500Y32700000I-237500J0D01*
G01*
X20362500Y32700000D01*
G75*
G02*
X20125000Y32937500I0J237500D01*
G01*
G37*
%TD.AperFunction*%
%TA.AperFunction,SMDPad,CuDef*%
G36*
G01*
X21875000Y26937500D02*
X21875000Y27412500D01*
G75*
G02*
X22112500Y27650000I237500J0D01*
G01*
X22687500Y27650000D01*
G75*
G02*
X22925000Y27412500I0J-237500D01*
G01*
X22925000Y26937500D01*
G75*
G02*
X22687500Y26700000I-237500J0D01*
G01*
X22112500Y26700000D01*
G75*
G02*
X21875000Y26937500I0J237500D01*
G01*
G37*
%TD.AperFunction*%
%TA.AperFunction,SMDPad,CuDef*%
G36*
G01*
X20125000Y26937500D02*
X20125000Y27412500D01*
G75*
G02*
X20362500Y27650000I237500J0D01*
G01*
X20937500Y27650000D01*
G75*
G02*
X21175000Y27412500I0J-237500D01*
G01*
X21175000Y26937500D01*
G75*
G02*
X20937500Y26700000I-237500J0D01*
G01*
X20362500Y26700000D01*
G75*
G02*
X20125000Y26937500I0J237500D01*
G01*
G37*
%TD.AperFunction*%
%TA.AperFunction,SMDPad,CuDef*%
G36*
G01*
X25750000Y20150001D02*
X25750000Y17299999D01*
G75*
G02*
X25500001Y17050000I-249999J0D01*
G01*
X24474999Y17050000D01*
G75*
G02*
X24225000Y17299999I0J249999D01*
G01*
X24225000Y20150001D01*
G75*
G02*
X24474999Y20400000I249999J0D01*
G01*
X25500001Y20400000D01*
G75*
G02*
X25750000Y20150001I0J-249999D01*
G01*
G37*
%TD.AperFunction*%
%TA.AperFunction,SMDPad,CuDef*%
G36*
G01*
X31725000Y20150001D02*
X31725000Y17299999D01*
G75*
G02*
X31475001Y17050000I-249999J0D01*
G01*
X30449999Y17050000D01*
G75*
G02*
X30200000Y17299999I0J249999D01*
G01*
X30200000Y20150001D01*
G75*
G02*
X30449999Y20400000I249999J0D01*
G01*
X31475001Y20400000D01*
G75*
G02*
X31725000Y20150001I0J-249999D01*
G01*
G37*
%TD.AperFunction*%
%TA.AperFunction,SMDPad,CuDef*%
G36*
G01*
X31725000Y14100001D02*
X31725000Y11249999D01*
G75*
G02*
X31475001Y11000000I-249999J0D01*
G01*
X30449999Y11000000D01*
G75*
G02*
X30200000Y11249999I0J249999D01*
G01*
X30200000Y14100001D01*
G75*
G02*
X30449999Y14350000I249999J0D01*
G01*
X31475001Y14350000D01*
G75*
G02*
X31725000Y14100001I0J-249999D01*
G01*
G37*
%TD.AperFunction*%
%TA.AperFunction,SMDPad,CuDef*%
G36*
G01*
X25750000Y14100001D02*
X25750000Y11249999D01*
G75*
G02*
X25500001Y11000000I-249999J0D01*
G01*
X24474999Y11000000D01*
G75*
G02*
X24225000Y11249999I0J249999D01*
G01*
X24225000Y14100001D01*
G75*
G02*
X24474999Y14350000I249999J0D01*
G01*
X25500001Y14350000D01*
G75*
G02*
X25750000Y14100001I0J-249999D01*
G01*
G37*
%TD.AperFunction*%
%TA.AperFunction,SMDPad,CuDef*%
G36*
G01*
X25750000Y8100001D02*
X25750000Y5249999D01*
G75*
G02*
X25500001Y5000000I-249999J0D01*
G01*
X24474999Y5000000D01*
G75*
G02*
X24225000Y5249999I0J249999D01*
G01*
X24225000Y8100001D01*
G75*
G02*
X24474999Y8350000I249999J0D01*
G01*
X25500001Y8350000D01*
G75*
G02*
X25750000Y8100001I0J-249999D01*
G01*
G37*
%TD.AperFunction*%
%TA.AperFunction,SMDPad,CuDef*%
G36*
G01*
X31725000Y8100001D02*
X31725000Y5249999D01*
G75*
G02*
X31475001Y5000000I-249999J0D01*
G01*
X30449999Y5000000D01*
G75*
G02*
X30200000Y5249999I0J249999D01*
G01*
X30200000Y8100001D01*
G75*
G02*
X30449999Y8350000I249999J0D01*
G01*
X31475001Y8350000D01*
G75*
G02*
X31725000Y8100001I0J-249999D01*
G01*
G37*
%TD.AperFunction*%
%TA.AperFunction,SMDPad,CuDef*%
G36*
G01*
X25750000Y50150001D02*
X25750000Y47299999D01*
G75*
G02*
X25500001Y47050000I-249999J0D01*
G01*
X24474999Y47050000D01*
G75*
G02*
X24225000Y47299999I0J249999D01*
G01*
X24225000Y50150001D01*
G75*
G02*
X24474999Y50400000I249999J0D01*
G01*
X25500001Y50400000D01*
G75*
G02*
X25750000Y50150001I0J-249999D01*
G01*
G37*
%TD.AperFunction*%
%TA.AperFunction,SMDPad,CuDef*%
G36*
G01*
X31725000Y50150001D02*
X31725000Y47299999D01*
G75*
G02*
X31475001Y47050000I-249999J0D01*
G01*
X30449999Y47050000D01*
G75*
G02*
X30200000Y47299999I0J249999D01*
G01*
X30200000Y50150001D01*
G75*
G02*
X30449999Y50400000I249999J0D01*
G01*
X31475001Y50400000D01*
G75*
G02*
X31725000Y50150001I0J-249999D01*
G01*
G37*
%TD.AperFunction*%
%TA.AperFunction,SMDPad,CuDef*%
G36*
G01*
X31725000Y44100001D02*
X31725000Y41249999D01*
G75*
G02*
X31475001Y41000000I-249999J0D01*
G01*
X30449999Y41000000D01*
G75*
G02*
X30200000Y41249999I0J249999D01*
G01*
X30200000Y44100001D01*
G75*
G02*
X30449999Y44350000I249999J0D01*
G01*
X31475001Y44350000D01*
G75*
G02*
X31725000Y44100001I0J-249999D01*
G01*
G37*
%TD.AperFunction*%
%TA.AperFunction,SMDPad,CuDef*%
G36*
G01*
X25750000Y44100001D02*
X25750000Y41249999D01*
G75*
G02*
X25500001Y41000000I-249999J0D01*
G01*
X24474999Y41000000D01*
G75*
G02*
X24225000Y41249999I0J249999D01*
G01*
X24225000Y44100001D01*
G75*
G02*
X24474999Y44350000I249999J0D01*
G01*
X25500001Y44350000D01*
G75*
G02*
X25750000Y44100001I0J-249999D01*
G01*
G37*
%TD.AperFunction*%
%TA.AperFunction,SMDPad,CuDef*%
G36*
G01*
X31725000Y38150001D02*
X31725000Y35299999D01*
G75*
G02*
X31475001Y35050000I-249999J0D01*
G01*
X30449999Y35050000D01*
G75*
G02*
X30200000Y35299999I0J249999D01*
G01*
X30200000Y38150001D01*
G75*
G02*
X30449999Y38400000I249999J0D01*
G01*
X31475001Y38400000D01*
G75*
G02*
X31725000Y38150001I0J-249999D01*
G01*
G37*
%TD.AperFunction*%
%TA.AperFunction,SMDPad,CuDef*%
G36*
G01*
X25750000Y38150001D02*
X25750000Y35299999D01*
G75*
G02*
X25500001Y35050000I-249999J0D01*
G01*
X24474999Y35050000D01*
G75*
G02*
X24225000Y35299999I0J249999D01*
G01*
X24225000Y38150001D01*
G75*
G02*
X24474999Y38400000I249999J0D01*
G01*
X25500001Y38400000D01*
G75*
G02*
X25750000Y38150001I0J-249999D01*
G01*
G37*
%TD.AperFunction*%
%TA.AperFunction,SMDPad,CuDef*%
G36*
G01*
X25750000Y32150001D02*
X25750000Y29299999D01*
G75*
G02*
X25500001Y29050000I-249999J0D01*
G01*
X24474999Y29050000D01*
G75*
G02*
X24225000Y29299999I0J249999D01*
G01*
X24225000Y32150001D01*
G75*
G02*
X24474999Y32400000I249999J0D01*
G01*
X25500001Y32400000D01*
G75*
G02*
X25750000Y32150001I0J-249999D01*
G01*
G37*
%TD.AperFunction*%
%TA.AperFunction,SMDPad,CuDef*%
G36*
G01*
X31725000Y32150001D02*
X31725000Y29299999D01*
G75*
G02*
X31475001Y29050000I-249999J0D01*
G01*
X30449999Y29050000D01*
G75*
G02*
X30200000Y29299999I0J249999D01*
G01*
X30200000Y32150001D01*
G75*
G02*
X30449999Y32400000I249999J0D01*
G01*
X31475001Y32400000D01*
G75*
G02*
X31725000Y32150001I0J-249999D01*
G01*
G37*
%TD.AperFunction*%
%TA.AperFunction,SMDPad,CuDef*%
G36*
G01*
X16650000Y50162500D02*
X16650000Y50637500D01*
G75*
G02*
X16887500Y50875000I237500J0D01*
G01*
X17462500Y50875000D01*
G75*
G02*
X17700000Y50637500I0J-237500D01*
G01*
X17700000Y50162500D01*
G75*
G02*
X17462500Y49925000I-237500J0D01*
G01*
X16887500Y49925000D01*
G75*
G02*
X16650000Y50162500I0J237500D01*
G01*
G37*
%TD.AperFunction*%
%TA.AperFunction,SMDPad,CuDef*%
G36*
G01*
X18400000Y50162500D02*
X18400000Y50637500D01*
G75*
G02*
X18637500Y50875000I237500J0D01*
G01*
X19212500Y50875000D01*
G75*
G02*
X19450000Y50637500I0J-237500D01*
G01*
X19450000Y50162500D01*
G75*
G02*
X19212500Y49925000I-237500J0D01*
G01*
X18637500Y49925000D01*
G75*
G02*
X18400000Y50162500I0J237500D01*
G01*
G37*
%TD.AperFunction*%
%TA.AperFunction,SMDPad,CuDef*%
G36*
G01*
X18275000Y44137500D02*
X18275000Y44612500D01*
G75*
G02*
X18512500Y44850000I237500J0D01*
G01*
X19087500Y44850000D01*
G75*
G02*
X19325000Y44612500I0J-237500D01*
G01*
X19325000Y44137500D01*
G75*
G02*
X19087500Y43900000I-237500J0D01*
G01*
X18512500Y43900000D01*
G75*
G02*
X18275000Y44137500I0J237500D01*
G01*
G37*
%TD.AperFunction*%
%TA.AperFunction,SMDPad,CuDef*%
G36*
G01*
X16525000Y44137500D02*
X16525000Y44612500D01*
G75*
G02*
X16762500Y44850000I237500J0D01*
G01*
X17337500Y44850000D01*
G75*
G02*
X17575000Y44612500I0J-237500D01*
G01*
X17575000Y44137500D01*
G75*
G02*
X17337500Y43900000I-237500J0D01*
G01*
X16762500Y43900000D01*
G75*
G02*
X16525000Y44137500I0J237500D01*
G01*
G37*
%TD.AperFunction*%
%TA.AperFunction,SMDPad,CuDef*%
G36*
G01*
X16525000Y38187500D02*
X16525000Y38662500D01*
G75*
G02*
X16762500Y38900000I237500J0D01*
G01*
X17337500Y38900000D01*
G75*
G02*
X17575000Y38662500I0J-237500D01*
G01*
X17575000Y38187500D01*
G75*
G02*
X17337500Y37950000I-237500J0D01*
G01*
X16762500Y37950000D01*
G75*
G02*
X16525000Y38187500I0J237500D01*
G01*
G37*
%TD.AperFunction*%
%TA.AperFunction,SMDPad,CuDef*%
G36*
G01*
X18275000Y38187500D02*
X18275000Y38662500D01*
G75*
G02*
X18512500Y38900000I237500J0D01*
G01*
X19087500Y38900000D01*
G75*
G02*
X19325000Y38662500I0J-237500D01*
G01*
X19325000Y38187500D01*
G75*
G02*
X19087500Y37950000I-237500J0D01*
G01*
X18512500Y37950000D01*
G75*
G02*
X18275000Y38187500I0J237500D01*
G01*
G37*
%TD.AperFunction*%
%TA.AperFunction,SMDPad,CuDef*%
G36*
G01*
X18275000Y32137500D02*
X18275000Y32612500D01*
G75*
G02*
X18512500Y32850000I237500J0D01*
G01*
X19087500Y32850000D01*
G75*
G02*
X19325000Y32612500I0J-237500D01*
G01*
X19325000Y32137500D01*
G75*
G02*
X19087500Y31900000I-237500J0D01*
G01*
X18512500Y31900000D01*
G75*
G02*
X18275000Y32137500I0J237500D01*
G01*
G37*
%TD.AperFunction*%
%TA.AperFunction,SMDPad,CuDef*%
G36*
G01*
X16525000Y32137500D02*
X16525000Y32612500D01*
G75*
G02*
X16762500Y32850000I237500J0D01*
G01*
X17337500Y32850000D01*
G75*
G02*
X17575000Y32612500I0J-237500D01*
G01*
X17575000Y32137500D01*
G75*
G02*
X17337500Y31900000I-237500J0D01*
G01*
X16762500Y31900000D01*
G75*
G02*
X16525000Y32137500I0J237500D01*
G01*
G37*
%TD.AperFunction*%
%TA.AperFunction,SMDPad,CuDef*%
G36*
G01*
X15675000Y26612500D02*
X15675000Y26137500D01*
G75*
G02*
X15437500Y25900000I-237500J0D01*
G01*
X14862500Y25900000D01*
G75*
G02*
X14625000Y26137500I0J237500D01*
G01*
X14625000Y26612500D01*
G75*
G02*
X14862500Y26850000I237500J0D01*
G01*
X15437500Y26850000D01*
G75*
G02*
X15675000Y26612500I0J-237500D01*
G01*
G37*
%TD.AperFunction*%
%TA.AperFunction,SMDPad,CuDef*%
G36*
G01*
X13925000Y26612500D02*
X13925000Y26137500D01*
G75*
G02*
X13687500Y25900000I-237500J0D01*
G01*
X13112500Y25900000D01*
G75*
G02*
X12875000Y26137500I0J237500D01*
G01*
X12875000Y26612500D01*
G75*
G02*
X13112500Y26850000I237500J0D01*
G01*
X13687500Y26850000D01*
G75*
G02*
X13925000Y26612500I0J-237500D01*
G01*
G37*
%TD.AperFunction*%
%TA.AperFunction,SMDPad,CuDef*%
G36*
G01*
X15675000Y20612500D02*
X15675000Y20137500D01*
G75*
G02*
X15437500Y19900000I-237500J0D01*
G01*
X14862500Y19900000D01*
G75*
G02*
X14625000Y20137500I0J237500D01*
G01*
X14625000Y20612500D01*
G75*
G02*
X14862500Y20850000I237500J0D01*
G01*
X15437500Y20850000D01*
G75*
G02*
X15675000Y20612500I0J-237500D01*
G01*
G37*
%TD.AperFunction*%
%TA.AperFunction,SMDPad,CuDef*%
G36*
G01*
X13925000Y20612500D02*
X13925000Y20137500D01*
G75*
G02*
X13687500Y19900000I-237500J0D01*
G01*
X13112500Y19900000D01*
G75*
G02*
X12875000Y20137500I0J237500D01*
G01*
X12875000Y20612500D01*
G75*
G02*
X13112500Y20850000I237500J0D01*
G01*
X13687500Y20850000D01*
G75*
G02*
X13925000Y20612500I0J-237500D01*
G01*
G37*
%TD.AperFunction*%
%TA.AperFunction,SMDPad,CuDef*%
G36*
G01*
X15675000Y14612500D02*
X15675000Y14137500D01*
G75*
G02*
X15437500Y13900000I-237500J0D01*
G01*
X14862500Y13900000D01*
G75*
G02*
X14625000Y14137500I0J237500D01*
G01*
X14625000Y14612500D01*
G75*
G02*
X14862500Y14850000I237500J0D01*
G01*
X15437500Y14850000D01*
G75*
G02*
X15675000Y14612500I0J-237500D01*
G01*
G37*
%TD.AperFunction*%
%TA.AperFunction,SMDPad,CuDef*%
G36*
G01*
X13925000Y14612500D02*
X13925000Y14137500D01*
G75*
G02*
X13687500Y13900000I-237500J0D01*
G01*
X13112500Y13900000D01*
G75*
G02*
X12875000Y14137500I0J237500D01*
G01*
X12875000Y14612500D01*
G75*
G02*
X13112500Y14850000I237500J0D01*
G01*
X13687500Y14850000D01*
G75*
G02*
X13925000Y14612500I0J-237500D01*
G01*
G37*
%TD.AperFunction*%
%TA.AperFunction,SMDPad,CuDef*%
G36*
G01*
X18275000Y26137500D02*
X18275000Y26612500D01*
G75*
G02*
X18512500Y26850000I237500J0D01*
G01*
X19087500Y26850000D01*
G75*
G02*
X19325000Y26612500I0J-237500D01*
G01*
X19325000Y26137500D01*
G75*
G02*
X19087500Y25900000I-237500J0D01*
G01*
X18512500Y25900000D01*
G75*
G02*
X18275000Y26137500I0J237500D01*
G01*
G37*
%TD.AperFunction*%
%TA.AperFunction,SMDPad,CuDef*%
G36*
G01*
X16525000Y26137500D02*
X16525000Y26612500D01*
G75*
G02*
X16762500Y26850000I237500J0D01*
G01*
X17337500Y26850000D01*
G75*
G02*
X17575000Y26612500I0J-237500D01*
G01*
X17575000Y26137500D01*
G75*
G02*
X17337500Y25900000I-237500J0D01*
G01*
X16762500Y25900000D01*
G75*
G02*
X16525000Y26137500I0J237500D01*
G01*
G37*
%TD.AperFunction*%
%TA.AperFunction,SMDPad,CuDef*%
G36*
G01*
X18275000Y20137500D02*
X18275000Y20612500D01*
G75*
G02*
X18512500Y20850000I237500J0D01*
G01*
X19087500Y20850000D01*
G75*
G02*
X19325000Y20612500I0J-237500D01*
G01*
X19325000Y20137500D01*
G75*
G02*
X19087500Y19900000I-237500J0D01*
G01*
X18512500Y19900000D01*
G75*
G02*
X18275000Y20137500I0J237500D01*
G01*
G37*
%TD.AperFunction*%
%TA.AperFunction,SMDPad,CuDef*%
G36*
G01*
X16525000Y20137500D02*
X16525000Y20612500D01*
G75*
G02*
X16762500Y20850000I237500J0D01*
G01*
X17337500Y20850000D01*
G75*
G02*
X17575000Y20612500I0J-237500D01*
G01*
X17575000Y20137500D01*
G75*
G02*
X17337500Y19900000I-237500J0D01*
G01*
X16762500Y19900000D01*
G75*
G02*
X16525000Y20137500I0J237500D01*
G01*
G37*
%TD.AperFunction*%
%TA.AperFunction,SMDPad,CuDef*%
G36*
G01*
X18275000Y14137500D02*
X18275000Y14612500D01*
G75*
G02*
X18512500Y14850000I237500J0D01*
G01*
X19087500Y14850000D01*
G75*
G02*
X19325000Y14612500I0J-237500D01*
G01*
X19325000Y14137500D01*
G75*
G02*
X19087500Y13900000I-237500J0D01*
G01*
X18512500Y13900000D01*
G75*
G02*
X18275000Y14137500I0J237500D01*
G01*
G37*
%TD.AperFunction*%
%TA.AperFunction,SMDPad,CuDef*%
G36*
G01*
X16525000Y14137500D02*
X16525000Y14612500D01*
G75*
G02*
X16762500Y14850000I237500J0D01*
G01*
X17337500Y14850000D01*
G75*
G02*
X17575000Y14612500I0J-237500D01*
G01*
X17575000Y14137500D01*
G75*
G02*
X17337500Y13900000I-237500J0D01*
G01*
X16762500Y13900000D01*
G75*
G02*
X16525000Y14137500I0J237500D01*
G01*
G37*
%TD.AperFunction*%
D11*
X1400000Y38010000D03*
X1400000Y35470000D03*
X1400000Y32930000D03*
X1400000Y30390000D03*
X1400000Y27850000D03*
X1400000Y25310000D03*
X1400000Y22770000D03*
X1400000Y20230000D03*
X1400000Y17690000D03*
%TA.AperFunction,SMDPad,CuDef*%
G36*
G01*
X13925000Y8512500D02*
X13925000Y8037500D01*
G75*
G02*
X13687500Y7800000I-237500J0D01*
G01*
X13112500Y7800000D01*
G75*
G02*
X12875000Y8037500I0J237500D01*
G01*
X12875000Y8512500D01*
G75*
G02*
X13112500Y8750000I237500J0D01*
G01*
X13687500Y8750000D01*
G75*
G02*
X13925000Y8512500I0J-237500D01*
G01*
G37*
%TD.AperFunction*%
%TA.AperFunction,SMDPad,CuDef*%
G36*
G01*
X15675000Y8512500D02*
X15675000Y8037500D01*
G75*
G02*
X15437500Y7800000I-237500J0D01*
G01*
X14862500Y7800000D01*
G75*
G02*
X14625000Y8037500I0J237500D01*
G01*
X14625000Y8512500D01*
G75*
G02*
X14862500Y8750000I237500J0D01*
G01*
X15437500Y8750000D01*
G75*
G02*
X15675000Y8512500I0J-237500D01*
G01*
G37*
%TD.AperFunction*%
%TA.AperFunction,SMDPad,CuDef*%
G36*
G01*
X14050000Y50662500D02*
X14050000Y50187500D01*
G75*
G02*
X13812500Y49950000I-237500J0D01*
G01*
X13237500Y49950000D01*
G75*
G02*
X13000000Y50187500I0J237500D01*
G01*
X13000000Y50662500D01*
G75*
G02*
X13237500Y50900000I237500J0D01*
G01*
X13812500Y50900000D01*
G75*
G02*
X14050000Y50662500I0J-237500D01*
G01*
G37*
%TD.AperFunction*%
%TA.AperFunction,SMDPad,CuDef*%
G36*
G01*
X15800000Y50662500D02*
X15800000Y50187500D01*
G75*
G02*
X15562500Y49950000I-237500J0D01*
G01*
X14987500Y49950000D01*
G75*
G02*
X14750000Y50187500I0J237500D01*
G01*
X14750000Y50662500D01*
G75*
G02*
X14987500Y50900000I237500J0D01*
G01*
X15562500Y50900000D01*
G75*
G02*
X15800000Y50662500I0J-237500D01*
G01*
G37*
%TD.AperFunction*%
%TA.AperFunction,SMDPad,CuDef*%
G36*
G01*
X20125000Y44937500D02*
X20125000Y45412500D01*
G75*
G02*
X20362500Y45650000I237500J0D01*
G01*
X20937500Y45650000D01*
G75*
G02*
X21175000Y45412500I0J-237500D01*
G01*
X21175000Y44937500D01*
G75*
G02*
X20937500Y44700000I-237500J0D01*
G01*
X20362500Y44700000D01*
G75*
G02*
X20125000Y44937500I0J237500D01*
G01*
G37*
%TD.AperFunction*%
%TA.AperFunction,SMDPad,CuDef*%
G36*
G01*
X21875000Y44937500D02*
X21875000Y45412500D01*
G75*
G02*
X22112500Y45650000I237500J0D01*
G01*
X22687500Y45650000D01*
G75*
G02*
X22925000Y45412500I0J-237500D01*
G01*
X22925000Y44937500D01*
G75*
G02*
X22687500Y44700000I-237500J0D01*
G01*
X22112500Y44700000D01*
G75*
G02*
X21875000Y44937500I0J237500D01*
G01*
G37*
%TD.AperFunction*%
%TA.AperFunction,SMDPad,CuDef*%
G36*
G01*
X16750000Y2937500D02*
X16750000Y3412500D01*
G75*
G02*
X16987500Y3650000I237500J0D01*
G01*
X17562500Y3650000D01*
G75*
G02*
X17800000Y3412500I0J-237500D01*
G01*
X17800000Y2937500D01*
G75*
G02*
X17562500Y2700000I-237500J0D01*
G01*
X16987500Y2700000D01*
G75*
G02*
X16750000Y2937500I0J237500D01*
G01*
G37*
%TD.AperFunction*%
%TA.AperFunction,SMDPad,CuDef*%
G36*
G01*
X18500000Y2937500D02*
X18500000Y3412500D01*
G75*
G02*
X18737500Y3650000I237500J0D01*
G01*
X19312500Y3650000D01*
G75*
G02*
X19550000Y3412500I0J-237500D01*
G01*
X19550000Y2937500D01*
G75*
G02*
X19312500Y2700000I-237500J0D01*
G01*
X18737500Y2700000D01*
G75*
G02*
X18500000Y2937500I0J237500D01*
G01*
G37*
%TD.AperFunction*%
D14*
X34200000Y20315600D03*
X34200000Y18334400D03*
X34200000Y12284400D03*
X34200000Y14265600D03*
X34200000Y8265600D03*
X34200000Y6284400D03*
X34200000Y48334400D03*
X34200000Y50315600D03*
X34200000Y44290600D03*
X34200000Y42309400D03*
X34200000Y36359400D03*
X34200000Y38340600D03*
X34200000Y32340600D03*
X34200000Y30359400D03*
X34200000Y24309400D03*
X34200000Y26290600D03*
D15*
X9900000Y4525000D03*
X10025000Y46725000D03*
X9900000Y40575000D03*
X9900000Y34675000D03*
X9875000Y22575000D03*
X9900000Y16575000D03*
X9875000Y10575000D03*
X9875000Y28550000D03*
D16*
X34200000Y9000000D03*
X34200000Y15000000D03*
X34200000Y21100000D03*
X34200000Y27100000D03*
X34200000Y33100000D03*
X34200000Y39100000D03*
X34200000Y45000000D03*
X34200000Y51000000D03*
X33100000Y51000000D03*
X35300000Y51000000D03*
X33100000Y45000000D03*
X35300000Y45000000D03*
X33100000Y39100000D03*
X35300000Y39100000D03*
X33100000Y33100000D03*
X35300000Y33100000D03*
X33100000Y27100000D03*
X33100000Y21100000D03*
X35300000Y21100000D03*
X35300000Y27100000D03*
X33100000Y15000000D03*
X35300000Y15000000D03*
X33100000Y9000000D03*
X35300000Y9000000D03*
D15*
X24025000Y3150000D03*
X24025000Y775000D03*
X22375000Y775000D03*
D17*
X2000000Y55000000D03*
X7000000Y55000000D03*
X12000000Y55000000D03*
X17000000Y55000000D03*
X22000000Y55000000D03*
X27000000Y55000000D03*
X32000000Y55000000D03*
X37000000Y55000000D03*
X42000000Y55000000D03*
X42000000Y2000000D03*
X37000000Y2000000D03*
X32000000Y2000000D03*
X27000000Y2000000D03*
D15*
X15200000Y5150000D03*
X22400000Y8725000D03*
X15400000Y10825000D03*
X22400000Y14725000D03*
X15400000Y16825000D03*
X22400000Y20725000D03*
X15400000Y22825000D03*
X22400000Y26725000D03*
X15400000Y28825000D03*
X22400000Y32725000D03*
X15400000Y34875000D03*
X22400000Y38675000D03*
X15400000Y40775000D03*
X22400000Y44725000D03*
X15400000Y46925000D03*
X29425000Y48725000D03*
X15850000Y50425000D03*
X15750000Y44350000D03*
X15700000Y38425000D03*
X15725000Y32375000D03*
X15725000Y26375000D03*
X15700000Y20375000D03*
X15700000Y14375000D03*
X15675000Y8275000D03*
D18*
X10050000Y34875000D02*
X9900000Y35025000D01*
X11400000Y34875000D02*
X10050000Y34875000D01*
X10050000Y40775000D02*
X9925000Y40900000D01*
X11400000Y40775000D02*
X10050000Y40775000D01*
X10175000Y46925000D02*
X10050000Y47050000D01*
X11525000Y46925000D02*
X10175000Y46925000D01*
X10050000Y47050000D02*
X10025000Y47075000D01*
X9925000Y40900000D02*
X9900000Y40925000D01*
X10050000Y28825000D02*
X10050000Y28825000D01*
X11400000Y28825000D02*
X10050000Y28825000D01*
X10050000Y22825000D02*
X9900000Y22975000D01*
X11400000Y22825000D02*
X10050000Y22825000D01*
X10050000Y28825000D02*
X9900000Y28975000D01*
X10050000Y16825000D02*
X9900000Y16975000D01*
X11400000Y16825000D02*
X10050000Y16825000D01*
X10050000Y10825000D02*
X9900000Y10975000D01*
X11400000Y10825000D02*
X10050000Y10825000D01*
X10050000Y4775000D02*
X9900000Y4925000D01*
X11400000Y4775000D02*
X10050000Y4775000D01*
D19*
X31137500Y5350000D02*
X30962500Y5525000D01*
X41785786Y9887980D02*
X41949200Y10059621D01*
X41949200Y10059621D02*
X42103996Y10239072D01*
X42103996Y10239072D02*
X42249801Y10425903D01*
X42249801Y10425903D02*
X42386262Y10619664D01*
X42386262Y10619664D02*
X42513052Y10819886D01*
X42513052Y10819886D02*
X42629864Y11026089D01*
X42629864Y11026089D02*
X42736418Y11237775D01*
X42736418Y11237775D02*
X42832457Y11454435D01*
X42832457Y11454435D02*
X42917749Y11675546D01*
X42917749Y11675546D02*
X42992089Y11900575D01*
X42992089Y11900575D02*
X43055297Y12128982D01*
X43055297Y12128982D02*
X43107222Y12360214D01*
X43107222Y12360214D02*
X43147739Y12593716D01*
X43147739Y12593716D02*
X43176749Y12828925D01*
X43176749Y12828925D02*
X43194183Y13065274D01*
X43194183Y13065274D02*
X43200000Y13302193D01*
X43200000Y13302193D02*
X43200000Y18040000D01*
X35247807Y5350000D02*
X31137500Y5350000D01*
X35247807Y5350000D02*
X35484726Y5355817D01*
X35484726Y5355817D02*
X35721075Y5373251D01*
X35721075Y5373251D02*
X35956284Y5402261D01*
X35956284Y5402261D02*
X36189786Y5442778D01*
X36189786Y5442778D02*
X36421018Y5494703D01*
X36421018Y5494703D02*
X36649425Y5557911D01*
X36649425Y5557911D02*
X36874454Y5632251D01*
X36874454Y5632251D02*
X37095565Y5717543D01*
X37095565Y5717543D02*
X37312225Y5813582D01*
X37312225Y5813582D02*
X37523911Y5920136D01*
X37523911Y5920136D02*
X37730114Y6036948D01*
X37730114Y6036948D02*
X37930336Y6163738D01*
X37930336Y6163738D02*
X38124097Y6300199D01*
X38124097Y6300199D02*
X38310928Y6446004D01*
X38310928Y6446004D02*
X38490379Y6600800D01*
X38490379Y6600800D02*
X38662020Y6764214D01*
X38662020Y6764214D02*
X41785786Y9887980D01*
D20*
X30962500Y8600000D02*
X30962500Y6675000D01*
X30962500Y8600000D02*
X30957684Y8698018D01*
X30957684Y8698018D02*
X30943285Y8795091D01*
X30943285Y8795091D02*
X30919440Y8890285D01*
X30919440Y8890285D02*
X30886379Y8982684D01*
X30886379Y8982684D02*
X30844421Y9071397D01*
X30844421Y9071397D02*
X30793969Y9155571D01*
X30793969Y9155571D02*
X30735510Y9234394D01*
X30735510Y9234394D02*
X30669606Y9307107D01*
X30669606Y9307107D02*
X30596893Y9373011D01*
X30596893Y9373011D02*
X30518070Y9431470D01*
X30518070Y9431470D02*
X30433896Y9481922D01*
X30433896Y9481922D02*
X30345183Y9523880D01*
X30345183Y9523880D02*
X30252784Y9556941D01*
X30252784Y9556941D02*
X30157590Y9580786D01*
X30157590Y9580786D02*
X30060517Y9595185D01*
X30060517Y9595185D02*
X29962500Y9600000D01*
X29962500Y9600000D02*
X22400000Y9600000D01*
D19*
X31137500Y11350000D02*
X30962500Y11525000D01*
X40954815Y19678018D02*
X40950000Y19580000D01*
X40969214Y19775091D02*
X40954815Y19678018D01*
X41394429Y20411470D02*
X41315606Y20353011D01*
X40993059Y19870285D02*
X40969214Y19775091D01*
X41950000Y20580000D02*
X41851982Y20575185D01*
X41851982Y20575185D02*
X41754909Y20560786D01*
X41176989Y20214394D02*
X41118530Y20135571D01*
X41754909Y20560786D02*
X41659715Y20536941D01*
X41026120Y19962684D02*
X40993059Y19870285D01*
X41478603Y20461922D02*
X41394429Y20411470D01*
X41659715Y20536941D02*
X41567316Y20503880D01*
X41567316Y20503880D02*
X41478603Y20461922D01*
X43200000Y20580000D02*
X41950000Y20580000D01*
X41068078Y20051397D02*
X41026120Y19962684D01*
X41315606Y20353011D02*
X41242893Y20287107D01*
X41242893Y20287107D02*
X41176989Y20214394D01*
X41118530Y20135571D02*
X41068078Y20051397D01*
X38950000Y11350000D02*
X31137500Y11350000D01*
X38950000Y11350000D02*
X39146034Y11359631D01*
X39146034Y11359631D02*
X39340180Y11388430D01*
X39340180Y11388430D02*
X39530569Y11436120D01*
X39530569Y11436120D02*
X39715366Y11502241D01*
X39715366Y11502241D02*
X39892793Y11586158D01*
X39892793Y11586158D02*
X40061140Y11687061D01*
X40061140Y11687061D02*
X40218786Y11803980D01*
X40218786Y11803980D02*
X40364213Y11935787D01*
X40364213Y11935787D02*
X40496020Y12081214D01*
X40496020Y12081214D02*
X40612939Y12238860D01*
X40612939Y12238860D02*
X40713842Y12407207D01*
X40713842Y12407207D02*
X40797759Y12584634D01*
X40797759Y12584634D02*
X40863880Y12769431D01*
X40863880Y12769431D02*
X40911570Y12959820D01*
X40911570Y12959820D02*
X40940369Y13153966D01*
X40940369Y13153966D02*
X40950000Y13350000D01*
X40950000Y13350000D02*
X40950000Y19580000D01*
D20*
X30962500Y14625000D02*
X30962500Y12675000D01*
X30962500Y14625000D02*
X30957684Y14723018D01*
X30957684Y14723018D02*
X30943285Y14820091D01*
X30943285Y14820091D02*
X30919440Y14915285D01*
X30919440Y14915285D02*
X30886379Y15007684D01*
X30886379Y15007684D02*
X30844421Y15096397D01*
X30844421Y15096397D02*
X30793969Y15180571D01*
X30793969Y15180571D02*
X30735510Y15259394D01*
X30735510Y15259394D02*
X30669606Y15332107D01*
X30669606Y15332107D02*
X30596893Y15398011D01*
X30596893Y15398011D02*
X30518070Y15456470D01*
X30518070Y15456470D02*
X30433896Y15506922D01*
X30433896Y15506922D02*
X30345183Y15548880D01*
X30345183Y15548880D02*
X30252784Y15581941D01*
X30252784Y15581941D02*
X30157590Y15605786D01*
X30157590Y15605786D02*
X30060517Y15620185D01*
X30060517Y15620185D02*
X29962500Y15625000D01*
X29962500Y15625000D02*
X22400000Y15625000D01*
D19*
X31087500Y17400000D02*
X30962500Y17525000D01*
X35100000Y17400000D02*
X31087500Y17400000D01*
X35100000Y17400000D02*
X35218459Y17402909D01*
X35218459Y17402909D02*
X35336634Y17411626D01*
X35336634Y17411626D02*
X35454238Y17426131D01*
X35454238Y17426131D02*
X35570989Y17446389D01*
X35570989Y17446389D02*
X35686605Y17472352D01*
X35686605Y17472352D02*
X35800808Y17503956D01*
X35800808Y17503956D02*
X35913323Y17541126D01*
X35913323Y17541126D02*
X36023879Y17583772D01*
X36023879Y17583772D02*
X36132208Y17631791D01*
X36132208Y17631791D02*
X36238051Y17685068D01*
X36238051Y17685068D02*
X36341153Y17743475D01*
X36341153Y17743475D02*
X36441264Y17806869D01*
X36441264Y17806869D02*
X36538144Y17875100D01*
X36538144Y17875100D02*
X36631559Y17948002D01*
X36631559Y17948002D02*
X36721285Y18025400D01*
X36721285Y18025400D02*
X36807106Y18107107D01*
X42820000Y23120000D02*
X43200000Y23120000D01*
X42820000Y23120000D02*
X42701540Y23117093D01*
X42701540Y23117093D02*
X42583365Y23108376D01*
X42583365Y23108376D02*
X42465761Y23093871D01*
X42465761Y23093871D02*
X42349010Y23073613D01*
X42349010Y23073613D02*
X42233393Y23047650D01*
X42233393Y23047650D02*
X42119190Y23016046D01*
X42119190Y23016046D02*
X42006675Y22978876D01*
X42006675Y22978876D02*
X41896120Y22936230D01*
X41896120Y22936230D02*
X41787790Y22888211D01*
X41787790Y22888211D02*
X41681947Y22834934D01*
X41681947Y22834934D02*
X41578846Y22776528D01*
X41578846Y22776528D02*
X41478734Y22713133D01*
X41478734Y22713133D02*
X41381854Y22644902D01*
X41381854Y22644902D02*
X41288438Y22572000D01*
X41288438Y22572000D02*
X41198713Y22494602D01*
X41198713Y22494602D02*
X41112893Y22412894D01*
X41112893Y22412894D02*
X36807106Y18107107D01*
D20*
X30962500Y20775000D02*
X30962500Y18725000D01*
X30962500Y20775000D02*
X30957684Y20873018D01*
X30957684Y20873018D02*
X30943285Y20970091D01*
X30943285Y20970091D02*
X30919440Y21065285D01*
X30919440Y21065285D02*
X30886379Y21157684D01*
X30886379Y21157684D02*
X30844421Y21246397D01*
X30844421Y21246397D02*
X30793969Y21330571D01*
X30793969Y21330571D02*
X30735510Y21409394D01*
X30735510Y21409394D02*
X30669606Y21482107D01*
X30669606Y21482107D02*
X30596893Y21548011D01*
X30596893Y21548011D02*
X30518070Y21606470D01*
X30518070Y21606470D02*
X30433896Y21656922D01*
X30433896Y21656922D02*
X30345183Y21698880D01*
X30345183Y21698880D02*
X30252784Y21731941D01*
X30252784Y21731941D02*
X30157590Y21755786D01*
X30157590Y21755786D02*
X30060517Y21770185D01*
X30060517Y21770185D02*
X29962500Y21775000D01*
X29962500Y21775000D02*
X22425000Y21775000D01*
D19*
X31137500Y23350000D02*
X30962500Y23525000D01*
X36900000Y23350000D02*
X31137500Y23350000D01*
X36900000Y23350000D02*
X37018459Y23352909D01*
X37018459Y23352909D02*
X37136634Y23361626D01*
X37136634Y23361626D02*
X37254238Y23376131D01*
X37254238Y23376131D02*
X37370989Y23396389D01*
X37370989Y23396389D02*
X37486605Y23422352D01*
X37486605Y23422352D02*
X37600808Y23453956D01*
X37600808Y23453956D02*
X37713323Y23491126D01*
X37713323Y23491126D02*
X37823879Y23533772D01*
X37823879Y23533772D02*
X37932208Y23581791D01*
X37932208Y23581791D02*
X38038051Y23635068D01*
X38038051Y23635068D02*
X38141153Y23693475D01*
X38141153Y23693475D02*
X38241264Y23756869D01*
X38241264Y23756869D02*
X38338144Y23825100D01*
X38338144Y23825100D02*
X38431559Y23898002D01*
X38431559Y23898002D02*
X38521285Y23975400D01*
X38521285Y23975400D02*
X38607106Y24057107D01*
X41210000Y25660000D02*
X43200000Y25660000D01*
X41210000Y25660000D02*
X41091540Y25657093D01*
X41091540Y25657093D02*
X40973365Y25648376D01*
X40973365Y25648376D02*
X40855761Y25633871D01*
X40855761Y25633871D02*
X40739009Y25613613D01*
X40739009Y25613613D02*
X40623393Y25587650D01*
X40623393Y25587650D02*
X40509190Y25556046D01*
X40509190Y25556046D02*
X40396675Y25518876D01*
X40396675Y25518876D02*
X40286119Y25476230D01*
X40286119Y25476230D02*
X40177789Y25428211D01*
X40177789Y25428211D02*
X40071946Y25374934D01*
X40071946Y25374934D02*
X39968845Y25316528D01*
X39968845Y25316528D02*
X39868733Y25253133D01*
X39868733Y25253133D02*
X39771853Y25184903D01*
X39771853Y25184903D02*
X39678437Y25112000D01*
X39678437Y25112000D02*
X39588711Y25034602D01*
X39588711Y25034602D02*
X39502892Y24952894D01*
X39502892Y24952894D02*
X38607106Y24057107D01*
D20*
X30962500Y26600000D02*
X30962500Y24675000D01*
X30962500Y26600000D02*
X30957684Y26698018D01*
X30957684Y26698018D02*
X30943285Y26795091D01*
X30943285Y26795091D02*
X30919440Y26890285D01*
X30919440Y26890285D02*
X30886379Y26982684D01*
X30886379Y26982684D02*
X30844421Y27071397D01*
X30844421Y27071397D02*
X30793969Y27155571D01*
X30793969Y27155571D02*
X30735510Y27234394D01*
X30735510Y27234394D02*
X30669606Y27307107D01*
X30669606Y27307107D02*
X30596893Y27373011D01*
X30596893Y27373011D02*
X30518070Y27431470D01*
X30518070Y27431470D02*
X30433896Y27481922D01*
X30433896Y27481922D02*
X30345183Y27523880D01*
X30345183Y27523880D02*
X30252784Y27556941D01*
X30252784Y27556941D02*
X30157590Y27580786D01*
X30157590Y27580786D02*
X30060517Y27595185D01*
X30060517Y27595185D02*
X29962500Y27600000D01*
X29962500Y27600000D02*
X22400000Y27600000D01*
D19*
X32137500Y29550000D02*
X30962500Y30725000D01*
X35000000Y29550000D02*
X32137500Y29550000D01*
X35000000Y29550000D02*
X35059229Y29548546D01*
X35059229Y29548546D02*
X35118317Y29544188D01*
X35118317Y29544188D02*
X35177119Y29536935D01*
X35177119Y29536935D02*
X35235494Y29526806D01*
X35235494Y29526806D02*
X35293302Y29513825D01*
X35293302Y29513825D02*
X35350404Y29498023D01*
X35350404Y29498023D02*
X35406661Y29479438D01*
X35406661Y29479438D02*
X35461939Y29458115D01*
X35461939Y29458115D02*
X35516104Y29434105D01*
X35516104Y29434105D02*
X35569025Y29407467D01*
X35569025Y29407467D02*
X35620576Y29378264D01*
X35620576Y29378264D02*
X35670632Y29346566D01*
X35670632Y29346566D02*
X35719072Y29312451D01*
X35719072Y29312451D02*
X35765779Y29276000D01*
X35765779Y29276000D02*
X35810642Y29237301D01*
X35810642Y29237301D02*
X35853553Y29196447D01*
X37350000Y28200000D02*
X43200000Y28200000D01*
X37350000Y28200000D02*
X37290770Y28201455D01*
X37290770Y28201455D02*
X37231682Y28205813D01*
X37231682Y28205813D02*
X37172880Y28213066D01*
X37172880Y28213066D02*
X37114504Y28223195D01*
X37114504Y28223195D02*
X37056696Y28236176D01*
X37056696Y28236176D02*
X36999595Y28251978D01*
X36999595Y28251978D02*
X36943337Y28270563D01*
X36943337Y28270563D02*
X36888059Y28291886D01*
X36888059Y28291886D02*
X36833894Y28315896D01*
X36833894Y28315896D02*
X36780973Y28342534D01*
X36780973Y28342534D02*
X36729422Y28371737D01*
X36729422Y28371737D02*
X36679366Y28403435D01*
X36679366Y28403435D02*
X36630926Y28437550D01*
X36630926Y28437550D02*
X36584218Y28474001D01*
X36584218Y28474001D02*
X36539355Y28512700D01*
X36539355Y28512700D02*
X36496446Y28553554D01*
X36496446Y28553554D02*
X35853553Y29196447D01*
D20*
X30962500Y32625000D02*
X30962500Y30725000D01*
X30962500Y32625000D02*
X30957684Y32723018D01*
X30957684Y32723018D02*
X30943285Y32820091D01*
X30943285Y32820091D02*
X30919440Y32915285D01*
X30919440Y32915285D02*
X30886379Y33007684D01*
X30886379Y33007684D02*
X30844421Y33096397D01*
X30844421Y33096397D02*
X30793969Y33180571D01*
X30793969Y33180571D02*
X30735510Y33259394D01*
X30735510Y33259394D02*
X30669606Y33332107D01*
X30669606Y33332107D02*
X30596893Y33398011D01*
X30596893Y33398011D02*
X30518070Y33456470D01*
X30518070Y33456470D02*
X30433896Y33506922D01*
X30433896Y33506922D02*
X30345183Y33548880D01*
X30345183Y33548880D02*
X30252784Y33581941D01*
X30252784Y33581941D02*
X30157590Y33605786D01*
X30157590Y33605786D02*
X30060517Y33620185D01*
X30060517Y33620185D02*
X29962500Y33625000D01*
X29962500Y33625000D02*
X22400000Y33625000D01*
D19*
X34200000Y35375000D02*
X30962500Y35375000D01*
X34800000Y35375000D02*
X34200000Y35375000D01*
X35225000Y35375000D02*
X34200000Y35375000D01*
X35225000Y35375000D02*
X35421034Y35365370D01*
X35421034Y35365370D02*
X35615180Y35336571D01*
X35615180Y35336571D02*
X35805569Y35288881D01*
X35805569Y35288881D02*
X35990366Y35222760D01*
X35990366Y35222760D02*
X36167793Y35138843D01*
X36167793Y35138843D02*
X36336140Y35037940D01*
X36336140Y35037940D02*
X36493786Y34921021D01*
X36493786Y34921021D02*
X36639213Y34789214D01*
X36639213Y34789214D02*
X36771020Y34643787D01*
X36771020Y34643787D02*
X36887939Y34486141D01*
X36887939Y34486141D02*
X36988842Y34317794D01*
X36988842Y34317794D02*
X37072759Y34140367D01*
X37072759Y34140367D02*
X37138880Y33955570D01*
X37138880Y33955570D02*
X37186570Y33765181D01*
X37186570Y33765181D02*
X37215369Y33571035D01*
X37215369Y33571035D02*
X37225000Y33375000D01*
X38225000Y30740000D02*
X43200000Y30740000D01*
X38225000Y30740000D02*
X38126982Y30744816D01*
X38126982Y30744816D02*
X38029909Y30759215D01*
X38029909Y30759215D02*
X37934715Y30783060D01*
X37934715Y30783060D02*
X37842316Y30816121D01*
X37842316Y30816121D02*
X37753603Y30858079D01*
X37753603Y30858079D02*
X37669429Y30908531D01*
X37669429Y30908531D02*
X37590606Y30966990D01*
X37590606Y30966990D02*
X37517893Y31032894D01*
X37517893Y31032894D02*
X37451989Y31105607D01*
X37451989Y31105607D02*
X37393530Y31184430D01*
X37393530Y31184430D02*
X37343078Y31268604D01*
X37343078Y31268604D02*
X37301120Y31357317D01*
X37301120Y31357317D02*
X37268059Y31449716D01*
X37268059Y31449716D02*
X37244214Y31544910D01*
X37244214Y31544910D02*
X37229815Y31641983D01*
X37229815Y31641983D02*
X37225000Y31740000D01*
X37225000Y31740000D02*
X37225000Y33375000D01*
D20*
X30962500Y38575000D02*
X30962500Y36725000D01*
X30962500Y38575000D02*
X30957684Y38673018D01*
X30957684Y38673018D02*
X30943285Y38770091D01*
X30943285Y38770091D02*
X30919440Y38865285D01*
X30919440Y38865285D02*
X30886379Y38957684D01*
X30886379Y38957684D02*
X30844421Y39046397D01*
X30844421Y39046397D02*
X30793969Y39130571D01*
X30793969Y39130571D02*
X30735510Y39209394D01*
X30735510Y39209394D02*
X30669606Y39282107D01*
X30669606Y39282107D02*
X30596893Y39348011D01*
X30596893Y39348011D02*
X30518070Y39406470D01*
X30518070Y39406470D02*
X30433896Y39456922D01*
X30433896Y39456922D02*
X30345183Y39498880D01*
X30345183Y39498880D02*
X30252784Y39531941D01*
X30252784Y39531941D02*
X30157590Y39555786D01*
X30157590Y39555786D02*
X30060517Y39570185D01*
X30060517Y39570185D02*
X29962500Y39575000D01*
X29962500Y39575000D02*
X22400000Y39575000D01*
D19*
X30962500Y41550000D02*
X31162500Y41350000D01*
X36575000Y41350000D02*
X31162500Y41350000D01*
X36575000Y41350000D02*
X36771034Y41340370D01*
X36771034Y41340370D02*
X36965180Y41311571D01*
X36965180Y41311571D02*
X37155569Y41263881D01*
X37155569Y41263881D02*
X37340366Y41197760D01*
X37340366Y41197760D02*
X37517793Y41113843D01*
X37517793Y41113843D02*
X37686140Y41012940D01*
X37686140Y41012940D02*
X37843786Y40896021D01*
X37843786Y40896021D02*
X37989213Y40764214D01*
X37989213Y40764214D02*
X38121020Y40618787D01*
X38121020Y40618787D02*
X38237939Y40461141D01*
X38237939Y40461141D02*
X38338842Y40292794D01*
X38338842Y40292794D02*
X38422759Y40115367D01*
X38422759Y40115367D02*
X38488880Y39930570D01*
X38488880Y39930570D02*
X38536570Y39740181D01*
X38536570Y39740181D02*
X38565369Y39546035D01*
X38565369Y39546035D02*
X38575000Y39350000D01*
X39575000Y33280000D02*
X43200000Y33280000D01*
X39575000Y33280000D02*
X39476982Y33284816D01*
X39476982Y33284816D02*
X39379909Y33299215D01*
X39379909Y33299215D02*
X39284715Y33323060D01*
X39284715Y33323060D02*
X39192316Y33356121D01*
X39192316Y33356121D02*
X39103603Y33398079D01*
X39103603Y33398079D02*
X39019429Y33448531D01*
X39019429Y33448531D02*
X38940606Y33506990D01*
X38940606Y33506990D02*
X38867893Y33572894D01*
X38867893Y33572894D02*
X38801989Y33645607D01*
X38801989Y33645607D02*
X38743530Y33724430D01*
X38743530Y33724430D02*
X38693078Y33808604D01*
X38693078Y33808604D02*
X38651120Y33897317D01*
X38651120Y33897317D02*
X38618059Y33989716D01*
X38618059Y33989716D02*
X38594214Y34084910D01*
X38594214Y34084910D02*
X38579815Y34181983D01*
X38579815Y34181983D02*
X38575000Y34280000D01*
X38575000Y34280000D02*
X38575000Y39350000D01*
D20*
X30962500Y44750000D02*
X30962500Y42675000D01*
X30962500Y44750000D02*
X30957684Y44848018D01*
X30957684Y44848018D02*
X30943285Y44945091D01*
X30943285Y44945091D02*
X30919440Y45040285D01*
X30919440Y45040285D02*
X30886379Y45132684D01*
X30886379Y45132684D02*
X30844421Y45221397D01*
X30844421Y45221397D02*
X30793969Y45305571D01*
X30793969Y45305571D02*
X30735510Y45384394D01*
X30735510Y45384394D02*
X30669606Y45457107D01*
X30669606Y45457107D02*
X30596893Y45523011D01*
X30596893Y45523011D02*
X30518070Y45581470D01*
X30518070Y45581470D02*
X30433896Y45631922D01*
X30433896Y45631922D02*
X30345183Y45673880D01*
X30345183Y45673880D02*
X30252784Y45706941D01*
X30252784Y45706941D02*
X30157590Y45730786D01*
X30157590Y45730786D02*
X30060517Y45745185D01*
X30060517Y45745185D02*
X29962500Y45750000D01*
X29962500Y45750000D02*
X22400000Y45750000D01*
D19*
X31187500Y47400000D02*
X30962500Y47625000D01*
X40075000Y45400000D02*
X40065369Y45596035D01*
X40065369Y45596035D02*
X40036570Y45790181D01*
X40036570Y45790181D02*
X39988880Y45980570D01*
X39988880Y45980570D02*
X39922759Y46165367D01*
X39922759Y46165367D02*
X39838842Y46342794D01*
X39838842Y46342794D02*
X39737939Y46511141D01*
X39737939Y46511141D02*
X39621020Y46668787D01*
X39621020Y46668787D02*
X39489213Y46814214D01*
X39489213Y46814214D02*
X39343786Y46946021D01*
X39343786Y46946021D02*
X39186140Y47062940D01*
X39186140Y47062940D02*
X39017793Y47163843D01*
X39017793Y47163843D02*
X38840366Y47247760D01*
X38840366Y47247760D02*
X38655569Y47313881D01*
X38655569Y47313881D02*
X38465180Y47361571D01*
X38465180Y47361571D02*
X38271034Y47390370D01*
X38271034Y47390370D02*
X38075000Y47400000D01*
X38075000Y47400000D02*
X31187500Y47400000D01*
X41075000Y35820000D02*
X43200000Y35820000D01*
X41075000Y35820000D02*
X40976982Y35824816D01*
X40976982Y35824816D02*
X40879909Y35839215D01*
X40879909Y35839215D02*
X40784715Y35863060D01*
X40784715Y35863060D02*
X40692316Y35896121D01*
X40692316Y35896121D02*
X40603603Y35938079D01*
X40603603Y35938079D02*
X40519429Y35988531D01*
X40519429Y35988531D02*
X40440606Y36046990D01*
X40440606Y36046990D02*
X40367893Y36112894D01*
X40367893Y36112894D02*
X40301989Y36185607D01*
X40301989Y36185607D02*
X40243530Y36264430D01*
X40243530Y36264430D02*
X40193078Y36348604D01*
X40193078Y36348604D02*
X40151120Y36437317D01*
X40151120Y36437317D02*
X40118059Y36529716D01*
X40118059Y36529716D02*
X40094214Y36624910D01*
X40094214Y36624910D02*
X40079815Y36721983D01*
X40079815Y36721983D02*
X40075000Y36820000D01*
X40075000Y36820000D02*
X40075000Y45400000D01*
D21*
X29425000Y48725000D02*
X30962500Y48725000D01*
D18*
X11400000Y24725000D02*
X9900000Y24725000D01*
X9668553Y24956447D02*
X9900000Y24725000D01*
X9668553Y24956447D02*
X9625642Y24997301D01*
X9625642Y24997301D02*
X9580780Y25036000D01*
X9580780Y25036000D02*
X9534072Y25072451D01*
X9534072Y25072451D02*
X9485632Y25106567D01*
X9485632Y25106567D02*
X9435576Y25138264D01*
X9435576Y25138264D02*
X9384025Y25167467D01*
X9384025Y25167467D02*
X9331104Y25194106D01*
X9331104Y25194106D02*
X9276939Y25218115D01*
X9276939Y25218115D02*
X9221661Y25239438D01*
X9221661Y25239438D02*
X9165404Y25258023D01*
X9165404Y25258023D02*
X9108302Y25273825D01*
X9108302Y25273825D02*
X9050494Y25286807D01*
X9050494Y25286807D02*
X8992119Y25296936D01*
X8992119Y25296936D02*
X8933317Y25304188D01*
X8933317Y25304188D02*
X8874229Y25308547D01*
X8874229Y25308547D02*
X8815000Y25310000D01*
X8815000Y25310000D02*
X1400000Y25310000D01*
X13400000Y23775000D02*
X13400000Y26375000D01*
X11400000Y18725000D02*
X9900000Y18725000D01*
X7900000Y19725000D02*
X7904815Y19626983D01*
X7904815Y19626983D02*
X7919214Y19529910D01*
X7919214Y19529910D02*
X7943059Y19434716D01*
X7943059Y19434716D02*
X7976120Y19342317D01*
X7976120Y19342317D02*
X8018078Y19253604D01*
X8018078Y19253604D02*
X8068530Y19169430D01*
X8068530Y19169430D02*
X8126989Y19090607D01*
X8126989Y19090607D02*
X8192893Y19017894D01*
X8192893Y19017894D02*
X8265606Y18951990D01*
X8265606Y18951990D02*
X8344429Y18893531D01*
X8344429Y18893531D02*
X8428603Y18843079D01*
X8428603Y18843079D02*
X8517316Y18801121D01*
X8517316Y18801121D02*
X8609715Y18768060D01*
X8609715Y18768060D02*
X8704909Y18744215D01*
X8704909Y18744215D02*
X8801982Y18729816D01*
X8801982Y18729816D02*
X8900000Y18725000D01*
X8900000Y18725000D02*
X9900000Y18725000D01*
X6900000Y22770000D02*
X1400000Y22770000D01*
X6900000Y22770000D02*
X6998017Y22765185D01*
X6998017Y22765185D02*
X7095090Y22750786D01*
X7095090Y22750786D02*
X7190284Y22726941D01*
X7190284Y22726941D02*
X7282683Y22693880D01*
X7282683Y22693880D02*
X7371396Y22651922D01*
X7371396Y22651922D02*
X7455570Y22601470D01*
X7455570Y22601470D02*
X7534393Y22543011D01*
X7534393Y22543011D02*
X7607106Y22477107D01*
X7607106Y22477107D02*
X7673010Y22404394D01*
X7673010Y22404394D02*
X7731469Y22325571D01*
X7731469Y22325571D02*
X7781921Y22241397D01*
X7781921Y22241397D02*
X7823879Y22152684D01*
X7823879Y22152684D02*
X7856940Y22060285D01*
X7856940Y22060285D02*
X7880785Y21965091D01*
X7880785Y21965091D02*
X7895184Y21868018D01*
X7895184Y21868018D02*
X7900000Y21770000D01*
X7900000Y21770000D02*
X7900000Y19725000D01*
X13400000Y17775000D02*
X13400000Y20375000D01*
X11400000Y12725000D02*
X9900000Y12725000D01*
X6625000Y13725000D02*
X6629815Y13626983D01*
X6629815Y13626983D02*
X6644214Y13529910D01*
X6644214Y13529910D02*
X6668059Y13434716D01*
X6668059Y13434716D02*
X6701120Y13342317D01*
X6701120Y13342317D02*
X6743078Y13253604D01*
X6743078Y13253604D02*
X6793530Y13169430D01*
X6793530Y13169430D02*
X6851989Y13090607D01*
X6851989Y13090607D02*
X6917893Y13017894D01*
X6917893Y13017894D02*
X6990606Y12951990D01*
X6990606Y12951990D02*
X7069429Y12893531D01*
X7069429Y12893531D02*
X7153603Y12843079D01*
X7153603Y12843079D02*
X7242316Y12801121D01*
X7242316Y12801121D02*
X7334715Y12768060D01*
X7334715Y12768060D02*
X7429909Y12744215D01*
X7429909Y12744215D02*
X7526982Y12729816D01*
X7526982Y12729816D02*
X7625000Y12725000D01*
X7625000Y12725000D02*
X9900000Y12725000D01*
X5625000Y20230000D02*
X1400000Y20230000D01*
X5625000Y20230000D02*
X5723017Y20225185D01*
X5723017Y20225185D02*
X5820090Y20210786D01*
X5820090Y20210786D02*
X5915284Y20186941D01*
X5915284Y20186941D02*
X6007683Y20153880D01*
X6007683Y20153880D02*
X6096396Y20111922D01*
X6096396Y20111922D02*
X6180570Y20061470D01*
X6180570Y20061470D02*
X6259393Y20003011D01*
X6259393Y20003011D02*
X6332106Y19937107D01*
X6332106Y19937107D02*
X6398010Y19864394D01*
X6398010Y19864394D02*
X6456469Y19785571D01*
X6456469Y19785571D02*
X6506921Y19701397D01*
X6506921Y19701397D02*
X6548879Y19612684D01*
X6548879Y19612684D02*
X6581940Y19520285D01*
X6581940Y19520285D02*
X6605785Y19425091D01*
X6605785Y19425091D02*
X6620184Y19328018D01*
X6620184Y19328018D02*
X6625000Y19230000D01*
X6625000Y19230000D02*
X6625000Y13725000D01*
X13400000Y11775000D02*
X13400000Y14375000D01*
X11400000Y6675000D02*
X9900000Y6675000D01*
X2107106Y14467894D02*
X9900000Y6675000D01*
X2107106Y14467894D02*
X2025398Y14553715D01*
X2025398Y14553715D02*
X1948000Y14643440D01*
X1948000Y14643440D02*
X1875098Y14736856D01*
X1875098Y14736856D02*
X1806867Y14833736D01*
X1806867Y14833736D02*
X1743472Y14933847D01*
X1743472Y14933847D02*
X1685066Y15036949D01*
X1685066Y15036949D02*
X1631789Y15142792D01*
X1631789Y15142792D02*
X1583770Y15251121D01*
X1583770Y15251121D02*
X1541124Y15361677D01*
X1541124Y15361677D02*
X1503954Y15474192D01*
X1503954Y15474192D02*
X1472350Y15588395D01*
X1472350Y15588395D02*
X1446387Y15704011D01*
X1446387Y15704011D02*
X1426129Y15820762D01*
X1426129Y15820762D02*
X1411624Y15938366D01*
X1411624Y15938366D02*
X1402907Y16056541D01*
X1402907Y16056541D02*
X1400000Y16175000D01*
X1400000Y16175000D02*
X1400000Y17690000D01*
X13400000Y8275000D02*
X13400000Y5725000D01*
X17025000Y26350000D02*
X17050000Y26375000D01*
X17025000Y23775000D02*
X17025000Y26350000D01*
X17025000Y20350000D02*
X17050000Y20375000D01*
X17025000Y17775000D02*
X17025000Y20350000D01*
X17025000Y14350000D02*
X17050000Y14375000D01*
X17025000Y11775000D02*
X17025000Y14350000D01*
X17200000Y3250000D02*
X17275000Y3175000D01*
X17200000Y5725000D02*
X17200000Y3250000D01*
D21*
X19700000Y23775000D02*
X22400000Y23775000D01*
X19700000Y17775000D02*
X22400000Y17775000D01*
X19700000Y11775000D02*
X22400000Y11775000D01*
X22400000Y5775000D02*
X19700000Y5775000D01*
D18*
X13525000Y47875000D02*
X13525000Y50425000D01*
X11525000Y48825000D02*
X10025000Y48825000D01*
X1400000Y35470000D02*
X1405000Y35475000D01*
X4450000Y36475000D02*
X4445184Y36376983D01*
X4445184Y36376983D02*
X4430785Y36279910D01*
X4430785Y36279910D02*
X4406940Y36184716D01*
X4406940Y36184716D02*
X4373879Y36092317D01*
X4373879Y36092317D02*
X4331921Y36003604D01*
X4331921Y36003604D02*
X4281469Y35919430D01*
X4281469Y35919430D02*
X4223010Y35840607D01*
X4223010Y35840607D02*
X4157106Y35767894D01*
X4157106Y35767894D02*
X4084393Y35701990D01*
X4084393Y35701990D02*
X4005570Y35643531D01*
X4005570Y35643531D02*
X3921396Y35593079D01*
X3921396Y35593079D02*
X3832683Y35551121D01*
X3832683Y35551121D02*
X3740284Y35518060D01*
X3740284Y35518060D02*
X3645090Y35494215D01*
X3645090Y35494215D02*
X3548017Y35479816D01*
X3548017Y35479816D02*
X3450000Y35475000D01*
X3450000Y35475000D02*
X1405000Y35475000D01*
X5450000Y44275000D02*
X5351982Y44270185D01*
X5351982Y44270185D02*
X5254909Y44255786D01*
X5254909Y44255786D02*
X5159715Y44231941D01*
X5159715Y44231941D02*
X5067316Y44198880D01*
X5067316Y44198880D02*
X4978603Y44156922D01*
X4978603Y44156922D02*
X4894429Y44106470D01*
X4894429Y44106470D02*
X4815606Y44048011D01*
X4815606Y44048011D02*
X4742893Y43982107D01*
X4742893Y43982107D02*
X4676989Y43909394D01*
X4676989Y43909394D02*
X4618530Y43830571D01*
X4618530Y43830571D02*
X4568078Y43746397D01*
X4568078Y43746397D02*
X4526120Y43657684D01*
X4526120Y43657684D02*
X4493059Y43565285D01*
X4493059Y43565285D02*
X4469214Y43470091D01*
X4469214Y43470091D02*
X4454815Y43373018D01*
X4454815Y43373018D02*
X4450000Y43275000D01*
X4450000Y43275000D02*
X4450000Y36475000D01*
X8175000Y45275000D02*
X8170184Y45176983D01*
X8170184Y45176983D02*
X8155785Y45079910D01*
X8155785Y45079910D02*
X8131940Y44984716D01*
X8131940Y44984716D02*
X8098879Y44892317D01*
X8098879Y44892317D02*
X8056921Y44803604D01*
X8056921Y44803604D02*
X8006469Y44719430D01*
X8006469Y44719430D02*
X7948010Y44640607D01*
X7948010Y44640607D02*
X7882106Y44567894D01*
X7882106Y44567894D02*
X7809393Y44501990D01*
X7809393Y44501990D02*
X7730570Y44443531D01*
X7730570Y44443531D02*
X7646396Y44393079D01*
X7646396Y44393079D02*
X7557683Y44351121D01*
X7557683Y44351121D02*
X7465284Y44318060D01*
X7465284Y44318060D02*
X7370090Y44294215D01*
X7370090Y44294215D02*
X7273017Y44279816D01*
X7273017Y44279816D02*
X7175000Y44275000D01*
X7175000Y44275000D02*
X5450000Y44275000D01*
X9175000Y48825000D02*
X10025000Y48825000D01*
X9175000Y48825000D02*
X9076982Y48820185D01*
X9076982Y48820185D02*
X8979909Y48805786D01*
X8979909Y48805786D02*
X8884715Y48781941D01*
X8884715Y48781941D02*
X8792316Y48748880D01*
X8792316Y48748880D02*
X8703603Y48706922D01*
X8703603Y48706922D02*
X8619429Y48656470D01*
X8619429Y48656470D02*
X8540606Y48598011D01*
X8540606Y48598011D02*
X8467893Y48532107D01*
X8467893Y48532107D02*
X8401989Y48459394D01*
X8401989Y48459394D02*
X8343530Y48380571D01*
X8343530Y48380571D02*
X8293078Y48296397D01*
X8293078Y48296397D02*
X8251120Y48207684D01*
X8251120Y48207684D02*
X8218059Y48115285D01*
X8218059Y48115285D02*
X8194214Y48020091D01*
X8194214Y48020091D02*
X8179815Y47923018D01*
X8179815Y47923018D02*
X8175000Y47825000D01*
X8175000Y47825000D02*
X8175000Y45275000D01*
X13400000Y41725000D02*
X13400000Y44350000D01*
X11400000Y42675000D02*
X9900000Y42675000D01*
X5800000Y33930000D02*
X5795184Y33831983D01*
X5795184Y33831983D02*
X5780785Y33734910D01*
X5780785Y33734910D02*
X5756940Y33639716D01*
X5756940Y33639716D02*
X5723879Y33547317D01*
X5723879Y33547317D02*
X5681921Y33458604D01*
X5681921Y33458604D02*
X5631469Y33374430D01*
X5631469Y33374430D02*
X5573010Y33295607D01*
X5573010Y33295607D02*
X5507106Y33222894D01*
X5507106Y33222894D02*
X5434393Y33156990D01*
X5434393Y33156990D02*
X5355570Y33098531D01*
X5355570Y33098531D02*
X5271396Y33048079D01*
X5271396Y33048079D02*
X5182683Y33006121D01*
X5182683Y33006121D02*
X5090284Y32973060D01*
X5090284Y32973060D02*
X4995090Y32949215D01*
X4995090Y32949215D02*
X4898017Y32934816D01*
X4898017Y32934816D02*
X4800000Y32930000D01*
X4800000Y32930000D02*
X1400000Y32930000D01*
X6800000Y42700000D02*
X9900000Y42700000D01*
X6800000Y42700000D02*
X6701982Y42695185D01*
X6701982Y42695185D02*
X6604909Y42680786D01*
X6604909Y42680786D02*
X6509715Y42656941D01*
X6509715Y42656941D02*
X6417316Y42623880D01*
X6417316Y42623880D02*
X6328603Y42581922D01*
X6328603Y42581922D02*
X6244429Y42531470D01*
X6244429Y42531470D02*
X6165606Y42473011D01*
X6165606Y42473011D02*
X6092893Y42407107D01*
X6092893Y42407107D02*
X6026989Y42334394D01*
X6026989Y42334394D02*
X5968530Y42255571D01*
X5968530Y42255571D02*
X5918078Y42171397D01*
X5918078Y42171397D02*
X5876120Y42082684D01*
X5876120Y42082684D02*
X5843059Y41990285D01*
X5843059Y41990285D02*
X5819214Y41895091D01*
X5819214Y41895091D02*
X5804815Y41798018D01*
X5804815Y41798018D02*
X5800000Y41700000D01*
X5800000Y41700000D02*
X5800000Y33930000D01*
X13400000Y35825000D02*
X13400000Y38425000D01*
X11400000Y36775000D02*
X9900000Y36775000D01*
X6925000Y31390000D02*
X6920184Y31291983D01*
X6920184Y31291983D02*
X6905785Y31194910D01*
X6905785Y31194910D02*
X6881940Y31099716D01*
X6881940Y31099716D02*
X6848879Y31007317D01*
X6848879Y31007317D02*
X6806921Y30918604D01*
X6806921Y30918604D02*
X6756469Y30834430D01*
X6756469Y30834430D02*
X6698010Y30755607D01*
X6698010Y30755607D02*
X6632106Y30682894D01*
X6632106Y30682894D02*
X6559393Y30616990D01*
X6559393Y30616990D02*
X6480570Y30558531D01*
X6480570Y30558531D02*
X6396396Y30508079D01*
X6396396Y30508079D02*
X6307683Y30466121D01*
X6307683Y30466121D02*
X6215284Y30433060D01*
X6215284Y30433060D02*
X6120090Y30409215D01*
X6120090Y30409215D02*
X6023017Y30394816D01*
X6023017Y30394816D02*
X5925000Y30390000D01*
X5925000Y30390000D02*
X1400000Y30390000D01*
X7925000Y36775000D02*
X9900000Y36775000D01*
X7925000Y36775000D02*
X7826982Y36770185D01*
X7826982Y36770185D02*
X7729909Y36755786D01*
X7729909Y36755786D02*
X7634715Y36731941D01*
X7634715Y36731941D02*
X7542316Y36698880D01*
X7542316Y36698880D02*
X7453603Y36656922D01*
X7453603Y36656922D02*
X7369429Y36606470D01*
X7369429Y36606470D02*
X7290606Y36548011D01*
X7290606Y36548011D02*
X7217893Y36482107D01*
X7217893Y36482107D02*
X7151989Y36409394D01*
X7151989Y36409394D02*
X7093530Y36330571D01*
X7093530Y36330571D02*
X7043078Y36246397D01*
X7043078Y36246397D02*
X7001120Y36157684D01*
X7001120Y36157684D02*
X6968059Y36065285D01*
X6968059Y36065285D02*
X6944214Y35970091D01*
X6944214Y35970091D02*
X6929815Y35873018D01*
X6929815Y35873018D02*
X6925000Y35775000D01*
X6925000Y35775000D02*
X6925000Y31390000D01*
X13400000Y29775000D02*
X13400000Y32375000D01*
X11400000Y30725000D02*
X9900000Y30725000D01*
X7050000Y27850000D02*
X1400000Y27850000D01*
X7050000Y27850000D02*
X7148017Y27854816D01*
X7148017Y27854816D02*
X7245090Y27869215D01*
X7245090Y27869215D02*
X7340284Y27893060D01*
X7340284Y27893060D02*
X7432683Y27926121D01*
X7432683Y27926121D02*
X7521396Y27968079D01*
X7521396Y27968079D02*
X7605570Y28018531D01*
X7605570Y28018531D02*
X7684393Y28076990D01*
X7684393Y28076990D02*
X7757106Y28142894D01*
X7757106Y28142894D02*
X7823010Y28215607D01*
X7823010Y28215607D02*
X7881469Y28294430D01*
X7881469Y28294430D02*
X7931921Y28378604D01*
X7931921Y28378604D02*
X7973879Y28467317D01*
X7973879Y28467317D02*
X8006940Y28559716D01*
X8006940Y28559716D02*
X8030785Y28654910D01*
X8030785Y28654910D02*
X8045184Y28751983D01*
X8045184Y28751983D02*
X8050000Y28850000D01*
X9050000Y30725000D02*
X9900000Y30725000D01*
X9050000Y30725000D02*
X8951982Y30720185D01*
X8951982Y30720185D02*
X8854909Y30705786D01*
X8854909Y30705786D02*
X8759715Y30681941D01*
X8759715Y30681941D02*
X8667316Y30648880D01*
X8667316Y30648880D02*
X8578603Y30606922D01*
X8578603Y30606922D02*
X8494429Y30556470D01*
X8494429Y30556470D02*
X8415606Y30498011D01*
X8415606Y30498011D02*
X8342893Y30432107D01*
X8342893Y30432107D02*
X8276989Y30359394D01*
X8276989Y30359394D02*
X8218530Y30280571D01*
X8218530Y30280571D02*
X8168078Y30196397D01*
X8168078Y30196397D02*
X8126120Y30107684D01*
X8126120Y30107684D02*
X8093059Y30015285D01*
X8093059Y30015285D02*
X8069214Y29920091D01*
X8069214Y29920091D02*
X8054815Y29823018D01*
X8054815Y29823018D02*
X8050000Y29725000D01*
X8050000Y29725000D02*
X8050000Y28850000D01*
D20*
X15000000Y48850000D02*
X15025000Y48825000D01*
D18*
X15275000Y49075000D02*
X15025000Y48825000D01*
X15275000Y50425000D02*
X15275000Y50425000D01*
X15275000Y50425000D02*
X15275000Y49075000D01*
D20*
X15850000Y50425000D02*
X15275000Y50425000D01*
D18*
X17025000Y50400000D02*
X17050000Y50425000D01*
X17025000Y47875000D02*
X17025000Y50400000D01*
X17025000Y44350000D02*
X17050000Y44375000D01*
X17025000Y41725000D02*
X17025000Y44350000D01*
X15025000Y44225000D02*
X15150000Y44350000D01*
X15025000Y42675000D02*
X15025000Y44225000D01*
X15150000Y44350000D02*
X15150000Y44350000D01*
D20*
X15750000Y44350000D02*
X15150000Y44350000D01*
D18*
X17025000Y38400000D02*
X17050000Y38425000D01*
X17025000Y35825000D02*
X17025000Y38400000D01*
X15025000Y38300000D02*
X15100000Y38375000D01*
X15025000Y36775000D02*
X15025000Y38300000D01*
X15100000Y38375000D02*
X15150000Y38425000D01*
D20*
X15700000Y38425000D02*
X15150000Y38425000D01*
D18*
X15025000Y32250000D02*
X15150000Y32375000D01*
X15025000Y30725000D02*
X15025000Y32250000D01*
X15150000Y32375000D02*
X15150000Y32375000D01*
D20*
X15725000Y32375000D02*
X15150000Y32375000D01*
D18*
X17025000Y32350000D02*
X17050000Y32375000D01*
X17025000Y29775000D02*
X17025000Y32350000D01*
D21*
X19700000Y47775000D02*
X22400000Y47775000D01*
X22400000Y48725000D02*
X24987500Y48725000D01*
X19700000Y41725000D02*
X22400000Y41725000D01*
X19700000Y35775000D02*
X22400000Y35775000D01*
X19700000Y29775000D02*
X22400000Y29775000D01*
D18*
X15025000Y26250000D02*
X15025000Y26250000D01*
X15025000Y24725000D02*
X15025000Y26250000D01*
X15025000Y26250000D02*
X15150000Y26375000D01*
D20*
X15725000Y26375000D02*
X15150000Y26375000D01*
D18*
X15025000Y20250000D02*
X15150000Y20375000D01*
X15025000Y18725000D02*
X15025000Y20250000D01*
X15150000Y20375000D02*
X15150000Y20375000D01*
D20*
X15700000Y20375000D02*
X15150000Y20375000D01*
D18*
X15025000Y14250000D02*
X15150000Y14375000D01*
X15025000Y12725000D02*
X15025000Y14250000D01*
X15150000Y14375000D02*
X15150000Y14375000D01*
D20*
X15700000Y14375000D02*
X15150000Y14375000D01*
D18*
X15200000Y8225000D02*
X15150000Y8275000D01*
X15200000Y6675000D02*
X15200000Y8225000D01*
X15200000Y8225000D02*
X15200000Y8225000D01*
D20*
X15150000Y8275000D02*
X15675000Y8275000D01*
D22*
X18750000Y4825000D02*
X19700000Y4825000D01*
X18750000Y4825000D02*
X18700991Y4827408D01*
X18700991Y4827408D02*
X18652454Y4834608D01*
X18652454Y4834608D02*
X18604857Y4846530D01*
X18604857Y4846530D02*
X18558658Y4863061D01*
X18558658Y4863061D02*
X18514301Y4884040D01*
X18514301Y4884040D02*
X18472214Y4909266D01*
X18472214Y4909266D02*
X18432803Y4938495D01*
X18432803Y4938495D02*
X18396446Y4971447D01*
X18396446Y4971447D02*
X18363494Y5007804D01*
X18363494Y5007804D02*
X18334265Y5047215D01*
X18334265Y5047215D02*
X18309039Y5089302D01*
X18309039Y5089302D02*
X18288060Y5133659D01*
X18288060Y5133659D02*
X18271529Y5179858D01*
X18271529Y5179858D02*
X18259607Y5227455D01*
X18259607Y5227455D02*
X18252407Y5275992D01*
X18252407Y5275992D02*
X18250000Y5325000D01*
X18750000Y6725000D02*
X19700000Y6725000D01*
X18750000Y6725000D02*
X18700991Y6722593D01*
X18700991Y6722593D02*
X18652454Y6715393D01*
X18652454Y6715393D02*
X18604857Y6703471D01*
X18604857Y6703471D02*
X18558658Y6686940D01*
X18558658Y6686940D02*
X18514301Y6665961D01*
X18514301Y6665961D02*
X18472214Y6640735D01*
X18472214Y6640735D02*
X18432803Y6611506D01*
X18432803Y6611506D02*
X18396446Y6578554D01*
X18396446Y6578554D02*
X18363494Y6542197D01*
X18363494Y6542197D02*
X18334265Y6502786D01*
X18334265Y6502786D02*
X18309039Y6460699D01*
X18309039Y6460699D02*
X18288060Y6416342D01*
X18288060Y6416342D02*
X18271529Y6370143D01*
X18271529Y6370143D02*
X18259607Y6322546D01*
X18259607Y6322546D02*
X18252407Y6274009D01*
X18252407Y6274009D02*
X18250000Y6225000D01*
X18250000Y6225000D02*
X18250000Y5325000D01*
D19*
X20650000Y3175000D02*
X19025000Y3175000D01*
D21*
X19700000Y4825000D02*
X19700000Y3175000D01*
D23*
X31490251Y50257533D02*
X31545570Y50220570D01*
X31582533Y50165251D01*
X31598000Y50087491D01*
X31598000Y48850000D01*
X31600440Y48825224D01*
X31623276Y48710419D01*
X31630503Y48686594D01*
X31642239Y48664637D01*
X31707271Y48567310D01*
X31723066Y48548065D01*
X31742310Y48532271D01*
X31839637Y48467239D01*
X31861594Y48455503D01*
X31885419Y48448276D01*
X32000224Y48425440D01*
X32025000Y48423000D01*
X35487491Y48423000D01*
X35565251Y48407533D01*
X35620570Y48370570D01*
X35657533Y48315251D01*
X35673000Y48237491D01*
X35673000Y47362509D01*
X35657533Y47284749D01*
X35620570Y47229430D01*
X35565251Y47192467D01*
X35487491Y47177000D01*
X30512509Y47177000D01*
X30434749Y47192467D01*
X30379430Y47229430D01*
X30342467Y47284749D01*
X30327000Y47362509D01*
X30327000Y50087491D01*
X30342467Y50165251D01*
X30379430Y50220570D01*
X30434749Y50257533D01*
X30512509Y50273000D01*
X31412491Y50273000D01*
X31490251Y50257533D01*
%TA.AperFunction,Conductor*%
G36*
X31490251Y50257533D02*
G01*
X31545570Y50220570D01*
X31582533Y50165251D01*
X31598000Y50087491D01*
X31598000Y48850000D01*
X31600440Y48825224D01*
X31623276Y48710419D01*
X31630503Y48686594D01*
X31642239Y48664637D01*
X31707271Y48567310D01*
X31723066Y48548065D01*
X31742310Y48532271D01*
X31839637Y48467239D01*
X31861594Y48455503D01*
X31885419Y48448276D01*
X32000224Y48425440D01*
X32025000Y48423000D01*
X35487491Y48423000D01*
X35565251Y48407533D01*
X35620570Y48370570D01*
X35657533Y48315251D01*
X35673000Y48237491D01*
X35673000Y47362509D01*
X35657533Y47284749D01*
X35620570Y47229430D01*
X35565251Y47192467D01*
X35487491Y47177000D01*
X30512509Y47177000D01*
X30434749Y47192467D01*
X30379430Y47229430D01*
X30342467Y47284749D01*
X30327000Y47362509D01*
X30327000Y50087491D01*
X30342467Y50165251D01*
X30379430Y50220570D01*
X30434749Y50257533D01*
X30512509Y50273000D01*
X31412491Y50273000D01*
X31490251Y50257533D01*
G37*
%TD.AperFunction*%
X31490251Y44207533D02*
X31545570Y44170570D01*
X31582533Y44115251D01*
X31598000Y44037491D01*
X31598000Y42800000D01*
X31600440Y42775224D01*
X31623276Y42660419D01*
X31630503Y42636594D01*
X31642239Y42614637D01*
X31707271Y42517310D01*
X31723066Y42498065D01*
X31742310Y42482271D01*
X31839637Y42417239D01*
X31861594Y42405503D01*
X31885419Y42398276D01*
X32000224Y42375440D01*
X32025000Y42373000D01*
X35487491Y42373000D01*
X35565251Y42357533D01*
X35620570Y42320570D01*
X35657533Y42265251D01*
X35673000Y42187491D01*
X35673000Y41312509D01*
X35657533Y41234749D01*
X35620570Y41179430D01*
X35565251Y41142467D01*
X35487491Y41127000D01*
X30512509Y41127000D01*
X30434749Y41142467D01*
X30379430Y41179430D01*
X30342467Y41234749D01*
X30327000Y41312509D01*
X30327000Y44037491D01*
X30342467Y44115251D01*
X30379430Y44170570D01*
X30434749Y44207533D01*
X30512509Y44223000D01*
X31412491Y44223000D01*
X31490251Y44207533D01*
%TA.AperFunction,Conductor*%
G36*
X31490251Y44207533D02*
G01*
X31545570Y44170570D01*
X31582533Y44115251D01*
X31598000Y44037491D01*
X31598000Y42800000D01*
X31600440Y42775224D01*
X31623276Y42660419D01*
X31630503Y42636594D01*
X31642239Y42614637D01*
X31707271Y42517310D01*
X31723066Y42498065D01*
X31742310Y42482271D01*
X31839637Y42417239D01*
X31861594Y42405503D01*
X31885419Y42398276D01*
X32000224Y42375440D01*
X32025000Y42373000D01*
X35487491Y42373000D01*
X35565251Y42357533D01*
X35620570Y42320570D01*
X35657533Y42265251D01*
X35673000Y42187491D01*
X35673000Y41312509D01*
X35657533Y41234749D01*
X35620570Y41179430D01*
X35565251Y41142467D01*
X35487491Y41127000D01*
X30512509Y41127000D01*
X30434749Y41142467D01*
X30379430Y41179430D01*
X30342467Y41234749D01*
X30327000Y41312509D01*
X30327000Y44037491D01*
X30342467Y44115251D01*
X30379430Y44170570D01*
X30434749Y44207533D01*
X30512509Y44223000D01*
X31412491Y44223000D01*
X31490251Y44207533D01*
G37*
%TD.AperFunction*%
X31490251Y38257533D02*
X31545570Y38220570D01*
X31582533Y38165251D01*
X31598000Y38087491D01*
X31598000Y36850000D01*
X31600440Y36825224D01*
X31623276Y36710419D01*
X31630503Y36686594D01*
X31642239Y36664637D01*
X31707271Y36567310D01*
X31723066Y36548065D01*
X31742310Y36532271D01*
X31839637Y36467239D01*
X31861594Y36455503D01*
X31885419Y36448276D01*
X32000224Y36425440D01*
X32025000Y36423000D01*
X35487491Y36423000D01*
X35565251Y36407533D01*
X35620570Y36370570D01*
X35657533Y36315251D01*
X35673000Y36237491D01*
X35673000Y35362509D01*
X35657533Y35284749D01*
X35620570Y35229430D01*
X35565251Y35192467D01*
X35487491Y35177000D01*
X30512509Y35177000D01*
X30434749Y35192467D01*
X30379430Y35229430D01*
X30342467Y35284749D01*
X30327000Y35362509D01*
X30327000Y38087491D01*
X30342467Y38165251D01*
X30379430Y38220570D01*
X30434749Y38257533D01*
X30512509Y38273000D01*
X31412491Y38273000D01*
X31490251Y38257533D01*
%TA.AperFunction,Conductor*%
G36*
X31490251Y38257533D02*
G01*
X31545570Y38220570D01*
X31582533Y38165251D01*
X31598000Y38087491D01*
X31598000Y36850000D01*
X31600440Y36825224D01*
X31623276Y36710419D01*
X31630503Y36686594D01*
X31642239Y36664637D01*
X31707271Y36567310D01*
X31723066Y36548065D01*
X31742310Y36532271D01*
X31839637Y36467239D01*
X31861594Y36455503D01*
X31885419Y36448276D01*
X32000224Y36425440D01*
X32025000Y36423000D01*
X35487491Y36423000D01*
X35565251Y36407533D01*
X35620570Y36370570D01*
X35657533Y36315251D01*
X35673000Y36237491D01*
X35673000Y35362509D01*
X35657533Y35284749D01*
X35620570Y35229430D01*
X35565251Y35192467D01*
X35487491Y35177000D01*
X30512509Y35177000D01*
X30434749Y35192467D01*
X30379430Y35229430D01*
X30342467Y35284749D01*
X30327000Y35362509D01*
X30327000Y38087491D01*
X30342467Y38165251D01*
X30379430Y38220570D01*
X30434749Y38257533D01*
X30512509Y38273000D01*
X31412491Y38273000D01*
X31490251Y38257533D01*
G37*
%TD.AperFunction*%
X31490251Y32257533D02*
X31545570Y32220570D01*
X31582533Y32165251D01*
X31598000Y32087491D01*
X31598000Y30850000D01*
X31600440Y30825224D01*
X31623276Y30710419D01*
X31630503Y30686594D01*
X31642239Y30664637D01*
X31707271Y30567310D01*
X31723066Y30548065D01*
X31742310Y30532271D01*
X31839637Y30467239D01*
X31861594Y30455503D01*
X31885419Y30448276D01*
X32000224Y30425440D01*
X32025000Y30423000D01*
X35487491Y30423000D01*
X35565251Y30407533D01*
X35620570Y30370570D01*
X35657533Y30315251D01*
X35673000Y30237491D01*
X35673000Y29362509D01*
X35657533Y29284749D01*
X35620570Y29229430D01*
X35565251Y29192467D01*
X35487491Y29177000D01*
X30512509Y29177000D01*
X30434749Y29192467D01*
X30379430Y29229430D01*
X30342467Y29284749D01*
X30327000Y29362509D01*
X30327000Y32087491D01*
X30342467Y32165251D01*
X30379430Y32220570D01*
X30434749Y32257533D01*
X30512509Y32273000D01*
X31412491Y32273000D01*
X31490251Y32257533D01*
%TA.AperFunction,Conductor*%
G36*
X31490251Y32257533D02*
G01*
X31545570Y32220570D01*
X31582533Y32165251D01*
X31598000Y32087491D01*
X31598000Y30850000D01*
X31600440Y30825224D01*
X31623276Y30710419D01*
X31630503Y30686594D01*
X31642239Y30664637D01*
X31707271Y30567310D01*
X31723066Y30548065D01*
X31742310Y30532271D01*
X31839637Y30467239D01*
X31861594Y30455503D01*
X31885419Y30448276D01*
X32000224Y30425440D01*
X32025000Y30423000D01*
X35487491Y30423000D01*
X35565251Y30407533D01*
X35620570Y30370570D01*
X35657533Y30315251D01*
X35673000Y30237491D01*
X35673000Y29362509D01*
X35657533Y29284749D01*
X35620570Y29229430D01*
X35565251Y29192467D01*
X35487491Y29177000D01*
X30512509Y29177000D01*
X30434749Y29192467D01*
X30379430Y29229430D01*
X30342467Y29284749D01*
X30327000Y29362509D01*
X30327000Y32087491D01*
X30342467Y32165251D01*
X30379430Y32220570D01*
X30434749Y32257533D01*
X30512509Y32273000D01*
X31412491Y32273000D01*
X31490251Y32257533D01*
G37*
%TD.AperFunction*%
X31490251Y26207533D02*
X31545570Y26170570D01*
X31582533Y26115251D01*
X31598000Y26037491D01*
X31598000Y24800000D01*
X31600440Y24775224D01*
X31623276Y24660419D01*
X31630503Y24636594D01*
X31642239Y24614637D01*
X31707271Y24517310D01*
X31723066Y24498065D01*
X31742310Y24482271D01*
X31839637Y24417239D01*
X31861594Y24405503D01*
X31885419Y24398276D01*
X32000224Y24375440D01*
X32025000Y24373000D01*
X35487491Y24373000D01*
X35565251Y24357533D01*
X35620570Y24320570D01*
X35657533Y24265251D01*
X35673000Y24187491D01*
X35673000Y23312509D01*
X35657533Y23234749D01*
X35620570Y23179430D01*
X35565251Y23142467D01*
X35487491Y23127000D01*
X30512509Y23127000D01*
X30434749Y23142467D01*
X30379430Y23179430D01*
X30342467Y23234749D01*
X30327000Y23312509D01*
X30327000Y26037491D01*
X30342467Y26115251D01*
X30379430Y26170570D01*
X30434749Y26207533D01*
X30512509Y26223000D01*
X31412491Y26223000D01*
X31490251Y26207533D01*
%TA.AperFunction,Conductor*%
G36*
X31490251Y26207533D02*
G01*
X31545570Y26170570D01*
X31582533Y26115251D01*
X31598000Y26037491D01*
X31598000Y24800000D01*
X31600440Y24775224D01*
X31623276Y24660419D01*
X31630503Y24636594D01*
X31642239Y24614637D01*
X31707271Y24517310D01*
X31723066Y24498065D01*
X31742310Y24482271D01*
X31839637Y24417239D01*
X31861594Y24405503D01*
X31885419Y24398276D01*
X32000224Y24375440D01*
X32025000Y24373000D01*
X35487491Y24373000D01*
X35565251Y24357533D01*
X35620570Y24320570D01*
X35657533Y24265251D01*
X35673000Y24187491D01*
X35673000Y23312509D01*
X35657533Y23234749D01*
X35620570Y23179430D01*
X35565251Y23142467D01*
X35487491Y23127000D01*
X30512509Y23127000D01*
X30434749Y23142467D01*
X30379430Y23179430D01*
X30342467Y23234749D01*
X30327000Y23312509D01*
X30327000Y26037491D01*
X30342467Y26115251D01*
X30379430Y26170570D01*
X30434749Y26207533D01*
X30512509Y26223000D01*
X31412491Y26223000D01*
X31490251Y26207533D01*
G37*
%TD.AperFunction*%
X31490251Y20257533D02*
X31545570Y20220570D01*
X31582533Y20165251D01*
X31598000Y20087491D01*
X31598000Y18850000D01*
X31600440Y18825224D01*
X31623276Y18710419D01*
X31630503Y18686594D01*
X31642239Y18664637D01*
X31707271Y18567310D01*
X31723066Y18548065D01*
X31742310Y18532271D01*
X31839637Y18467239D01*
X31861594Y18455503D01*
X31885419Y18448276D01*
X32000224Y18425440D01*
X32025000Y18423000D01*
X35487491Y18423000D01*
X35565251Y18407533D01*
X35620570Y18370570D01*
X35657533Y18315251D01*
X35673000Y18237491D01*
X35673000Y17362509D01*
X35657533Y17284749D01*
X35620570Y17229430D01*
X35565251Y17192467D01*
X35487491Y17177000D01*
X30512509Y17177000D01*
X30434749Y17192467D01*
X30379430Y17229430D01*
X30342467Y17284749D01*
X30327000Y17362509D01*
X30327000Y20087491D01*
X30342467Y20165251D01*
X30379430Y20220570D01*
X30434749Y20257533D01*
X30512509Y20273000D01*
X31412491Y20273000D01*
X31490251Y20257533D01*
%TA.AperFunction,Conductor*%
G36*
X31490251Y20257533D02*
G01*
X31545570Y20220570D01*
X31582533Y20165251D01*
X31598000Y20087491D01*
X31598000Y18850000D01*
X31600440Y18825224D01*
X31623276Y18710419D01*
X31630503Y18686594D01*
X31642239Y18664637D01*
X31707271Y18567310D01*
X31723066Y18548065D01*
X31742310Y18532271D01*
X31839637Y18467239D01*
X31861594Y18455503D01*
X31885419Y18448276D01*
X32000224Y18425440D01*
X32025000Y18423000D01*
X35487491Y18423000D01*
X35565251Y18407533D01*
X35620570Y18370570D01*
X35657533Y18315251D01*
X35673000Y18237491D01*
X35673000Y17362509D01*
X35657533Y17284749D01*
X35620570Y17229430D01*
X35565251Y17192467D01*
X35487491Y17177000D01*
X30512509Y17177000D01*
X30434749Y17192467D01*
X30379430Y17229430D01*
X30342467Y17284749D01*
X30327000Y17362509D01*
X30327000Y20087491D01*
X30342467Y20165251D01*
X30379430Y20220570D01*
X30434749Y20257533D01*
X30512509Y20273000D01*
X31412491Y20273000D01*
X31490251Y20257533D01*
G37*
%TD.AperFunction*%
X31489766Y14207533D02*
X31545085Y14170570D01*
X31582048Y14115251D01*
X31597515Y14037491D01*
X31597515Y12800000D01*
X31599955Y12775224D01*
X31622791Y12660419D01*
X31630018Y12636594D01*
X31641754Y12614637D01*
X31706786Y12517310D01*
X31722581Y12498065D01*
X31741825Y12482271D01*
X31839152Y12417239D01*
X31861109Y12405503D01*
X31884934Y12398276D01*
X31999739Y12375440D01*
X32024515Y12373000D01*
X35487006Y12373000D01*
X35564766Y12357533D01*
X35620085Y12320570D01*
X35657048Y12265251D01*
X35672515Y12187491D01*
X35672515Y11312509D01*
X35657048Y11234749D01*
X35620085Y11179430D01*
X35564766Y11142467D01*
X35487006Y11127000D01*
X30512024Y11127000D01*
X30434264Y11142467D01*
X30378945Y11179430D01*
X30341982Y11234749D01*
X30326515Y11312509D01*
X30326515Y14037491D01*
X30341982Y14115251D01*
X30378945Y14170570D01*
X30434264Y14207533D01*
X30512024Y14223000D01*
X31412006Y14223000D01*
X31489766Y14207533D01*
%TA.AperFunction,Conductor*%
G36*
X31489766Y14207533D02*
G01*
X31545085Y14170570D01*
X31582048Y14115251D01*
X31597515Y14037491D01*
X31597515Y12800000D01*
X31599955Y12775224D01*
X31622791Y12660419D01*
X31630018Y12636594D01*
X31641754Y12614637D01*
X31706786Y12517310D01*
X31722581Y12498065D01*
X31741825Y12482271D01*
X31839152Y12417239D01*
X31861109Y12405503D01*
X31884934Y12398276D01*
X31999739Y12375440D01*
X32024515Y12373000D01*
X35487006Y12373000D01*
X35564766Y12357533D01*
X35620085Y12320570D01*
X35657048Y12265251D01*
X35672515Y12187491D01*
X35672515Y11312509D01*
X35657048Y11234749D01*
X35620085Y11179430D01*
X35564766Y11142467D01*
X35487006Y11127000D01*
X30512024Y11127000D01*
X30434264Y11142467D01*
X30378945Y11179430D01*
X30341982Y11234749D01*
X30326515Y11312509D01*
X30326515Y14037491D01*
X30341982Y14115251D01*
X30378945Y14170570D01*
X30434264Y14207533D01*
X30512024Y14223000D01*
X31412006Y14223000D01*
X31489766Y14207533D01*
G37*
%TD.AperFunction*%
X31489766Y8207533D02*
X31545085Y8170570D01*
X31582048Y8115251D01*
X31597515Y8037491D01*
X31597515Y6800000D01*
X31599955Y6775224D01*
X31622791Y6660419D01*
X31630018Y6636594D01*
X31641754Y6614637D01*
X31706786Y6517310D01*
X31722581Y6498065D01*
X31741825Y6482271D01*
X31839152Y6417239D01*
X31861109Y6405503D01*
X31884934Y6398276D01*
X31999739Y6375440D01*
X32024515Y6373000D01*
X35487006Y6373000D01*
X35564766Y6357533D01*
X35620085Y6320570D01*
X35657048Y6265251D01*
X35672515Y6187491D01*
X35672515Y5312509D01*
X35657048Y5234749D01*
X35620085Y5179430D01*
X35564766Y5142467D01*
X35487006Y5127000D01*
X30512024Y5127000D01*
X30434264Y5142467D01*
X30378945Y5179430D01*
X30341982Y5234749D01*
X30326515Y5312509D01*
X30326515Y8037491D01*
X30341982Y8115251D01*
X30378945Y8170570D01*
X30434264Y8207533D01*
X30512024Y8223000D01*
X31412006Y8223000D01*
X31489766Y8207533D01*
%TA.AperFunction,Conductor*%
G36*
X31489766Y8207533D02*
G01*
X31545085Y8170570D01*
X31582048Y8115251D01*
X31597515Y8037491D01*
X31597515Y6800000D01*
X31599955Y6775224D01*
X31622791Y6660419D01*
X31630018Y6636594D01*
X31641754Y6614637D01*
X31706786Y6517310D01*
X31722581Y6498065D01*
X31741825Y6482271D01*
X31839152Y6417239D01*
X31861109Y6405503D01*
X31884934Y6398276D01*
X31999739Y6375440D01*
X32024515Y6373000D01*
X35487006Y6373000D01*
X35564766Y6357533D01*
X35620085Y6320570D01*
X35657048Y6265251D01*
X35672515Y6187491D01*
X35672515Y5312509D01*
X35657048Y5234749D01*
X35620085Y5179430D01*
X35564766Y5142467D01*
X35487006Y5127000D01*
X30512024Y5127000D01*
X30434264Y5142467D01*
X30378945Y5179430D01*
X30341982Y5234749D01*
X30326515Y5312509D01*
X30326515Y8037491D01*
X30341982Y8115251D01*
X30378945Y8170570D01*
X30434264Y8207533D01*
X30512024Y8223000D01*
X31412006Y8223000D01*
X31489766Y8207533D01*
G37*
%TD.AperFunction*%
X35565251Y9457533D02*
X35620570Y9420570D01*
X35657533Y9365251D01*
X35673000Y9287491D01*
X35673000Y8412509D01*
X35657533Y8334749D01*
X35620570Y8279430D01*
X35565251Y8242467D01*
X35487491Y8227000D01*
X32912509Y8227000D01*
X32834749Y8242467D01*
X32779430Y8279430D01*
X32742467Y8334749D01*
X32727000Y8412509D01*
X32727000Y9287491D01*
X32742467Y9365251D01*
X32779430Y9420570D01*
X32834749Y9457533D01*
X32912509Y9473000D01*
X35487491Y9473000D01*
X35565251Y9457533D01*
%TA.AperFunction,Conductor*%
G36*
X35565251Y9457533D02*
G01*
X35620570Y9420570D01*
X35657533Y9365251D01*
X35673000Y9287491D01*
X35673000Y8412509D01*
X35657533Y8334749D01*
X35620570Y8279430D01*
X35565251Y8242467D01*
X35487491Y8227000D01*
X32912509Y8227000D01*
X32834749Y8242467D01*
X32779430Y8279430D01*
X32742467Y8334749D01*
X32727000Y8412509D01*
X32727000Y9287491D01*
X32742467Y9365251D01*
X32779430Y9420570D01*
X32834749Y9457533D01*
X32912509Y9473000D01*
X35487491Y9473000D01*
X35565251Y9457533D01*
G37*
%TD.AperFunction*%
X35565251Y15457533D02*
X35620570Y15420570D01*
X35657533Y15365251D01*
X35673000Y15287491D01*
X35673000Y14412509D01*
X35657533Y14334749D01*
X35620570Y14279430D01*
X35565251Y14242467D01*
X35487491Y14227000D01*
X32912509Y14227000D01*
X32834749Y14242467D01*
X32779430Y14279430D01*
X32742467Y14334749D01*
X32727000Y14412509D01*
X32727000Y15287491D01*
X32742467Y15365251D01*
X32779430Y15420570D01*
X32834749Y15457533D01*
X32912509Y15473000D01*
X35487491Y15473000D01*
X35565251Y15457533D01*
%TA.AperFunction,Conductor*%
G36*
X35565251Y15457533D02*
G01*
X35620570Y15420570D01*
X35657533Y15365251D01*
X35673000Y15287491D01*
X35673000Y14412509D01*
X35657533Y14334749D01*
X35620570Y14279430D01*
X35565251Y14242467D01*
X35487491Y14227000D01*
X32912509Y14227000D01*
X32834749Y14242467D01*
X32779430Y14279430D01*
X32742467Y14334749D01*
X32727000Y14412509D01*
X32727000Y15287491D01*
X32742467Y15365251D01*
X32779430Y15420570D01*
X32834749Y15457533D01*
X32912509Y15473000D01*
X35487491Y15473000D01*
X35565251Y15457533D01*
G37*
%TD.AperFunction*%
X35565251Y21490845D02*
X35620570Y21453882D01*
X35657533Y21398563D01*
X35673000Y21320803D01*
X35673000Y20445821D01*
X35657533Y20368061D01*
X35620570Y20312742D01*
X35565251Y20275779D01*
X35487491Y20260312D01*
X32912509Y20260312D01*
X32834749Y20275779D01*
X32779430Y20312742D01*
X32742467Y20368061D01*
X32727000Y20445821D01*
X32727000Y21320803D01*
X32742467Y21398563D01*
X32779430Y21453882D01*
X32834749Y21490845D01*
X32912509Y21506312D01*
X35487491Y21506312D01*
X35565251Y21490845D01*
%TA.AperFunction,Conductor*%
G36*
X35565251Y21490845D02*
G01*
X35620570Y21453882D01*
X35657533Y21398563D01*
X35673000Y21320803D01*
X35673000Y20445821D01*
X35657533Y20368061D01*
X35620570Y20312742D01*
X35565251Y20275779D01*
X35487491Y20260312D01*
X32912509Y20260312D01*
X32834749Y20275779D01*
X32779430Y20312742D01*
X32742467Y20368061D01*
X32727000Y20445821D01*
X32727000Y21320803D01*
X32742467Y21398563D01*
X32779430Y21453882D01*
X32834749Y21490845D01*
X32912509Y21506312D01*
X35487491Y21506312D01*
X35565251Y21490845D01*
G37*
%TD.AperFunction*%
X35565251Y27442555D02*
X35620570Y27405592D01*
X35657533Y27350273D01*
X35673000Y27272513D01*
X35673000Y26397531D01*
X35657533Y26319771D01*
X35620570Y26264452D01*
X35565251Y26227489D01*
X35487491Y26212022D01*
X32912509Y26212022D01*
X32834749Y26227489D01*
X32779430Y26264452D01*
X32742467Y26319771D01*
X32727000Y26397531D01*
X32727000Y27272513D01*
X32742467Y27350273D01*
X32779430Y27405592D01*
X32834749Y27442555D01*
X32912509Y27458022D01*
X35487491Y27458022D01*
X35565251Y27442555D01*
%TA.AperFunction,Conductor*%
G36*
X35565251Y27442555D02*
G01*
X35620570Y27405592D01*
X35657533Y27350273D01*
X35673000Y27272513D01*
X35673000Y26397531D01*
X35657533Y26319771D01*
X35620570Y26264452D01*
X35565251Y26227489D01*
X35487491Y26212022D01*
X32912509Y26212022D01*
X32834749Y26227489D01*
X32779430Y26264452D01*
X32742467Y26319771D01*
X32727000Y26397531D01*
X32727000Y27272513D01*
X32742467Y27350273D01*
X32779430Y27405592D01*
X32834749Y27442555D01*
X32912509Y27458022D01*
X35487491Y27458022D01*
X35565251Y27442555D01*
G37*
%TD.AperFunction*%
X35565251Y33457533D02*
X35620570Y33420570D01*
X35657533Y33365251D01*
X35673000Y33287491D01*
X35673000Y32412509D01*
X35657533Y32334749D01*
X35620570Y32279430D01*
X35565251Y32242467D01*
X35487491Y32227000D01*
X32912509Y32227000D01*
X32834749Y32242467D01*
X32779430Y32279430D01*
X32742467Y32334749D01*
X32727000Y32412509D01*
X32727000Y33287491D01*
X32742467Y33365251D01*
X32779430Y33420570D01*
X32834749Y33457533D01*
X32912509Y33473000D01*
X35487491Y33473000D01*
X35565251Y33457533D01*
%TA.AperFunction,Conductor*%
G36*
X35565251Y33457533D02*
G01*
X35620570Y33420570D01*
X35657533Y33365251D01*
X35673000Y33287491D01*
X35673000Y32412509D01*
X35657533Y32334749D01*
X35620570Y32279430D01*
X35565251Y32242467D01*
X35487491Y32227000D01*
X32912509Y32227000D01*
X32834749Y32242467D01*
X32779430Y32279430D01*
X32742467Y32334749D01*
X32727000Y32412509D01*
X32727000Y33287491D01*
X32742467Y33365251D01*
X32779430Y33420570D01*
X32834749Y33457533D01*
X32912509Y33473000D01*
X35487491Y33473000D01*
X35565251Y33457533D01*
G37*
%TD.AperFunction*%
X35565251Y39457533D02*
X35620570Y39420570D01*
X35657533Y39365251D01*
X35673000Y39287491D01*
X35673000Y38412509D01*
X35657533Y38334749D01*
X35620570Y38279430D01*
X35565251Y38242467D01*
X35487491Y38227000D01*
X32912509Y38227000D01*
X32834749Y38242467D01*
X32779430Y38279430D01*
X32742467Y38334749D01*
X32727000Y38412509D01*
X32727000Y39287491D01*
X32742467Y39365251D01*
X32779430Y39420570D01*
X32834749Y39457533D01*
X32912509Y39473000D01*
X35487491Y39473000D01*
X35565251Y39457533D01*
%TA.AperFunction,Conductor*%
G36*
X35565251Y39457533D02*
G01*
X35620570Y39420570D01*
X35657533Y39365251D01*
X35673000Y39287491D01*
X35673000Y38412509D01*
X35657533Y38334749D01*
X35620570Y38279430D01*
X35565251Y38242467D01*
X35487491Y38227000D01*
X32912509Y38227000D01*
X32834749Y38242467D01*
X32779430Y38279430D01*
X32742467Y38334749D01*
X32727000Y38412509D01*
X32727000Y39287491D01*
X32742467Y39365251D01*
X32779430Y39420570D01*
X32834749Y39457533D01*
X32912509Y39473000D01*
X35487491Y39473000D01*
X35565251Y39457533D01*
G37*
%TD.AperFunction*%
X35565251Y45457533D02*
X35620570Y45420570D01*
X35657533Y45365251D01*
X35673000Y45287491D01*
X35673000Y44412509D01*
X35657533Y44334749D01*
X35620570Y44279430D01*
X35565251Y44242467D01*
X35487491Y44227000D01*
X32912509Y44227000D01*
X32834749Y44242467D01*
X32779430Y44279430D01*
X32742467Y44334749D01*
X32727000Y44412509D01*
X32727000Y45287491D01*
X32742467Y45365251D01*
X32779430Y45420570D01*
X32834749Y45457533D01*
X32912509Y45473000D01*
X35487491Y45473000D01*
X35565251Y45457533D01*
%TA.AperFunction,Conductor*%
G36*
X35565251Y45457533D02*
G01*
X35620570Y45420570D01*
X35657533Y45365251D01*
X35673000Y45287491D01*
X35673000Y44412509D01*
X35657533Y44334749D01*
X35620570Y44279430D01*
X35565251Y44242467D01*
X35487491Y44227000D01*
X32912509Y44227000D01*
X32834749Y44242467D01*
X32779430Y44279430D01*
X32742467Y44334749D01*
X32727000Y44412509D01*
X32727000Y45287491D01*
X32742467Y45365251D01*
X32779430Y45420570D01*
X32834749Y45457533D01*
X32912509Y45473000D01*
X35487491Y45473000D01*
X35565251Y45457533D01*
G37*
%TD.AperFunction*%
X43998001Y43002000D02*
X41837505Y43002000D01*
X41759744Y43017467D01*
X41704425Y43054431D01*
X41667464Y43109747D01*
X41651996Y43187510D01*
X41652004Y48025371D01*
X41649562Y48050154D01*
X41626713Y48164991D01*
X41619485Y48188815D01*
X41607740Y48210783D01*
X41542674Y48308127D01*
X41526877Y48327369D01*
X41507616Y48343169D01*
X41410242Y48408192D01*
X41388282Y48419922D01*
X41364442Y48427145D01*
X41249595Y48449942D01*
X41224810Y48452372D01*
X37852265Y48450842D01*
X37774151Y48466419D01*
X37718669Y48503680D01*
X37681773Y48559405D01*
X37666710Y48637618D01*
X37674869Y49799152D01*
X37672577Y49824078D01*
X37650307Y49939632D01*
X37643222Y49963499D01*
X37631469Y49985750D01*
X37566465Y50083848D01*
X37550744Y50103153D01*
X37531335Y50119172D01*
X37433599Y50184718D01*
X37411662Y50196492D01*
X37387585Y50203812D01*
X37272156Y50226721D01*
X37247244Y50229151D01*
X35800034Y50227000D01*
X32912509Y50227000D01*
X32834749Y50242467D01*
X32779430Y50279430D01*
X32742467Y50334749D01*
X32727000Y50412509D01*
X32727000Y51424759D01*
X32724557Y51449548D01*
X32701698Y51564409D01*
X32694469Y51588232D01*
X32682716Y51610210D01*
X32617622Y51707566D01*
X32601822Y51726806D01*
X32582551Y51742608D01*
X32485142Y51807624D01*
X32463180Y51819349D01*
X32439327Y51826569D01*
X32324448Y51849336D01*
X32299657Y51851759D01*
X5019742Y51829861D01*
X4499619Y52045303D01*
X3837530Y52177000D01*
X3162470Y52177000D01*
X2500381Y52045303D01*
X1974357Y51827416D01*
X452000Y51826194D01*
X452000Y56298000D01*
X43998001Y56298000D01*
X43998001Y43002000D01*
%TA.AperFunction,Conductor*%
G36*
X43998001Y43002000D02*
G01*
X41837505Y43002000D01*
X41759744Y43017467D01*
X41704425Y43054431D01*
X41667464Y43109747D01*
X41651996Y43187510D01*
X41652004Y48025371D01*
X41649562Y48050154D01*
X41626713Y48164991D01*
X41619485Y48188815D01*
X41607740Y48210783D01*
X41542674Y48308127D01*
X41526877Y48327369D01*
X41507616Y48343169D01*
X41410242Y48408192D01*
X41388282Y48419922D01*
X41364442Y48427145D01*
X41249595Y48449942D01*
X41224810Y48452372D01*
X37852265Y48450842D01*
X37774151Y48466419D01*
X37718669Y48503680D01*
X37681773Y48559405D01*
X37666710Y48637618D01*
X37674869Y49799152D01*
X37672577Y49824078D01*
X37650307Y49939632D01*
X37643222Y49963499D01*
X37631469Y49985750D01*
X37566465Y50083848D01*
X37550744Y50103153D01*
X37531335Y50119172D01*
X37433599Y50184718D01*
X37411662Y50196492D01*
X37387585Y50203812D01*
X37272156Y50226721D01*
X37247244Y50229151D01*
X35800034Y50227000D01*
X32912509Y50227000D01*
X32834749Y50242467D01*
X32779430Y50279430D01*
X32742467Y50334749D01*
X32727000Y50412509D01*
X32727000Y51424759D01*
X32724557Y51449548D01*
X32701698Y51564409D01*
X32694469Y51588232D01*
X32682716Y51610210D01*
X32617622Y51707566D01*
X32601822Y51726806D01*
X32582551Y51742608D01*
X32485142Y51807624D01*
X32463180Y51819349D01*
X32439327Y51826569D01*
X32324448Y51849336D01*
X32299657Y51851759D01*
X5019742Y51829861D01*
X4499619Y52045303D01*
X3837530Y52177000D01*
X3162470Y52177000D01*
X2500381Y52045303D01*
X1974357Y51827416D01*
X452000Y51826194D01*
X452000Y56298000D01*
X43998001Y56298000D01*
X43998001Y43002000D01*
G37*
%TD.AperFunction*%
X22940251Y47007533D02*
X22995570Y46970570D01*
X23032533Y46915251D01*
X23048000Y46837491D01*
X23048000Y46641718D01*
X23044890Y46630110D01*
X22954630Y46605925D01*
X22931329Y46597156D01*
X22910187Y46584009D01*
X22897697Y46573056D01*
X22851944Y46527303D01*
X22836150Y46508057D01*
X22824414Y46486101D01*
X22819075Y46470370D01*
X22802328Y46407870D01*
X22798000Y46375000D01*
X22798000Y45012509D01*
X22782533Y44934749D01*
X22745570Y44879430D01*
X22690251Y44842467D01*
X22612491Y44827000D01*
X22187509Y44827000D01*
X22109749Y44842467D01*
X22054430Y44879430D01*
X22017467Y44934749D01*
X22002000Y45012509D01*
X22002000Y46375000D01*
X21997672Y46407870D01*
X21980925Y46470370D01*
X21972156Y46493671D01*
X21959009Y46514813D01*
X21948056Y46527303D01*
X21902303Y46573056D01*
X21883057Y46588850D01*
X21861101Y46600586D01*
X21845370Y46605925D01*
X21755110Y46630110D01*
X21752000Y46641718D01*
X21752000Y46837491D01*
X21767467Y46915251D01*
X21804430Y46970570D01*
X21859749Y47007533D01*
X21937509Y47023000D01*
X22862491Y47023000D01*
X22940251Y47007533D01*
%TA.AperFunction,Conductor*%
G36*
X22940251Y47007533D02*
G01*
X22995570Y46970570D01*
X23032533Y46915251D01*
X23048000Y46837491D01*
X23048000Y46641718D01*
X23044890Y46630110D01*
X22954630Y46605925D01*
X22931329Y46597156D01*
X22910187Y46584009D01*
X22897697Y46573056D01*
X22851944Y46527303D01*
X22836150Y46508057D01*
X22824414Y46486101D01*
X22819075Y46470370D01*
X22802328Y46407870D01*
X22798000Y46375000D01*
X22798000Y45012509D01*
X22782533Y44934749D01*
X22745570Y44879430D01*
X22690251Y44842467D01*
X22612491Y44827000D01*
X22187509Y44827000D01*
X22109749Y44842467D01*
X22054430Y44879430D01*
X22017467Y44934749D01*
X22002000Y45012509D01*
X22002000Y46375000D01*
X21997672Y46407870D01*
X21980925Y46470370D01*
X21972156Y46493671D01*
X21959009Y46514813D01*
X21948056Y46527303D01*
X21902303Y46573056D01*
X21883057Y46588850D01*
X21861101Y46600586D01*
X21845370Y46605925D01*
X21755110Y46630110D01*
X21752000Y46641718D01*
X21752000Y46837491D01*
X21767467Y46915251D01*
X21804430Y46970570D01*
X21859749Y47007533D01*
X21937509Y47023000D01*
X22862491Y47023000D01*
X22940251Y47007533D01*
G37*
%TD.AperFunction*%
X22940251Y40950305D02*
X22995570Y40913342D01*
X23032533Y40858023D01*
X23048000Y40780263D01*
X23048000Y40584490D01*
X23044890Y40572882D01*
X22954630Y40548697D01*
X22931329Y40539928D01*
X22910187Y40526781D01*
X22897697Y40515828D01*
X22851944Y40470075D01*
X22836150Y40450829D01*
X22824414Y40428873D01*
X22819075Y40413142D01*
X22802328Y40350642D01*
X22798000Y40317772D01*
X22798000Y38955281D01*
X22782533Y38877521D01*
X22745570Y38822202D01*
X22690251Y38785239D01*
X22612491Y38769772D01*
X22187509Y38769772D01*
X22109749Y38785239D01*
X22054430Y38822202D01*
X22017467Y38877521D01*
X22002000Y38955281D01*
X22002000Y40317772D01*
X21997672Y40350642D01*
X21980925Y40413142D01*
X21972156Y40436443D01*
X21959009Y40457585D01*
X21948056Y40470075D01*
X21902303Y40515828D01*
X21883057Y40531622D01*
X21861101Y40543358D01*
X21845370Y40548697D01*
X21755110Y40572882D01*
X21752000Y40584490D01*
X21752000Y40780263D01*
X21767467Y40858023D01*
X21804430Y40913342D01*
X21859749Y40950305D01*
X21937509Y40965772D01*
X22862491Y40965772D01*
X22940251Y40950305D01*
%TA.AperFunction,Conductor*%
G36*
X22940251Y40950305D02*
G01*
X22995570Y40913342D01*
X23032533Y40858023D01*
X23048000Y40780263D01*
X23048000Y40584490D01*
X23044890Y40572882D01*
X22954630Y40548697D01*
X22931329Y40539928D01*
X22910187Y40526781D01*
X22897697Y40515828D01*
X22851944Y40470075D01*
X22836150Y40450829D01*
X22824414Y40428873D01*
X22819075Y40413142D01*
X22802328Y40350642D01*
X22798000Y40317772D01*
X22798000Y38955281D01*
X22782533Y38877521D01*
X22745570Y38822202D01*
X22690251Y38785239D01*
X22612491Y38769772D01*
X22187509Y38769772D01*
X22109749Y38785239D01*
X22054430Y38822202D01*
X22017467Y38877521D01*
X22002000Y38955281D01*
X22002000Y40317772D01*
X21997672Y40350642D01*
X21980925Y40413142D01*
X21972156Y40436443D01*
X21959009Y40457585D01*
X21948056Y40470075D01*
X21902303Y40515828D01*
X21883057Y40531622D01*
X21861101Y40543358D01*
X21845370Y40548697D01*
X21755110Y40572882D01*
X21752000Y40584490D01*
X21752000Y40780263D01*
X21767467Y40858023D01*
X21804430Y40913342D01*
X21859749Y40950305D01*
X21937509Y40965772D01*
X22862491Y40965772D01*
X22940251Y40950305D01*
G37*
%TD.AperFunction*%
X22940251Y35000400D02*
X22995570Y34963437D01*
X23032533Y34908118D01*
X23048000Y34830358D01*
X23048000Y34634585D01*
X23044890Y34622977D01*
X22954630Y34598792D01*
X22931329Y34590023D01*
X22910187Y34576876D01*
X22897697Y34565923D01*
X22851944Y34520170D01*
X22836150Y34500924D01*
X22824414Y34478968D01*
X22819075Y34463237D01*
X22802328Y34400737D01*
X22798000Y34367867D01*
X22798000Y33005376D01*
X22782533Y32927616D01*
X22745570Y32872297D01*
X22690251Y32835334D01*
X22612491Y32819867D01*
X22187509Y32819867D01*
X22109749Y32835334D01*
X22054430Y32872297D01*
X22017467Y32927616D01*
X22002000Y33005376D01*
X22002000Y34367867D01*
X21997672Y34400737D01*
X21980925Y34463237D01*
X21972156Y34486538D01*
X21959009Y34507680D01*
X21948056Y34520170D01*
X21902303Y34565923D01*
X21883057Y34581717D01*
X21861101Y34593453D01*
X21845370Y34598792D01*
X21755110Y34622977D01*
X21752000Y34634585D01*
X21752000Y34830358D01*
X21767467Y34908118D01*
X21804430Y34963437D01*
X21859749Y35000400D01*
X21937509Y35015867D01*
X22862491Y35015867D01*
X22940251Y35000400D01*
%TA.AperFunction,Conductor*%
G36*
X22940251Y35000400D02*
G01*
X22995570Y34963437D01*
X23032533Y34908118D01*
X23048000Y34830358D01*
X23048000Y34634585D01*
X23044890Y34622977D01*
X22954630Y34598792D01*
X22931329Y34590023D01*
X22910187Y34576876D01*
X22897697Y34565923D01*
X22851944Y34520170D01*
X22836150Y34500924D01*
X22824414Y34478968D01*
X22819075Y34463237D01*
X22802328Y34400737D01*
X22798000Y34367867D01*
X22798000Y33005376D01*
X22782533Y32927616D01*
X22745570Y32872297D01*
X22690251Y32835334D01*
X22612491Y32819867D01*
X22187509Y32819867D01*
X22109749Y32835334D01*
X22054430Y32872297D01*
X22017467Y32927616D01*
X22002000Y33005376D01*
X22002000Y34367867D01*
X21997672Y34400737D01*
X21980925Y34463237D01*
X21972156Y34486538D01*
X21959009Y34507680D01*
X21948056Y34520170D01*
X21902303Y34565923D01*
X21883057Y34581717D01*
X21861101Y34593453D01*
X21845370Y34598792D01*
X21755110Y34622977D01*
X21752000Y34634585D01*
X21752000Y34830358D01*
X21767467Y34908118D01*
X21804430Y34963437D01*
X21859749Y35000400D01*
X21937509Y35015867D01*
X22862491Y35015867D01*
X22940251Y35000400D01*
G37*
%TD.AperFunction*%
X22940251Y29009836D02*
X22995570Y28972873D01*
X23032533Y28917554D01*
X23048000Y28839794D01*
X23048000Y28644021D01*
X23044890Y28632413D01*
X22954630Y28608228D01*
X22931329Y28599459D01*
X22910187Y28586312D01*
X22897697Y28575359D01*
X22851944Y28529606D01*
X22836150Y28510360D01*
X22824414Y28488404D01*
X22819075Y28472673D01*
X22802328Y28410173D01*
X22798000Y28377303D01*
X22798000Y27014812D01*
X22782533Y26937052D01*
X22745570Y26881733D01*
X22690251Y26844770D01*
X22612491Y26829303D01*
X22187509Y26829303D01*
X22109749Y26844770D01*
X22054430Y26881733D01*
X22017467Y26937052D01*
X22002000Y27014812D01*
X22002000Y28377303D01*
X21997672Y28410173D01*
X21980925Y28472673D01*
X21972156Y28495974D01*
X21959009Y28517116D01*
X21948056Y28529606D01*
X21902303Y28575359D01*
X21883057Y28591153D01*
X21861101Y28602889D01*
X21845370Y28608228D01*
X21755110Y28632413D01*
X21752000Y28644021D01*
X21752000Y28839794D01*
X21767467Y28917554D01*
X21804430Y28972873D01*
X21859749Y29009836D01*
X21937509Y29025303D01*
X22862491Y29025303D01*
X22940251Y29009836D01*
%TA.AperFunction,Conductor*%
G36*
X22940251Y29009836D02*
G01*
X22995570Y28972873D01*
X23032533Y28917554D01*
X23048000Y28839794D01*
X23048000Y28644021D01*
X23044890Y28632413D01*
X22954630Y28608228D01*
X22931329Y28599459D01*
X22910187Y28586312D01*
X22897697Y28575359D01*
X22851944Y28529606D01*
X22836150Y28510360D01*
X22824414Y28488404D01*
X22819075Y28472673D01*
X22802328Y28410173D01*
X22798000Y28377303D01*
X22798000Y27014812D01*
X22782533Y26937052D01*
X22745570Y26881733D01*
X22690251Y26844770D01*
X22612491Y26829303D01*
X22187509Y26829303D01*
X22109749Y26844770D01*
X22054430Y26881733D01*
X22017467Y26937052D01*
X22002000Y27014812D01*
X22002000Y28377303D01*
X21997672Y28410173D01*
X21980925Y28472673D01*
X21972156Y28495974D01*
X21959009Y28517116D01*
X21948056Y28529606D01*
X21902303Y28575359D01*
X21883057Y28591153D01*
X21861101Y28602889D01*
X21845370Y28608228D01*
X21755110Y28632413D01*
X21752000Y28644021D01*
X21752000Y28839794D01*
X21767467Y28917554D01*
X21804430Y28972873D01*
X21859749Y29009836D01*
X21937509Y29025303D01*
X22862491Y29025303D01*
X22940251Y29009836D01*
G37*
%TD.AperFunction*%
X22940251Y23010712D02*
X22995570Y22973749D01*
X23032533Y22918430D01*
X23048000Y22840670D01*
X23048000Y22644897D01*
X23044890Y22633289D01*
X22954630Y22609104D01*
X22931329Y22600335D01*
X22910187Y22587188D01*
X22897697Y22576235D01*
X22851944Y22530482D01*
X22836150Y22511236D01*
X22824414Y22489280D01*
X22819075Y22473549D01*
X22802328Y22411049D01*
X22798000Y22378179D01*
X22798000Y21015688D01*
X22782533Y20937928D01*
X22745570Y20882609D01*
X22690251Y20845646D01*
X22612491Y20830179D01*
X22187509Y20830179D01*
X22109749Y20845646D01*
X22054430Y20882609D01*
X22017467Y20937928D01*
X22002000Y21015688D01*
X22002000Y22378179D01*
X21997672Y22411049D01*
X21980925Y22473549D01*
X21972156Y22496850D01*
X21959009Y22517992D01*
X21948056Y22530482D01*
X21902303Y22576235D01*
X21883057Y22592029D01*
X21861101Y22603765D01*
X21845370Y22609104D01*
X21755110Y22633289D01*
X21752000Y22644897D01*
X21752000Y22840670D01*
X21767467Y22918430D01*
X21804430Y22973749D01*
X21859749Y23010712D01*
X21937509Y23026179D01*
X22862491Y23026179D01*
X22940251Y23010712D01*
%TA.AperFunction,Conductor*%
G36*
X22940251Y23010712D02*
G01*
X22995570Y22973749D01*
X23032533Y22918430D01*
X23048000Y22840670D01*
X23048000Y22644897D01*
X23044890Y22633289D01*
X22954630Y22609104D01*
X22931329Y22600335D01*
X22910187Y22587188D01*
X22897697Y22576235D01*
X22851944Y22530482D01*
X22836150Y22511236D01*
X22824414Y22489280D01*
X22819075Y22473549D01*
X22802328Y22411049D01*
X22798000Y22378179D01*
X22798000Y21015688D01*
X22782533Y20937928D01*
X22745570Y20882609D01*
X22690251Y20845646D01*
X22612491Y20830179D01*
X22187509Y20830179D01*
X22109749Y20845646D01*
X22054430Y20882609D01*
X22017467Y20937928D01*
X22002000Y21015688D01*
X22002000Y22378179D01*
X21997672Y22411049D01*
X21980925Y22473549D01*
X21972156Y22496850D01*
X21959009Y22517992D01*
X21948056Y22530482D01*
X21902303Y22576235D01*
X21883057Y22592029D01*
X21861101Y22603765D01*
X21845370Y22609104D01*
X21755110Y22633289D01*
X21752000Y22644897D01*
X21752000Y22840670D01*
X21767467Y22918430D01*
X21804430Y22973749D01*
X21859749Y23010712D01*
X21937509Y23026179D01*
X22862491Y23026179D01*
X22940251Y23010712D01*
G37*
%TD.AperFunction*%
X22940251Y17007533D02*
X22995570Y16970570D01*
X23032533Y16915251D01*
X23048000Y16837491D01*
X23048000Y16641718D01*
X23044890Y16630110D01*
X22954630Y16605925D01*
X22931329Y16597156D01*
X22910187Y16584009D01*
X22897697Y16573056D01*
X22851944Y16527303D01*
X22836150Y16508057D01*
X22824414Y16486101D01*
X22819075Y16470370D01*
X22802328Y16407870D01*
X22798000Y16375000D01*
X22798000Y15012509D01*
X22782533Y14934749D01*
X22745570Y14879430D01*
X22690251Y14842467D01*
X22612491Y14827000D01*
X22187509Y14827000D01*
X22109749Y14842467D01*
X22054430Y14879430D01*
X22017467Y14934749D01*
X22002000Y15012509D01*
X22002000Y16375000D01*
X21997672Y16407870D01*
X21980925Y16470370D01*
X21972156Y16493671D01*
X21959009Y16514813D01*
X21948056Y16527303D01*
X21902303Y16573056D01*
X21883057Y16588850D01*
X21861101Y16600586D01*
X21845370Y16605925D01*
X21755110Y16630110D01*
X21752000Y16641718D01*
X21752000Y16837491D01*
X21767467Y16915251D01*
X21804430Y16970570D01*
X21859749Y17007533D01*
X21937509Y17023000D01*
X22862491Y17023000D01*
X22940251Y17007533D01*
%TA.AperFunction,Conductor*%
G36*
X22940251Y17007533D02*
G01*
X22995570Y16970570D01*
X23032533Y16915251D01*
X23048000Y16837491D01*
X23048000Y16641718D01*
X23044890Y16630110D01*
X22954630Y16605925D01*
X22931329Y16597156D01*
X22910187Y16584009D01*
X22897697Y16573056D01*
X22851944Y16527303D01*
X22836150Y16508057D01*
X22824414Y16486101D01*
X22819075Y16470370D01*
X22802328Y16407870D01*
X22798000Y16375000D01*
X22798000Y15012509D01*
X22782533Y14934749D01*
X22745570Y14879430D01*
X22690251Y14842467D01*
X22612491Y14827000D01*
X22187509Y14827000D01*
X22109749Y14842467D01*
X22054430Y14879430D01*
X22017467Y14934749D01*
X22002000Y15012509D01*
X22002000Y16375000D01*
X21997672Y16407870D01*
X21980925Y16470370D01*
X21972156Y16493671D01*
X21959009Y16514813D01*
X21948056Y16527303D01*
X21902303Y16573056D01*
X21883057Y16588850D01*
X21861101Y16600586D01*
X21845370Y16605925D01*
X21755110Y16630110D01*
X21752000Y16641718D01*
X21752000Y16837491D01*
X21767467Y16915251D01*
X21804430Y16970570D01*
X21859749Y17007533D01*
X21937509Y17023000D01*
X22862491Y17023000D01*
X22940251Y17007533D01*
G37*
%TD.AperFunction*%
X22940251Y11010118D02*
X22995570Y10973155D01*
X23032533Y10917836D01*
X23048000Y10840076D01*
X23048000Y10644303D01*
X23044890Y10632695D01*
X22954630Y10608510D01*
X22931329Y10599741D01*
X22910187Y10586594D01*
X22897697Y10575641D01*
X22851944Y10529888D01*
X22836150Y10510642D01*
X22824414Y10488686D01*
X22819075Y10472955D01*
X22802328Y10410455D01*
X22798000Y10377585D01*
X22798000Y9015094D01*
X22782533Y8937334D01*
X22745570Y8882015D01*
X22690251Y8845052D01*
X22612491Y8829585D01*
X22187509Y8829585D01*
X22109749Y8845052D01*
X22054430Y8882015D01*
X22017467Y8937334D01*
X22002000Y9015094D01*
X22002000Y10377585D01*
X21997672Y10410455D01*
X21980925Y10472955D01*
X21972156Y10496256D01*
X21959009Y10517398D01*
X21948056Y10529888D01*
X21902303Y10575641D01*
X21883057Y10591435D01*
X21861101Y10603171D01*
X21845370Y10608510D01*
X21755110Y10632695D01*
X21752000Y10644303D01*
X21752000Y10840076D01*
X21767467Y10917836D01*
X21804430Y10973155D01*
X21859749Y11010118D01*
X21937509Y11025585D01*
X22862491Y11025585D01*
X22940251Y11010118D01*
%TA.AperFunction,Conductor*%
G36*
X22940251Y11010118D02*
G01*
X22995570Y10973155D01*
X23032533Y10917836D01*
X23048000Y10840076D01*
X23048000Y10644303D01*
X23044890Y10632695D01*
X22954630Y10608510D01*
X22931329Y10599741D01*
X22910187Y10586594D01*
X22897697Y10575641D01*
X22851944Y10529888D01*
X22836150Y10510642D01*
X22824414Y10488686D01*
X22819075Y10472955D01*
X22802328Y10410455D01*
X22798000Y10377585D01*
X22798000Y9015094D01*
X22782533Y8937334D01*
X22745570Y8882015D01*
X22690251Y8845052D01*
X22612491Y8829585D01*
X22187509Y8829585D01*
X22109749Y8845052D01*
X22054430Y8882015D01*
X22017467Y8937334D01*
X22002000Y9015094D01*
X22002000Y10377585D01*
X21997672Y10410455D01*
X21980925Y10472955D01*
X21972156Y10496256D01*
X21959009Y10517398D01*
X21948056Y10529888D01*
X21902303Y10575641D01*
X21883057Y10591435D01*
X21861101Y10603171D01*
X21845370Y10608510D01*
X21755110Y10632695D01*
X21752000Y10644303D01*
X21752000Y10840076D01*
X21767467Y10917836D01*
X21804430Y10973155D01*
X21859749Y11010118D01*
X21937509Y11025585D01*
X22862491Y11025585D01*
X22940251Y11010118D01*
G37*
%TD.AperFunction*%
X25346257Y8209231D02*
X25435955Y8172077D01*
X25512976Y8112976D01*
X25572077Y8035955D01*
X25609231Y7946257D01*
X25623000Y7841672D01*
X25623000Y5508328D01*
X25609231Y5403743D01*
X25572077Y5314045D01*
X25512976Y5237024D01*
X25435955Y5177923D01*
X25346257Y5140769D01*
X25241672Y5127000D01*
X24733328Y5127000D01*
X24628743Y5140769D01*
X24539045Y5177923D01*
X24462024Y5237024D01*
X24402923Y5314045D01*
X24365769Y5403743D01*
X24352000Y5508328D01*
X24352000Y5900000D01*
X24350914Y5916577D01*
X24333877Y6045987D01*
X24325296Y6078011D01*
X24275346Y6198601D01*
X24258768Y6227313D01*
X24179308Y6330866D01*
X24155866Y6354308D01*
X24052313Y6433768D01*
X24023601Y6450346D01*
X23903011Y6500296D01*
X23870987Y6508877D01*
X23741577Y6525914D01*
X23725000Y6527000D01*
X21962509Y6527000D01*
X21875181Y6544371D01*
X21811752Y6586752D01*
X21769371Y6650181D01*
X21754488Y6725000D01*
X21769371Y6799819D01*
X21811752Y6863248D01*
X21875181Y6905629D01*
X21962509Y6923000D01*
X23725000Y6923000D01*
X23741577Y6924086D01*
X23870987Y6941123D01*
X23903011Y6949704D01*
X24023601Y6999654D01*
X24052313Y7016232D01*
X24155866Y7095692D01*
X24179308Y7119134D01*
X24258768Y7222687D01*
X24275346Y7251399D01*
X24325296Y7371989D01*
X24333877Y7404013D01*
X24350914Y7533423D01*
X24352000Y7550000D01*
X24352000Y7841672D01*
X24365769Y7946257D01*
X24402923Y8035955D01*
X24462024Y8112976D01*
X24539045Y8172077D01*
X24628743Y8209231D01*
X24733328Y8223000D01*
X25241672Y8223000D01*
X25346257Y8209231D01*
%TA.AperFunction,Conductor*%
G36*
X25346257Y8209231D02*
G01*
X25435955Y8172077D01*
X25512976Y8112976D01*
X25572077Y8035955D01*
X25609231Y7946257D01*
X25623000Y7841672D01*
X25623000Y5508328D01*
X25609231Y5403743D01*
X25572077Y5314045D01*
X25512976Y5237024D01*
X25435955Y5177923D01*
X25346257Y5140769D01*
X25241672Y5127000D01*
X24733328Y5127000D01*
X24628743Y5140769D01*
X24539045Y5177923D01*
X24462024Y5237024D01*
X24402923Y5314045D01*
X24365769Y5403743D01*
X24352000Y5508328D01*
X24352000Y5900000D01*
X24350914Y5916577D01*
X24333877Y6045987D01*
X24325296Y6078011D01*
X24275346Y6198601D01*
X24258768Y6227313D01*
X24179308Y6330866D01*
X24155866Y6354308D01*
X24052313Y6433768D01*
X24023601Y6450346D01*
X23903011Y6500296D01*
X23870987Y6508877D01*
X23741577Y6525914D01*
X23725000Y6527000D01*
X21962509Y6527000D01*
X21875181Y6544371D01*
X21811752Y6586752D01*
X21769371Y6650181D01*
X21754488Y6725000D01*
X21769371Y6799819D01*
X21811752Y6863248D01*
X21875181Y6905629D01*
X21962509Y6923000D01*
X23725000Y6923000D01*
X23741577Y6924086D01*
X23870987Y6941123D01*
X23903011Y6949704D01*
X24023601Y6999654D01*
X24052313Y7016232D01*
X24155866Y7095692D01*
X24179308Y7119134D01*
X24258768Y7222687D01*
X24275346Y7251399D01*
X24325296Y7371989D01*
X24333877Y7404013D01*
X24350914Y7533423D01*
X24352000Y7550000D01*
X24352000Y7841672D01*
X24365769Y7946257D01*
X24402923Y8035955D01*
X24462024Y8112976D01*
X24539045Y8172077D01*
X24628743Y8209231D01*
X24733328Y8223000D01*
X25241672Y8223000D01*
X25346257Y8209231D01*
G37*
%TD.AperFunction*%
X25346257Y14209231D02*
X25435955Y14172077D01*
X25512976Y14112976D01*
X25572077Y14035955D01*
X25609231Y13946257D01*
X25623000Y13841672D01*
X25623000Y11508328D01*
X25609231Y11403743D01*
X25572077Y11314045D01*
X25512976Y11237024D01*
X25435955Y11177923D01*
X25346257Y11140769D01*
X25241672Y11127000D01*
X24733328Y11127000D01*
X24628743Y11140769D01*
X24539045Y11177923D01*
X24462024Y11237024D01*
X24402923Y11314045D01*
X24365769Y11403743D01*
X24352000Y11508328D01*
X24352000Y11900000D01*
X24350914Y11916577D01*
X24333877Y12045987D01*
X24325296Y12078011D01*
X24275346Y12198601D01*
X24258768Y12227313D01*
X24179308Y12330866D01*
X24155866Y12354308D01*
X24052313Y12433768D01*
X24023601Y12450346D01*
X23903011Y12500296D01*
X23870987Y12508877D01*
X23741577Y12525914D01*
X23725000Y12527000D01*
X21962509Y12527000D01*
X21875181Y12544371D01*
X21811752Y12586752D01*
X21769371Y12650181D01*
X21754488Y12725000D01*
X21769371Y12799819D01*
X21811752Y12863248D01*
X21875181Y12905629D01*
X21962509Y12923000D01*
X23725000Y12923000D01*
X23741577Y12924086D01*
X23870987Y12941123D01*
X23903011Y12949704D01*
X24023601Y12999654D01*
X24052313Y13016232D01*
X24155866Y13095692D01*
X24179308Y13119134D01*
X24258768Y13222687D01*
X24275346Y13251399D01*
X24325296Y13371989D01*
X24333877Y13404013D01*
X24350914Y13533423D01*
X24352000Y13550000D01*
X24352000Y13841672D01*
X24365769Y13946257D01*
X24402923Y14035955D01*
X24462024Y14112976D01*
X24539045Y14172077D01*
X24628743Y14209231D01*
X24733328Y14223000D01*
X25241672Y14223000D01*
X25346257Y14209231D01*
%TA.AperFunction,Conductor*%
G36*
X25346257Y14209231D02*
G01*
X25435955Y14172077D01*
X25512976Y14112976D01*
X25572077Y14035955D01*
X25609231Y13946257D01*
X25623000Y13841672D01*
X25623000Y11508328D01*
X25609231Y11403743D01*
X25572077Y11314045D01*
X25512976Y11237024D01*
X25435955Y11177923D01*
X25346257Y11140769D01*
X25241672Y11127000D01*
X24733328Y11127000D01*
X24628743Y11140769D01*
X24539045Y11177923D01*
X24462024Y11237024D01*
X24402923Y11314045D01*
X24365769Y11403743D01*
X24352000Y11508328D01*
X24352000Y11900000D01*
X24350914Y11916577D01*
X24333877Y12045987D01*
X24325296Y12078011D01*
X24275346Y12198601D01*
X24258768Y12227313D01*
X24179308Y12330866D01*
X24155866Y12354308D01*
X24052313Y12433768D01*
X24023601Y12450346D01*
X23903011Y12500296D01*
X23870987Y12508877D01*
X23741577Y12525914D01*
X23725000Y12527000D01*
X21962509Y12527000D01*
X21875181Y12544371D01*
X21811752Y12586752D01*
X21769371Y12650181D01*
X21754488Y12725000D01*
X21769371Y12799819D01*
X21811752Y12863248D01*
X21875181Y12905629D01*
X21962509Y12923000D01*
X23725000Y12923000D01*
X23741577Y12924086D01*
X23870987Y12941123D01*
X23903011Y12949704D01*
X24023601Y12999654D01*
X24052313Y13016232D01*
X24155866Y13095692D01*
X24179308Y13119134D01*
X24258768Y13222687D01*
X24275346Y13251399D01*
X24325296Y13371989D01*
X24333877Y13404013D01*
X24350914Y13533423D01*
X24352000Y13550000D01*
X24352000Y13841672D01*
X24365769Y13946257D01*
X24402923Y14035955D01*
X24462024Y14112976D01*
X24539045Y14172077D01*
X24628743Y14209231D01*
X24733328Y14223000D01*
X25241672Y14223000D01*
X25346257Y14209231D01*
G37*
%TD.AperFunction*%
X25346257Y20209231D02*
X25435955Y20172077D01*
X25512976Y20112976D01*
X25572077Y20035955D01*
X25609231Y19946257D01*
X25623000Y19841672D01*
X25623000Y17508328D01*
X25609231Y17403743D01*
X25572077Y17314045D01*
X25512976Y17237024D01*
X25435955Y17177923D01*
X25346257Y17140769D01*
X25241672Y17127000D01*
X24733328Y17127000D01*
X24628743Y17140769D01*
X24539045Y17177923D01*
X24462024Y17237024D01*
X24402923Y17314045D01*
X24365769Y17403743D01*
X24352000Y17508328D01*
X24352000Y17900000D01*
X24350914Y17916577D01*
X24333877Y18045987D01*
X24325296Y18078011D01*
X24275346Y18198601D01*
X24258768Y18227313D01*
X24179308Y18330866D01*
X24155866Y18354308D01*
X24052313Y18433768D01*
X24023601Y18450346D01*
X23903011Y18500296D01*
X23870987Y18508877D01*
X23741577Y18525914D01*
X23725000Y18527000D01*
X21962509Y18527000D01*
X21875181Y18544371D01*
X21811752Y18586752D01*
X21769371Y18650181D01*
X21754488Y18725000D01*
X21769371Y18799819D01*
X21811752Y18863248D01*
X21875181Y18905629D01*
X21962509Y18923000D01*
X23725000Y18923000D01*
X23741577Y18924086D01*
X23870987Y18941123D01*
X23903011Y18949704D01*
X24023601Y18999654D01*
X24052313Y19016232D01*
X24155866Y19095692D01*
X24179308Y19119134D01*
X24258768Y19222687D01*
X24275346Y19251399D01*
X24325296Y19371989D01*
X24333877Y19404013D01*
X24350914Y19533423D01*
X24352000Y19550000D01*
X24352000Y19841672D01*
X24365769Y19946257D01*
X24402923Y20035955D01*
X24462024Y20112976D01*
X24539045Y20172077D01*
X24628743Y20209231D01*
X24733328Y20223000D01*
X25241672Y20223000D01*
X25346257Y20209231D01*
%TA.AperFunction,Conductor*%
G36*
X25346257Y20209231D02*
G01*
X25435955Y20172077D01*
X25512976Y20112976D01*
X25572077Y20035955D01*
X25609231Y19946257D01*
X25623000Y19841672D01*
X25623000Y17508328D01*
X25609231Y17403743D01*
X25572077Y17314045D01*
X25512976Y17237024D01*
X25435955Y17177923D01*
X25346257Y17140769D01*
X25241672Y17127000D01*
X24733328Y17127000D01*
X24628743Y17140769D01*
X24539045Y17177923D01*
X24462024Y17237024D01*
X24402923Y17314045D01*
X24365769Y17403743D01*
X24352000Y17508328D01*
X24352000Y17900000D01*
X24350914Y17916577D01*
X24333877Y18045987D01*
X24325296Y18078011D01*
X24275346Y18198601D01*
X24258768Y18227313D01*
X24179308Y18330866D01*
X24155866Y18354308D01*
X24052313Y18433768D01*
X24023601Y18450346D01*
X23903011Y18500296D01*
X23870987Y18508877D01*
X23741577Y18525914D01*
X23725000Y18527000D01*
X21962509Y18527000D01*
X21875181Y18544371D01*
X21811752Y18586752D01*
X21769371Y18650181D01*
X21754488Y18725000D01*
X21769371Y18799819D01*
X21811752Y18863248D01*
X21875181Y18905629D01*
X21962509Y18923000D01*
X23725000Y18923000D01*
X23741577Y18924086D01*
X23870987Y18941123D01*
X23903011Y18949704D01*
X24023601Y18999654D01*
X24052313Y19016232D01*
X24155866Y19095692D01*
X24179308Y19119134D01*
X24258768Y19222687D01*
X24275346Y19251399D01*
X24325296Y19371989D01*
X24333877Y19404013D01*
X24350914Y19533423D01*
X24352000Y19550000D01*
X24352000Y19841672D01*
X24365769Y19946257D01*
X24402923Y20035955D01*
X24462024Y20112976D01*
X24539045Y20172077D01*
X24628743Y20209231D01*
X24733328Y20223000D01*
X25241672Y20223000D01*
X25346257Y20209231D01*
G37*
%TD.AperFunction*%
X25346257Y26209231D02*
X25435955Y26172077D01*
X25512976Y26112976D01*
X25572077Y26035955D01*
X25609231Y25946257D01*
X25623000Y25841672D01*
X25623000Y23508328D01*
X25609231Y23403743D01*
X25572077Y23314045D01*
X25512976Y23237024D01*
X25435955Y23177923D01*
X25346257Y23140769D01*
X25241672Y23127000D01*
X24733328Y23127000D01*
X24628743Y23140769D01*
X24539045Y23177923D01*
X24462024Y23237024D01*
X24402923Y23314045D01*
X24365769Y23403743D01*
X24352000Y23508328D01*
X24352000Y23900000D01*
X24350914Y23916577D01*
X24333877Y24045987D01*
X24325296Y24078011D01*
X24275346Y24198601D01*
X24258768Y24227313D01*
X24179308Y24330866D01*
X24155866Y24354308D01*
X24052313Y24433768D01*
X24023601Y24450346D01*
X23903011Y24500296D01*
X23870987Y24508877D01*
X23741577Y24525914D01*
X23725000Y24527000D01*
X21962509Y24527000D01*
X21875181Y24544371D01*
X21811752Y24586752D01*
X21769371Y24650181D01*
X21754488Y24725000D01*
X21769371Y24799819D01*
X21811752Y24863248D01*
X21875181Y24905629D01*
X21962509Y24923000D01*
X23725000Y24923000D01*
X23741577Y24924086D01*
X23870987Y24941123D01*
X23903011Y24949704D01*
X24023601Y24999654D01*
X24052313Y25016232D01*
X24155866Y25095692D01*
X24179308Y25119134D01*
X24258768Y25222687D01*
X24275346Y25251399D01*
X24325296Y25371989D01*
X24333877Y25404013D01*
X24350914Y25533423D01*
X24352000Y25550000D01*
X24352000Y25841672D01*
X24365769Y25946257D01*
X24402923Y26035955D01*
X24462024Y26112976D01*
X24539045Y26172077D01*
X24628743Y26209231D01*
X24733328Y26223000D01*
X25241672Y26223000D01*
X25346257Y26209231D01*
%TA.AperFunction,Conductor*%
G36*
X25346257Y26209231D02*
G01*
X25435955Y26172077D01*
X25512976Y26112976D01*
X25572077Y26035955D01*
X25609231Y25946257D01*
X25623000Y25841672D01*
X25623000Y23508328D01*
X25609231Y23403743D01*
X25572077Y23314045D01*
X25512976Y23237024D01*
X25435955Y23177923D01*
X25346257Y23140769D01*
X25241672Y23127000D01*
X24733328Y23127000D01*
X24628743Y23140769D01*
X24539045Y23177923D01*
X24462024Y23237024D01*
X24402923Y23314045D01*
X24365769Y23403743D01*
X24352000Y23508328D01*
X24352000Y23900000D01*
X24350914Y23916577D01*
X24333877Y24045987D01*
X24325296Y24078011D01*
X24275346Y24198601D01*
X24258768Y24227313D01*
X24179308Y24330866D01*
X24155866Y24354308D01*
X24052313Y24433768D01*
X24023601Y24450346D01*
X23903011Y24500296D01*
X23870987Y24508877D01*
X23741577Y24525914D01*
X23725000Y24527000D01*
X21962509Y24527000D01*
X21875181Y24544371D01*
X21811752Y24586752D01*
X21769371Y24650181D01*
X21754488Y24725000D01*
X21769371Y24799819D01*
X21811752Y24863248D01*
X21875181Y24905629D01*
X21962509Y24923000D01*
X23725000Y24923000D01*
X23741577Y24924086D01*
X23870987Y24941123D01*
X23903011Y24949704D01*
X24023601Y24999654D01*
X24052313Y25016232D01*
X24155866Y25095692D01*
X24179308Y25119134D01*
X24258768Y25222687D01*
X24275346Y25251399D01*
X24325296Y25371989D01*
X24333877Y25404013D01*
X24350914Y25533423D01*
X24352000Y25550000D01*
X24352000Y25841672D01*
X24365769Y25946257D01*
X24402923Y26035955D01*
X24462024Y26112976D01*
X24539045Y26172077D01*
X24628743Y26209231D01*
X24733328Y26223000D01*
X25241672Y26223000D01*
X25346257Y26209231D01*
G37*
%TD.AperFunction*%
X25346257Y32209231D02*
X25435955Y32172077D01*
X25512976Y32112976D01*
X25572077Y32035955D01*
X25609231Y31946257D01*
X25623000Y31841672D01*
X25623000Y29508328D01*
X25609231Y29403743D01*
X25572077Y29314045D01*
X25512976Y29237024D01*
X25435955Y29177923D01*
X25346257Y29140769D01*
X25241672Y29127000D01*
X24733328Y29127000D01*
X24628743Y29140769D01*
X24539045Y29177923D01*
X24462024Y29237024D01*
X24402923Y29314045D01*
X24365769Y29403743D01*
X24352000Y29508328D01*
X24352000Y29900000D01*
X24350914Y29916577D01*
X24333877Y30045987D01*
X24325296Y30078011D01*
X24275346Y30198601D01*
X24258768Y30227313D01*
X24179308Y30330866D01*
X24155866Y30354308D01*
X24052313Y30433768D01*
X24023601Y30450346D01*
X23903011Y30500296D01*
X23870987Y30508877D01*
X23741577Y30525914D01*
X23725000Y30527000D01*
X21962509Y30527000D01*
X21875181Y30544371D01*
X21811752Y30586752D01*
X21769371Y30650181D01*
X21754488Y30725000D01*
X21769371Y30799819D01*
X21811752Y30863248D01*
X21875181Y30905629D01*
X21962509Y30923000D01*
X23725000Y30923000D01*
X23741577Y30924086D01*
X23870987Y30941123D01*
X23903011Y30949704D01*
X24023601Y30999654D01*
X24052313Y31016232D01*
X24155866Y31095692D01*
X24179308Y31119134D01*
X24258768Y31222687D01*
X24275346Y31251399D01*
X24325296Y31371989D01*
X24333877Y31404013D01*
X24350914Y31533423D01*
X24352000Y31550000D01*
X24352000Y31841672D01*
X24365769Y31946257D01*
X24402923Y32035955D01*
X24462024Y32112976D01*
X24539045Y32172077D01*
X24628743Y32209231D01*
X24733328Y32223000D01*
X25241672Y32223000D01*
X25346257Y32209231D01*
%TA.AperFunction,Conductor*%
G36*
X25346257Y32209231D02*
G01*
X25435955Y32172077D01*
X25512976Y32112976D01*
X25572077Y32035955D01*
X25609231Y31946257D01*
X25623000Y31841672D01*
X25623000Y29508328D01*
X25609231Y29403743D01*
X25572077Y29314045D01*
X25512976Y29237024D01*
X25435955Y29177923D01*
X25346257Y29140769D01*
X25241672Y29127000D01*
X24733328Y29127000D01*
X24628743Y29140769D01*
X24539045Y29177923D01*
X24462024Y29237024D01*
X24402923Y29314045D01*
X24365769Y29403743D01*
X24352000Y29508328D01*
X24352000Y29900000D01*
X24350914Y29916577D01*
X24333877Y30045987D01*
X24325296Y30078011D01*
X24275346Y30198601D01*
X24258768Y30227313D01*
X24179308Y30330866D01*
X24155866Y30354308D01*
X24052313Y30433768D01*
X24023601Y30450346D01*
X23903011Y30500296D01*
X23870987Y30508877D01*
X23741577Y30525914D01*
X23725000Y30527000D01*
X21962509Y30527000D01*
X21875181Y30544371D01*
X21811752Y30586752D01*
X21769371Y30650181D01*
X21754488Y30725000D01*
X21769371Y30799819D01*
X21811752Y30863248D01*
X21875181Y30905629D01*
X21962509Y30923000D01*
X23725000Y30923000D01*
X23741577Y30924086D01*
X23870987Y30941123D01*
X23903011Y30949704D01*
X24023601Y30999654D01*
X24052313Y31016232D01*
X24155866Y31095692D01*
X24179308Y31119134D01*
X24258768Y31222687D01*
X24275346Y31251399D01*
X24325296Y31371989D01*
X24333877Y31404013D01*
X24350914Y31533423D01*
X24352000Y31550000D01*
X24352000Y31841672D01*
X24365769Y31946257D01*
X24402923Y32035955D01*
X24462024Y32112976D01*
X24539045Y32172077D01*
X24628743Y32209231D01*
X24733328Y32223000D01*
X25241672Y32223000D01*
X25346257Y32209231D01*
G37*
%TD.AperFunction*%
X25331457Y38209231D02*
X25421155Y38172077D01*
X25498176Y38112976D01*
X25557277Y38035955D01*
X25594431Y37946257D01*
X25608200Y37841672D01*
X25608200Y35508328D01*
X25594431Y35403743D01*
X25557277Y35314045D01*
X25498176Y35237024D01*
X25421155Y35177923D01*
X25331457Y35140769D01*
X25226872Y35127000D01*
X24718528Y35127000D01*
X24613943Y35140769D01*
X24524245Y35177923D01*
X24447224Y35237024D01*
X24388123Y35314045D01*
X24350969Y35403743D01*
X24337200Y35508328D01*
X24337200Y35900000D01*
X24336114Y35916577D01*
X24319077Y36045987D01*
X24310496Y36078011D01*
X24260546Y36198601D01*
X24243968Y36227313D01*
X24164508Y36330866D01*
X24141066Y36354308D01*
X24037513Y36433768D01*
X24008801Y36450346D01*
X23888211Y36500296D01*
X23856187Y36508877D01*
X23726777Y36525914D01*
X23710200Y36527000D01*
X21947709Y36527000D01*
X21860381Y36544371D01*
X21796952Y36586752D01*
X21754571Y36650181D01*
X21739688Y36725000D01*
X21754571Y36799819D01*
X21796952Y36863248D01*
X21860381Y36905629D01*
X21947709Y36923000D01*
X23710200Y36923000D01*
X23726777Y36924086D01*
X23856187Y36941123D01*
X23888211Y36949704D01*
X24008801Y36999654D01*
X24037513Y37016232D01*
X24141066Y37095692D01*
X24164508Y37119134D01*
X24243968Y37222687D01*
X24260546Y37251399D01*
X24310496Y37371989D01*
X24319077Y37404013D01*
X24336114Y37533423D01*
X24337200Y37550000D01*
X24337200Y37841672D01*
X24350969Y37946257D01*
X24388123Y38035955D01*
X24447224Y38112976D01*
X24524245Y38172077D01*
X24613943Y38209231D01*
X24718528Y38223000D01*
X25226872Y38223000D01*
X25331457Y38209231D01*
%TA.AperFunction,Conductor*%
G36*
X25331457Y38209231D02*
G01*
X25421155Y38172077D01*
X25498176Y38112976D01*
X25557277Y38035955D01*
X25594431Y37946257D01*
X25608200Y37841672D01*
X25608200Y35508328D01*
X25594431Y35403743D01*
X25557277Y35314045D01*
X25498176Y35237024D01*
X25421155Y35177923D01*
X25331457Y35140769D01*
X25226872Y35127000D01*
X24718528Y35127000D01*
X24613943Y35140769D01*
X24524245Y35177923D01*
X24447224Y35237024D01*
X24388123Y35314045D01*
X24350969Y35403743D01*
X24337200Y35508328D01*
X24337200Y35900000D01*
X24336114Y35916577D01*
X24319077Y36045987D01*
X24310496Y36078011D01*
X24260546Y36198601D01*
X24243968Y36227313D01*
X24164508Y36330866D01*
X24141066Y36354308D01*
X24037513Y36433768D01*
X24008801Y36450346D01*
X23888211Y36500296D01*
X23856187Y36508877D01*
X23726777Y36525914D01*
X23710200Y36527000D01*
X21947709Y36527000D01*
X21860381Y36544371D01*
X21796952Y36586752D01*
X21754571Y36650181D01*
X21739688Y36725000D01*
X21754571Y36799819D01*
X21796952Y36863248D01*
X21860381Y36905629D01*
X21947709Y36923000D01*
X23710200Y36923000D01*
X23726777Y36924086D01*
X23856187Y36941123D01*
X23888211Y36949704D01*
X24008801Y36999654D01*
X24037513Y37016232D01*
X24141066Y37095692D01*
X24164508Y37119134D01*
X24243968Y37222687D01*
X24260546Y37251399D01*
X24310496Y37371989D01*
X24319077Y37404013D01*
X24336114Y37533423D01*
X24337200Y37550000D01*
X24337200Y37841672D01*
X24350969Y37946257D01*
X24388123Y38035955D01*
X24447224Y38112976D01*
X24524245Y38172077D01*
X24613943Y38209231D01*
X24718528Y38223000D01*
X25226872Y38223000D01*
X25331457Y38209231D01*
G37*
%TD.AperFunction*%
X25331457Y44159231D02*
X25421155Y44122077D01*
X25498176Y44062976D01*
X25557277Y43985955D01*
X25594431Y43896257D01*
X25608200Y43791672D01*
X25608200Y41458328D01*
X25594431Y41353743D01*
X25557277Y41264045D01*
X25498176Y41187024D01*
X25421155Y41127923D01*
X25331457Y41090769D01*
X25226872Y41077000D01*
X24718528Y41077000D01*
X24613943Y41090769D01*
X24524245Y41127923D01*
X24447224Y41187024D01*
X24388123Y41264045D01*
X24350969Y41353743D01*
X24337200Y41458328D01*
X24337200Y41850000D01*
X24336114Y41866577D01*
X24319077Y41995987D01*
X24310496Y42028011D01*
X24260546Y42148601D01*
X24243968Y42177313D01*
X24164508Y42280866D01*
X24141066Y42304308D01*
X24037513Y42383768D01*
X24008801Y42400346D01*
X23888211Y42450296D01*
X23856187Y42458877D01*
X23726777Y42475914D01*
X23710200Y42477000D01*
X21947709Y42477000D01*
X21860381Y42494371D01*
X21796952Y42536752D01*
X21754571Y42600181D01*
X21739688Y42675000D01*
X21754571Y42749819D01*
X21796952Y42813248D01*
X21860381Y42855629D01*
X21947709Y42873000D01*
X23710200Y42873000D01*
X23726777Y42874086D01*
X23856187Y42891123D01*
X23888211Y42899704D01*
X24008801Y42949654D01*
X24037513Y42966232D01*
X24141066Y43045692D01*
X24164508Y43069134D01*
X24243968Y43172687D01*
X24260546Y43201399D01*
X24310496Y43321989D01*
X24319077Y43354013D01*
X24336114Y43483423D01*
X24337200Y43500000D01*
X24337200Y43791672D01*
X24350969Y43896257D01*
X24388123Y43985955D01*
X24447224Y44062976D01*
X24524245Y44122077D01*
X24613943Y44159231D01*
X24718528Y44173000D01*
X25226872Y44173000D01*
X25331457Y44159231D01*
%TA.AperFunction,Conductor*%
G36*
X25331457Y44159231D02*
G01*
X25421155Y44122077D01*
X25498176Y44062976D01*
X25557277Y43985955D01*
X25594431Y43896257D01*
X25608200Y43791672D01*
X25608200Y41458328D01*
X25594431Y41353743D01*
X25557277Y41264045D01*
X25498176Y41187024D01*
X25421155Y41127923D01*
X25331457Y41090769D01*
X25226872Y41077000D01*
X24718528Y41077000D01*
X24613943Y41090769D01*
X24524245Y41127923D01*
X24447224Y41187024D01*
X24388123Y41264045D01*
X24350969Y41353743D01*
X24337200Y41458328D01*
X24337200Y41850000D01*
X24336114Y41866577D01*
X24319077Y41995987D01*
X24310496Y42028011D01*
X24260546Y42148601D01*
X24243968Y42177313D01*
X24164508Y42280866D01*
X24141066Y42304308D01*
X24037513Y42383768D01*
X24008801Y42400346D01*
X23888211Y42450296D01*
X23856187Y42458877D01*
X23726777Y42475914D01*
X23710200Y42477000D01*
X21947709Y42477000D01*
X21860381Y42494371D01*
X21796952Y42536752D01*
X21754571Y42600181D01*
X21739688Y42675000D01*
X21754571Y42749819D01*
X21796952Y42813248D01*
X21860381Y42855629D01*
X21947709Y42873000D01*
X23710200Y42873000D01*
X23726777Y42874086D01*
X23856187Y42891123D01*
X23888211Y42899704D01*
X24008801Y42949654D01*
X24037513Y42966232D01*
X24141066Y43045692D01*
X24164508Y43069134D01*
X24243968Y43172687D01*
X24260546Y43201399D01*
X24310496Y43321989D01*
X24319077Y43354013D01*
X24336114Y43483423D01*
X24337200Y43500000D01*
X24337200Y43791672D01*
X24350969Y43896257D01*
X24388123Y43985955D01*
X24447224Y44062976D01*
X24524245Y44122077D01*
X24613943Y44159231D01*
X24718528Y44173000D01*
X25226872Y44173000D01*
X25331457Y44159231D01*
G37*
%TD.AperFunction*%
X25331457Y50209231D02*
X25421155Y50172077D01*
X25498176Y50112976D01*
X25557277Y50035955D01*
X25594431Y49946257D01*
X25608200Y49841672D01*
X25608200Y47508328D01*
X25594431Y47403743D01*
X25557277Y47314045D01*
X25498176Y47237024D01*
X25421155Y47177923D01*
X25331457Y47140769D01*
X25226872Y47127000D01*
X24718528Y47127000D01*
X24613943Y47140769D01*
X24524245Y47177923D01*
X24447224Y47237024D01*
X24388123Y47314045D01*
X24350969Y47403743D01*
X24337200Y47508328D01*
X24337200Y47900000D01*
X24336114Y47916577D01*
X24319077Y48045987D01*
X24310496Y48078011D01*
X24260546Y48198601D01*
X24243968Y48227313D01*
X24164508Y48330866D01*
X24141066Y48354308D01*
X24037513Y48433768D01*
X24008801Y48450346D01*
X23888211Y48500296D01*
X23856187Y48508877D01*
X23726777Y48525914D01*
X23710200Y48527000D01*
X21947709Y48527000D01*
X21860381Y48544371D01*
X21796952Y48586752D01*
X21754571Y48650181D01*
X21739688Y48725000D01*
X21754571Y48799819D01*
X21796952Y48863248D01*
X21860381Y48905629D01*
X21947709Y48923000D01*
X23710200Y48923000D01*
X23726777Y48924086D01*
X23856187Y48941123D01*
X23888211Y48949704D01*
X24008801Y48999654D01*
X24037513Y49016232D01*
X24141066Y49095692D01*
X24164508Y49119134D01*
X24243968Y49222687D01*
X24260546Y49251399D01*
X24310496Y49371989D01*
X24319077Y49404013D01*
X24336114Y49533423D01*
X24337200Y49550000D01*
X24337200Y49841672D01*
X24350969Y49946257D01*
X24388123Y50035955D01*
X24447224Y50112976D01*
X24524245Y50172077D01*
X24613943Y50209231D01*
X24718528Y50223000D01*
X25226872Y50223000D01*
X25331457Y50209231D01*
%TA.AperFunction,Conductor*%
G36*
X25331457Y50209231D02*
G01*
X25421155Y50172077D01*
X25498176Y50112976D01*
X25557277Y50035955D01*
X25594431Y49946257D01*
X25608200Y49841672D01*
X25608200Y47508328D01*
X25594431Y47403743D01*
X25557277Y47314045D01*
X25498176Y47237024D01*
X25421155Y47177923D01*
X25331457Y47140769D01*
X25226872Y47127000D01*
X24718528Y47127000D01*
X24613943Y47140769D01*
X24524245Y47177923D01*
X24447224Y47237024D01*
X24388123Y47314045D01*
X24350969Y47403743D01*
X24337200Y47508328D01*
X24337200Y47900000D01*
X24336114Y47916577D01*
X24319077Y48045987D01*
X24310496Y48078011D01*
X24260546Y48198601D01*
X24243968Y48227313D01*
X24164508Y48330866D01*
X24141066Y48354308D01*
X24037513Y48433768D01*
X24008801Y48450346D01*
X23888211Y48500296D01*
X23856187Y48508877D01*
X23726777Y48525914D01*
X23710200Y48527000D01*
X21947709Y48527000D01*
X21860381Y48544371D01*
X21796952Y48586752D01*
X21754571Y48650181D01*
X21739688Y48725000D01*
X21754571Y48799819D01*
X21796952Y48863248D01*
X21860381Y48905629D01*
X21947709Y48923000D01*
X23710200Y48923000D01*
X23726777Y48924086D01*
X23856187Y48941123D01*
X23888211Y48949704D01*
X24008801Y48999654D01*
X24037513Y49016232D01*
X24141066Y49095692D01*
X24164508Y49119134D01*
X24243968Y49222687D01*
X24260546Y49251399D01*
X24310496Y49371989D01*
X24319077Y49404013D01*
X24336114Y49533423D01*
X24337200Y49550000D01*
X24337200Y49841672D01*
X24350969Y49946257D01*
X24388123Y50035955D01*
X24447224Y50112976D01*
X24524245Y50172077D01*
X24613943Y50209231D01*
X24718528Y50223000D01*
X25226872Y50223000D01*
X25331457Y50209231D01*
G37*
%TD.AperFunction*%
X44046257Y7884231D02*
X44098000Y7862798D01*
X44098000Y352000D01*
X352000Y352000D01*
X352000Y2137798D01*
X403743Y2159231D01*
X508328Y2173000D01*
X21375000Y2173000D01*
X21391577Y2174086D01*
X21520987Y2191123D01*
X21553011Y2199704D01*
X21673601Y2249654D01*
X21702313Y2266232D01*
X21805866Y2345692D01*
X21829308Y2369134D01*
X21908768Y2472687D01*
X21925346Y2501399D01*
X21975296Y2621989D01*
X21983877Y2654013D01*
X22000914Y2783423D01*
X22002000Y2800000D01*
X22002000Y4375000D01*
X21997672Y4407870D01*
X21980925Y4470370D01*
X21972156Y4493671D01*
X21959009Y4514813D01*
X21948056Y4527303D01*
X21902303Y4573056D01*
X21883057Y4588850D01*
X21861101Y4600586D01*
X21845370Y4605925D01*
X21755110Y4630110D01*
X21752000Y4641718D01*
X21752000Y4812491D01*
X21769371Y4899819D01*
X21811752Y4963248D01*
X21875181Y5005629D01*
X21962509Y5023000D01*
X22666672Y5023000D01*
X22771257Y5009231D01*
X22860955Y4972077D01*
X22937976Y4912976D01*
X22997077Y4835955D01*
X23034231Y4746257D01*
X23048000Y4641672D01*
X23048000Y4225000D01*
X23049086Y4208423D01*
X23066123Y4079013D01*
X23074704Y4046989D01*
X23124654Y3926399D01*
X23141232Y3897687D01*
X23220692Y3794134D01*
X23244134Y3770692D01*
X23347687Y3691232D01*
X23376399Y3674654D01*
X23496989Y3624704D01*
X23529013Y3616123D01*
X23658423Y3599086D01*
X23675000Y3598000D01*
X37118742Y3598000D01*
X37135258Y3599078D01*
X37264201Y3615990D01*
X37296116Y3624509D01*
X37416335Y3674102D01*
X37444973Y3690562D01*
X37548338Y3769480D01*
X37560811Y3780361D01*
X41587387Y7783663D01*
X41670927Y7847445D01*
X41760346Y7884332D01*
X41864555Y7898000D01*
X43941672Y7898000D01*
X44046257Y7884231D01*
%TA.AperFunction,Conductor*%
G36*
X44046257Y7884231D02*
G01*
X44098000Y7862798D01*
X44098000Y352000D01*
X352000Y352000D01*
X352000Y2137798D01*
X403743Y2159231D01*
X508328Y2173000D01*
X21375000Y2173000D01*
X21391577Y2174086D01*
X21520987Y2191123D01*
X21553011Y2199704D01*
X21673601Y2249654D01*
X21702313Y2266232D01*
X21805866Y2345692D01*
X21829308Y2369134D01*
X21908768Y2472687D01*
X21925346Y2501399D01*
X21975296Y2621989D01*
X21983877Y2654013D01*
X22000914Y2783423D01*
X22002000Y2800000D01*
X22002000Y4375000D01*
X21997672Y4407870D01*
X21980925Y4470370D01*
X21972156Y4493671D01*
X21959009Y4514813D01*
X21948056Y4527303D01*
X21902303Y4573056D01*
X21883057Y4588850D01*
X21861101Y4600586D01*
X21845370Y4605925D01*
X21755110Y4630110D01*
X21752000Y4641718D01*
X21752000Y4812491D01*
X21769371Y4899819D01*
X21811752Y4963248D01*
X21875181Y5005629D01*
X21962509Y5023000D01*
X22666672Y5023000D01*
X22771257Y5009231D01*
X22860955Y4972077D01*
X22937976Y4912976D01*
X22997077Y4835955D01*
X23034231Y4746257D01*
X23048000Y4641672D01*
X23048000Y4225000D01*
X23049086Y4208423D01*
X23066123Y4079013D01*
X23074704Y4046989D01*
X23124654Y3926399D01*
X23141232Y3897687D01*
X23220692Y3794134D01*
X23244134Y3770692D01*
X23347687Y3691232D01*
X23376399Y3674654D01*
X23496989Y3624704D01*
X23529013Y3616123D01*
X23658423Y3599086D01*
X23675000Y3598000D01*
X37118742Y3598000D01*
X37135258Y3599078D01*
X37264201Y3615990D01*
X37296116Y3624509D01*
X37416335Y3674102D01*
X37444973Y3690562D01*
X37548338Y3769480D01*
X37560811Y3780361D01*
X41587387Y7783663D01*
X41670927Y7847445D01*
X41760346Y7884332D01*
X41864555Y7898000D01*
X43941672Y7898000D01*
X44046257Y7884231D01*
G37*
%TD.AperFunction*%
X20240251Y50732533D02*
X20295570Y50695570D01*
X20332533Y50640251D01*
X20348000Y50562491D01*
X20348000Y48712509D01*
X20332533Y48634749D01*
X20295570Y48579430D01*
X20240251Y48542467D01*
X20172878Y48529066D01*
X18920000Y48529066D01*
X18899022Y48527000D01*
X18875000Y48527000D01*
X18850224Y48524560D01*
X18735419Y48501724D01*
X18711594Y48494497D01*
X18689637Y48482761D01*
X18592310Y48417729D01*
X18573065Y48401934D01*
X18557271Y48382690D01*
X18492239Y48285363D01*
X18480503Y48263406D01*
X18473276Y48239581D01*
X18450440Y48124776D01*
X18448000Y48100000D01*
X18448000Y47450000D01*
X18450440Y47425224D01*
X18473276Y47310419D01*
X18480503Y47286594D01*
X18492239Y47264637D01*
X18557271Y47167310D01*
X18573066Y47148065D01*
X18592310Y47132271D01*
X18689637Y47067239D01*
X18711594Y47055503D01*
X18735419Y47048276D01*
X18850224Y47025440D01*
X18875000Y47023000D01*
X18899022Y47023000D01*
X18920000Y47020934D01*
X20172878Y47020934D01*
X20240251Y47007533D01*
X20295570Y46970570D01*
X20332533Y46915251D01*
X20348000Y46837491D01*
X20348000Y45950000D01*
X20350440Y45925224D01*
X20373276Y45810419D01*
X20380503Y45786594D01*
X20392239Y45764637D01*
X20457271Y45667310D01*
X20473066Y45648065D01*
X20492310Y45632271D01*
X20589637Y45567239D01*
X20611594Y45555503D01*
X20635419Y45548276D01*
X20750224Y45525440D01*
X20775000Y45523000D01*
X20862491Y45523000D01*
X20940251Y45507533D01*
X20995570Y45470570D01*
X21032533Y45415251D01*
X21048000Y45337491D01*
X21048000Y44937509D01*
X21038241Y44888448D01*
X21017537Y44857463D01*
X20986552Y44836759D01*
X20937491Y44827000D01*
X20861773Y44827000D01*
X20784013Y44842467D01*
X20718090Y44886516D01*
X19102671Y46501935D01*
X19083426Y46517729D01*
X18986099Y46582761D01*
X18964142Y46594497D01*
X18940317Y46601724D01*
X18825512Y46624560D01*
X18800736Y46627000D01*
X18337509Y46627000D01*
X18259749Y46642467D01*
X18204430Y46679430D01*
X18167467Y46734749D01*
X18152000Y46812509D01*
X18152000Y48845779D01*
X18163985Y48890509D01*
X18184491Y48911015D01*
X18339120Y48952447D01*
X18362420Y48961217D01*
X18383562Y48974364D01*
X18396053Y48985317D01*
X18464683Y49053947D01*
X18480477Y49073193D01*
X18492213Y49095149D01*
X18497553Y49110880D01*
X18522673Y49204630D01*
X18527000Y49237500D01*
X18527000Y50562491D01*
X18542467Y50640251D01*
X18579430Y50695570D01*
X18634749Y50732533D01*
X18712509Y50748000D01*
X20162491Y50748000D01*
X20240251Y50732533D01*
%TA.AperFunction,Conductor*%
G36*
X20240251Y50732533D02*
G01*
X20295570Y50695570D01*
X20332533Y50640251D01*
X20348000Y50562491D01*
X20348000Y48712509D01*
X20332533Y48634749D01*
X20295570Y48579430D01*
X20240251Y48542467D01*
X20172878Y48529066D01*
X18920000Y48529066D01*
X18899022Y48527000D01*
X18875000Y48527000D01*
X18850224Y48524560D01*
X18735419Y48501724D01*
X18711594Y48494497D01*
X18689637Y48482761D01*
X18592310Y48417729D01*
X18573065Y48401934D01*
X18557271Y48382690D01*
X18492239Y48285363D01*
X18480503Y48263406D01*
X18473276Y48239581D01*
X18450440Y48124776D01*
X18448000Y48100000D01*
X18448000Y47450000D01*
X18450440Y47425224D01*
X18473276Y47310419D01*
X18480503Y47286594D01*
X18492239Y47264637D01*
X18557271Y47167310D01*
X18573066Y47148065D01*
X18592310Y47132271D01*
X18689637Y47067239D01*
X18711594Y47055503D01*
X18735419Y47048276D01*
X18850224Y47025440D01*
X18875000Y47023000D01*
X18899022Y47023000D01*
X18920000Y47020934D01*
X20172878Y47020934D01*
X20240251Y47007533D01*
X20295570Y46970570D01*
X20332533Y46915251D01*
X20348000Y46837491D01*
X20348000Y45950000D01*
X20350440Y45925224D01*
X20373276Y45810419D01*
X20380503Y45786594D01*
X20392239Y45764637D01*
X20457271Y45667310D01*
X20473066Y45648065D01*
X20492310Y45632271D01*
X20589637Y45567239D01*
X20611594Y45555503D01*
X20635419Y45548276D01*
X20750224Y45525440D01*
X20775000Y45523000D01*
X20862491Y45523000D01*
X20940251Y45507533D01*
X20995570Y45470570D01*
X21032533Y45415251D01*
X21048000Y45337491D01*
X21048000Y44937509D01*
X21038241Y44888448D01*
X21017537Y44857463D01*
X20986552Y44836759D01*
X20937491Y44827000D01*
X20861773Y44827000D01*
X20784013Y44842467D01*
X20718090Y44886516D01*
X19102671Y46501935D01*
X19083426Y46517729D01*
X18986099Y46582761D01*
X18964142Y46594497D01*
X18940317Y46601724D01*
X18825512Y46624560D01*
X18800736Y46627000D01*
X18337509Y46627000D01*
X18259749Y46642467D01*
X18204430Y46679430D01*
X18167467Y46734749D01*
X18152000Y46812509D01*
X18152000Y48845779D01*
X18163985Y48890509D01*
X18184491Y48911015D01*
X18339120Y48952447D01*
X18362420Y48961217D01*
X18383562Y48974364D01*
X18396053Y48985317D01*
X18464683Y49053947D01*
X18480477Y49073193D01*
X18492213Y49095149D01*
X18497553Y49110880D01*
X18522673Y49204630D01*
X18527000Y49237500D01*
X18527000Y50562491D01*
X18542467Y50640251D01*
X18579430Y50695570D01*
X18634749Y50732533D01*
X18712509Y50748000D01*
X20162491Y50748000D01*
X20240251Y50732533D01*
G37*
%TD.AperFunction*%
X19090251Y44707533D02*
X19145570Y44670570D01*
X19182533Y44615251D01*
X19198000Y44537491D01*
X19198000Y43850000D01*
X19200440Y43825224D01*
X19223276Y43710419D01*
X19230503Y43686594D01*
X19242239Y43664637D01*
X19307271Y43567310D01*
X19323066Y43548065D01*
X19342310Y43532271D01*
X19439637Y43467239D01*
X19461594Y43455503D01*
X19485419Y43448276D01*
X19600224Y43425440D01*
X19625000Y43423000D01*
X20162491Y43423000D01*
X20240251Y43407533D01*
X20295570Y43370570D01*
X20332533Y43315251D01*
X20348000Y43237491D01*
X20348000Y42662509D01*
X20332533Y42584749D01*
X20295570Y42529430D01*
X20240251Y42492467D01*
X20172878Y42479066D01*
X18920000Y42479066D01*
X18899022Y42477000D01*
X18875000Y42477000D01*
X18850224Y42474560D01*
X18735419Y42451724D01*
X18711594Y42444497D01*
X18689637Y42432761D01*
X18592310Y42367729D01*
X18573065Y42351934D01*
X18557271Y42332690D01*
X18492239Y42235363D01*
X18480503Y42213406D01*
X18473276Y42189581D01*
X18450440Y42074776D01*
X18448000Y42050000D01*
X18448000Y41400000D01*
X18450440Y41375224D01*
X18473276Y41260419D01*
X18480503Y41236594D01*
X18492239Y41214637D01*
X18557271Y41117310D01*
X18573066Y41098065D01*
X18592310Y41082271D01*
X18689637Y41017239D01*
X18711594Y41005503D01*
X18735419Y40998276D01*
X18850224Y40975440D01*
X18875000Y40973000D01*
X18899022Y40973000D01*
X18920000Y40970934D01*
X20172878Y40970934D01*
X20240251Y40957533D01*
X20295570Y40920570D01*
X20332533Y40865251D01*
X20348000Y40787491D01*
X20348000Y39875000D01*
X20350440Y39850224D01*
X20373276Y39735419D01*
X20380503Y39711594D01*
X20392239Y39689637D01*
X20457271Y39592310D01*
X20473066Y39573065D01*
X20492310Y39557271D01*
X20589637Y39492239D01*
X20611594Y39480503D01*
X20635419Y39473276D01*
X20750224Y39450440D01*
X20775000Y39448000D01*
X20862491Y39448000D01*
X20940251Y39432533D01*
X20995570Y39395570D01*
X21032533Y39340251D01*
X21048000Y39262491D01*
X21048000Y38962509D01*
X21032533Y38884749D01*
X20995570Y38829430D01*
X20940251Y38792467D01*
X20862491Y38777000D01*
X20425011Y38777000D01*
X20352031Y38791517D01*
X20300769Y38825769D01*
X20266517Y38877031D01*
X20252000Y38950011D01*
X20252000Y39100736D01*
X20249560Y39125512D01*
X20226724Y39240317D01*
X20219497Y39264142D01*
X20207761Y39286099D01*
X20142729Y39383426D01*
X20126935Y39402671D01*
X19077671Y40451935D01*
X19058426Y40467729D01*
X18961099Y40532761D01*
X18939142Y40544497D01*
X18915317Y40551724D01*
X18800512Y40574560D01*
X18775736Y40577000D01*
X18362509Y40577000D01*
X18284749Y40592467D01*
X18229430Y40629430D01*
X18192467Y40684749D01*
X18177000Y40762509D01*
X18177000Y42870779D01*
X18177469Y42872531D01*
X18251620Y42892399D01*
X18274920Y42901169D01*
X18296062Y42914316D01*
X18308553Y42925269D01*
X18349731Y42966447D01*
X18365525Y42985693D01*
X18377261Y43007649D01*
X18382601Y43023380D01*
X18397673Y43079630D01*
X18402000Y43112500D01*
X18402000Y44537491D01*
X18417467Y44615251D01*
X18454430Y44670570D01*
X18509749Y44707533D01*
X18587509Y44723000D01*
X19012491Y44723000D01*
X19090251Y44707533D01*
%TA.AperFunction,Conductor*%
G36*
X19090251Y44707533D02*
G01*
X19145570Y44670570D01*
X19182533Y44615251D01*
X19198000Y44537491D01*
X19198000Y43850000D01*
X19200440Y43825224D01*
X19223276Y43710419D01*
X19230503Y43686594D01*
X19242239Y43664637D01*
X19307271Y43567310D01*
X19323066Y43548065D01*
X19342310Y43532271D01*
X19439637Y43467239D01*
X19461594Y43455503D01*
X19485419Y43448276D01*
X19600224Y43425440D01*
X19625000Y43423000D01*
X20162491Y43423000D01*
X20240251Y43407533D01*
X20295570Y43370570D01*
X20332533Y43315251D01*
X20348000Y43237491D01*
X20348000Y42662509D01*
X20332533Y42584749D01*
X20295570Y42529430D01*
X20240251Y42492467D01*
X20172878Y42479066D01*
X18920000Y42479066D01*
X18899022Y42477000D01*
X18875000Y42477000D01*
X18850224Y42474560D01*
X18735419Y42451724D01*
X18711594Y42444497D01*
X18689637Y42432761D01*
X18592310Y42367729D01*
X18573065Y42351934D01*
X18557271Y42332690D01*
X18492239Y42235363D01*
X18480503Y42213406D01*
X18473276Y42189581D01*
X18450440Y42074776D01*
X18448000Y42050000D01*
X18448000Y41400000D01*
X18450440Y41375224D01*
X18473276Y41260419D01*
X18480503Y41236594D01*
X18492239Y41214637D01*
X18557271Y41117310D01*
X18573066Y41098065D01*
X18592310Y41082271D01*
X18689637Y41017239D01*
X18711594Y41005503D01*
X18735419Y40998276D01*
X18850224Y40975440D01*
X18875000Y40973000D01*
X18899022Y40973000D01*
X18920000Y40970934D01*
X20172878Y40970934D01*
X20240251Y40957533D01*
X20295570Y40920570D01*
X20332533Y40865251D01*
X20348000Y40787491D01*
X20348000Y39875000D01*
X20350440Y39850224D01*
X20373276Y39735419D01*
X20380503Y39711594D01*
X20392239Y39689637D01*
X20457271Y39592310D01*
X20473066Y39573065D01*
X20492310Y39557271D01*
X20589637Y39492239D01*
X20611594Y39480503D01*
X20635419Y39473276D01*
X20750224Y39450440D01*
X20775000Y39448000D01*
X20862491Y39448000D01*
X20940251Y39432533D01*
X20995570Y39395570D01*
X21032533Y39340251D01*
X21048000Y39262491D01*
X21048000Y38962509D01*
X21032533Y38884749D01*
X20995570Y38829430D01*
X20940251Y38792467D01*
X20862491Y38777000D01*
X20425011Y38777000D01*
X20352031Y38791517D01*
X20300769Y38825769D01*
X20266517Y38877031D01*
X20252000Y38950011D01*
X20252000Y39100736D01*
X20249560Y39125512D01*
X20226724Y39240317D01*
X20219497Y39264142D01*
X20207761Y39286099D01*
X20142729Y39383426D01*
X20126935Y39402671D01*
X19077671Y40451935D01*
X19058426Y40467729D01*
X18961099Y40532761D01*
X18939142Y40544497D01*
X18915317Y40551724D01*
X18800512Y40574560D01*
X18775736Y40577000D01*
X18362509Y40577000D01*
X18284749Y40592467D01*
X18229430Y40629430D01*
X18192467Y40684749D01*
X18177000Y40762509D01*
X18177000Y42870779D01*
X18177469Y42872531D01*
X18251620Y42892399D01*
X18274920Y42901169D01*
X18296062Y42914316D01*
X18308553Y42925269D01*
X18349731Y42966447D01*
X18365525Y42985693D01*
X18377261Y43007649D01*
X18382601Y43023380D01*
X18397673Y43079630D01*
X18402000Y43112500D01*
X18402000Y44537491D01*
X18417467Y44615251D01*
X18454430Y44670570D01*
X18509749Y44707533D01*
X18587509Y44723000D01*
X19012491Y44723000D01*
X19090251Y44707533D01*
G37*
%TD.AperFunction*%
X19090251Y38757533D02*
X19145570Y38720570D01*
X19182533Y38665251D01*
X19198000Y38587491D01*
X19198000Y37900000D01*
X19200440Y37875224D01*
X19223276Y37760419D01*
X19230503Y37736594D01*
X19242239Y37714637D01*
X19307271Y37617310D01*
X19323066Y37598065D01*
X19342310Y37582271D01*
X19439637Y37517239D01*
X19461594Y37505503D01*
X19485419Y37498276D01*
X19600224Y37475440D01*
X19625000Y37473000D01*
X20162491Y37473000D01*
X20240251Y37457533D01*
X20295570Y37420570D01*
X20332533Y37365251D01*
X20348000Y37287491D01*
X20348000Y36712509D01*
X20332533Y36634749D01*
X20295570Y36579430D01*
X20240251Y36542467D01*
X20172878Y36529066D01*
X18920000Y36529066D01*
X18899022Y36527000D01*
X18875000Y36527000D01*
X18850224Y36524560D01*
X18735419Y36501724D01*
X18711594Y36494497D01*
X18689637Y36482761D01*
X18592310Y36417729D01*
X18573065Y36401934D01*
X18557271Y36382690D01*
X18492239Y36285363D01*
X18480503Y36263406D01*
X18473276Y36239581D01*
X18450440Y36124776D01*
X18448000Y36100000D01*
X18448000Y35450000D01*
X18450440Y35425224D01*
X18473276Y35310419D01*
X18480503Y35286594D01*
X18492239Y35264637D01*
X18557271Y35167310D01*
X18573066Y35148065D01*
X18592310Y35132271D01*
X18689637Y35067239D01*
X18711594Y35055503D01*
X18735419Y35048276D01*
X18850224Y35025440D01*
X18875000Y35023000D01*
X18899022Y35023000D01*
X18920000Y35020934D01*
X20172878Y35020934D01*
X20240251Y35007533D01*
X20295570Y34970570D01*
X20332533Y34915251D01*
X20348000Y34837491D01*
X20348000Y33925000D01*
X20350440Y33900224D01*
X20373276Y33785419D01*
X20380503Y33761594D01*
X20392239Y33739637D01*
X20457271Y33642310D01*
X20473066Y33623065D01*
X20492310Y33607271D01*
X20589637Y33542239D01*
X20611594Y33530503D01*
X20635419Y33523276D01*
X20750224Y33500440D01*
X20775000Y33498000D01*
X20862491Y33498000D01*
X20940251Y33482533D01*
X20995570Y33445570D01*
X21032533Y33390251D01*
X21048000Y33312491D01*
X21048000Y33012509D01*
X21032533Y32934749D01*
X20995570Y32879430D01*
X20940251Y32842467D01*
X20862491Y32827000D01*
X20425011Y32827000D01*
X20352031Y32841517D01*
X20300769Y32875769D01*
X20266517Y32927031D01*
X20252000Y33000011D01*
X20252000Y33150736D01*
X20249560Y33175512D01*
X20226724Y33290317D01*
X20219497Y33314142D01*
X20207761Y33336099D01*
X20142729Y33433426D01*
X20126935Y33452671D01*
X19077671Y34501935D01*
X19058426Y34517729D01*
X18961099Y34582761D01*
X18939142Y34594497D01*
X18915317Y34601724D01*
X18800512Y34624560D01*
X18775736Y34627000D01*
X18362509Y34627000D01*
X18284749Y34642467D01*
X18229430Y34679430D01*
X18192467Y34734749D01*
X18177000Y34812509D01*
X18177000Y36920779D01*
X18177469Y36922531D01*
X18251620Y36942399D01*
X18274920Y36951169D01*
X18296062Y36964316D01*
X18308553Y36975269D01*
X18349731Y37016447D01*
X18365525Y37035693D01*
X18377261Y37057649D01*
X18382601Y37073380D01*
X18397673Y37129630D01*
X18402000Y37162500D01*
X18402000Y38587491D01*
X18417467Y38665251D01*
X18454430Y38720570D01*
X18509749Y38757533D01*
X18587509Y38773000D01*
X19012491Y38773000D01*
X19090251Y38757533D01*
%TA.AperFunction,Conductor*%
G36*
X19090251Y38757533D02*
G01*
X19145570Y38720570D01*
X19182533Y38665251D01*
X19198000Y38587491D01*
X19198000Y37900000D01*
X19200440Y37875224D01*
X19223276Y37760419D01*
X19230503Y37736594D01*
X19242239Y37714637D01*
X19307271Y37617310D01*
X19323066Y37598065D01*
X19342310Y37582271D01*
X19439637Y37517239D01*
X19461594Y37505503D01*
X19485419Y37498276D01*
X19600224Y37475440D01*
X19625000Y37473000D01*
X20162491Y37473000D01*
X20240251Y37457533D01*
X20295570Y37420570D01*
X20332533Y37365251D01*
X20348000Y37287491D01*
X20348000Y36712509D01*
X20332533Y36634749D01*
X20295570Y36579430D01*
X20240251Y36542467D01*
X20172878Y36529066D01*
X18920000Y36529066D01*
X18899022Y36527000D01*
X18875000Y36527000D01*
X18850224Y36524560D01*
X18735419Y36501724D01*
X18711594Y36494497D01*
X18689637Y36482761D01*
X18592310Y36417729D01*
X18573065Y36401934D01*
X18557271Y36382690D01*
X18492239Y36285363D01*
X18480503Y36263406D01*
X18473276Y36239581D01*
X18450440Y36124776D01*
X18448000Y36100000D01*
X18448000Y35450000D01*
X18450440Y35425224D01*
X18473276Y35310419D01*
X18480503Y35286594D01*
X18492239Y35264637D01*
X18557271Y35167310D01*
X18573066Y35148065D01*
X18592310Y35132271D01*
X18689637Y35067239D01*
X18711594Y35055503D01*
X18735419Y35048276D01*
X18850224Y35025440D01*
X18875000Y35023000D01*
X18899022Y35023000D01*
X18920000Y35020934D01*
X20172878Y35020934D01*
X20240251Y35007533D01*
X20295570Y34970570D01*
X20332533Y34915251D01*
X20348000Y34837491D01*
X20348000Y33925000D01*
X20350440Y33900224D01*
X20373276Y33785419D01*
X20380503Y33761594D01*
X20392239Y33739637D01*
X20457271Y33642310D01*
X20473066Y33623065D01*
X20492310Y33607271D01*
X20589637Y33542239D01*
X20611594Y33530503D01*
X20635419Y33523276D01*
X20750224Y33500440D01*
X20775000Y33498000D01*
X20862491Y33498000D01*
X20940251Y33482533D01*
X20995570Y33445570D01*
X21032533Y33390251D01*
X21048000Y33312491D01*
X21048000Y33012509D01*
X21032533Y32934749D01*
X20995570Y32879430D01*
X20940251Y32842467D01*
X20862491Y32827000D01*
X20425011Y32827000D01*
X20352031Y32841517D01*
X20300769Y32875769D01*
X20266517Y32927031D01*
X20252000Y33000011D01*
X20252000Y33150736D01*
X20249560Y33175512D01*
X20226724Y33290317D01*
X20219497Y33314142D01*
X20207761Y33336099D01*
X20142729Y33433426D01*
X20126935Y33452671D01*
X19077671Y34501935D01*
X19058426Y34517729D01*
X18961099Y34582761D01*
X18939142Y34594497D01*
X18915317Y34601724D01*
X18800512Y34624560D01*
X18775736Y34627000D01*
X18362509Y34627000D01*
X18284749Y34642467D01*
X18229430Y34679430D01*
X18192467Y34734749D01*
X18177000Y34812509D01*
X18177000Y36920779D01*
X18177469Y36922531D01*
X18251620Y36942399D01*
X18274920Y36951169D01*
X18296062Y36964316D01*
X18308553Y36975269D01*
X18349731Y37016447D01*
X18365525Y37035693D01*
X18377261Y37057649D01*
X18382601Y37073380D01*
X18397673Y37129630D01*
X18402000Y37162500D01*
X18402000Y38587491D01*
X18417467Y38665251D01*
X18454430Y38720570D01*
X18509749Y38757533D01*
X18587509Y38773000D01*
X19012491Y38773000D01*
X19090251Y38757533D01*
G37*
%TD.AperFunction*%
X19090251Y32757533D02*
X19145570Y32720570D01*
X19182533Y32665251D01*
X19198000Y32587491D01*
X19198000Y31900000D01*
X19200440Y31875224D01*
X19223276Y31760419D01*
X19230503Y31736594D01*
X19242239Y31714637D01*
X19307271Y31617310D01*
X19323066Y31598065D01*
X19342310Y31582271D01*
X19439637Y31517239D01*
X19461594Y31505503D01*
X19485419Y31498276D01*
X19600224Y31475440D01*
X19625000Y31473000D01*
X20162491Y31473000D01*
X20240251Y31457533D01*
X20295570Y31420570D01*
X20332533Y31365251D01*
X20348000Y31287491D01*
X20348000Y30712509D01*
X20332533Y30634749D01*
X20295570Y30579430D01*
X20240251Y30542467D01*
X20172878Y30529066D01*
X18920000Y30529066D01*
X18899022Y30527000D01*
X18875000Y30527000D01*
X18850224Y30524560D01*
X18735419Y30501724D01*
X18711594Y30494497D01*
X18689637Y30482761D01*
X18592310Y30417729D01*
X18573065Y30401934D01*
X18557271Y30382690D01*
X18492239Y30285363D01*
X18480503Y30263406D01*
X18473276Y30239581D01*
X18450440Y30124776D01*
X18448000Y30100000D01*
X18448000Y29450000D01*
X18450440Y29425224D01*
X18473276Y29310419D01*
X18480503Y29286594D01*
X18492239Y29264637D01*
X18557271Y29167310D01*
X18573066Y29148065D01*
X18592310Y29132271D01*
X18689637Y29067239D01*
X18711594Y29055503D01*
X18735419Y29048276D01*
X18850224Y29025440D01*
X18875000Y29023000D01*
X18899022Y29023000D01*
X18920000Y29020934D01*
X20172878Y29020934D01*
X20240251Y29007533D01*
X20295570Y28970570D01*
X20332533Y28915251D01*
X20348000Y28837491D01*
X20348000Y27925000D01*
X20350440Y27900224D01*
X20373276Y27785419D01*
X20380503Y27761594D01*
X20392239Y27739637D01*
X20457271Y27642310D01*
X20473066Y27623065D01*
X20492310Y27607271D01*
X20589637Y27542239D01*
X20611594Y27530503D01*
X20635419Y27523276D01*
X20750224Y27500440D01*
X20775000Y27498000D01*
X20862491Y27498000D01*
X20940251Y27482533D01*
X20995570Y27445570D01*
X21032533Y27390251D01*
X21048000Y27312491D01*
X21048000Y27012509D01*
X21032533Y26934749D01*
X20995570Y26879430D01*
X20940251Y26842467D01*
X20862491Y26827000D01*
X20425011Y26827000D01*
X20352031Y26841517D01*
X20300769Y26875769D01*
X20266517Y26927031D01*
X20252000Y27000011D01*
X20252000Y27150736D01*
X20249560Y27175512D01*
X20226724Y27290317D01*
X20219497Y27314142D01*
X20207761Y27336099D01*
X20142729Y27433426D01*
X20126935Y27452671D01*
X19077671Y28501935D01*
X19058426Y28517729D01*
X18961099Y28582761D01*
X18939142Y28594497D01*
X18915317Y28601724D01*
X18800512Y28624560D01*
X18775736Y28627000D01*
X18362509Y28627000D01*
X18284749Y28642467D01*
X18229430Y28679430D01*
X18192467Y28734749D01*
X18177000Y28812509D01*
X18177000Y30920779D01*
X18177469Y30922531D01*
X18251620Y30942399D01*
X18274920Y30951169D01*
X18296062Y30964316D01*
X18308553Y30975269D01*
X18349731Y31016447D01*
X18365525Y31035693D01*
X18377261Y31057649D01*
X18382601Y31073380D01*
X18397673Y31129630D01*
X18402000Y31162500D01*
X18402000Y32587491D01*
X18417467Y32665251D01*
X18454430Y32720570D01*
X18509749Y32757533D01*
X18587509Y32773000D01*
X19012491Y32773000D01*
X19090251Y32757533D01*
%TA.AperFunction,Conductor*%
G36*
X19090251Y32757533D02*
G01*
X19145570Y32720570D01*
X19182533Y32665251D01*
X19198000Y32587491D01*
X19198000Y31900000D01*
X19200440Y31875224D01*
X19223276Y31760419D01*
X19230503Y31736594D01*
X19242239Y31714637D01*
X19307271Y31617310D01*
X19323066Y31598065D01*
X19342310Y31582271D01*
X19439637Y31517239D01*
X19461594Y31505503D01*
X19485419Y31498276D01*
X19600224Y31475440D01*
X19625000Y31473000D01*
X20162491Y31473000D01*
X20240251Y31457533D01*
X20295570Y31420570D01*
X20332533Y31365251D01*
X20348000Y31287491D01*
X20348000Y30712509D01*
X20332533Y30634749D01*
X20295570Y30579430D01*
X20240251Y30542467D01*
X20172878Y30529066D01*
X18920000Y30529066D01*
X18899022Y30527000D01*
X18875000Y30527000D01*
X18850224Y30524560D01*
X18735419Y30501724D01*
X18711594Y30494497D01*
X18689637Y30482761D01*
X18592310Y30417729D01*
X18573065Y30401934D01*
X18557271Y30382690D01*
X18492239Y30285363D01*
X18480503Y30263406D01*
X18473276Y30239581D01*
X18450440Y30124776D01*
X18448000Y30100000D01*
X18448000Y29450000D01*
X18450440Y29425224D01*
X18473276Y29310419D01*
X18480503Y29286594D01*
X18492239Y29264637D01*
X18557271Y29167310D01*
X18573066Y29148065D01*
X18592310Y29132271D01*
X18689637Y29067239D01*
X18711594Y29055503D01*
X18735419Y29048276D01*
X18850224Y29025440D01*
X18875000Y29023000D01*
X18899022Y29023000D01*
X18920000Y29020934D01*
X20172878Y29020934D01*
X20240251Y29007533D01*
X20295570Y28970570D01*
X20332533Y28915251D01*
X20348000Y28837491D01*
X20348000Y27925000D01*
X20350440Y27900224D01*
X20373276Y27785419D01*
X20380503Y27761594D01*
X20392239Y27739637D01*
X20457271Y27642310D01*
X20473066Y27623065D01*
X20492310Y27607271D01*
X20589637Y27542239D01*
X20611594Y27530503D01*
X20635419Y27523276D01*
X20750224Y27500440D01*
X20775000Y27498000D01*
X20862491Y27498000D01*
X20940251Y27482533D01*
X20995570Y27445570D01*
X21032533Y27390251D01*
X21048000Y27312491D01*
X21048000Y27012509D01*
X21032533Y26934749D01*
X20995570Y26879430D01*
X20940251Y26842467D01*
X20862491Y26827000D01*
X20425011Y26827000D01*
X20352031Y26841517D01*
X20300769Y26875769D01*
X20266517Y26927031D01*
X20252000Y27000011D01*
X20252000Y27150736D01*
X20249560Y27175512D01*
X20226724Y27290317D01*
X20219497Y27314142D01*
X20207761Y27336099D01*
X20142729Y27433426D01*
X20126935Y27452671D01*
X19077671Y28501935D01*
X19058426Y28517729D01*
X18961099Y28582761D01*
X18939142Y28594497D01*
X18915317Y28601724D01*
X18800512Y28624560D01*
X18775736Y28627000D01*
X18362509Y28627000D01*
X18284749Y28642467D01*
X18229430Y28679430D01*
X18192467Y28734749D01*
X18177000Y28812509D01*
X18177000Y30920779D01*
X18177469Y30922531D01*
X18251620Y30942399D01*
X18274920Y30951169D01*
X18296062Y30964316D01*
X18308553Y30975269D01*
X18349731Y31016447D01*
X18365525Y31035693D01*
X18377261Y31057649D01*
X18382601Y31073380D01*
X18397673Y31129630D01*
X18402000Y31162500D01*
X18402000Y32587491D01*
X18417467Y32665251D01*
X18454430Y32720570D01*
X18509749Y32757533D01*
X18587509Y32773000D01*
X19012491Y32773000D01*
X19090251Y32757533D01*
G37*
%TD.AperFunction*%
X19090251Y26757533D02*
X19145570Y26720570D01*
X19182533Y26665251D01*
X19198000Y26587491D01*
X19198000Y25900000D01*
X19200440Y25875224D01*
X19223276Y25760419D01*
X19230503Y25736594D01*
X19242239Y25714637D01*
X19307271Y25617310D01*
X19323066Y25598065D01*
X19342310Y25582271D01*
X19439637Y25517239D01*
X19461594Y25505503D01*
X19485419Y25498276D01*
X19600224Y25475440D01*
X19625000Y25473000D01*
X20162491Y25473000D01*
X20240251Y25457533D01*
X20295570Y25420570D01*
X20332533Y25365251D01*
X20348000Y25287491D01*
X20348000Y24712509D01*
X20332533Y24634749D01*
X20295570Y24579430D01*
X20240251Y24542467D01*
X20172878Y24529066D01*
X18920000Y24529066D01*
X18899022Y24527000D01*
X18875000Y24527000D01*
X18850224Y24524560D01*
X18735419Y24501724D01*
X18711594Y24494497D01*
X18689637Y24482761D01*
X18592310Y24417729D01*
X18573065Y24401934D01*
X18557271Y24382690D01*
X18492239Y24285363D01*
X18480503Y24263406D01*
X18473276Y24239581D01*
X18450440Y24124776D01*
X18448000Y24100000D01*
X18448000Y23450000D01*
X18450440Y23425224D01*
X18473276Y23310419D01*
X18480503Y23286594D01*
X18492239Y23264637D01*
X18557271Y23167310D01*
X18573066Y23148065D01*
X18592310Y23132271D01*
X18689637Y23067239D01*
X18711594Y23055503D01*
X18735419Y23048276D01*
X18850224Y23025440D01*
X18875000Y23023000D01*
X18899022Y23023000D01*
X18920000Y23020934D01*
X20172878Y23020934D01*
X20240251Y23007533D01*
X20295570Y22970570D01*
X20332533Y22915251D01*
X20348000Y22837491D01*
X20348000Y21925000D01*
X20350440Y21900224D01*
X20373276Y21785419D01*
X20380503Y21761594D01*
X20392239Y21739637D01*
X20457271Y21642310D01*
X20473066Y21623065D01*
X20492310Y21607271D01*
X20589637Y21542239D01*
X20611594Y21530503D01*
X20635419Y21523276D01*
X20750224Y21500440D01*
X20775000Y21498000D01*
X20862491Y21498000D01*
X20940251Y21482533D01*
X20995570Y21445570D01*
X21032533Y21390251D01*
X21048000Y21312491D01*
X21048000Y21012509D01*
X21032533Y20934749D01*
X20995570Y20879430D01*
X20940251Y20842467D01*
X20862491Y20827000D01*
X20425011Y20827000D01*
X20352031Y20841517D01*
X20300769Y20875769D01*
X20266517Y20927031D01*
X20252000Y21000011D01*
X20252000Y21150736D01*
X20249560Y21175512D01*
X20226724Y21290317D01*
X20219497Y21314142D01*
X20207761Y21336099D01*
X20142729Y21433426D01*
X20126935Y21452671D01*
X19077671Y22501935D01*
X19058426Y22517729D01*
X18961099Y22582761D01*
X18939142Y22594497D01*
X18915317Y22601724D01*
X18800512Y22624560D01*
X18775736Y22627000D01*
X18362509Y22627000D01*
X18284749Y22642467D01*
X18229430Y22679430D01*
X18192467Y22734749D01*
X18177000Y22812509D01*
X18177000Y24920779D01*
X18177469Y24922531D01*
X18251620Y24942399D01*
X18274920Y24951169D01*
X18296062Y24964316D01*
X18308553Y24975269D01*
X18349731Y25016447D01*
X18365525Y25035693D01*
X18377261Y25057649D01*
X18382601Y25073380D01*
X18397673Y25129630D01*
X18402000Y25162500D01*
X18402000Y26587491D01*
X18417467Y26665251D01*
X18454430Y26720570D01*
X18509749Y26757533D01*
X18587509Y26773000D01*
X19012491Y26773000D01*
X19090251Y26757533D01*
%TA.AperFunction,Conductor*%
G36*
X19090251Y26757533D02*
G01*
X19145570Y26720570D01*
X19182533Y26665251D01*
X19198000Y26587491D01*
X19198000Y25900000D01*
X19200440Y25875224D01*
X19223276Y25760419D01*
X19230503Y25736594D01*
X19242239Y25714637D01*
X19307271Y25617310D01*
X19323066Y25598065D01*
X19342310Y25582271D01*
X19439637Y25517239D01*
X19461594Y25505503D01*
X19485419Y25498276D01*
X19600224Y25475440D01*
X19625000Y25473000D01*
X20162491Y25473000D01*
X20240251Y25457533D01*
X20295570Y25420570D01*
X20332533Y25365251D01*
X20348000Y25287491D01*
X20348000Y24712509D01*
X20332533Y24634749D01*
X20295570Y24579430D01*
X20240251Y24542467D01*
X20172878Y24529066D01*
X18920000Y24529066D01*
X18899022Y24527000D01*
X18875000Y24527000D01*
X18850224Y24524560D01*
X18735419Y24501724D01*
X18711594Y24494497D01*
X18689637Y24482761D01*
X18592310Y24417729D01*
X18573065Y24401934D01*
X18557271Y24382690D01*
X18492239Y24285363D01*
X18480503Y24263406D01*
X18473276Y24239581D01*
X18450440Y24124776D01*
X18448000Y24100000D01*
X18448000Y23450000D01*
X18450440Y23425224D01*
X18473276Y23310419D01*
X18480503Y23286594D01*
X18492239Y23264637D01*
X18557271Y23167310D01*
X18573066Y23148065D01*
X18592310Y23132271D01*
X18689637Y23067239D01*
X18711594Y23055503D01*
X18735419Y23048276D01*
X18850224Y23025440D01*
X18875000Y23023000D01*
X18899022Y23023000D01*
X18920000Y23020934D01*
X20172878Y23020934D01*
X20240251Y23007533D01*
X20295570Y22970570D01*
X20332533Y22915251D01*
X20348000Y22837491D01*
X20348000Y21925000D01*
X20350440Y21900224D01*
X20373276Y21785419D01*
X20380503Y21761594D01*
X20392239Y21739637D01*
X20457271Y21642310D01*
X20473066Y21623065D01*
X20492310Y21607271D01*
X20589637Y21542239D01*
X20611594Y21530503D01*
X20635419Y21523276D01*
X20750224Y21500440D01*
X20775000Y21498000D01*
X20862491Y21498000D01*
X20940251Y21482533D01*
X20995570Y21445570D01*
X21032533Y21390251D01*
X21048000Y21312491D01*
X21048000Y21012509D01*
X21032533Y20934749D01*
X20995570Y20879430D01*
X20940251Y20842467D01*
X20862491Y20827000D01*
X20425011Y20827000D01*
X20352031Y20841517D01*
X20300769Y20875769D01*
X20266517Y20927031D01*
X20252000Y21000011D01*
X20252000Y21150736D01*
X20249560Y21175512D01*
X20226724Y21290317D01*
X20219497Y21314142D01*
X20207761Y21336099D01*
X20142729Y21433426D01*
X20126935Y21452671D01*
X19077671Y22501935D01*
X19058426Y22517729D01*
X18961099Y22582761D01*
X18939142Y22594497D01*
X18915317Y22601724D01*
X18800512Y22624560D01*
X18775736Y22627000D01*
X18362509Y22627000D01*
X18284749Y22642467D01*
X18229430Y22679430D01*
X18192467Y22734749D01*
X18177000Y22812509D01*
X18177000Y24920779D01*
X18177469Y24922531D01*
X18251620Y24942399D01*
X18274920Y24951169D01*
X18296062Y24964316D01*
X18308553Y24975269D01*
X18349731Y25016447D01*
X18365525Y25035693D01*
X18377261Y25057649D01*
X18382601Y25073380D01*
X18397673Y25129630D01*
X18402000Y25162500D01*
X18402000Y26587491D01*
X18417467Y26665251D01*
X18454430Y26720570D01*
X18509749Y26757533D01*
X18587509Y26773000D01*
X19012491Y26773000D01*
X19090251Y26757533D01*
G37*
%TD.AperFunction*%
X19080388Y20757533D02*
X19135707Y20720570D01*
X19172670Y20665251D01*
X19188137Y20587491D01*
X19188137Y19900000D01*
X19190577Y19875224D01*
X19213413Y19760419D01*
X19220640Y19736594D01*
X19232376Y19714637D01*
X19297408Y19617310D01*
X19313203Y19598065D01*
X19332447Y19582271D01*
X19429774Y19517239D01*
X19451731Y19505503D01*
X19475556Y19498276D01*
X19590361Y19475440D01*
X19615137Y19473000D01*
X20152628Y19473000D01*
X20230388Y19457533D01*
X20285707Y19420570D01*
X20322670Y19365251D01*
X20338137Y19287491D01*
X20338137Y18712509D01*
X20322670Y18634749D01*
X20285707Y18579430D01*
X20230388Y18542467D01*
X20163015Y18529066D01*
X18920000Y18529066D01*
X18899022Y18527000D01*
X18875000Y18527000D01*
X18850224Y18524560D01*
X18735419Y18501724D01*
X18711594Y18494497D01*
X18689637Y18482761D01*
X18592310Y18417729D01*
X18573065Y18401934D01*
X18557271Y18382690D01*
X18492239Y18285363D01*
X18480503Y18263406D01*
X18473276Y18239581D01*
X18450440Y18124776D01*
X18448000Y18100000D01*
X18448000Y17450000D01*
X18450440Y17425224D01*
X18473276Y17310419D01*
X18480503Y17286594D01*
X18492239Y17264637D01*
X18557271Y17167310D01*
X18573066Y17148065D01*
X18592310Y17132271D01*
X18689637Y17067239D01*
X18711594Y17055503D01*
X18735419Y17048276D01*
X18850224Y17025440D01*
X18875000Y17023000D01*
X18899022Y17023000D01*
X18920000Y17020934D01*
X20163015Y17020934D01*
X20230388Y17007533D01*
X20285707Y16970570D01*
X20322670Y16915251D01*
X20338137Y16837491D01*
X20338137Y15925000D01*
X20340577Y15900224D01*
X20363413Y15785419D01*
X20370640Y15761594D01*
X20382376Y15739637D01*
X20447408Y15642310D01*
X20463203Y15623065D01*
X20482447Y15607271D01*
X20579774Y15542239D01*
X20601731Y15530503D01*
X20625556Y15523276D01*
X20740361Y15500440D01*
X20765137Y15498000D01*
X20852628Y15498000D01*
X20930388Y15482533D01*
X20985707Y15445570D01*
X21022670Y15390251D01*
X21038137Y15312491D01*
X21038137Y15012509D01*
X21022670Y14934749D01*
X20985707Y14879430D01*
X20930388Y14842467D01*
X20852628Y14827000D01*
X20415148Y14827000D01*
X20342168Y14841517D01*
X20290906Y14875769D01*
X20256654Y14927031D01*
X20242137Y15000011D01*
X20242137Y15150736D01*
X20239697Y15175512D01*
X20216861Y15290317D01*
X20209634Y15314142D01*
X20197898Y15336099D01*
X20132866Y15433426D01*
X20117072Y15452671D01*
X19067808Y16501935D01*
X19048563Y16517729D01*
X18951236Y16582761D01*
X18929279Y16594497D01*
X18905454Y16601724D01*
X18790649Y16624560D01*
X18765873Y16627000D01*
X18352646Y16627000D01*
X18274886Y16642467D01*
X18219567Y16679430D01*
X18182604Y16734749D01*
X18167137Y16812509D01*
X18167137Y18920779D01*
X18167606Y18922531D01*
X18241757Y18942399D01*
X18265057Y18951169D01*
X18286199Y18964316D01*
X18298690Y18975269D01*
X18339868Y19016447D01*
X18355662Y19035693D01*
X18367398Y19057649D01*
X18372738Y19073380D01*
X18387810Y19129630D01*
X18392137Y19162500D01*
X18392137Y20587491D01*
X18407604Y20665251D01*
X18444567Y20720570D01*
X18499886Y20757533D01*
X18577646Y20773000D01*
X19002628Y20773000D01*
X19080388Y20757533D01*
%TA.AperFunction,Conductor*%
G36*
X19080388Y20757533D02*
G01*
X19135707Y20720570D01*
X19172670Y20665251D01*
X19188137Y20587491D01*
X19188137Y19900000D01*
X19190577Y19875224D01*
X19213413Y19760419D01*
X19220640Y19736594D01*
X19232376Y19714637D01*
X19297408Y19617310D01*
X19313203Y19598065D01*
X19332447Y19582271D01*
X19429774Y19517239D01*
X19451731Y19505503D01*
X19475556Y19498276D01*
X19590361Y19475440D01*
X19615137Y19473000D01*
X20152628Y19473000D01*
X20230388Y19457533D01*
X20285707Y19420570D01*
X20322670Y19365251D01*
X20338137Y19287491D01*
X20338137Y18712509D01*
X20322670Y18634749D01*
X20285707Y18579430D01*
X20230388Y18542467D01*
X20163015Y18529066D01*
X18920000Y18529066D01*
X18899022Y18527000D01*
X18875000Y18527000D01*
X18850224Y18524560D01*
X18735419Y18501724D01*
X18711594Y18494497D01*
X18689637Y18482761D01*
X18592310Y18417729D01*
X18573065Y18401934D01*
X18557271Y18382690D01*
X18492239Y18285363D01*
X18480503Y18263406D01*
X18473276Y18239581D01*
X18450440Y18124776D01*
X18448000Y18100000D01*
X18448000Y17450000D01*
X18450440Y17425224D01*
X18473276Y17310419D01*
X18480503Y17286594D01*
X18492239Y17264637D01*
X18557271Y17167310D01*
X18573066Y17148065D01*
X18592310Y17132271D01*
X18689637Y17067239D01*
X18711594Y17055503D01*
X18735419Y17048276D01*
X18850224Y17025440D01*
X18875000Y17023000D01*
X18899022Y17023000D01*
X18920000Y17020934D01*
X20163015Y17020934D01*
X20230388Y17007533D01*
X20285707Y16970570D01*
X20322670Y16915251D01*
X20338137Y16837491D01*
X20338137Y15925000D01*
X20340577Y15900224D01*
X20363413Y15785419D01*
X20370640Y15761594D01*
X20382376Y15739637D01*
X20447408Y15642310D01*
X20463203Y15623065D01*
X20482447Y15607271D01*
X20579774Y15542239D01*
X20601731Y15530503D01*
X20625556Y15523276D01*
X20740361Y15500440D01*
X20765137Y15498000D01*
X20852628Y15498000D01*
X20930388Y15482533D01*
X20985707Y15445570D01*
X21022670Y15390251D01*
X21038137Y15312491D01*
X21038137Y15012509D01*
X21022670Y14934749D01*
X20985707Y14879430D01*
X20930388Y14842467D01*
X20852628Y14827000D01*
X20415148Y14827000D01*
X20342168Y14841517D01*
X20290906Y14875769D01*
X20256654Y14927031D01*
X20242137Y15000011D01*
X20242137Y15150736D01*
X20239697Y15175512D01*
X20216861Y15290317D01*
X20209634Y15314142D01*
X20197898Y15336099D01*
X20132866Y15433426D01*
X20117072Y15452671D01*
X19067808Y16501935D01*
X19048563Y16517729D01*
X18951236Y16582761D01*
X18929279Y16594497D01*
X18905454Y16601724D01*
X18790649Y16624560D01*
X18765873Y16627000D01*
X18352646Y16627000D01*
X18274886Y16642467D01*
X18219567Y16679430D01*
X18182604Y16734749D01*
X18167137Y16812509D01*
X18167137Y18920779D01*
X18167606Y18922531D01*
X18241757Y18942399D01*
X18265057Y18951169D01*
X18286199Y18964316D01*
X18298690Y18975269D01*
X18339868Y19016447D01*
X18355662Y19035693D01*
X18367398Y19057649D01*
X18372738Y19073380D01*
X18387810Y19129630D01*
X18392137Y19162500D01*
X18392137Y20587491D01*
X18407604Y20665251D01*
X18444567Y20720570D01*
X18499886Y20757533D01*
X18577646Y20773000D01*
X19002628Y20773000D01*
X19080388Y20757533D01*
G37*
%TD.AperFunction*%
X19115251Y14757533D02*
X19170570Y14720570D01*
X19207533Y14665251D01*
X19223000Y14587491D01*
X19223000Y13900000D01*
X19225440Y13875224D01*
X19248276Y13760419D01*
X19255503Y13736594D01*
X19267239Y13714637D01*
X19332271Y13617310D01*
X19348066Y13598065D01*
X19367310Y13582271D01*
X19464637Y13517239D01*
X19486594Y13505503D01*
X19510419Y13498276D01*
X19625224Y13475440D01*
X19650000Y13473000D01*
X20187491Y13473000D01*
X20265251Y13457533D01*
X20320570Y13420570D01*
X20357533Y13365251D01*
X20373000Y13287491D01*
X20373000Y12712509D01*
X20357533Y12634749D01*
X20320570Y12579430D01*
X20265251Y12542467D01*
X20197878Y12529066D01*
X18920000Y12529066D01*
X18899022Y12527000D01*
X18875000Y12527000D01*
X18850224Y12524560D01*
X18735419Y12501724D01*
X18711594Y12494497D01*
X18689637Y12482761D01*
X18592310Y12417729D01*
X18573065Y12401934D01*
X18557271Y12382690D01*
X18492239Y12285363D01*
X18480503Y12263406D01*
X18473276Y12239581D01*
X18450440Y12124776D01*
X18448000Y12100000D01*
X18448000Y11450000D01*
X18450440Y11425224D01*
X18473276Y11310419D01*
X18480503Y11286594D01*
X18492239Y11264637D01*
X18557271Y11167310D01*
X18573066Y11148065D01*
X18592310Y11132271D01*
X18689637Y11067239D01*
X18711594Y11055503D01*
X18735419Y11048276D01*
X18850224Y11025440D01*
X18875000Y11023000D01*
X18899022Y11023000D01*
X18920000Y11020934D01*
X20197878Y11020934D01*
X20265251Y11007533D01*
X20320570Y10970570D01*
X20357533Y10915251D01*
X20373000Y10837491D01*
X20373000Y9925000D01*
X20375440Y9900224D01*
X20398276Y9785419D01*
X20405503Y9761594D01*
X20417239Y9739637D01*
X20482271Y9642310D01*
X20498066Y9623065D01*
X20517310Y9607271D01*
X20614637Y9542239D01*
X20636594Y9530503D01*
X20660419Y9523276D01*
X20775224Y9500440D01*
X20800000Y9498000D01*
X20887491Y9498000D01*
X20965251Y9482533D01*
X21020570Y9445570D01*
X21057533Y9390251D01*
X21073000Y9312491D01*
X21073000Y9012509D01*
X21057533Y8934749D01*
X21020570Y8879430D01*
X20965251Y8842467D01*
X20887491Y8827000D01*
X20450011Y8827000D01*
X20377031Y8841517D01*
X20325769Y8875769D01*
X20291517Y8927031D01*
X20277000Y9000011D01*
X20277000Y9150736D01*
X20274560Y9175512D01*
X20251724Y9290317D01*
X20244497Y9314142D01*
X20232761Y9336099D01*
X20167729Y9433426D01*
X20151935Y9452671D01*
X19102671Y10501935D01*
X19083426Y10517729D01*
X18986099Y10582761D01*
X18964142Y10594497D01*
X18940317Y10601724D01*
X18825512Y10624560D01*
X18800736Y10627000D01*
X18387509Y10627000D01*
X18309749Y10642467D01*
X18254430Y10679430D01*
X18217467Y10734749D01*
X18202000Y10812509D01*
X18202000Y12920779D01*
X18202469Y12922531D01*
X18276620Y12942399D01*
X18299920Y12951169D01*
X18321062Y12964316D01*
X18333553Y12975269D01*
X18374731Y13016447D01*
X18390525Y13035693D01*
X18402261Y13057649D01*
X18407601Y13073380D01*
X18422673Y13129630D01*
X18427000Y13162500D01*
X18427000Y14587491D01*
X18442467Y14665251D01*
X18479430Y14720570D01*
X18534749Y14757533D01*
X18612509Y14773000D01*
X19037491Y14773000D01*
X19115251Y14757533D01*
%TA.AperFunction,Conductor*%
G36*
X19115251Y14757533D02*
G01*
X19170570Y14720570D01*
X19207533Y14665251D01*
X19223000Y14587491D01*
X19223000Y13900000D01*
X19225440Y13875224D01*
X19248276Y13760419D01*
X19255503Y13736594D01*
X19267239Y13714637D01*
X19332271Y13617310D01*
X19348066Y13598065D01*
X19367310Y13582271D01*
X19464637Y13517239D01*
X19486594Y13505503D01*
X19510419Y13498276D01*
X19625224Y13475440D01*
X19650000Y13473000D01*
X20187491Y13473000D01*
X20265251Y13457533D01*
X20320570Y13420570D01*
X20357533Y13365251D01*
X20373000Y13287491D01*
X20373000Y12712509D01*
X20357533Y12634749D01*
X20320570Y12579430D01*
X20265251Y12542467D01*
X20197878Y12529066D01*
X18920000Y12529066D01*
X18899022Y12527000D01*
X18875000Y12527000D01*
X18850224Y12524560D01*
X18735419Y12501724D01*
X18711594Y12494497D01*
X18689637Y12482761D01*
X18592310Y12417729D01*
X18573065Y12401934D01*
X18557271Y12382690D01*
X18492239Y12285363D01*
X18480503Y12263406D01*
X18473276Y12239581D01*
X18450440Y12124776D01*
X18448000Y12100000D01*
X18448000Y11450000D01*
X18450440Y11425224D01*
X18473276Y11310419D01*
X18480503Y11286594D01*
X18492239Y11264637D01*
X18557271Y11167310D01*
X18573066Y11148065D01*
X18592310Y11132271D01*
X18689637Y11067239D01*
X18711594Y11055503D01*
X18735419Y11048276D01*
X18850224Y11025440D01*
X18875000Y11023000D01*
X18899022Y11023000D01*
X18920000Y11020934D01*
X20197878Y11020934D01*
X20265251Y11007533D01*
X20320570Y10970570D01*
X20357533Y10915251D01*
X20373000Y10837491D01*
X20373000Y9925000D01*
X20375440Y9900224D01*
X20398276Y9785419D01*
X20405503Y9761594D01*
X20417239Y9739637D01*
X20482271Y9642310D01*
X20498066Y9623065D01*
X20517310Y9607271D01*
X20614637Y9542239D01*
X20636594Y9530503D01*
X20660419Y9523276D01*
X20775224Y9500440D01*
X20800000Y9498000D01*
X20887491Y9498000D01*
X20965251Y9482533D01*
X21020570Y9445570D01*
X21057533Y9390251D01*
X21073000Y9312491D01*
X21073000Y9012509D01*
X21057533Y8934749D01*
X21020570Y8879430D01*
X20965251Y8842467D01*
X20887491Y8827000D01*
X20450011Y8827000D01*
X20377031Y8841517D01*
X20325769Y8875769D01*
X20291517Y8927031D01*
X20277000Y9000011D01*
X20277000Y9150736D01*
X20274560Y9175512D01*
X20251724Y9290317D01*
X20244497Y9314142D01*
X20232761Y9336099D01*
X20167729Y9433426D01*
X20151935Y9452671D01*
X19102671Y10501935D01*
X19083426Y10517729D01*
X18986099Y10582761D01*
X18964142Y10594497D01*
X18940317Y10601724D01*
X18825512Y10624560D01*
X18800736Y10627000D01*
X18387509Y10627000D01*
X18309749Y10642467D01*
X18254430Y10679430D01*
X18217467Y10734749D01*
X18202000Y10812509D01*
X18202000Y12920779D01*
X18202469Y12922531D01*
X18276620Y12942399D01*
X18299920Y12951169D01*
X18321062Y12964316D01*
X18333553Y12975269D01*
X18374731Y13016447D01*
X18390525Y13035693D01*
X18402261Y13057649D01*
X18407601Y13073380D01*
X18422673Y13129630D01*
X18427000Y13162500D01*
X18427000Y14587491D01*
X18442467Y14665251D01*
X18479430Y14720570D01*
X18534749Y14757533D01*
X18612509Y14773000D01*
X19037491Y14773000D01*
X19115251Y14757533D01*
G37*
%TD.AperFunction*%
X20240251Y6907533D02*
X20295570Y6870570D01*
X20332533Y6815251D01*
X20348000Y6737491D01*
X20348000Y6712509D01*
X20332533Y6634749D01*
X20295570Y6579430D01*
X20240251Y6542467D01*
X20172878Y6529066D01*
X18920000Y6529066D01*
X18899022Y6527000D01*
X18875000Y6527000D01*
X18850224Y6524560D01*
X18735419Y6501724D01*
X18711594Y6494497D01*
X18689637Y6482761D01*
X18592310Y6417729D01*
X18573065Y6401934D01*
X18557271Y6382690D01*
X18492239Y6285363D01*
X18480503Y6263406D01*
X18473276Y6239581D01*
X18450440Y6124776D01*
X18448000Y6100000D01*
X18448000Y5450000D01*
X18450440Y5425224D01*
X18473276Y5310419D01*
X18480503Y5286594D01*
X18492239Y5264637D01*
X18557271Y5167310D01*
X18573066Y5148065D01*
X18592310Y5132271D01*
X18689637Y5067239D01*
X18711594Y5055503D01*
X18735419Y5048276D01*
X18850224Y5025440D01*
X18875000Y5023000D01*
X18899022Y5023000D01*
X18920000Y5020934D01*
X20172878Y5020934D01*
X20240251Y5007533D01*
X20295570Y4970570D01*
X20332533Y4915251D01*
X20348000Y4837491D01*
X20348000Y3950000D01*
X20350440Y3925224D01*
X20373276Y3810419D01*
X20380503Y3786594D01*
X20392239Y3764637D01*
X20457271Y3667310D01*
X20473066Y3648065D01*
X20492310Y3632271D01*
X20589637Y3567239D01*
X20611594Y3555503D01*
X20635419Y3548276D01*
X20750224Y3525440D01*
X20775000Y3523000D01*
X20862491Y3523000D01*
X20940251Y3507533D01*
X20995570Y3470570D01*
X21032533Y3415251D01*
X21048000Y3337491D01*
X21048000Y3012509D01*
X21032533Y2934749D01*
X20995570Y2879430D01*
X20940251Y2842467D01*
X20862491Y2827000D01*
X19237509Y2827000D01*
X19159749Y2842467D01*
X19104430Y2879430D01*
X19067467Y2934749D01*
X19052000Y3012509D01*
X19052000Y4200000D01*
X19049560Y4224776D01*
X19026724Y4339581D01*
X19019497Y4363406D01*
X19007761Y4385363D01*
X18942729Y4482690D01*
X18926934Y4501935D01*
X18907690Y4517729D01*
X18810363Y4582761D01*
X18788406Y4594497D01*
X18764581Y4601724D01*
X18649776Y4624560D01*
X18625000Y4627000D01*
X18362509Y4627000D01*
X18284749Y4642467D01*
X18229430Y4679430D01*
X18192467Y4734749D01*
X18177000Y4812509D01*
X18177000Y6737491D01*
X18192467Y6815251D01*
X18229430Y6870570D01*
X18284749Y6907533D01*
X18362509Y6923000D01*
X20162491Y6923000D01*
X20240251Y6907533D01*
%TA.AperFunction,Conductor*%
G36*
X20240251Y6907533D02*
G01*
X20295570Y6870570D01*
X20332533Y6815251D01*
X20348000Y6737491D01*
X20348000Y6712509D01*
X20332533Y6634749D01*
X20295570Y6579430D01*
X20240251Y6542467D01*
X20172878Y6529066D01*
X18920000Y6529066D01*
X18899022Y6527000D01*
X18875000Y6527000D01*
X18850224Y6524560D01*
X18735419Y6501724D01*
X18711594Y6494497D01*
X18689637Y6482761D01*
X18592310Y6417729D01*
X18573065Y6401934D01*
X18557271Y6382690D01*
X18492239Y6285363D01*
X18480503Y6263406D01*
X18473276Y6239581D01*
X18450440Y6124776D01*
X18448000Y6100000D01*
X18448000Y5450000D01*
X18450440Y5425224D01*
X18473276Y5310419D01*
X18480503Y5286594D01*
X18492239Y5264637D01*
X18557271Y5167310D01*
X18573066Y5148065D01*
X18592310Y5132271D01*
X18689637Y5067239D01*
X18711594Y5055503D01*
X18735419Y5048276D01*
X18850224Y5025440D01*
X18875000Y5023000D01*
X18899022Y5023000D01*
X18920000Y5020934D01*
X20172878Y5020934D01*
X20240251Y5007533D01*
X20295570Y4970570D01*
X20332533Y4915251D01*
X20348000Y4837491D01*
X20348000Y3950000D01*
X20350440Y3925224D01*
X20373276Y3810419D01*
X20380503Y3786594D01*
X20392239Y3764637D01*
X20457271Y3667310D01*
X20473066Y3648065D01*
X20492310Y3632271D01*
X20589637Y3567239D01*
X20611594Y3555503D01*
X20635419Y3548276D01*
X20750224Y3525440D01*
X20775000Y3523000D01*
X20862491Y3523000D01*
X20940251Y3507533D01*
X20995570Y3470570D01*
X21032533Y3415251D01*
X21048000Y3337491D01*
X21048000Y3012509D01*
X21032533Y2934749D01*
X20995570Y2879430D01*
X20940251Y2842467D01*
X20862491Y2827000D01*
X19237509Y2827000D01*
X19159749Y2842467D01*
X19104430Y2879430D01*
X19067467Y2934749D01*
X19052000Y3012509D01*
X19052000Y4200000D01*
X19049560Y4224776D01*
X19026724Y4339581D01*
X19019497Y4363406D01*
X19007761Y4385363D01*
X18942729Y4482690D01*
X18926934Y4501935D01*
X18907690Y4517729D01*
X18810363Y4582761D01*
X18788406Y4594497D01*
X18764581Y4601724D01*
X18649776Y4624560D01*
X18625000Y4627000D01*
X18362509Y4627000D01*
X18284749Y4642467D01*
X18229430Y4679430D01*
X18192467Y4734749D01*
X18177000Y4812509D01*
X18177000Y6737491D01*
X18192467Y6815251D01*
X18229430Y6870570D01*
X18284749Y6907533D01*
X18362509Y6923000D01*
X20162491Y6923000D01*
X20240251Y6907533D01*
G37*
%TD.AperFunction*%
M02*
