M48
; DRILL file {KiCad (5.1.8)-1} date 02/13/21 13:18:42
; FORMAT={-:-/ absolute / inch / decimal}
; #@! TF.CreationDate,2021-02-13T13:18:42-08:00
; #@! TF.GenerationSoftware,Kicad,Pcbnew,(5.1.8)-1
FMAT,2
INCH
T1C0.0157
T2C0.0236
T3C0.0394
T4C0.1339
%
G90
G05
T1
X0.3888Y1.124
X0.3888Y0.8888
X0.3888Y0.4163
X0.3898Y1.5974
X0.3898Y1.3652
X0.3898Y0.6526
X0.3898Y0.1781
X0.3947Y1.8396
X0.5984Y0.2028
X0.6063Y1.8474
X0.6063Y1.6053
X0.6063Y1.373
X0.6063Y1.1348
X0.6063Y0.8986
X0.6063Y0.6624
X0.6063Y0.4262
X0.6171Y0.3258
X0.6181Y1.5128
X0.6181Y0.8022
X0.6181Y0.5659
X0.6191Y1.2746
X0.6191Y1.0384
X0.6201Y1.7461
X0.624Y1.9852
X0.8809Y0.0305
X0.8819Y1.7608
X0.8819Y1.5226
X0.8819Y1.2884
X0.8819Y1.0522
X0.8819Y0.8159
X0.8819Y0.5797
X0.8819Y0.3435
X0.9459Y0.124
X0.9459Y0.0305
X1.1585Y1.9183
T2
X1.3031Y2.0079
X1.3031Y1.7717
X1.3031Y1.5394
X1.3031Y1.3031
X1.3031Y1.0669
X1.3031Y0.8307
X1.3031Y0.5906
X1.3031Y0.3543
X1.3465Y2.0079
X1.3465Y1.7717
X1.3465Y1.5394
X1.3465Y1.3031
X1.3465Y1.0669
X1.3465Y0.8307
X1.3465Y0.5906
X1.3465Y0.3543
X1.3898Y2.0079
X1.3898Y1.7717
X1.3898Y1.5394
X1.3898Y1.3031
X1.3898Y1.0669
X1.3898Y0.8307
X1.3898Y0.5906
X1.3898Y0.3543
T3
X0.0787Y2.1654
X0.2756Y2.1654
X0.4724Y2.1654
X0.6693Y2.1654
X0.8661Y2.1654
X1.063Y2.1654
X1.063Y0.0787
X1.2598Y2.1654
X1.2598Y0.0787
X1.4567Y2.1654
X1.4567Y0.0787
X1.6535Y2.1654
X1.6535Y0.0787
X0.0551Y1.4965
X0.0551Y1.3965
X0.0551Y1.2965
X0.0551Y1.1965
X0.0551Y1.0965
X0.0551Y0.9965
X0.0551Y0.8965
X0.0551Y0.7965
X0.0551Y0.6965
X1.7008Y1.5102
X1.7008Y1.4102
X1.7008Y1.3102
X1.7008Y1.2102
X1.7008Y1.1102
X1.7008Y1.0102
X1.7008Y0.9102
X1.7008Y0.8102
X1.7008Y0.7102
T4
X0.1378Y0.25
X0.1378Y1.9193
T0
M30
