%TF.GenerationSoftware,KiCad,Pcbnew,(5.1.8)-1*%
%TF.CreationDate,2021-02-13T13:18:40-08:00*%
%TF.ProjectId,20210213_Projects_PassiveBalanceBoard,32303231-3032-4313-935f-50726f6a6563,A0*%
%TF.SameCoordinates,PX5b5cac0PY99e0170*%
%TF.FileFunction,Legend,Bot*%
%TF.FilePolarity,Positive*%
%FSLAX46Y46*%
G04 Gerber Fmt 4.6, Leading zero omitted, Abs format (unit mm)*
G04 Created by KiCad (PCBNEW (5.1.8)-1) date 2021-02-13 13:18:40*
%MOMM*%
%LPD*%
G01*
G04 APERTURE LIST*
%ADD10C,0.120000*%
%ADD11C,0.200000*%
%ADD12C,0.250000*%
%ADD13C,0.100000*%
G04 APERTURE END LIST*
D10*
X44475000Y39625000D02*
X41925000Y39625000D01*
X44475000Y16775000D02*
X44475000Y39625000D01*
X41925000Y16775000D02*
X44475000Y16775000D01*
X41925000Y39625000D02*
X41925000Y16775000D01*
X125000Y16425000D02*
X125000Y39275000D01*
X2675000Y16425000D02*
X125000Y16425000D01*
X2675000Y39275000D02*
X2675000Y16425000D01*
X125000Y39275000D02*
X2675000Y39275000D01*
D11*
X7438095Y43521429D02*
X7400000Y43483334D01*
X7361904Y43407143D01*
X7361904Y43216667D01*
X7400000Y43140477D01*
X7438095Y43102381D01*
X7514285Y43064286D01*
X7590476Y43064286D01*
X7704761Y43102381D01*
X8161904Y43559524D01*
X8161904Y43064286D01*
X7361904Y42569048D02*
X7361904Y42492858D01*
X7400000Y42416667D01*
X7438095Y42378572D01*
X7514285Y42340477D01*
X7666666Y42302381D01*
X7857142Y42302381D01*
X8009523Y42340477D01*
X8085714Y42378572D01*
X8123809Y42416667D01*
X8161904Y42492858D01*
X8161904Y42569048D01*
X8123809Y42645239D01*
X8085714Y42683334D01*
X8009523Y42721429D01*
X7857142Y42759524D01*
X7666666Y42759524D01*
X7514285Y42721429D01*
X7438095Y42683334D01*
X7400000Y42645239D01*
X7361904Y42569048D01*
X7438095Y41997620D02*
X7400000Y41959524D01*
X7361904Y41883334D01*
X7361904Y41692858D01*
X7400000Y41616667D01*
X7438095Y41578572D01*
X7514285Y41540477D01*
X7590476Y41540477D01*
X7704761Y41578572D01*
X8161904Y42035715D01*
X8161904Y41540477D01*
X8161904Y40778572D02*
X8161904Y41235715D01*
X8161904Y41007143D02*
X7361904Y41007143D01*
X7476190Y41083334D01*
X7552380Y41159524D01*
X7590476Y41235715D01*
X7361904Y40283334D02*
X7361904Y40207143D01*
X7400000Y40130953D01*
X7438095Y40092858D01*
X7514285Y40054762D01*
X7666666Y40016667D01*
X7857142Y40016667D01*
X8009523Y40054762D01*
X8085714Y40092858D01*
X8123809Y40130953D01*
X8161904Y40207143D01*
X8161904Y40283334D01*
X8123809Y40359524D01*
X8085714Y40397620D01*
X8009523Y40435715D01*
X7857142Y40473810D01*
X7666666Y40473810D01*
X7514285Y40435715D01*
X7438095Y40397620D01*
X7400000Y40359524D01*
X7361904Y40283334D01*
X7438095Y39711905D02*
X7400000Y39673810D01*
X7361904Y39597620D01*
X7361904Y39407143D01*
X7400000Y39330953D01*
X7438095Y39292858D01*
X7514285Y39254762D01*
X7590476Y39254762D01*
X7704761Y39292858D01*
X8161904Y39750000D01*
X8161904Y39254762D01*
X8161904Y38492858D02*
X8161904Y38950000D01*
X8161904Y38721429D02*
X7361904Y38721429D01*
X7476190Y38797620D01*
X7552380Y38873810D01*
X7590476Y38950000D01*
X7361904Y38226191D02*
X7361904Y37730953D01*
X7666666Y37997620D01*
X7666666Y37883334D01*
X7704761Y37807143D01*
X7742857Y37769048D01*
X7819047Y37730953D01*
X8009523Y37730953D01*
X8085714Y37769048D01*
X8123809Y37807143D01*
X8161904Y37883334D01*
X8161904Y38111905D01*
X8123809Y38188096D01*
X8085714Y38226191D01*
X8238095Y37578572D02*
X8238095Y36969048D01*
X8161904Y36778572D02*
X7361904Y36778572D01*
X7361904Y36473810D01*
X7400000Y36397620D01*
X7438095Y36359524D01*
X7514285Y36321429D01*
X7628571Y36321429D01*
X7704761Y36359524D01*
X7742857Y36397620D01*
X7780952Y36473810D01*
X7780952Y36778572D01*
X8161904Y35521429D02*
X7780952Y35788096D01*
X8161904Y35978572D02*
X7361904Y35978572D01*
X7361904Y35673810D01*
X7400000Y35597620D01*
X7438095Y35559524D01*
X7514285Y35521429D01*
X7628571Y35521429D01*
X7704761Y35559524D01*
X7742857Y35597620D01*
X7780952Y35673810D01*
X7780952Y35978572D01*
X7361904Y35026191D02*
X7361904Y34873810D01*
X7400000Y34797620D01*
X7476190Y34721429D01*
X7628571Y34683334D01*
X7895238Y34683334D01*
X8047619Y34721429D01*
X8123809Y34797620D01*
X8161904Y34873810D01*
X8161904Y35026191D01*
X8123809Y35102381D01*
X8047619Y35178572D01*
X7895238Y35216667D01*
X7628571Y35216667D01*
X7476190Y35178572D01*
X7400000Y35102381D01*
X7361904Y35026191D01*
X7361904Y34111905D02*
X7933333Y34111905D01*
X8047619Y34150000D01*
X8123809Y34226191D01*
X8161904Y34340477D01*
X8161904Y34416667D01*
X7742857Y33730953D02*
X7742857Y33464286D01*
X8161904Y33350000D02*
X8161904Y33730953D01*
X7361904Y33730953D01*
X7361904Y33350000D01*
X8085714Y32550000D02*
X8123809Y32588096D01*
X8161904Y32702381D01*
X8161904Y32778572D01*
X8123809Y32892858D01*
X8047619Y32969048D01*
X7971428Y33007143D01*
X7819047Y33045239D01*
X7704761Y33045239D01*
X7552380Y33007143D01*
X7476190Y32969048D01*
X7400000Y32892858D01*
X7361904Y32778572D01*
X7361904Y32702381D01*
X7400000Y32588096D01*
X7438095Y32550000D01*
X7361904Y32321429D02*
X7361904Y31864286D01*
X8161904Y32092858D02*
X7361904Y32092858D01*
X8123809Y31635715D02*
X8161904Y31521429D01*
X8161904Y31330953D01*
X8123809Y31254762D01*
X8085714Y31216667D01*
X8009523Y31178572D01*
X7933333Y31178572D01*
X7857142Y31216667D01*
X7819047Y31254762D01*
X7780952Y31330953D01*
X7742857Y31483334D01*
X7704761Y31559524D01*
X7666666Y31597620D01*
X7590476Y31635715D01*
X7514285Y31635715D01*
X7438095Y31597620D01*
X7400000Y31559524D01*
X7361904Y31483334D01*
X7361904Y31292858D01*
X7400000Y31178572D01*
X8238095Y31026191D02*
X8238095Y30416667D01*
X7704761Y30111905D02*
X7666666Y30188096D01*
X7628571Y30226191D01*
X7552380Y30264286D01*
X7514285Y30264286D01*
X7438095Y30226191D01*
X7400000Y30188096D01*
X7361904Y30111905D01*
X7361904Y29959524D01*
X7400000Y29883334D01*
X7438095Y29845239D01*
X7514285Y29807143D01*
X7552380Y29807143D01*
X7628571Y29845239D01*
X7666666Y29883334D01*
X7704761Y29959524D01*
X7704761Y30111905D01*
X7742857Y30188096D01*
X7780952Y30226191D01*
X7857142Y30264286D01*
X8009523Y30264286D01*
X8085714Y30226191D01*
X8123809Y30188096D01*
X8161904Y30111905D01*
X8161904Y29959524D01*
X8123809Y29883334D01*
X8085714Y29845239D01*
X8009523Y29807143D01*
X7857142Y29807143D01*
X7780952Y29845239D01*
X7742857Y29883334D01*
X7704761Y29959524D01*
X8123809Y29502381D02*
X8161904Y29388096D01*
X8161904Y29197620D01*
X8123809Y29121429D01*
X8085714Y29083334D01*
X8009523Y29045239D01*
X7933333Y29045239D01*
X7857142Y29083334D01*
X7819047Y29121429D01*
X7780952Y29197620D01*
X7742857Y29350000D01*
X7704761Y29426191D01*
X7666666Y29464286D01*
X7590476Y29502381D01*
X7514285Y29502381D01*
X7438095Y29464286D01*
X7400000Y29426191D01*
X7361904Y29350000D01*
X7361904Y29159524D01*
X7400000Y29045239D01*
X8161904Y28702381D02*
X7361904Y28702381D01*
X7361904Y28397620D01*
X7400000Y28321429D01*
X7438095Y28283334D01*
X7514285Y28245239D01*
X7628571Y28245239D01*
X7704761Y28283334D01*
X7742857Y28321429D01*
X7780952Y28397620D01*
X7780952Y28702381D01*
X7933333Y27940477D02*
X7933333Y27559524D01*
X8161904Y28016667D02*
X7361904Y27750000D01*
X8161904Y27483334D01*
X8123809Y27254762D02*
X8161904Y27140477D01*
X8161904Y26950000D01*
X8123809Y26873810D01*
X8085714Y26835715D01*
X8009523Y26797620D01*
X7933333Y26797620D01*
X7857142Y26835715D01*
X7819047Y26873810D01*
X7780952Y26950000D01*
X7742857Y27102381D01*
X7704761Y27178572D01*
X7666666Y27216667D01*
X7590476Y27254762D01*
X7514285Y27254762D01*
X7438095Y27216667D01*
X7400000Y27178572D01*
X7361904Y27102381D01*
X7361904Y26911905D01*
X7400000Y26797620D01*
X8123809Y26492858D02*
X8161904Y26378572D01*
X8161904Y26188096D01*
X8123809Y26111905D01*
X8085714Y26073810D01*
X8009523Y26035715D01*
X7933333Y26035715D01*
X7857142Y26073810D01*
X7819047Y26111905D01*
X7780952Y26188096D01*
X7742857Y26340477D01*
X7704761Y26416667D01*
X7666666Y26454762D01*
X7590476Y26492858D01*
X7514285Y26492858D01*
X7438095Y26454762D01*
X7400000Y26416667D01*
X7361904Y26340477D01*
X7361904Y26150000D01*
X7400000Y26035715D01*
X8161904Y25692858D02*
X7361904Y25692858D01*
X7361904Y25426191D02*
X8161904Y25159524D01*
X7361904Y24892858D01*
X7742857Y24626191D02*
X7742857Y24359524D01*
X8161904Y24245239D02*
X8161904Y24626191D01*
X7361904Y24626191D01*
X7361904Y24245239D01*
X8238095Y24092858D02*
X8238095Y23483334D01*
X7742857Y23026191D02*
X7780952Y22911905D01*
X7819047Y22873810D01*
X7895238Y22835715D01*
X8009523Y22835715D01*
X8085714Y22873810D01*
X8123809Y22911905D01*
X8161904Y22988096D01*
X8161904Y23292858D01*
X7361904Y23292858D01*
X7361904Y23026191D01*
X7400000Y22950000D01*
X7438095Y22911905D01*
X7514285Y22873810D01*
X7590476Y22873810D01*
X7666666Y22911905D01*
X7704761Y22950000D01*
X7742857Y23026191D01*
X7742857Y23292858D01*
X7933333Y22530953D02*
X7933333Y22150000D01*
X8161904Y22607143D02*
X7361904Y22340477D01*
X8161904Y22073810D01*
X8161904Y21426191D02*
X8161904Y21807143D01*
X7361904Y21807143D01*
X7933333Y21197620D02*
X7933333Y20816667D01*
X8161904Y21273810D02*
X7361904Y21007143D01*
X8161904Y20740477D01*
X8161904Y20473810D02*
X7361904Y20473810D01*
X8161904Y20016667D01*
X7361904Y20016667D01*
X8085714Y19178572D02*
X8123809Y19216667D01*
X8161904Y19330953D01*
X8161904Y19407143D01*
X8123809Y19521429D01*
X8047619Y19597620D01*
X7971428Y19635715D01*
X7819047Y19673810D01*
X7704761Y19673810D01*
X7552380Y19635715D01*
X7476190Y19597620D01*
X7400000Y19521429D01*
X7361904Y19407143D01*
X7361904Y19330953D01*
X7400000Y19216667D01*
X7438095Y19178572D01*
X7742857Y18835715D02*
X7742857Y18569048D01*
X8161904Y18454762D02*
X8161904Y18835715D01*
X7361904Y18835715D01*
X7361904Y18454762D01*
X8238095Y18302381D02*
X8238095Y17692858D01*
X7933333Y17540477D02*
X7933333Y17159524D01*
X8161904Y17616667D02*
X7361904Y17350000D01*
X8161904Y17083334D01*
X7361904Y16892858D02*
X7361904Y16397620D01*
X7666666Y16664286D01*
X7666666Y16550000D01*
X7704761Y16473810D01*
X7742857Y16435715D01*
X7819047Y16397620D01*
X8009523Y16397620D01*
X8085714Y16435715D01*
X8123809Y16473810D01*
X8161904Y16550000D01*
X8161904Y16778572D01*
X8123809Y16854762D01*
X8085714Y16892858D01*
X8238095Y16245239D02*
X8238095Y15635715D01*
X7361904Y15292858D02*
X7361904Y15216667D01*
X7400000Y15140477D01*
X7438095Y15102381D01*
X7514285Y15064286D01*
X7666666Y15026191D01*
X7857142Y15026191D01*
X8009523Y15064286D01*
X8085714Y15102381D01*
X8123809Y15140477D01*
X8161904Y15216667D01*
X8161904Y15292858D01*
X8123809Y15369048D01*
X8085714Y15407143D01*
X8009523Y15445239D01*
X7857142Y15483334D01*
X7666666Y15483334D01*
X7514285Y15445239D01*
X7438095Y15407143D01*
X7400000Y15369048D01*
X7361904Y15292858D01*
X7361904Y14530953D02*
X7361904Y14454762D01*
X7400000Y14378572D01*
X7438095Y14340477D01*
X7514285Y14302381D01*
X7666666Y14264286D01*
X7857142Y14264286D01*
X8009523Y14302381D01*
X8085714Y14340477D01*
X8123809Y14378572D01*
X8161904Y14454762D01*
X8161904Y14530953D01*
X8123809Y14607143D01*
X8085714Y14645239D01*
X8009523Y14683334D01*
X7857142Y14721429D01*
X7666666Y14721429D01*
X7514285Y14683334D01*
X7438095Y14645239D01*
X7400000Y14607143D01*
X7361904Y14530953D01*
X7361904Y13769048D02*
X7361904Y13692858D01*
X7400000Y13616667D01*
X7438095Y13578572D01*
X7514285Y13540477D01*
X7666666Y13502381D01*
X7857142Y13502381D01*
X8009523Y13540477D01*
X8085714Y13578572D01*
X8123809Y13616667D01*
X8161904Y13692858D01*
X8161904Y13769048D01*
X8123809Y13845239D01*
X8085714Y13883334D01*
X8009523Y13921429D01*
X7857142Y13959524D01*
X7666666Y13959524D01*
X7514285Y13921429D01*
X7438095Y13883334D01*
X7400000Y13845239D01*
X7361904Y13769048D01*
X7361904Y13007143D02*
X7361904Y12930953D01*
X7400000Y12854762D01*
X7438095Y12816667D01*
X7514285Y12778572D01*
X7666666Y12740477D01*
X7857142Y12740477D01*
X8009523Y12778572D01*
X8085714Y12816667D01*
X8123809Y12854762D01*
X8161904Y12930953D01*
X8161904Y13007143D01*
X8123809Y13083334D01*
X8085714Y13121429D01*
X8009523Y13159524D01*
X7857142Y13197620D01*
X7666666Y13197620D01*
X7514285Y13159524D01*
X7438095Y13121429D01*
X7400000Y13083334D01*
X7361904Y13007143D01*
X7628571Y12054762D02*
X8161904Y12054762D01*
X7323809Y12245239D02*
X7895238Y12435715D01*
X7895238Y11940477D01*
X9523809Y32397620D02*
X9561904Y32283334D01*
X9561904Y32092858D01*
X9523809Y32016667D01*
X9485714Y31978572D01*
X9409523Y31940477D01*
X9333333Y31940477D01*
X9257142Y31978572D01*
X9219047Y32016667D01*
X9180952Y32092858D01*
X9142857Y32245239D01*
X9104761Y32321429D01*
X9066666Y32359524D01*
X8990476Y32397620D01*
X8914285Y32397620D01*
X8838095Y32359524D01*
X8800000Y32321429D01*
X8761904Y32245239D01*
X8761904Y32054762D01*
X8800000Y31940477D01*
X9561904Y31597620D02*
X8761904Y31597620D01*
X9561904Y31216667D02*
X8761904Y31216667D01*
X9333333Y30950000D01*
X8761904Y30683334D01*
X9561904Y30683334D01*
X9561904Y30302381D02*
X8761904Y30302381D01*
X8761904Y29997620D01*
X8800000Y29921429D01*
X8838095Y29883334D01*
X8914285Y29845239D01*
X9028571Y29845239D01*
X9104761Y29883334D01*
X9142857Y29921429D01*
X9180952Y29997620D01*
X9180952Y30302381D01*
X9561904Y29121429D02*
X9561904Y29502381D01*
X8761904Y29502381D01*
X9142857Y28854762D02*
X9142857Y28588096D01*
X9561904Y28473810D02*
X9561904Y28854762D01*
X8761904Y28854762D01*
X8761904Y28473810D01*
X9257142Y28130953D02*
X9257142Y27521429D01*
X9142857Y27140477D02*
X9142857Y26873810D01*
X9561904Y26759524D02*
X9561904Y27140477D01*
X8761904Y27140477D01*
X8761904Y26759524D01*
X9142857Y26416667D02*
X9142857Y26150000D01*
X9561904Y26035715D02*
X9561904Y26416667D01*
X8761904Y26416667D01*
X8761904Y26035715D01*
X9485714Y25692858D02*
X9523809Y25654762D01*
X9561904Y25692858D01*
X9523809Y25730953D01*
X9485714Y25692858D01*
X9561904Y25692858D01*
X9485714Y24854762D02*
X9523809Y24892858D01*
X9561904Y25007143D01*
X9561904Y25083334D01*
X9523809Y25197620D01*
X9447619Y25273810D01*
X9371428Y25311905D01*
X9219047Y25350000D01*
X9104761Y25350000D01*
X8952380Y25311905D01*
X8876190Y25273810D01*
X8800000Y25197620D01*
X8761904Y25083334D01*
X8761904Y25007143D01*
X8800000Y24892858D01*
X8838095Y24854762D01*
X8761904Y24359524D02*
X8761904Y24207143D01*
X8800000Y24130953D01*
X8876190Y24054762D01*
X9028571Y24016667D01*
X9295238Y24016667D01*
X9447619Y24054762D01*
X9523809Y24130953D01*
X9561904Y24207143D01*
X9561904Y24359524D01*
X9523809Y24435715D01*
X9447619Y24511905D01*
X9295238Y24550000D01*
X9028571Y24550000D01*
X8876190Y24511905D01*
X8800000Y24435715D01*
X8761904Y24359524D01*
X9561904Y23673810D02*
X8761904Y23673810D01*
X9333333Y23407143D01*
X8761904Y23140477D01*
X9561904Y23140477D01*
D12*
X3724404Y37350000D02*
X3629166Y37302381D01*
X3486309Y37302381D01*
X3343452Y37350000D01*
X3248214Y37445239D01*
X3200595Y37540477D01*
X3152976Y37730953D01*
X3152976Y37873810D01*
X3200595Y38064286D01*
X3248214Y38159524D01*
X3343452Y38254762D01*
X3486309Y38302381D01*
X3581547Y38302381D01*
X3724404Y38254762D01*
X3772023Y38207143D01*
X3772023Y37873810D01*
X3581547Y37873810D01*
X4200595Y38302381D02*
X4200595Y37302381D01*
X4772023Y38302381D01*
X4772023Y37302381D01*
X5248214Y38302381D02*
X5248214Y37302381D01*
X5486309Y37302381D01*
X5629166Y37350000D01*
X5724404Y37445239D01*
X5772023Y37540477D01*
X5819642Y37730953D01*
X5819642Y37873810D01*
X5772023Y38064286D01*
X5724404Y38159524D01*
X5629166Y38254762D01*
X5486309Y38302381D01*
X5248214Y38302381D01*
X3200595Y35902381D02*
X3200595Y34902381D01*
X3438690Y34902381D01*
X3581547Y34950000D01*
X3676785Y35045239D01*
X3724404Y35140477D01*
X3772023Y35330953D01*
X3772023Y35473810D01*
X3724404Y35664286D01*
X3676785Y35759524D01*
X3581547Y35854762D01*
X3438690Y35902381D01*
X3200595Y35902381D01*
X4105357Y34902381D02*
X4772023Y34902381D01*
X4343452Y35902381D01*
X3200595Y33352381D02*
X3200595Y32352381D01*
X3438690Y32352381D01*
X3581547Y32400000D01*
X3676785Y32495239D01*
X3724404Y32590477D01*
X3772023Y32780953D01*
X3772023Y32923810D01*
X3724404Y33114286D01*
X3676785Y33209524D01*
X3581547Y33304762D01*
X3438690Y33352381D01*
X3200595Y33352381D01*
X4629166Y32352381D02*
X4438690Y32352381D01*
X4343452Y32400000D01*
X4295833Y32447620D01*
X4200595Y32590477D01*
X4152976Y32780953D01*
X4152976Y33161905D01*
X4200595Y33257143D01*
X4248214Y33304762D01*
X4343452Y33352381D01*
X4533928Y33352381D01*
X4629166Y33304762D01*
X4676785Y33257143D01*
X4724404Y33161905D01*
X4724404Y32923810D01*
X4676785Y32828572D01*
X4629166Y32780953D01*
X4533928Y32733334D01*
X4343452Y32733334D01*
X4248214Y32780953D01*
X4200595Y32828572D01*
X4152976Y32923810D01*
X3200595Y30852381D02*
X3200595Y29852381D01*
X3438690Y29852381D01*
X3581547Y29900000D01*
X3676785Y29995239D01*
X3724404Y30090477D01*
X3772023Y30280953D01*
X3772023Y30423810D01*
X3724404Y30614286D01*
X3676785Y30709524D01*
X3581547Y30804762D01*
X3438690Y30852381D01*
X3200595Y30852381D01*
X4676785Y29852381D02*
X4200595Y29852381D01*
X4152976Y30328572D01*
X4200595Y30280953D01*
X4295833Y30233334D01*
X4533928Y30233334D01*
X4629166Y30280953D01*
X4676785Y30328572D01*
X4724404Y30423810D01*
X4724404Y30661905D01*
X4676785Y30757143D01*
X4629166Y30804762D01*
X4533928Y30852381D01*
X4295833Y30852381D01*
X4200595Y30804762D01*
X4152976Y30757143D01*
X3200595Y28302381D02*
X3200595Y27302381D01*
X3438690Y27302381D01*
X3581547Y27350000D01*
X3676785Y27445239D01*
X3724404Y27540477D01*
X3772023Y27730953D01*
X3772023Y27873810D01*
X3724404Y28064286D01*
X3676785Y28159524D01*
X3581547Y28254762D01*
X3438690Y28302381D01*
X3200595Y28302381D01*
X4629166Y27635715D02*
X4629166Y28302381D01*
X4391071Y27254762D02*
X4152976Y27969048D01*
X4772023Y27969048D01*
X3200595Y25752381D02*
X3200595Y24752381D01*
X3438690Y24752381D01*
X3581547Y24800000D01*
X3676785Y24895239D01*
X3724404Y24990477D01*
X3772023Y25180953D01*
X3772023Y25323810D01*
X3724404Y25514286D01*
X3676785Y25609524D01*
X3581547Y25704762D01*
X3438690Y25752381D01*
X3200595Y25752381D01*
X4105357Y24752381D02*
X4724404Y24752381D01*
X4391071Y25133334D01*
X4533928Y25133334D01*
X4629166Y25180953D01*
X4676785Y25228572D01*
X4724404Y25323810D01*
X4724404Y25561905D01*
X4676785Y25657143D01*
X4629166Y25704762D01*
X4533928Y25752381D01*
X4248214Y25752381D01*
X4152976Y25704762D01*
X4105357Y25657143D01*
X3200595Y23202381D02*
X3200595Y22202381D01*
X3438690Y22202381D01*
X3581547Y22250000D01*
X3676785Y22345239D01*
X3724404Y22440477D01*
X3772023Y22630953D01*
X3772023Y22773810D01*
X3724404Y22964286D01*
X3676785Y23059524D01*
X3581547Y23154762D01*
X3438690Y23202381D01*
X3200595Y23202381D01*
X4152976Y22297620D02*
X4200595Y22250000D01*
X4295833Y22202381D01*
X4533928Y22202381D01*
X4629166Y22250000D01*
X4676785Y22297620D01*
X4724404Y22392858D01*
X4724404Y22488096D01*
X4676785Y22630953D01*
X4105357Y23202381D01*
X4724404Y23202381D01*
X3200595Y20702381D02*
X3200595Y19702381D01*
X3438690Y19702381D01*
X3581547Y19750000D01*
X3676785Y19845239D01*
X3724404Y19940477D01*
X3772023Y20130953D01*
X3772023Y20273810D01*
X3724404Y20464286D01*
X3676785Y20559524D01*
X3581547Y20654762D01*
X3438690Y20702381D01*
X3200595Y20702381D01*
X4724404Y20702381D02*
X4152976Y20702381D01*
X4438690Y20702381D02*
X4438690Y19702381D01*
X4343452Y19845239D01*
X4248214Y19940477D01*
X4152976Y19988096D01*
X3200595Y18152381D02*
X3200595Y17152381D01*
X3438690Y17152381D01*
X3581547Y17200000D01*
X3676785Y17295239D01*
X3724404Y17390477D01*
X3772023Y17580953D01*
X3772023Y17723810D01*
X3724404Y17914286D01*
X3676785Y18009524D01*
X3581547Y18104762D01*
X3438690Y18152381D01*
X3200595Y18152381D01*
X4391071Y17152381D02*
X4486309Y17152381D01*
X4581547Y17200000D01*
X4629166Y17247620D01*
X4676785Y17342858D01*
X4724404Y17533334D01*
X4724404Y17771429D01*
X4676785Y17961905D01*
X4629166Y18057143D01*
X4581547Y18104762D01*
X4486309Y18152381D01*
X4391071Y18152381D01*
X4295833Y18104762D01*
X4248214Y18057143D01*
X4200595Y17961905D01*
X4152976Y17771429D01*
X4152976Y17533334D01*
X4200595Y17342858D01*
X4248214Y17247620D01*
X4295833Y17200000D01*
X4391071Y17152381D01*
D11*
X40850000Y38959524D02*
X40811904Y39035715D01*
X40811904Y39150000D01*
X40850000Y39264286D01*
X40926190Y39340477D01*
X41002380Y39378572D01*
X41154761Y39416667D01*
X41269047Y39416667D01*
X41421428Y39378572D01*
X41497619Y39340477D01*
X41573809Y39264286D01*
X41611904Y39150000D01*
X41611904Y39073810D01*
X41573809Y38959524D01*
X41535714Y38921429D01*
X41269047Y38921429D01*
X41269047Y39073810D01*
X41611904Y38578572D02*
X40811904Y38578572D01*
X41611904Y38121429D01*
X40811904Y38121429D01*
X41611904Y37740477D02*
X40811904Y37740477D01*
X40811904Y37550000D01*
X40850000Y37435715D01*
X40926190Y37359524D01*
X41002380Y37321429D01*
X41154761Y37283334D01*
X41269047Y37283334D01*
X41421428Y37321429D01*
X41497619Y37359524D01*
X41573809Y37435715D01*
X41611904Y37550000D01*
X41611904Y37740477D01*
X40565238Y35742858D02*
X40679523Y35780953D01*
X40717619Y35819048D01*
X40755714Y35895239D01*
X40755714Y36009524D01*
X40717619Y36085715D01*
X40679523Y36123810D01*
X40603333Y36161905D01*
X40298571Y36161905D01*
X40298571Y35361905D01*
X40565238Y35361905D01*
X40641428Y35400000D01*
X40679523Y35438096D01*
X40717619Y35514286D01*
X40717619Y35590477D01*
X40679523Y35666667D01*
X40641428Y35704762D01*
X40565238Y35742858D01*
X40298571Y35742858D01*
X41022380Y35361905D02*
X41555714Y35361905D01*
X41212857Y36161905D01*
X40565238Y33192858D02*
X40679523Y33230953D01*
X40717619Y33269048D01*
X40755714Y33345239D01*
X40755714Y33459524D01*
X40717619Y33535715D01*
X40679523Y33573810D01*
X40603333Y33611905D01*
X40298571Y33611905D01*
X40298571Y32811905D01*
X40565238Y32811905D01*
X40641428Y32850000D01*
X40679523Y32888096D01*
X40717619Y32964286D01*
X40717619Y33040477D01*
X40679523Y33116667D01*
X40641428Y33154762D01*
X40565238Y33192858D01*
X40298571Y33192858D01*
X41441428Y32811905D02*
X41289047Y32811905D01*
X41212857Y32850000D01*
X41174761Y32888096D01*
X41098571Y33002381D01*
X41060476Y33154762D01*
X41060476Y33459524D01*
X41098571Y33535715D01*
X41136666Y33573810D01*
X41212857Y33611905D01*
X41365238Y33611905D01*
X41441428Y33573810D01*
X41479523Y33535715D01*
X41517619Y33459524D01*
X41517619Y33269048D01*
X41479523Y33192858D01*
X41441428Y33154762D01*
X41365238Y33116667D01*
X41212857Y33116667D01*
X41136666Y33154762D01*
X41098571Y33192858D01*
X41060476Y33269048D01*
X40565238Y30692858D02*
X40679523Y30730953D01*
X40717619Y30769048D01*
X40755714Y30845239D01*
X40755714Y30959524D01*
X40717619Y31035715D01*
X40679523Y31073810D01*
X40603333Y31111905D01*
X40298571Y31111905D01*
X40298571Y30311905D01*
X40565238Y30311905D01*
X40641428Y30350000D01*
X40679523Y30388096D01*
X40717619Y30464286D01*
X40717619Y30540477D01*
X40679523Y30616667D01*
X40641428Y30654762D01*
X40565238Y30692858D01*
X40298571Y30692858D01*
X41479523Y30311905D02*
X41098571Y30311905D01*
X41060476Y30692858D01*
X41098571Y30654762D01*
X41174761Y30616667D01*
X41365238Y30616667D01*
X41441428Y30654762D01*
X41479523Y30692858D01*
X41517619Y30769048D01*
X41517619Y30959524D01*
X41479523Y31035715D01*
X41441428Y31073810D01*
X41365238Y31111905D01*
X41174761Y31111905D01*
X41098571Y31073810D01*
X41060476Y31035715D01*
X40565238Y28142858D02*
X40679523Y28180953D01*
X40717619Y28219048D01*
X40755714Y28295239D01*
X40755714Y28409524D01*
X40717619Y28485715D01*
X40679523Y28523810D01*
X40603333Y28561905D01*
X40298571Y28561905D01*
X40298571Y27761905D01*
X40565238Y27761905D01*
X40641428Y27800000D01*
X40679523Y27838096D01*
X40717619Y27914286D01*
X40717619Y27990477D01*
X40679523Y28066667D01*
X40641428Y28104762D01*
X40565238Y28142858D01*
X40298571Y28142858D01*
X41441428Y28028572D02*
X41441428Y28561905D01*
X41250952Y27723810D02*
X41060476Y28295239D01*
X41555714Y28295239D01*
X40565238Y25592858D02*
X40679523Y25630953D01*
X40717619Y25669048D01*
X40755714Y25745239D01*
X40755714Y25859524D01*
X40717619Y25935715D01*
X40679523Y25973810D01*
X40603333Y26011905D01*
X40298571Y26011905D01*
X40298571Y25211905D01*
X40565238Y25211905D01*
X40641428Y25250000D01*
X40679523Y25288096D01*
X40717619Y25364286D01*
X40717619Y25440477D01*
X40679523Y25516667D01*
X40641428Y25554762D01*
X40565238Y25592858D01*
X40298571Y25592858D01*
X41022380Y25211905D02*
X41517619Y25211905D01*
X41250952Y25516667D01*
X41365238Y25516667D01*
X41441428Y25554762D01*
X41479523Y25592858D01*
X41517619Y25669048D01*
X41517619Y25859524D01*
X41479523Y25935715D01*
X41441428Y25973810D01*
X41365238Y26011905D01*
X41136666Y26011905D01*
X41060476Y25973810D01*
X41022380Y25935715D01*
X40565238Y23042858D02*
X40679523Y23080953D01*
X40717619Y23119048D01*
X40755714Y23195239D01*
X40755714Y23309524D01*
X40717619Y23385715D01*
X40679523Y23423810D01*
X40603333Y23461905D01*
X40298571Y23461905D01*
X40298571Y22661905D01*
X40565238Y22661905D01*
X40641428Y22700000D01*
X40679523Y22738096D01*
X40717619Y22814286D01*
X40717619Y22890477D01*
X40679523Y22966667D01*
X40641428Y23004762D01*
X40565238Y23042858D01*
X40298571Y23042858D01*
X41060476Y22738096D02*
X41098571Y22700000D01*
X41174761Y22661905D01*
X41365238Y22661905D01*
X41441428Y22700000D01*
X41479523Y22738096D01*
X41517619Y22814286D01*
X41517619Y22890477D01*
X41479523Y23004762D01*
X41022380Y23461905D01*
X41517619Y23461905D01*
X40565238Y20492858D02*
X40679523Y20530953D01*
X40717619Y20569048D01*
X40755714Y20645239D01*
X40755714Y20759524D01*
X40717619Y20835715D01*
X40679523Y20873810D01*
X40603333Y20911905D01*
X40298571Y20911905D01*
X40298571Y20111905D01*
X40565238Y20111905D01*
X40641428Y20150000D01*
X40679523Y20188096D01*
X40717619Y20264286D01*
X40717619Y20340477D01*
X40679523Y20416667D01*
X40641428Y20454762D01*
X40565238Y20492858D01*
X40298571Y20492858D01*
X41517619Y20911905D02*
X41060476Y20911905D01*
X41289047Y20911905D02*
X41289047Y20111905D01*
X41212857Y20226191D01*
X41136666Y20302381D01*
X41060476Y20340477D01*
X40565238Y17992858D02*
X40679523Y18030953D01*
X40717619Y18069048D01*
X40755714Y18145239D01*
X40755714Y18259524D01*
X40717619Y18335715D01*
X40679523Y18373810D01*
X40603333Y18411905D01*
X40298571Y18411905D01*
X40298571Y17611905D01*
X40565238Y17611905D01*
X40641428Y17650000D01*
X40679523Y17688096D01*
X40717619Y17764286D01*
X40717619Y17840477D01*
X40679523Y17916667D01*
X40641428Y17954762D01*
X40565238Y17992858D01*
X40298571Y17992858D01*
X41250952Y17611905D02*
X41327142Y17611905D01*
X41403333Y17650000D01*
X41441428Y17688096D01*
X41479523Y17764286D01*
X41517619Y17916667D01*
X41517619Y18107143D01*
X41479523Y18259524D01*
X41441428Y18335715D01*
X41403333Y18373810D01*
X41327142Y18411905D01*
X41250952Y18411905D01*
X41174761Y18373810D01*
X41136666Y18335715D01*
X41098571Y18259524D01*
X41060476Y18107143D01*
X41060476Y17916667D01*
X41098571Y17764286D01*
X41136666Y17688096D01*
X41174761Y17650000D01*
X41250952Y17611905D01*
D10*
X17321267Y25865000D02*
X16978733Y25865000D01*
X17321267Y26885000D02*
X16978733Y26885000D01*
X17296267Y20885000D02*
X16953733Y20885000D01*
X17296267Y19865000D02*
X16953733Y19865000D01*
X17296267Y14885000D02*
X16953733Y14885000D01*
X17296267Y13865000D02*
X16953733Y13865000D01*
X17446267Y49915000D02*
X17103733Y49915000D01*
X17446267Y50935000D02*
X17103733Y50935000D01*
X17346267Y43840000D02*
X17003733Y43840000D01*
X17346267Y44860000D02*
X17003733Y44860000D01*
X17296267Y37915000D02*
X16953733Y37915000D01*
X17296267Y38935000D02*
X16953733Y38935000D01*
X17321267Y32885000D02*
X16978733Y32885000D01*
X17321267Y31865000D02*
X16978733Y31865000D01*
X17271267Y7765000D02*
X16928733Y7765000D01*
X17271267Y8785000D02*
X16928733Y8785000D01*
D13*
X17821428Y24903572D02*
X18021428Y25189286D01*
X18164285Y24903572D02*
X18164285Y25503572D01*
X17935714Y25503572D01*
X17878571Y25475000D01*
X17850000Y25446429D01*
X17821428Y25389286D01*
X17821428Y25303572D01*
X17850000Y25246429D01*
X17878571Y25217858D01*
X17935714Y25189286D01*
X18164285Y25189286D01*
X17592857Y25446429D02*
X17564285Y25475000D01*
X17507142Y25503572D01*
X17364285Y25503572D01*
X17307142Y25475000D01*
X17278571Y25446429D01*
X17250000Y25389286D01*
X17250000Y25332143D01*
X17278571Y25246429D01*
X17621428Y24903572D01*
X17250000Y24903572D01*
X17021428Y25446429D02*
X16992857Y25475000D01*
X16935714Y25503572D01*
X16792857Y25503572D01*
X16735714Y25475000D01*
X16707142Y25446429D01*
X16678571Y25389286D01*
X16678571Y25332143D01*
X16707142Y25246429D01*
X17050000Y24903572D01*
X16678571Y24903572D01*
X16107142Y24903572D02*
X16450000Y24903572D01*
X16278571Y24903572D02*
X16278571Y25503572D01*
X16335714Y25417858D01*
X16392857Y25360715D01*
X16450000Y25332143D01*
X17796428Y18953572D02*
X17996428Y19239286D01*
X18139285Y18953572D02*
X18139285Y19553572D01*
X17910714Y19553572D01*
X17853571Y19525000D01*
X17825000Y19496429D01*
X17796428Y19439286D01*
X17796428Y19353572D01*
X17825000Y19296429D01*
X17853571Y19267858D01*
X17910714Y19239286D01*
X18139285Y19239286D01*
X17567857Y19496429D02*
X17539285Y19525000D01*
X17482142Y19553572D01*
X17339285Y19553572D01*
X17282142Y19525000D01*
X17253571Y19496429D01*
X17225000Y19439286D01*
X17225000Y19382143D01*
X17253571Y19296429D01*
X17596428Y18953572D01*
X17225000Y18953572D01*
X16996428Y19496429D02*
X16967857Y19525000D01*
X16910714Y19553572D01*
X16767857Y19553572D01*
X16710714Y19525000D01*
X16682142Y19496429D01*
X16653571Y19439286D01*
X16653571Y19382143D01*
X16682142Y19296429D01*
X17025000Y18953572D01*
X16653571Y18953572D01*
X16453571Y19553572D02*
X16082142Y19553572D01*
X16282142Y19325000D01*
X16196428Y19325000D01*
X16139285Y19296429D01*
X16110714Y19267858D01*
X16082142Y19210715D01*
X16082142Y19067858D01*
X16110714Y19010715D01*
X16139285Y18982143D01*
X16196428Y18953572D01*
X16367857Y18953572D01*
X16425000Y18982143D01*
X16453571Y19010715D01*
X17746428Y12903572D02*
X17946428Y13189286D01*
X18089285Y12903572D02*
X18089285Y13503572D01*
X17860714Y13503572D01*
X17803571Y13475000D01*
X17775000Y13446429D01*
X17746428Y13389286D01*
X17746428Y13303572D01*
X17775000Y13246429D01*
X17803571Y13217858D01*
X17860714Y13189286D01*
X18089285Y13189286D01*
X17517857Y13446429D02*
X17489285Y13475000D01*
X17432142Y13503572D01*
X17289285Y13503572D01*
X17232142Y13475000D01*
X17203571Y13446429D01*
X17175000Y13389286D01*
X17175000Y13332143D01*
X17203571Y13246429D01*
X17546428Y12903572D01*
X17175000Y12903572D01*
X16946428Y13446429D02*
X16917857Y13475000D01*
X16860714Y13503572D01*
X16717857Y13503572D01*
X16660714Y13475000D01*
X16632142Y13446429D01*
X16603571Y13389286D01*
X16603571Y13332143D01*
X16632142Y13246429D01*
X16975000Y12903572D01*
X16603571Y12903572D01*
X16060714Y13503572D02*
X16346428Y13503572D01*
X16375000Y13217858D01*
X16346428Y13246429D01*
X16289285Y13275000D01*
X16146428Y13275000D01*
X16089285Y13246429D01*
X16060714Y13217858D01*
X16032142Y13160715D01*
X16032142Y13017858D01*
X16060714Y12960715D01*
X16089285Y12932143D01*
X16146428Y12903572D01*
X16289285Y12903572D01*
X16346428Y12932143D01*
X16375000Y12960715D01*
X15146428Y50153572D02*
X15346428Y50439286D01*
X15489285Y50153572D02*
X15489285Y50753572D01*
X15260714Y50753572D01*
X15203571Y50725000D01*
X15175000Y50696429D01*
X15146428Y50639286D01*
X15146428Y50553572D01*
X15175000Y50496429D01*
X15203571Y50467858D01*
X15260714Y50439286D01*
X15489285Y50439286D01*
X14917857Y50696429D02*
X14889285Y50725000D01*
X14832142Y50753572D01*
X14689285Y50753572D01*
X14632142Y50725000D01*
X14603571Y50696429D01*
X14575000Y50639286D01*
X14575000Y50582143D01*
X14603571Y50496429D01*
X14946428Y50153572D01*
X14575000Y50153572D01*
X14060714Y50553572D02*
X14060714Y50153572D01*
X14203571Y50782143D02*
X14346428Y50353572D01*
X13975000Y50353572D01*
X13632142Y50753572D02*
X13575000Y50753572D01*
X13517857Y50725000D01*
X13489285Y50696429D01*
X13460714Y50639286D01*
X13432142Y50525000D01*
X13432142Y50382143D01*
X13460714Y50267858D01*
X13489285Y50210715D01*
X13517857Y50182143D01*
X13575000Y50153572D01*
X13632142Y50153572D01*
X13689285Y50182143D01*
X13717857Y50210715D01*
X13746428Y50267858D01*
X13775000Y50382143D01*
X13775000Y50525000D01*
X13746428Y50639286D01*
X13717857Y50696429D01*
X13689285Y50725000D01*
X13632142Y50753572D01*
X14946428Y44478572D02*
X15146428Y44764286D01*
X15289285Y44478572D02*
X15289285Y45078572D01*
X15060714Y45078572D01*
X15003571Y45050000D01*
X14975000Y45021429D01*
X14946428Y44964286D01*
X14946428Y44878572D01*
X14975000Y44821429D01*
X15003571Y44792858D01*
X15060714Y44764286D01*
X15289285Y44764286D01*
X14717857Y45021429D02*
X14689285Y45050000D01*
X14632142Y45078572D01*
X14489285Y45078572D01*
X14432142Y45050000D01*
X14403571Y45021429D01*
X14375000Y44964286D01*
X14375000Y44907143D01*
X14403571Y44821429D01*
X14746428Y44478572D01*
X14375000Y44478572D01*
X13860714Y44878572D02*
X13860714Y44478572D01*
X14003571Y45107143D02*
X14146428Y44678572D01*
X13775000Y44678572D01*
X13575000Y45021429D02*
X13546428Y45050000D01*
X13489285Y45078572D01*
X13346428Y45078572D01*
X13289285Y45050000D01*
X13260714Y45021429D01*
X13232142Y44964286D01*
X13232142Y44907143D01*
X13260714Y44821429D01*
X13603571Y44478572D01*
X13232142Y44478572D01*
X14921428Y38453572D02*
X15121428Y38739286D01*
X15264285Y38453572D02*
X15264285Y39053572D01*
X15035714Y39053572D01*
X14978571Y39025000D01*
X14950000Y38996429D01*
X14921428Y38939286D01*
X14921428Y38853572D01*
X14950000Y38796429D01*
X14978571Y38767858D01*
X15035714Y38739286D01*
X15264285Y38739286D01*
X14692857Y38996429D02*
X14664285Y39025000D01*
X14607142Y39053572D01*
X14464285Y39053572D01*
X14407142Y39025000D01*
X14378571Y38996429D01*
X14350000Y38939286D01*
X14350000Y38882143D01*
X14378571Y38796429D01*
X14721428Y38453572D01*
X14350000Y38453572D01*
X13835714Y38853572D02*
X13835714Y38453572D01*
X13978571Y39082143D02*
X14121428Y38653572D01*
X13750000Y38653572D01*
X13264285Y38853572D02*
X13264285Y38453572D01*
X13407142Y39082143D02*
X13550000Y38653572D01*
X13178571Y38653572D01*
X14946428Y32103572D02*
X15146428Y32389286D01*
X15289285Y32103572D02*
X15289285Y32703572D01*
X15060714Y32703572D01*
X15003571Y32675000D01*
X14975000Y32646429D01*
X14946428Y32589286D01*
X14946428Y32503572D01*
X14975000Y32446429D01*
X15003571Y32417858D01*
X15060714Y32389286D01*
X15289285Y32389286D01*
X14717857Y32646429D02*
X14689285Y32675000D01*
X14632142Y32703572D01*
X14489285Y32703572D01*
X14432142Y32675000D01*
X14403571Y32646429D01*
X14375000Y32589286D01*
X14375000Y32532143D01*
X14403571Y32446429D01*
X14746428Y32103572D01*
X14375000Y32103572D01*
X13860714Y32503572D02*
X13860714Y32103572D01*
X14003571Y32732143D02*
X14146428Y32303572D01*
X13775000Y32303572D01*
X13289285Y32703572D02*
X13403571Y32703572D01*
X13460714Y32675000D01*
X13489285Y32646429D01*
X13546428Y32560715D01*
X13575000Y32446429D01*
X13575000Y32217858D01*
X13546428Y32160715D01*
X13517857Y32132143D01*
X13460714Y32103572D01*
X13346428Y32103572D01*
X13289285Y32132143D01*
X13260714Y32160715D01*
X13232142Y32217858D01*
X13232142Y32360715D01*
X13260714Y32417858D01*
X13289285Y32446429D01*
X13346428Y32475000D01*
X13460714Y32475000D01*
X13517857Y32446429D01*
X13546428Y32417858D01*
X13575000Y32360715D01*
X17771428Y6803572D02*
X17971428Y7089286D01*
X18114285Y6803572D02*
X18114285Y7403572D01*
X17885714Y7403572D01*
X17828571Y7375000D01*
X17800000Y7346429D01*
X17771428Y7289286D01*
X17771428Y7203572D01*
X17800000Y7146429D01*
X17828571Y7117858D01*
X17885714Y7089286D01*
X18114285Y7089286D01*
X17571428Y7403572D02*
X17200000Y7403572D01*
X17400000Y7175000D01*
X17314285Y7175000D01*
X17257142Y7146429D01*
X17228571Y7117858D01*
X17200000Y7060715D01*
X17200000Y6917858D01*
X17228571Y6860715D01*
X17257142Y6832143D01*
X17314285Y6803572D01*
X17485714Y6803572D01*
X17542857Y6832143D01*
X17571428Y6860715D01*
X16828571Y7403572D02*
X16771428Y7403572D01*
X16714285Y7375000D01*
X16685714Y7346429D01*
X16657142Y7289286D01*
X16628571Y7175000D01*
X16628571Y7032143D01*
X16657142Y6917858D01*
X16685714Y6860715D01*
X16714285Y6832143D01*
X16771428Y6803572D01*
X16828571Y6803572D01*
X16885714Y6832143D01*
X16914285Y6860715D01*
X16942857Y6917858D01*
X16971428Y7032143D01*
X16971428Y7175000D01*
X16942857Y7289286D01*
X16914285Y7346429D01*
X16885714Y7375000D01*
X16828571Y7403572D01*
X16285714Y7146429D02*
X16342857Y7175000D01*
X16371428Y7203572D01*
X16400000Y7260715D01*
X16400000Y7289286D01*
X16371428Y7346429D01*
X16342857Y7375000D01*
X16285714Y7403572D01*
X16171428Y7403572D01*
X16114285Y7375000D01*
X16085714Y7346429D01*
X16057142Y7289286D01*
X16057142Y7260715D01*
X16085714Y7203572D01*
X16114285Y7175000D01*
X16171428Y7146429D01*
X16285714Y7146429D01*
X16342857Y7117858D01*
X16371428Y7089286D01*
X16400000Y7032143D01*
X16400000Y6917858D01*
X16371428Y6860715D01*
X16342857Y6832143D01*
X16285714Y6803572D01*
X16171428Y6803572D01*
X16114285Y6832143D01*
X16085714Y6860715D01*
X16057142Y6917858D01*
X16057142Y7032143D01*
X16085714Y7089286D01*
X16114285Y7117858D01*
X16171428Y7146429D01*
M02*
