%TF.GenerationSoftware,KiCad,Pcbnew,(5.1.8)-1*%
%TF.CreationDate,2021-02-13T14:21:56-08:00*%
%TF.ProjectId,20190720_Project_OCP-OVP-UVP,32303139-3037-4323-905f-50726f6a6563,A1*%
%TF.SameCoordinates,PX6ff61c0PY8823130*%
%TF.FileFunction,Soldermask,Bot*%
%TF.FilePolarity,Negative*%
%FSLAX46Y46*%
G04 Gerber Fmt 4.6, Leading zero omitted, Abs format (unit mm)*
G04 Created by KiCad (PCBNEW (5.1.8)-1) date 2021-02-13 14:21:56*
%MOMM*%
%LPD*%
G01*
G04 APERTURE LIST*
%ADD10C,10.000000*%
%ADD11C,3.000000*%
%ADD12R,1.000000X3.000000*%
%ADD13R,0.650000X0.400000*%
%ADD14C,0.254000*%
G04 APERTURE END LIST*
D10*
X16150000Y80250000D03*
X46150000Y80250000D03*
D11*
X3000000Y4600000D03*
X59300000Y3900000D03*
X3200000Y69800000D03*
X57200000Y56000000D03*
G36*
G01*
X7750000Y13362500D02*
X7750000Y12887500D01*
G75*
G02*
X7512500Y12650000I-237500J0D01*
G01*
X6937500Y12650000D01*
G75*
G02*
X6700000Y12887500I0J237500D01*
G01*
X6700000Y13362500D01*
G75*
G02*
X6937500Y13600000I237500J0D01*
G01*
X7512500Y13600000D01*
G75*
G02*
X7750000Y13362500I0J-237500D01*
G01*
G37*
G36*
G01*
X9500000Y13362500D02*
X9500000Y12887500D01*
G75*
G02*
X9262500Y12650000I-237500J0D01*
G01*
X8687500Y12650000D01*
G75*
G02*
X8450000Y12887500I0J237500D01*
G01*
X8450000Y13362500D01*
G75*
G02*
X8687500Y13600000I237500J0D01*
G01*
X9262500Y13600000D01*
G75*
G02*
X9500000Y13362500I0J-237500D01*
G01*
G37*
G36*
G01*
X9425000Y7587500D02*
X9425000Y8062500D01*
G75*
G02*
X9662500Y8300000I237500J0D01*
G01*
X10237500Y8300000D01*
G75*
G02*
X10475000Y8062500I0J-237500D01*
G01*
X10475000Y7587500D01*
G75*
G02*
X10237500Y7350000I-237500J0D01*
G01*
X9662500Y7350000D01*
G75*
G02*
X9425000Y7587500I0J237500D01*
G01*
G37*
G36*
G01*
X11175000Y7587500D02*
X11175000Y8062500D01*
G75*
G02*
X11412500Y8300000I237500J0D01*
G01*
X11987500Y8300000D01*
G75*
G02*
X12225000Y8062500I0J-237500D01*
G01*
X12225000Y7587500D01*
G75*
G02*
X11987500Y7350000I-237500J0D01*
G01*
X11412500Y7350000D01*
G75*
G02*
X11175000Y7587500I0J237500D01*
G01*
G37*
G36*
G01*
X6200000Y10937500D02*
X6200000Y10462500D01*
G75*
G02*
X5962500Y10225000I-237500J0D01*
G01*
X5387500Y10225000D01*
G75*
G02*
X5150000Y10462500I0J237500D01*
G01*
X5150000Y10937500D01*
G75*
G02*
X5387500Y11175000I237500J0D01*
G01*
X5962500Y11175000D01*
G75*
G02*
X6200000Y10937500I0J-237500D01*
G01*
G37*
G36*
G01*
X4450000Y10937500D02*
X4450000Y10462500D01*
G75*
G02*
X4212500Y10225000I-237500J0D01*
G01*
X3637500Y10225000D01*
G75*
G02*
X3400000Y10462500I0J237500D01*
G01*
X3400000Y10937500D01*
G75*
G02*
X3637500Y11175000I237500J0D01*
G01*
X4212500Y11175000D01*
G75*
G02*
X4450000Y10937500I0J-237500D01*
G01*
G37*
G36*
G01*
X4400000Y13362500D02*
X4400000Y12887500D01*
G75*
G02*
X4162500Y12650000I-237500J0D01*
G01*
X3587500Y12650000D01*
G75*
G02*
X3350000Y12887500I0J237500D01*
G01*
X3350000Y13362500D01*
G75*
G02*
X3587500Y13600000I237500J0D01*
G01*
X4162500Y13600000D01*
G75*
G02*
X4400000Y13362500I0J-237500D01*
G01*
G37*
G36*
G01*
X6150000Y13362500D02*
X6150000Y12887500D01*
G75*
G02*
X5912500Y12650000I-237500J0D01*
G01*
X5337500Y12650000D01*
G75*
G02*
X5100000Y12887500I0J237500D01*
G01*
X5100000Y13362500D01*
G75*
G02*
X5337500Y13600000I237500J0D01*
G01*
X5912500Y13600000D01*
G75*
G02*
X6150000Y13362500I0J-237500D01*
G01*
G37*
D12*
X7875000Y15950000D03*
X3875000Y15950000D03*
X7875000Y24850000D03*
X3875000Y24850000D03*
D13*
X8975000Y9400000D03*
X8975000Y10700000D03*
X8975000Y10050000D03*
X10875000Y10700000D03*
X10875000Y9400000D03*
D14*
X15173000Y53827000D02*
X427000Y53827000D01*
X427000Y65573000D01*
X15173000Y65573000D01*
X15173000Y53827000D01*
G36*
X15173000Y53827000D02*
G01*
X427000Y53827000D01*
X427000Y65573000D01*
X15173000Y65573000D01*
X15173000Y53827000D01*
G37*
X21273000Y74227000D02*
X9727000Y74227000D01*
X9727000Y86273000D01*
X21273000Y86273000D01*
X21273000Y74227000D01*
G36*
X21273000Y74227000D02*
G01*
X9727000Y74227000D01*
X9727000Y86273000D01*
X21273000Y86273000D01*
X21273000Y74227000D01*
G37*
X52573000Y74227000D02*
X41027000Y74227000D01*
X41027000Y86273000D01*
X52573000Y86273000D01*
X52573000Y74227000D01*
G36*
X52573000Y74227000D02*
G01*
X41027000Y74227000D01*
X41027000Y86273000D01*
X52573000Y86273000D01*
X52573000Y74227000D01*
G37*
X52273000Y63527000D02*
X23127000Y63527000D01*
X23127000Y71073000D01*
X52273000Y71073000D01*
X52273000Y63527000D01*
G36*
X52273000Y63527000D02*
G01*
X23127000Y63527000D01*
X23127000Y71073000D01*
X52273000Y71073000D01*
X52273000Y63527000D01*
G37*
X49873000Y53127000D02*
X27727000Y53127000D01*
X27727000Y59473000D01*
X49873000Y59473000D01*
X49873000Y53127000D01*
G36*
X49873000Y53127000D02*
G01*
X27727000Y53127000D01*
X27727000Y59473000D01*
X49873000Y59473000D01*
X49873000Y53127000D01*
G37*
X62073000Y40127000D02*
X52327000Y40127000D01*
X52327000Y51873000D01*
X62073000Y51873000D01*
X62073000Y40127000D01*
G36*
X62073000Y40127000D02*
G01*
X52327000Y40127000D01*
X52327000Y51873000D01*
X62073000Y51873000D01*
X62073000Y40127000D01*
G37*
X62073000Y59927000D02*
X52327000Y59927000D01*
X52327000Y71073000D01*
X62073000Y71073000D01*
X62073000Y59927000D01*
G36*
X62073000Y59927000D02*
G01*
X52327000Y59927000D01*
X52327000Y71073000D01*
X62073000Y71073000D01*
X62073000Y59927000D01*
G37*
M02*
