%TF.GenerationSoftware,KiCad,Pcbnew,(5.1.8)-1*%
%TF.CreationDate,2021-02-13T14:21:54-08:00*%
%TF.ProjectId,20190720_Project_OCP-OVP-UVP,32303139-3037-4323-905f-50726f6a6563,A1*%
%TF.SameCoordinates,PX6ff61c0PY8823130*%
%TF.FileFunction,Copper,L1,Top*%
%TF.FilePolarity,Positive*%
%FSLAX46Y46*%
G04 Gerber Fmt 4.6, Leading zero omitted, Abs format (unit mm)*
G04 Created by KiCad (PCBNEW (5.1.8)-1) date 2021-02-13 14:21:54*
%MOMM*%
%LPD*%
G01*
G04 APERTURE LIST*
%TA.AperFunction,SMDPad,CuDef*%
%ADD10C,1.000000*%
%TD*%
%TA.AperFunction,SMDPad,CuDef*%
%ADD11R,7.340600X5.816600*%
%TD*%
%TA.AperFunction,SMDPad,CuDef*%
%ADD12R,1.143000X1.524000*%
%TD*%
%TA.AperFunction,SMDPad,CuDef*%
%ADD13R,10.000000X12.000000*%
%TD*%
%TA.AperFunction,ComponentPad*%
%ADD14C,10.000000*%
%TD*%
%TA.AperFunction,SMDPad,CuDef*%
%ADD15R,3.500000X1.000000*%
%TD*%
%TA.AperFunction,SMDPad,CuDef*%
%ADD16R,3.500000X1.600000*%
%TD*%
%TA.AperFunction,ComponentPad*%
%ADD17R,10.000000X12.000000*%
%TD*%
%TA.AperFunction,SMDPad,CuDef*%
%ADD18R,3.500000X1.500000*%
%TD*%
%TA.AperFunction,SMDPad,CuDef*%
%ADD19R,1.600000X0.550000*%
%TD*%
%TA.AperFunction,SMDPad,CuDef*%
%ADD20R,0.550000X1.600000*%
%TD*%
%TA.AperFunction,SMDPad,CuDef*%
%ADD21R,0.650000X1.560000*%
%TD*%
%TA.AperFunction,SMDPad,CuDef*%
%ADD22R,0.900000X0.800000*%
%TD*%
%TA.AperFunction,SMDPad,CuDef*%
%ADD23R,0.450000X1.500000*%
%TD*%
%TA.AperFunction,SMDPad,CuDef*%
%ADD24R,2.200000X2.000000*%
%TD*%
%TA.AperFunction,SMDPad,CuDef*%
%ADD25R,0.800000X0.900000*%
%TD*%
%TA.AperFunction,SMDPad,CuDef*%
%ADD26R,1.550000X0.600000*%
%TD*%
%TA.AperFunction,SMDPad,CuDef*%
%ADD27R,1.000000X1.150000*%
%TD*%
%TA.AperFunction,SMDPad,CuDef*%
%ADD28R,1.560000X0.650000*%
%TD*%
%TA.AperFunction,SMDPad,CuDef*%
%ADD29R,1.400000X1.000000*%
%TD*%
%TA.AperFunction,SMDPad,CuDef*%
%ADD30R,1.400000X1.200000*%
%TD*%
%TA.AperFunction,SMDPad,CuDef*%
%ADD31R,0.500000X1.500000*%
%TD*%
%TA.AperFunction,SMDPad,CuDef*%
%ADD32R,1.800000X1.700000*%
%TD*%
%TA.AperFunction,SMDPad,CuDef*%
%ADD33R,0.900000X0.600000*%
%TD*%
%TA.AperFunction,SMDPad,CuDef*%
%ADD34C,1.500000*%
%TD*%
%TA.AperFunction,ViaPad*%
%ADD35C,1.000000*%
%TD*%
%TA.AperFunction,ViaPad*%
%ADD36C,2.000000*%
%TD*%
%TA.AperFunction,ViaPad*%
%ADD37C,0.800000*%
%TD*%
%TA.AperFunction,Conductor*%
%ADD38C,0.700000*%
%TD*%
%TA.AperFunction,Conductor*%
%ADD39C,0.600000*%
%TD*%
%TA.AperFunction,Conductor*%
%ADD40C,0.550000*%
%TD*%
%TA.AperFunction,Conductor*%
%ADD41C,0.800000*%
%TD*%
%TA.AperFunction,Conductor*%
%ADD42C,0.500000*%
%TD*%
%TA.AperFunction,Conductor*%
%ADD43C,1.000000*%
%TD*%
%TA.AperFunction,Conductor*%
%ADD44C,0.650000*%
%TD*%
%TA.AperFunction,Conductor*%
%ADD45C,0.900000*%
%TD*%
%TA.AperFunction,Conductor*%
%ADD46C,0.450000*%
%TD*%
%TA.AperFunction,Conductor*%
%ADD47C,0.254000*%
%TD*%
G04 APERTURE END LIST*
D10*
X17900000Y26000000D03*
X12900000Y27825000D03*
D11*
X26600000Y64382700D03*
D12*
X29600002Y59544000D03*
X27600001Y59544000D03*
X25600002Y59544000D03*
X23600001Y59544000D03*
D11*
X37000000Y64382700D03*
D12*
X40000002Y59544000D03*
X38000001Y59544000D03*
X36000002Y59544000D03*
X34000001Y59544000D03*
D11*
X47400000Y64382700D03*
D12*
X50400002Y59544000D03*
X48400001Y59544000D03*
X46400002Y59544000D03*
X44400001Y59544000D03*
D13*
X57100000Y46100000D03*
X57100000Y65000000D03*
D14*
X16150000Y80250000D03*
X46150000Y80250000D03*
D15*
X54800000Y17750000D03*
D16*
X60300000Y20150000D03*
X60300000Y7350000D03*
D15*
X54800000Y15750000D03*
X54800000Y13750000D03*
X54800000Y11750000D03*
X54800000Y9750000D03*
D17*
X16150000Y80250000D03*
X5350000Y59700000D03*
D18*
X2350000Y36425000D03*
X2350000Y32925000D03*
%TA.AperFunction,SMDPad,CuDef*%
G36*
G01*
X3337500Y25700000D02*
X2862500Y25700000D01*
G75*
G02*
X2625000Y25937500I0J237500D01*
G01*
X2625000Y26512500D01*
G75*
G02*
X2862500Y26750000I237500J0D01*
G01*
X3337500Y26750000D01*
G75*
G02*
X3575000Y26512500I0J-237500D01*
G01*
X3575000Y25937500D01*
G75*
G02*
X3337500Y25700000I-237500J0D01*
G01*
G37*
%TD.AperFunction*%
%TA.AperFunction,SMDPad,CuDef*%
G36*
G01*
X3337500Y27450000D02*
X2862500Y27450000D01*
G75*
G02*
X2625000Y27687500I0J237500D01*
G01*
X2625000Y28262500D01*
G75*
G02*
X2862500Y28500000I237500J0D01*
G01*
X3337500Y28500000D01*
G75*
G02*
X3575000Y28262500I0J-237500D01*
G01*
X3575000Y27687500D01*
G75*
G02*
X3337500Y27450000I-237500J0D01*
G01*
G37*
%TD.AperFunction*%
D19*
X22775000Y13275000D03*
X22775000Y12475000D03*
X22775000Y11675000D03*
X22775000Y10875000D03*
X22775000Y10075000D03*
X22775000Y9275000D03*
X22775000Y8475000D03*
X22775000Y7675000D03*
D20*
X24225000Y6225000D03*
X25025000Y6225000D03*
X25825000Y6225000D03*
X26625000Y6225000D03*
X27425000Y6225000D03*
X28225000Y6225000D03*
X29025000Y6225000D03*
X29825000Y6225000D03*
D19*
X31275000Y7675000D03*
X31275000Y8475000D03*
X31275000Y9275000D03*
X31275000Y10075000D03*
X31275000Y10875000D03*
X31275000Y11675000D03*
X31275000Y12475000D03*
X31275000Y13275000D03*
D20*
X29825000Y14725000D03*
X29025000Y14725000D03*
X28225000Y14725000D03*
X27425000Y14725000D03*
X26625000Y14725000D03*
X25825000Y14725000D03*
X25025000Y14725000D03*
X24225000Y14725000D03*
%TA.AperFunction,SMDPad,CuDef*%
G36*
G01*
X22400000Y32637500D02*
X22400000Y32162500D01*
G75*
G02*
X22162500Y31925000I-237500J0D01*
G01*
X21587500Y31925000D01*
G75*
G02*
X21350000Y32162500I0J237500D01*
G01*
X21350000Y32637500D01*
G75*
G02*
X21587500Y32875000I237500J0D01*
G01*
X22162500Y32875000D01*
G75*
G02*
X22400000Y32637500I0J-237500D01*
G01*
G37*
%TD.AperFunction*%
%TA.AperFunction,SMDPad,CuDef*%
G36*
G01*
X20650000Y32637500D02*
X20650000Y32162500D01*
G75*
G02*
X20412500Y31925000I-237500J0D01*
G01*
X19837500Y31925000D01*
G75*
G02*
X19600000Y32162500I0J237500D01*
G01*
X19600000Y32637500D01*
G75*
G02*
X19837500Y32875000I237500J0D01*
G01*
X20412500Y32875000D01*
G75*
G02*
X20650000Y32637500I0J-237500D01*
G01*
G37*
%TD.AperFunction*%
%TA.AperFunction,SMDPad,CuDef*%
G36*
G01*
X13262500Y5125000D02*
X12787500Y5125000D01*
G75*
G02*
X12550000Y5362500I0J237500D01*
G01*
X12550000Y5937500D01*
G75*
G02*
X12787500Y6175000I237500J0D01*
G01*
X13262500Y6175000D01*
G75*
G02*
X13500000Y5937500I0J-237500D01*
G01*
X13500000Y5362500D01*
G75*
G02*
X13262500Y5125000I-237500J0D01*
G01*
G37*
%TD.AperFunction*%
%TA.AperFunction,SMDPad,CuDef*%
G36*
G01*
X13262500Y6875000D02*
X12787500Y6875000D01*
G75*
G02*
X12550000Y7112500I0J237500D01*
G01*
X12550000Y7687500D01*
G75*
G02*
X12787500Y7925000I237500J0D01*
G01*
X13262500Y7925000D01*
G75*
G02*
X13500000Y7687500I0J-237500D01*
G01*
X13500000Y7112500D01*
G75*
G02*
X13262500Y6875000I-237500J0D01*
G01*
G37*
%TD.AperFunction*%
%TA.AperFunction,SMDPad,CuDef*%
G36*
G01*
X18150000Y10822500D02*
X18150000Y11297500D01*
G75*
G02*
X18387500Y11535000I237500J0D01*
G01*
X18962500Y11535000D01*
G75*
G02*
X19200000Y11297500I0J-237500D01*
G01*
X19200000Y10822500D01*
G75*
G02*
X18962500Y10585000I-237500J0D01*
G01*
X18387500Y10585000D01*
G75*
G02*
X18150000Y10822500I0J237500D01*
G01*
G37*
%TD.AperFunction*%
%TA.AperFunction,SMDPad,CuDef*%
G36*
G01*
X19900000Y10822500D02*
X19900000Y11297500D01*
G75*
G02*
X20137500Y11535000I237500J0D01*
G01*
X20712500Y11535000D01*
G75*
G02*
X20950000Y11297500I0J-237500D01*
G01*
X20950000Y10822500D01*
G75*
G02*
X20712500Y10585000I-237500J0D01*
G01*
X20137500Y10585000D01*
G75*
G02*
X19900000Y10822500I0J237500D01*
G01*
G37*
%TD.AperFunction*%
%TA.AperFunction,SMDPad,CuDef*%
G36*
G01*
X32937500Y9325000D02*
X33412500Y9325000D01*
G75*
G02*
X33650000Y9087500I0J-237500D01*
G01*
X33650000Y8512500D01*
G75*
G02*
X33412500Y8275000I-237500J0D01*
G01*
X32937500Y8275000D01*
G75*
G02*
X32700000Y8512500I0J237500D01*
G01*
X32700000Y9087500D01*
G75*
G02*
X32937500Y9325000I237500J0D01*
G01*
G37*
%TD.AperFunction*%
%TA.AperFunction,SMDPad,CuDef*%
G36*
G01*
X32937500Y11075000D02*
X33412500Y11075000D01*
G75*
G02*
X33650000Y10837500I0J-237500D01*
G01*
X33650000Y10262500D01*
G75*
G02*
X33412500Y10025000I-237500J0D01*
G01*
X32937500Y10025000D01*
G75*
G02*
X32700000Y10262500I0J237500D01*
G01*
X32700000Y10837500D01*
G75*
G02*
X32937500Y11075000I237500J0D01*
G01*
G37*
%TD.AperFunction*%
%TA.AperFunction,SMDPad,CuDef*%
G36*
G01*
X42160000Y9512500D02*
X42160000Y9987500D01*
G75*
G02*
X42397500Y10225000I237500J0D01*
G01*
X42972500Y10225000D01*
G75*
G02*
X43210000Y9987500I0J-237500D01*
G01*
X43210000Y9512500D01*
G75*
G02*
X42972500Y9275000I-237500J0D01*
G01*
X42397500Y9275000D01*
G75*
G02*
X42160000Y9512500I0J237500D01*
G01*
G37*
%TD.AperFunction*%
%TA.AperFunction,SMDPad,CuDef*%
G36*
G01*
X40410000Y9512500D02*
X40410000Y9987500D01*
G75*
G02*
X40647500Y10225000I237500J0D01*
G01*
X41222500Y10225000D01*
G75*
G02*
X41460000Y9987500I0J-237500D01*
G01*
X41460000Y9512500D01*
G75*
G02*
X41222500Y9275000I-237500J0D01*
G01*
X40647500Y9275000D01*
G75*
G02*
X40410000Y9512500I0J237500D01*
G01*
G37*
%TD.AperFunction*%
%TA.AperFunction,SMDPad,CuDef*%
G36*
G01*
X24100000Y16712500D02*
X24100000Y17187500D01*
G75*
G02*
X24337500Y17425000I237500J0D01*
G01*
X24912500Y17425000D01*
G75*
G02*
X25150000Y17187500I0J-237500D01*
G01*
X25150000Y16712500D01*
G75*
G02*
X24912500Y16475000I-237500J0D01*
G01*
X24337500Y16475000D01*
G75*
G02*
X24100000Y16712500I0J237500D01*
G01*
G37*
%TD.AperFunction*%
%TA.AperFunction,SMDPad,CuDef*%
G36*
G01*
X25850000Y16712500D02*
X25850000Y17187500D01*
G75*
G02*
X26087500Y17425000I237500J0D01*
G01*
X26662500Y17425000D01*
G75*
G02*
X26900000Y17187500I0J-237500D01*
G01*
X26900000Y16712500D01*
G75*
G02*
X26662500Y16475000I-237500J0D01*
G01*
X26087500Y16475000D01*
G75*
G02*
X25850000Y16712500I0J237500D01*
G01*
G37*
%TD.AperFunction*%
%TA.AperFunction,SMDPad,CuDef*%
G36*
G01*
X16252500Y19210000D02*
X16727500Y19210000D01*
G75*
G02*
X16965000Y18972500I0J-237500D01*
G01*
X16965000Y18397500D01*
G75*
G02*
X16727500Y18160000I-237500J0D01*
G01*
X16252500Y18160000D01*
G75*
G02*
X16015000Y18397500I0J237500D01*
G01*
X16015000Y18972500D01*
G75*
G02*
X16252500Y19210000I237500J0D01*
G01*
G37*
%TD.AperFunction*%
%TA.AperFunction,SMDPad,CuDef*%
G36*
G01*
X16252500Y17460000D02*
X16727500Y17460000D01*
G75*
G02*
X16965000Y17222500I0J-237500D01*
G01*
X16965000Y16647500D01*
G75*
G02*
X16727500Y16410000I-237500J0D01*
G01*
X16252500Y16410000D01*
G75*
G02*
X16015000Y16647500I0J237500D01*
G01*
X16015000Y17222500D01*
G75*
G02*
X16252500Y17460000I237500J0D01*
G01*
G37*
%TD.AperFunction*%
%TA.AperFunction,SMDPad,CuDef*%
G36*
G01*
X20662500Y18575000D02*
X21137500Y18575000D01*
G75*
G02*
X21375000Y18337500I0J-237500D01*
G01*
X21375000Y17762500D01*
G75*
G02*
X21137500Y17525000I-237500J0D01*
G01*
X20662500Y17525000D01*
G75*
G02*
X20425000Y17762500I0J237500D01*
G01*
X20425000Y18337500D01*
G75*
G02*
X20662500Y18575000I237500J0D01*
G01*
G37*
%TD.AperFunction*%
%TA.AperFunction,SMDPad,CuDef*%
G36*
G01*
X20662500Y20325000D02*
X21137500Y20325000D01*
G75*
G02*
X21375000Y20087500I0J-237500D01*
G01*
X21375000Y19512500D01*
G75*
G02*
X21137500Y19275000I-237500J0D01*
G01*
X20662500Y19275000D01*
G75*
G02*
X20425000Y19512500I0J237500D01*
G01*
X20425000Y20087500D01*
G75*
G02*
X20662500Y20325000I237500J0D01*
G01*
G37*
%TD.AperFunction*%
%TA.AperFunction,SMDPad,CuDef*%
G36*
G01*
X8900000Y39287500D02*
X8900000Y39762500D01*
G75*
G02*
X9137500Y40000000I237500J0D01*
G01*
X9712500Y40000000D01*
G75*
G02*
X9950000Y39762500I0J-237500D01*
G01*
X9950000Y39287500D01*
G75*
G02*
X9712500Y39050000I-237500J0D01*
G01*
X9137500Y39050000D01*
G75*
G02*
X8900000Y39287500I0J237500D01*
G01*
G37*
%TD.AperFunction*%
%TA.AperFunction,SMDPad,CuDef*%
G36*
G01*
X7150000Y39287500D02*
X7150000Y39762500D01*
G75*
G02*
X7387500Y40000000I237500J0D01*
G01*
X7962500Y40000000D01*
G75*
G02*
X8200000Y39762500I0J-237500D01*
G01*
X8200000Y39287500D01*
G75*
G02*
X7962500Y39050000I-237500J0D01*
G01*
X7387500Y39050000D01*
G75*
G02*
X7150000Y39287500I0J237500D01*
G01*
G37*
%TD.AperFunction*%
%TA.AperFunction,SMDPad,CuDef*%
G36*
G01*
X4912500Y34325000D02*
X5387500Y34325000D01*
G75*
G02*
X5625000Y34087500I0J-237500D01*
G01*
X5625000Y33512500D01*
G75*
G02*
X5387500Y33275000I-237500J0D01*
G01*
X4912500Y33275000D01*
G75*
G02*
X4675000Y33512500I0J237500D01*
G01*
X4675000Y34087500D01*
G75*
G02*
X4912500Y34325000I237500J0D01*
G01*
G37*
%TD.AperFunction*%
%TA.AperFunction,SMDPad,CuDef*%
G36*
G01*
X4912500Y36075000D02*
X5387500Y36075000D01*
G75*
G02*
X5625000Y35837500I0J-237500D01*
G01*
X5625000Y35262500D01*
G75*
G02*
X5387500Y35025000I-237500J0D01*
G01*
X4912500Y35025000D01*
G75*
G02*
X4675000Y35262500I0J237500D01*
G01*
X4675000Y35837500D01*
G75*
G02*
X4912500Y36075000I237500J0D01*
G01*
G37*
%TD.AperFunction*%
%TA.AperFunction,SMDPad,CuDef*%
G36*
G01*
X9800000Y31162500D02*
X9800000Y30687500D01*
G75*
G02*
X9562500Y30450000I-237500J0D01*
G01*
X8987500Y30450000D01*
G75*
G02*
X8750000Y30687500I0J237500D01*
G01*
X8750000Y31162500D01*
G75*
G02*
X8987500Y31400000I237500J0D01*
G01*
X9562500Y31400000D01*
G75*
G02*
X9800000Y31162500I0J-237500D01*
G01*
G37*
%TD.AperFunction*%
%TA.AperFunction,SMDPad,CuDef*%
G36*
G01*
X8050000Y31162500D02*
X8050000Y30687500D01*
G75*
G02*
X7812500Y30450000I-237500J0D01*
G01*
X7237500Y30450000D01*
G75*
G02*
X7000000Y30687500I0J237500D01*
G01*
X7000000Y31162500D01*
G75*
G02*
X7237500Y31400000I237500J0D01*
G01*
X7812500Y31400000D01*
G75*
G02*
X8050000Y31162500I0J-237500D01*
G01*
G37*
%TD.AperFunction*%
D21*
X6800000Y33375000D03*
X7750000Y33375000D03*
X8700000Y33375000D03*
X8700000Y36075000D03*
X6800000Y36075000D03*
X7750000Y36075000D03*
%TA.AperFunction,SMDPad,CuDef*%
G36*
G01*
X8900000Y37737500D02*
X8900000Y38212500D01*
G75*
G02*
X9137500Y38450000I237500J0D01*
G01*
X9712500Y38450000D01*
G75*
G02*
X9950000Y38212500I0J-237500D01*
G01*
X9950000Y37737500D01*
G75*
G02*
X9712500Y37500000I-237500J0D01*
G01*
X9137500Y37500000D01*
G75*
G02*
X8900000Y37737500I0J237500D01*
G01*
G37*
%TD.AperFunction*%
%TA.AperFunction,SMDPad,CuDef*%
G36*
G01*
X7150000Y37737500D02*
X7150000Y38212500D01*
G75*
G02*
X7387500Y38450000I237500J0D01*
G01*
X7962500Y38450000D01*
G75*
G02*
X8200000Y38212500I0J-237500D01*
G01*
X8200000Y37737500D01*
G75*
G02*
X7962500Y37500000I-237500J0D01*
G01*
X7387500Y37500000D01*
G75*
G02*
X7150000Y37737500I0J237500D01*
G01*
G37*
%TD.AperFunction*%
D22*
X3950000Y42025000D03*
X3950000Y40125000D03*
X5950000Y41075000D03*
%TA.AperFunction,SMDPad,CuDef*%
G36*
G01*
X8750000Y29137500D02*
X8750000Y29612500D01*
G75*
G02*
X8987500Y29850000I237500J0D01*
G01*
X9562500Y29850000D01*
G75*
G02*
X9800000Y29612500I0J-237500D01*
G01*
X9800000Y29137500D01*
G75*
G02*
X9562500Y28900000I-237500J0D01*
G01*
X8987500Y28900000D01*
G75*
G02*
X8750000Y29137500I0J237500D01*
G01*
G37*
%TD.AperFunction*%
%TA.AperFunction,SMDPad,CuDef*%
G36*
G01*
X7000000Y29137500D02*
X7000000Y29612500D01*
G75*
G02*
X7237500Y29850000I237500J0D01*
G01*
X7812500Y29850000D01*
G75*
G02*
X8050000Y29612500I0J-237500D01*
G01*
X8050000Y29137500D01*
G75*
G02*
X7812500Y28900000I-237500J0D01*
G01*
X7237500Y28900000D01*
G75*
G02*
X7000000Y29137500I0J237500D01*
G01*
G37*
%TD.AperFunction*%
D23*
X14175000Y33725000D03*
X14825000Y33725000D03*
X15475000Y33725000D03*
X16125000Y33725000D03*
X16775000Y33725000D03*
X17425000Y33725000D03*
X18075000Y33725000D03*
X18725000Y33725000D03*
X18725000Y27825000D03*
X18075000Y27825000D03*
X17425000Y27825000D03*
X16775000Y27825000D03*
X16125000Y27825000D03*
X15475000Y27825000D03*
X14825000Y27825000D03*
X14175000Y27825000D03*
D24*
X15295000Y3550000D03*
X20375000Y3550000D03*
X20375000Y7750000D03*
X15295000Y7750000D03*
%TA.AperFunction,SMDPad,CuDef*%
G36*
G01*
X33825000Y28537500D02*
X33825000Y29012500D01*
G75*
G02*
X34062500Y29250000I237500J0D01*
G01*
X34637500Y29250000D01*
G75*
G02*
X34875000Y29012500I0J-237500D01*
G01*
X34875000Y28537500D01*
G75*
G02*
X34637500Y28300000I-237500J0D01*
G01*
X34062500Y28300000D01*
G75*
G02*
X33825000Y28537500I0J237500D01*
G01*
G37*
%TD.AperFunction*%
%TA.AperFunction,SMDPad,CuDef*%
G36*
G01*
X32075000Y28537500D02*
X32075000Y29012500D01*
G75*
G02*
X32312500Y29250000I237500J0D01*
G01*
X32887500Y29250000D01*
G75*
G02*
X33125000Y29012500I0J-237500D01*
G01*
X33125000Y28537500D01*
G75*
G02*
X32887500Y28300000I-237500J0D01*
G01*
X32312500Y28300000D01*
G75*
G02*
X32075000Y28537500I0J237500D01*
G01*
G37*
%TD.AperFunction*%
%TA.AperFunction,SMDPad,CuDef*%
G36*
G01*
X38775000Y29012500D02*
X38775000Y28537500D01*
G75*
G02*
X38537500Y28300000I-237500J0D01*
G01*
X37962500Y28300000D01*
G75*
G02*
X37725000Y28537500I0J237500D01*
G01*
X37725000Y29012500D01*
G75*
G02*
X37962500Y29250000I237500J0D01*
G01*
X38537500Y29250000D01*
G75*
G02*
X38775000Y29012500I0J-237500D01*
G01*
G37*
%TD.AperFunction*%
%TA.AperFunction,SMDPad,CuDef*%
G36*
G01*
X37025000Y29012500D02*
X37025000Y28537500D01*
G75*
G02*
X36787500Y28300000I-237500J0D01*
G01*
X36212500Y28300000D01*
G75*
G02*
X35975000Y28537500I0J237500D01*
G01*
X35975000Y29012500D01*
G75*
G02*
X36212500Y29250000I237500J0D01*
G01*
X36787500Y29250000D01*
G75*
G02*
X37025000Y29012500I0J-237500D01*
G01*
G37*
%TD.AperFunction*%
%TA.AperFunction,SMDPad,CuDef*%
G36*
G01*
X7275000Y46543750D02*
X7275000Y47056250D01*
G75*
G02*
X7493750Y47275000I218750J0D01*
G01*
X7931250Y47275000D01*
G75*
G02*
X8150000Y47056250I0J-218750D01*
G01*
X8150000Y46543750D01*
G75*
G02*
X7931250Y46325000I-218750J0D01*
G01*
X7493750Y46325000D01*
G75*
G02*
X7275000Y46543750I0J218750D01*
G01*
G37*
%TD.AperFunction*%
%TA.AperFunction,SMDPad,CuDef*%
G36*
G01*
X8850000Y46543750D02*
X8850000Y47056250D01*
G75*
G02*
X9068750Y47275000I218750J0D01*
G01*
X9506250Y47275000D01*
G75*
G02*
X9725000Y47056250I0J-218750D01*
G01*
X9725000Y46543750D01*
G75*
G02*
X9506250Y46325000I-218750J0D01*
G01*
X9068750Y46325000D01*
G75*
G02*
X8850000Y46543750I0J218750D01*
G01*
G37*
%TD.AperFunction*%
D25*
X28200000Y32475000D03*
X29150000Y30475000D03*
X27250000Y30475000D03*
D22*
X26650000Y37300000D03*
X26650000Y39200000D03*
X24650000Y38250000D03*
D26*
X38125000Y27125000D03*
X38125000Y25855000D03*
X38125000Y24585000D03*
X38125000Y23315000D03*
X32725000Y23315000D03*
X32725000Y24585000D03*
X32725000Y25855000D03*
X32725000Y27125000D03*
D22*
X40800000Y34125000D03*
X40800000Y32225000D03*
X42800000Y33175000D03*
X45800000Y36600000D03*
X47800000Y37550000D03*
X47800000Y35650000D03*
%TA.AperFunction,SMDPad,CuDef*%
G36*
G01*
X28550000Y28737500D02*
X28550000Y29212500D01*
G75*
G02*
X28787500Y29450000I237500J0D01*
G01*
X29362500Y29450000D01*
G75*
G02*
X29600000Y29212500I0J-237500D01*
G01*
X29600000Y28737500D01*
G75*
G02*
X29362500Y28500000I-237500J0D01*
G01*
X28787500Y28500000D01*
G75*
G02*
X28550000Y28737500I0J237500D01*
G01*
G37*
%TD.AperFunction*%
%TA.AperFunction,SMDPad,CuDef*%
G36*
G01*
X26800000Y28737500D02*
X26800000Y29212500D01*
G75*
G02*
X27037500Y29450000I237500J0D01*
G01*
X27612500Y29450000D01*
G75*
G02*
X27850000Y29212500I0J-237500D01*
G01*
X27850000Y28737500D01*
G75*
G02*
X27612500Y28500000I-237500J0D01*
G01*
X27037500Y28500000D01*
G75*
G02*
X26800000Y28737500I0J237500D01*
G01*
G37*
%TD.AperFunction*%
%TA.AperFunction,SMDPad,CuDef*%
G36*
G01*
X27962500Y37900000D02*
X28437500Y37900000D01*
G75*
G02*
X28675000Y37662500I0J-237500D01*
G01*
X28675000Y37087500D01*
G75*
G02*
X28437500Y36850000I-237500J0D01*
G01*
X27962500Y36850000D01*
G75*
G02*
X27725000Y37087500I0J237500D01*
G01*
X27725000Y37662500D01*
G75*
G02*
X27962500Y37900000I237500J0D01*
G01*
G37*
%TD.AperFunction*%
%TA.AperFunction,SMDPad,CuDef*%
G36*
G01*
X27962500Y39650000D02*
X28437500Y39650000D01*
G75*
G02*
X28675000Y39412500I0J-237500D01*
G01*
X28675000Y38837500D01*
G75*
G02*
X28437500Y38600000I-237500J0D01*
G01*
X27962500Y38600000D01*
G75*
G02*
X27725000Y38837500I0J237500D01*
G01*
X27725000Y39412500D01*
G75*
G02*
X27962500Y39650000I237500J0D01*
G01*
G37*
%TD.AperFunction*%
%TA.AperFunction,SMDPad,CuDef*%
G36*
G01*
X27962500Y36300000D02*
X28437500Y36300000D01*
G75*
G02*
X28675000Y36062500I0J-237500D01*
G01*
X28675000Y35487500D01*
G75*
G02*
X28437500Y35250000I-237500J0D01*
G01*
X27962500Y35250000D01*
G75*
G02*
X27725000Y35487500I0J237500D01*
G01*
X27725000Y36062500D01*
G75*
G02*
X27962500Y36300000I237500J0D01*
G01*
G37*
%TD.AperFunction*%
%TA.AperFunction,SMDPad,CuDef*%
G36*
G01*
X27962500Y34550000D02*
X28437500Y34550000D01*
G75*
G02*
X28675000Y34312500I0J-237500D01*
G01*
X28675000Y33737500D01*
G75*
G02*
X28437500Y33500000I-237500J0D01*
G01*
X27962500Y33500000D01*
G75*
G02*
X27725000Y33737500I0J237500D01*
G01*
X27725000Y34312500D01*
G75*
G02*
X27962500Y34550000I237500J0D01*
G01*
G37*
%TD.AperFunction*%
%TA.AperFunction,SMDPad,CuDef*%
G36*
G01*
X24412500Y32825000D02*
X24887500Y32825000D01*
G75*
G02*
X25125000Y32587500I0J-237500D01*
G01*
X25125000Y32012500D01*
G75*
G02*
X24887500Y31775000I-237500J0D01*
G01*
X24412500Y31775000D01*
G75*
G02*
X24175000Y32012500I0J237500D01*
G01*
X24175000Y32587500D01*
G75*
G02*
X24412500Y32825000I237500J0D01*
G01*
G37*
%TD.AperFunction*%
%TA.AperFunction,SMDPad,CuDef*%
G36*
G01*
X24412500Y31075000D02*
X24887500Y31075000D01*
G75*
G02*
X25125000Y30837500I0J-237500D01*
G01*
X25125000Y30262500D01*
G75*
G02*
X24887500Y30025000I-237500J0D01*
G01*
X24412500Y30025000D01*
G75*
G02*
X24175000Y30262500I0J237500D01*
G01*
X24175000Y30837500D01*
G75*
G02*
X24412500Y31075000I237500J0D01*
G01*
G37*
%TD.AperFunction*%
%TA.AperFunction,SMDPad,CuDef*%
G36*
G01*
X30612500Y25125000D02*
X31087500Y25125000D01*
G75*
G02*
X31325000Y24887500I0J-237500D01*
G01*
X31325000Y24312500D01*
G75*
G02*
X31087500Y24075000I-237500J0D01*
G01*
X30612500Y24075000D01*
G75*
G02*
X30375000Y24312500I0J237500D01*
G01*
X30375000Y24887500D01*
G75*
G02*
X30612500Y25125000I237500J0D01*
G01*
G37*
%TD.AperFunction*%
%TA.AperFunction,SMDPad,CuDef*%
G36*
G01*
X30612500Y23375000D02*
X31087500Y23375000D01*
G75*
G02*
X31325000Y23137500I0J-237500D01*
G01*
X31325000Y22562500D01*
G75*
G02*
X31087500Y22325000I-237500J0D01*
G01*
X30612500Y22325000D01*
G75*
G02*
X30375000Y22562500I0J237500D01*
G01*
X30375000Y23137500D01*
G75*
G02*
X30612500Y23375000I237500J0D01*
G01*
G37*
%TD.AperFunction*%
%TA.AperFunction,SMDPad,CuDef*%
G36*
G01*
X24412500Y34450000D02*
X24887500Y34450000D01*
G75*
G02*
X25125000Y34212500I0J-237500D01*
G01*
X25125000Y33637500D01*
G75*
G02*
X24887500Y33400000I-237500J0D01*
G01*
X24412500Y33400000D01*
G75*
G02*
X24175000Y33637500I0J237500D01*
G01*
X24175000Y34212500D01*
G75*
G02*
X24412500Y34450000I237500J0D01*
G01*
G37*
%TD.AperFunction*%
%TA.AperFunction,SMDPad,CuDef*%
G36*
G01*
X24412500Y36200000D02*
X24887500Y36200000D01*
G75*
G02*
X25125000Y35962500I0J-237500D01*
G01*
X25125000Y35387500D01*
G75*
G02*
X24887500Y35150000I-237500J0D01*
G01*
X24412500Y35150000D01*
G75*
G02*
X24175000Y35387500I0J237500D01*
G01*
X24175000Y35962500D01*
G75*
G02*
X24412500Y36200000I237500J0D01*
G01*
G37*
%TD.AperFunction*%
%TA.AperFunction,SMDPad,CuDef*%
G36*
G01*
X39037500Y32825000D02*
X39512500Y32825000D01*
G75*
G02*
X39750000Y32587500I0J-237500D01*
G01*
X39750000Y32012500D01*
G75*
G02*
X39512500Y31775000I-237500J0D01*
G01*
X39037500Y31775000D01*
G75*
G02*
X38800000Y32012500I0J237500D01*
G01*
X38800000Y32587500D01*
G75*
G02*
X39037500Y32825000I237500J0D01*
G01*
G37*
%TD.AperFunction*%
%TA.AperFunction,SMDPad,CuDef*%
G36*
G01*
X39037500Y34575000D02*
X39512500Y34575000D01*
G75*
G02*
X39750000Y34337500I0J-237500D01*
G01*
X39750000Y33762500D01*
G75*
G02*
X39512500Y33525000I-237500J0D01*
G01*
X39037500Y33525000D01*
G75*
G02*
X38800000Y33762500I0J237500D01*
G01*
X38800000Y34337500D01*
G75*
G02*
X39037500Y34575000I237500J0D01*
G01*
G37*
%TD.AperFunction*%
%TA.AperFunction,SMDPad,CuDef*%
G36*
G01*
X48325000Y33412500D02*
X48325000Y32937500D01*
G75*
G02*
X48087500Y32700000I-237500J0D01*
G01*
X47512500Y32700000D01*
G75*
G02*
X47275000Y32937500I0J237500D01*
G01*
X47275000Y33412500D01*
G75*
G02*
X47512500Y33650000I237500J0D01*
G01*
X48087500Y33650000D01*
G75*
G02*
X48325000Y33412500I0J-237500D01*
G01*
G37*
%TD.AperFunction*%
%TA.AperFunction,SMDPad,CuDef*%
G36*
G01*
X50075000Y33412500D02*
X50075000Y32937500D01*
G75*
G02*
X49837500Y32700000I-237500J0D01*
G01*
X49262500Y32700000D01*
G75*
G02*
X49025000Y32937500I0J237500D01*
G01*
X49025000Y33412500D01*
G75*
G02*
X49262500Y33650000I237500J0D01*
G01*
X49837500Y33650000D01*
G75*
G02*
X50075000Y33412500I0J-237500D01*
G01*
G37*
%TD.AperFunction*%
%TA.AperFunction,SMDPad,CuDef*%
G36*
G01*
X46650000Y33412500D02*
X46650000Y32937500D01*
G75*
G02*
X46412500Y32700000I-237500J0D01*
G01*
X45837500Y32700000D01*
G75*
G02*
X45600000Y32937500I0J237500D01*
G01*
X45600000Y33412500D01*
G75*
G02*
X45837500Y33650000I237500J0D01*
G01*
X46412500Y33650000D01*
G75*
G02*
X46650000Y33412500I0J-237500D01*
G01*
G37*
%TD.AperFunction*%
%TA.AperFunction,SMDPad,CuDef*%
G36*
G01*
X44900000Y33412500D02*
X44900000Y32937500D01*
G75*
G02*
X44662500Y32700000I-237500J0D01*
G01*
X44087500Y32700000D01*
G75*
G02*
X43850000Y32937500I0J237500D01*
G01*
X43850000Y33412500D01*
G75*
G02*
X44087500Y33650000I237500J0D01*
G01*
X44662500Y33650000D01*
G75*
G02*
X44900000Y33412500I0J-237500D01*
G01*
G37*
%TD.AperFunction*%
%TA.AperFunction,SMDPad,CuDef*%
G36*
G01*
X44775000Y36837500D02*
X44775000Y36362500D01*
G75*
G02*
X44537500Y36125000I-237500J0D01*
G01*
X43962500Y36125000D01*
G75*
G02*
X43725000Y36362500I0J237500D01*
G01*
X43725000Y36837500D01*
G75*
G02*
X43962500Y37075000I237500J0D01*
G01*
X44537500Y37075000D01*
G75*
G02*
X44775000Y36837500I0J-237500D01*
G01*
G37*
%TD.AperFunction*%
%TA.AperFunction,SMDPad,CuDef*%
G36*
G01*
X43025000Y36837500D02*
X43025000Y36362500D01*
G75*
G02*
X42787500Y36125000I-237500J0D01*
G01*
X42212500Y36125000D01*
G75*
G02*
X41975000Y36362500I0J237500D01*
G01*
X41975000Y36837500D01*
G75*
G02*
X42212500Y37075000I237500J0D01*
G01*
X42787500Y37075000D01*
G75*
G02*
X43025000Y36837500I0J-237500D01*
G01*
G37*
%TD.AperFunction*%
%TA.AperFunction,SMDPad,CuDef*%
G36*
G01*
X41400000Y36837500D02*
X41400000Y36362500D01*
G75*
G02*
X41162500Y36125000I-237500J0D01*
G01*
X40587500Y36125000D01*
G75*
G02*
X40350000Y36362500I0J237500D01*
G01*
X40350000Y36837500D01*
G75*
G02*
X40587500Y37075000I237500J0D01*
G01*
X41162500Y37075000D01*
G75*
G02*
X41400000Y36837500I0J-237500D01*
G01*
G37*
%TD.AperFunction*%
%TA.AperFunction,SMDPad,CuDef*%
G36*
G01*
X39650000Y36837500D02*
X39650000Y36362500D01*
G75*
G02*
X39412500Y36125000I-237500J0D01*
G01*
X38837500Y36125000D01*
G75*
G02*
X38600000Y36362500I0J237500D01*
G01*
X38600000Y36837500D01*
G75*
G02*
X38837500Y37075000I237500J0D01*
G01*
X39412500Y37075000D01*
G75*
G02*
X39650000Y36837500I0J-237500D01*
G01*
G37*
%TD.AperFunction*%
%TA.AperFunction,SMDPad,CuDef*%
G36*
G01*
X21637500Y59000000D02*
X21162500Y59000000D01*
G75*
G02*
X20925000Y59237500I0J237500D01*
G01*
X20925000Y59812500D01*
G75*
G02*
X21162500Y60050000I237500J0D01*
G01*
X21637500Y60050000D01*
G75*
G02*
X21875000Y59812500I0J-237500D01*
G01*
X21875000Y59237500D01*
G75*
G02*
X21637500Y59000000I-237500J0D01*
G01*
G37*
%TD.AperFunction*%
%TA.AperFunction,SMDPad,CuDef*%
G36*
G01*
X21637500Y60750000D02*
X21162500Y60750000D01*
G75*
G02*
X20925000Y60987500I0J237500D01*
G01*
X20925000Y61562500D01*
G75*
G02*
X21162500Y61800000I237500J0D01*
G01*
X21637500Y61800000D01*
G75*
G02*
X21875000Y61562500I0J-237500D01*
G01*
X21875000Y60987500D01*
G75*
G02*
X21637500Y60750000I-237500J0D01*
G01*
G37*
%TD.AperFunction*%
%TA.AperFunction,SMDPad,CuDef*%
G36*
G01*
X42437500Y59000000D02*
X41962500Y59000000D01*
G75*
G02*
X41725000Y59237500I0J237500D01*
G01*
X41725000Y59812500D01*
G75*
G02*
X41962500Y60050000I237500J0D01*
G01*
X42437500Y60050000D01*
G75*
G02*
X42675000Y59812500I0J-237500D01*
G01*
X42675000Y59237500D01*
G75*
G02*
X42437500Y59000000I-237500J0D01*
G01*
G37*
%TD.AperFunction*%
%TA.AperFunction,SMDPad,CuDef*%
G36*
G01*
X42437500Y60750000D02*
X41962500Y60750000D01*
G75*
G02*
X41725000Y60987500I0J237500D01*
G01*
X41725000Y61562500D01*
G75*
G02*
X41962500Y61800000I237500J0D01*
G01*
X42437500Y61800000D01*
G75*
G02*
X42675000Y61562500I0J-237500D01*
G01*
X42675000Y60987500D01*
G75*
G02*
X42437500Y60750000I-237500J0D01*
G01*
G37*
%TD.AperFunction*%
%TA.AperFunction,SMDPad,CuDef*%
G36*
G01*
X41337500Y48900000D02*
X40862500Y48900000D01*
G75*
G02*
X40625000Y49137500I0J237500D01*
G01*
X40625000Y49712500D01*
G75*
G02*
X40862500Y49950000I237500J0D01*
G01*
X41337500Y49950000D01*
G75*
G02*
X41575000Y49712500I0J-237500D01*
G01*
X41575000Y49137500D01*
G75*
G02*
X41337500Y48900000I-237500J0D01*
G01*
G37*
%TD.AperFunction*%
%TA.AperFunction,SMDPad,CuDef*%
G36*
G01*
X41337500Y50650000D02*
X40862500Y50650000D01*
G75*
G02*
X40625000Y50887500I0J237500D01*
G01*
X40625000Y51462500D01*
G75*
G02*
X40862500Y51700000I237500J0D01*
G01*
X41337500Y51700000D01*
G75*
G02*
X41575000Y51462500I0J-237500D01*
G01*
X41575000Y50887500D01*
G75*
G02*
X41337500Y50650000I-237500J0D01*
G01*
G37*
%TD.AperFunction*%
%TA.AperFunction,SMDPad,CuDef*%
G36*
G01*
X30512500Y49950000D02*
X30987500Y49950000D01*
G75*
G02*
X31225000Y49712500I0J-237500D01*
G01*
X31225000Y49137500D01*
G75*
G02*
X30987500Y48900000I-237500J0D01*
G01*
X30512500Y48900000D01*
G75*
G02*
X30275000Y49137500I0J237500D01*
G01*
X30275000Y49712500D01*
G75*
G02*
X30512500Y49950000I237500J0D01*
G01*
G37*
%TD.AperFunction*%
%TA.AperFunction,SMDPad,CuDef*%
G36*
G01*
X30512500Y51700000D02*
X30987500Y51700000D01*
G75*
G02*
X31225000Y51462500I0J-237500D01*
G01*
X31225000Y50887500D01*
G75*
G02*
X30987500Y50650000I-237500J0D01*
G01*
X30512500Y50650000D01*
G75*
G02*
X30275000Y50887500I0J237500D01*
G01*
X30275000Y51462500D01*
G75*
G02*
X30512500Y51700000I237500J0D01*
G01*
G37*
%TD.AperFunction*%
%TA.AperFunction,SMDPad,CuDef*%
G36*
G01*
X7243750Y45025000D02*
X8156250Y45025000D01*
G75*
G02*
X8400000Y44781250I0J-243750D01*
G01*
X8400000Y44293750D01*
G75*
G02*
X8156250Y44050000I-243750J0D01*
G01*
X7243750Y44050000D01*
G75*
G02*
X7000000Y44293750I0J243750D01*
G01*
X7000000Y44781250D01*
G75*
G02*
X7243750Y45025000I243750J0D01*
G01*
G37*
%TD.AperFunction*%
%TA.AperFunction,SMDPad,CuDef*%
G36*
G01*
X7243750Y43150000D02*
X8156250Y43150000D01*
G75*
G02*
X8400000Y42906250I0J-243750D01*
G01*
X8400000Y42418750D01*
G75*
G02*
X8156250Y42175000I-243750J0D01*
G01*
X7243750Y42175000D01*
G75*
G02*
X7000000Y42418750I0J243750D01*
G01*
X7000000Y42906250D01*
G75*
G02*
X7243750Y43150000I243750J0D01*
G01*
G37*
%TD.AperFunction*%
%TA.AperFunction,SMDPad,CuDef*%
G36*
G01*
X13550000Y44312500D02*
X13550000Y44787500D01*
G75*
G02*
X13787500Y45025000I237500J0D01*
G01*
X14362500Y45025000D01*
G75*
G02*
X14600000Y44787500I0J-237500D01*
G01*
X14600000Y44312500D01*
G75*
G02*
X14362500Y44075000I-237500J0D01*
G01*
X13787500Y44075000D01*
G75*
G02*
X13550000Y44312500I0J237500D01*
G01*
G37*
%TD.AperFunction*%
%TA.AperFunction,SMDPad,CuDef*%
G36*
G01*
X15300000Y44312500D02*
X15300000Y44787500D01*
G75*
G02*
X15537500Y45025000I237500J0D01*
G01*
X16112500Y45025000D01*
G75*
G02*
X16350000Y44787500I0J-237500D01*
G01*
X16350000Y44312500D01*
G75*
G02*
X16112500Y44075000I-237500J0D01*
G01*
X15537500Y44075000D01*
G75*
G02*
X15300000Y44312500I0J237500D01*
G01*
G37*
%TD.AperFunction*%
%TA.AperFunction,SMDPad,CuDef*%
G36*
G01*
X17462500Y43275000D02*
X17937500Y43275000D01*
G75*
G02*
X18175000Y43037500I0J-237500D01*
G01*
X18175000Y42462500D01*
G75*
G02*
X17937500Y42225000I-237500J0D01*
G01*
X17462500Y42225000D01*
G75*
G02*
X17225000Y42462500I0J237500D01*
G01*
X17225000Y43037500D01*
G75*
G02*
X17462500Y43275000I237500J0D01*
G01*
G37*
%TD.AperFunction*%
%TA.AperFunction,SMDPad,CuDef*%
G36*
G01*
X17462500Y45025000D02*
X17937500Y45025000D01*
G75*
G02*
X18175000Y44787500I0J-237500D01*
G01*
X18175000Y44212500D01*
G75*
G02*
X17937500Y43975000I-237500J0D01*
G01*
X17462500Y43975000D01*
G75*
G02*
X17225000Y44212500I0J237500D01*
G01*
X17225000Y44787500D01*
G75*
G02*
X17462500Y45025000I237500J0D01*
G01*
G37*
%TD.AperFunction*%
%TA.AperFunction,SMDPad,CuDef*%
G36*
G01*
X18175000Y41387500D02*
X18175000Y40912500D01*
G75*
G02*
X17937500Y40675000I-237500J0D01*
G01*
X17362500Y40675000D01*
G75*
G02*
X17125000Y40912500I0J237500D01*
G01*
X17125000Y41387500D01*
G75*
G02*
X17362500Y41625000I237500J0D01*
G01*
X17937500Y41625000D01*
G75*
G02*
X18175000Y41387500I0J-237500D01*
G01*
G37*
%TD.AperFunction*%
%TA.AperFunction,SMDPad,CuDef*%
G36*
G01*
X16425000Y41387500D02*
X16425000Y40912500D01*
G75*
G02*
X16187500Y40675000I-237500J0D01*
G01*
X15612500Y40675000D01*
G75*
G02*
X15375000Y40912500I0J237500D01*
G01*
X15375000Y41387500D01*
G75*
G02*
X15612500Y41625000I237500J0D01*
G01*
X16187500Y41625000D01*
G75*
G02*
X16425000Y41387500I0J-237500D01*
G01*
G37*
%TD.AperFunction*%
%TA.AperFunction,SMDPad,CuDef*%
G36*
G01*
X21287500Y39700000D02*
X21762500Y39700000D01*
G75*
G02*
X22000000Y39462500I0J-237500D01*
G01*
X22000000Y38887500D01*
G75*
G02*
X21762500Y38650000I-237500J0D01*
G01*
X21287500Y38650000D01*
G75*
G02*
X21050000Y38887500I0J237500D01*
G01*
X21050000Y39462500D01*
G75*
G02*
X21287500Y39700000I237500J0D01*
G01*
G37*
%TD.AperFunction*%
%TA.AperFunction,SMDPad,CuDef*%
G36*
G01*
X21287500Y41450000D02*
X21762500Y41450000D01*
G75*
G02*
X22000000Y41212500I0J-237500D01*
G01*
X22000000Y40637500D01*
G75*
G02*
X21762500Y40400000I-237500J0D01*
G01*
X21287500Y40400000D01*
G75*
G02*
X21050000Y40637500I0J237500D01*
G01*
X21050000Y41212500D01*
G75*
G02*
X21287500Y41450000I237500J0D01*
G01*
G37*
%TD.AperFunction*%
%TA.AperFunction,SMDPad,CuDef*%
G36*
G01*
X21287500Y37950000D02*
X21762500Y37950000D01*
G75*
G02*
X22000000Y37712500I0J-237500D01*
G01*
X22000000Y37137500D01*
G75*
G02*
X21762500Y36900000I-237500J0D01*
G01*
X21287500Y36900000D01*
G75*
G02*
X21050000Y37137500I0J237500D01*
G01*
X21050000Y37712500D01*
G75*
G02*
X21287500Y37950000I237500J0D01*
G01*
G37*
%TD.AperFunction*%
%TA.AperFunction,SMDPad,CuDef*%
G36*
G01*
X21287500Y36200000D02*
X21762500Y36200000D01*
G75*
G02*
X22000000Y35962500I0J-237500D01*
G01*
X22000000Y35387500D01*
G75*
G02*
X21762500Y35150000I-237500J0D01*
G01*
X21287500Y35150000D01*
G75*
G02*
X21050000Y35387500I0J237500D01*
G01*
X21050000Y35962500D01*
G75*
G02*
X21287500Y36200000I237500J0D01*
G01*
G37*
%TD.AperFunction*%
%TA.AperFunction,SMDPad,CuDef*%
G36*
G01*
X8200000Y41312500D02*
X8200000Y40837500D01*
G75*
G02*
X7962500Y40600000I-237500J0D01*
G01*
X7387500Y40600000D01*
G75*
G02*
X7150000Y40837500I0J237500D01*
G01*
X7150000Y41312500D01*
G75*
G02*
X7387500Y41550000I237500J0D01*
G01*
X7962500Y41550000D01*
G75*
G02*
X8200000Y41312500I0J-237500D01*
G01*
G37*
%TD.AperFunction*%
%TA.AperFunction,SMDPad,CuDef*%
G36*
G01*
X9950000Y41312500D02*
X9950000Y40837500D01*
G75*
G02*
X9712500Y40600000I-237500J0D01*
G01*
X9137500Y40600000D01*
G75*
G02*
X8900000Y40837500I0J237500D01*
G01*
X8900000Y41312500D01*
G75*
G02*
X9137500Y41550000I237500J0D01*
G01*
X9712500Y41550000D01*
G75*
G02*
X9950000Y41312500I0J-237500D01*
G01*
G37*
%TD.AperFunction*%
%TA.AperFunction,SMDPad,CuDef*%
G36*
G01*
X3050000Y30687500D02*
X3050000Y31162500D01*
G75*
G02*
X3287500Y31400000I237500J0D01*
G01*
X3862500Y31400000D01*
G75*
G02*
X4100000Y31162500I0J-237500D01*
G01*
X4100000Y30687500D01*
G75*
G02*
X3862500Y30450000I-237500J0D01*
G01*
X3287500Y30450000D01*
G75*
G02*
X3050000Y30687500I0J237500D01*
G01*
G37*
%TD.AperFunction*%
%TA.AperFunction,SMDPad,CuDef*%
G36*
G01*
X4800000Y30687500D02*
X4800000Y31162500D01*
G75*
G02*
X5037500Y31400000I237500J0D01*
G01*
X5612500Y31400000D01*
G75*
G02*
X5850000Y31162500I0J-237500D01*
G01*
X5850000Y30687500D01*
G75*
G02*
X5612500Y30450000I-237500J0D01*
G01*
X5037500Y30450000D01*
G75*
G02*
X4800000Y30687500I0J237500D01*
G01*
G37*
%TD.AperFunction*%
D27*
X1100000Y28700000D03*
X1100000Y31050000D03*
%TA.AperFunction,SMDPad,CuDef*%
G36*
G01*
X46712500Y25825000D02*
X46237500Y25825000D01*
G75*
G02*
X46000000Y26062500I0J237500D01*
G01*
X46000000Y26637500D01*
G75*
G02*
X46237500Y26875000I237500J0D01*
G01*
X46712500Y26875000D01*
G75*
G02*
X46950000Y26637500I0J-237500D01*
G01*
X46950000Y26062500D01*
G75*
G02*
X46712500Y25825000I-237500J0D01*
G01*
G37*
%TD.AperFunction*%
%TA.AperFunction,SMDPad,CuDef*%
G36*
G01*
X46712500Y27575000D02*
X46237500Y27575000D01*
G75*
G02*
X46000000Y27812500I0J237500D01*
G01*
X46000000Y28387500D01*
G75*
G02*
X46237500Y28625000I237500J0D01*
G01*
X46712500Y28625000D01*
G75*
G02*
X46950000Y28387500I0J-237500D01*
G01*
X46950000Y27812500D01*
G75*
G02*
X46712500Y27575000I-237500J0D01*
G01*
G37*
%TD.AperFunction*%
%TA.AperFunction,SMDPad,CuDef*%
G36*
G01*
X40262500Y28325000D02*
X39787500Y28325000D01*
G75*
G02*
X39550000Y28562500I0J237500D01*
G01*
X39550000Y29137500D01*
G75*
G02*
X39787500Y29375000I237500J0D01*
G01*
X40262500Y29375000D01*
G75*
G02*
X40500000Y29137500I0J-237500D01*
G01*
X40500000Y28562500D01*
G75*
G02*
X40262500Y28325000I-237500J0D01*
G01*
G37*
%TD.AperFunction*%
%TA.AperFunction,SMDPad,CuDef*%
G36*
G01*
X40262500Y26575000D02*
X39787500Y26575000D01*
G75*
G02*
X39550000Y26812500I0J237500D01*
G01*
X39550000Y27387500D01*
G75*
G02*
X39787500Y27625000I237500J0D01*
G01*
X40262500Y27625000D01*
G75*
G02*
X40500000Y27387500I0J-237500D01*
G01*
X40500000Y26812500D01*
G75*
G02*
X40262500Y26575000I-237500J0D01*
G01*
G37*
%TD.AperFunction*%
D25*
X50025000Y28325000D03*
X48125000Y28325000D03*
X49075000Y26325000D03*
%TA.AperFunction,SMDPad,CuDef*%
G36*
G01*
X52081250Y29475000D02*
X51568750Y29475000D01*
G75*
G02*
X51350000Y29693750I0J218750D01*
G01*
X51350000Y30131250D01*
G75*
G02*
X51568750Y30350000I218750J0D01*
G01*
X52081250Y30350000D01*
G75*
G02*
X52300000Y30131250I0J-218750D01*
G01*
X52300000Y29693750D01*
G75*
G02*
X52081250Y29475000I-218750J0D01*
G01*
G37*
%TD.AperFunction*%
%TA.AperFunction,SMDPad,CuDef*%
G36*
G01*
X52081250Y31050000D02*
X51568750Y31050000D01*
G75*
G02*
X51350000Y31268750I0J218750D01*
G01*
X51350000Y31706250D01*
G75*
G02*
X51568750Y31925000I218750J0D01*
G01*
X52081250Y31925000D01*
G75*
G02*
X52300000Y31706250I0J-218750D01*
G01*
X52300000Y31268750D01*
G75*
G02*
X52081250Y31050000I-218750J0D01*
G01*
G37*
%TD.AperFunction*%
%TA.AperFunction,SMDPad,CuDef*%
G36*
G01*
X51443750Y28875000D02*
X52206250Y28875000D01*
G75*
G02*
X52425000Y28656250I0J-218750D01*
G01*
X52425000Y28218750D01*
G75*
G02*
X52206250Y28000000I-218750J0D01*
G01*
X51443750Y28000000D01*
G75*
G02*
X51225000Y28218750I0J218750D01*
G01*
X51225000Y28656250D01*
G75*
G02*
X51443750Y28875000I218750J0D01*
G01*
G37*
%TD.AperFunction*%
%TA.AperFunction,SMDPad,CuDef*%
G36*
G01*
X51443750Y26750000D02*
X52206250Y26750000D01*
G75*
G02*
X52425000Y26531250I0J-218750D01*
G01*
X52425000Y26093750D01*
G75*
G02*
X52206250Y25875000I-218750J0D01*
G01*
X51443750Y25875000D01*
G75*
G02*
X51225000Y26093750I0J218750D01*
G01*
X51225000Y26531250D01*
G75*
G02*
X51443750Y26750000I218750J0D01*
G01*
G37*
%TD.AperFunction*%
%TA.AperFunction,SMDPad,CuDef*%
G36*
G01*
X32037500Y59000000D02*
X31562500Y59000000D01*
G75*
G02*
X31325000Y59237500I0J237500D01*
G01*
X31325000Y59812500D01*
G75*
G02*
X31562500Y60050000I237500J0D01*
G01*
X32037500Y60050000D01*
G75*
G02*
X32275000Y59812500I0J-237500D01*
G01*
X32275000Y59237500D01*
G75*
G02*
X32037500Y59000000I-237500J0D01*
G01*
G37*
%TD.AperFunction*%
%TA.AperFunction,SMDPad,CuDef*%
G36*
G01*
X32037500Y60750000D02*
X31562500Y60750000D01*
G75*
G02*
X31325000Y60987500I0J237500D01*
G01*
X31325000Y61562500D01*
G75*
G02*
X31562500Y61800000I237500J0D01*
G01*
X32037500Y61800000D01*
G75*
G02*
X32275000Y61562500I0J-237500D01*
G01*
X32275000Y60987500D01*
G75*
G02*
X32037500Y60750000I-237500J0D01*
G01*
G37*
%TD.AperFunction*%
D28*
X44625000Y27125000D03*
X44625000Y28075000D03*
X44625000Y29025000D03*
X41925000Y29025000D03*
X41925000Y27125000D03*
D29*
X14650000Y18750000D03*
X14650000Y16850000D03*
X12450000Y16850000D03*
D30*
X12450000Y18570000D03*
X46000000Y15420000D03*
D29*
X46000000Y13700000D03*
X48200000Y13700000D03*
X48200000Y15600000D03*
%TA.AperFunction,SMDPad,CuDef*%
G36*
G01*
X15050000Y36087500D02*
X15050000Y35612500D01*
G75*
G02*
X14812500Y35375000I-237500J0D01*
G01*
X14237500Y35375000D01*
G75*
G02*
X14000000Y35612500I0J237500D01*
G01*
X14000000Y36087500D01*
G75*
G02*
X14237500Y36325000I237500J0D01*
G01*
X14812500Y36325000D01*
G75*
G02*
X15050000Y36087500I0J-237500D01*
G01*
G37*
%TD.AperFunction*%
%TA.AperFunction,SMDPad,CuDef*%
G36*
G01*
X16800000Y36087500D02*
X16800000Y35612500D01*
G75*
G02*
X16562500Y35375000I-237500J0D01*
G01*
X15987500Y35375000D01*
G75*
G02*
X15750000Y35612500I0J237500D01*
G01*
X15750000Y36087500D01*
G75*
G02*
X15987500Y36325000I237500J0D01*
G01*
X16562500Y36325000D01*
G75*
G02*
X16800000Y36087500I0J-237500D01*
G01*
G37*
%TD.AperFunction*%
%TA.AperFunction,SMDPad,CuDef*%
G36*
G01*
X16800000Y38387500D02*
X16800000Y37912500D01*
G75*
G02*
X16562500Y37675000I-237500J0D01*
G01*
X15987500Y37675000D01*
G75*
G02*
X15750000Y37912500I0J237500D01*
G01*
X15750000Y38387500D01*
G75*
G02*
X15987500Y38625000I237500J0D01*
G01*
X16562500Y38625000D01*
G75*
G02*
X16800000Y38387500I0J-237500D01*
G01*
G37*
%TD.AperFunction*%
%TA.AperFunction,SMDPad,CuDef*%
G36*
G01*
X15050000Y38387500D02*
X15050000Y37912500D01*
G75*
G02*
X14812500Y37675000I-237500J0D01*
G01*
X14237500Y37675000D01*
G75*
G02*
X14000000Y37912500I0J237500D01*
G01*
X14000000Y38387500D01*
G75*
G02*
X14237500Y38625000I237500J0D01*
G01*
X14812500Y38625000D01*
G75*
G02*
X15050000Y38387500I0J-237500D01*
G01*
G37*
%TD.AperFunction*%
%TA.AperFunction,SMDPad,CuDef*%
G36*
G01*
X29150000Y4012500D02*
X29150000Y4487500D01*
G75*
G02*
X29387500Y4725000I237500J0D01*
G01*
X29962500Y4725000D01*
G75*
G02*
X30200000Y4487500I0J-237500D01*
G01*
X30200000Y4012500D01*
G75*
G02*
X29962500Y3775000I-237500J0D01*
G01*
X29387500Y3775000D01*
G75*
G02*
X29150000Y4012500I0J237500D01*
G01*
G37*
%TD.AperFunction*%
%TA.AperFunction,SMDPad,CuDef*%
G36*
G01*
X27400000Y4012500D02*
X27400000Y4487500D01*
G75*
G02*
X27637500Y4725000I237500J0D01*
G01*
X28212500Y4725000D01*
G75*
G02*
X28450000Y4487500I0J-237500D01*
G01*
X28450000Y4012500D01*
G75*
G02*
X28212500Y3775000I-237500J0D01*
G01*
X27637500Y3775000D01*
G75*
G02*
X27400000Y4012500I0J237500D01*
G01*
G37*
%TD.AperFunction*%
%TA.AperFunction,SMDPad,CuDef*%
G36*
G01*
X26400000Y4487500D02*
X26400000Y4012500D01*
G75*
G02*
X26162500Y3775000I-237500J0D01*
G01*
X25587500Y3775000D01*
G75*
G02*
X25350000Y4012500I0J237500D01*
G01*
X25350000Y4487500D01*
G75*
G02*
X25587500Y4725000I237500J0D01*
G01*
X26162500Y4725000D01*
G75*
G02*
X26400000Y4487500I0J-237500D01*
G01*
G37*
%TD.AperFunction*%
%TA.AperFunction,SMDPad,CuDef*%
G36*
G01*
X24650000Y4487500D02*
X24650000Y4012500D01*
G75*
G02*
X24412500Y3775000I-237500J0D01*
G01*
X23837500Y3775000D01*
G75*
G02*
X23600000Y4012500I0J237500D01*
G01*
X23600000Y4487500D01*
G75*
G02*
X23837500Y4725000I237500J0D01*
G01*
X24412500Y4725000D01*
G75*
G02*
X24650000Y4487500I0J-237500D01*
G01*
G37*
%TD.AperFunction*%
%TA.AperFunction,SMDPad,CuDef*%
G36*
G01*
X14700000Y25687500D02*
X14700000Y26162500D01*
G75*
G02*
X14937500Y26400000I237500J0D01*
G01*
X15512500Y26400000D01*
G75*
G02*
X15750000Y26162500I0J-237500D01*
G01*
X15750000Y25687500D01*
G75*
G02*
X15512500Y25450000I-237500J0D01*
G01*
X14937500Y25450000D01*
G75*
G02*
X14700000Y25687500I0J237500D01*
G01*
G37*
%TD.AperFunction*%
%TA.AperFunction,SMDPad,CuDef*%
G36*
G01*
X16450000Y25687500D02*
X16450000Y26162500D01*
G75*
G02*
X16687500Y26400000I237500J0D01*
G01*
X17262500Y26400000D01*
G75*
G02*
X17500000Y26162500I0J-237500D01*
G01*
X17500000Y25687500D01*
G75*
G02*
X17262500Y25450000I-237500J0D01*
G01*
X16687500Y25450000D01*
G75*
G02*
X16450000Y25687500I0J237500D01*
G01*
G37*
%TD.AperFunction*%
%TA.AperFunction,SMDPad,CuDef*%
G36*
G01*
X20250000Y25687500D02*
X20250000Y26162500D01*
G75*
G02*
X20487500Y26400000I237500J0D01*
G01*
X21062500Y26400000D01*
G75*
G02*
X21300000Y26162500I0J-237500D01*
G01*
X21300000Y25687500D01*
G75*
G02*
X21062500Y25450000I-237500J0D01*
G01*
X20487500Y25450000D01*
G75*
G02*
X20250000Y25687500I0J237500D01*
G01*
G37*
%TD.AperFunction*%
%TA.AperFunction,SMDPad,CuDef*%
G36*
G01*
X18500000Y25687500D02*
X18500000Y26162500D01*
G75*
G02*
X18737500Y26400000I237500J0D01*
G01*
X19312500Y26400000D01*
G75*
G02*
X19550000Y26162500I0J-237500D01*
G01*
X19550000Y25687500D01*
G75*
G02*
X19312500Y25450000I-237500J0D01*
G01*
X18737500Y25450000D01*
G75*
G02*
X18500000Y25687500I0J237500D01*
G01*
G37*
%TD.AperFunction*%
D17*
X46150000Y80250000D03*
D31*
X14400000Y46250000D03*
X16000000Y46250000D03*
X17600000Y46250000D03*
D32*
X17500000Y51800000D03*
X14500000Y51800000D03*
D33*
X18800000Y49050000D03*
X13200000Y49050000D03*
D11*
X46250000Y54332700D03*
D12*
X49250002Y49494000D03*
X47250001Y49494000D03*
X45250002Y49494000D03*
X43250001Y49494000D03*
X32950001Y49494000D03*
X34950002Y49494000D03*
X36950001Y49494000D03*
X38950002Y49494000D03*
D11*
X35950000Y54332700D03*
D15*
X7625000Y18825000D03*
X7625000Y16825000D03*
X7625000Y14825000D03*
X7625000Y12825000D03*
D16*
X2125000Y21225000D03*
X2125000Y8425000D03*
D15*
X7625000Y10825000D03*
D34*
X19200000Y41200000D03*
X14300000Y41200000D03*
X22900000Y37500000D03*
X20000000Y35600000D03*
D35*
X59100000Y20200000D03*
X59000000Y7300000D03*
D36*
X56800000Y45600000D03*
X53400000Y51000000D03*
X60800000Y41400000D03*
X60800000Y51000000D03*
X57000000Y66000000D03*
X53400000Y61000000D03*
X53400000Y69800000D03*
X60800000Y66000000D03*
X60800000Y61000000D03*
X60800000Y69800000D03*
X37750000Y55750000D03*
X34750000Y55750000D03*
D37*
X30750000Y51650000D03*
X41100000Y51675000D03*
X1925000Y8125000D03*
X850000Y8125000D03*
X3100000Y28450000D03*
D35*
X21870000Y34120000D03*
D37*
X12450000Y19175000D03*
X30850000Y22400000D03*
X3475000Y42025000D03*
X15000000Y52700000D03*
X10850000Y37075000D03*
X10850000Y35875000D03*
X13025000Y5150000D03*
X14000000Y52700000D03*
D36*
X14400000Y64750000D03*
X14400000Y60750000D03*
X14400000Y56950000D03*
X12000000Y62750000D03*
D37*
X6450000Y30875000D03*
X3500000Y40125000D03*
X56150000Y17750000D03*
X29150000Y30875000D03*
X24500000Y9900000D03*
X15830000Y44080000D03*
X20675000Y27500000D03*
X29750000Y8750000D03*
X10850000Y34825000D03*
X6450000Y31875000D03*
X3900000Y8125000D03*
X36200000Y13050010D03*
X28750000Y13000000D03*
X28750000Y11750008D03*
X51600000Y13700000D03*
X28750000Y10600000D03*
X52500000Y11700000D03*
D35*
X21525000Y46700000D03*
X23500000Y46700000D03*
X9750000Y48800000D03*
D37*
X14100000Y44125000D03*
X32600000Y29200000D03*
X33300000Y5425000D03*
X1000000Y25300000D03*
X2000000Y24200000D03*
X1000000Y24200000D03*
X17750000Y32225000D03*
X2000000Y25300000D03*
X24580000Y11630000D03*
X11875000Y9250000D03*
X53400000Y15750000D03*
X13000000Y7875000D03*
X2000000Y26300000D03*
X11750000Y16850000D03*
X20900000Y16825000D03*
X50025000Y28775000D03*
X48125000Y28775000D03*
X46475000Y28575000D03*
X40025000Y29325000D03*
X41250000Y32225000D03*
X38700000Y36600000D03*
X36500000Y29225000D03*
D35*
X52700000Y44950000D03*
X52700000Y42850000D03*
X52675000Y47150000D03*
D36*
X35475000Y46325000D03*
X38250000Y46250000D03*
X41000000Y46250000D03*
X43500000Y46250000D03*
X48750000Y46250000D03*
X50750000Y44000000D03*
X24400000Y69600000D03*
X27800000Y69600000D03*
X31000000Y69600000D03*
X33800000Y69600000D03*
X36800000Y69600000D03*
X39800000Y69600000D03*
D37*
X27250000Y30900000D03*
X23650000Y4250000D03*
X38900000Y24575000D03*
X40025000Y34125000D03*
X42200000Y61800000D03*
X31800000Y61800000D03*
X21400000Y61800000D03*
D35*
X25925000Y33100000D03*
D37*
X40825000Y38550000D03*
X30400000Y24585000D03*
X30150000Y4250000D03*
D36*
X50510000Y36970000D03*
D37*
X22775000Y16825000D03*
D35*
X17500000Y57200000D03*
X17500000Y54200000D03*
X17500000Y55700000D03*
X17500000Y52700000D03*
D36*
X28750000Y55750000D03*
X31750000Y55750000D03*
X40750000Y55750000D03*
D37*
X23300000Y6225000D03*
X13675000Y12775000D03*
D38*
X18907106Y4942894D02*
X20325000Y3525000D01*
X18907106Y4942894D02*
X18541264Y5243133D01*
X18541264Y5243133D02*
X18123879Y5466230D01*
X18123879Y5466230D02*
X17670989Y5603613D01*
X17670989Y5603613D02*
X17200000Y5650000D01*
X17200000Y5650000D02*
X13025000Y5650000D01*
D39*
X7750000Y31150000D02*
X7525000Y30925000D01*
X7750000Y33375000D02*
X7750000Y31150000D01*
D40*
X11250000Y35475000D02*
X10850000Y35875000D01*
D41*
X7525000Y30925000D02*
X6450000Y30925000D01*
X6450000Y30925000D02*
X5325000Y30925000D01*
D39*
X33850000Y23315000D02*
X32725000Y23315000D01*
X33850000Y23315000D02*
X33899008Y23317408D01*
X33899008Y23317408D02*
X33947545Y23324608D01*
X33947545Y23324608D02*
X33995142Y23336530D01*
X33995142Y23336530D02*
X34041341Y23353061D01*
X34041341Y23353061D02*
X34085698Y23374040D01*
X34085698Y23374040D02*
X34127785Y23399266D01*
X34127785Y23399266D02*
X34167196Y23428495D01*
X34167196Y23428495D02*
X34203553Y23461447D01*
X34203553Y23461447D02*
X34236505Y23497804D01*
X34236505Y23497804D02*
X34265734Y23537215D01*
X34265734Y23537215D02*
X34290960Y23579302D01*
X34290960Y23579302D02*
X34311939Y23623659D01*
X34311939Y23623659D02*
X34328470Y23669858D01*
X34328470Y23669858D02*
X34340392Y23717455D01*
X34340392Y23717455D02*
X34347592Y23765992D01*
X34347592Y23765992D02*
X34350000Y23815000D01*
X34350000Y23815000D02*
X34350000Y28775000D01*
D41*
X29150000Y28975000D02*
X29075000Y28900000D01*
X29150000Y30450000D02*
X29150000Y28975000D01*
D40*
X32850000Y10875000D02*
X33175000Y10550000D01*
X31275000Y10875000D02*
X32850000Y10875000D01*
X24375000Y10075000D02*
X22775000Y10075000D01*
D41*
X12450000Y18570000D02*
X12450000Y19175000D01*
D40*
X22515000Y10075000D02*
X22510000Y10070000D01*
X22775000Y10075000D02*
X22515000Y10075000D01*
X18675000Y10820000D02*
X18675000Y11060000D01*
X18675000Y10820000D02*
X18678611Y10746488D01*
X18678611Y10746488D02*
X18689411Y10673683D01*
X18689411Y10673683D02*
X18707294Y10602287D01*
X18707294Y10602287D02*
X18732090Y10532988D01*
X18732090Y10532988D02*
X18763559Y10466453D01*
X18763559Y10466453D02*
X18801397Y10403323D01*
X18801397Y10403323D02*
X18845242Y10344206D01*
X18845242Y10344206D02*
X18894669Y10289670D01*
X18894669Y10289670D02*
X18949205Y10240243D01*
X18949205Y10240243D02*
X19008322Y10196398D01*
X19008322Y10196398D02*
X19071452Y10158560D01*
X19071452Y10158560D02*
X19137987Y10127091D01*
X19137987Y10127091D02*
X19207286Y10102295D01*
X19207286Y10102295D02*
X19278682Y10084412D01*
X19278682Y10084412D02*
X19351487Y10073612D01*
X19351487Y10073612D02*
X19425000Y10070000D01*
X19425000Y10070000D02*
X22510000Y10070000D01*
X31275000Y10875000D02*
X29915000Y10875000D01*
X24325000Y10075000D02*
X24500000Y9900000D01*
X22775000Y10075000D02*
X24325000Y10075000D01*
D41*
X20675000Y25925000D02*
X20675000Y27500000D01*
X47000000Y17750000D02*
X54800000Y17750000D01*
X47000000Y17750000D02*
X46901982Y17745185D01*
X46901982Y17745185D02*
X46804909Y17730786D01*
X46804909Y17730786D02*
X46709715Y17706941D01*
X46709715Y17706941D02*
X46617316Y17673880D01*
X46617316Y17673880D02*
X46528603Y17631922D01*
X46528603Y17631922D02*
X46444429Y17581470D01*
X46444429Y17581470D02*
X46365606Y17523011D01*
X46365606Y17523011D02*
X46292893Y17457107D01*
X46292893Y17457107D02*
X46226989Y17384394D01*
X46226989Y17384394D02*
X46168530Y17305571D01*
X46168530Y17305571D02*
X46118078Y17221397D01*
X46118078Y17221397D02*
X46076120Y17132684D01*
X46076120Y17132684D02*
X46043059Y17040285D01*
X46043059Y17040285D02*
X46019214Y16945091D01*
X46019214Y16945091D02*
X46004815Y16848018D01*
X46004815Y16848018D02*
X46000000Y16750000D01*
X46000000Y16750000D02*
X46000000Y15420000D01*
X14350000Y41150000D02*
X14300000Y41200000D01*
X15900000Y41150000D02*
X14350000Y41150000D01*
X20075000Y35675000D02*
X20000000Y35600000D01*
X21525000Y35675000D02*
X20075000Y35675000D01*
X12900000Y27825000D02*
X14175000Y27825000D01*
D42*
X26701120Y13617317D02*
X26743078Y13528604D01*
X26668059Y13709716D02*
X26701120Y13617317D01*
X26625000Y14000000D02*
X26629815Y13901983D01*
X26625000Y14000000D02*
X26625000Y14725000D01*
X26793530Y13444430D02*
X26851989Y13365607D01*
X26644214Y13804910D02*
X26668059Y13709716D01*
X27625000Y13000000D02*
X28750000Y13000000D01*
X26629815Y13901983D02*
X26644214Y13804910D01*
X26990606Y13226990D02*
X27069429Y13168531D01*
X26743078Y13528604D02*
X26793530Y13444430D01*
X26851989Y13365607D02*
X26917893Y13292894D01*
X26917893Y13292894D02*
X26990606Y13226990D01*
X27069429Y13168531D02*
X27153603Y13118079D01*
X27153603Y13118079D02*
X27242316Y13076121D01*
X27242316Y13076121D02*
X27334715Y13043060D01*
X27334715Y13043060D02*
X27429909Y13019215D01*
X27429909Y13019215D02*
X27526982Y13004816D01*
X27526982Y13004816D02*
X27625000Y13000000D01*
D40*
X26625000Y16700000D02*
X26375000Y16950000D01*
X26625000Y14725000D02*
X26625000Y16700000D01*
D42*
X36200000Y11750000D02*
X36200000Y13050010D01*
X36200000Y11750000D02*
X36209630Y11553966D01*
X36209630Y11553966D02*
X36238429Y11359820D01*
X36238429Y11359820D02*
X36286119Y11169431D01*
X36286119Y11169431D02*
X36352240Y10984634D01*
X36352240Y10984634D02*
X36436157Y10807207D01*
X36436157Y10807207D02*
X36537060Y10638860D01*
X36537060Y10638860D02*
X36653979Y10481214D01*
X36653979Y10481214D02*
X36785786Y10335787D01*
X36785786Y10335787D02*
X36931213Y10203980D01*
X36931213Y10203980D02*
X37088859Y10087061D01*
X37088859Y10087061D02*
X37257206Y9986158D01*
X37257206Y9986158D02*
X37434633Y9902241D01*
X37434633Y9902241D02*
X37619430Y9836120D01*
X37619430Y9836120D02*
X37809819Y9788430D01*
X37809819Y9788430D02*
X38003965Y9759631D01*
X38003965Y9759631D02*
X38200000Y9750000D01*
X38200000Y9750000D02*
X40935000Y9750000D01*
D41*
X42685000Y9750000D02*
X45825000Y9750000D01*
X45825000Y9750000D02*
X54800000Y9750000D01*
D42*
X27825000Y11750008D02*
X28750000Y11750008D01*
X27825000Y11750008D02*
X27628965Y11759639D01*
X27628965Y11759639D02*
X27434819Y11788438D01*
X27434819Y11788438D02*
X27244430Y11836128D01*
X27244430Y11836128D02*
X27059633Y11902249D01*
X27059633Y11902249D02*
X26882206Y11986166D01*
X26882206Y11986166D02*
X26713859Y12087069D01*
X26713859Y12087069D02*
X26556213Y12203988D01*
X26556213Y12203988D02*
X26410786Y12335795D01*
X26410786Y12335795D02*
X26278979Y12481222D01*
X26278979Y12481222D02*
X26162060Y12638868D01*
X26162060Y12638868D02*
X26061157Y12807215D01*
X26061157Y12807215D02*
X25977240Y12984642D01*
X25977240Y12984642D02*
X25911119Y13169439D01*
X25911119Y13169439D02*
X25863429Y13359828D01*
X25863429Y13359828D02*
X25834630Y13553974D01*
X25834630Y13553974D02*
X25825000Y13750008D01*
X25825000Y13750008D02*
X25825000Y14725000D01*
X54750000Y13700000D02*
X54800000Y13750000D01*
D41*
X51600000Y13700000D02*
X54750000Y13700000D01*
X51600000Y13700000D02*
X48200000Y13700000D01*
D42*
X28025000Y10600000D02*
X28750000Y10600000D01*
X28025000Y10600000D02*
X27730948Y10614446D01*
X27730948Y10614446D02*
X27439729Y10657645D01*
X27439729Y10657645D02*
X27154145Y10729179D01*
X27154145Y10729179D02*
X26876949Y10828362D01*
X26876949Y10828362D02*
X26610809Y10954237D01*
X26610809Y10954237D02*
X26358289Y11105592D01*
X26358289Y11105592D02*
X26121820Y11280969D01*
X26121820Y11280969D02*
X25903679Y11478680D01*
X25903679Y11478680D02*
X25705968Y11696821D01*
X25705968Y11696821D02*
X25530591Y11933290D01*
X25530591Y11933290D02*
X25379236Y12185810D01*
X25379236Y12185810D02*
X25253361Y12451950D01*
X25253361Y12451950D02*
X25154178Y12729146D01*
X25154178Y12729146D02*
X25082644Y13014730D01*
X25082644Y13014730D02*
X25039445Y13305949D01*
X25039445Y13305949D02*
X25025000Y13600000D01*
X25025000Y13600000D02*
X25025000Y14725000D01*
X54750000Y11700000D02*
X54800000Y11750000D01*
D41*
X52500000Y11700000D02*
X54750000Y11700000D01*
X47000000Y11700000D02*
X52500000Y11700000D01*
X47000000Y11700000D02*
X46901982Y11704816D01*
X46901982Y11704816D02*
X46804909Y11719215D01*
X46804909Y11719215D02*
X46709715Y11743060D01*
X46709715Y11743060D02*
X46617316Y11776121D01*
X46617316Y11776121D02*
X46528603Y11818079D01*
X46528603Y11818079D02*
X46444429Y11868531D01*
X46444429Y11868531D02*
X46365606Y11926990D01*
X46365606Y11926990D02*
X46292893Y11992894D01*
X46292893Y11992894D02*
X46226989Y12065607D01*
X46226989Y12065607D02*
X46168530Y12144430D01*
X46168530Y12144430D02*
X46118078Y12228604D01*
X46118078Y12228604D02*
X46076120Y12317317D01*
X46076120Y12317317D02*
X46043059Y12409716D01*
X46043059Y12409716D02*
X46019214Y12504910D01*
X46019214Y12504910D02*
X46004815Y12601983D01*
X46004815Y12601983D02*
X46000000Y12700000D01*
X46000000Y12700000D02*
X46000000Y13700000D01*
D43*
X21525000Y40925000D02*
X21525000Y46700000D01*
D41*
X9379385Y48299441D02*
X9358062Y48244163D01*
X9323675Y48130804D02*
X9310693Y48072996D01*
X9287500Y47837500D02*
X9287500Y46800000D01*
X9430033Y48406527D02*
X9403394Y48353606D01*
X9641053Y48691054D02*
X9750000Y48800000D01*
X9310693Y48072996D02*
X9300564Y48014620D01*
X9459236Y48458078D02*
X9430033Y48406527D01*
X9300564Y48014620D02*
X9293312Y47955818D01*
X9288953Y47896730D02*
X9287500Y47837500D01*
X9339477Y48187905D02*
X9323675Y48130804D01*
X9641053Y48691054D02*
X9600199Y48648145D01*
X9358062Y48244163D02*
X9339477Y48187905D01*
X9490933Y48508134D02*
X9459236Y48458078D01*
X9403394Y48353606D02*
X9379385Y48299441D01*
X9561500Y48603282D02*
X9525048Y48556574D01*
X9525048Y48556574D02*
X9490933Y48508134D01*
X9293312Y47955818D02*
X9288953Y47896730D01*
X9600199Y48648145D02*
X9561500Y48603282D01*
D39*
X17600000Y44750000D02*
X17550000Y44700000D01*
X17600000Y46300000D02*
X17600000Y44750000D01*
D44*
X7750000Y37850000D02*
X7675000Y37925000D01*
X7750000Y36075000D02*
X7750000Y37850000D01*
D45*
X7675000Y37925000D02*
X7675000Y39525000D01*
X7712500Y42675000D02*
X7700000Y42662500D01*
D41*
X5950000Y41075000D02*
X7675000Y41075000D01*
D45*
X7675000Y42637500D02*
X7700000Y42662500D01*
X7675000Y39525000D02*
X7675000Y42637500D01*
D41*
X14920000Y7400000D02*
X15245000Y7725000D01*
D40*
X33262500Y8687500D02*
X33375000Y8800000D01*
D41*
X1100000Y27050000D02*
X1100000Y27125000D01*
X1100000Y27125000D02*
X1100000Y27900000D01*
X1100000Y27900000D02*
X1100000Y28475000D01*
X1100000Y28475000D02*
X1100000Y28700000D01*
D40*
X32850000Y8475000D02*
X33175000Y8800000D01*
X31275000Y8475000D02*
X32850000Y8475000D01*
D43*
X13825000Y24550000D02*
X12225000Y22950000D01*
X22625000Y24550000D02*
X22821034Y24540370D01*
X22821034Y24540370D02*
X23015180Y24511571D01*
X23015180Y24511571D02*
X23205569Y24463881D01*
X23205569Y24463881D02*
X23390366Y24397760D01*
X23390366Y24397760D02*
X23567793Y24313843D01*
X23567793Y24313843D02*
X23736140Y24212940D01*
X23736140Y24212940D02*
X23893786Y24096021D01*
X23893786Y24096021D02*
X24039213Y23964214D01*
X24039213Y23964214D02*
X24171020Y23818787D01*
X24171020Y23818787D02*
X24287939Y23661141D01*
X24287939Y23661141D02*
X24388842Y23492794D01*
X24388842Y23492794D02*
X24472759Y23315367D01*
X24472759Y23315367D02*
X24538880Y23130570D01*
X24538880Y23130570D02*
X24586570Y22940181D01*
X24586570Y22940181D02*
X24615369Y22746035D01*
X24615369Y22746035D02*
X24625000Y22550000D01*
X24625000Y22550000D02*
X24625000Y16950000D01*
D39*
X20900000Y19800000D02*
X20900000Y24425000D01*
X20900000Y24425000D02*
X20775000Y24550000D01*
D43*
X22625000Y24550000D02*
X20775000Y24550000D01*
X20775000Y24550000D02*
X19725000Y24550000D01*
D46*
X15475000Y27825000D02*
X15475000Y24550000D01*
D41*
X13025000Y7400000D02*
X13025000Y7400000D01*
D40*
X20605000Y10875000D02*
X20430000Y11050000D01*
X22775000Y10875000D02*
X20605000Y10875000D01*
X23325000Y10875000D02*
X22775000Y10875000D01*
X23325000Y10875000D02*
X23384229Y10876455D01*
X23384229Y10876455D02*
X23443317Y10880813D01*
X23443317Y10880813D02*
X23502119Y10888066D01*
X23502119Y10888066D02*
X23560494Y10898195D01*
X23560494Y10898195D02*
X23618302Y10911176D01*
X23618302Y10911176D02*
X23675404Y10926979D01*
X23675404Y10926979D02*
X23731661Y10945564D01*
X23731661Y10945564D02*
X23786939Y10966887D01*
X23786939Y10966887D02*
X23841104Y10990896D01*
X23841104Y10990896D02*
X23894025Y11017535D01*
X23894025Y11017535D02*
X23945576Y11046738D01*
X23945576Y11046738D02*
X23995632Y11078435D01*
X23995632Y11078435D02*
X24044072Y11112551D01*
X24044072Y11112551D02*
X24090779Y11149002D01*
X24090779Y11149002D02*
X24135642Y11187701D01*
X24135642Y11187701D02*
X24178553Y11228554D01*
X24178553Y11228554D02*
X24580000Y11630000D01*
D39*
X16490000Y24500000D02*
X16540000Y24550000D01*
X16490000Y18685000D02*
X16490000Y24500000D01*
D43*
X19725000Y24550000D02*
X16540000Y24550000D01*
D46*
X16125000Y35700000D02*
X16275000Y35850000D01*
X16125000Y33725000D02*
X16125000Y35700000D01*
X16275000Y38150000D02*
X16275000Y35850000D01*
D39*
X48200000Y15750000D02*
X48200000Y15750000D01*
D38*
X48200000Y15750000D02*
X54800000Y15750000D01*
D41*
X15225000Y24625000D02*
X15150000Y24550000D01*
X15225000Y26000000D02*
X15225000Y24625000D01*
D43*
X15150000Y24550000D02*
X13825000Y24550000D01*
X16540000Y24550000D02*
X15150000Y24550000D01*
D41*
X13025000Y7400000D02*
X14920000Y7400000D01*
X17640000Y41160000D02*
X17650000Y41150000D01*
X17640000Y42745000D02*
X17640000Y41160000D01*
X17700000Y41200000D02*
X17650000Y41150000D01*
X19200000Y41200000D02*
X17700000Y41200000D01*
X21600000Y37500000D02*
X21525000Y37425000D01*
X22900000Y37500000D02*
X21600000Y37500000D01*
D40*
X21100000Y8475000D02*
X20375000Y7750000D01*
X22775000Y8475000D02*
X21100000Y8475000D01*
D41*
X12450000Y16850000D02*
X7550000Y16850000D01*
D46*
X20900000Y12675000D02*
X20904815Y12576983D01*
X20904815Y12576983D02*
X20919214Y12479910D01*
X20919214Y12479910D02*
X20943059Y12384716D01*
X20943059Y12384716D02*
X20976120Y12292317D01*
X20976120Y12292317D02*
X21018078Y12203604D01*
X21018078Y12203604D02*
X21068530Y12119430D01*
X21068530Y12119430D02*
X21126989Y12040607D01*
X21126989Y12040607D02*
X21192893Y11967894D01*
X21192893Y11967894D02*
X21265606Y11901990D01*
X21265606Y11901990D02*
X21344429Y11843531D01*
X21344429Y11843531D02*
X21428603Y11793079D01*
X21428603Y11793079D02*
X21517316Y11751121D01*
X21517316Y11751121D02*
X21609715Y11718060D01*
X21609715Y11718060D02*
X21704909Y11694215D01*
X21704909Y11694215D02*
X21801982Y11679816D01*
X21801982Y11679816D02*
X21900000Y11675000D01*
X21900000Y11675000D02*
X22775000Y11675000D01*
X20900000Y16825000D02*
X20900000Y18050000D01*
X20900000Y12675000D02*
X20900000Y16825000D01*
D41*
X13650000Y14850000D02*
X7550000Y14850000D01*
X13650000Y14850000D02*
X13748017Y14854816D01*
X13748017Y14854816D02*
X13845090Y14869215D01*
X13845090Y14869215D02*
X13940284Y14893060D01*
X13940284Y14893060D02*
X14032683Y14926121D01*
X14032683Y14926121D02*
X14121396Y14968079D01*
X14121396Y14968079D02*
X14205570Y15018531D01*
X14205570Y15018531D02*
X14284393Y15076990D01*
X14284393Y15076990D02*
X14357106Y15142894D01*
X14357106Y15142894D02*
X14423010Y15215607D01*
X14423010Y15215607D02*
X14481469Y15294430D01*
X14481469Y15294430D02*
X14531921Y15378604D01*
X14531921Y15378604D02*
X14573879Y15467317D01*
X14573879Y15467317D02*
X14606940Y15559716D01*
X14606940Y15559716D02*
X14630785Y15654910D01*
X14630785Y15654910D02*
X14645184Y15751983D01*
X14645184Y15751983D02*
X14650000Y15850000D01*
X14650000Y15850000D02*
X14650000Y16850000D01*
D40*
X18550000Y9275000D02*
X22775000Y9275000D01*
X18550000Y9275000D02*
X18353965Y9284631D01*
X18353965Y9284631D02*
X18159819Y9313430D01*
X18159819Y9313430D02*
X17969430Y9361120D01*
X17969430Y9361120D02*
X17784633Y9427241D01*
X17784633Y9427241D02*
X17607206Y9511158D01*
X17607206Y9511158D02*
X17438859Y9612061D01*
X17438859Y9612061D02*
X17281213Y9728980D01*
X17281213Y9728980D02*
X17135786Y9860787D01*
X17135786Y9860787D02*
X17003979Y10006214D01*
X17003979Y10006214D02*
X16887060Y10163860D01*
X16887060Y10163860D02*
X16786157Y10332207D01*
X16786157Y10332207D02*
X16702240Y10509634D01*
X16702240Y10509634D02*
X16636119Y10694431D01*
X16636119Y10694431D02*
X16588429Y10884820D01*
X16588429Y10884820D02*
X16559630Y11078966D01*
X16559630Y11078966D02*
X16550000Y11275000D01*
X16550000Y11275000D02*
X16550000Y16935000D01*
D41*
X16405000Y16850000D02*
X16490000Y16935000D01*
X14650000Y16850000D02*
X16405000Y16850000D01*
D39*
X40000000Y27125000D02*
X40025000Y27100000D01*
X38125000Y27125000D02*
X40000000Y27125000D01*
X40050000Y27125000D02*
X40025000Y27100000D01*
X41925000Y27125000D02*
X40050000Y27125000D01*
X36500000Y23815000D02*
X36500000Y28775000D01*
X36500000Y23815000D02*
X36502407Y23765992D01*
X36502407Y23765992D02*
X36509607Y23717455D01*
X36509607Y23717455D02*
X36521529Y23669858D01*
X36521529Y23669858D02*
X36538060Y23623659D01*
X36538060Y23623659D02*
X36559039Y23579302D01*
X36559039Y23579302D02*
X36584265Y23537215D01*
X36584265Y23537215D02*
X36613494Y23497804D01*
X36613494Y23497804D02*
X36646446Y23461447D01*
X36646446Y23461447D02*
X36682803Y23428495D01*
X36682803Y23428495D02*
X36722214Y23399266D01*
X36722214Y23399266D02*
X36764301Y23374040D01*
X36764301Y23374040D02*
X36808658Y23353061D01*
X36808658Y23353061D02*
X36854857Y23336530D01*
X36854857Y23336530D02*
X36902454Y23324608D01*
X36902454Y23324608D02*
X36950991Y23317408D01*
X36950991Y23317408D02*
X37000000Y23315000D01*
X37000000Y23315000D02*
X38125000Y23315000D01*
D41*
X39350000Y32225000D02*
X39275000Y32300000D01*
X40800000Y32225000D02*
X39350000Y32225000D01*
D44*
X42521446Y28428554D02*
X41925000Y29025000D01*
X42521446Y28428554D02*
X42564356Y28387701D01*
X42564356Y28387701D02*
X42609219Y28349002D01*
X42609219Y28349002D02*
X42655926Y28312551D01*
X42655926Y28312551D02*
X42704366Y28278435D01*
X42704366Y28278435D02*
X42754422Y28246738D01*
X42754422Y28246738D02*
X42805973Y28217535D01*
X42805973Y28217535D02*
X42858894Y28190896D01*
X42858894Y28190896D02*
X42913059Y28166886D01*
X42913059Y28166886D02*
X42968337Y28145563D01*
X42968337Y28145563D02*
X43024595Y28126979D01*
X43024595Y28126979D02*
X43081696Y28111176D01*
X43081696Y28111176D02*
X43139504Y28098195D01*
X43139504Y28098195D02*
X43197880Y28088066D01*
X43197880Y28088066D02*
X43256682Y28080813D01*
X43256682Y28080813D02*
X43315770Y28076455D01*
X43315770Y28076455D02*
X43375000Y28075000D01*
X43375000Y28075000D02*
X44625000Y28075000D01*
D45*
X7700000Y44537500D02*
X7700000Y46812500D01*
D41*
X28200000Y32450000D02*
X28200000Y34025000D01*
X27250000Y28975000D02*
X27325000Y28900000D01*
X27250000Y30450000D02*
X27250000Y28975000D01*
X24650000Y38250000D02*
X24650000Y35675000D01*
X39350000Y34125000D02*
X39275000Y34050000D01*
X40800000Y34125000D02*
X39350000Y34125000D01*
D39*
X38890000Y24585000D02*
X38900000Y24575000D01*
X38125000Y24585000D02*
X38890000Y24585000D01*
D41*
X42800000Y33175000D02*
X44375000Y33175000D01*
X44250000Y36600000D02*
X45800000Y36600000D01*
X23581001Y59525000D02*
X23600001Y59544000D01*
X21400000Y59525000D02*
X23581001Y59525000D01*
D38*
X24650000Y32300000D02*
X24650000Y33100000D01*
X24650000Y33100000D02*
X24650000Y33925000D01*
D41*
X40875000Y36600000D02*
X41650000Y36600000D01*
D39*
X32725000Y24585000D02*
X30850000Y24585000D01*
D41*
X3575000Y30125000D02*
X3575000Y30925000D01*
X3575000Y30125000D02*
X3578612Y30051488D01*
X3578612Y30051488D02*
X3589412Y29978683D01*
X3589412Y29978683D02*
X3607295Y29907287D01*
X3607295Y29907287D02*
X3632091Y29837988D01*
X3632091Y29837988D02*
X3663560Y29771453D01*
X3663560Y29771453D02*
X3701398Y29708323D01*
X3701398Y29708323D02*
X3745243Y29649206D01*
X3745243Y29649206D02*
X3794670Y29594670D01*
X3794670Y29594670D02*
X3849206Y29545243D01*
X3849206Y29545243D02*
X3908323Y29501398D01*
X3908323Y29501398D02*
X3971453Y29463560D01*
X3971453Y29463560D02*
X4037988Y29432091D01*
X4037988Y29432091D02*
X4107287Y29407295D01*
X4107287Y29407295D02*
X4178683Y29389412D01*
X4178683Y29389412D02*
X4251488Y29378612D01*
X4251488Y29378612D02*
X4325000Y29375000D01*
X4325000Y29375000D02*
X7525000Y29375000D01*
X51825000Y28437500D02*
X51825000Y29912500D01*
D40*
X22775000Y16825000D02*
X22775000Y13275000D01*
D46*
X22520184Y29798008D02*
X22525000Y29699990D01*
X22505785Y29895081D02*
X22520184Y29798008D01*
X22481940Y29990275D02*
X22505785Y29895081D01*
X22448879Y30082674D02*
X22481940Y29990275D01*
X22406921Y30171387D02*
X22448879Y30082674D01*
X14619429Y30868521D02*
X14703603Y30818069D01*
X14540606Y30926980D02*
X14619429Y30868521D01*
X21623017Y30695175D02*
X21720090Y30680776D01*
X14703603Y30818069D02*
X14792316Y30776111D01*
X21907683Y30623870D02*
X21996396Y30581912D01*
X14401989Y31065597D02*
X14467893Y30992884D01*
X22356469Y30255561D02*
X22406921Y30171387D01*
X14293078Y31228594D02*
X14343530Y31144420D01*
X22232106Y30407097D02*
X22298010Y30334384D01*
X14218059Y31409706D02*
X14251120Y31317307D01*
X14251120Y31317307D02*
X14293078Y31228594D01*
X14979909Y30719205D02*
X15076982Y30704806D01*
X14194214Y31504900D02*
X14218059Y31409706D01*
X14343530Y31144420D02*
X14401989Y31065597D01*
X14179815Y31601973D02*
X14194214Y31504900D01*
X22298010Y30334384D02*
X22356469Y30255561D01*
X14175000Y31699990D02*
X14179815Y31601973D01*
X14175000Y33725000D02*
X14175000Y31699990D01*
X21720090Y30680776D02*
X21815284Y30656931D01*
X14467893Y30992884D02*
X14540606Y30926980D01*
X14792316Y30776111D02*
X14884715Y30743050D01*
X14884715Y30743050D02*
X14979909Y30719205D01*
X15076982Y30704806D02*
X15175000Y30699990D01*
X15175000Y30699990D02*
X21525000Y30699990D01*
X22159393Y30473001D02*
X22232106Y30407097D01*
X21525000Y30699990D02*
X21623017Y30695175D01*
X21815284Y30656931D02*
X21907683Y30623870D01*
X21996396Y30581912D02*
X22080570Y30531460D01*
X22080570Y30531460D02*
X22159393Y30473001D01*
X23525000Y25650000D02*
X23426982Y25654816D01*
X23426982Y25654816D02*
X23329909Y25669215D01*
X23329909Y25669215D02*
X23234715Y25693060D01*
X23234715Y25693060D02*
X23142316Y25726121D01*
X23142316Y25726121D02*
X23053603Y25768079D01*
X23053603Y25768079D02*
X22969429Y25818531D01*
X22969429Y25818531D02*
X22890606Y25876990D01*
X22890606Y25876990D02*
X22817893Y25942894D01*
X22817893Y25942894D02*
X22751989Y26015607D01*
X22751989Y26015607D02*
X22693530Y26094430D01*
X22693530Y26094430D02*
X22643078Y26178604D01*
X22643078Y26178604D02*
X22601120Y26267317D01*
X22601120Y26267317D02*
X22568059Y26359716D01*
X22568059Y26359716D02*
X22544214Y26454910D01*
X22544214Y26454910D02*
X22529815Y26551983D01*
X22529815Y26551983D02*
X22525000Y26650000D01*
X22525000Y26650000D02*
X22525000Y29699990D01*
X27425000Y24650000D02*
X27425000Y14725000D01*
X27425000Y24650000D02*
X27420184Y24748018D01*
X27420184Y24748018D02*
X27405785Y24845091D01*
X27405785Y24845091D02*
X27381940Y24940285D01*
X27381940Y24940285D02*
X27348879Y25032684D01*
X27348879Y25032684D02*
X27306921Y25121397D01*
X27306921Y25121397D02*
X27256469Y25205571D01*
X27256469Y25205571D02*
X27198010Y25284394D01*
X27198010Y25284394D02*
X27132106Y25357107D01*
X27132106Y25357107D02*
X27059393Y25423011D01*
X27059393Y25423011D02*
X26980570Y25481470D01*
X26980570Y25481470D02*
X26896396Y25531922D01*
X26896396Y25531922D02*
X26807683Y25573880D01*
X26807683Y25573880D02*
X26715284Y25606941D01*
X26715284Y25606941D02*
X26620090Y25630786D01*
X26620090Y25630786D02*
X26523017Y25645185D01*
X26523017Y25645185D02*
X26425000Y25650000D01*
X26425000Y25650000D02*
X23525000Y25650000D01*
X13750000Y38150000D02*
X14525000Y38150000D01*
X13750000Y38150000D02*
X13700991Y38147593D01*
X13700991Y38147593D02*
X13652454Y38140393D01*
X13652454Y38140393D02*
X13604857Y38128471D01*
X13604857Y38128471D02*
X13558658Y38111940D01*
X13558658Y38111940D02*
X13514301Y38090961D01*
X13514301Y38090961D02*
X13472214Y38065735D01*
X13472214Y38065735D02*
X13432803Y38036506D01*
X13432803Y38036506D02*
X13396446Y38003554D01*
X13396446Y38003554D02*
X13363494Y37967197D01*
X13363494Y37967197D02*
X13334265Y37927786D01*
X13334265Y37927786D02*
X13309039Y37885699D01*
X13309039Y37885699D02*
X13288060Y37841342D01*
X13288060Y37841342D02*
X13271529Y37795143D01*
X13271529Y37795143D02*
X13259607Y37747546D01*
X13259607Y37747546D02*
X13252407Y37699009D01*
X13252407Y37699009D02*
X13250000Y37650000D01*
X13750000Y33725000D02*
X14175000Y33725000D01*
X13750000Y33725000D02*
X13700991Y33727408D01*
X13700991Y33727408D02*
X13652454Y33734608D01*
X13652454Y33734608D02*
X13604857Y33746530D01*
X13604857Y33746530D02*
X13558658Y33763061D01*
X13558658Y33763061D02*
X13514301Y33784040D01*
X13514301Y33784040D02*
X13472214Y33809266D01*
X13472214Y33809266D02*
X13432803Y33838495D01*
X13432803Y33838495D02*
X13396446Y33871447D01*
X13396446Y33871447D02*
X13363494Y33907804D01*
X13363494Y33907804D02*
X13334265Y33947215D01*
X13334265Y33947215D02*
X13309039Y33989302D01*
X13309039Y33989302D02*
X13288060Y34033659D01*
X13288060Y34033659D02*
X13271529Y34079858D01*
X13271529Y34079858D02*
X13259607Y34127455D01*
X13259607Y34127455D02*
X13252407Y34175992D01*
X13252407Y34175992D02*
X13250000Y34225000D01*
X13250000Y34225000D02*
X13250000Y37650000D01*
X23370184Y30448018D02*
X23375000Y30350000D01*
X23355785Y30545091D02*
X23370184Y30448018D01*
X23331940Y30640285D02*
X23355785Y30545091D01*
X23298879Y30732684D02*
X23331940Y30640285D01*
X23256921Y30821397D02*
X23298879Y30732684D01*
X14993530Y31794430D02*
X15051989Y31715607D01*
X22473017Y31345185D02*
X22570090Y31330786D01*
X14901120Y31967317D02*
X14943078Y31878604D01*
X23206469Y30905571D02*
X23256921Y30821397D01*
X15269429Y31518531D02*
X15353603Y31468079D01*
X15051989Y31715607D02*
X15117893Y31642894D01*
X14943078Y31878604D02*
X14993530Y31794430D01*
X14829815Y32251983D02*
X14844214Y32154910D01*
X14868059Y32059716D02*
X14901120Y31967317D01*
X15117893Y31642894D02*
X15190606Y31576990D01*
X15629909Y31369215D02*
X15726982Y31354816D01*
X14844214Y32154910D02*
X14868059Y32059716D01*
X15190606Y31576990D02*
X15269429Y31518531D01*
X14825000Y32350000D02*
X14829815Y32251983D01*
X15726982Y31354816D02*
X15825000Y31350000D01*
X14825000Y33725000D02*
X14825000Y32350000D01*
X15442316Y31426121D02*
X15534715Y31393060D01*
X22375000Y31350000D02*
X22473017Y31345185D01*
X15534715Y31393060D02*
X15629909Y31369215D01*
X23009393Y31123011D02*
X23082106Y31057107D01*
X15825000Y31350000D02*
X22375000Y31350000D01*
X22846396Y31231922D02*
X22930570Y31181470D01*
X22665284Y31306941D02*
X22757683Y31273880D01*
X22757683Y31273880D02*
X22846396Y31231922D01*
X15353603Y31468079D02*
X15442316Y31426121D01*
X23148010Y30984394D02*
X23206469Y30905571D01*
X22570090Y31330786D02*
X22665284Y31306941D01*
X22930570Y31181470D02*
X23009393Y31123011D01*
X23082106Y31057107D02*
X23148010Y30984394D01*
X24375000Y26450000D02*
X24276982Y26454816D01*
X24276982Y26454816D02*
X24179909Y26469215D01*
X24179909Y26469215D02*
X24084715Y26493060D01*
X24084715Y26493060D02*
X23992316Y26526121D01*
X23992316Y26526121D02*
X23903603Y26568079D01*
X23903603Y26568079D02*
X23819429Y26618531D01*
X23819429Y26618531D02*
X23740606Y26676990D01*
X23740606Y26676990D02*
X23667893Y26742894D01*
X23667893Y26742894D02*
X23601989Y26815607D01*
X23601989Y26815607D02*
X23543530Y26894430D01*
X23543530Y26894430D02*
X23493078Y26978604D01*
X23493078Y26978604D02*
X23451120Y27067317D01*
X23451120Y27067317D02*
X23418059Y27159716D01*
X23418059Y27159716D02*
X23394214Y27254910D01*
X23394214Y27254910D02*
X23379815Y27351983D01*
X23379815Y27351983D02*
X23375000Y27450000D01*
X23375000Y27450000D02*
X23375000Y30350000D01*
X28225000Y25450000D02*
X28225000Y14725000D01*
X28225000Y25450000D02*
X28220184Y25548018D01*
X28220184Y25548018D02*
X28205785Y25645091D01*
X28205785Y25645091D02*
X28181940Y25740285D01*
X28181940Y25740285D02*
X28148879Y25832684D01*
X28148879Y25832684D02*
X28106921Y25921397D01*
X28106921Y25921397D02*
X28056469Y26005571D01*
X28056469Y26005571D02*
X27998010Y26084394D01*
X27998010Y26084394D02*
X27932106Y26157107D01*
X27932106Y26157107D02*
X27859393Y26223011D01*
X27859393Y26223011D02*
X27780570Y26281470D01*
X27780570Y26281470D02*
X27696396Y26331922D01*
X27696396Y26331922D02*
X27607683Y26373880D01*
X27607683Y26373880D02*
X27515284Y26406941D01*
X27515284Y26406941D02*
X27420090Y26430786D01*
X27420090Y26430786D02*
X27323017Y26445185D01*
X27323017Y26445185D02*
X27225000Y26450000D01*
X27225000Y26450000D02*
X24375000Y26450000D01*
X14525000Y35825000D02*
X14675000Y35675000D01*
X14825000Y35550000D02*
X14525000Y35850000D01*
X14825000Y33725000D02*
X14825000Y35550000D01*
D42*
X27778553Y4396447D02*
X27925000Y4250000D01*
X27778553Y4396447D02*
X27737699Y4439358D01*
X27737699Y4439358D02*
X27699000Y4484220D01*
X27699000Y4484220D02*
X27662549Y4530928D01*
X27662549Y4530928D02*
X27628433Y4579368D01*
X27628433Y4579368D02*
X27596736Y4629424D01*
X27596736Y4629424D02*
X27567533Y4680975D01*
X27567533Y4680975D02*
X27540894Y4733896D01*
X27540894Y4733896D02*
X27516885Y4788061D01*
X27516885Y4788061D02*
X27495562Y4843339D01*
X27495562Y4843339D02*
X27476977Y4899596D01*
X27476977Y4899596D02*
X27461175Y4956698D01*
X27461175Y4956698D02*
X27448193Y5014506D01*
X27448193Y5014506D02*
X27438064Y5072881D01*
X27438064Y5072881D02*
X27430812Y5131683D01*
X27430812Y5131683D02*
X27426453Y5190771D01*
X27426453Y5190771D02*
X27425000Y5250000D01*
X27425000Y5250000D02*
X27425000Y6225000D01*
D46*
X26625000Y6225000D02*
X26625000Y6025000D01*
D42*
X26271446Y4540447D02*
X26009600Y4278600D01*
X26271446Y4540447D02*
X26312299Y4583358D01*
X26312299Y4583358D02*
X26350998Y4628221D01*
X26350998Y4628221D02*
X26387449Y4674928D01*
X26387449Y4674928D02*
X26421565Y4723368D01*
X26421565Y4723368D02*
X26453262Y4773424D01*
X26453262Y4773424D02*
X26482465Y4824975D01*
X26482465Y4824975D02*
X26509104Y4877896D01*
X26509104Y4877896D02*
X26533113Y4932061D01*
X26533113Y4932061D02*
X26554436Y4987339D01*
X26554436Y4987339D02*
X26573021Y5043596D01*
X26573021Y5043596D02*
X26588824Y5100698D01*
X26588824Y5100698D02*
X26601805Y5158506D01*
X26601805Y5158506D02*
X26611934Y5216881D01*
X26611934Y5216881D02*
X26619186Y5275683D01*
X26619186Y5275683D02*
X26623545Y5334771D01*
X26623545Y5334771D02*
X26625000Y5394000D01*
X26625000Y5394000D02*
X26625000Y6225000D01*
D41*
X33981001Y59525000D02*
X34000001Y59544000D01*
X31800000Y59525000D02*
X33981001Y59525000D01*
X44381001Y59525000D02*
X44400001Y59544000D01*
X42200000Y59525000D02*
X44381001Y59525000D01*
X43181001Y49425000D02*
X43250001Y49494000D01*
X41100000Y49425000D02*
X43181001Y49425000D01*
X32881001Y49425000D02*
X32950001Y49494000D01*
X30750000Y49425000D02*
X32881001Y49425000D01*
D40*
X24225000Y6225000D02*
X23300000Y6225000D01*
X7675000Y12775000D02*
X7625000Y12825000D01*
X13675000Y12775000D02*
X7675000Y12775000D01*
D47*
X9633871Y38258134D02*
X9709533Y38219582D01*
X9769582Y38159533D01*
X9808134Y38083871D01*
X9823000Y37990008D01*
X9823000Y36209992D01*
X9808134Y36116129D01*
X9769582Y36040467D01*
X9709533Y35980418D01*
X9633871Y35941866D01*
X9540008Y35927000D01*
X9275000Y35927000D01*
X9250224Y35924560D01*
X9154553Y35905530D01*
X9130728Y35898303D01*
X9108772Y35886567D01*
X9027666Y35832374D01*
X9008421Y35816580D01*
X8992626Y35797334D01*
X8938433Y35716228D01*
X8926697Y35694271D01*
X8919470Y35670447D01*
X8886338Y35503881D01*
X8860215Y35464785D01*
X8821119Y35438662D01*
X8762491Y35427000D01*
X8712509Y35427000D01*
X8625181Y35444371D01*
X8561752Y35486752D01*
X8519371Y35550181D01*
X8502000Y35637509D01*
X8502000Y36574989D01*
X8514614Y36638404D01*
X8543446Y36681554D01*
X8586596Y36710386D01*
X8762731Y36745422D01*
X8786555Y36752650D01*
X8808510Y36764385D01*
X8893672Y36821287D01*
X8912918Y36837080D01*
X8928713Y36856328D01*
X8985615Y36941490D01*
X8997351Y36963447D01*
X9004578Y36987269D01*
X9024560Y37087723D01*
X9027000Y37112500D01*
X9027000Y37990008D01*
X9041866Y38083871D01*
X9080418Y38159533D01*
X9140467Y38219582D01*
X9216129Y38258134D01*
X9309992Y38273000D01*
X9540008Y38273000D01*
X9633871Y38258134D01*
%TA.AperFunction,Conductor*%
G36*
X9633871Y38258134D02*
G01*
X9709533Y38219582D01*
X9769582Y38159533D01*
X9808134Y38083871D01*
X9823000Y37990008D01*
X9823000Y36209992D01*
X9808134Y36116129D01*
X9769582Y36040467D01*
X9709533Y35980418D01*
X9633871Y35941866D01*
X9540008Y35927000D01*
X9275000Y35927000D01*
X9250224Y35924560D01*
X9154553Y35905530D01*
X9130728Y35898303D01*
X9108772Y35886567D01*
X9027666Y35832374D01*
X9008421Y35816580D01*
X8992626Y35797334D01*
X8938433Y35716228D01*
X8926697Y35694271D01*
X8919470Y35670447D01*
X8886338Y35503881D01*
X8860215Y35464785D01*
X8821119Y35438662D01*
X8762491Y35427000D01*
X8712509Y35427000D01*
X8625181Y35444371D01*
X8561752Y35486752D01*
X8519371Y35550181D01*
X8502000Y35637509D01*
X8502000Y36574989D01*
X8514614Y36638404D01*
X8543446Y36681554D01*
X8586596Y36710386D01*
X8762731Y36745422D01*
X8786555Y36752650D01*
X8808510Y36764385D01*
X8893672Y36821287D01*
X8912918Y36837080D01*
X8928713Y36856328D01*
X8985615Y36941490D01*
X8997351Y36963447D01*
X9004578Y36987269D01*
X9024560Y37087723D01*
X9027000Y37112500D01*
X9027000Y37990008D01*
X9041866Y38083871D01*
X9080418Y38159533D01*
X9140467Y38219582D01*
X9216129Y38258134D01*
X9309992Y38273000D01*
X9540008Y38273000D01*
X9633871Y38258134D01*
G37*
%TD.AperFunction*%
X9025524Y34022367D02*
X9402732Y34022983D01*
X9492960Y34008872D01*
X9565426Y33972182D01*
X9623042Y33914931D01*
X9660191Y33842700D01*
X9674875Y33752563D01*
X9695689Y29337961D01*
X9681434Y29244555D01*
X9643666Y29169043D01*
X9584517Y29108784D01*
X9509721Y29069619D01*
X9416596Y29053630D01*
X9186424Y29050436D01*
X9091962Y29064124D01*
X9015519Y29101946D01*
X8954588Y29161623D01*
X8915188Y29237260D01*
X8899538Y29331426D01*
X8878294Y32404163D01*
X8873914Y32436363D01*
X8848331Y32531196D01*
X8839521Y32554482D01*
X8826339Y32575602D01*
X8816300Y32587130D01*
X8747457Y32657190D01*
X8728351Y32673152D01*
X8706498Y32685080D01*
X8692091Y32690197D01*
X8597720Y32717437D01*
X8535912Y32735354D01*
X8514244Y32757558D01*
X8502000Y32804011D01*
X8502000Y33812491D01*
X8519371Y33899819D01*
X8561752Y33963248D01*
X8625181Y34005629D01*
X8712509Y34023000D01*
X9018942Y34023000D01*
X9025524Y34022367D01*
%TA.AperFunction,Conductor*%
G36*
X9025524Y34022367D02*
G01*
X9402732Y34022983D01*
X9492960Y34008872D01*
X9565426Y33972182D01*
X9623042Y33914931D01*
X9660191Y33842700D01*
X9674875Y33752563D01*
X9695689Y29337961D01*
X9681434Y29244555D01*
X9643666Y29169043D01*
X9584517Y29108784D01*
X9509721Y29069619D01*
X9416596Y29053630D01*
X9186424Y29050436D01*
X9091962Y29064124D01*
X9015519Y29101946D01*
X8954588Y29161623D01*
X8915188Y29237260D01*
X8899538Y29331426D01*
X8878294Y32404163D01*
X8873914Y32436363D01*
X8848331Y32531196D01*
X8839521Y32554482D01*
X8826339Y32575602D01*
X8816300Y32587130D01*
X8747457Y32657190D01*
X8728351Y32673152D01*
X8706498Y32685080D01*
X8692091Y32690197D01*
X8597720Y32717437D01*
X8535912Y32735354D01*
X8514244Y32757558D01*
X8502000Y32804011D01*
X8502000Y33812491D01*
X8519371Y33899819D01*
X8561752Y33963248D01*
X8625181Y34005629D01*
X8712509Y34023000D01*
X9018942Y34023000D01*
X9025524Y34022367D01*
G37*
%TD.AperFunction*%
X11433871Y41458134D02*
X11509533Y41419582D01*
X11569582Y41359533D01*
X11608134Y41283871D01*
X11623000Y41190008D01*
X11623000Y34809992D01*
X11608134Y34716129D01*
X11569582Y34640467D01*
X11509533Y34580418D01*
X11433871Y34541866D01*
X11340008Y34527000D01*
X9094285Y34527000D01*
X9025000Y34533824D01*
X8375000Y34533824D01*
X8301095Y34526545D01*
X8230030Y34504988D01*
X8164537Y34469981D01*
X8107131Y34422869D01*
X8060019Y34365463D01*
X8025012Y34299970D01*
X8003455Y34228905D01*
X8002919Y34223459D01*
X7981419Y34181264D01*
X7972345Y34158080D01*
X7969141Y34143474D01*
X7949564Y34019867D01*
X7948000Y34000000D01*
X7948000Y32912509D01*
X7930629Y32825181D01*
X7888248Y32761752D01*
X7824819Y32719371D01*
X7750000Y32704488D01*
X7675181Y32719371D01*
X7611752Y32761752D01*
X7569371Y32825181D01*
X7552000Y32912509D01*
X7552000Y34615008D01*
X7566866Y34708871D01*
X7605418Y34784533D01*
X7665467Y34844582D01*
X7741129Y34883134D01*
X7834992Y34898000D01*
X9287500Y34898000D01*
X9312277Y34900440D01*
X9431866Y34924228D01*
X9455690Y34931455D01*
X9477646Y34943191D01*
X9579028Y35010932D01*
X9598273Y35026726D01*
X9614068Y35045972D01*
X9681809Y35147354D01*
X9693545Y35169310D01*
X9700772Y35193134D01*
X9743420Y35407537D01*
X9776415Y35456917D01*
X9844762Y35483668D01*
X9919998Y35522003D01*
X9925021Y35523002D01*
X9949776Y35525440D01*
X10074148Y35550179D01*
X10097973Y35557406D01*
X10119929Y35569142D01*
X10225367Y35639593D01*
X10244612Y35655387D01*
X10260407Y35674633D01*
X10330858Y35780071D01*
X10342594Y35802028D01*
X10349821Y35825852D01*
X10374560Y35950224D01*
X10377000Y35975000D01*
X10377000Y38650000D01*
X10375436Y38669867D01*
X10355859Y38793474D01*
X10349573Y38817563D01*
X10343581Y38831264D01*
X10286765Y38942771D01*
X10273342Y38963739D01*
X10263410Y38974917D01*
X10174917Y39063410D01*
X10155671Y39079204D01*
X10142771Y39086765D01*
X10031264Y39143581D01*
X10008080Y39152655D01*
X9993474Y39155859D01*
X9869867Y39175436D01*
X9850000Y39177000D01*
X9309992Y39177000D01*
X9216129Y39191866D01*
X9140467Y39230418D01*
X9080418Y39290467D01*
X9041866Y39366129D01*
X9027000Y39459992D01*
X9027000Y41190008D01*
X9041866Y41283871D01*
X9080418Y41359533D01*
X9140467Y41419582D01*
X9216129Y41458134D01*
X9309992Y41473000D01*
X11340008Y41473000D01*
X11433871Y41458134D01*
%TA.AperFunction,Conductor*%
G36*
X11433871Y41458134D02*
G01*
X11509533Y41419582D01*
X11569582Y41359533D01*
X11608134Y41283871D01*
X11623000Y41190008D01*
X11623000Y34809992D01*
X11608134Y34716129D01*
X11569582Y34640467D01*
X11509533Y34580418D01*
X11433871Y34541866D01*
X11340008Y34527000D01*
X9094285Y34527000D01*
X9025000Y34533824D01*
X8375000Y34533824D01*
X8301095Y34526545D01*
X8230030Y34504988D01*
X8164537Y34469981D01*
X8107131Y34422869D01*
X8060019Y34365463D01*
X8025012Y34299970D01*
X8003455Y34228905D01*
X8002919Y34223459D01*
X7981419Y34181264D01*
X7972345Y34158080D01*
X7969141Y34143474D01*
X7949564Y34019867D01*
X7948000Y34000000D01*
X7948000Y32912509D01*
X7930629Y32825181D01*
X7888248Y32761752D01*
X7824819Y32719371D01*
X7750000Y32704488D01*
X7675181Y32719371D01*
X7611752Y32761752D01*
X7569371Y32825181D01*
X7552000Y32912509D01*
X7552000Y34615008D01*
X7566866Y34708871D01*
X7605418Y34784533D01*
X7665467Y34844582D01*
X7741129Y34883134D01*
X7834992Y34898000D01*
X9287500Y34898000D01*
X9312277Y34900440D01*
X9431866Y34924228D01*
X9455690Y34931455D01*
X9477646Y34943191D01*
X9579028Y35010932D01*
X9598273Y35026726D01*
X9614068Y35045972D01*
X9681809Y35147354D01*
X9693545Y35169310D01*
X9700772Y35193134D01*
X9743420Y35407537D01*
X9776415Y35456917D01*
X9844762Y35483668D01*
X9919998Y35522003D01*
X9925021Y35523002D01*
X9949776Y35525440D01*
X10074148Y35550179D01*
X10097973Y35557406D01*
X10119929Y35569142D01*
X10225367Y35639593D01*
X10244612Y35655387D01*
X10260407Y35674633D01*
X10330858Y35780071D01*
X10342594Y35802028D01*
X10349821Y35825852D01*
X10374560Y35950224D01*
X10377000Y35975000D01*
X10377000Y38650000D01*
X10375436Y38669867D01*
X10355859Y38793474D01*
X10349573Y38817563D01*
X10343581Y38831264D01*
X10286765Y38942771D01*
X10273342Y38963739D01*
X10263410Y38974917D01*
X10174917Y39063410D01*
X10155671Y39079204D01*
X10142771Y39086765D01*
X10031264Y39143581D01*
X10008080Y39152655D01*
X9993474Y39155859D01*
X9869867Y39175436D01*
X9850000Y39177000D01*
X9309992Y39177000D01*
X9216129Y39191866D01*
X9140467Y39230418D01*
X9080418Y39290467D01*
X9041866Y39366129D01*
X9027000Y39459992D01*
X9027000Y41190008D01*
X9041866Y41283871D01*
X9080418Y41359533D01*
X9140467Y41419582D01*
X9216129Y41458134D01*
X9309992Y41473000D01*
X11340008Y41473000D01*
X11433871Y41458134D01*
G37*
%TD.AperFunction*%
X14996257Y65559231D02*
X15085955Y65522077D01*
X15162976Y65462976D01*
X15222077Y65385955D01*
X15248001Y65323369D01*
X15248000Y52832709D01*
X15249719Y52815255D01*
X15249719Y52810066D01*
X15250233Y52805178D01*
X15258935Y52727597D01*
X15265561Y52696423D01*
X15271764Y52665096D01*
X15273000Y52661104D01*
X15273000Y51508328D01*
X15259231Y51403743D01*
X15222077Y51314045D01*
X15162976Y51237024D01*
X15085955Y51177923D01*
X14996257Y51140769D01*
X14891672Y51127000D01*
X14108328Y51127000D01*
X14003743Y51140769D01*
X13914045Y51177923D01*
X13837024Y51237024D01*
X13777923Y51314045D01*
X13740769Y51403743D01*
X13727000Y51508328D01*
X13727000Y53200000D01*
X13725914Y53216577D01*
X13708877Y53345987D01*
X13700296Y53378011D01*
X13650346Y53498601D01*
X13633768Y53527313D01*
X13554308Y53630866D01*
X13530866Y53654308D01*
X13427313Y53733768D01*
X13398601Y53750346D01*
X13278011Y53800296D01*
X13245987Y53808877D01*
X13116577Y53825914D01*
X13100000Y53827000D01*
X858328Y53827000D01*
X753743Y53840769D01*
X664045Y53877923D01*
X587024Y53937024D01*
X527923Y54014045D01*
X490769Y54103743D01*
X477000Y54208328D01*
X477000Y65191672D01*
X490769Y65296257D01*
X527923Y65385955D01*
X587024Y65462976D01*
X664045Y65522077D01*
X753743Y65559231D01*
X858328Y65573000D01*
X14891672Y65573000D01*
X14996257Y65559231D01*
%TA.AperFunction,Conductor*%
G36*
X14996257Y65559231D02*
G01*
X15085955Y65522077D01*
X15162976Y65462976D01*
X15222077Y65385955D01*
X15248001Y65323369D01*
X15248000Y52832709D01*
X15249719Y52815255D01*
X15249719Y52810066D01*
X15250233Y52805178D01*
X15258935Y52727597D01*
X15265561Y52696423D01*
X15271764Y52665096D01*
X15273000Y52661104D01*
X15273000Y51508328D01*
X15259231Y51403743D01*
X15222077Y51314045D01*
X15162976Y51237024D01*
X15085955Y51177923D01*
X14996257Y51140769D01*
X14891672Y51127000D01*
X14108328Y51127000D01*
X14003743Y51140769D01*
X13914045Y51177923D01*
X13837024Y51237024D01*
X13777923Y51314045D01*
X13740769Y51403743D01*
X13727000Y51508328D01*
X13727000Y53200000D01*
X13725914Y53216577D01*
X13708877Y53345987D01*
X13700296Y53378011D01*
X13650346Y53498601D01*
X13633768Y53527313D01*
X13554308Y53630866D01*
X13530866Y53654308D01*
X13427313Y53733768D01*
X13398601Y53750346D01*
X13278011Y53800296D01*
X13245987Y53808877D01*
X13116577Y53825914D01*
X13100000Y53827000D01*
X858328Y53827000D01*
X753743Y53840769D01*
X664045Y53877923D01*
X587024Y53937024D01*
X527923Y54014045D01*
X490769Y54103743D01*
X477000Y54208328D01*
X477000Y65191672D01*
X490769Y65296257D01*
X527923Y65385955D01*
X587024Y65462976D01*
X664045Y65522077D01*
X753743Y65559231D01*
X858328Y65573000D01*
X14891672Y65573000D01*
X14996257Y65559231D01*
G37*
%TD.AperFunction*%
X6808871Y36708134D02*
X6884533Y36669582D01*
X6944582Y36609533D01*
X6983134Y36533871D01*
X6998000Y36440008D01*
X6998000Y35709992D01*
X6983134Y35616129D01*
X6944582Y35540467D01*
X6884533Y35480418D01*
X6808871Y35441866D01*
X6715008Y35427000D01*
X5762500Y35427000D01*
X5729629Y35422672D01*
X5660879Y35404250D01*
X5637579Y35395480D01*
X5616437Y35382333D01*
X5603947Y35371381D01*
X5553619Y35321053D01*
X5537825Y35301807D01*
X5526089Y35279851D01*
X5520750Y35264121D01*
X5492714Y35159492D01*
X5490508Y35157286D01*
X5470781Y35152000D01*
X5012509Y35152000D01*
X4925181Y35169371D01*
X4861752Y35211752D01*
X4819371Y35275181D01*
X4774821Y35499148D01*
X4767594Y35522973D01*
X4755858Y35544929D01*
X4685407Y35650367D01*
X4669613Y35669612D01*
X4650367Y35685407D01*
X4544929Y35755858D01*
X4522972Y35767594D01*
X4499148Y35774821D01*
X4374776Y35799560D01*
X4350000Y35802000D01*
X1009992Y35802000D01*
X916129Y35816866D01*
X840467Y35855418D01*
X780418Y35915467D01*
X741866Y35991129D01*
X727000Y36084992D01*
X727000Y36440008D01*
X741866Y36533871D01*
X780418Y36609533D01*
X840467Y36669582D01*
X916129Y36708134D01*
X1009992Y36723000D01*
X6715008Y36723000D01*
X6808871Y36708134D01*
%TA.AperFunction,Conductor*%
G36*
X6808871Y36708134D02*
G01*
X6884533Y36669582D01*
X6944582Y36609533D01*
X6983134Y36533871D01*
X6998000Y36440008D01*
X6998000Y35709992D01*
X6983134Y35616129D01*
X6944582Y35540467D01*
X6884533Y35480418D01*
X6808871Y35441866D01*
X6715008Y35427000D01*
X5762500Y35427000D01*
X5729629Y35422672D01*
X5660879Y35404250D01*
X5637579Y35395480D01*
X5616437Y35382333D01*
X5603947Y35371381D01*
X5553619Y35321053D01*
X5537825Y35301807D01*
X5526089Y35279851D01*
X5520750Y35264121D01*
X5492714Y35159492D01*
X5490508Y35157286D01*
X5470781Y35152000D01*
X5012509Y35152000D01*
X4925181Y35169371D01*
X4861752Y35211752D01*
X4819371Y35275181D01*
X4774821Y35499148D01*
X4767594Y35522973D01*
X4755858Y35544929D01*
X4685407Y35650367D01*
X4669613Y35669612D01*
X4650367Y35685407D01*
X4544929Y35755858D01*
X4522972Y35767594D01*
X4499148Y35774821D01*
X4374776Y35799560D01*
X4350000Y35802000D01*
X1009992Y35802000D01*
X916129Y35816866D01*
X840467Y35855418D01*
X780418Y35915467D01*
X741866Y35991129D01*
X727000Y36084992D01*
X727000Y36440008D01*
X741866Y36533871D01*
X780418Y36609533D01*
X840467Y36669582D01*
X916129Y36708134D01*
X1009992Y36723000D01*
X6715008Y36723000D01*
X6808871Y36708134D01*
G37*
%TD.AperFunction*%
X5533295Y34127028D02*
X5545031Y34105071D01*
X5560825Y34085826D01*
X5580070Y34070032D01*
X5602028Y34058295D01*
X5663900Y34032667D01*
X5687724Y34025440D01*
X5712500Y34023000D01*
X6715008Y34023000D01*
X6808871Y34008134D01*
X6884533Y33969582D01*
X6944582Y33909533D01*
X6983134Y33833871D01*
X6998000Y33740008D01*
X6998000Y32962438D01*
X6980513Y32872259D01*
X6937339Y32805585D01*
X6872370Y32759879D01*
X6795644Y32741915D01*
X6722716Y32753887D01*
X6660835Y32793117D01*
X6619253Y32853448D01*
X6601929Y32938405D01*
X6600436Y32957367D01*
X6583918Y33061660D01*
X6577632Y33085749D01*
X6571640Y33099450D01*
X6523701Y33193535D01*
X6510278Y33214503D01*
X6500346Y33225681D01*
X6425681Y33300346D01*
X6406435Y33316140D01*
X6393535Y33323701D01*
X6299450Y33371640D01*
X6276266Y33380714D01*
X6261660Y33383918D01*
X6157367Y33400436D01*
X6137500Y33402000D01*
X5109992Y33402000D01*
X5016129Y33416866D01*
X4940467Y33455418D01*
X4880418Y33515467D01*
X4841866Y33591129D01*
X4827000Y33684992D01*
X4827000Y33915008D01*
X4841866Y34008871D01*
X4880418Y34084533D01*
X4940467Y34144582D01*
X5016129Y34183134D01*
X5109992Y34198000D01*
X5503898Y34198000D01*
X5533295Y34127028D01*
%TA.AperFunction,Conductor*%
G36*
X5533295Y34127028D02*
G01*
X5545031Y34105071D01*
X5560825Y34085826D01*
X5580070Y34070032D01*
X5602028Y34058295D01*
X5663900Y34032667D01*
X5687724Y34025440D01*
X5712500Y34023000D01*
X6715008Y34023000D01*
X6808871Y34008134D01*
X6884533Y33969582D01*
X6944582Y33909533D01*
X6983134Y33833871D01*
X6998000Y33740008D01*
X6998000Y32962438D01*
X6980513Y32872259D01*
X6937339Y32805585D01*
X6872370Y32759879D01*
X6795644Y32741915D01*
X6722716Y32753887D01*
X6660835Y32793117D01*
X6619253Y32853448D01*
X6601929Y32938405D01*
X6600436Y32957367D01*
X6583918Y33061660D01*
X6577632Y33085749D01*
X6571640Y33099450D01*
X6523701Y33193535D01*
X6510278Y33214503D01*
X6500346Y33225681D01*
X6425681Y33300346D01*
X6406435Y33316140D01*
X6393535Y33323701D01*
X6299450Y33371640D01*
X6276266Y33380714D01*
X6261660Y33383918D01*
X6157367Y33400436D01*
X6137500Y33402000D01*
X5109992Y33402000D01*
X5016129Y33416866D01*
X4940467Y33455418D01*
X4880418Y33515467D01*
X4841866Y33591129D01*
X4827000Y33684992D01*
X4827000Y33915008D01*
X4841866Y34008871D01*
X4880418Y34084533D01*
X4940467Y34144582D01*
X5016129Y34183134D01*
X5109992Y34198000D01*
X5503898Y34198000D01*
X5533295Y34127028D01*
G37*
%TD.AperFunction*%
X3783871Y33533134D02*
X3859533Y33494582D01*
X3919582Y33434533D01*
X3958134Y33358871D01*
X3973000Y33265008D01*
X3973000Y30585746D01*
X3944705Y30574026D01*
X3922748Y30562290D01*
X3903503Y30546496D01*
X3887709Y30527251D01*
X3875974Y30505295D01*
X3857668Y30461101D01*
X3850440Y30437277D01*
X3848000Y30412500D01*
X3848000Y30250011D01*
X3837289Y30196165D01*
X3813876Y30161124D01*
X3778835Y30137711D01*
X3724989Y30127000D01*
X3425011Y30127000D01*
X3371165Y30137711D01*
X3336124Y30161124D01*
X3312711Y30196165D01*
X3281481Y30353164D01*
X3274253Y30376988D01*
X3262518Y30398944D01*
X3211035Y30475995D01*
X3195241Y30495240D01*
X3175995Y30511035D01*
X3098944Y30562518D01*
X3076987Y30574254D01*
X3053164Y30581481D01*
X2962277Y30599560D01*
X2937500Y30602000D01*
X1009992Y30602000D01*
X916129Y30616866D01*
X840467Y30655418D01*
X780418Y30715467D01*
X741866Y30791129D01*
X727000Y30884992D01*
X727000Y33265008D01*
X741866Y33358871D01*
X780418Y33434533D01*
X840467Y33494582D01*
X916129Y33533134D01*
X1009992Y33548000D01*
X3690008Y33548000D01*
X3783871Y33533134D01*
%TA.AperFunction,Conductor*%
G36*
X3783871Y33533134D02*
G01*
X3859533Y33494582D01*
X3919582Y33434533D01*
X3958134Y33358871D01*
X3973000Y33265008D01*
X3973000Y30585746D01*
X3944705Y30574026D01*
X3922748Y30562290D01*
X3903503Y30546496D01*
X3887709Y30527251D01*
X3875974Y30505295D01*
X3857668Y30461101D01*
X3850440Y30437277D01*
X3848000Y30412500D01*
X3848000Y30250011D01*
X3837289Y30196165D01*
X3813876Y30161124D01*
X3778835Y30137711D01*
X3724989Y30127000D01*
X3425011Y30127000D01*
X3371165Y30137711D01*
X3336124Y30161124D01*
X3312711Y30196165D01*
X3281481Y30353164D01*
X3274253Y30376988D01*
X3262518Y30398944D01*
X3211035Y30475995D01*
X3195241Y30495240D01*
X3175995Y30511035D01*
X3098944Y30562518D01*
X3076987Y30574254D01*
X3053164Y30581481D01*
X2962277Y30599560D01*
X2937500Y30602000D01*
X1009992Y30602000D01*
X916129Y30616866D01*
X840467Y30655418D01*
X780418Y30715467D01*
X741866Y30791129D01*
X727000Y30884992D01*
X727000Y33265008D01*
X741866Y33358871D01*
X780418Y33434533D01*
X840467Y33494582D01*
X916129Y33533134D01*
X1009992Y33548000D01*
X3690008Y33548000D01*
X3783871Y33533134D01*
G37*
%TD.AperFunction*%
X1195179Y29130475D02*
X1287700Y29114236D01*
X1361987Y29075164D01*
X1420786Y29015266D01*
X1458478Y28940266D01*
X1473000Y28847462D01*
X1473000Y27150000D01*
X1474564Y27130133D01*
X1494141Y27006526D01*
X1500427Y26982437D01*
X1506419Y26968736D01*
X1563235Y26857229D01*
X1576658Y26836261D01*
X1586590Y26825083D01*
X1675083Y26736590D01*
X1694329Y26720796D01*
X1707229Y26713235D01*
X1818736Y26656419D01*
X1841920Y26647345D01*
X1856526Y26644141D01*
X1980133Y26624564D01*
X2000000Y26623000D01*
X3240008Y26623000D01*
X3333871Y26608134D01*
X3409533Y26569582D01*
X3469582Y26509533D01*
X3508134Y26433871D01*
X3523000Y26340008D01*
X3523000Y25450000D01*
X3524564Y25430133D01*
X3544141Y25306526D01*
X3550427Y25282437D01*
X3556419Y25268736D01*
X3613235Y25157229D01*
X3626658Y25136261D01*
X3636590Y25125083D01*
X3725083Y25036590D01*
X3744329Y25020796D01*
X3757229Y25013235D01*
X3868736Y24956419D01*
X3891920Y24947345D01*
X3906526Y24944141D01*
X4030133Y24924564D01*
X4050000Y24923000D01*
X4190008Y24923000D01*
X4283871Y24908134D01*
X4359533Y24869582D01*
X4419582Y24809533D01*
X4458134Y24733871D01*
X4473000Y24640008D01*
X4473000Y23709992D01*
X4458134Y23616129D01*
X4419582Y23540467D01*
X4359533Y23480418D01*
X4283871Y23441866D01*
X4190008Y23427000D01*
X648344Y23427000D01*
X554361Y23441906D01*
X478621Y23480557D01*
X418560Y23540743D01*
X380070Y23616559D01*
X365360Y23710580D01*
X376128Y28858014D01*
X391502Y28952786D01*
X430986Y29028952D01*
X492266Y29088982D01*
X569227Y29126888D01*
X664304Y29140306D01*
X1195179Y29130475D01*
%TA.AperFunction,Conductor*%
G36*
X1195179Y29130475D02*
G01*
X1287700Y29114236D01*
X1361987Y29075164D01*
X1420786Y29015266D01*
X1458478Y28940266D01*
X1473000Y28847462D01*
X1473000Y27150000D01*
X1474564Y27130133D01*
X1494141Y27006526D01*
X1500427Y26982437D01*
X1506419Y26968736D01*
X1563235Y26857229D01*
X1576658Y26836261D01*
X1586590Y26825083D01*
X1675083Y26736590D01*
X1694329Y26720796D01*
X1707229Y26713235D01*
X1818736Y26656419D01*
X1841920Y26647345D01*
X1856526Y26644141D01*
X1980133Y26624564D01*
X2000000Y26623000D01*
X3240008Y26623000D01*
X3333871Y26608134D01*
X3409533Y26569582D01*
X3469582Y26509533D01*
X3508134Y26433871D01*
X3523000Y26340008D01*
X3523000Y25450000D01*
X3524564Y25430133D01*
X3544141Y25306526D01*
X3550427Y25282437D01*
X3556419Y25268736D01*
X3613235Y25157229D01*
X3626658Y25136261D01*
X3636590Y25125083D01*
X3725083Y25036590D01*
X3744329Y25020796D01*
X3757229Y25013235D01*
X3868736Y24956419D01*
X3891920Y24947345D01*
X3906526Y24944141D01*
X4030133Y24924564D01*
X4050000Y24923000D01*
X4190008Y24923000D01*
X4283871Y24908134D01*
X4359533Y24869582D01*
X4419582Y24809533D01*
X4458134Y24733871D01*
X4473000Y24640008D01*
X4473000Y23709992D01*
X4458134Y23616129D01*
X4419582Y23540467D01*
X4359533Y23480418D01*
X4283871Y23441866D01*
X4190008Y23427000D01*
X648344Y23427000D01*
X554361Y23441906D01*
X478621Y23480557D01*
X418560Y23540743D01*
X380070Y23616559D01*
X365360Y23710580D01*
X376128Y28858014D01*
X391502Y28952786D01*
X430986Y29028952D01*
X492266Y29088982D01*
X569227Y29126888D01*
X664304Y29140306D01*
X1195179Y29130475D01*
G37*
%TD.AperFunction*%
X45118420Y27310581D02*
X45180145Y27279130D01*
X45229130Y27230145D01*
X45260581Y27168420D01*
X45291694Y26971977D01*
X45297980Y26947887D01*
X45303972Y26934187D01*
X45353686Y26836618D01*
X45367109Y26815650D01*
X45377041Y26804472D01*
X45454472Y26727041D01*
X45473718Y26711247D01*
X45486618Y26703686D01*
X45584187Y26653972D01*
X45607371Y26644898D01*
X45621977Y26641694D01*
X45730133Y26624564D01*
X45750000Y26623000D01*
X52015008Y26623000D01*
X52108871Y26608134D01*
X52184533Y26569582D01*
X52244582Y26509533D01*
X52283134Y26433871D01*
X52298000Y26340008D01*
X52298000Y26234992D01*
X52283134Y26141129D01*
X52244582Y26065467D01*
X52184533Y26005418D01*
X52108871Y25966866D01*
X52015008Y25952000D01*
X44259992Y25952000D01*
X44166129Y25966866D01*
X44090467Y26005418D01*
X44030418Y26065467D01*
X43991866Y26141129D01*
X43977000Y26234992D01*
X43977000Y27040008D01*
X43991866Y27133871D01*
X44030418Y27209533D01*
X44090467Y27269582D01*
X44166129Y27308134D01*
X44246947Y27320934D01*
X45053052Y27320934D01*
X45118420Y27310581D01*
%TA.AperFunction,Conductor*%
G36*
X45118420Y27310581D02*
G01*
X45180145Y27279130D01*
X45229130Y27230145D01*
X45260581Y27168420D01*
X45291694Y26971977D01*
X45297980Y26947887D01*
X45303972Y26934187D01*
X45353686Y26836618D01*
X45367109Y26815650D01*
X45377041Y26804472D01*
X45454472Y26727041D01*
X45473718Y26711247D01*
X45486618Y26703686D01*
X45584187Y26653972D01*
X45607371Y26644898D01*
X45621977Y26641694D01*
X45730133Y26624564D01*
X45750000Y26623000D01*
X52015008Y26623000D01*
X52108871Y26608134D01*
X52184533Y26569582D01*
X52244582Y26509533D01*
X52283134Y26433871D01*
X52298000Y26340008D01*
X52298000Y26234992D01*
X52283134Y26141129D01*
X52244582Y26065467D01*
X52184533Y26005418D01*
X52108871Y25966866D01*
X52015008Y25952000D01*
X44259992Y25952000D01*
X44166129Y25966866D01*
X44090467Y26005418D01*
X44030418Y26065467D01*
X43991866Y26141129D01*
X43977000Y26234992D01*
X43977000Y27040008D01*
X43991866Y27133871D01*
X44030418Y27209533D01*
X44090467Y27269582D01*
X44166129Y27308134D01*
X44246947Y27320934D01*
X45053052Y27320934D01*
X45118420Y27310581D01*
G37*
%TD.AperFunction*%
X38458871Y29108134D02*
X38534533Y29069582D01*
X38594582Y29009533D01*
X38633134Y28933871D01*
X38648000Y28840008D01*
X38648000Y27500000D01*
X38650440Y27475224D01*
X38657667Y27451399D01*
X38679634Y27398366D01*
X38691370Y27376410D01*
X38707164Y27357164D01*
X38726410Y27341370D01*
X38748366Y27329634D01*
X38798000Y27309075D01*
X38798000Y27137509D01*
X38782533Y27059749D01*
X38745570Y27004430D01*
X38690251Y26967467D01*
X38612491Y26952000D01*
X37662509Y26952000D01*
X37584749Y26967467D01*
X37529430Y27004430D01*
X37492467Y27059749D01*
X37477000Y27137509D01*
X37477000Y27220779D01*
X37488985Y27265509D01*
X37509491Y27286015D01*
X37664120Y27327447D01*
X37687420Y27336217D01*
X37708562Y27349364D01*
X37721053Y27360317D01*
X37789683Y27428947D01*
X37805477Y27448193D01*
X37817213Y27470149D01*
X37822553Y27485880D01*
X37847673Y27579630D01*
X37852000Y27612500D01*
X37852000Y28840008D01*
X37866866Y28933871D01*
X37905418Y29009533D01*
X37965467Y29069582D01*
X38041129Y29108134D01*
X38134992Y29123000D01*
X38365008Y29123000D01*
X38458871Y29108134D01*
%TA.AperFunction,Conductor*%
G36*
X38458871Y29108134D02*
G01*
X38534533Y29069582D01*
X38594582Y29009533D01*
X38633134Y28933871D01*
X38648000Y28840008D01*
X38648000Y27500000D01*
X38650440Y27475224D01*
X38657667Y27451399D01*
X38679634Y27398366D01*
X38691370Y27376410D01*
X38707164Y27357164D01*
X38726410Y27341370D01*
X38748366Y27329634D01*
X38798000Y27309075D01*
X38798000Y27137509D01*
X38782533Y27059749D01*
X38745570Y27004430D01*
X38690251Y26967467D01*
X38612491Y26952000D01*
X37662509Y26952000D01*
X37584749Y26967467D01*
X37529430Y27004430D01*
X37492467Y27059749D01*
X37477000Y27137509D01*
X37477000Y27220779D01*
X37488985Y27265509D01*
X37509491Y27286015D01*
X37664120Y27327447D01*
X37687420Y27336217D01*
X37708562Y27349364D01*
X37721053Y27360317D01*
X37789683Y27428947D01*
X37805477Y27448193D01*
X37817213Y27470149D01*
X37822553Y27485880D01*
X37847673Y27579630D01*
X37852000Y27612500D01*
X37852000Y28840008D01*
X37866866Y28933871D01*
X37905418Y29009533D01*
X37965467Y29069582D01*
X38041129Y29108134D01*
X38134992Y29123000D01*
X38365008Y29123000D01*
X38458871Y29108134D01*
G37*
%TD.AperFunction*%
X47933871Y35908134D02*
X48009533Y35869582D01*
X48069582Y35809533D01*
X48108134Y35733871D01*
X48123000Y35640008D01*
X48123000Y33109992D01*
X48108134Y33016129D01*
X48069582Y32940467D01*
X48009533Y32880418D01*
X47933871Y32841866D01*
X47840008Y32827000D01*
X46009992Y32827000D01*
X45916129Y32841866D01*
X45840467Y32880418D01*
X45780418Y32940467D01*
X45741866Y33016129D01*
X45727000Y33109992D01*
X45727000Y33240008D01*
X45741866Y33333871D01*
X45780418Y33409533D01*
X45840467Y33469582D01*
X45916129Y33508134D01*
X46009992Y33523000D01*
X46950000Y33523000D01*
X46969867Y33524564D01*
X47093474Y33544141D01*
X47117563Y33550427D01*
X47131264Y33556419D01*
X47242771Y33613235D01*
X47263739Y33626658D01*
X47274917Y33636590D01*
X47363410Y33725083D01*
X47379204Y33744329D01*
X47386765Y33757229D01*
X47443581Y33868736D01*
X47452655Y33891920D01*
X47455859Y33906526D01*
X47475436Y34030133D01*
X47477000Y34050000D01*
X47477000Y35640008D01*
X47491866Y35733871D01*
X47530418Y35809533D01*
X47590467Y35869582D01*
X47666129Y35908134D01*
X47759992Y35923000D01*
X47840008Y35923000D01*
X47933871Y35908134D01*
%TA.AperFunction,Conductor*%
G36*
X47933871Y35908134D02*
G01*
X48009533Y35869582D01*
X48069582Y35809533D01*
X48108134Y35733871D01*
X48123000Y35640008D01*
X48123000Y33109992D01*
X48108134Y33016129D01*
X48069582Y32940467D01*
X48009533Y32880418D01*
X47933871Y32841866D01*
X47840008Y32827000D01*
X46009992Y32827000D01*
X45916129Y32841866D01*
X45840467Y32880418D01*
X45780418Y32940467D01*
X45741866Y33016129D01*
X45727000Y33109992D01*
X45727000Y33240008D01*
X45741866Y33333871D01*
X45780418Y33409533D01*
X45840467Y33469582D01*
X45916129Y33508134D01*
X46009992Y33523000D01*
X46950000Y33523000D01*
X46969867Y33524564D01*
X47093474Y33544141D01*
X47117563Y33550427D01*
X47131264Y33556419D01*
X47242771Y33613235D01*
X47263739Y33626658D01*
X47274917Y33636590D01*
X47363410Y33725083D01*
X47379204Y33744329D01*
X47386765Y33757229D01*
X47443581Y33868736D01*
X47452655Y33891920D01*
X47455859Y33906526D01*
X47475436Y34030133D01*
X47477000Y34050000D01*
X47477000Y35640008D01*
X47491866Y35733871D01*
X47530418Y35809533D01*
X47590467Y35869582D01*
X47666129Y35908134D01*
X47759992Y35923000D01*
X47840008Y35923000D01*
X47933871Y35908134D01*
G37*
%TD.AperFunction*%
X42708871Y38808134D02*
X42784533Y38769582D01*
X42844582Y38709533D01*
X42883134Y38633871D01*
X42898000Y38540008D01*
X42898000Y36534992D01*
X42883134Y36441129D01*
X42844582Y36365467D01*
X42784533Y36305418D01*
X42708871Y36266866D01*
X42615008Y36252000D01*
X40759992Y36252000D01*
X40666129Y36266866D01*
X40590467Y36305418D01*
X40530418Y36365467D01*
X40491866Y36441129D01*
X40477000Y36534992D01*
X40477000Y38540008D01*
X40491866Y38633871D01*
X40530418Y38709533D01*
X40590467Y38769582D01*
X40666129Y38808134D01*
X40759992Y38823000D01*
X42615008Y38823000D01*
X42708871Y38808134D01*
%TA.AperFunction,Conductor*%
G36*
X42708871Y38808134D02*
G01*
X42784533Y38769582D01*
X42844582Y38709533D01*
X42883134Y38633871D01*
X42898000Y38540008D01*
X42898000Y36534992D01*
X42883134Y36441129D01*
X42844582Y36365467D01*
X42784533Y36305418D01*
X42708871Y36266866D01*
X42615008Y36252000D01*
X40759992Y36252000D01*
X40666129Y36266866D01*
X40590467Y36305418D01*
X40530418Y36365467D01*
X40491866Y36441129D01*
X40477000Y36534992D01*
X40477000Y38540008D01*
X40491866Y38633871D01*
X40530418Y38709533D01*
X40590467Y38769582D01*
X40666129Y38808134D01*
X40759992Y38823000D01*
X42615008Y38823000D01*
X42708871Y38808134D01*
G37*
%TD.AperFunction*%
X51983871Y37808134D02*
X52059533Y37769582D01*
X52119582Y37709533D01*
X52158134Y37633871D01*
X52173000Y37540008D01*
X52173000Y31459992D01*
X52158134Y31366129D01*
X52119582Y31290467D01*
X52059533Y31230418D01*
X51983871Y31191866D01*
X51890008Y31177000D01*
X51759992Y31177000D01*
X51666129Y31191866D01*
X51590467Y31230418D01*
X51530418Y31290467D01*
X51491866Y31366129D01*
X51477000Y31459992D01*
X51477000Y32300000D01*
X51475436Y32319867D01*
X51455859Y32443474D01*
X51449573Y32467563D01*
X51443581Y32481264D01*
X51386765Y32592771D01*
X51373342Y32613739D01*
X51363410Y32624917D01*
X51274917Y32713410D01*
X51255671Y32729204D01*
X51242771Y32736765D01*
X51131264Y32793581D01*
X51108080Y32802655D01*
X51093474Y32805859D01*
X50969867Y32825436D01*
X50950000Y32827000D01*
X49459992Y32827000D01*
X49366129Y32841866D01*
X49290467Y32880418D01*
X49230418Y32940467D01*
X49191866Y33016129D01*
X49177000Y33109992D01*
X49177000Y36750000D01*
X49175436Y36769867D01*
X49155859Y36893474D01*
X49149573Y36917563D01*
X49143581Y36931264D01*
X49086765Y37042771D01*
X49073342Y37063739D01*
X49063410Y37074917D01*
X48974917Y37163410D01*
X48955671Y37179204D01*
X48942771Y37186765D01*
X48831264Y37243581D01*
X48808080Y37252655D01*
X48793474Y37255859D01*
X48669867Y37275436D01*
X48650000Y37277000D01*
X47759992Y37277000D01*
X47666129Y37291866D01*
X47590467Y37330418D01*
X47530418Y37390467D01*
X47491866Y37466129D01*
X47478583Y37550000D01*
X47491866Y37633871D01*
X47530418Y37709533D01*
X47590467Y37769582D01*
X47666129Y37808134D01*
X47759992Y37823000D01*
X51890008Y37823000D01*
X51983871Y37808134D01*
%TA.AperFunction,Conductor*%
G36*
X51983871Y37808134D02*
G01*
X52059533Y37769582D01*
X52119582Y37709533D01*
X52158134Y37633871D01*
X52173000Y37540008D01*
X52173000Y31459992D01*
X52158134Y31366129D01*
X52119582Y31290467D01*
X52059533Y31230418D01*
X51983871Y31191866D01*
X51890008Y31177000D01*
X51759992Y31177000D01*
X51666129Y31191866D01*
X51590467Y31230418D01*
X51530418Y31290467D01*
X51491866Y31366129D01*
X51477000Y31459992D01*
X51477000Y32300000D01*
X51475436Y32319867D01*
X51455859Y32443474D01*
X51449573Y32467563D01*
X51443581Y32481264D01*
X51386765Y32592771D01*
X51373342Y32613739D01*
X51363410Y32624917D01*
X51274917Y32713410D01*
X51255671Y32729204D01*
X51242771Y32736765D01*
X51131264Y32793581D01*
X51108080Y32802655D01*
X51093474Y32805859D01*
X50969867Y32825436D01*
X50950000Y32827000D01*
X49459992Y32827000D01*
X49366129Y32841866D01*
X49290467Y32880418D01*
X49230418Y32940467D01*
X49191866Y33016129D01*
X49177000Y33109992D01*
X49177000Y36750000D01*
X49175436Y36769867D01*
X49155859Y36893474D01*
X49149573Y36917563D01*
X49143581Y36931264D01*
X49086765Y37042771D01*
X49073342Y37063739D01*
X49063410Y37074917D01*
X48974917Y37163410D01*
X48955671Y37179204D01*
X48942771Y37186765D01*
X48831264Y37243581D01*
X48808080Y37252655D01*
X48793474Y37255859D01*
X48669867Y37275436D01*
X48650000Y37277000D01*
X47759992Y37277000D01*
X47666129Y37291866D01*
X47590467Y37330418D01*
X47530418Y37390467D01*
X47491866Y37466129D01*
X47478583Y37550000D01*
X47491866Y37633871D01*
X47530418Y37709533D01*
X47590467Y37769582D01*
X47666129Y37808134D01*
X47759992Y37823000D01*
X51890008Y37823000D01*
X51983871Y37808134D01*
G37*
%TD.AperFunction*%
X50133871Y28808134D02*
X50209533Y28769582D01*
X50269582Y28709533D01*
X50308134Y28633871D01*
X50323000Y28540008D01*
X50323000Y28259992D01*
X50308134Y28166129D01*
X50269582Y28090467D01*
X50209533Y28030418D01*
X50133871Y27991866D01*
X50040008Y27977000D01*
X47087500Y27977000D01*
X47054629Y27972672D01*
X46985879Y27954250D01*
X46962579Y27945480D01*
X46941437Y27932333D01*
X46928947Y27921381D01*
X46878619Y27871053D01*
X46862825Y27851807D01*
X46851089Y27829851D01*
X46845750Y27814121D01*
X46817714Y27709492D01*
X46815508Y27707286D01*
X46795781Y27702000D01*
X46121102Y27702000D01*
X46091705Y27772972D01*
X46079969Y27794929D01*
X46064175Y27814174D01*
X46044930Y27829968D01*
X46022972Y27841705D01*
X45961100Y27867333D01*
X45937276Y27874560D01*
X45912500Y27877000D01*
X45425978Y27877000D01*
X45405000Y27879066D01*
X44127123Y27879066D01*
X44050181Y27894371D01*
X43986752Y27936752D01*
X43944371Y28000181D01*
X43929488Y28075000D01*
X43944371Y28149819D01*
X43986752Y28213248D01*
X44050181Y28255629D01*
X44127123Y28270934D01*
X45405000Y28270934D01*
X45425978Y28273000D01*
X45725000Y28273000D01*
X45749776Y28275440D01*
X45855014Y28296373D01*
X45878839Y28303600D01*
X45900796Y28315337D01*
X45990012Y28374950D01*
X46009257Y28390744D01*
X46025050Y28409988D01*
X46084663Y28499204D01*
X46096399Y28521160D01*
X46103627Y28544986D01*
X46140565Y28730686D01*
X46172108Y28777892D01*
X46219314Y28809435D01*
X46287509Y28823000D01*
X50040008Y28823000D01*
X50133871Y28808134D01*
%TA.AperFunction,Conductor*%
G36*
X50133871Y28808134D02*
G01*
X50209533Y28769582D01*
X50269582Y28709533D01*
X50308134Y28633871D01*
X50323000Y28540008D01*
X50323000Y28259992D01*
X50308134Y28166129D01*
X50269582Y28090467D01*
X50209533Y28030418D01*
X50133871Y27991866D01*
X50040008Y27977000D01*
X47087500Y27977000D01*
X47054629Y27972672D01*
X46985879Y27954250D01*
X46962579Y27945480D01*
X46941437Y27932333D01*
X46928947Y27921381D01*
X46878619Y27871053D01*
X46862825Y27851807D01*
X46851089Y27829851D01*
X46845750Y27814121D01*
X46817714Y27709492D01*
X46815508Y27707286D01*
X46795781Y27702000D01*
X46121102Y27702000D01*
X46091705Y27772972D01*
X46079969Y27794929D01*
X46064175Y27814174D01*
X46044930Y27829968D01*
X46022972Y27841705D01*
X45961100Y27867333D01*
X45937276Y27874560D01*
X45912500Y27877000D01*
X45425978Y27877000D01*
X45405000Y27879066D01*
X44127123Y27879066D01*
X44050181Y27894371D01*
X43986752Y27936752D01*
X43944371Y28000181D01*
X43929488Y28075000D01*
X43944371Y28149819D01*
X43986752Y28213248D01*
X44050181Y28255629D01*
X44127123Y28270934D01*
X45405000Y28270934D01*
X45425978Y28273000D01*
X45725000Y28273000D01*
X45749776Y28275440D01*
X45855014Y28296373D01*
X45878839Y28303600D01*
X45900796Y28315337D01*
X45990012Y28374950D01*
X46009257Y28390744D01*
X46025050Y28409988D01*
X46084663Y28499204D01*
X46096399Y28521160D01*
X46103627Y28544986D01*
X46140565Y28730686D01*
X46172108Y28777892D01*
X46219314Y28809435D01*
X46287509Y28823000D01*
X50040008Y28823000D01*
X50133871Y28808134D01*
G37*
%TD.AperFunction*%
X28383871Y37758134D02*
X28459533Y37719582D01*
X28519582Y37659533D01*
X28558134Y37583871D01*
X28573000Y37490008D01*
X28573000Y35659992D01*
X28558134Y35566129D01*
X28519582Y35490467D01*
X28459533Y35430418D01*
X28383871Y35391866D01*
X28290008Y35377000D01*
X28109992Y35377000D01*
X28016129Y35391866D01*
X27940467Y35430418D01*
X27880418Y35490467D01*
X27841866Y35566129D01*
X27827000Y35659992D01*
X27827000Y36500000D01*
X27825436Y36519867D01*
X27805859Y36643474D01*
X27799573Y36667563D01*
X27793581Y36681264D01*
X27736765Y36792771D01*
X27723342Y36813739D01*
X27713410Y36824917D01*
X27624917Y36913410D01*
X27605671Y36929204D01*
X27592771Y36936765D01*
X27481264Y36993581D01*
X27458080Y37002655D01*
X27443474Y37005859D01*
X27319867Y37025436D01*
X27300000Y37027000D01*
X26609992Y37027000D01*
X26516129Y37041866D01*
X26440467Y37080418D01*
X26380418Y37140467D01*
X26341866Y37216129D01*
X26328583Y37300000D01*
X26341866Y37383871D01*
X26380418Y37459533D01*
X26440467Y37519582D01*
X26516129Y37558134D01*
X26609992Y37573000D01*
X27650000Y37573000D01*
X27674776Y37575440D01*
X27698600Y37582667D01*
X27769311Y37611956D01*
X27791268Y37623692D01*
X27810513Y37639486D01*
X27826307Y37658731D01*
X27838044Y37680689D01*
X27876280Y37773000D01*
X28290008Y37773000D01*
X28383871Y37758134D01*
%TA.AperFunction,Conductor*%
G36*
X28383871Y37758134D02*
G01*
X28459533Y37719582D01*
X28519582Y37659533D01*
X28558134Y37583871D01*
X28573000Y37490008D01*
X28573000Y35659992D01*
X28558134Y35566129D01*
X28519582Y35490467D01*
X28459533Y35430418D01*
X28383871Y35391866D01*
X28290008Y35377000D01*
X28109992Y35377000D01*
X28016129Y35391866D01*
X27940467Y35430418D01*
X27880418Y35490467D01*
X27841866Y35566129D01*
X27827000Y35659992D01*
X27827000Y36500000D01*
X27825436Y36519867D01*
X27805859Y36643474D01*
X27799573Y36667563D01*
X27793581Y36681264D01*
X27736765Y36792771D01*
X27723342Y36813739D01*
X27713410Y36824917D01*
X27624917Y36913410D01*
X27605671Y36929204D01*
X27592771Y36936765D01*
X27481264Y36993581D01*
X27458080Y37002655D01*
X27443474Y37005859D01*
X27319867Y37025436D01*
X27300000Y37027000D01*
X26609992Y37027000D01*
X26516129Y37041866D01*
X26440467Y37080418D01*
X26380418Y37140467D01*
X26341866Y37216129D01*
X26328583Y37300000D01*
X26341866Y37383871D01*
X26380418Y37459533D01*
X26440467Y37519582D01*
X26516129Y37558134D01*
X26609992Y37573000D01*
X27650000Y37573000D01*
X27674776Y37575440D01*
X27698600Y37582667D01*
X27769311Y37611956D01*
X27791268Y37623692D01*
X27810513Y37639486D01*
X27826307Y37658731D01*
X27838044Y37680689D01*
X27876280Y37773000D01*
X28290008Y37773000D01*
X28383871Y37758134D01*
G37*
%TD.AperFunction*%
X23633871Y47058134D02*
X23709533Y47019582D01*
X23769582Y46959533D01*
X23808134Y46883871D01*
X23823000Y46790008D01*
X23823000Y41425000D01*
X23824564Y41405133D01*
X23844141Y41281526D01*
X23850427Y41257437D01*
X23856419Y41243736D01*
X23913235Y41132229D01*
X23926658Y41111261D01*
X23936590Y41100083D01*
X24025083Y41011590D01*
X24044329Y40995796D01*
X24057229Y40988235D01*
X24168736Y40931419D01*
X24191920Y40922345D01*
X24206526Y40919141D01*
X24330133Y40899564D01*
X24350000Y40898000D01*
X28265008Y40898000D01*
X28358871Y40883134D01*
X28434533Y40844582D01*
X28494582Y40784533D01*
X28533134Y40708871D01*
X28548000Y40615008D01*
X28548000Y39009992D01*
X28533134Y38916129D01*
X28494582Y38840467D01*
X28434533Y38780418D01*
X28358871Y38741866D01*
X28265008Y38727000D01*
X27851280Y38727000D01*
X27813044Y38819311D01*
X27801308Y38841268D01*
X27785514Y38860513D01*
X27766269Y38876307D01*
X27744311Y38888044D01*
X27673600Y38917333D01*
X27649776Y38924560D01*
X27625000Y38927000D01*
X26609992Y38927000D01*
X26516129Y38941866D01*
X26440467Y38980418D01*
X26380418Y39040467D01*
X26341866Y39116129D01*
X26327000Y39209992D01*
X26327000Y39625000D01*
X26325436Y39644867D01*
X26305859Y39768474D01*
X26299573Y39792563D01*
X26293581Y39806264D01*
X26236765Y39917771D01*
X26223342Y39938739D01*
X26213410Y39949917D01*
X26124917Y40038410D01*
X26105671Y40054204D01*
X26092771Y40061765D01*
X25981264Y40118581D01*
X25958080Y40127655D01*
X25943474Y40130859D01*
X25819867Y40150436D01*
X25800000Y40152000D01*
X23459992Y40152000D01*
X23366129Y40166866D01*
X23290467Y40205418D01*
X23230418Y40265467D01*
X23191866Y40341129D01*
X23177000Y40434992D01*
X23177000Y46790008D01*
X23191866Y46883871D01*
X23230418Y46959533D01*
X23290467Y47019582D01*
X23366129Y47058134D01*
X23459992Y47073000D01*
X23540008Y47073000D01*
X23633871Y47058134D01*
%TA.AperFunction,Conductor*%
G36*
X23633871Y47058134D02*
G01*
X23709533Y47019582D01*
X23769582Y46959533D01*
X23808134Y46883871D01*
X23823000Y46790008D01*
X23823000Y41425000D01*
X23824564Y41405133D01*
X23844141Y41281526D01*
X23850427Y41257437D01*
X23856419Y41243736D01*
X23913235Y41132229D01*
X23926658Y41111261D01*
X23936590Y41100083D01*
X24025083Y41011590D01*
X24044329Y40995796D01*
X24057229Y40988235D01*
X24168736Y40931419D01*
X24191920Y40922345D01*
X24206526Y40919141D01*
X24330133Y40899564D01*
X24350000Y40898000D01*
X28265008Y40898000D01*
X28358871Y40883134D01*
X28434533Y40844582D01*
X28494582Y40784533D01*
X28533134Y40708871D01*
X28548000Y40615008D01*
X28548000Y39009992D01*
X28533134Y38916129D01*
X28494582Y38840467D01*
X28434533Y38780418D01*
X28358871Y38741866D01*
X28265008Y38727000D01*
X27851280Y38727000D01*
X27813044Y38819311D01*
X27801308Y38841268D01*
X27785514Y38860513D01*
X27766269Y38876307D01*
X27744311Y38888044D01*
X27673600Y38917333D01*
X27649776Y38924560D01*
X27625000Y38927000D01*
X26609992Y38927000D01*
X26516129Y38941866D01*
X26440467Y38980418D01*
X26380418Y39040467D01*
X26341866Y39116129D01*
X26327000Y39209992D01*
X26327000Y39625000D01*
X26325436Y39644867D01*
X26305859Y39768474D01*
X26299573Y39792563D01*
X26293581Y39806264D01*
X26236765Y39917771D01*
X26223342Y39938739D01*
X26213410Y39949917D01*
X26124917Y40038410D01*
X26105671Y40054204D01*
X26092771Y40061765D01*
X25981264Y40118581D01*
X25958080Y40127655D01*
X25943474Y40130859D01*
X25819867Y40150436D01*
X25800000Y40152000D01*
X23459992Y40152000D01*
X23366129Y40166866D01*
X23290467Y40205418D01*
X23230418Y40265467D01*
X23191866Y40341129D01*
X23177000Y40434992D01*
X23177000Y46790008D01*
X23191866Y46883871D01*
X23230418Y46959533D01*
X23290467Y47019582D01*
X23366129Y47058134D01*
X23459992Y47073000D01*
X23540008Y47073000D01*
X23633871Y47058134D01*
G37*
%TD.AperFunction*%
X17883871Y43108134D02*
X17959533Y43069582D01*
X18019582Y43009533D01*
X18058134Y42933871D01*
X18073000Y42840008D01*
X18073000Y38337509D01*
X18059435Y38269314D01*
X18027892Y38222108D01*
X17980686Y38190565D01*
X17794986Y38153627D01*
X17771161Y38146400D01*
X17749204Y38134663D01*
X17659988Y38075050D01*
X17640743Y38059256D01*
X17624950Y38040012D01*
X17565337Y37950796D01*
X17553601Y37928840D01*
X17546373Y37905014D01*
X17525440Y37799776D01*
X17523000Y37775000D01*
X17523000Y34491061D01*
X17521418Y34475000D01*
X17521418Y33229556D01*
X17513241Y33188448D01*
X17492537Y33157463D01*
X17461552Y33136759D01*
X17425000Y33129488D01*
X17388448Y33136759D01*
X17357463Y33157463D01*
X17336759Y33188448D01*
X17328582Y33229556D01*
X17328582Y34475000D01*
X17327000Y34491061D01*
X17327000Y42840008D01*
X17341866Y42933871D01*
X17380418Y43009533D01*
X17440467Y43069582D01*
X17516129Y43108134D01*
X17609992Y43123000D01*
X17790008Y43123000D01*
X17883871Y43108134D01*
%TA.AperFunction,Conductor*%
G36*
X17883871Y43108134D02*
G01*
X17959533Y43069582D01*
X18019582Y43009533D01*
X18058134Y42933871D01*
X18073000Y42840008D01*
X18073000Y38337509D01*
X18059435Y38269314D01*
X18027892Y38222108D01*
X17980686Y38190565D01*
X17794986Y38153627D01*
X17771161Y38146400D01*
X17749204Y38134663D01*
X17659988Y38075050D01*
X17640743Y38059256D01*
X17624950Y38040012D01*
X17565337Y37950796D01*
X17553601Y37928840D01*
X17546373Y37905014D01*
X17525440Y37799776D01*
X17523000Y37775000D01*
X17523000Y34491061D01*
X17521418Y34475000D01*
X17521418Y33229556D01*
X17513241Y33188448D01*
X17492537Y33157463D01*
X17461552Y33136759D01*
X17425000Y33129488D01*
X17388448Y33136759D01*
X17357463Y33157463D01*
X17336759Y33188448D01*
X17328582Y33229556D01*
X17328582Y34475000D01*
X17327000Y34491061D01*
X17327000Y42840008D01*
X17341866Y42933871D01*
X17380418Y43009533D01*
X17440467Y43069582D01*
X17516129Y43108134D01*
X17609992Y43123000D01*
X17790008Y43123000D01*
X17883871Y43108134D01*
G37*
%TD.AperFunction*%
X21683871Y39558134D02*
X21759533Y39519582D01*
X21819582Y39459533D01*
X21858134Y39383871D01*
X21873000Y39290008D01*
X21873000Y37309992D01*
X21858134Y37216129D01*
X21819582Y37140467D01*
X21759533Y37080418D01*
X21683871Y37041866D01*
X21590008Y37027000D01*
X18700000Y37027000D01*
X18680133Y37025436D01*
X18556526Y37005859D01*
X18532437Y36999573D01*
X18518736Y36993581D01*
X18407229Y36936765D01*
X18386261Y36923342D01*
X18375083Y36913410D01*
X18286590Y36824917D01*
X18270796Y36805671D01*
X18263235Y36792771D01*
X18206419Y36681264D01*
X18197345Y36658080D01*
X18194141Y36643474D01*
X18174564Y36519867D01*
X18173000Y36500000D01*
X18173000Y34491061D01*
X18171418Y34475000D01*
X18171418Y33229556D01*
X18163241Y33188448D01*
X18142537Y33157463D01*
X18111552Y33136759D01*
X18075000Y33129488D01*
X18038448Y33136759D01*
X18007463Y33157463D01*
X17986759Y33188448D01*
X17978582Y33229556D01*
X17978582Y34475000D01*
X17977000Y34491061D01*
X17977000Y37440008D01*
X17991866Y37533871D01*
X18030418Y37609533D01*
X18090467Y37669582D01*
X18166129Y37708134D01*
X18259992Y37723000D01*
X20620000Y37723000D01*
X20639867Y37724564D01*
X20763474Y37744141D01*
X20787563Y37750427D01*
X20801264Y37756419D01*
X20912771Y37813235D01*
X20933739Y37826658D01*
X20944917Y37836590D01*
X21033410Y37925083D01*
X21049204Y37944329D01*
X21056765Y37957229D01*
X21113581Y38068736D01*
X21122655Y38091920D01*
X21125859Y38106526D01*
X21145436Y38230133D01*
X21147000Y38250000D01*
X21147000Y39290008D01*
X21161866Y39383871D01*
X21200418Y39459533D01*
X21260467Y39519582D01*
X21336129Y39558134D01*
X21429992Y39573000D01*
X21590008Y39573000D01*
X21683871Y39558134D01*
%TA.AperFunction,Conductor*%
G36*
X21683871Y39558134D02*
G01*
X21759533Y39519582D01*
X21819582Y39459533D01*
X21858134Y39383871D01*
X21873000Y39290008D01*
X21873000Y37309992D01*
X21858134Y37216129D01*
X21819582Y37140467D01*
X21759533Y37080418D01*
X21683871Y37041866D01*
X21590008Y37027000D01*
X18700000Y37027000D01*
X18680133Y37025436D01*
X18556526Y37005859D01*
X18532437Y36999573D01*
X18518736Y36993581D01*
X18407229Y36936765D01*
X18386261Y36923342D01*
X18375083Y36913410D01*
X18286590Y36824917D01*
X18270796Y36805671D01*
X18263235Y36792771D01*
X18206419Y36681264D01*
X18197345Y36658080D01*
X18194141Y36643474D01*
X18174564Y36519867D01*
X18173000Y36500000D01*
X18173000Y34491061D01*
X18171418Y34475000D01*
X18171418Y33229556D01*
X18163241Y33188448D01*
X18142537Y33157463D01*
X18111552Y33136759D01*
X18075000Y33129488D01*
X18038448Y33136759D01*
X18007463Y33157463D01*
X17986759Y33188448D01*
X17978582Y33229556D01*
X17978582Y34475000D01*
X17977000Y34491061D01*
X17977000Y37440008D01*
X17991866Y37533871D01*
X18030418Y37609533D01*
X18090467Y37669582D01*
X18166129Y37708134D01*
X18259992Y37723000D01*
X20620000Y37723000D01*
X20639867Y37724564D01*
X20763474Y37744141D01*
X20787563Y37750427D01*
X20801264Y37756419D01*
X20912771Y37813235D01*
X20933739Y37826658D01*
X20944917Y37836590D01*
X21033410Y37925083D01*
X21049204Y37944329D01*
X21056765Y37957229D01*
X21113581Y38068736D01*
X21122655Y38091920D01*
X21125859Y38106526D01*
X21145436Y38230133D01*
X21147000Y38250000D01*
X21147000Y39290008D01*
X21161866Y39383871D01*
X21200418Y39459533D01*
X21260467Y39519582D01*
X21336129Y39558134D01*
X21429992Y39573000D01*
X21590008Y39573000D01*
X21683871Y39558134D01*
G37*
%TD.AperFunction*%
X16033871Y46908134D02*
X16109533Y46869582D01*
X16169582Y46809533D01*
X16208134Y46733871D01*
X16223000Y46640008D01*
X16223000Y41625000D01*
X16225440Y41600224D01*
X16232666Y41576402D01*
X16239988Y41558724D01*
X16251724Y41536767D01*
X16267517Y41517521D01*
X16273000Y41513021D01*
X16273000Y41109992D01*
X16258134Y41016129D01*
X16219582Y40940467D01*
X16159533Y40880418D01*
X16083871Y40841866D01*
X15990008Y40827000D01*
X15809992Y40827000D01*
X15716129Y40841866D01*
X15640467Y40880418D01*
X15580418Y40940467D01*
X15541866Y41016129D01*
X15527000Y41109992D01*
X15527000Y46640008D01*
X15541866Y46733871D01*
X15580418Y46809533D01*
X15640467Y46869582D01*
X15716129Y46908134D01*
X15809992Y46923000D01*
X15940008Y46923000D01*
X16033871Y46908134D01*
%TA.AperFunction,Conductor*%
G36*
X16033871Y46908134D02*
G01*
X16109533Y46869582D01*
X16169582Y46809533D01*
X16208134Y46733871D01*
X16223000Y46640008D01*
X16223000Y41625000D01*
X16225440Y41600224D01*
X16232666Y41576402D01*
X16239988Y41558724D01*
X16251724Y41536767D01*
X16267517Y41517521D01*
X16273000Y41513021D01*
X16273000Y41109992D01*
X16258134Y41016129D01*
X16219582Y40940467D01*
X16159533Y40880418D01*
X16083871Y40841866D01*
X15990008Y40827000D01*
X15809992Y40827000D01*
X15716129Y40841866D01*
X15640467Y40880418D01*
X15580418Y40940467D01*
X15541866Y41016129D01*
X15527000Y41109992D01*
X15527000Y46640008D01*
X15541866Y46733871D01*
X15580418Y46809533D01*
X15640467Y46869582D01*
X15716129Y46908134D01*
X15809992Y46923000D01*
X15940008Y46923000D01*
X16033871Y46908134D01*
G37*
%TD.AperFunction*%
X32783871Y29108134D02*
X32859533Y29069582D01*
X32919582Y29009533D01*
X32958134Y28933871D01*
X32973000Y28840008D01*
X32973000Y27600000D01*
X32975440Y27575224D01*
X32990664Y27498687D01*
X32997891Y27474862D01*
X33009628Y27452905D01*
X33052983Y27388021D01*
X33068777Y27368776D01*
X33088021Y27352983D01*
X33152905Y27309628D01*
X33174861Y27297892D01*
X33198687Y27290664D01*
X33326984Y27265144D01*
X33349859Y27249859D01*
X33365144Y27226984D01*
X33373000Y27187491D01*
X33373000Y27137509D01*
X33359435Y27069314D01*
X33327892Y27022108D01*
X33280686Y26990565D01*
X33212491Y26977000D01*
X32509992Y26977000D01*
X32416129Y26991866D01*
X32340467Y27030418D01*
X32280418Y27090467D01*
X32241866Y27166129D01*
X32227000Y27259992D01*
X32227000Y28840008D01*
X32241866Y28933871D01*
X32280418Y29009533D01*
X32340467Y29069582D01*
X32416129Y29108134D01*
X32509992Y29123000D01*
X32690008Y29123000D01*
X32783871Y29108134D01*
%TA.AperFunction,Conductor*%
G36*
X32783871Y29108134D02*
G01*
X32859533Y29069582D01*
X32919582Y29009533D01*
X32958134Y28933871D01*
X32973000Y28840008D01*
X32973000Y27600000D01*
X32975440Y27575224D01*
X32990664Y27498687D01*
X32997891Y27474862D01*
X33009628Y27452905D01*
X33052983Y27388021D01*
X33068777Y27368776D01*
X33088021Y27352983D01*
X33152905Y27309628D01*
X33174861Y27297892D01*
X33198687Y27290664D01*
X33326984Y27265144D01*
X33349859Y27249859D01*
X33365144Y27226984D01*
X33373000Y27187491D01*
X33373000Y27137509D01*
X33359435Y27069314D01*
X33327892Y27022108D01*
X33280686Y26990565D01*
X33212491Y26977000D01*
X32509992Y26977000D01*
X32416129Y26991866D01*
X32340467Y27030418D01*
X32280418Y27090467D01*
X32241866Y27166129D01*
X32227000Y27259992D01*
X32227000Y28840008D01*
X32241866Y28933871D01*
X32280418Y29009533D01*
X32340467Y29069582D01*
X32416129Y29108134D01*
X32509992Y29123000D01*
X32690008Y29123000D01*
X32783871Y29108134D01*
G37*
%TD.AperFunction*%
X16633889Y34333133D02*
X16709550Y34294580D01*
X16769599Y34234530D01*
X16808150Y34158866D01*
X16823016Y34064997D01*
X16822985Y33000015D01*
X16824548Y32980147D01*
X16844123Y32856538D01*
X16850409Y32832448D01*
X16856401Y32818747D01*
X16913216Y32707236D01*
X16926638Y32686268D01*
X16936571Y32675089D01*
X17025064Y32586594D01*
X17044309Y32570800D01*
X17057210Y32563239D01*
X17168718Y32506421D01*
X17191901Y32497347D01*
X17206509Y32494142D01*
X17330118Y32474564D01*
X17349985Y32473000D01*
X18100000Y32473000D01*
X18119867Y32474564D01*
X18243474Y32494141D01*
X18267563Y32500427D01*
X18281264Y32506419D01*
X18392771Y32563235D01*
X18413739Y32576658D01*
X18424917Y32586590D01*
X18513410Y32675083D01*
X18529204Y32694329D01*
X18536765Y32707229D01*
X18593581Y32818736D01*
X18602655Y32841920D01*
X18605859Y32856526D01*
X18605951Y32857106D01*
X18622268Y32910897D01*
X18628582Y32975000D01*
X18628582Y34220444D01*
X18638662Y34271119D01*
X18664785Y34310215D01*
X18703881Y34336338D01*
X18750000Y34345512D01*
X18796119Y34336338D01*
X18835215Y34310215D01*
X18861338Y34271119D01*
X18873000Y34212491D01*
X18873000Y33300000D01*
X18874564Y33280133D01*
X18894141Y33156526D01*
X18900427Y33132437D01*
X18906419Y33118736D01*
X18963235Y33007229D01*
X18976658Y32986261D01*
X18986590Y32975083D01*
X19075083Y32886590D01*
X19094329Y32870796D01*
X19107229Y32863235D01*
X19218736Y32806419D01*
X19241920Y32797345D01*
X19256526Y32794141D01*
X19380133Y32774564D01*
X19400000Y32773000D01*
X20240008Y32773000D01*
X20333871Y32758134D01*
X20409533Y32719582D01*
X20469582Y32659533D01*
X20508134Y32583871D01*
X20523000Y32490008D01*
X20523000Y32234992D01*
X20508134Y32141129D01*
X20469582Y32065467D01*
X20409533Y32005418D01*
X20333871Y31966866D01*
X20240008Y31952000D01*
X16360011Y31952000D01*
X16266150Y31966866D01*
X16190485Y32005418D01*
X16130441Y32065461D01*
X16091887Y32141125D01*
X16077019Y32234989D01*
X16076982Y34064999D01*
X16091848Y34158868D01*
X16130398Y34234531D01*
X16190446Y34294580D01*
X16266110Y34333133D01*
X16359976Y34348000D01*
X16540024Y34348000D01*
X16633889Y34333133D01*
%TA.AperFunction,Conductor*%
G36*
X16633889Y34333133D02*
G01*
X16709550Y34294580D01*
X16769599Y34234530D01*
X16808150Y34158866D01*
X16823016Y34064997D01*
X16822985Y33000015D01*
X16824548Y32980147D01*
X16844123Y32856538D01*
X16850409Y32832448D01*
X16856401Y32818747D01*
X16913216Y32707236D01*
X16926638Y32686268D01*
X16936571Y32675089D01*
X17025064Y32586594D01*
X17044309Y32570800D01*
X17057210Y32563239D01*
X17168718Y32506421D01*
X17191901Y32497347D01*
X17206509Y32494142D01*
X17330118Y32474564D01*
X17349985Y32473000D01*
X18100000Y32473000D01*
X18119867Y32474564D01*
X18243474Y32494141D01*
X18267563Y32500427D01*
X18281264Y32506419D01*
X18392771Y32563235D01*
X18413739Y32576658D01*
X18424917Y32586590D01*
X18513410Y32675083D01*
X18529204Y32694329D01*
X18536765Y32707229D01*
X18593581Y32818736D01*
X18602655Y32841920D01*
X18605859Y32856526D01*
X18605951Y32857106D01*
X18622268Y32910897D01*
X18628582Y32975000D01*
X18628582Y34220444D01*
X18638662Y34271119D01*
X18664785Y34310215D01*
X18703881Y34336338D01*
X18750000Y34345512D01*
X18796119Y34336338D01*
X18835215Y34310215D01*
X18861338Y34271119D01*
X18873000Y34212491D01*
X18873000Y33300000D01*
X18874564Y33280133D01*
X18894141Y33156526D01*
X18900427Y33132437D01*
X18906419Y33118736D01*
X18963235Y33007229D01*
X18976658Y32986261D01*
X18986590Y32975083D01*
X19075083Y32886590D01*
X19094329Y32870796D01*
X19107229Y32863235D01*
X19218736Y32806419D01*
X19241920Y32797345D01*
X19256526Y32794141D01*
X19380133Y32774564D01*
X19400000Y32773000D01*
X20240008Y32773000D01*
X20333871Y32758134D01*
X20409533Y32719582D01*
X20469582Y32659533D01*
X20508134Y32583871D01*
X20523000Y32490008D01*
X20523000Y32234992D01*
X20508134Y32141129D01*
X20469582Y32065467D01*
X20409533Y32005418D01*
X20333871Y31966866D01*
X20240008Y31952000D01*
X16360011Y31952000D01*
X16266150Y31966866D01*
X16190485Y32005418D01*
X16130441Y32065461D01*
X16091887Y32141125D01*
X16077019Y32234989D01*
X16076982Y34064999D01*
X16091848Y34158868D01*
X16130398Y34234531D01*
X16190446Y34294580D01*
X16266110Y34333133D01*
X16359976Y34348000D01*
X16540024Y34348000D01*
X16633889Y34333133D01*
G37*
%TD.AperFunction*%
X2258871Y21883134D02*
X2334533Y21844582D01*
X2394582Y21784533D01*
X2433134Y21708871D01*
X2448000Y21615008D01*
X2448000Y11725000D01*
X2449564Y11705133D01*
X2469141Y11581526D01*
X2475427Y11557437D01*
X2481419Y11543736D01*
X2538235Y11432229D01*
X2551658Y11411261D01*
X2561590Y11400083D01*
X2650083Y11311590D01*
X2669329Y11295796D01*
X2682229Y11288235D01*
X2793736Y11231419D01*
X2816920Y11222345D01*
X2831526Y11219141D01*
X2955133Y11199564D01*
X2975000Y11198000D01*
X8890008Y11198000D01*
X8983871Y11183134D01*
X9059533Y11144582D01*
X9119582Y11084533D01*
X9158134Y11008871D01*
X9173000Y10915008D01*
X9173000Y8034992D01*
X9158134Y7941129D01*
X9119582Y7865467D01*
X9059533Y7805418D01*
X8983871Y7766866D01*
X8890008Y7752000D01*
X784992Y7752000D01*
X691129Y7766866D01*
X615467Y7805418D01*
X555418Y7865467D01*
X516866Y7941129D01*
X502000Y8034992D01*
X502000Y21615008D01*
X516866Y21708871D01*
X555418Y21784533D01*
X615467Y21844582D01*
X691129Y21883134D01*
X784992Y21898000D01*
X2165008Y21898000D01*
X2258871Y21883134D01*
%TA.AperFunction,Conductor*%
G36*
X2258871Y21883134D02*
G01*
X2334533Y21844582D01*
X2394582Y21784533D01*
X2433134Y21708871D01*
X2448000Y21615008D01*
X2448000Y11725000D01*
X2449564Y11705133D01*
X2469141Y11581526D01*
X2475427Y11557437D01*
X2481419Y11543736D01*
X2538235Y11432229D01*
X2551658Y11411261D01*
X2561590Y11400083D01*
X2650083Y11311590D01*
X2669329Y11295796D01*
X2682229Y11288235D01*
X2793736Y11231419D01*
X2816920Y11222345D01*
X2831526Y11219141D01*
X2955133Y11199564D01*
X2975000Y11198000D01*
X8890008Y11198000D01*
X8983871Y11183134D01*
X9059533Y11144582D01*
X9119582Y11084533D01*
X9158134Y11008871D01*
X9173000Y10915008D01*
X9173000Y8034992D01*
X9158134Y7941129D01*
X9119582Y7865467D01*
X9059533Y7805418D01*
X8983871Y7766866D01*
X8890008Y7752000D01*
X784992Y7752000D01*
X691129Y7766866D01*
X615467Y7805418D01*
X555418Y7865467D01*
X516866Y7941129D01*
X502000Y8034992D01*
X502000Y21615008D01*
X516866Y21708871D01*
X555418Y21784533D01*
X615467Y21844582D01*
X691129Y21883134D01*
X784992Y21898000D01*
X2165008Y21898000D01*
X2258871Y21883134D01*
G37*
%TD.AperFunction*%
X22083871Y36058134D02*
X22159533Y36019582D01*
X22219582Y35959533D01*
X22258134Y35883871D01*
X22273000Y35790008D01*
X22273000Y32334992D01*
X22258134Y32241129D01*
X22219582Y32165467D01*
X22159533Y32105418D01*
X22083871Y32066866D01*
X21990008Y32052000D01*
X21759992Y32052000D01*
X21666129Y32066866D01*
X21590467Y32105418D01*
X21530418Y32165467D01*
X21491866Y32241129D01*
X21477000Y32334992D01*
X21477000Y34150000D01*
X21472673Y34182870D01*
X21452577Y34257870D01*
X21443807Y34281170D01*
X21430660Y34302312D01*
X21419707Y34314803D01*
X21364803Y34369707D01*
X21345557Y34385501D01*
X21323601Y34397237D01*
X21307870Y34402577D01*
X21190741Y34433961D01*
X21183961Y34440741D01*
X21177000Y34466721D01*
X21177000Y35790008D01*
X21191866Y35883871D01*
X21230418Y35959533D01*
X21290467Y36019582D01*
X21366129Y36058134D01*
X21459992Y36073000D01*
X21990008Y36073000D01*
X22083871Y36058134D01*
%TA.AperFunction,Conductor*%
G36*
X22083871Y36058134D02*
G01*
X22159533Y36019582D01*
X22219582Y35959533D01*
X22258134Y35883871D01*
X22273000Y35790008D01*
X22273000Y32334992D01*
X22258134Y32241129D01*
X22219582Y32165467D01*
X22159533Y32105418D01*
X22083871Y32066866D01*
X21990008Y32052000D01*
X21759992Y32052000D01*
X21666129Y32066866D01*
X21590467Y32105418D01*
X21530418Y32165467D01*
X21491866Y32241129D01*
X21477000Y32334992D01*
X21477000Y34150000D01*
X21472673Y34182870D01*
X21452577Y34257870D01*
X21443807Y34281170D01*
X21430660Y34302312D01*
X21419707Y34314803D01*
X21364803Y34369707D01*
X21345557Y34385501D01*
X21323601Y34397237D01*
X21307870Y34402577D01*
X21190741Y34433961D01*
X21183961Y34440741D01*
X21177000Y34466721D01*
X21177000Y35790008D01*
X21191866Y35883871D01*
X21230418Y35959533D01*
X21290467Y36019582D01*
X21366129Y36058134D01*
X21459992Y36073000D01*
X21990008Y36073000D01*
X22083871Y36058134D01*
G37*
%TD.AperFunction*%
X14333871Y46908134D02*
X14409533Y46869582D01*
X14469582Y46809533D01*
X14508134Y46733871D01*
X14523000Y46640008D01*
X14523000Y44484992D01*
X14508134Y44391129D01*
X14469582Y44315467D01*
X14409533Y44255418D01*
X14333871Y44216866D01*
X14240008Y44202000D01*
X13959992Y44202000D01*
X13866129Y44216866D01*
X13790467Y44255418D01*
X13730418Y44315467D01*
X13691866Y44391129D01*
X13677000Y44484992D01*
X13677000Y46640008D01*
X13691866Y46733871D01*
X13730418Y46809533D01*
X13790467Y46869582D01*
X13866129Y46908134D01*
X13959992Y46923000D01*
X14240008Y46923000D01*
X14333871Y46908134D01*
%TA.AperFunction,Conductor*%
G36*
X14333871Y46908134D02*
G01*
X14409533Y46869582D01*
X14469582Y46809533D01*
X14508134Y46733871D01*
X14523000Y46640008D01*
X14523000Y44484992D01*
X14508134Y44391129D01*
X14469582Y44315467D01*
X14409533Y44255418D01*
X14333871Y44216866D01*
X14240008Y44202000D01*
X13959992Y44202000D01*
X13866129Y44216866D01*
X13790467Y44255418D01*
X13730418Y44315467D01*
X13691866Y44391129D01*
X13677000Y44484992D01*
X13677000Y46640008D01*
X13691866Y46733871D01*
X13730418Y46809533D01*
X13790467Y46869582D01*
X13866129Y46908134D01*
X13959992Y46923000D01*
X14240008Y46923000D01*
X14333871Y46908134D01*
G37*
%TD.AperFunction*%
X20783871Y29708134D02*
X20859533Y29669582D01*
X20919582Y29609533D01*
X20958134Y29533871D01*
X20973000Y29440008D01*
X20973000Y27484992D01*
X20958134Y27391129D01*
X20919582Y27315467D01*
X20859533Y27255418D01*
X20783871Y27216866D01*
X20690008Y27202000D01*
X18909992Y27202000D01*
X18816129Y27216866D01*
X18740467Y27255418D01*
X18729066Y27266819D01*
X18729066Y28575000D01*
X18720822Y28658707D01*
X18696405Y28739196D01*
X18656755Y28813376D01*
X18603395Y28878395D01*
X18538376Y28931755D01*
X18470052Y28968275D01*
X18424917Y29013410D01*
X18405671Y29029204D01*
X18392771Y29036765D01*
X18281264Y29093581D01*
X18258080Y29102655D01*
X18243474Y29105859D01*
X18119867Y29125436D01*
X18100000Y29127000D01*
X17400000Y29127000D01*
X17380133Y29125436D01*
X17256526Y29105859D01*
X17232437Y29099573D01*
X17218736Y29093581D01*
X17107229Y29036765D01*
X17086261Y29023342D01*
X17075083Y29013410D01*
X17029948Y28968275D01*
X16961624Y28931755D01*
X16896605Y28878395D01*
X16843245Y28813376D01*
X16803595Y28739196D01*
X16779178Y28658707D01*
X16770934Y28575000D01*
X16770934Y27266819D01*
X16759533Y27255418D01*
X16683871Y27216866D01*
X16590008Y27202000D01*
X16309992Y27202000D01*
X16216129Y27216866D01*
X16140467Y27255418D01*
X16129066Y27266819D01*
X16129066Y28575000D01*
X16120822Y28658707D01*
X16096405Y28739196D01*
X16056755Y28813376D01*
X16003395Y28878395D01*
X15938376Y28931755D01*
X15870052Y28968275D01*
X15824917Y29013410D01*
X15805671Y29029204D01*
X15792771Y29036765D01*
X15681264Y29093581D01*
X15658080Y29102655D01*
X15643474Y29105859D01*
X15519867Y29125436D01*
X15500000Y29127000D01*
X15450000Y29127000D01*
X15430133Y29125436D01*
X15306526Y29105859D01*
X15282437Y29099573D01*
X15268736Y29093581D01*
X15157229Y29036765D01*
X15136261Y29023342D01*
X15125083Y29013410D01*
X15079948Y28968275D01*
X15011624Y28931755D01*
X14946605Y28878395D01*
X14893245Y28813376D01*
X14853595Y28739196D01*
X14829178Y28658707D01*
X14820934Y28575000D01*
X14820934Y27266819D01*
X14809533Y27255418D01*
X14733871Y27216866D01*
X14640008Y27202000D01*
X14359992Y27202000D01*
X14266129Y27216866D01*
X14190467Y27255418D01*
X14130418Y27315467D01*
X14091866Y27391129D01*
X14077000Y27484992D01*
X14077000Y29440008D01*
X14091866Y29533871D01*
X14130418Y29609533D01*
X14190467Y29669582D01*
X14266129Y29708134D01*
X14359992Y29723000D01*
X20690008Y29723000D01*
X20783871Y29708134D01*
%TA.AperFunction,Conductor*%
G36*
X20783871Y29708134D02*
G01*
X20859533Y29669582D01*
X20919582Y29609533D01*
X20958134Y29533871D01*
X20973000Y29440008D01*
X20973000Y27484992D01*
X20958134Y27391129D01*
X20919582Y27315467D01*
X20859533Y27255418D01*
X20783871Y27216866D01*
X20690008Y27202000D01*
X18909992Y27202000D01*
X18816129Y27216866D01*
X18740467Y27255418D01*
X18729066Y27266819D01*
X18729066Y28575000D01*
X18720822Y28658707D01*
X18696405Y28739196D01*
X18656755Y28813376D01*
X18603395Y28878395D01*
X18538376Y28931755D01*
X18470052Y28968275D01*
X18424917Y29013410D01*
X18405671Y29029204D01*
X18392771Y29036765D01*
X18281264Y29093581D01*
X18258080Y29102655D01*
X18243474Y29105859D01*
X18119867Y29125436D01*
X18100000Y29127000D01*
X17400000Y29127000D01*
X17380133Y29125436D01*
X17256526Y29105859D01*
X17232437Y29099573D01*
X17218736Y29093581D01*
X17107229Y29036765D01*
X17086261Y29023342D01*
X17075083Y29013410D01*
X17029948Y28968275D01*
X16961624Y28931755D01*
X16896605Y28878395D01*
X16843245Y28813376D01*
X16803595Y28739196D01*
X16779178Y28658707D01*
X16770934Y28575000D01*
X16770934Y27266819D01*
X16759533Y27255418D01*
X16683871Y27216866D01*
X16590008Y27202000D01*
X16309992Y27202000D01*
X16216129Y27216866D01*
X16140467Y27255418D01*
X16129066Y27266819D01*
X16129066Y28575000D01*
X16120822Y28658707D01*
X16096405Y28739196D01*
X16056755Y28813376D01*
X16003395Y28878395D01*
X15938376Y28931755D01*
X15870052Y28968275D01*
X15824917Y29013410D01*
X15805671Y29029204D01*
X15792771Y29036765D01*
X15681264Y29093581D01*
X15658080Y29102655D01*
X15643474Y29105859D01*
X15519867Y29125436D01*
X15500000Y29127000D01*
X15450000Y29127000D01*
X15430133Y29125436D01*
X15306526Y29105859D01*
X15282437Y29099573D01*
X15268736Y29093581D01*
X15157229Y29036765D01*
X15136261Y29023342D01*
X15125083Y29013410D01*
X15079948Y28968275D01*
X15011624Y28931755D01*
X14946605Y28878395D01*
X14893245Y28813376D01*
X14853595Y28739196D01*
X14829178Y28658707D01*
X14820934Y28575000D01*
X14820934Y27266819D01*
X14809533Y27255418D01*
X14733871Y27216866D01*
X14640008Y27202000D01*
X14359992Y27202000D01*
X14266129Y27216866D01*
X14190467Y27255418D01*
X14130418Y27315467D01*
X14091866Y27391129D01*
X14077000Y27484992D01*
X14077000Y29440008D01*
X14091866Y29533871D01*
X14130418Y29609533D01*
X14190467Y29669582D01*
X14266129Y29708134D01*
X14359992Y29723000D01*
X20690008Y29723000D01*
X20783871Y29708134D01*
G37*
%TD.AperFunction*%
X16473871Y24908134D02*
X16549533Y24869582D01*
X16609582Y24809533D01*
X16648134Y24733871D01*
X16663000Y24640008D01*
X16663000Y23512509D01*
X16647533Y23434749D01*
X16610570Y23379430D01*
X16555251Y23342467D01*
X16490000Y23329488D01*
X16424749Y23342467D01*
X16369430Y23379430D01*
X16332467Y23434749D01*
X16317000Y23512509D01*
X16317000Y23650000D01*
X16315436Y23669867D01*
X16295859Y23793474D01*
X16289573Y23817563D01*
X16283581Y23831264D01*
X16226765Y23942771D01*
X16213342Y23963739D01*
X16203410Y23974917D01*
X16114917Y24063410D01*
X16095671Y24079204D01*
X16082771Y24086765D01*
X15971264Y24143581D01*
X15948080Y24152655D01*
X15933474Y24155859D01*
X15809867Y24175436D01*
X15790000Y24177000D01*
X15750000Y24177000D01*
X15730133Y24175436D01*
X15606526Y24155859D01*
X15582437Y24149573D01*
X15568736Y24143581D01*
X15457229Y24086765D01*
X15436261Y24073342D01*
X15425083Y24063410D01*
X15336590Y23974917D01*
X15320796Y23955671D01*
X15313235Y23942771D01*
X15256419Y23831264D01*
X15247345Y23808080D01*
X15244141Y23793474D01*
X15224564Y23669867D01*
X15223000Y23650000D01*
X15223000Y18659992D01*
X15208134Y18566129D01*
X15169582Y18490467D01*
X15109533Y18430418D01*
X15033871Y18391866D01*
X14940008Y18377000D01*
X14384992Y18377000D01*
X14291129Y18391866D01*
X14215467Y18430418D01*
X14155418Y18490467D01*
X14116866Y18566129D01*
X14102000Y18659992D01*
X14102000Y20325000D01*
X14100436Y20344867D01*
X14080859Y20468474D01*
X14074573Y20492563D01*
X14068581Y20506264D01*
X14011765Y20617771D01*
X13998342Y20638739D01*
X13988410Y20649917D01*
X13899917Y20738410D01*
X13880671Y20754204D01*
X13867771Y20761765D01*
X13756264Y20818581D01*
X13733080Y20827655D01*
X13718474Y20830859D01*
X13594867Y20850436D01*
X13575000Y20852000D01*
X8950000Y20852000D01*
X8930133Y20850436D01*
X8806526Y20830859D01*
X8782437Y20824573D01*
X8768736Y20818581D01*
X8657229Y20761765D01*
X8636261Y20748342D01*
X8625083Y20738410D01*
X8536590Y20649917D01*
X8520796Y20630671D01*
X8513235Y20617771D01*
X8456419Y20506264D01*
X8447345Y20483080D01*
X8444141Y20468474D01*
X8424564Y20344867D01*
X8423000Y20325000D01*
X8423000Y18759992D01*
X8408134Y18666129D01*
X8369582Y18590467D01*
X8309533Y18530418D01*
X8233871Y18491866D01*
X8140008Y18477000D01*
X7459992Y18477000D01*
X7366129Y18491866D01*
X7290467Y18530418D01*
X7230418Y18590467D01*
X7191866Y18666129D01*
X7177000Y18759992D01*
X7177000Y22900000D01*
X7175436Y22919867D01*
X7155859Y23043474D01*
X7149573Y23067563D01*
X7143581Y23081264D01*
X7086765Y23192771D01*
X7073342Y23213739D01*
X7063410Y23224917D01*
X6974917Y23313410D01*
X6955671Y23329204D01*
X6942771Y23336765D01*
X6831264Y23393581D01*
X6808080Y23402655D01*
X6793474Y23405859D01*
X6669867Y23425436D01*
X6650000Y23427000D01*
X2234992Y23427000D01*
X2141129Y23441866D01*
X2065467Y23480418D01*
X2005418Y23540467D01*
X1966866Y23616129D01*
X1952000Y23709992D01*
X1952000Y24640008D01*
X1966866Y24733871D01*
X2005418Y24809533D01*
X2065467Y24869582D01*
X2141129Y24908134D01*
X2234992Y24923000D01*
X16380008Y24923000D01*
X16473871Y24908134D01*
%TA.AperFunction,Conductor*%
G36*
X16473871Y24908134D02*
G01*
X16549533Y24869582D01*
X16609582Y24809533D01*
X16648134Y24733871D01*
X16663000Y24640008D01*
X16663000Y23512509D01*
X16647533Y23434749D01*
X16610570Y23379430D01*
X16555251Y23342467D01*
X16490000Y23329488D01*
X16424749Y23342467D01*
X16369430Y23379430D01*
X16332467Y23434749D01*
X16317000Y23512509D01*
X16317000Y23650000D01*
X16315436Y23669867D01*
X16295859Y23793474D01*
X16289573Y23817563D01*
X16283581Y23831264D01*
X16226765Y23942771D01*
X16213342Y23963739D01*
X16203410Y23974917D01*
X16114917Y24063410D01*
X16095671Y24079204D01*
X16082771Y24086765D01*
X15971264Y24143581D01*
X15948080Y24152655D01*
X15933474Y24155859D01*
X15809867Y24175436D01*
X15790000Y24177000D01*
X15750000Y24177000D01*
X15730133Y24175436D01*
X15606526Y24155859D01*
X15582437Y24149573D01*
X15568736Y24143581D01*
X15457229Y24086765D01*
X15436261Y24073342D01*
X15425083Y24063410D01*
X15336590Y23974917D01*
X15320796Y23955671D01*
X15313235Y23942771D01*
X15256419Y23831264D01*
X15247345Y23808080D01*
X15244141Y23793474D01*
X15224564Y23669867D01*
X15223000Y23650000D01*
X15223000Y18659992D01*
X15208134Y18566129D01*
X15169582Y18490467D01*
X15109533Y18430418D01*
X15033871Y18391866D01*
X14940008Y18377000D01*
X14384992Y18377000D01*
X14291129Y18391866D01*
X14215467Y18430418D01*
X14155418Y18490467D01*
X14116866Y18566129D01*
X14102000Y18659992D01*
X14102000Y20325000D01*
X14100436Y20344867D01*
X14080859Y20468474D01*
X14074573Y20492563D01*
X14068581Y20506264D01*
X14011765Y20617771D01*
X13998342Y20638739D01*
X13988410Y20649917D01*
X13899917Y20738410D01*
X13880671Y20754204D01*
X13867771Y20761765D01*
X13756264Y20818581D01*
X13733080Y20827655D01*
X13718474Y20830859D01*
X13594867Y20850436D01*
X13575000Y20852000D01*
X8950000Y20852000D01*
X8930133Y20850436D01*
X8806526Y20830859D01*
X8782437Y20824573D01*
X8768736Y20818581D01*
X8657229Y20761765D01*
X8636261Y20748342D01*
X8625083Y20738410D01*
X8536590Y20649917D01*
X8520796Y20630671D01*
X8513235Y20617771D01*
X8456419Y20506264D01*
X8447345Y20483080D01*
X8444141Y20468474D01*
X8424564Y20344867D01*
X8423000Y20325000D01*
X8423000Y18759992D01*
X8408134Y18666129D01*
X8369582Y18590467D01*
X8309533Y18530418D01*
X8233871Y18491866D01*
X8140008Y18477000D01*
X7459992Y18477000D01*
X7366129Y18491866D01*
X7290467Y18530418D01*
X7230418Y18590467D01*
X7191866Y18666129D01*
X7177000Y18759992D01*
X7177000Y22900000D01*
X7175436Y22919867D01*
X7155859Y23043474D01*
X7149573Y23067563D01*
X7143581Y23081264D01*
X7086765Y23192771D01*
X7073342Y23213739D01*
X7063410Y23224917D01*
X6974917Y23313410D01*
X6955671Y23329204D01*
X6942771Y23336765D01*
X6831264Y23393581D01*
X6808080Y23402655D01*
X6793474Y23405859D01*
X6669867Y23425436D01*
X6650000Y23427000D01*
X2234992Y23427000D01*
X2141129Y23441866D01*
X2065467Y23480418D01*
X2005418Y23540467D01*
X1966866Y23616129D01*
X1952000Y23709992D01*
X1952000Y24640008D01*
X1966866Y24733871D01*
X2005418Y24809533D01*
X2065467Y24869582D01*
X2141129Y24908134D01*
X2234992Y24923000D01*
X16380008Y24923000D01*
X16473871Y24908134D01*
G37*
%TD.AperFunction*%
X17858871Y46908134D02*
X17934533Y46869582D01*
X17994582Y46809533D01*
X18033134Y46733871D01*
X18048000Y46640008D01*
X18048000Y44384992D01*
X18033134Y44291129D01*
X17994582Y44215467D01*
X17934533Y44155418D01*
X17858871Y44116866D01*
X17765008Y44102000D01*
X17634992Y44102000D01*
X17541129Y44116866D01*
X17465467Y44155418D01*
X17405418Y44215467D01*
X17366866Y44291129D01*
X17352000Y44384992D01*
X17352000Y46640008D01*
X17366866Y46733871D01*
X17405418Y46809533D01*
X17465467Y46869582D01*
X17541129Y46908134D01*
X17634992Y46923000D01*
X17765008Y46923000D01*
X17858871Y46908134D01*
%TA.AperFunction,Conductor*%
G36*
X17858871Y46908134D02*
G01*
X17934533Y46869582D01*
X17994582Y46809533D01*
X18033134Y46733871D01*
X18048000Y46640008D01*
X18048000Y44384992D01*
X18033134Y44291129D01*
X17994582Y44215467D01*
X17934533Y44155418D01*
X17858871Y44116866D01*
X17765008Y44102000D01*
X17634992Y44102000D01*
X17541129Y44116866D01*
X17465467Y44155418D01*
X17405418Y44215467D01*
X17366866Y44291129D01*
X17352000Y44384992D01*
X17352000Y46640008D01*
X17366866Y46733871D01*
X17405418Y46809533D01*
X17465467Y46869582D01*
X17541129Y46908134D01*
X17634992Y46923000D01*
X17765008Y46923000D01*
X17858871Y46908134D01*
G37*
%TD.AperFunction*%
X34133871Y9183134D02*
X34209533Y9144582D01*
X34269582Y9084533D01*
X34308134Y9008871D01*
X34323000Y8915008D01*
X34323000Y5334992D01*
X34308134Y5241129D01*
X34269582Y5165467D01*
X34209533Y5105418D01*
X34133871Y5066866D01*
X34040008Y5052000D01*
X33209992Y5052000D01*
X33116129Y5066866D01*
X33040467Y5105418D01*
X32980418Y5165467D01*
X32941866Y5241129D01*
X32927000Y5334992D01*
X32927000Y7800000D01*
X32925436Y7819867D01*
X32905859Y7943474D01*
X32899573Y7967563D01*
X32893581Y7981264D01*
X32836765Y8092771D01*
X32823342Y8113739D01*
X32813410Y8124917D01*
X32724917Y8213410D01*
X32705671Y8229204D01*
X32692771Y8236765D01*
X32581264Y8293581D01*
X32558080Y8302655D01*
X32543474Y8305859D01*
X32419867Y8325436D01*
X32400000Y8327000D01*
X30762509Y8327000D01*
X30694314Y8340565D01*
X30647108Y8372108D01*
X30615565Y8419314D01*
X30604488Y8475000D01*
X30615565Y8530686D01*
X30647108Y8577892D01*
X30694314Y8609435D01*
X30762509Y8623000D01*
X32412500Y8623000D01*
X32437277Y8625440D01*
X32547298Y8647325D01*
X32571122Y8654552D01*
X32593078Y8666288D01*
X32686350Y8728610D01*
X32705595Y8744404D01*
X32721390Y8763650D01*
X32783712Y8856922D01*
X32795448Y8878879D01*
X32802675Y8902702D01*
X32841517Y9097969D01*
X32875769Y9149231D01*
X32927031Y9183483D01*
X33000011Y9198000D01*
X34040008Y9198000D01*
X34133871Y9183134D01*
%TA.AperFunction,Conductor*%
G36*
X34133871Y9183134D02*
G01*
X34209533Y9144582D01*
X34269582Y9084533D01*
X34308134Y9008871D01*
X34323000Y8915008D01*
X34323000Y5334992D01*
X34308134Y5241129D01*
X34269582Y5165467D01*
X34209533Y5105418D01*
X34133871Y5066866D01*
X34040008Y5052000D01*
X33209992Y5052000D01*
X33116129Y5066866D01*
X33040467Y5105418D01*
X32980418Y5165467D01*
X32941866Y5241129D01*
X32927000Y5334992D01*
X32927000Y7800000D01*
X32925436Y7819867D01*
X32905859Y7943474D01*
X32899573Y7967563D01*
X32893581Y7981264D01*
X32836765Y8092771D01*
X32823342Y8113739D01*
X32813410Y8124917D01*
X32724917Y8213410D01*
X32705671Y8229204D01*
X32692771Y8236765D01*
X32581264Y8293581D01*
X32558080Y8302655D01*
X32543474Y8305859D01*
X32419867Y8325436D01*
X32400000Y8327000D01*
X30762509Y8327000D01*
X30694314Y8340565D01*
X30647108Y8372108D01*
X30615565Y8419314D01*
X30604488Y8475000D01*
X30615565Y8530686D01*
X30647108Y8577892D01*
X30694314Y8609435D01*
X30762509Y8623000D01*
X32412500Y8623000D01*
X32437277Y8625440D01*
X32547298Y8647325D01*
X32571122Y8654552D01*
X32593078Y8666288D01*
X32686350Y8728610D01*
X32705595Y8744404D01*
X32721390Y8763650D01*
X32783712Y8856922D01*
X32795448Y8878879D01*
X32802675Y8902702D01*
X32841517Y9097969D01*
X32875769Y9149231D01*
X32927031Y9183483D01*
X33000011Y9198000D01*
X34040008Y9198000D01*
X34133871Y9183134D01*
G37*
%TD.AperFunction*%
X29283871Y31133134D02*
X29359533Y31094582D01*
X29419582Y31034533D01*
X29458134Y30958871D01*
X29473000Y30865008D01*
X29473000Y27634992D01*
X29458134Y27541129D01*
X29419582Y27465467D01*
X29359533Y27405418D01*
X29283871Y27366866D01*
X29190008Y27352000D01*
X24584992Y27352000D01*
X24491129Y27366866D01*
X24415467Y27405418D01*
X24355418Y27465467D01*
X24316866Y27541129D01*
X24302000Y27634992D01*
X24302000Y30665008D01*
X24316866Y30758871D01*
X24355418Y30834533D01*
X24415467Y30894582D01*
X24491129Y30933134D01*
X24584992Y30948000D01*
X25290008Y30948000D01*
X25383871Y30933134D01*
X25459533Y30894582D01*
X25519582Y30834533D01*
X25558134Y30758871D01*
X25573000Y30665008D01*
X25573000Y28600000D01*
X25574564Y28580133D01*
X25594141Y28456526D01*
X25600427Y28432437D01*
X25606419Y28418736D01*
X25663235Y28307229D01*
X25676658Y28286261D01*
X25686590Y28275083D01*
X25775083Y28186590D01*
X25794329Y28170796D01*
X25807229Y28163235D01*
X25918736Y28106419D01*
X25941920Y28097345D01*
X25956526Y28094141D01*
X26080133Y28074564D01*
X26100000Y28073000D01*
X27016524Y28073000D01*
X27037500Y28070934D01*
X27305362Y28070934D01*
X27324999Y28069000D01*
X27344636Y28070934D01*
X27612500Y28070934D01*
X27633476Y28073000D01*
X28175000Y28073000D01*
X28194867Y28074564D01*
X28318474Y28094141D01*
X28342563Y28100427D01*
X28356264Y28106419D01*
X28467771Y28163235D01*
X28488739Y28176658D01*
X28499917Y28186590D01*
X28588410Y28275083D01*
X28604204Y28294329D01*
X28611765Y28307229D01*
X28668581Y28418736D01*
X28677655Y28441920D01*
X28680859Y28456526D01*
X28700436Y28580133D01*
X28702000Y28600000D01*
X28702000Y30865008D01*
X28716866Y30958871D01*
X28755418Y31034533D01*
X28815467Y31094582D01*
X28891129Y31133134D01*
X28984992Y31148000D01*
X29190008Y31148000D01*
X29283871Y31133134D01*
%TA.AperFunction,Conductor*%
G36*
X29283871Y31133134D02*
G01*
X29359533Y31094582D01*
X29419582Y31034533D01*
X29458134Y30958871D01*
X29473000Y30865008D01*
X29473000Y27634992D01*
X29458134Y27541129D01*
X29419582Y27465467D01*
X29359533Y27405418D01*
X29283871Y27366866D01*
X29190008Y27352000D01*
X24584992Y27352000D01*
X24491129Y27366866D01*
X24415467Y27405418D01*
X24355418Y27465467D01*
X24316866Y27541129D01*
X24302000Y27634992D01*
X24302000Y30665008D01*
X24316866Y30758871D01*
X24355418Y30834533D01*
X24415467Y30894582D01*
X24491129Y30933134D01*
X24584992Y30948000D01*
X25290008Y30948000D01*
X25383871Y30933134D01*
X25459533Y30894582D01*
X25519582Y30834533D01*
X25558134Y30758871D01*
X25573000Y30665008D01*
X25573000Y28600000D01*
X25574564Y28580133D01*
X25594141Y28456526D01*
X25600427Y28432437D01*
X25606419Y28418736D01*
X25663235Y28307229D01*
X25676658Y28286261D01*
X25686590Y28275083D01*
X25775083Y28186590D01*
X25794329Y28170796D01*
X25807229Y28163235D01*
X25918736Y28106419D01*
X25941920Y28097345D01*
X25956526Y28094141D01*
X26080133Y28074564D01*
X26100000Y28073000D01*
X27016524Y28073000D01*
X27037500Y28070934D01*
X27305362Y28070934D01*
X27324999Y28069000D01*
X27344636Y28070934D01*
X27612500Y28070934D01*
X27633476Y28073000D01*
X28175000Y28073000D01*
X28194867Y28074564D01*
X28318474Y28094141D01*
X28342563Y28100427D01*
X28356264Y28106419D01*
X28467771Y28163235D01*
X28488739Y28176658D01*
X28499917Y28186590D01*
X28588410Y28275083D01*
X28604204Y28294329D01*
X28611765Y28307229D01*
X28668581Y28418736D01*
X28677655Y28441920D01*
X28680859Y28456526D01*
X28700436Y28580133D01*
X28702000Y28600000D01*
X28702000Y30865008D01*
X28716866Y30958871D01*
X28755418Y31034533D01*
X28815467Y31094582D01*
X28891129Y31133134D01*
X28984992Y31148000D01*
X29190008Y31148000D01*
X29283871Y31133134D01*
G37*
%TD.AperFunction*%
X26108871Y34308134D02*
X26184533Y34269582D01*
X26244582Y34209533D01*
X26283134Y34133871D01*
X26298000Y34040008D01*
X26298000Y32184992D01*
X26283134Y32091129D01*
X26244582Y32015467D01*
X26184533Y31955418D01*
X26108871Y31916866D01*
X26015008Y31902000D01*
X24584992Y31902000D01*
X24491129Y31916866D01*
X24415467Y31955418D01*
X24355418Y32015467D01*
X24316866Y32091129D01*
X24302000Y32184992D01*
X24302000Y34040008D01*
X24316866Y34133871D01*
X24355418Y34209533D01*
X24415467Y34269582D01*
X24491129Y34308134D01*
X24584992Y34323000D01*
X26015008Y34323000D01*
X26108871Y34308134D01*
%TA.AperFunction,Conductor*%
G36*
X26108871Y34308134D02*
G01*
X26184533Y34269582D01*
X26244582Y34209533D01*
X26283134Y34133871D01*
X26298000Y34040008D01*
X26298000Y32184992D01*
X26283134Y32091129D01*
X26244582Y32015467D01*
X26184533Y31955418D01*
X26108871Y31916866D01*
X26015008Y31902000D01*
X24584992Y31902000D01*
X24491129Y31916866D01*
X24415467Y31955418D01*
X24355418Y32015467D01*
X24316866Y32091129D01*
X24302000Y32184992D01*
X24302000Y34040008D01*
X24316866Y34133871D01*
X24355418Y34209533D01*
X24415467Y34269582D01*
X24491129Y34308134D01*
X24584992Y34323000D01*
X26015008Y34323000D01*
X26108871Y34308134D01*
G37*
%TD.AperFunction*%
X34415251Y24237533D02*
X34470570Y24200570D01*
X34507533Y24145251D01*
X34523000Y24067491D01*
X34523000Y22409992D01*
X34508134Y22316129D01*
X34469582Y22240467D01*
X34409533Y22180418D01*
X34333871Y22141866D01*
X34240008Y22127000D01*
X30784992Y22127000D01*
X30691129Y22141866D01*
X30615467Y22180418D01*
X30555418Y22240467D01*
X30516866Y22316129D01*
X30502000Y22409992D01*
X30502000Y22965008D01*
X30516866Y23058871D01*
X30555418Y23134533D01*
X30615467Y23194582D01*
X30691129Y23233134D01*
X30784992Y23248000D01*
X31832500Y23248000D01*
X31865370Y23252327D01*
X31924120Y23268069D01*
X31947421Y23276839D01*
X31968563Y23289986D01*
X31981053Y23300939D01*
X32024061Y23343947D01*
X32039855Y23363193D01*
X32051591Y23385149D01*
X32056931Y23400880D01*
X32078526Y23481474D01*
X32084221Y23483000D01*
X33665000Y23483000D01*
X33684867Y23484564D01*
X33803839Y23503407D01*
X33827929Y23509693D01*
X33841629Y23515685D01*
X33948954Y23570370D01*
X33969922Y23583793D01*
X33981100Y23593725D01*
X34066275Y23678900D01*
X34082069Y23698146D01*
X34089630Y23711046D01*
X34144315Y23818371D01*
X34153389Y23841555D01*
X34156593Y23856161D01*
X34175436Y23975133D01*
X34177000Y23995000D01*
X34177000Y24067491D01*
X34192467Y24145251D01*
X34229430Y24200570D01*
X34284749Y24237533D01*
X34350000Y24250512D01*
X34415251Y24237533D01*
%TA.AperFunction,Conductor*%
G36*
X34415251Y24237533D02*
G01*
X34470570Y24200570D01*
X34507533Y24145251D01*
X34523000Y24067491D01*
X34523000Y22409992D01*
X34508134Y22316129D01*
X34469582Y22240467D01*
X34409533Y22180418D01*
X34333871Y22141866D01*
X34240008Y22127000D01*
X30784992Y22127000D01*
X30691129Y22141866D01*
X30615467Y22180418D01*
X30555418Y22240467D01*
X30516866Y22316129D01*
X30502000Y22409992D01*
X30502000Y22965008D01*
X30516866Y23058871D01*
X30555418Y23134533D01*
X30615467Y23194582D01*
X30691129Y23233134D01*
X30784992Y23248000D01*
X31832500Y23248000D01*
X31865370Y23252327D01*
X31924120Y23268069D01*
X31947421Y23276839D01*
X31968563Y23289986D01*
X31981053Y23300939D01*
X32024061Y23343947D01*
X32039855Y23363193D01*
X32051591Y23385149D01*
X32056931Y23400880D01*
X32078526Y23481474D01*
X32084221Y23483000D01*
X33665000Y23483000D01*
X33684867Y23484564D01*
X33803839Y23503407D01*
X33827929Y23509693D01*
X33841629Y23515685D01*
X33948954Y23570370D01*
X33969922Y23583793D01*
X33981100Y23593725D01*
X34066275Y23678900D01*
X34082069Y23698146D01*
X34089630Y23711046D01*
X34144315Y23818371D01*
X34153389Y23841555D01*
X34156593Y23856161D01*
X34175436Y23975133D01*
X34177000Y23995000D01*
X34177000Y24067491D01*
X34192467Y24145251D01*
X34229430Y24200570D01*
X34284749Y24237533D01*
X34350000Y24250512D01*
X34415251Y24237533D01*
G37*
%TD.AperFunction*%
X18883871Y11388134D02*
X18959533Y11349582D01*
X19019582Y11289533D01*
X19058134Y11213871D01*
X19073000Y11120008D01*
X19073000Y10530000D01*
X19077327Y10497130D01*
X19102782Y10402130D01*
X19111552Y10378830D01*
X19124699Y10357687D01*
X19135652Y10345197D01*
X19205197Y10275652D01*
X19224443Y10259858D01*
X19246399Y10248122D01*
X19262130Y10242782D01*
X19419259Y10200680D01*
X19440680Y10179259D01*
X19453000Y10133279D01*
X19453000Y10082511D01*
X19439815Y10016227D01*
X19409357Y9970643D01*
X19363773Y9940185D01*
X19297489Y9927000D01*
X18565998Y9927000D01*
X18557291Y9927428D01*
X18466129Y9941866D01*
X18390467Y9980418D01*
X18330418Y10040467D01*
X18291866Y10116129D01*
X18277000Y10209992D01*
X18277000Y11120008D01*
X18291866Y11213871D01*
X18330418Y11289533D01*
X18390467Y11349582D01*
X18466129Y11388134D01*
X18559992Y11403000D01*
X18790008Y11403000D01*
X18883871Y11388134D01*
%TA.AperFunction,Conductor*%
G36*
X18883871Y11388134D02*
G01*
X18959533Y11349582D01*
X19019582Y11289533D01*
X19058134Y11213871D01*
X19073000Y11120008D01*
X19073000Y10530000D01*
X19077327Y10497130D01*
X19102782Y10402130D01*
X19111552Y10378830D01*
X19124699Y10357687D01*
X19135652Y10345197D01*
X19205197Y10275652D01*
X19224443Y10259858D01*
X19246399Y10248122D01*
X19262130Y10242782D01*
X19419259Y10200680D01*
X19440680Y10179259D01*
X19453000Y10133279D01*
X19453000Y10082511D01*
X19439815Y10016227D01*
X19409357Y9970643D01*
X19363773Y9940185D01*
X19297489Y9927000D01*
X18565998Y9927000D01*
X18557291Y9927428D01*
X18466129Y9941866D01*
X18390467Y9980418D01*
X18330418Y10040467D01*
X18291866Y10116129D01*
X18277000Y10209992D01*
X18277000Y11120008D01*
X18291866Y11213871D01*
X18330418Y11289533D01*
X18390467Y11349582D01*
X18466129Y11388134D01*
X18559992Y11403000D01*
X18790008Y11403000D01*
X18883871Y11388134D01*
G37*
%TD.AperFunction*%
X30310804Y11003595D02*
X30391293Y10979178D01*
X30475000Y10970934D01*
X31932541Y10970934D01*
X31959435Y10930686D01*
X31970512Y10875000D01*
X31959435Y10819314D01*
X31932541Y10779066D01*
X30475000Y10779066D01*
X30391293Y10770822D01*
X30310804Y10746405D01*
X30236624Y10706755D01*
X30171605Y10653395D01*
X30118245Y10588376D01*
X30078595Y10514196D01*
X30054178Y10433707D01*
X30046228Y10352990D01*
X30044141Y10343474D01*
X30024564Y10219867D01*
X30023000Y10200000D01*
X30023000Y8184992D01*
X30008134Y8091129D01*
X29969582Y8015467D01*
X29909533Y7955418D01*
X29833871Y7916866D01*
X29740008Y7902000D01*
X24484992Y7902000D01*
X24391129Y7916866D01*
X24315467Y7955418D01*
X24255418Y8015467D01*
X24216866Y8091129D01*
X24202000Y8184992D01*
X24202000Y9400000D01*
X24200436Y9419867D01*
X24180859Y9543474D01*
X24174573Y9567563D01*
X24168581Y9581264D01*
X24111765Y9692771D01*
X24098342Y9713739D01*
X24088410Y9724917D01*
X23999917Y9813410D01*
X23980671Y9829204D01*
X23967771Y9836765D01*
X23856264Y9893581D01*
X23833080Y9902655D01*
X23818474Y9905859D01*
X23813510Y9906645D01*
X23813376Y9906755D01*
X23739196Y9946405D01*
X23658707Y9970822D01*
X23575000Y9979066D01*
X23442459Y9979066D01*
X23415565Y10019314D01*
X23404488Y10075000D01*
X23415565Y10130686D01*
X23442459Y10170934D01*
X23575000Y10170934D01*
X23658707Y10179178D01*
X23739196Y10203595D01*
X23775500Y10223000D01*
X26573459Y10223000D01*
X26617553Y10202145D01*
X26617559Y10202143D01*
X26617565Y10202140D01*
X26957377Y10080552D01*
X26957390Y10080549D01*
X26957395Y10080547D01*
X27016064Y10065851D01*
X27054326Y10056267D01*
X27054328Y10056267D01*
X27307489Y9992854D01*
X27307499Y9992852D01*
X27664502Y9939895D01*
X27664514Y9939894D01*
X27664517Y9939894D01*
X27702104Y9938047D01*
X27764326Y9934990D01*
X27764328Y9934990D01*
X27975190Y9924631D01*
X27991748Y9923000D01*
X28008384Y9923000D01*
X28024993Y9922184D01*
X28041603Y9923000D01*
X28274643Y9923000D01*
X28358269Y9867123D01*
X28508773Y9804782D01*
X28668548Y9773000D01*
X28831452Y9773000D01*
X28991227Y9804782D01*
X29141731Y9867123D01*
X29277181Y9957628D01*
X29392372Y10072819D01*
X29482877Y10208269D01*
X29545218Y10358773D01*
X29577000Y10518548D01*
X29577000Y10681452D01*
X29545218Y10841227D01*
X29506232Y10935347D01*
X29540467Y10969582D01*
X29616129Y11008134D01*
X29709992Y11023000D01*
X30274500Y11023000D01*
X30310804Y11003595D01*
%TA.AperFunction,Conductor*%
G36*
X30310804Y11003595D02*
G01*
X30391293Y10979178D01*
X30475000Y10970934D01*
X31932541Y10970934D01*
X31959435Y10930686D01*
X31970512Y10875000D01*
X31959435Y10819314D01*
X31932541Y10779066D01*
X30475000Y10779066D01*
X30391293Y10770822D01*
X30310804Y10746405D01*
X30236624Y10706755D01*
X30171605Y10653395D01*
X30118245Y10588376D01*
X30078595Y10514196D01*
X30054178Y10433707D01*
X30046228Y10352990D01*
X30044141Y10343474D01*
X30024564Y10219867D01*
X30023000Y10200000D01*
X30023000Y8184992D01*
X30008134Y8091129D01*
X29969582Y8015467D01*
X29909533Y7955418D01*
X29833871Y7916866D01*
X29740008Y7902000D01*
X24484992Y7902000D01*
X24391129Y7916866D01*
X24315467Y7955418D01*
X24255418Y8015467D01*
X24216866Y8091129D01*
X24202000Y8184992D01*
X24202000Y9400000D01*
X24200436Y9419867D01*
X24180859Y9543474D01*
X24174573Y9567563D01*
X24168581Y9581264D01*
X24111765Y9692771D01*
X24098342Y9713739D01*
X24088410Y9724917D01*
X23999917Y9813410D01*
X23980671Y9829204D01*
X23967771Y9836765D01*
X23856264Y9893581D01*
X23833080Y9902655D01*
X23818474Y9905859D01*
X23813510Y9906645D01*
X23813376Y9906755D01*
X23739196Y9946405D01*
X23658707Y9970822D01*
X23575000Y9979066D01*
X23442459Y9979066D01*
X23415565Y10019314D01*
X23404488Y10075000D01*
X23415565Y10130686D01*
X23442459Y10170934D01*
X23575000Y10170934D01*
X23658707Y10179178D01*
X23739196Y10203595D01*
X23775500Y10223000D01*
X26573459Y10223000D01*
X26617553Y10202145D01*
X26617559Y10202143D01*
X26617565Y10202140D01*
X26957377Y10080552D01*
X26957390Y10080549D01*
X26957395Y10080547D01*
X27016064Y10065851D01*
X27054326Y10056267D01*
X27054328Y10056267D01*
X27307489Y9992854D01*
X27307499Y9992852D01*
X27664502Y9939895D01*
X27664514Y9939894D01*
X27664517Y9939894D01*
X27702104Y9938047D01*
X27764326Y9934990D01*
X27764328Y9934990D01*
X27975190Y9924631D01*
X27991748Y9923000D01*
X28008384Y9923000D01*
X28024993Y9922184D01*
X28041603Y9923000D01*
X28274643Y9923000D01*
X28358269Y9867123D01*
X28508773Y9804782D01*
X28668548Y9773000D01*
X28831452Y9773000D01*
X28991227Y9804782D01*
X29141731Y9867123D01*
X29277181Y9957628D01*
X29392372Y10072819D01*
X29482877Y10208269D01*
X29545218Y10358773D01*
X29577000Y10518548D01*
X29577000Y10681452D01*
X29545218Y10841227D01*
X29506232Y10935347D01*
X29540467Y10969582D01*
X29616129Y11008134D01*
X29709992Y11023000D01*
X30274500Y11023000D01*
X30310804Y11003595D01*
G37*
%TD.AperFunction*%
X7815251Y32707533D02*
X7870570Y32670570D01*
X7907533Y32615251D01*
X7923000Y32537491D01*
X7923000Y30859992D01*
X7908134Y30766129D01*
X7869582Y30690467D01*
X7809533Y30630418D01*
X7733871Y30591866D01*
X7640008Y30577000D01*
X5209992Y30577000D01*
X5116129Y30591866D01*
X5040467Y30630418D01*
X4980418Y30690467D01*
X4941866Y30766129D01*
X4927000Y30859992D01*
X4927000Y31865008D01*
X4941866Y31958871D01*
X4980418Y32034533D01*
X5040467Y32094582D01*
X5116129Y32133134D01*
X5209992Y32148000D01*
X7162500Y32148000D01*
X7187277Y32150440D01*
X7297298Y32172325D01*
X7321122Y32179552D01*
X7343078Y32191288D01*
X7436350Y32253610D01*
X7455595Y32269404D01*
X7471390Y32288650D01*
X7533712Y32381922D01*
X7545448Y32403879D01*
X7552675Y32427702D01*
X7591517Y32622969D01*
X7625769Y32674231D01*
X7677031Y32708483D01*
X7743751Y32721755D01*
X7815251Y32707533D01*
%TA.AperFunction,Conductor*%
G36*
X7815251Y32707533D02*
G01*
X7870570Y32670570D01*
X7907533Y32615251D01*
X7923000Y32537491D01*
X7923000Y30859992D01*
X7908134Y30766129D01*
X7869582Y30690467D01*
X7809533Y30630418D01*
X7733871Y30591866D01*
X7640008Y30577000D01*
X5209992Y30577000D01*
X5116129Y30591866D01*
X5040467Y30630418D01*
X4980418Y30690467D01*
X4941866Y30766129D01*
X4927000Y30859992D01*
X4927000Y31865008D01*
X4941866Y31958871D01*
X4980418Y32034533D01*
X5040467Y32094582D01*
X5116129Y32133134D01*
X5209992Y32148000D01*
X7162500Y32148000D01*
X7187277Y32150440D01*
X7297298Y32172325D01*
X7321122Y32179552D01*
X7343078Y32191288D01*
X7436350Y32253610D01*
X7455595Y32269404D01*
X7471390Y32288650D01*
X7533712Y32381922D01*
X7545448Y32403879D01*
X7552675Y32427702D01*
X7591517Y32622969D01*
X7625769Y32674231D01*
X7677031Y32708483D01*
X7743751Y32721755D01*
X7815251Y32707533D01*
G37*
%TD.AperFunction*%
X4083871Y42283134D02*
X4159533Y42244582D01*
X4219582Y42184533D01*
X4258134Y42108871D01*
X4273000Y42015008D01*
X4273000Y40134992D01*
X4258134Y40041129D01*
X4219582Y39965467D01*
X4159533Y39905418D01*
X4083871Y39866866D01*
X3990008Y39852000D01*
X3509992Y39852000D01*
X3416129Y39866866D01*
X3340467Y39905418D01*
X3280418Y39965467D01*
X3241866Y40041129D01*
X3227000Y40134992D01*
X3227000Y42015008D01*
X3241866Y42108871D01*
X3280418Y42184533D01*
X3340467Y42244582D01*
X3416129Y42283134D01*
X3509992Y42298000D01*
X3990008Y42298000D01*
X4083871Y42283134D01*
%TA.AperFunction,Conductor*%
G36*
X4083871Y42283134D02*
G01*
X4159533Y42244582D01*
X4219582Y42184533D01*
X4258134Y42108871D01*
X4273000Y42015008D01*
X4273000Y40134992D01*
X4258134Y40041129D01*
X4219582Y39965467D01*
X4159533Y39905418D01*
X4083871Y39866866D01*
X3990008Y39852000D01*
X3509992Y39852000D01*
X3416129Y39866866D01*
X3340467Y39905418D01*
X3280418Y39965467D01*
X3241866Y40041129D01*
X3227000Y40134992D01*
X3227000Y42015008D01*
X3241866Y42108871D01*
X3280418Y42184533D01*
X3340467Y42244582D01*
X3416129Y42283134D01*
X3509992Y42298000D01*
X3990008Y42298000D01*
X4083871Y42283134D01*
G37*
%TD.AperFunction*%
X21996257Y24909231D02*
X22085955Y24872077D01*
X22162976Y24812976D01*
X22222077Y24735955D01*
X22259231Y24646257D01*
X22271904Y24550000D01*
X22259231Y24453743D01*
X22222077Y24364045D01*
X22162976Y24287024D01*
X22085955Y24227923D01*
X21996257Y24190769D01*
X21891672Y24177000D01*
X21800000Y24177000D01*
X21783423Y24175913D01*
X21628132Y24155468D01*
X21596109Y24146888D01*
X21451400Y24086948D01*
X21422687Y24070371D01*
X21298423Y23975020D01*
X21274980Y23951577D01*
X21179629Y23827313D01*
X21163052Y23798600D01*
X21103112Y23653891D01*
X21094532Y23621868D01*
X21074087Y23466577D01*
X21073000Y23450000D01*
X21073000Y22822509D01*
X21057533Y22744749D01*
X21020570Y22689430D01*
X20965251Y22652467D01*
X20900000Y22639488D01*
X20834749Y22652467D01*
X20779430Y22689430D01*
X20742467Y22744749D01*
X20727000Y22822509D01*
X20727000Y23280000D01*
X20726201Y23294220D01*
X20706895Y23465561D01*
X20700567Y23493286D01*
X20643619Y23656035D01*
X20631280Y23681658D01*
X20539544Y23827655D01*
X20521813Y23849890D01*
X20399890Y23971813D01*
X20377655Y23989544D01*
X20231658Y24081280D01*
X20206035Y24093619D01*
X20043286Y24150567D01*
X20015561Y24156895D01*
X19844220Y24176201D01*
X19830000Y24177000D01*
X17560000Y24177000D01*
X17545780Y24176201D01*
X17374439Y24156895D01*
X17346714Y24150567D01*
X17183965Y24093619D01*
X17158342Y24081280D01*
X17012345Y23989544D01*
X16990110Y23971813D01*
X16868187Y23849890D01*
X16850456Y23827655D01*
X16758720Y23681658D01*
X16746381Y23656035D01*
X16689433Y23493286D01*
X16683105Y23465561D01*
X16663799Y23294220D01*
X16663000Y23280000D01*
X16663000Y22822509D01*
X16647533Y22744749D01*
X16610570Y22689430D01*
X16555251Y22652467D01*
X16490000Y22639488D01*
X16424749Y22652467D01*
X16369430Y22689430D01*
X16332467Y22744749D01*
X16317000Y22822509D01*
X16317000Y24043766D01*
X16334376Y24220189D01*
X16384022Y24383850D01*
X16464638Y24534672D01*
X16573130Y24666870D01*
X16705328Y24775362D01*
X16856150Y24855978D01*
X17019811Y24905624D01*
X17196234Y24923000D01*
X21891672Y24923000D01*
X21996257Y24909231D01*
%TA.AperFunction,Conductor*%
G36*
X21996257Y24909231D02*
G01*
X22085955Y24872077D01*
X22162976Y24812976D01*
X22222077Y24735955D01*
X22259231Y24646257D01*
X22271904Y24550000D01*
X22259231Y24453743D01*
X22222077Y24364045D01*
X22162976Y24287024D01*
X22085955Y24227923D01*
X21996257Y24190769D01*
X21891672Y24177000D01*
X21800000Y24177000D01*
X21783423Y24175913D01*
X21628132Y24155468D01*
X21596109Y24146888D01*
X21451400Y24086948D01*
X21422687Y24070371D01*
X21298423Y23975020D01*
X21274980Y23951577D01*
X21179629Y23827313D01*
X21163052Y23798600D01*
X21103112Y23653891D01*
X21094532Y23621868D01*
X21074087Y23466577D01*
X21073000Y23450000D01*
X21073000Y22822509D01*
X21057533Y22744749D01*
X21020570Y22689430D01*
X20965251Y22652467D01*
X20900000Y22639488D01*
X20834749Y22652467D01*
X20779430Y22689430D01*
X20742467Y22744749D01*
X20727000Y22822509D01*
X20727000Y23280000D01*
X20726201Y23294220D01*
X20706895Y23465561D01*
X20700567Y23493286D01*
X20643619Y23656035D01*
X20631280Y23681658D01*
X20539544Y23827655D01*
X20521813Y23849890D01*
X20399890Y23971813D01*
X20377655Y23989544D01*
X20231658Y24081280D01*
X20206035Y24093619D01*
X20043286Y24150567D01*
X20015561Y24156895D01*
X19844220Y24176201D01*
X19830000Y24177000D01*
X17560000Y24177000D01*
X17545780Y24176201D01*
X17374439Y24156895D01*
X17346714Y24150567D01*
X17183965Y24093619D01*
X17158342Y24081280D01*
X17012345Y23989544D01*
X16990110Y23971813D01*
X16868187Y23849890D01*
X16850456Y23827655D01*
X16758720Y23681658D01*
X16746381Y23656035D01*
X16689433Y23493286D01*
X16683105Y23465561D01*
X16663799Y23294220D01*
X16663000Y23280000D01*
X16663000Y22822509D01*
X16647533Y22744749D01*
X16610570Y22689430D01*
X16555251Y22652467D01*
X16490000Y22639488D01*
X16424749Y22652467D01*
X16369430Y22689430D01*
X16332467Y22744749D01*
X16317000Y22822509D01*
X16317000Y24043766D01*
X16334376Y24220189D01*
X16384022Y24383850D01*
X16464638Y24534672D01*
X16573130Y24666870D01*
X16705328Y24775362D01*
X16856150Y24855978D01*
X17019811Y24905624D01*
X17196234Y24923000D01*
X21891672Y24923000D01*
X21996257Y24909231D01*
G37*
%TD.AperFunction*%
X33333871Y11008134D02*
X33409533Y10969582D01*
X33469582Y10909533D01*
X33508134Y10833871D01*
X33523000Y10740008D01*
X33523000Y10429992D01*
X33508134Y10336129D01*
X33469582Y10260467D01*
X33409533Y10200418D01*
X33333871Y10161866D01*
X33240008Y10147000D01*
X33002510Y10147000D01*
X32928574Y10161707D01*
X32876501Y10196501D01*
X32841707Y10248574D01*
X32802485Y10445755D01*
X32795258Y10469579D01*
X32783522Y10491535D01*
X32720658Y10585618D01*
X32704864Y10604863D01*
X32685618Y10620658D01*
X32591535Y10683522D01*
X32569579Y10695258D01*
X32545755Y10702485D01*
X32434777Y10724560D01*
X32410000Y10727000D01*
X31817509Y10727000D01*
X31749314Y10740565D01*
X31702108Y10772108D01*
X31670565Y10819314D01*
X31659488Y10875000D01*
X31670565Y10930686D01*
X31702108Y10977892D01*
X31749314Y11009435D01*
X31817509Y11023000D01*
X33240008Y11023000D01*
X33333871Y11008134D01*
%TA.AperFunction,Conductor*%
G36*
X33333871Y11008134D02*
G01*
X33409533Y10969582D01*
X33469582Y10909533D01*
X33508134Y10833871D01*
X33523000Y10740008D01*
X33523000Y10429992D01*
X33508134Y10336129D01*
X33469582Y10260467D01*
X33409533Y10200418D01*
X33333871Y10161866D01*
X33240008Y10147000D01*
X33002510Y10147000D01*
X32928574Y10161707D01*
X32876501Y10196501D01*
X32841707Y10248574D01*
X32802485Y10445755D01*
X32795258Y10469579D01*
X32783522Y10491535D01*
X32720658Y10585618D01*
X32704864Y10604863D01*
X32685618Y10620658D01*
X32591535Y10683522D01*
X32569579Y10695258D01*
X32545755Y10702485D01*
X32434777Y10724560D01*
X32410000Y10727000D01*
X31817509Y10727000D01*
X31749314Y10740565D01*
X31702108Y10772108D01*
X31670565Y10819314D01*
X31659488Y10875000D01*
X31670565Y10930686D01*
X31702108Y10977892D01*
X31749314Y11009435D01*
X31817509Y11023000D01*
X33240008Y11023000D01*
X33333871Y11008134D01*
G37*
%TD.AperFunction*%
X18111552Y28438241D02*
X18142537Y28417537D01*
X18163241Y28386552D01*
X18171418Y28345444D01*
X18171418Y27075000D01*
X18173000Y27058939D01*
X18173000Y26896507D01*
X18174086Y26879930D01*
X18191123Y26750520D01*
X18199704Y26718496D01*
X18249654Y26597906D01*
X18266232Y26569194D01*
X18345692Y26465641D01*
X18369134Y26442199D01*
X18472687Y26362739D01*
X18501399Y26346161D01*
X18621989Y26296211D01*
X18654013Y26287630D01*
X18783423Y26270593D01*
X18800000Y26269507D01*
X18965008Y26269507D01*
X19082047Y26250970D01*
X19178617Y26201765D01*
X19255258Y26125124D01*
X19304463Y26028554D01*
X19321417Y25921507D01*
X19304463Y25814460D01*
X19255258Y25717890D01*
X19178617Y25641249D01*
X19082047Y25592044D01*
X18965008Y25573507D01*
X16934992Y25573507D01*
X16817953Y25592044D01*
X16721383Y25641249D01*
X16644742Y25717890D01*
X16595537Y25814460D01*
X16578583Y25921507D01*
X16595537Y26028554D01*
X16644742Y26125124D01*
X16721383Y26201765D01*
X16817953Y26250970D01*
X16934992Y26269507D01*
X17350000Y26269507D01*
X17366577Y26270593D01*
X17495987Y26287630D01*
X17528011Y26296211D01*
X17648601Y26346161D01*
X17677313Y26362739D01*
X17780866Y26442199D01*
X17804308Y26465641D01*
X17883768Y26569194D01*
X17900346Y26597906D01*
X17950296Y26718496D01*
X17958877Y26750520D01*
X17975914Y26879930D01*
X17977000Y26896507D01*
X17977000Y27058939D01*
X17978582Y27075000D01*
X17978582Y28345444D01*
X17986759Y28386552D01*
X18007463Y28417537D01*
X18038448Y28438241D01*
X18075000Y28445512D01*
X18111552Y28438241D01*
%TA.AperFunction,Conductor*%
G36*
X18111552Y28438241D02*
G01*
X18142537Y28417537D01*
X18163241Y28386552D01*
X18171418Y28345444D01*
X18171418Y27075000D01*
X18173000Y27058939D01*
X18173000Y26896507D01*
X18174086Y26879930D01*
X18191123Y26750520D01*
X18199704Y26718496D01*
X18249654Y26597906D01*
X18266232Y26569194D01*
X18345692Y26465641D01*
X18369134Y26442199D01*
X18472687Y26362739D01*
X18501399Y26346161D01*
X18621989Y26296211D01*
X18654013Y26287630D01*
X18783423Y26270593D01*
X18800000Y26269507D01*
X18965008Y26269507D01*
X19082047Y26250970D01*
X19178617Y26201765D01*
X19255258Y26125124D01*
X19304463Y26028554D01*
X19321417Y25921507D01*
X19304463Y25814460D01*
X19255258Y25717890D01*
X19178617Y25641249D01*
X19082047Y25592044D01*
X18965008Y25573507D01*
X16934992Y25573507D01*
X16817953Y25592044D01*
X16721383Y25641249D01*
X16644742Y25717890D01*
X16595537Y25814460D01*
X16578583Y25921507D01*
X16595537Y26028554D01*
X16644742Y26125124D01*
X16721383Y26201765D01*
X16817953Y26250970D01*
X16934992Y26269507D01*
X17350000Y26269507D01*
X17366577Y26270593D01*
X17495987Y26287630D01*
X17528011Y26296211D01*
X17648601Y26346161D01*
X17677313Y26362739D01*
X17780866Y26442199D01*
X17804308Y26465641D01*
X17883768Y26569194D01*
X17900346Y26597906D01*
X17950296Y26718496D01*
X17958877Y26750520D01*
X17975914Y26879930D01*
X17977000Y26896507D01*
X17977000Y27058939D01*
X17978582Y27075000D01*
X17978582Y28345444D01*
X17986759Y28386552D01*
X18007463Y28417537D01*
X18038448Y28438241D01*
X18075000Y28445512D01*
X18111552Y28438241D01*
G37*
%TD.AperFunction*%
X61696257Y70859231D02*
X61748000Y70837798D01*
X61748000Y61662202D01*
X61696257Y61640769D01*
X61591672Y61627000D01*
X44308328Y61627000D01*
X44203743Y61640769D01*
X44114045Y61677923D01*
X44037024Y61737024D01*
X43977923Y61814045D01*
X43940769Y61903743D01*
X43927000Y62008328D01*
X43927000Y62900000D01*
X43925914Y62916577D01*
X43908877Y63045987D01*
X43900296Y63078011D01*
X43850346Y63198601D01*
X43833768Y63227313D01*
X43754308Y63330866D01*
X43730866Y63354308D01*
X43627313Y63433768D01*
X43598601Y63450346D01*
X43478011Y63500296D01*
X43445987Y63508877D01*
X43316577Y63525914D01*
X43300000Y63527000D01*
X41200000Y63527000D01*
X41183423Y63525914D01*
X41054013Y63508877D01*
X41021989Y63500296D01*
X40901399Y63450346D01*
X40872687Y63433768D01*
X40769134Y63354308D01*
X40745692Y63330866D01*
X40666232Y63227313D01*
X40649654Y63198601D01*
X40599704Y63078011D01*
X40591123Y63045987D01*
X40574086Y62916577D01*
X40573000Y62900000D01*
X40573000Y62008328D01*
X40559231Y61903743D01*
X40522077Y61814045D01*
X40462976Y61737024D01*
X40385955Y61677923D01*
X40296257Y61640769D01*
X40191672Y61627000D01*
X33808328Y61627000D01*
X33703743Y61640769D01*
X33614045Y61677923D01*
X33537024Y61737024D01*
X33477923Y61814045D01*
X33440769Y61903743D01*
X33427000Y62008328D01*
X33427000Y62900000D01*
X33425914Y62916577D01*
X33408877Y63045987D01*
X33400296Y63078011D01*
X33350346Y63198601D01*
X33333768Y63227313D01*
X33254308Y63330866D01*
X33230866Y63354308D01*
X33127313Y63433768D01*
X33098601Y63450346D01*
X32978011Y63500296D01*
X32945987Y63508877D01*
X32816577Y63525914D01*
X32800000Y63527000D01*
X30800000Y63527000D01*
X30783423Y63525914D01*
X30654013Y63508877D01*
X30621989Y63500296D01*
X30501399Y63450346D01*
X30472687Y63433768D01*
X30369134Y63354308D01*
X30345692Y63330866D01*
X30266232Y63227313D01*
X30249654Y63198601D01*
X30199704Y63078011D01*
X30191123Y63045987D01*
X30174086Y62916577D01*
X30173000Y62900000D01*
X30173000Y62008328D01*
X30159231Y61903743D01*
X30122077Y61814045D01*
X30062976Y61737024D01*
X29985955Y61677923D01*
X29896257Y61640769D01*
X29791672Y61627000D01*
X23508328Y61627000D01*
X23403743Y61640769D01*
X23314045Y61677923D01*
X23237024Y61737024D01*
X23177923Y61814045D01*
X23140769Y61903743D01*
X23127000Y62008328D01*
X23127000Y70491672D01*
X23140769Y70596257D01*
X23177923Y70685955D01*
X23237024Y70762976D01*
X23314045Y70822077D01*
X23403743Y70859231D01*
X23508328Y70873000D01*
X61591672Y70873000D01*
X61696257Y70859231D01*
%TA.AperFunction,Conductor*%
G36*
X61696257Y70859231D02*
G01*
X61748000Y70837798D01*
X61748000Y61662202D01*
X61696257Y61640769D01*
X61591672Y61627000D01*
X44308328Y61627000D01*
X44203743Y61640769D01*
X44114045Y61677923D01*
X44037024Y61737024D01*
X43977923Y61814045D01*
X43940769Y61903743D01*
X43927000Y62008328D01*
X43927000Y62900000D01*
X43925914Y62916577D01*
X43908877Y63045987D01*
X43900296Y63078011D01*
X43850346Y63198601D01*
X43833768Y63227313D01*
X43754308Y63330866D01*
X43730866Y63354308D01*
X43627313Y63433768D01*
X43598601Y63450346D01*
X43478011Y63500296D01*
X43445987Y63508877D01*
X43316577Y63525914D01*
X43300000Y63527000D01*
X41200000Y63527000D01*
X41183423Y63525914D01*
X41054013Y63508877D01*
X41021989Y63500296D01*
X40901399Y63450346D01*
X40872687Y63433768D01*
X40769134Y63354308D01*
X40745692Y63330866D01*
X40666232Y63227313D01*
X40649654Y63198601D01*
X40599704Y63078011D01*
X40591123Y63045987D01*
X40574086Y62916577D01*
X40573000Y62900000D01*
X40573000Y62008328D01*
X40559231Y61903743D01*
X40522077Y61814045D01*
X40462976Y61737024D01*
X40385955Y61677923D01*
X40296257Y61640769D01*
X40191672Y61627000D01*
X33808328Y61627000D01*
X33703743Y61640769D01*
X33614045Y61677923D01*
X33537024Y61737024D01*
X33477923Y61814045D01*
X33440769Y61903743D01*
X33427000Y62008328D01*
X33427000Y62900000D01*
X33425914Y62916577D01*
X33408877Y63045987D01*
X33400296Y63078011D01*
X33350346Y63198601D01*
X33333768Y63227313D01*
X33254308Y63330866D01*
X33230866Y63354308D01*
X33127313Y63433768D01*
X33098601Y63450346D01*
X32978011Y63500296D01*
X32945987Y63508877D01*
X32816577Y63525914D01*
X32800000Y63527000D01*
X30800000Y63527000D01*
X30783423Y63525914D01*
X30654013Y63508877D01*
X30621989Y63500296D01*
X30501399Y63450346D01*
X30472687Y63433768D01*
X30369134Y63354308D01*
X30345692Y63330866D01*
X30266232Y63227313D01*
X30249654Y63198601D01*
X30199704Y63078011D01*
X30191123Y63045987D01*
X30174086Y62916577D01*
X30173000Y62900000D01*
X30173000Y62008328D01*
X30159231Y61903743D01*
X30122077Y61814045D01*
X30062976Y61737024D01*
X29985955Y61677923D01*
X29896257Y61640769D01*
X29791672Y61627000D01*
X23508328Y61627000D01*
X23403743Y61640769D01*
X23314045Y61677923D01*
X23237024Y61737024D01*
X23177923Y61814045D01*
X23140769Y61903743D01*
X23127000Y62008328D01*
X23127000Y70491672D01*
X23140769Y70596257D01*
X23177923Y70685955D01*
X23237024Y70762976D01*
X23314045Y70822077D01*
X23403743Y70859231D01*
X23508328Y70873000D01*
X61591672Y70873000D01*
X61696257Y70859231D01*
G37*
%TD.AperFunction*%
X29746257Y60159231D02*
X29835955Y60122077D01*
X29912976Y60062976D01*
X29972077Y59985955D01*
X30009231Y59896257D01*
X30023000Y59791672D01*
X30023000Y58850000D01*
X30024086Y58833423D01*
X30041123Y58704013D01*
X30049704Y58671989D01*
X30099654Y58551399D01*
X30116232Y58522687D01*
X30195692Y58419134D01*
X30219134Y58395692D01*
X30322687Y58316232D01*
X30351399Y58299654D01*
X30471989Y58249704D01*
X30504013Y58241123D01*
X30633423Y58224086D01*
X30650000Y58223000D01*
X34950000Y58223000D01*
X34966577Y58224086D01*
X35095987Y58241123D01*
X35128011Y58249704D01*
X35248601Y58299654D01*
X35277313Y58316232D01*
X35380866Y58395692D01*
X35404308Y58419134D01*
X35483768Y58522687D01*
X35500346Y58551399D01*
X35550296Y58671989D01*
X35558877Y58704013D01*
X35575914Y58833423D01*
X35577000Y58850000D01*
X35577000Y59791672D01*
X35590769Y59896257D01*
X35627923Y59985955D01*
X35687024Y60062976D01*
X35764045Y60122077D01*
X35853743Y60159231D01*
X35958328Y60173000D01*
X40041672Y60173000D01*
X40146257Y60159231D01*
X40235955Y60122077D01*
X40312976Y60062976D01*
X40372077Y59985955D01*
X40409231Y59896257D01*
X40423000Y59791672D01*
X40423000Y58850000D01*
X40424086Y58833423D01*
X40441123Y58704013D01*
X40449704Y58671989D01*
X40499654Y58551399D01*
X40516232Y58522687D01*
X40595692Y58419134D01*
X40619134Y58395692D01*
X40722687Y58316232D01*
X40751399Y58299654D01*
X40871989Y58249704D01*
X40904013Y58241123D01*
X41033423Y58224086D01*
X41050000Y58223000D01*
X45350000Y58223000D01*
X45366577Y58224086D01*
X45495987Y58241123D01*
X45528011Y58249704D01*
X45648601Y58299654D01*
X45677313Y58316232D01*
X45780866Y58395692D01*
X45804308Y58419134D01*
X45883768Y58522687D01*
X45900346Y58551399D01*
X45950296Y58671989D01*
X45958877Y58704013D01*
X45975914Y58833423D01*
X45977000Y58850000D01*
X45977000Y59791672D01*
X45990769Y59896257D01*
X46027923Y59985955D01*
X46087024Y60062976D01*
X46164045Y60122077D01*
X46253743Y60159231D01*
X46358328Y60173000D01*
X50466672Y60173000D01*
X50571257Y60159231D01*
X50660955Y60122077D01*
X50737976Y60062976D01*
X50797077Y59985955D01*
X50834231Y59896257D01*
X50848000Y59791672D01*
X50848000Y58960738D01*
X50830671Y58843701D01*
X50780166Y58736702D01*
X49903305Y57421409D01*
X49894126Y57405172D01*
X49831605Y57272714D01*
X49820824Y57237106D01*
X49799370Y57092214D01*
X49798000Y57073612D01*
X49798000Y51958328D01*
X49784231Y51853743D01*
X49747077Y51764045D01*
X49687976Y51687024D01*
X49610955Y51627923D01*
X49521257Y51590769D01*
X49416672Y51577000D01*
X43108328Y51577000D01*
X43003743Y51590769D01*
X42914045Y51627923D01*
X42837024Y51687024D01*
X42777923Y51764045D01*
X42740769Y51853743D01*
X42727000Y51958328D01*
X42727000Y52500000D01*
X42725914Y52516577D01*
X42708877Y52645987D01*
X42700296Y52678011D01*
X42650346Y52798601D01*
X42633768Y52827313D01*
X42554308Y52930866D01*
X42530866Y52954308D01*
X42427313Y53033768D01*
X42398601Y53050346D01*
X42278011Y53100296D01*
X42245987Y53108877D01*
X42116577Y53125914D01*
X42100000Y53127000D01*
X40100000Y53127000D01*
X40083423Y53125914D01*
X39954013Y53108877D01*
X39921989Y53100296D01*
X39801399Y53050346D01*
X39772687Y53033768D01*
X39669134Y52954308D01*
X39645692Y52930866D01*
X39566232Y52827313D01*
X39549654Y52798601D01*
X39499704Y52678011D01*
X39491123Y52645987D01*
X39474086Y52516577D01*
X39473000Y52500000D01*
X39473000Y51958328D01*
X39459231Y51853743D01*
X39422077Y51764045D01*
X39362976Y51687024D01*
X39285955Y51627923D01*
X39196257Y51590769D01*
X39091672Y51577000D01*
X32808328Y51577000D01*
X32703743Y51590769D01*
X32614045Y51627923D01*
X32537024Y51687024D01*
X32477923Y51764045D01*
X32440769Y51853743D01*
X32427000Y51958328D01*
X32427000Y52500000D01*
X32425914Y52516577D01*
X32408877Y52645987D01*
X32400296Y52678011D01*
X32350346Y52798601D01*
X32333768Y52827313D01*
X32254308Y52930866D01*
X32230866Y52954308D01*
X32127313Y53033768D01*
X32098601Y53050346D01*
X31978011Y53100296D01*
X31945987Y53108877D01*
X31816577Y53125914D01*
X31800000Y53127000D01*
X18900000Y53127000D01*
X18883423Y53125914D01*
X18754013Y53108877D01*
X18721989Y53100296D01*
X18601399Y53050346D01*
X18572687Y53033768D01*
X18469134Y52954308D01*
X18445692Y52930866D01*
X18366232Y52827313D01*
X18349654Y52798601D01*
X18299704Y52678011D01*
X18291123Y52645987D01*
X18274086Y52516577D01*
X18273000Y52500000D01*
X18273000Y51458328D01*
X18259231Y51353743D01*
X18222077Y51264045D01*
X18162976Y51187024D01*
X18085955Y51127923D01*
X17996257Y51090769D01*
X17891672Y51077000D01*
X17108328Y51077000D01*
X17003743Y51090769D01*
X16914045Y51127923D01*
X16837024Y51187024D01*
X16777923Y51264045D01*
X16740769Y51353743D01*
X16727000Y51458328D01*
X16727000Y52662755D01*
X16729358Y52670565D01*
X16735546Y52701816D01*
X16742189Y52733068D01*
X16742702Y52737957D01*
X16750320Y52815651D01*
X16752000Y52832708D01*
X16752000Y57973371D01*
X16777923Y58035955D01*
X16837024Y58112976D01*
X16914045Y58172077D01*
X17003743Y58209231D01*
X17108328Y58223000D01*
X24550000Y58223000D01*
X24566577Y58224086D01*
X24695987Y58241123D01*
X24728011Y58249704D01*
X24848601Y58299654D01*
X24877313Y58316232D01*
X24980866Y58395692D01*
X25004308Y58419134D01*
X25083768Y58522687D01*
X25100346Y58551399D01*
X25150296Y58671989D01*
X25158877Y58704013D01*
X25175914Y58833423D01*
X25177000Y58850000D01*
X25177000Y59791672D01*
X25190769Y59896257D01*
X25227923Y59985955D01*
X25287024Y60062976D01*
X25364045Y60122077D01*
X25453743Y60159231D01*
X25558328Y60173000D01*
X29641672Y60173000D01*
X29746257Y60159231D01*
%TA.AperFunction,Conductor*%
G36*
X29746257Y60159231D02*
G01*
X29835955Y60122077D01*
X29912976Y60062976D01*
X29972077Y59985955D01*
X30009231Y59896257D01*
X30023000Y59791672D01*
X30023000Y58850000D01*
X30024086Y58833423D01*
X30041123Y58704013D01*
X30049704Y58671989D01*
X30099654Y58551399D01*
X30116232Y58522687D01*
X30195692Y58419134D01*
X30219134Y58395692D01*
X30322687Y58316232D01*
X30351399Y58299654D01*
X30471989Y58249704D01*
X30504013Y58241123D01*
X30633423Y58224086D01*
X30650000Y58223000D01*
X34950000Y58223000D01*
X34966577Y58224086D01*
X35095987Y58241123D01*
X35128011Y58249704D01*
X35248601Y58299654D01*
X35277313Y58316232D01*
X35380866Y58395692D01*
X35404308Y58419134D01*
X35483768Y58522687D01*
X35500346Y58551399D01*
X35550296Y58671989D01*
X35558877Y58704013D01*
X35575914Y58833423D01*
X35577000Y58850000D01*
X35577000Y59791672D01*
X35590769Y59896257D01*
X35627923Y59985955D01*
X35687024Y60062976D01*
X35764045Y60122077D01*
X35853743Y60159231D01*
X35958328Y60173000D01*
X40041672Y60173000D01*
X40146257Y60159231D01*
X40235955Y60122077D01*
X40312976Y60062976D01*
X40372077Y59985955D01*
X40409231Y59896257D01*
X40423000Y59791672D01*
X40423000Y58850000D01*
X40424086Y58833423D01*
X40441123Y58704013D01*
X40449704Y58671989D01*
X40499654Y58551399D01*
X40516232Y58522687D01*
X40595692Y58419134D01*
X40619134Y58395692D01*
X40722687Y58316232D01*
X40751399Y58299654D01*
X40871989Y58249704D01*
X40904013Y58241123D01*
X41033423Y58224086D01*
X41050000Y58223000D01*
X45350000Y58223000D01*
X45366577Y58224086D01*
X45495987Y58241123D01*
X45528011Y58249704D01*
X45648601Y58299654D01*
X45677313Y58316232D01*
X45780866Y58395692D01*
X45804308Y58419134D01*
X45883768Y58522687D01*
X45900346Y58551399D01*
X45950296Y58671989D01*
X45958877Y58704013D01*
X45975914Y58833423D01*
X45977000Y58850000D01*
X45977000Y59791672D01*
X45990769Y59896257D01*
X46027923Y59985955D01*
X46087024Y60062976D01*
X46164045Y60122077D01*
X46253743Y60159231D01*
X46358328Y60173000D01*
X50466672Y60173000D01*
X50571257Y60159231D01*
X50660955Y60122077D01*
X50737976Y60062976D01*
X50797077Y59985955D01*
X50834231Y59896257D01*
X50848000Y59791672D01*
X50848000Y58960738D01*
X50830671Y58843701D01*
X50780166Y58736702D01*
X49903305Y57421409D01*
X49894126Y57405172D01*
X49831605Y57272714D01*
X49820824Y57237106D01*
X49799370Y57092214D01*
X49798000Y57073612D01*
X49798000Y51958328D01*
X49784231Y51853743D01*
X49747077Y51764045D01*
X49687976Y51687024D01*
X49610955Y51627923D01*
X49521257Y51590769D01*
X49416672Y51577000D01*
X43108328Y51577000D01*
X43003743Y51590769D01*
X42914045Y51627923D01*
X42837024Y51687024D01*
X42777923Y51764045D01*
X42740769Y51853743D01*
X42727000Y51958328D01*
X42727000Y52500000D01*
X42725914Y52516577D01*
X42708877Y52645987D01*
X42700296Y52678011D01*
X42650346Y52798601D01*
X42633768Y52827313D01*
X42554308Y52930866D01*
X42530866Y52954308D01*
X42427313Y53033768D01*
X42398601Y53050346D01*
X42278011Y53100296D01*
X42245987Y53108877D01*
X42116577Y53125914D01*
X42100000Y53127000D01*
X40100000Y53127000D01*
X40083423Y53125914D01*
X39954013Y53108877D01*
X39921989Y53100296D01*
X39801399Y53050346D01*
X39772687Y53033768D01*
X39669134Y52954308D01*
X39645692Y52930866D01*
X39566232Y52827313D01*
X39549654Y52798601D01*
X39499704Y52678011D01*
X39491123Y52645987D01*
X39474086Y52516577D01*
X39473000Y52500000D01*
X39473000Y51958328D01*
X39459231Y51853743D01*
X39422077Y51764045D01*
X39362976Y51687024D01*
X39285955Y51627923D01*
X39196257Y51590769D01*
X39091672Y51577000D01*
X32808328Y51577000D01*
X32703743Y51590769D01*
X32614045Y51627923D01*
X32537024Y51687024D01*
X32477923Y51764045D01*
X32440769Y51853743D01*
X32427000Y51958328D01*
X32427000Y52500000D01*
X32425914Y52516577D01*
X32408877Y52645987D01*
X32400296Y52678011D01*
X32350346Y52798601D01*
X32333768Y52827313D01*
X32254308Y52930866D01*
X32230866Y52954308D01*
X32127313Y53033768D01*
X32098601Y53050346D01*
X31978011Y53100296D01*
X31945987Y53108877D01*
X31816577Y53125914D01*
X31800000Y53127000D01*
X18900000Y53127000D01*
X18883423Y53125914D01*
X18754013Y53108877D01*
X18721989Y53100296D01*
X18601399Y53050346D01*
X18572687Y53033768D01*
X18469134Y52954308D01*
X18445692Y52930866D01*
X18366232Y52827313D01*
X18349654Y52798601D01*
X18299704Y52678011D01*
X18291123Y52645987D01*
X18274086Y52516577D01*
X18273000Y52500000D01*
X18273000Y51458328D01*
X18259231Y51353743D01*
X18222077Y51264045D01*
X18162976Y51187024D01*
X18085955Y51127923D01*
X17996257Y51090769D01*
X17891672Y51077000D01*
X17108328Y51077000D01*
X17003743Y51090769D01*
X16914045Y51127923D01*
X16837024Y51187024D01*
X16777923Y51264045D01*
X16740769Y51353743D01*
X16727000Y51458328D01*
X16727000Y52662755D01*
X16729358Y52670565D01*
X16735546Y52701816D01*
X16742189Y52733068D01*
X16742702Y52737957D01*
X16750320Y52815651D01*
X16752000Y52832708D01*
X16752000Y57973371D01*
X16777923Y58035955D01*
X16837024Y58112976D01*
X16914045Y58172077D01*
X17003743Y58209231D01*
X17108328Y58223000D01*
X24550000Y58223000D01*
X24566577Y58224086D01*
X24695987Y58241123D01*
X24728011Y58249704D01*
X24848601Y58299654D01*
X24877313Y58316232D01*
X24980866Y58395692D01*
X25004308Y58419134D01*
X25083768Y58522687D01*
X25100346Y58551399D01*
X25150296Y58671989D01*
X25158877Y58704013D01*
X25175914Y58833423D01*
X25177000Y58850000D01*
X25177000Y59791672D01*
X25190769Y59896257D01*
X25227923Y59985955D01*
X25287024Y60062976D01*
X25364045Y60122077D01*
X25453743Y60159231D01*
X25558328Y60173000D01*
X29641672Y60173000D01*
X29746257Y60159231D01*
G37*
%TD.AperFunction*%
X39183871Y50108134D02*
X39259533Y50069582D01*
X39319582Y50009533D01*
X39358134Y49933871D01*
X39373000Y49840008D01*
X39373000Y48100000D01*
X39374564Y48080133D01*
X39394141Y47956526D01*
X39400427Y47932437D01*
X39406419Y47918736D01*
X39463235Y47807229D01*
X39476658Y47786261D01*
X39486590Y47775083D01*
X39575083Y47686590D01*
X39594329Y47670796D01*
X39607229Y47663235D01*
X39718736Y47606419D01*
X39741920Y47597345D01*
X39756526Y47594141D01*
X39880133Y47574564D01*
X39900000Y47573000D01*
X44253902Y47573000D01*
X44273646Y47574544D01*
X44396507Y47593880D01*
X44420603Y47600143D01*
X44434087Y47606009D01*
X44545070Y47662147D01*
X44566077Y47675508D01*
X44577107Y47685232D01*
X44665482Y47772744D01*
X44681370Y47791911D01*
X44688881Y47804554D01*
X44746104Y47914981D01*
X44755336Y47938102D01*
X44758600Y47952440D01*
X44779139Y48075106D01*
X44780877Y48094834D01*
X44798014Y49842747D01*
X44813611Y49935899D01*
X44852443Y50010837D01*
X44912412Y50070220D01*
X44987726Y50108315D01*
X45081031Y50123000D01*
X60540008Y50123000D01*
X60633871Y50108134D01*
X60709533Y50069582D01*
X60769582Y50009533D01*
X60808134Y49933871D01*
X60823000Y49840008D01*
X60823000Y42609992D01*
X60808134Y42516129D01*
X60769582Y42440467D01*
X60709533Y42380418D01*
X60633871Y42341866D01*
X60540008Y42327000D01*
X34784992Y42327000D01*
X34691129Y42341866D01*
X34615467Y42380418D01*
X34555418Y42440467D01*
X34516866Y42516129D01*
X34502000Y42609992D01*
X34502000Y49840008D01*
X34516866Y49933871D01*
X34555418Y50009533D01*
X34615467Y50069582D01*
X34691129Y50108134D01*
X34784992Y50123000D01*
X39090008Y50123000D01*
X39183871Y50108134D01*
%TA.AperFunction,Conductor*%
G36*
X39183871Y50108134D02*
G01*
X39259533Y50069582D01*
X39319582Y50009533D01*
X39358134Y49933871D01*
X39373000Y49840008D01*
X39373000Y48100000D01*
X39374564Y48080133D01*
X39394141Y47956526D01*
X39400427Y47932437D01*
X39406419Y47918736D01*
X39463235Y47807229D01*
X39476658Y47786261D01*
X39486590Y47775083D01*
X39575083Y47686590D01*
X39594329Y47670796D01*
X39607229Y47663235D01*
X39718736Y47606419D01*
X39741920Y47597345D01*
X39756526Y47594141D01*
X39880133Y47574564D01*
X39900000Y47573000D01*
X44253902Y47573000D01*
X44273646Y47574544D01*
X44396507Y47593880D01*
X44420603Y47600143D01*
X44434087Y47606009D01*
X44545070Y47662147D01*
X44566077Y47675508D01*
X44577107Y47685232D01*
X44665482Y47772744D01*
X44681370Y47791911D01*
X44688881Y47804554D01*
X44746104Y47914981D01*
X44755336Y47938102D01*
X44758600Y47952440D01*
X44779139Y48075106D01*
X44780877Y48094834D01*
X44798014Y49842747D01*
X44813611Y49935899D01*
X44852443Y50010837D01*
X44912412Y50070220D01*
X44987726Y50108315D01*
X45081031Y50123000D01*
X60540008Y50123000D01*
X60633871Y50108134D01*
X60709533Y50069582D01*
X60769582Y50009533D01*
X60808134Y49933871D01*
X60823000Y49840008D01*
X60823000Y42609992D01*
X60808134Y42516129D01*
X60769582Y42440467D01*
X60709533Y42380418D01*
X60633871Y42341866D01*
X60540008Y42327000D01*
X34784992Y42327000D01*
X34691129Y42341866D01*
X34615467Y42380418D01*
X34555418Y42440467D01*
X34516866Y42516129D01*
X34502000Y42609992D01*
X34502000Y49840008D01*
X34516866Y49933871D01*
X34555418Y50009533D01*
X34615467Y50069582D01*
X34691129Y50108134D01*
X34784992Y50123000D01*
X39090008Y50123000D01*
X39183871Y50108134D01*
G37*
%TD.AperFunction*%
M02*
