%TF.GenerationSoftware,KiCad,Pcbnew,(5.1.8)-1*%
%TF.CreationDate,2021-02-13T14:21:55-08:00*%
%TF.ProjectId,20190720_Project_OCP-OVP-UVP,32303139-3037-4323-905f-50726f6a6563,A1*%
%TF.SameCoordinates,PX6ff61c0PY8823130*%
%TF.FileFunction,Legend,Top*%
%TF.FilePolarity,Positive*%
%FSLAX46Y46*%
G04 Gerber Fmt 4.6, Leading zero omitted, Abs format (unit mm)*
G04 Created by KiCad (PCBNEW (5.1.8)-1) date 2021-02-13 14:21:55*
%MOMM*%
%LPD*%
G01*
G04 APERTURE LIST*
%ADD10C,0.400000*%
%ADD11C,0.375000*%
%ADD12C,0.100000*%
%ADD13C,0.120000*%
%ADD14C,0.150000*%
G04 APERTURE END LIST*
D10*
X42776190Y73495239D02*
X43442857Y71495239D01*
X44109523Y73495239D01*
X45157142Y73495239D02*
X45538095Y73495239D01*
X45728571Y73400000D01*
X45919047Y73209524D01*
X46014285Y72828572D01*
X46014285Y72161905D01*
X45919047Y71780953D01*
X45728571Y71590477D01*
X45538095Y71495239D01*
X45157142Y71495239D01*
X44966666Y71590477D01*
X44776190Y71780953D01*
X44680952Y72161905D01*
X44680952Y72828572D01*
X44776190Y73209524D01*
X44966666Y73400000D01*
X45157142Y73495239D01*
X46871428Y73495239D02*
X46871428Y71876191D01*
X46966666Y71685715D01*
X47061904Y71590477D01*
X47252380Y71495239D01*
X47633333Y71495239D01*
X47823809Y71590477D01*
X47919047Y71685715D01*
X48014285Y71876191D01*
X48014285Y73495239D01*
X48680952Y73495239D02*
X49823809Y73495239D01*
X49252380Y71495239D02*
X49252380Y73495239D01*
D11*
X52928571Y38264286D02*
X52857142Y38192858D01*
X52642857Y38121429D01*
X52500000Y38121429D01*
X52285714Y38192858D01*
X52142857Y38335715D01*
X52071428Y38478572D01*
X52000000Y38764286D01*
X52000000Y38978572D01*
X52071428Y39264286D01*
X52142857Y39407143D01*
X52285714Y39550000D01*
X52500000Y39621429D01*
X52642857Y39621429D01*
X52857142Y39550000D01*
X52928571Y39478572D01*
X53571428Y38121429D02*
X53571428Y39621429D01*
X53571428Y38907143D02*
X54428571Y38907143D01*
X54428571Y38121429D02*
X54428571Y39621429D01*
X55071428Y38550000D02*
X55785714Y38550000D01*
X54928571Y38121429D02*
X55428571Y39621429D01*
X55928571Y38121429D01*
X57285714Y38121429D02*
X56785714Y38835715D01*
X56428571Y38121429D02*
X56428571Y39621429D01*
X57000000Y39621429D01*
X57142857Y39550000D01*
X57214285Y39478572D01*
X57285714Y39335715D01*
X57285714Y39121429D01*
X57214285Y38978572D01*
X57142857Y38907143D01*
X57000000Y38835715D01*
X56428571Y38835715D01*
X58714285Y39550000D02*
X58571428Y39621429D01*
X58357142Y39621429D01*
X58142857Y39550000D01*
X58000000Y39407143D01*
X57928571Y39264286D01*
X57857142Y38978572D01*
X57857142Y38764286D01*
X57928571Y38478572D01*
X58000000Y38335715D01*
X58142857Y38192858D01*
X58357142Y38121429D01*
X58500000Y38121429D01*
X58714285Y38192858D01*
X58785714Y38264286D01*
X58785714Y38764286D01*
X58500000Y38764286D01*
X59428571Y38907143D02*
X59928571Y38907143D01*
X60142857Y38121429D02*
X59428571Y38121429D01*
X59428571Y39621429D01*
X60142857Y39621429D01*
X60785714Y38692858D02*
X61928571Y38692858D01*
X54957142Y71521429D02*
X54242857Y71521429D01*
X54242857Y73021429D01*
X55742857Y73021429D02*
X56028571Y73021429D01*
X56171428Y72950000D01*
X56314285Y72807143D01*
X56385714Y72521429D01*
X56385714Y72021429D01*
X56314285Y71735715D01*
X56171428Y71592858D01*
X56028571Y71521429D01*
X55742857Y71521429D01*
X55600000Y71592858D01*
X55457142Y71735715D01*
X55385714Y72021429D01*
X55385714Y72521429D01*
X55457142Y72807143D01*
X55600000Y72950000D01*
X55742857Y73021429D01*
X56957142Y71950000D02*
X57671428Y71950000D01*
X56814285Y71521429D02*
X57314285Y73021429D01*
X57814285Y71521429D01*
X58314285Y71521429D02*
X58314285Y73021429D01*
X58671428Y73021429D01*
X58885714Y72950000D01*
X59028571Y72807143D01*
X59100000Y72664286D01*
X59171428Y72378572D01*
X59171428Y72164286D01*
X59100000Y71878572D01*
X59028571Y71735715D01*
X58885714Y71592858D01*
X58671428Y71521429D01*
X58314285Y71521429D01*
X59814285Y72092858D02*
X60957142Y72092858D01*
D12*
X9742857Y13128572D02*
X9857142Y13128572D01*
X9914285Y13100000D01*
X9971428Y13042858D01*
X10000000Y12928572D01*
X10000000Y12728572D01*
X9971428Y12614286D01*
X9914285Y12557143D01*
X9857142Y12528572D01*
X9742857Y12528572D01*
X9685714Y12557143D01*
X9628571Y12614286D01*
X9600000Y12728572D01*
X9600000Y12928572D01*
X9628571Y13042858D01*
X9685714Y13100000D01*
X9742857Y13128572D01*
X10600000Y12585715D02*
X10571428Y12557143D01*
X10485714Y12528572D01*
X10428571Y12528572D01*
X10342857Y12557143D01*
X10285714Y12614286D01*
X10257142Y12671429D01*
X10228571Y12785715D01*
X10228571Y12871429D01*
X10257142Y12985715D01*
X10285714Y13042858D01*
X10342857Y13100000D01*
X10428571Y13128572D01*
X10485714Y13128572D01*
X10571428Y13100000D01*
X10600000Y13071429D01*
X10857142Y12528572D02*
X10857142Y13128572D01*
X11085714Y13128572D01*
X11142857Y13100000D01*
X11171428Y13071429D01*
X11200000Y13014286D01*
X11200000Y12928572D01*
X11171428Y12871429D01*
X11142857Y12842858D01*
X11085714Y12814286D01*
X10857142Y12814286D01*
X11314285Y12471429D02*
X11771428Y12471429D01*
X11828571Y13128572D02*
X12171428Y13128572D01*
X12000000Y12528572D02*
X12000000Y13128572D01*
X12714285Y12528572D02*
X12514285Y12814286D01*
X12371428Y12528572D02*
X12371428Y13128572D01*
X12600000Y13128572D01*
X12657142Y13100000D01*
X12685714Y13071429D01*
X12714285Y13014286D01*
X12714285Y12928572D01*
X12685714Y12871429D01*
X12657142Y12842858D01*
X12600000Y12814286D01*
X12371428Y12814286D01*
X12971428Y12528572D02*
X12971428Y13128572D01*
X13571428Y13100000D02*
X13514285Y13128572D01*
X13428571Y13128572D01*
X13342857Y13100000D01*
X13285714Y13042858D01*
X13257142Y12985715D01*
X13228571Y12871429D01*
X13228571Y12785715D01*
X13257142Y12671429D01*
X13285714Y12614286D01*
X13342857Y12557143D01*
X13428571Y12528572D01*
X13485714Y12528572D01*
X13571428Y12557143D01*
X13600000Y12585715D01*
X13600000Y12785715D01*
X13485714Y12785715D01*
D10*
X3686190Y52500000D02*
X3495714Y52595239D01*
X3210000Y52595239D01*
X2924285Y52500000D01*
X2733809Y52309524D01*
X2638571Y52119048D01*
X2543333Y51738096D01*
X2543333Y51452381D01*
X2638571Y51071429D01*
X2733809Y50880953D01*
X2924285Y50690477D01*
X3210000Y50595239D01*
X3400476Y50595239D01*
X3686190Y50690477D01*
X3781428Y50785715D01*
X3781428Y51452381D01*
X3400476Y51452381D01*
X4638571Y50595239D02*
X4638571Y52595239D01*
X5781428Y50595239D01*
X5781428Y52595239D01*
X6733809Y50595239D02*
X6733809Y52595239D01*
X7210000Y52595239D01*
X7495714Y52500000D01*
X7686190Y52309524D01*
X7781428Y52119048D01*
X7876666Y51738096D01*
X7876666Y51452381D01*
X7781428Y51071429D01*
X7686190Y50880953D01*
X7495714Y50690477D01*
X7210000Y50595239D01*
X6733809Y50595239D01*
X12714285Y72195239D02*
X13380952Y70195239D01*
X14047619Y72195239D01*
X15380952Y71242858D02*
X15666666Y71147620D01*
X15761904Y71052381D01*
X15857142Y70861905D01*
X15857142Y70576191D01*
X15761904Y70385715D01*
X15666666Y70290477D01*
X15476190Y70195239D01*
X14714285Y70195239D01*
X14714285Y72195239D01*
X15380952Y72195239D01*
X15571428Y72100000D01*
X15666666Y72004762D01*
X15761904Y71814286D01*
X15761904Y71623810D01*
X15666666Y71433334D01*
X15571428Y71338096D01*
X15380952Y71242858D01*
X14714285Y71242858D01*
X16619047Y70766667D02*
X17571428Y70766667D01*
X16428571Y70195239D02*
X17095238Y72195239D01*
X17761904Y70195239D01*
X18142857Y72195239D02*
X19285714Y72195239D01*
X18714285Y70195239D02*
X18714285Y72195239D01*
D12*
G36*
X28550000Y42125000D02*
G01*
X35925000Y42125000D01*
X35925000Y22450000D01*
X62200000Y22450000D01*
X62200000Y21450000D01*
X34925000Y21450000D01*
X34925000Y41125000D01*
X27550000Y41125000D01*
X27550000Y50075000D01*
X28550000Y50075000D01*
X28550000Y42125000D01*
G37*
X28550000Y42125000D02*
X35925000Y42125000D01*
X35925000Y22450000D01*
X62200000Y22450000D01*
X62200000Y21450000D01*
X34925000Y21450000D01*
X34925000Y41125000D01*
X27550000Y41125000D01*
X27550000Y50075000D01*
X28550000Y50075000D01*
X28550000Y42125000D01*
X50820714Y9428572D02*
X50820714Y10028572D01*
X50963571Y10028572D01*
X51049285Y10000000D01*
X51106428Y9942858D01*
X51135000Y9885715D01*
X51163571Y9771429D01*
X51163571Y9685715D01*
X51135000Y9571429D01*
X51106428Y9514286D01*
X51049285Y9457143D01*
X50963571Y9428572D01*
X50820714Y9428572D01*
X51335000Y10028572D02*
X51677857Y10028572D01*
X51506428Y9428572D02*
X51506428Y10028572D01*
X52220714Y9428572D02*
X52020714Y9714286D01*
X51877857Y9428572D02*
X51877857Y10028572D01*
X52106428Y10028572D01*
X52163571Y10000000D01*
X52192142Y9971429D01*
X52220714Y9914286D01*
X52220714Y9828572D01*
X52192142Y9771429D01*
X52163571Y9742858D01*
X52106428Y9714286D01*
X51877857Y9714286D01*
X49377857Y12028572D02*
X49720714Y12028572D01*
X49549285Y11428572D02*
X49549285Y12028572D01*
X49863571Y12028572D02*
X50263571Y11428572D01*
X50263571Y12028572D02*
X49863571Y11428572D01*
X50492142Y11428572D02*
X50492142Y12028572D01*
X50692142Y11600000D01*
X50892142Y12028572D01*
X50892142Y11428572D01*
X49663571Y13478572D02*
X49463571Y13764286D01*
X49320714Y13478572D02*
X49320714Y14078572D01*
X49549285Y14078572D01*
X49606428Y14050000D01*
X49635000Y14021429D01*
X49663571Y13964286D01*
X49663571Y13878572D01*
X49635000Y13821429D01*
X49606428Y13792858D01*
X49549285Y13764286D01*
X49320714Y13764286D01*
X49863571Y14078572D02*
X50263571Y13478572D01*
X50263571Y14078572D02*
X49863571Y13478572D01*
X50492142Y13478572D02*
X50492142Y14078572D01*
X50692142Y13650000D01*
X50892142Y14078572D01*
X50892142Y13478572D01*
X51777857Y16128572D02*
X51492142Y16128572D01*
X51463571Y15842858D01*
X51492142Y15871429D01*
X51549285Y15900000D01*
X51692142Y15900000D01*
X51749285Y15871429D01*
X51777857Y15842858D01*
X51806428Y15785715D01*
X51806428Y15642858D01*
X51777857Y15585715D01*
X51749285Y15557143D01*
X51692142Y15528572D01*
X51549285Y15528572D01*
X51492142Y15557143D01*
X51463571Y15585715D01*
X51977857Y16128572D02*
X52177857Y15528572D01*
X52377857Y16128572D01*
X51163571Y18000000D02*
X51106428Y18028572D01*
X51020714Y18028572D01*
X50935000Y18000000D01*
X50877857Y17942858D01*
X50849285Y17885715D01*
X50820714Y17771429D01*
X50820714Y17685715D01*
X50849285Y17571429D01*
X50877857Y17514286D01*
X50935000Y17457143D01*
X51020714Y17428572D01*
X51077857Y17428572D01*
X51163571Y17457143D01*
X51192142Y17485715D01*
X51192142Y17685715D01*
X51077857Y17685715D01*
X51449285Y17428572D02*
X51449285Y18028572D01*
X51792142Y17428572D01*
X51792142Y18028572D01*
X52077857Y17428572D02*
X52077857Y18028572D01*
X52220714Y18028572D01*
X52306428Y18000000D01*
X52363571Y17942858D01*
X52392142Y17885715D01*
X52420714Y17771429D01*
X52420714Y17685715D01*
X52392142Y17571429D01*
X52363571Y17514286D01*
X52306428Y17457143D01*
X52220714Y17428572D01*
X52077857Y17428572D01*
X10185714Y19078572D02*
X9900000Y19078572D01*
X9871428Y18792858D01*
X9900000Y18821429D01*
X9957142Y18850000D01*
X10100000Y18850000D01*
X10157142Y18821429D01*
X10185714Y18792858D01*
X10214285Y18735715D01*
X10214285Y18592858D01*
X10185714Y18535715D01*
X10157142Y18507143D01*
X10100000Y18478572D01*
X9957142Y18478572D01*
X9900000Y18507143D01*
X9871428Y18535715D01*
X10385714Y19078572D02*
X10585714Y18478572D01*
X10785714Y19078572D01*
X9821428Y16507143D02*
X9907142Y16478572D01*
X10050000Y16478572D01*
X10107142Y16507143D01*
X10135714Y16535715D01*
X10164285Y16592858D01*
X10164285Y16650000D01*
X10135714Y16707143D01*
X10107142Y16735715D01*
X10050000Y16764286D01*
X9935714Y16792858D01*
X9878571Y16821429D01*
X9850000Y16850000D01*
X9821428Y16907143D01*
X9821428Y16964286D01*
X9850000Y17021429D01*
X9878571Y17050000D01*
X9935714Y17078572D01*
X10078571Y17078572D01*
X10164285Y17050000D01*
X10421428Y16478572D02*
X10421428Y17078572D01*
X10564285Y17078572D01*
X10650000Y17050000D01*
X10707142Y16992858D01*
X10735714Y16935715D01*
X10764285Y16821429D01*
X10764285Y16735715D01*
X10735714Y16621429D01*
X10707142Y16564286D01*
X10650000Y16507143D01*
X10564285Y16478572D01*
X10421428Y16478572D01*
X10992857Y16650000D02*
X11278571Y16650000D01*
X10935714Y16478572D02*
X11135714Y17078572D01*
X11335714Y16478572D01*
X9835714Y14557143D02*
X9921428Y14528572D01*
X10064285Y14528572D01*
X10121428Y14557143D01*
X10150000Y14585715D01*
X10178571Y14642858D01*
X10178571Y14700000D01*
X10150000Y14757143D01*
X10121428Y14785715D01*
X10064285Y14814286D01*
X9950000Y14842858D01*
X9892857Y14871429D01*
X9864285Y14900000D01*
X9835714Y14957143D01*
X9835714Y15014286D01*
X9864285Y15071429D01*
X9892857Y15100000D01*
X9950000Y15128572D01*
X10092857Y15128572D01*
X10178571Y15100000D01*
X10778571Y14585715D02*
X10750000Y14557143D01*
X10664285Y14528572D01*
X10607142Y14528572D01*
X10521428Y14557143D01*
X10464285Y14614286D01*
X10435714Y14671429D01*
X10407142Y14785715D01*
X10407142Y14871429D01*
X10435714Y14985715D01*
X10464285Y15042858D01*
X10521428Y15100000D01*
X10607142Y15128572D01*
X10664285Y15128572D01*
X10750000Y15100000D01*
X10778571Y15071429D01*
X11321428Y14528572D02*
X11035714Y14528572D01*
X11035714Y15128572D01*
X10142857Y11100000D02*
X10085714Y11128572D01*
X10000000Y11128572D01*
X9914285Y11100000D01*
X9857142Y11042858D01*
X9828571Y10985715D01*
X9800000Y10871429D01*
X9800000Y10785715D01*
X9828571Y10671429D01*
X9857142Y10614286D01*
X9914285Y10557143D01*
X10000000Y10528572D01*
X10057142Y10528572D01*
X10142857Y10557143D01*
X10171428Y10585715D01*
X10171428Y10785715D01*
X10057142Y10785715D01*
X10428571Y10528572D02*
X10428571Y11128572D01*
X10771428Y10528572D01*
X10771428Y11128572D01*
X11057142Y10528572D02*
X11057142Y11128572D01*
X11200000Y11128572D01*
X11285714Y11100000D01*
X11342857Y11042858D01*
X11371428Y10985715D01*
X11400000Y10871429D01*
X11400000Y10785715D01*
X11371428Y10671429D01*
X11342857Y10614286D01*
X11285714Y10557143D01*
X11200000Y10528572D01*
X11057142Y10528572D01*
D13*
X24504241Y59823400D02*
X24695762Y59823400D01*
X26504242Y59823400D02*
X26695761Y59823400D01*
X28504241Y59823400D02*
X28695762Y59823400D01*
X30504242Y59823400D02*
X30778300Y59823400D01*
X22421700Y59823400D02*
X22695761Y59823400D01*
X30778300Y59823400D02*
X30778300Y66376600D01*
X30778300Y66376600D02*
X30603040Y66376600D01*
X22421700Y66376600D02*
X22421700Y59823400D01*
X22596960Y66376600D02*
X22421700Y66376600D01*
X34904241Y59823400D02*
X35095762Y59823400D01*
X36904242Y59823400D02*
X37095761Y59823400D01*
X38904241Y59823400D02*
X39095762Y59823400D01*
X40904242Y59823400D02*
X41178300Y59823400D01*
X32821700Y59823400D02*
X33095761Y59823400D01*
X41178300Y59823400D02*
X41178300Y66376600D01*
X41178300Y66376600D02*
X41003040Y66376600D01*
X32821700Y66376600D02*
X32821700Y59823400D01*
X32996960Y66376600D02*
X32821700Y66376600D01*
X45304241Y59823400D02*
X45495762Y59823400D01*
X47304242Y59823400D02*
X47495761Y59823400D01*
X49304241Y59823400D02*
X49495762Y59823400D01*
X51304242Y59823400D02*
X51578300Y59823400D01*
X43221700Y59823400D02*
X43495761Y59823400D01*
X51578300Y59823400D02*
X51578300Y66376600D01*
X51578300Y66376600D02*
X51403040Y66376600D01*
X43221700Y66376600D02*
X43221700Y59823400D01*
X43396960Y66376600D02*
X43221700Y66376600D01*
X16150000Y73750000D02*
X25150000Y73750000D01*
X25150000Y86750000D02*
X16150000Y86750000D01*
X46150000Y86750000D02*
X37150000Y86750000D01*
X37150000Y73750000D02*
X46150000Y73750000D01*
X9650000Y80250000D02*
G75*
G02*
X16150000Y86750000I6500000J0D01*
G01*
X16150000Y73750000D02*
G75*
G02*
X9650000Y80250000I0J6500000D01*
G01*
X46150000Y86750000D02*
G75*
G02*
X52650000Y80250000I0J-6500000D01*
G01*
X52650000Y80250000D02*
G75*
G02*
X46150000Y73750000I-6500000J0D01*
G01*
X62300000Y21250000D02*
X52800000Y21250000D01*
X62300000Y19250000D02*
X62300000Y19250000D01*
X52800000Y21250000D02*
X52800000Y19250000D01*
X52800000Y6250000D02*
X52800000Y19250000D01*
X62300000Y6250000D02*
X52800000Y6250000D01*
X62300000Y21250000D02*
X62300000Y6250000D01*
X4170000Y36925000D02*
X4170000Y32425000D01*
X530000Y36925000D02*
X530000Y32425000D01*
X2590000Y26928733D02*
X2590000Y27271267D01*
X3610000Y26928733D02*
X3610000Y27271267D01*
X23400000Y13875000D02*
X21975000Y13875000D01*
X30650000Y14100000D02*
X30325000Y14100000D01*
X30650000Y6850000D02*
X30325000Y6850000D01*
X23400000Y6850000D02*
X23725000Y6850000D01*
X23400000Y14100000D02*
X23725000Y14100000D01*
X23400000Y6850000D02*
X23400000Y7175000D01*
X30650000Y6850000D02*
X30650000Y7175000D01*
X30650000Y14100000D02*
X30650000Y13775000D01*
X23400000Y14100000D02*
X23400000Y13875000D01*
X21171267Y32910000D02*
X20828733Y32910000D01*
X21171267Y31890000D02*
X20828733Y31890000D01*
X13535000Y6353733D02*
X13535000Y6696267D01*
X12515000Y6353733D02*
X12515000Y6696267D01*
X19378733Y10550000D02*
X19721267Y10550000D01*
X19378733Y11570000D02*
X19721267Y11570000D01*
X33685000Y9846267D02*
X33685000Y9503733D01*
X32665000Y9846267D02*
X32665000Y9503733D01*
X41638733Y10260000D02*
X41981267Y10260000D01*
X41638733Y9240000D02*
X41981267Y9240000D01*
X25328733Y16440000D02*
X25671267Y16440000D01*
X25328733Y17460000D02*
X25671267Y17460000D01*
X15980000Y17981267D02*
X15980000Y17638733D01*
X17000000Y17981267D02*
X17000000Y17638733D01*
X21410000Y19096267D02*
X21410000Y18753733D01*
X20390000Y19096267D02*
X20390000Y18753733D01*
X8378733Y40035000D02*
X8721267Y40035000D01*
X8378733Y39015000D02*
X8721267Y39015000D01*
X5660000Y34846267D02*
X5660000Y34503733D01*
X4640000Y34846267D02*
X4640000Y34503733D01*
X8571267Y31435000D02*
X8228733Y31435000D01*
X8571267Y30415000D02*
X8228733Y30415000D01*
X6140000Y35625000D02*
X6140000Y32675000D01*
X9360000Y33825000D02*
X9360000Y35625000D01*
X8378733Y38485000D02*
X8721267Y38485000D01*
X8378733Y37465000D02*
X8721267Y37465000D01*
X5710000Y39495000D02*
X4250000Y39495000D01*
X5710000Y42655000D02*
X3550000Y42655000D01*
X5710000Y42655000D02*
X5710000Y41725000D01*
X5710000Y39495000D02*
X5710000Y40425000D01*
X8228733Y29885000D02*
X8571267Y29885000D01*
X8228733Y28865000D02*
X8571267Y28865000D01*
X19175000Y28575000D02*
X19175000Y32975000D01*
X13650000Y27000000D02*
X13650000Y32975000D01*
X21391000Y8190000D02*
X14279000Y8190000D01*
X21391000Y3110000D02*
X21391000Y8190000D01*
X14279000Y3110000D02*
X21391000Y3110000D01*
X14279000Y8190000D02*
X14279000Y3110000D01*
X14533000Y1840000D02*
G75*
G02*
X13517000Y2856000I0J1016000D01*
G01*
X33303733Y28265000D02*
X33646267Y28265000D01*
X33303733Y29285000D02*
X33646267Y29285000D01*
X37546267Y28265000D02*
X37203733Y28265000D01*
X37546267Y29285000D02*
X37203733Y29285000D01*
X8337221Y47310000D02*
X8662779Y47310000D01*
X8337221Y46290000D02*
X8662779Y46290000D01*
X29780000Y32235000D02*
X29780000Y30775000D01*
X26620000Y32235000D02*
X26620000Y30075000D01*
X26620000Y32235000D02*
X27550000Y32235000D01*
X29780000Y32235000D02*
X28850000Y32235000D01*
X24890000Y39830000D02*
X24890000Y38900000D01*
X24890000Y36670000D02*
X24890000Y37600000D01*
X24890000Y36670000D02*
X27050000Y36670000D01*
X24890000Y39830000D02*
X26350000Y39830000D01*
X33350000Y27745000D02*
X31950000Y27745000D01*
X33350000Y22645000D02*
X37500000Y22645000D01*
X33350000Y27795000D02*
X37500000Y27795000D01*
X33350000Y22645000D02*
X33350000Y22790000D01*
X37500000Y22645000D02*
X37500000Y22790000D01*
X37500000Y27795000D02*
X37500000Y27650000D01*
X33350000Y27795000D02*
X33350000Y27745000D01*
X42560000Y31595000D02*
X42560000Y32525000D01*
X42560000Y34755000D02*
X42560000Y33825000D01*
X42560000Y34755000D02*
X40400000Y34755000D01*
X42560000Y31595000D02*
X41100000Y31595000D01*
X46040000Y38180000D02*
X47500000Y38180000D01*
X46040000Y35020000D02*
X48200000Y35020000D01*
X46040000Y35020000D02*
X46040000Y35950000D01*
X46040000Y38180000D02*
X46040000Y37250000D01*
X28028733Y28465000D02*
X28371267Y28465000D01*
X28028733Y29485000D02*
X28371267Y29485000D01*
X27690000Y38421267D02*
X27690000Y38078733D01*
X28710000Y38421267D02*
X28710000Y38078733D01*
X28710000Y35071267D02*
X28710000Y34728733D01*
X27690000Y35071267D02*
X27690000Y34728733D01*
X25160000Y31596267D02*
X25160000Y31253733D01*
X24140000Y31596267D02*
X24140000Y31253733D01*
X31360000Y23896267D02*
X31360000Y23553733D01*
X30340000Y23896267D02*
X30340000Y23553733D01*
X24140000Y34971267D02*
X24140000Y34628733D01*
X25160000Y34971267D02*
X25160000Y34628733D01*
X38765000Y33346267D02*
X38765000Y33003733D01*
X39785000Y33346267D02*
X39785000Y33003733D01*
X48846267Y33685000D02*
X48503733Y33685000D01*
X48846267Y32665000D02*
X48503733Y32665000D01*
X45421267Y32665000D02*
X45078733Y32665000D01*
X45421267Y33685000D02*
X45078733Y33685000D01*
X43546267Y36090000D02*
X43203733Y36090000D01*
X43546267Y37110000D02*
X43203733Y37110000D01*
X40171267Y36090000D02*
X39828733Y36090000D01*
X40171267Y37110000D02*
X39828733Y37110000D01*
X20890000Y60228733D02*
X20890000Y60571267D01*
X21910000Y60228733D02*
X21910000Y60571267D01*
X41690000Y60228733D02*
X41690000Y60571267D01*
X42710000Y60228733D02*
X42710000Y60571267D01*
X40590000Y50128733D02*
X40590000Y50471267D01*
X41610000Y50128733D02*
X41610000Y50471267D01*
X30240000Y50471267D02*
X30240000Y50128733D01*
X31260000Y50471267D02*
X31260000Y50128733D01*
X8410000Y43858578D02*
X8410000Y43341422D01*
X6990000Y43858578D02*
X6990000Y43341422D01*
X14778733Y45060000D02*
X15121267Y45060000D01*
X14778733Y44040000D02*
X15121267Y44040000D01*
X17190000Y43796267D02*
X17190000Y43453733D01*
X18210000Y43796267D02*
X18210000Y43453733D01*
X16946267Y40640000D02*
X16603733Y40640000D01*
X16946267Y41660000D02*
X16603733Y41660000D01*
X21015000Y40221267D02*
X21015000Y39878733D01*
X22035000Y40221267D02*
X22035000Y39878733D01*
X22035000Y36721267D02*
X22035000Y36378733D01*
X21015000Y36721267D02*
X21015000Y36378733D01*
X8721267Y41585000D02*
X8378733Y41585000D01*
X8721267Y40565000D02*
X8378733Y40565000D01*
X4278733Y31435000D02*
X4621267Y31435000D01*
X4278733Y30415000D02*
X4621267Y30415000D01*
X1700000Y30275000D02*
X1700000Y29475000D01*
X500000Y30275000D02*
X500000Y29475000D01*
X45965000Y27053733D02*
X45965000Y27396267D01*
X46985000Y27053733D02*
X46985000Y27396267D01*
X40535000Y27803733D02*
X40535000Y28146267D01*
X39515000Y27803733D02*
X39515000Y28146267D01*
X47495000Y26565000D02*
X48425000Y26565000D01*
X50655000Y26565000D02*
X49725000Y26565000D01*
X50655000Y26565000D02*
X50655000Y28725000D01*
X47495000Y26565000D02*
X47495000Y28025000D01*
X51315000Y30537221D02*
X51315000Y30862779D01*
X52335000Y30537221D02*
X52335000Y30862779D01*
X52385000Y27774622D02*
X52385000Y26975378D01*
X51265000Y27774622D02*
X51265000Y26975378D01*
X31290000Y60228733D02*
X31290000Y60571267D01*
X32310000Y60228733D02*
X32310000Y60571267D01*
X44175000Y29685000D02*
X42375000Y29685000D01*
X42375000Y26465000D02*
X44825000Y26465000D01*
X14750000Y19350000D02*
X11800000Y19350000D01*
X12350000Y16250000D02*
X14750000Y16250000D01*
X45900000Y13100000D02*
X48300000Y13100000D01*
X48300000Y16200000D02*
X45350000Y16200000D01*
X15571267Y36360000D02*
X15228733Y36360000D01*
X15571267Y35340000D02*
X15228733Y35340000D01*
X15571267Y37640000D02*
X15228733Y37640000D01*
X15571267Y38660000D02*
X15228733Y38660000D01*
X28628733Y3740000D02*
X28971267Y3740000D01*
X28628733Y4760000D02*
X28971267Y4760000D01*
X25171267Y3740000D02*
X24828733Y3740000D01*
X25171267Y4760000D02*
X24828733Y4760000D01*
X15928733Y26435000D02*
X16271267Y26435000D01*
X15928733Y25415000D02*
X16271267Y25415000D01*
X19728733Y25415000D02*
X20071267Y25415000D01*
X19728733Y26435000D02*
X20071267Y26435000D01*
X16500000Y51700000D02*
X15500000Y51700000D01*
X13200000Y48500000D02*
X13200000Y46300000D01*
X13200000Y46300000D02*
X14050000Y46300000D01*
X17950000Y46300000D02*
X18800000Y46300000D01*
X18800000Y46300000D02*
X18800000Y48500000D01*
X18800000Y49500000D02*
X18800000Y51700000D01*
X18800000Y51700000D02*
X18600000Y51700000D01*
X13200000Y49500000D02*
X13200000Y51700000D01*
X13200000Y51700000D02*
X13400000Y51700000D01*
X44154241Y49773400D02*
X44345762Y49773400D01*
X46154242Y49773400D02*
X46345761Y49773400D01*
X48154241Y49773400D02*
X48345762Y49773400D01*
X50154242Y49773400D02*
X50428300Y49773400D01*
X42071700Y49773400D02*
X42345761Y49773400D01*
X50428300Y49773400D02*
X50428300Y56326600D01*
X50428300Y56326600D02*
X50253040Y56326600D01*
X42071700Y56326600D02*
X42071700Y49773400D01*
X42246960Y56326600D02*
X42071700Y56326600D01*
X31946960Y56326600D02*
X31771700Y56326600D01*
X31771700Y56326600D02*
X31771700Y49773400D01*
X40128300Y56326600D02*
X39953040Y56326600D01*
X40128300Y49773400D02*
X40128300Y56326600D01*
X31771700Y49773400D02*
X32045761Y49773400D01*
X39854242Y49773400D02*
X40128300Y49773400D01*
X37854241Y49773400D02*
X38045762Y49773400D01*
X35854242Y49773400D02*
X36045761Y49773400D01*
X33854241Y49773400D02*
X34045762Y49773400D01*
D14*
X125000Y7325000D02*
X125000Y22325000D01*
X125000Y22325000D02*
X9625000Y22325000D01*
X9625000Y22325000D02*
X9625000Y9325000D01*
X9625000Y7325000D02*
X9625000Y9325000D01*
X125000Y9325000D02*
X125000Y9325000D01*
X125000Y7325000D02*
X9625000Y7325000D01*
D12*
X25621428Y68021429D02*
X25564285Y68050000D01*
X25507142Y68107143D01*
X25421428Y68192858D01*
X25364285Y68221429D01*
X25307142Y68221429D01*
X25335714Y68078572D02*
X25278571Y68107143D01*
X25221428Y68164286D01*
X25192857Y68278572D01*
X25192857Y68478572D01*
X25221428Y68592858D01*
X25278571Y68650000D01*
X25335714Y68678572D01*
X25450000Y68678572D01*
X25507142Y68650000D01*
X25564285Y68592858D01*
X25592857Y68478572D01*
X25592857Y68278572D01*
X25564285Y68164286D01*
X25507142Y68107143D01*
X25450000Y68078572D01*
X25335714Y68078572D01*
X26107142Y68478572D02*
X26107142Y68078572D01*
X25964285Y68707143D02*
X25821428Y68278572D01*
X26192857Y68278572D01*
X26535714Y68678572D02*
X26592857Y68678572D01*
X26650000Y68650000D01*
X26678571Y68621429D01*
X26707142Y68564286D01*
X26735714Y68450000D01*
X26735714Y68307143D01*
X26707142Y68192858D01*
X26678571Y68135715D01*
X26650000Y68107143D01*
X26592857Y68078572D01*
X26535714Y68078572D01*
X26478571Y68107143D01*
X26450000Y68135715D01*
X26421428Y68192858D01*
X26392857Y68307143D01*
X26392857Y68450000D01*
X26421428Y68564286D01*
X26450000Y68621429D01*
X26478571Y68650000D01*
X26535714Y68678572D01*
X27250000Y68678572D02*
X27135714Y68678572D01*
X27078571Y68650000D01*
X27050000Y68621429D01*
X26992857Y68535715D01*
X26964285Y68421429D01*
X26964285Y68192858D01*
X26992857Y68135715D01*
X27021428Y68107143D01*
X27078571Y68078572D01*
X27192857Y68078572D01*
X27250000Y68107143D01*
X27278571Y68135715D01*
X27307142Y68192858D01*
X27307142Y68335715D01*
X27278571Y68392858D01*
X27250000Y68421429D01*
X27192857Y68450000D01*
X27078571Y68450000D01*
X27021428Y68421429D01*
X26992857Y68392858D01*
X26964285Y68335715D01*
X36121428Y68371429D02*
X36064285Y68400000D01*
X36007142Y68457143D01*
X35921428Y68542858D01*
X35864285Y68571429D01*
X35807142Y68571429D01*
X35835714Y68428572D02*
X35778571Y68457143D01*
X35721428Y68514286D01*
X35692857Y68628572D01*
X35692857Y68828572D01*
X35721428Y68942858D01*
X35778571Y69000000D01*
X35835714Y69028572D01*
X35950000Y69028572D01*
X36007142Y69000000D01*
X36064285Y68942858D01*
X36092857Y68828572D01*
X36092857Y68628572D01*
X36064285Y68514286D01*
X36007142Y68457143D01*
X35950000Y68428572D01*
X35835714Y68428572D01*
X36607142Y68828572D02*
X36607142Y68428572D01*
X36464285Y69057143D02*
X36321428Y68628572D01*
X36692857Y68628572D01*
X37035714Y69028572D02*
X37092857Y69028572D01*
X37150000Y69000000D01*
X37178571Y68971429D01*
X37207142Y68914286D01*
X37235714Y68800000D01*
X37235714Y68657143D01*
X37207142Y68542858D01*
X37178571Y68485715D01*
X37150000Y68457143D01*
X37092857Y68428572D01*
X37035714Y68428572D01*
X36978571Y68457143D01*
X36950000Y68485715D01*
X36921428Y68542858D01*
X36892857Y68657143D01*
X36892857Y68800000D01*
X36921428Y68914286D01*
X36950000Y68971429D01*
X36978571Y69000000D01*
X37035714Y69028572D01*
X37435714Y69028572D02*
X37835714Y69028572D01*
X37578571Y68428572D01*
X44871428Y68071429D02*
X44814285Y68100000D01*
X44757142Y68157143D01*
X44671428Y68242858D01*
X44614285Y68271429D01*
X44557142Y68271429D01*
X44585714Y68128572D02*
X44528571Y68157143D01*
X44471428Y68214286D01*
X44442857Y68328572D01*
X44442857Y68528572D01*
X44471428Y68642858D01*
X44528571Y68700000D01*
X44585714Y68728572D01*
X44700000Y68728572D01*
X44757142Y68700000D01*
X44814285Y68642858D01*
X44842857Y68528572D01*
X44842857Y68328572D01*
X44814285Y68214286D01*
X44757142Y68157143D01*
X44700000Y68128572D01*
X44585714Y68128572D01*
X45357142Y68528572D02*
X45357142Y68128572D01*
X45214285Y68757143D02*
X45071428Y68328572D01*
X45442857Y68328572D01*
X45985714Y68128572D02*
X45642857Y68128572D01*
X45814285Y68128572D02*
X45814285Y68728572D01*
X45757142Y68642858D01*
X45700000Y68585715D01*
X45642857Y68557143D01*
X46357142Y68728572D02*
X46414285Y68728572D01*
X46471428Y68700000D01*
X46500000Y68671429D01*
X46528571Y68614286D01*
X46557142Y68500000D01*
X46557142Y68357143D01*
X46528571Y68242858D01*
X46500000Y68185715D01*
X46471428Y68157143D01*
X46414285Y68128572D01*
X46357142Y68128572D01*
X46300000Y68157143D01*
X46271428Y68185715D01*
X46242857Y68242858D01*
X46214285Y68357143D01*
X46214285Y68500000D01*
X46242857Y68614286D01*
X46271428Y68671429D01*
X46300000Y68700000D01*
X46357142Y68728572D01*
X30378571Y72842858D02*
X30178571Y72842858D01*
X30178571Y72528572D02*
X30178571Y73128572D01*
X30464285Y73128572D01*
X30950000Y72928572D02*
X30950000Y72528572D01*
X30807142Y73157143D02*
X30664285Y72728572D01*
X31035714Y72728572D01*
X31378571Y73128572D02*
X31435714Y73128572D01*
X31492857Y73100000D01*
X31521428Y73071429D01*
X31550000Y73014286D01*
X31578571Y72900000D01*
X31578571Y72757143D01*
X31550000Y72642858D01*
X31521428Y72585715D01*
X31492857Y72557143D01*
X31435714Y72528572D01*
X31378571Y72528572D01*
X31321428Y72557143D01*
X31292857Y72585715D01*
X31264285Y72642858D01*
X31235714Y72757143D01*
X31235714Y72900000D01*
X31264285Y73014286D01*
X31292857Y73071429D01*
X31321428Y73100000D01*
X31378571Y73128572D01*
X32150000Y72528572D02*
X31807142Y72528572D01*
X31978571Y72528572D02*
X31978571Y73128572D01*
X31921428Y73042858D01*
X31864285Y72985715D01*
X31807142Y72957143D01*
X50135714Y6278572D02*
X50135714Y6878572D01*
X50364285Y6878572D01*
X50421428Y6850000D01*
X50450000Y6821429D01*
X50478571Y6764286D01*
X50478571Y6678572D01*
X50450000Y6621429D01*
X50421428Y6592858D01*
X50364285Y6564286D01*
X50135714Y6564286D01*
X50992857Y6678572D02*
X50992857Y6278572D01*
X50850000Y6907143D02*
X50707142Y6478572D01*
X51078571Y6478572D01*
X51421428Y6878572D02*
X51478571Y6878572D01*
X51535714Y6850000D01*
X51564285Y6821429D01*
X51592857Y6764286D01*
X51621428Y6650000D01*
X51621428Y6507143D01*
X51592857Y6392858D01*
X51564285Y6335715D01*
X51535714Y6307143D01*
X51478571Y6278572D01*
X51421428Y6278572D01*
X51364285Y6307143D01*
X51335714Y6335715D01*
X51307142Y6392858D01*
X51278571Y6507143D01*
X51278571Y6650000D01*
X51307142Y6764286D01*
X51335714Y6821429D01*
X51364285Y6850000D01*
X51421428Y6878572D01*
X51850000Y6821429D02*
X51878571Y6850000D01*
X51935714Y6878572D01*
X52078571Y6878572D01*
X52135714Y6850000D01*
X52164285Y6821429D01*
X52192857Y6764286D01*
X52192857Y6707143D01*
X52164285Y6621429D01*
X51821428Y6278572D01*
X52192857Y6278572D01*
X1678571Y37478572D02*
X1392857Y37478572D01*
X1392857Y38078572D01*
X2164285Y38078572D02*
X1878571Y38078572D01*
X1850000Y37792858D01*
X1878571Y37821429D01*
X1935714Y37850000D01*
X2078571Y37850000D01*
X2135714Y37821429D01*
X2164285Y37792858D01*
X2192857Y37735715D01*
X2192857Y37592858D01*
X2164285Y37535715D01*
X2135714Y37507143D01*
X2078571Y37478572D01*
X1935714Y37478572D01*
X1878571Y37507143D01*
X1850000Y37535715D01*
X2564285Y38078572D02*
X2621428Y38078572D01*
X2678571Y38050000D01*
X2707142Y38021429D01*
X2735714Y37964286D01*
X2764285Y37850000D01*
X2764285Y37707143D01*
X2735714Y37592858D01*
X2707142Y37535715D01*
X2678571Y37507143D01*
X2621428Y37478572D01*
X2564285Y37478572D01*
X2507142Y37507143D01*
X2478571Y37535715D01*
X2450000Y37592858D01*
X2421428Y37707143D01*
X2421428Y37850000D01*
X2450000Y37964286D01*
X2478571Y38021429D01*
X2507142Y38050000D01*
X2564285Y38078572D01*
X3335714Y37478572D02*
X2992857Y37478572D01*
X3164285Y37478572D02*
X3164285Y38078572D01*
X3107142Y37992858D01*
X3050000Y37935715D01*
X2992857Y37907143D01*
X4378571Y26885715D02*
X4350000Y26857143D01*
X4264285Y26828572D01*
X4207142Y26828572D01*
X4121428Y26857143D01*
X4064285Y26914286D01*
X4035714Y26971429D01*
X4007142Y27085715D01*
X4007142Y27171429D01*
X4035714Y27285715D01*
X4064285Y27342858D01*
X4121428Y27400000D01*
X4207142Y27428572D01*
X4264285Y27428572D01*
X4350000Y27400000D01*
X4378571Y27371429D01*
X4921428Y27428572D02*
X4635714Y27428572D01*
X4607142Y27142858D01*
X4635714Y27171429D01*
X4692857Y27200000D01*
X4835714Y27200000D01*
X4892857Y27171429D01*
X4921428Y27142858D01*
X4950000Y27085715D01*
X4950000Y26942858D01*
X4921428Y26885715D01*
X4892857Y26857143D01*
X4835714Y26828572D01*
X4692857Y26828572D01*
X4635714Y26857143D01*
X4607142Y26885715D01*
X5321428Y27428572D02*
X5378571Y27428572D01*
X5435714Y27400000D01*
X5464285Y27371429D01*
X5492857Y27314286D01*
X5521428Y27200000D01*
X5521428Y27057143D01*
X5492857Y26942858D01*
X5464285Y26885715D01*
X5435714Y26857143D01*
X5378571Y26828572D01*
X5321428Y26828572D01*
X5264285Y26857143D01*
X5235714Y26885715D01*
X5207142Y26942858D01*
X5178571Y27057143D01*
X5178571Y27200000D01*
X5207142Y27314286D01*
X5235714Y27371429D01*
X5264285Y27400000D01*
X5321428Y27428572D01*
X6064285Y27428572D02*
X5778571Y27428572D01*
X5750000Y27142858D01*
X5778571Y27171429D01*
X5835714Y27200000D01*
X5978571Y27200000D01*
X6035714Y27171429D01*
X6064285Y27142858D01*
X6092857Y27085715D01*
X6092857Y26942858D01*
X6064285Y26885715D01*
X6035714Y26857143D01*
X5978571Y26828572D01*
X5835714Y26828572D01*
X5778571Y26857143D01*
X5750000Y26885715D01*
X30996428Y15303572D02*
X30996428Y14817858D01*
X31025000Y14760715D01*
X31053571Y14732143D01*
X31110714Y14703572D01*
X31225000Y14703572D01*
X31282142Y14732143D01*
X31310714Y14760715D01*
X31339285Y14817858D01*
X31339285Y15303572D01*
X31596428Y15246429D02*
X31625000Y15275000D01*
X31682142Y15303572D01*
X31825000Y15303572D01*
X31882142Y15275000D01*
X31910714Y15246429D01*
X31939285Y15189286D01*
X31939285Y15132143D01*
X31910714Y15046429D01*
X31567857Y14703572D01*
X31939285Y14703572D01*
X32310714Y15303572D02*
X32367857Y15303572D01*
X32425000Y15275000D01*
X32453571Y15246429D01*
X32482142Y15189286D01*
X32510714Y15075000D01*
X32510714Y14932143D01*
X32482142Y14817858D01*
X32453571Y14760715D01*
X32425000Y14732143D01*
X32367857Y14703572D01*
X32310714Y14703572D01*
X32253571Y14732143D01*
X32225000Y14760715D01*
X32196428Y14817858D01*
X32167857Y14932143D01*
X32167857Y15075000D01*
X32196428Y15189286D01*
X32225000Y15246429D01*
X32253571Y15275000D01*
X32310714Y15303572D01*
X32739285Y15246429D02*
X32767857Y15275000D01*
X32825000Y15303572D01*
X32967857Y15303572D01*
X33025000Y15275000D01*
X33053571Y15246429D01*
X33082142Y15189286D01*
X33082142Y15132143D01*
X33053571Y15046429D01*
X32710714Y14703572D01*
X33082142Y14703572D01*
X20328571Y30985715D02*
X20300000Y30957143D01*
X20214285Y30928572D01*
X20157142Y30928572D01*
X20071428Y30957143D01*
X20014285Y31014286D01*
X19985714Y31071429D01*
X19957142Y31185715D01*
X19957142Y31271429D01*
X19985714Y31385715D01*
X20014285Y31442858D01*
X20071428Y31500000D01*
X20157142Y31528572D01*
X20214285Y31528572D01*
X20300000Y31500000D01*
X20328571Y31471429D01*
X20557142Y31471429D02*
X20585714Y31500000D01*
X20642857Y31528572D01*
X20785714Y31528572D01*
X20842857Y31500000D01*
X20871428Y31471429D01*
X20900000Y31414286D01*
X20900000Y31357143D01*
X20871428Y31271429D01*
X20528571Y30928572D01*
X20900000Y30928572D01*
X21271428Y31528572D02*
X21328571Y31528572D01*
X21385714Y31500000D01*
X21414285Y31471429D01*
X21442857Y31414286D01*
X21471428Y31300000D01*
X21471428Y31157143D01*
X21442857Y31042858D01*
X21414285Y30985715D01*
X21385714Y30957143D01*
X21328571Y30928572D01*
X21271428Y30928572D01*
X21214285Y30957143D01*
X21185714Y30985715D01*
X21157142Y31042858D01*
X21128571Y31157143D01*
X21128571Y31300000D01*
X21157142Y31414286D01*
X21185714Y31471429D01*
X21214285Y31500000D01*
X21271428Y31528572D01*
X22014285Y31528572D02*
X21728571Y31528572D01*
X21700000Y31242858D01*
X21728571Y31271429D01*
X21785714Y31300000D01*
X21928571Y31300000D01*
X21985714Y31271429D01*
X22014285Y31242858D01*
X22042857Y31185715D01*
X22042857Y31042858D01*
X22014285Y30985715D01*
X21985714Y30957143D01*
X21928571Y30928572D01*
X21785714Y30928572D01*
X21728571Y30957143D01*
X21700000Y30985715D01*
X12114285Y5828572D02*
X12142857Y5800000D01*
X12171428Y5714286D01*
X12171428Y5657143D01*
X12142857Y5571429D01*
X12085714Y5514286D01*
X12028571Y5485715D01*
X11914285Y5457143D01*
X11828571Y5457143D01*
X11714285Y5485715D01*
X11657142Y5514286D01*
X11600000Y5571429D01*
X11571428Y5657143D01*
X11571428Y5714286D01*
X11600000Y5800000D01*
X11628571Y5828572D01*
X11628571Y6057143D02*
X11600000Y6085715D01*
X11571428Y6142858D01*
X11571428Y6285715D01*
X11600000Y6342858D01*
X11628571Y6371429D01*
X11685714Y6400000D01*
X11742857Y6400000D01*
X11828571Y6371429D01*
X12171428Y6028572D01*
X12171428Y6400000D01*
X11571428Y6771429D02*
X11571428Y6828572D01*
X11600000Y6885715D01*
X11628571Y6914286D01*
X11685714Y6942858D01*
X11800000Y6971429D01*
X11942857Y6971429D01*
X12057142Y6942858D01*
X12114285Y6914286D01*
X12142857Y6885715D01*
X12171428Y6828572D01*
X12171428Y6771429D01*
X12142857Y6714286D01*
X12114285Y6685715D01*
X12057142Y6657143D01*
X11942857Y6628572D01*
X11800000Y6628572D01*
X11685714Y6657143D01*
X11628571Y6685715D01*
X11600000Y6714286D01*
X11571428Y6771429D01*
X12171428Y7542858D02*
X12171428Y7200000D01*
X12171428Y7371429D02*
X11571428Y7371429D01*
X11657142Y7314286D01*
X11714285Y7257143D01*
X11742857Y7200000D01*
X16058571Y10845715D02*
X16030000Y10817143D01*
X15944285Y10788572D01*
X15887142Y10788572D01*
X15801428Y10817143D01*
X15744285Y10874286D01*
X15715714Y10931429D01*
X15687142Y11045715D01*
X15687142Y11131429D01*
X15715714Y11245715D01*
X15744285Y11302858D01*
X15801428Y11360000D01*
X15887142Y11388572D01*
X15944285Y11388572D01*
X16030000Y11360000D01*
X16058571Y11331429D01*
X16287142Y11331429D02*
X16315714Y11360000D01*
X16372857Y11388572D01*
X16515714Y11388572D01*
X16572857Y11360000D01*
X16601428Y11331429D01*
X16630000Y11274286D01*
X16630000Y11217143D01*
X16601428Y11131429D01*
X16258571Y10788572D01*
X16630000Y10788572D01*
X17001428Y11388572D02*
X17058571Y11388572D01*
X17115714Y11360000D01*
X17144285Y11331429D01*
X17172857Y11274286D01*
X17201428Y11160000D01*
X17201428Y11017143D01*
X17172857Y10902858D01*
X17144285Y10845715D01*
X17115714Y10817143D01*
X17058571Y10788572D01*
X17001428Y10788572D01*
X16944285Y10817143D01*
X16915714Y10845715D01*
X16887142Y10902858D01*
X16858571Y11017143D01*
X16858571Y11160000D01*
X16887142Y11274286D01*
X16915714Y11331429D01*
X16944285Y11360000D01*
X17001428Y11388572D01*
X17430000Y11331429D02*
X17458571Y11360000D01*
X17515714Y11388572D01*
X17658571Y11388572D01*
X17715714Y11360000D01*
X17744285Y11331429D01*
X17772857Y11274286D01*
X17772857Y11217143D01*
X17744285Y11131429D01*
X17401428Y10788572D01*
X17772857Y10788572D01*
X32903571Y11535715D02*
X32875000Y11507143D01*
X32789285Y11478572D01*
X32732142Y11478572D01*
X32646428Y11507143D01*
X32589285Y11564286D01*
X32560714Y11621429D01*
X32532142Y11735715D01*
X32532142Y11821429D01*
X32560714Y11935715D01*
X32589285Y11992858D01*
X32646428Y12050000D01*
X32732142Y12078572D01*
X32789285Y12078572D01*
X32875000Y12050000D01*
X32903571Y12021429D01*
X33132142Y12021429D02*
X33160714Y12050000D01*
X33217857Y12078572D01*
X33360714Y12078572D01*
X33417857Y12050000D01*
X33446428Y12021429D01*
X33475000Y11964286D01*
X33475000Y11907143D01*
X33446428Y11821429D01*
X33103571Y11478572D01*
X33475000Y11478572D01*
X33846428Y12078572D02*
X33903571Y12078572D01*
X33960714Y12050000D01*
X33989285Y12021429D01*
X34017857Y11964286D01*
X34046428Y11850000D01*
X34046428Y11707143D01*
X34017857Y11592858D01*
X33989285Y11535715D01*
X33960714Y11507143D01*
X33903571Y11478572D01*
X33846428Y11478572D01*
X33789285Y11507143D01*
X33760714Y11535715D01*
X33732142Y11592858D01*
X33703571Y11707143D01*
X33703571Y11850000D01*
X33732142Y11964286D01*
X33760714Y12021429D01*
X33789285Y12050000D01*
X33846428Y12078572D01*
X34246428Y12078572D02*
X34617857Y12078572D01*
X34417857Y11850000D01*
X34503571Y11850000D01*
X34560714Y11821429D01*
X34589285Y11792858D01*
X34617857Y11735715D01*
X34617857Y11592858D01*
X34589285Y11535715D01*
X34560714Y11507143D01*
X34503571Y11478572D01*
X34332142Y11478572D01*
X34275000Y11507143D01*
X34246428Y11535715D01*
X43034285Y7068572D02*
X43062857Y7040000D01*
X43091428Y6954286D01*
X43091428Y6897143D01*
X43062857Y6811429D01*
X43005714Y6754286D01*
X42948571Y6725715D01*
X42834285Y6697143D01*
X42748571Y6697143D01*
X42634285Y6725715D01*
X42577142Y6754286D01*
X42520000Y6811429D01*
X42491428Y6897143D01*
X42491428Y6954286D01*
X42520000Y7040000D01*
X42548571Y7068572D01*
X42548571Y7297143D02*
X42520000Y7325715D01*
X42491428Y7382858D01*
X42491428Y7525715D01*
X42520000Y7582858D01*
X42548571Y7611429D01*
X42605714Y7640000D01*
X42662857Y7640000D01*
X42748571Y7611429D01*
X43091428Y7268572D01*
X43091428Y7640000D01*
X42491428Y8011429D02*
X42491428Y8068572D01*
X42520000Y8125715D01*
X42548571Y8154286D01*
X42605714Y8182858D01*
X42720000Y8211429D01*
X42862857Y8211429D01*
X42977142Y8182858D01*
X43034285Y8154286D01*
X43062857Y8125715D01*
X43091428Y8068572D01*
X43091428Y8011429D01*
X43062857Y7954286D01*
X43034285Y7925715D01*
X42977142Y7897143D01*
X42862857Y7868572D01*
X42720000Y7868572D01*
X42605714Y7897143D01*
X42548571Y7925715D01*
X42520000Y7954286D01*
X42491428Y8011429D01*
X42691428Y8725715D02*
X43091428Y8725715D01*
X42462857Y8582858D02*
X42891428Y8440000D01*
X42891428Y8811429D01*
X24828571Y17828572D02*
X24628571Y18114286D01*
X24485714Y17828572D02*
X24485714Y18428572D01*
X24714285Y18428572D01*
X24771428Y18400000D01*
X24800000Y18371429D01*
X24828571Y18314286D01*
X24828571Y18228572D01*
X24800000Y18171429D01*
X24771428Y18142858D01*
X24714285Y18114286D01*
X24485714Y18114286D01*
X25057142Y18371429D02*
X25085714Y18400000D01*
X25142857Y18428572D01*
X25285714Y18428572D01*
X25342857Y18400000D01*
X25371428Y18371429D01*
X25400000Y18314286D01*
X25400000Y18257143D01*
X25371428Y18171429D01*
X25028571Y17828572D01*
X25400000Y17828572D01*
X25771428Y18428572D02*
X25828571Y18428572D01*
X25885714Y18400000D01*
X25914285Y18371429D01*
X25942857Y18314286D01*
X25971428Y18200000D01*
X25971428Y18057143D01*
X25942857Y17942858D01*
X25914285Y17885715D01*
X25885714Y17857143D01*
X25828571Y17828572D01*
X25771428Y17828572D01*
X25714285Y17857143D01*
X25685714Y17885715D01*
X25657142Y17942858D01*
X25628571Y18057143D01*
X25628571Y18200000D01*
X25657142Y18314286D01*
X25685714Y18371429D01*
X25714285Y18400000D01*
X25771428Y18428572D01*
X26542857Y17828572D02*
X26200000Y17828572D01*
X26371428Y17828572D02*
X26371428Y18428572D01*
X26314285Y18342858D01*
X26257142Y18285715D01*
X26200000Y18257143D01*
X15843571Y15363572D02*
X15643571Y15649286D01*
X15500714Y15363572D02*
X15500714Y15963572D01*
X15729285Y15963572D01*
X15786428Y15935000D01*
X15815000Y15906429D01*
X15843571Y15849286D01*
X15843571Y15763572D01*
X15815000Y15706429D01*
X15786428Y15677858D01*
X15729285Y15649286D01*
X15500714Y15649286D01*
X16357857Y15763572D02*
X16357857Y15363572D01*
X16215000Y15992143D02*
X16072142Y15563572D01*
X16443571Y15563572D01*
X16786428Y15963572D02*
X16843571Y15963572D01*
X16900714Y15935000D01*
X16929285Y15906429D01*
X16957857Y15849286D01*
X16986428Y15735000D01*
X16986428Y15592143D01*
X16957857Y15477858D01*
X16929285Y15420715D01*
X16900714Y15392143D01*
X16843571Y15363572D01*
X16786428Y15363572D01*
X16729285Y15392143D01*
X16700714Y15420715D01*
X16672142Y15477858D01*
X16643571Y15592143D01*
X16643571Y15735000D01*
X16672142Y15849286D01*
X16700714Y15906429D01*
X16729285Y15935000D01*
X16786428Y15963572D01*
X17557857Y15363572D02*
X17215000Y15363572D01*
X17386428Y15363572D02*
X17386428Y15963572D01*
X17329285Y15877858D01*
X17272142Y15820715D01*
X17215000Y15792143D01*
X20578571Y20828572D02*
X20378571Y21114286D01*
X20235714Y20828572D02*
X20235714Y21428572D01*
X20464285Y21428572D01*
X20521428Y21400000D01*
X20550000Y21371429D01*
X20578571Y21314286D01*
X20578571Y21228572D01*
X20550000Y21171429D01*
X20521428Y21142858D01*
X20464285Y21114286D01*
X20235714Y21114286D01*
X21092857Y21228572D02*
X21092857Y20828572D01*
X20950000Y21457143D02*
X20807142Y21028572D01*
X21178571Y21028572D01*
X21521428Y21428572D02*
X21578571Y21428572D01*
X21635714Y21400000D01*
X21664285Y21371429D01*
X21692857Y21314286D01*
X21721428Y21200000D01*
X21721428Y21057143D01*
X21692857Y20942858D01*
X21664285Y20885715D01*
X21635714Y20857143D01*
X21578571Y20828572D01*
X21521428Y20828572D01*
X21464285Y20857143D01*
X21435714Y20885715D01*
X21407142Y20942858D01*
X21378571Y21057143D01*
X21378571Y21200000D01*
X21407142Y21314286D01*
X21435714Y21371429D01*
X21464285Y21400000D01*
X21521428Y21428572D01*
X21950000Y21371429D02*
X21978571Y21400000D01*
X22035714Y21428572D01*
X22178571Y21428572D01*
X22235714Y21400000D01*
X22264285Y21371429D01*
X22292857Y21314286D01*
X22292857Y21257143D01*
X22264285Y21171429D01*
X21921428Y20828572D01*
X22292857Y20828572D01*
X10678571Y39310715D02*
X10650000Y39282143D01*
X10564285Y39253572D01*
X10507142Y39253572D01*
X10421428Y39282143D01*
X10364285Y39339286D01*
X10335714Y39396429D01*
X10307142Y39510715D01*
X10307142Y39596429D01*
X10335714Y39710715D01*
X10364285Y39767858D01*
X10421428Y39825000D01*
X10507142Y39853572D01*
X10564285Y39853572D01*
X10650000Y39825000D01*
X10678571Y39796429D01*
X11221428Y39853572D02*
X10935714Y39853572D01*
X10907142Y39567858D01*
X10935714Y39596429D01*
X10992857Y39625000D01*
X11135714Y39625000D01*
X11192857Y39596429D01*
X11221428Y39567858D01*
X11250000Y39510715D01*
X11250000Y39367858D01*
X11221428Y39310715D01*
X11192857Y39282143D01*
X11135714Y39253572D01*
X10992857Y39253572D01*
X10935714Y39282143D01*
X10907142Y39310715D01*
X11621428Y39853572D02*
X11678571Y39853572D01*
X11735714Y39825000D01*
X11764285Y39796429D01*
X11792857Y39739286D01*
X11821428Y39625000D01*
X11821428Y39482143D01*
X11792857Y39367858D01*
X11764285Y39310715D01*
X11735714Y39282143D01*
X11678571Y39253572D01*
X11621428Y39253572D01*
X11564285Y39282143D01*
X11535714Y39310715D01*
X11507142Y39367858D01*
X11478571Y39482143D01*
X11478571Y39625000D01*
X11507142Y39739286D01*
X11535714Y39796429D01*
X11564285Y39825000D01*
X11621428Y39853572D01*
X12392857Y39253572D02*
X12050000Y39253572D01*
X12221428Y39253572D02*
X12221428Y39853572D01*
X12164285Y39767858D01*
X12107142Y39710715D01*
X12050000Y39682143D01*
X5364285Y37303572D02*
X5392857Y37275000D01*
X5421428Y37189286D01*
X5421428Y37132143D01*
X5392857Y37046429D01*
X5335714Y36989286D01*
X5278571Y36960715D01*
X5164285Y36932143D01*
X5078571Y36932143D01*
X4964285Y36960715D01*
X4907142Y36989286D01*
X4850000Y37046429D01*
X4821428Y37132143D01*
X4821428Y37189286D01*
X4850000Y37275000D01*
X4878571Y37303572D01*
X4821428Y37846429D02*
X4821428Y37560715D01*
X5107142Y37532143D01*
X5078571Y37560715D01*
X5050000Y37617858D01*
X5050000Y37760715D01*
X5078571Y37817858D01*
X5107142Y37846429D01*
X5164285Y37875000D01*
X5307142Y37875000D01*
X5364285Y37846429D01*
X5392857Y37817858D01*
X5421428Y37760715D01*
X5421428Y37617858D01*
X5392857Y37560715D01*
X5364285Y37532143D01*
X4821428Y38246429D02*
X4821428Y38303572D01*
X4850000Y38360715D01*
X4878571Y38389286D01*
X4935714Y38417858D01*
X5050000Y38446429D01*
X5192857Y38446429D01*
X5307142Y38417858D01*
X5364285Y38389286D01*
X5392857Y38360715D01*
X5421428Y38303572D01*
X5421428Y38246429D01*
X5392857Y38189286D01*
X5364285Y38160715D01*
X5307142Y38132143D01*
X5192857Y38103572D01*
X5050000Y38103572D01*
X4935714Y38132143D01*
X4878571Y38160715D01*
X4850000Y38189286D01*
X4821428Y38246429D01*
X4821428Y38646429D02*
X4821428Y39017858D01*
X5050000Y38817858D01*
X5050000Y38903572D01*
X5078571Y38960715D01*
X5107142Y38989286D01*
X5164285Y39017858D01*
X5307142Y39017858D01*
X5364285Y38989286D01*
X5392857Y38960715D01*
X5421428Y38903572D01*
X5421428Y38732143D01*
X5392857Y38675000D01*
X5364285Y38646429D01*
X10528571Y30653572D02*
X10328571Y30939286D01*
X10185714Y30653572D02*
X10185714Y31253572D01*
X10414285Y31253572D01*
X10471428Y31225000D01*
X10500000Y31196429D01*
X10528571Y31139286D01*
X10528571Y31053572D01*
X10500000Y30996429D01*
X10471428Y30967858D01*
X10414285Y30939286D01*
X10185714Y30939286D01*
X11071428Y31253572D02*
X10785714Y31253572D01*
X10757142Y30967858D01*
X10785714Y30996429D01*
X10842857Y31025000D01*
X10985714Y31025000D01*
X11042857Y30996429D01*
X11071428Y30967858D01*
X11100000Y30910715D01*
X11100000Y30767858D01*
X11071428Y30710715D01*
X11042857Y30682143D01*
X10985714Y30653572D01*
X10842857Y30653572D01*
X10785714Y30682143D01*
X10757142Y30710715D01*
X11471428Y31253572D02*
X11528571Y31253572D01*
X11585714Y31225000D01*
X11614285Y31196429D01*
X11642857Y31139286D01*
X11671428Y31025000D01*
X11671428Y30882143D01*
X11642857Y30767858D01*
X11614285Y30710715D01*
X11585714Y30682143D01*
X11528571Y30653572D01*
X11471428Y30653572D01*
X11414285Y30682143D01*
X11385714Y30710715D01*
X11357142Y30767858D01*
X11328571Y30882143D01*
X11328571Y31025000D01*
X11357142Y31139286D01*
X11385714Y31196429D01*
X11414285Y31225000D01*
X11471428Y31253572D01*
X11900000Y31196429D02*
X11928571Y31225000D01*
X11985714Y31253572D01*
X12128571Y31253572D01*
X12185714Y31225000D01*
X12214285Y31196429D01*
X12242857Y31139286D01*
X12242857Y31082143D01*
X12214285Y30996429D01*
X11871428Y30653572D01*
X12242857Y30653572D01*
X9721428Y33153572D02*
X9721428Y32667858D01*
X9750000Y32610715D01*
X9778571Y32582143D01*
X9835714Y32553572D01*
X9950000Y32553572D01*
X10007142Y32582143D01*
X10035714Y32610715D01*
X10064285Y32667858D01*
X10064285Y33153572D01*
X10635714Y33153572D02*
X10350000Y33153572D01*
X10321428Y32867858D01*
X10350000Y32896429D01*
X10407142Y32925000D01*
X10550000Y32925000D01*
X10607142Y32896429D01*
X10635714Y32867858D01*
X10664285Y32810715D01*
X10664285Y32667858D01*
X10635714Y32610715D01*
X10607142Y32582143D01*
X10550000Y32553572D01*
X10407142Y32553572D01*
X10350000Y32582143D01*
X10321428Y32610715D01*
X11035714Y33153572D02*
X11092857Y33153572D01*
X11150000Y33125000D01*
X11178571Y33096429D01*
X11207142Y33039286D01*
X11235714Y32925000D01*
X11235714Y32782143D01*
X11207142Y32667858D01*
X11178571Y32610715D01*
X11150000Y32582143D01*
X11092857Y32553572D01*
X11035714Y32553572D01*
X10978571Y32582143D01*
X10950000Y32610715D01*
X10921428Y32667858D01*
X10892857Y32782143D01*
X10892857Y32925000D01*
X10921428Y33039286D01*
X10950000Y33096429D01*
X10978571Y33125000D01*
X11035714Y33153572D01*
X11807142Y32553572D02*
X11464285Y32553572D01*
X11635714Y32553572D02*
X11635714Y33153572D01*
X11578571Y33067858D01*
X11521428Y33010715D01*
X11464285Y32982143D01*
X10728571Y37703572D02*
X10528571Y37989286D01*
X10385714Y37703572D02*
X10385714Y38303572D01*
X10614285Y38303572D01*
X10671428Y38275000D01*
X10700000Y38246429D01*
X10728571Y38189286D01*
X10728571Y38103572D01*
X10700000Y38046429D01*
X10671428Y38017858D01*
X10614285Y37989286D01*
X10385714Y37989286D01*
X11242857Y38103572D02*
X11242857Y37703572D01*
X11100000Y38332143D02*
X10957142Y37903572D01*
X11328571Y37903572D01*
X11671428Y38303572D02*
X11728571Y38303572D01*
X11785714Y38275000D01*
X11814285Y38246429D01*
X11842857Y38189286D01*
X11871428Y38075000D01*
X11871428Y37932143D01*
X11842857Y37817858D01*
X11814285Y37760715D01*
X11785714Y37732143D01*
X11728571Y37703572D01*
X11671428Y37703572D01*
X11614285Y37732143D01*
X11585714Y37760715D01*
X11557142Y37817858D01*
X11528571Y37932143D01*
X11528571Y38075000D01*
X11557142Y38189286D01*
X11585714Y38246429D01*
X11614285Y38275000D01*
X11671428Y38303572D01*
X12385714Y38103572D02*
X12385714Y37703572D01*
X12242857Y38332143D02*
X12100000Y37903572D01*
X12471428Y37903572D01*
X3021428Y40060715D02*
X2421428Y40060715D01*
X2421428Y40203572D01*
X2450000Y40289286D01*
X2507142Y40346429D01*
X2564285Y40375000D01*
X2678571Y40403572D01*
X2764285Y40403572D01*
X2878571Y40375000D01*
X2935714Y40346429D01*
X2992857Y40289286D01*
X3021428Y40203572D01*
X3021428Y40060715D01*
X2421428Y40603572D02*
X2421428Y40975000D01*
X2650000Y40775000D01*
X2650000Y40860715D01*
X2678571Y40917858D01*
X2707142Y40946429D01*
X2764285Y40975000D01*
X2907142Y40975000D01*
X2964285Y40946429D01*
X2992857Y40917858D01*
X3021428Y40860715D01*
X3021428Y40689286D01*
X2992857Y40632143D01*
X2964285Y40603572D01*
X2421428Y41346429D02*
X2421428Y41403572D01*
X2450000Y41460715D01*
X2478571Y41489286D01*
X2535714Y41517858D01*
X2650000Y41546429D01*
X2792857Y41546429D01*
X2907142Y41517858D01*
X2964285Y41489286D01*
X2992857Y41460715D01*
X3021428Y41403572D01*
X3021428Y41346429D01*
X2992857Y41289286D01*
X2964285Y41260715D01*
X2907142Y41232143D01*
X2792857Y41203572D01*
X2650000Y41203572D01*
X2535714Y41232143D01*
X2478571Y41260715D01*
X2450000Y41289286D01*
X2421428Y41346429D01*
X3021428Y42117858D02*
X3021428Y41775000D01*
X3021428Y41946429D02*
X2421428Y41946429D01*
X2507142Y41889286D01*
X2564285Y41832143D01*
X2592857Y41775000D01*
X7728571Y27903572D02*
X7528571Y28189286D01*
X7385714Y27903572D02*
X7385714Y28503572D01*
X7614285Y28503572D01*
X7671428Y28475000D01*
X7700000Y28446429D01*
X7728571Y28389286D01*
X7728571Y28303572D01*
X7700000Y28246429D01*
X7671428Y28217858D01*
X7614285Y28189286D01*
X7385714Y28189286D01*
X8271428Y28503572D02*
X7985714Y28503572D01*
X7957142Y28217858D01*
X7985714Y28246429D01*
X8042857Y28275000D01*
X8185714Y28275000D01*
X8242857Y28246429D01*
X8271428Y28217858D01*
X8300000Y28160715D01*
X8300000Y28017858D01*
X8271428Y27960715D01*
X8242857Y27932143D01*
X8185714Y27903572D01*
X8042857Y27903572D01*
X7985714Y27932143D01*
X7957142Y27960715D01*
X8671428Y28503572D02*
X8728571Y28503572D01*
X8785714Y28475000D01*
X8814285Y28446429D01*
X8842857Y28389286D01*
X8871428Y28275000D01*
X8871428Y28132143D01*
X8842857Y28017858D01*
X8814285Y27960715D01*
X8785714Y27932143D01*
X8728571Y27903572D01*
X8671428Y27903572D01*
X8614285Y27932143D01*
X8585714Y27960715D01*
X8557142Y28017858D01*
X8528571Y28132143D01*
X8528571Y28275000D01*
X8557142Y28389286D01*
X8585714Y28446429D01*
X8614285Y28475000D01*
X8671428Y28503572D01*
X9442857Y27903572D02*
X9100000Y27903572D01*
X9271428Y27903572D02*
X9271428Y28503572D01*
X9214285Y28417858D01*
X9157142Y28360715D01*
X9100000Y28332143D01*
X12571428Y29746429D02*
X13057142Y29746429D01*
X13114285Y29775000D01*
X13142857Y29803572D01*
X13171428Y29860715D01*
X13171428Y29975000D01*
X13142857Y30032143D01*
X13114285Y30060715D01*
X13057142Y30089286D01*
X12571428Y30089286D01*
X12628571Y30346429D02*
X12600000Y30375000D01*
X12571428Y30432143D01*
X12571428Y30575000D01*
X12600000Y30632143D01*
X12628571Y30660715D01*
X12685714Y30689286D01*
X12742857Y30689286D01*
X12828571Y30660715D01*
X13171428Y30317858D01*
X13171428Y30689286D01*
X12571428Y31060715D02*
X12571428Y31117858D01*
X12600000Y31175000D01*
X12628571Y31203572D01*
X12685714Y31232143D01*
X12800000Y31260715D01*
X12942857Y31260715D01*
X13057142Y31232143D01*
X13114285Y31203572D01*
X13142857Y31175000D01*
X13171428Y31117858D01*
X13171428Y31060715D01*
X13142857Y31003572D01*
X13114285Y30975000D01*
X13057142Y30946429D01*
X12942857Y30917858D01*
X12800000Y30917858D01*
X12685714Y30946429D01*
X12628571Y30975000D01*
X12600000Y31003572D01*
X12571428Y31060715D01*
X12571428Y31460715D02*
X12571428Y31832143D01*
X12800000Y31632143D01*
X12800000Y31717858D01*
X12828571Y31775000D01*
X12857142Y31803572D01*
X12914285Y31832143D01*
X13057142Y31832143D01*
X13114285Y31803572D01*
X13142857Y31775000D01*
X13171428Y31717858D01*
X13171428Y31546429D01*
X13142857Y31489286D01*
X13114285Y31460715D01*
X14342857Y9414286D02*
X14342857Y9128572D01*
X14142857Y9728572D02*
X14342857Y9414286D01*
X14542857Y9728572D01*
X14714285Y9671429D02*
X14742857Y9700000D01*
X14800000Y9728572D01*
X14942857Y9728572D01*
X15000000Y9700000D01*
X15028571Y9671429D01*
X15057142Y9614286D01*
X15057142Y9557143D01*
X15028571Y9471429D01*
X14685714Y9128572D01*
X15057142Y9128572D01*
X15428571Y9728572D02*
X15485714Y9728572D01*
X15542857Y9700000D01*
X15571428Y9671429D01*
X15600000Y9614286D01*
X15628571Y9500000D01*
X15628571Y9357143D01*
X15600000Y9242858D01*
X15571428Y9185715D01*
X15542857Y9157143D01*
X15485714Y9128572D01*
X15428571Y9128572D01*
X15371428Y9157143D01*
X15342857Y9185715D01*
X15314285Y9242858D01*
X15285714Y9357143D01*
X15285714Y9500000D01*
X15314285Y9614286D01*
X15342857Y9671429D01*
X15371428Y9700000D01*
X15428571Y9728572D01*
X16200000Y9128572D02*
X15857142Y9128572D01*
X16028571Y9128572D02*
X16028571Y9728572D01*
X15971428Y9642858D01*
X15914285Y9585715D01*
X15857142Y9557143D01*
X32803571Y29990715D02*
X32775000Y29962143D01*
X32689285Y29933572D01*
X32632142Y29933572D01*
X32546428Y29962143D01*
X32489285Y30019286D01*
X32460714Y30076429D01*
X32432142Y30190715D01*
X32432142Y30276429D01*
X32460714Y30390715D01*
X32489285Y30447858D01*
X32546428Y30505000D01*
X32632142Y30533572D01*
X32689285Y30533572D01*
X32775000Y30505000D01*
X32803571Y30476429D01*
X33317857Y30333572D02*
X33317857Y29933572D01*
X33175000Y30562143D02*
X33032142Y30133572D01*
X33403571Y30133572D01*
X33746428Y30533572D02*
X33803571Y30533572D01*
X33860714Y30505000D01*
X33889285Y30476429D01*
X33917857Y30419286D01*
X33946428Y30305000D01*
X33946428Y30162143D01*
X33917857Y30047858D01*
X33889285Y29990715D01*
X33860714Y29962143D01*
X33803571Y29933572D01*
X33746428Y29933572D01*
X33689285Y29962143D01*
X33660714Y29990715D01*
X33632142Y30047858D01*
X33603571Y30162143D01*
X33603571Y30305000D01*
X33632142Y30419286D01*
X33660714Y30476429D01*
X33689285Y30505000D01*
X33746428Y30533572D01*
X34175000Y30476429D02*
X34203571Y30505000D01*
X34260714Y30533572D01*
X34403571Y30533572D01*
X34460714Y30505000D01*
X34489285Y30476429D01*
X34517857Y30419286D01*
X34517857Y30362143D01*
X34489285Y30276429D01*
X34146428Y29933572D01*
X34517857Y29933572D01*
X36803571Y30435715D02*
X36775000Y30407143D01*
X36689285Y30378572D01*
X36632142Y30378572D01*
X36546428Y30407143D01*
X36489285Y30464286D01*
X36460714Y30521429D01*
X36432142Y30635715D01*
X36432142Y30721429D01*
X36460714Y30835715D01*
X36489285Y30892858D01*
X36546428Y30950000D01*
X36632142Y30978572D01*
X36689285Y30978572D01*
X36775000Y30950000D01*
X36803571Y30921429D01*
X37317857Y30778572D02*
X37317857Y30378572D01*
X37175000Y31007143D02*
X37032142Y30578572D01*
X37403571Y30578572D01*
X37746428Y30978572D02*
X37803571Y30978572D01*
X37860714Y30950000D01*
X37889285Y30921429D01*
X37917857Y30864286D01*
X37946428Y30750000D01*
X37946428Y30607143D01*
X37917857Y30492858D01*
X37889285Y30435715D01*
X37860714Y30407143D01*
X37803571Y30378572D01*
X37746428Y30378572D01*
X37689285Y30407143D01*
X37660714Y30435715D01*
X37632142Y30492858D01*
X37603571Y30607143D01*
X37603571Y30750000D01*
X37632142Y30864286D01*
X37660714Y30921429D01*
X37689285Y30950000D01*
X37746428Y30978572D01*
X38146428Y30978572D02*
X38517857Y30978572D01*
X38317857Y30750000D01*
X38403571Y30750000D01*
X38460714Y30721429D01*
X38489285Y30692858D01*
X38517857Y30635715D01*
X38517857Y30492858D01*
X38489285Y30435715D01*
X38460714Y30407143D01*
X38403571Y30378572D01*
X38232142Y30378572D01*
X38175000Y30407143D01*
X38146428Y30435715D01*
X7728571Y45692858D02*
X7528571Y45692858D01*
X7528571Y45378572D02*
X7528571Y45978572D01*
X7814285Y45978572D01*
X7985714Y45978572D02*
X8357142Y45978572D01*
X8157142Y45750000D01*
X8242857Y45750000D01*
X8300000Y45721429D01*
X8328571Y45692858D01*
X8357142Y45635715D01*
X8357142Y45492858D01*
X8328571Y45435715D01*
X8300000Y45407143D01*
X8242857Y45378572D01*
X8071428Y45378572D01*
X8014285Y45407143D01*
X7985714Y45435715D01*
X8728571Y45978572D02*
X8785714Y45978572D01*
X8842857Y45950000D01*
X8871428Y45921429D01*
X8900000Y45864286D01*
X8928571Y45750000D01*
X8928571Y45607143D01*
X8900000Y45492858D01*
X8871428Y45435715D01*
X8842857Y45407143D01*
X8785714Y45378572D01*
X8728571Y45378572D01*
X8671428Y45407143D01*
X8642857Y45435715D01*
X8614285Y45492858D01*
X8585714Y45607143D01*
X8585714Y45750000D01*
X8614285Y45864286D01*
X8642857Y45921429D01*
X8671428Y45950000D01*
X8728571Y45978572D01*
X9500000Y45378572D02*
X9157142Y45378572D01*
X9328571Y45378572D02*
X9328571Y45978572D01*
X9271428Y45892858D01*
X9214285Y45835715D01*
X9157142Y45807143D01*
X30778571Y30846429D02*
X30750000Y30789286D01*
X30692857Y30732143D01*
X30607142Y30646429D01*
X30578571Y30589286D01*
X30578571Y30532143D01*
X30721428Y30560715D02*
X30692857Y30503572D01*
X30635714Y30446429D01*
X30521428Y30417858D01*
X30321428Y30417858D01*
X30207142Y30446429D01*
X30150000Y30503572D01*
X30121428Y30560715D01*
X30121428Y30675000D01*
X30150000Y30732143D01*
X30207142Y30789286D01*
X30321428Y30817858D01*
X30521428Y30817858D01*
X30635714Y30789286D01*
X30692857Y30732143D01*
X30721428Y30675000D01*
X30721428Y30560715D01*
X30321428Y31332143D02*
X30721428Y31332143D01*
X30092857Y31189286D02*
X30521428Y31046429D01*
X30521428Y31417858D01*
X30121428Y31760715D02*
X30121428Y31817858D01*
X30150000Y31875000D01*
X30178571Y31903572D01*
X30235714Y31932143D01*
X30350000Y31960715D01*
X30492857Y31960715D01*
X30607142Y31932143D01*
X30664285Y31903572D01*
X30692857Y31875000D01*
X30721428Y31817858D01*
X30721428Y31760715D01*
X30692857Y31703572D01*
X30664285Y31675000D01*
X30607142Y31646429D01*
X30492857Y31617858D01*
X30350000Y31617858D01*
X30235714Y31646429D01*
X30178571Y31675000D01*
X30150000Y31703572D01*
X30121428Y31760715D01*
X30721428Y32532143D02*
X30721428Y32189286D01*
X30721428Y32360715D02*
X30121428Y32360715D01*
X30207142Y32303572D01*
X30264285Y32246429D01*
X30292857Y32189286D01*
X25021428Y41171429D02*
X24964285Y41200000D01*
X24907142Y41257143D01*
X24821428Y41342858D01*
X24764285Y41371429D01*
X24707142Y41371429D01*
X24735714Y41228572D02*
X24678571Y41257143D01*
X24621428Y41314286D01*
X24592857Y41428572D01*
X24592857Y41628572D01*
X24621428Y41742858D01*
X24678571Y41800000D01*
X24735714Y41828572D01*
X24850000Y41828572D01*
X24907142Y41800000D01*
X24964285Y41742858D01*
X24992857Y41628572D01*
X24992857Y41428572D01*
X24964285Y41314286D01*
X24907142Y41257143D01*
X24850000Y41228572D01*
X24735714Y41228572D01*
X25507142Y41628572D02*
X25507142Y41228572D01*
X25364285Y41857143D02*
X25221428Y41428572D01*
X25592857Y41428572D01*
X25935714Y41828572D02*
X25992857Y41828572D01*
X26050000Y41800000D01*
X26078571Y41771429D01*
X26107142Y41714286D01*
X26135714Y41600000D01*
X26135714Y41457143D01*
X26107142Y41342858D01*
X26078571Y41285715D01*
X26050000Y41257143D01*
X25992857Y41228572D01*
X25935714Y41228572D01*
X25878571Y41257143D01*
X25850000Y41285715D01*
X25821428Y41342858D01*
X25792857Y41457143D01*
X25792857Y41600000D01*
X25821428Y41714286D01*
X25850000Y41771429D01*
X25878571Y41800000D01*
X25935714Y41828572D01*
X26364285Y41771429D02*
X26392857Y41800000D01*
X26450000Y41828572D01*
X26592857Y41828572D01*
X26650000Y41800000D01*
X26678571Y41771429D01*
X26707142Y41714286D01*
X26707142Y41657143D01*
X26678571Y41571429D01*
X26335714Y41228572D01*
X26707142Y41228572D01*
X32721428Y21671429D02*
X32664285Y21700000D01*
X32607142Y21757143D01*
X32521428Y21842858D01*
X32464285Y21871429D01*
X32407142Y21871429D01*
X32435714Y21728572D02*
X32378571Y21757143D01*
X32321428Y21814286D01*
X32292857Y21928572D01*
X32292857Y22128572D01*
X32321428Y22242858D01*
X32378571Y22300000D01*
X32435714Y22328572D01*
X32550000Y22328572D01*
X32607142Y22300000D01*
X32664285Y22242858D01*
X32692857Y22128572D01*
X32692857Y21928572D01*
X32664285Y21814286D01*
X32607142Y21757143D01*
X32550000Y21728572D01*
X32435714Y21728572D01*
X33207142Y22128572D02*
X33207142Y21728572D01*
X33064285Y22357143D02*
X32921428Y21928572D01*
X33292857Y21928572D01*
X33635714Y22328572D02*
X33692857Y22328572D01*
X33750000Y22300000D01*
X33778571Y22271429D01*
X33807142Y22214286D01*
X33835714Y22100000D01*
X33835714Y21957143D01*
X33807142Y21842858D01*
X33778571Y21785715D01*
X33750000Y21757143D01*
X33692857Y21728572D01*
X33635714Y21728572D01*
X33578571Y21757143D01*
X33550000Y21785715D01*
X33521428Y21842858D01*
X33492857Y21957143D01*
X33492857Y22100000D01*
X33521428Y22214286D01*
X33550000Y22271429D01*
X33578571Y22300000D01*
X33635714Y22328572D01*
X34035714Y22328572D02*
X34407142Y22328572D01*
X34207142Y22100000D01*
X34292857Y22100000D01*
X34350000Y22071429D01*
X34378571Y22042858D01*
X34407142Y21985715D01*
X34407142Y21842858D01*
X34378571Y21785715D01*
X34350000Y21757143D01*
X34292857Y21728572D01*
X34121428Y21728572D01*
X34064285Y21757143D01*
X34035714Y21785715D01*
X41171428Y34971429D02*
X41114285Y35000000D01*
X41057142Y35057143D01*
X40971428Y35142858D01*
X40914285Y35171429D01*
X40857142Y35171429D01*
X40885714Y35028572D02*
X40828571Y35057143D01*
X40771428Y35114286D01*
X40742857Y35228572D01*
X40742857Y35428572D01*
X40771428Y35542858D01*
X40828571Y35600000D01*
X40885714Y35628572D01*
X41000000Y35628572D01*
X41057142Y35600000D01*
X41114285Y35542858D01*
X41142857Y35428572D01*
X41142857Y35228572D01*
X41114285Y35114286D01*
X41057142Y35057143D01*
X41000000Y35028572D01*
X40885714Y35028572D01*
X41657142Y35428572D02*
X41657142Y35028572D01*
X41514285Y35657143D02*
X41371428Y35228572D01*
X41742857Y35228572D01*
X42085714Y35628572D02*
X42142857Y35628572D01*
X42200000Y35600000D01*
X42228571Y35571429D01*
X42257142Y35514286D01*
X42285714Y35400000D01*
X42285714Y35257143D01*
X42257142Y35142858D01*
X42228571Y35085715D01*
X42200000Y35057143D01*
X42142857Y35028572D01*
X42085714Y35028572D01*
X42028571Y35057143D01*
X42000000Y35085715D01*
X41971428Y35142858D01*
X41942857Y35257143D01*
X41942857Y35400000D01*
X41971428Y35514286D01*
X42000000Y35571429D01*
X42028571Y35600000D01*
X42085714Y35628572D01*
X42800000Y35428572D02*
X42800000Y35028572D01*
X42657142Y35657143D02*
X42514285Y35228572D01*
X42885714Y35228572D01*
X46196428Y38421429D02*
X46139285Y38450000D01*
X46082142Y38507143D01*
X45996428Y38592858D01*
X45939285Y38621429D01*
X45882142Y38621429D01*
X45910714Y38478572D02*
X45853571Y38507143D01*
X45796428Y38564286D01*
X45767857Y38678572D01*
X45767857Y38878572D01*
X45796428Y38992858D01*
X45853571Y39050000D01*
X45910714Y39078572D01*
X46025000Y39078572D01*
X46082142Y39050000D01*
X46139285Y38992858D01*
X46167857Y38878572D01*
X46167857Y38678572D01*
X46139285Y38564286D01*
X46082142Y38507143D01*
X46025000Y38478572D01*
X45910714Y38478572D01*
X46682142Y38878572D02*
X46682142Y38478572D01*
X46539285Y39107143D02*
X46396428Y38678572D01*
X46767857Y38678572D01*
X47110714Y39078572D02*
X47167857Y39078572D01*
X47225000Y39050000D01*
X47253571Y39021429D01*
X47282142Y38964286D01*
X47310714Y38850000D01*
X47310714Y38707143D01*
X47282142Y38592858D01*
X47253571Y38535715D01*
X47225000Y38507143D01*
X47167857Y38478572D01*
X47110714Y38478572D01*
X47053571Y38507143D01*
X47025000Y38535715D01*
X46996428Y38592858D01*
X46967857Y38707143D01*
X46967857Y38850000D01*
X46996428Y38964286D01*
X47025000Y39021429D01*
X47053571Y39050000D01*
X47110714Y39078572D01*
X47853571Y39078572D02*
X47567857Y39078572D01*
X47539285Y38792858D01*
X47567857Y38821429D01*
X47625000Y38850000D01*
X47767857Y38850000D01*
X47825000Y38821429D01*
X47853571Y38792858D01*
X47882142Y38735715D01*
X47882142Y38592858D01*
X47853571Y38535715D01*
X47825000Y38507143D01*
X47767857Y38478572D01*
X47625000Y38478572D01*
X47567857Y38507143D01*
X47539285Y38535715D01*
X24678571Y28703572D02*
X24478571Y28989286D01*
X24335714Y28703572D02*
X24335714Y29303572D01*
X24564285Y29303572D01*
X24621428Y29275000D01*
X24650000Y29246429D01*
X24678571Y29189286D01*
X24678571Y29103572D01*
X24650000Y29046429D01*
X24621428Y29017858D01*
X24564285Y28989286D01*
X24335714Y28989286D01*
X25192857Y29103572D02*
X25192857Y28703572D01*
X25050000Y29332143D02*
X24907142Y28903572D01*
X25278571Y28903572D01*
X25621428Y29303572D02*
X25678571Y29303572D01*
X25735714Y29275000D01*
X25764285Y29246429D01*
X25792857Y29189286D01*
X25821428Y29075000D01*
X25821428Y28932143D01*
X25792857Y28817858D01*
X25764285Y28760715D01*
X25735714Y28732143D01*
X25678571Y28703572D01*
X25621428Y28703572D01*
X25564285Y28732143D01*
X25535714Y28760715D01*
X25507142Y28817858D01*
X25478571Y28932143D01*
X25478571Y29075000D01*
X25507142Y29189286D01*
X25535714Y29246429D01*
X25564285Y29275000D01*
X25621428Y29303572D01*
X26364285Y29303572D02*
X26078571Y29303572D01*
X26050000Y29017858D01*
X26078571Y29046429D01*
X26135714Y29075000D01*
X26278571Y29075000D01*
X26335714Y29046429D01*
X26364285Y29017858D01*
X26392857Y28960715D01*
X26392857Y28817858D01*
X26364285Y28760715D01*
X26335714Y28732143D01*
X26278571Y28703572D01*
X26135714Y28703572D01*
X26078571Y28732143D01*
X26050000Y28760715D01*
X29901428Y37578572D02*
X29615714Y37378572D01*
X29901428Y37235715D02*
X29301428Y37235715D01*
X29301428Y37464286D01*
X29330000Y37521429D01*
X29358571Y37550000D01*
X29415714Y37578572D01*
X29501428Y37578572D01*
X29558571Y37550000D01*
X29587142Y37521429D01*
X29615714Y37464286D01*
X29615714Y37235715D01*
X29501428Y38092858D02*
X29901428Y38092858D01*
X29272857Y37950000D02*
X29701428Y37807143D01*
X29701428Y38178572D01*
X29301428Y38521429D02*
X29301428Y38578572D01*
X29330000Y38635715D01*
X29358571Y38664286D01*
X29415714Y38692858D01*
X29530000Y38721429D01*
X29672857Y38721429D01*
X29787142Y38692858D01*
X29844285Y38664286D01*
X29872857Y38635715D01*
X29901428Y38578572D01*
X29901428Y38521429D01*
X29872857Y38464286D01*
X29844285Y38435715D01*
X29787142Y38407143D01*
X29672857Y38378572D01*
X29530000Y38378572D01*
X29415714Y38407143D01*
X29358571Y38435715D01*
X29330000Y38464286D01*
X29301428Y38521429D01*
X29301428Y39235715D02*
X29301428Y39121429D01*
X29330000Y39064286D01*
X29358571Y39035715D01*
X29444285Y38978572D01*
X29558571Y38950000D01*
X29787142Y38950000D01*
X29844285Y38978572D01*
X29872857Y39007143D01*
X29901428Y39064286D01*
X29901428Y39178572D01*
X29872857Y39235715D01*
X29844285Y39264286D01*
X29787142Y39292858D01*
X29644285Y39292858D01*
X29587142Y39264286D01*
X29558571Y39235715D01*
X29530000Y39178572D01*
X29530000Y39064286D01*
X29558571Y39007143D01*
X29587142Y38978572D01*
X29644285Y38950000D01*
X29901428Y34228572D02*
X29615714Y34028572D01*
X29901428Y33885715D02*
X29301428Y33885715D01*
X29301428Y34114286D01*
X29330000Y34171429D01*
X29358571Y34200000D01*
X29415714Y34228572D01*
X29501428Y34228572D01*
X29558571Y34200000D01*
X29587142Y34171429D01*
X29615714Y34114286D01*
X29615714Y33885715D01*
X29501428Y34742858D02*
X29901428Y34742858D01*
X29272857Y34600000D02*
X29701428Y34457143D01*
X29701428Y34828572D01*
X29301428Y35171429D02*
X29301428Y35228572D01*
X29330000Y35285715D01*
X29358571Y35314286D01*
X29415714Y35342858D01*
X29530000Y35371429D01*
X29672857Y35371429D01*
X29787142Y35342858D01*
X29844285Y35314286D01*
X29872857Y35285715D01*
X29901428Y35228572D01*
X29901428Y35171429D01*
X29872857Y35114286D01*
X29844285Y35085715D01*
X29787142Y35057143D01*
X29672857Y35028572D01*
X29530000Y35028572D01*
X29415714Y35057143D01*
X29358571Y35085715D01*
X29330000Y35114286D01*
X29301428Y35171429D01*
X29301428Y35571429D02*
X29301428Y35971429D01*
X29901428Y35714286D01*
X26351428Y30753572D02*
X26065714Y30553572D01*
X26351428Y30410715D02*
X25751428Y30410715D01*
X25751428Y30639286D01*
X25780000Y30696429D01*
X25808571Y30725000D01*
X25865714Y30753572D01*
X25951428Y30753572D01*
X26008571Y30725000D01*
X26037142Y30696429D01*
X26065714Y30639286D01*
X26065714Y30410715D01*
X25951428Y31267858D02*
X26351428Y31267858D01*
X25722857Y31125000D02*
X26151428Y30982143D01*
X26151428Y31353572D01*
X25751428Y31696429D02*
X25751428Y31753572D01*
X25780000Y31810715D01*
X25808571Y31839286D01*
X25865714Y31867858D01*
X25980000Y31896429D01*
X26122857Y31896429D01*
X26237142Y31867858D01*
X26294285Y31839286D01*
X26322857Y31810715D01*
X26351428Y31753572D01*
X26351428Y31696429D01*
X26322857Y31639286D01*
X26294285Y31610715D01*
X26237142Y31582143D01*
X26122857Y31553572D01*
X25980000Y31553572D01*
X25865714Y31582143D01*
X25808571Y31610715D01*
X25780000Y31639286D01*
X25751428Y31696429D01*
X26008571Y32239286D02*
X25980000Y32182143D01*
X25951428Y32153572D01*
X25894285Y32125000D01*
X25865714Y32125000D01*
X25808571Y32153572D01*
X25780000Y32182143D01*
X25751428Y32239286D01*
X25751428Y32353572D01*
X25780000Y32410715D01*
X25808571Y32439286D01*
X25865714Y32467858D01*
X25894285Y32467858D01*
X25951428Y32439286D01*
X25980000Y32410715D01*
X26008571Y32353572D01*
X26008571Y32239286D01*
X26037142Y32182143D01*
X26065714Y32153572D01*
X26122857Y32125000D01*
X26237142Y32125000D01*
X26294285Y32153572D01*
X26322857Y32182143D01*
X26351428Y32239286D01*
X26351428Y32353572D01*
X26322857Y32410715D01*
X26294285Y32439286D01*
X26237142Y32467858D01*
X26122857Y32467858D01*
X26065714Y32439286D01*
X26037142Y32410715D01*
X26008571Y32353572D01*
X30178571Y21228572D02*
X29978571Y21514286D01*
X29835714Y21228572D02*
X29835714Y21828572D01*
X30064285Y21828572D01*
X30121428Y21800000D01*
X30150000Y21771429D01*
X30178571Y21714286D01*
X30178571Y21628572D01*
X30150000Y21571429D01*
X30121428Y21542858D01*
X30064285Y21514286D01*
X29835714Y21514286D01*
X30692857Y21628572D02*
X30692857Y21228572D01*
X30550000Y21857143D02*
X30407142Y21428572D01*
X30778571Y21428572D01*
X31121428Y21828572D02*
X31178571Y21828572D01*
X31235714Y21800000D01*
X31264285Y21771429D01*
X31292857Y21714286D01*
X31321428Y21600000D01*
X31321428Y21457143D01*
X31292857Y21342858D01*
X31264285Y21285715D01*
X31235714Y21257143D01*
X31178571Y21228572D01*
X31121428Y21228572D01*
X31064285Y21257143D01*
X31035714Y21285715D01*
X31007142Y21342858D01*
X30978571Y21457143D01*
X30978571Y21600000D01*
X31007142Y21714286D01*
X31035714Y21771429D01*
X31064285Y21800000D01*
X31121428Y21828572D01*
X31607142Y21228572D02*
X31721428Y21228572D01*
X31778571Y21257143D01*
X31807142Y21285715D01*
X31864285Y21371429D01*
X31892857Y21485715D01*
X31892857Y21714286D01*
X31864285Y21771429D01*
X31835714Y21800000D01*
X31778571Y21828572D01*
X31664285Y21828572D01*
X31607142Y21800000D01*
X31578571Y21771429D01*
X31550000Y21714286D01*
X31550000Y21571429D01*
X31578571Y21514286D01*
X31607142Y21485715D01*
X31664285Y21457143D01*
X31778571Y21457143D01*
X31835714Y21485715D01*
X31864285Y21514286D01*
X31892857Y21571429D01*
X26351428Y34128572D02*
X26065714Y33928572D01*
X26351428Y33785715D02*
X25751428Y33785715D01*
X25751428Y34014286D01*
X25780000Y34071429D01*
X25808571Y34100000D01*
X25865714Y34128572D01*
X25951428Y34128572D01*
X26008571Y34100000D01*
X26037142Y34071429D01*
X26065714Y34014286D01*
X26065714Y33785715D01*
X25951428Y34642858D02*
X26351428Y34642858D01*
X25722857Y34500000D02*
X26151428Y34357143D01*
X26151428Y34728572D01*
X26351428Y35271429D02*
X26351428Y34928572D01*
X26351428Y35100000D02*
X25751428Y35100000D01*
X25837142Y35042858D01*
X25894285Y34985715D01*
X25922857Y34928572D01*
X25751428Y35642858D02*
X25751428Y35700000D01*
X25780000Y35757143D01*
X25808571Y35785715D01*
X25865714Y35814286D01*
X25980000Y35842858D01*
X26122857Y35842858D01*
X26237142Y35814286D01*
X26294285Y35785715D01*
X26322857Y35757143D01*
X26351428Y35700000D01*
X26351428Y35642858D01*
X26322857Y35585715D01*
X26294285Y35557143D01*
X26237142Y35528572D01*
X26122857Y35500000D01*
X25980000Y35500000D01*
X25865714Y35528572D01*
X25808571Y35557143D01*
X25780000Y35585715D01*
X25751428Y35642858D01*
X36653571Y32903572D02*
X36453571Y33189286D01*
X36310714Y32903572D02*
X36310714Y33503572D01*
X36539285Y33503572D01*
X36596428Y33475000D01*
X36625000Y33446429D01*
X36653571Y33389286D01*
X36653571Y33303572D01*
X36625000Y33246429D01*
X36596428Y33217858D01*
X36539285Y33189286D01*
X36310714Y33189286D01*
X37167857Y33303572D02*
X37167857Y32903572D01*
X37025000Y33532143D02*
X36882142Y33103572D01*
X37253571Y33103572D01*
X37796428Y32903572D02*
X37453571Y32903572D01*
X37625000Y32903572D02*
X37625000Y33503572D01*
X37567857Y33417858D01*
X37510714Y33360715D01*
X37453571Y33332143D01*
X38367857Y32903572D02*
X38025000Y32903572D01*
X38196428Y32903572D02*
X38196428Y33503572D01*
X38139285Y33417858D01*
X38082142Y33360715D01*
X38025000Y33332143D01*
X48053571Y34153572D02*
X47853571Y34439286D01*
X47710714Y34153572D02*
X47710714Y34753572D01*
X47939285Y34753572D01*
X47996428Y34725000D01*
X48025000Y34696429D01*
X48053571Y34639286D01*
X48053571Y34553572D01*
X48025000Y34496429D01*
X47996428Y34467858D01*
X47939285Y34439286D01*
X47710714Y34439286D01*
X48567857Y34553572D02*
X48567857Y34153572D01*
X48425000Y34782143D02*
X48282142Y34353572D01*
X48653571Y34353572D01*
X49196428Y34153572D02*
X48853571Y34153572D01*
X49025000Y34153572D02*
X49025000Y34753572D01*
X48967857Y34667858D01*
X48910714Y34610715D01*
X48853571Y34582143D01*
X49425000Y34696429D02*
X49453571Y34725000D01*
X49510714Y34753572D01*
X49653571Y34753572D01*
X49710714Y34725000D01*
X49739285Y34696429D01*
X49767857Y34639286D01*
X49767857Y34582143D01*
X49739285Y34496429D01*
X49396428Y34153572D01*
X49767857Y34153572D01*
X44578571Y31678572D02*
X44378571Y31964286D01*
X44235714Y31678572D02*
X44235714Y32278572D01*
X44464285Y32278572D01*
X44521428Y32250000D01*
X44550000Y32221429D01*
X44578571Y32164286D01*
X44578571Y32078572D01*
X44550000Y32021429D01*
X44521428Y31992858D01*
X44464285Y31964286D01*
X44235714Y31964286D01*
X45092857Y32078572D02*
X45092857Y31678572D01*
X44950000Y32307143D02*
X44807142Y31878572D01*
X45178571Y31878572D01*
X45721428Y31678572D02*
X45378571Y31678572D01*
X45550000Y31678572D02*
X45550000Y32278572D01*
X45492857Y32192858D01*
X45435714Y32135715D01*
X45378571Y32107143D01*
X45921428Y32278572D02*
X46292857Y32278572D01*
X46092857Y32050000D01*
X46178571Y32050000D01*
X46235714Y32021429D01*
X46264285Y31992858D01*
X46292857Y31935715D01*
X46292857Y31792858D01*
X46264285Y31735715D01*
X46235714Y31707143D01*
X46178571Y31678572D01*
X46007142Y31678572D01*
X45950000Y31707143D01*
X45921428Y31735715D01*
X42703571Y37478572D02*
X42503571Y37764286D01*
X42360714Y37478572D02*
X42360714Y38078572D01*
X42589285Y38078572D01*
X42646428Y38050000D01*
X42675000Y38021429D01*
X42703571Y37964286D01*
X42703571Y37878572D01*
X42675000Y37821429D01*
X42646428Y37792858D01*
X42589285Y37764286D01*
X42360714Y37764286D01*
X43217857Y37878572D02*
X43217857Y37478572D01*
X43075000Y38107143D02*
X42932142Y37678572D01*
X43303571Y37678572D01*
X43846428Y37478572D02*
X43503571Y37478572D01*
X43675000Y37478572D02*
X43675000Y38078572D01*
X43617857Y37992858D01*
X43560714Y37935715D01*
X43503571Y37907143D01*
X44360714Y37878572D02*
X44360714Y37478572D01*
X44217857Y38107143D02*
X44075000Y37678572D01*
X44446428Y37678572D01*
X39328571Y37478572D02*
X39128571Y37764286D01*
X38985714Y37478572D02*
X38985714Y38078572D01*
X39214285Y38078572D01*
X39271428Y38050000D01*
X39300000Y38021429D01*
X39328571Y37964286D01*
X39328571Y37878572D01*
X39300000Y37821429D01*
X39271428Y37792858D01*
X39214285Y37764286D01*
X38985714Y37764286D01*
X39842857Y37878572D02*
X39842857Y37478572D01*
X39700000Y38107143D02*
X39557142Y37678572D01*
X39928571Y37678572D01*
X40471428Y37478572D02*
X40128571Y37478572D01*
X40300000Y37478572D02*
X40300000Y38078572D01*
X40242857Y37992858D01*
X40185714Y37935715D01*
X40128571Y37907143D01*
X41014285Y38078572D02*
X40728571Y38078572D01*
X40700000Y37792858D01*
X40728571Y37821429D01*
X40785714Y37850000D01*
X40928571Y37850000D01*
X40985714Y37821429D01*
X41014285Y37792858D01*
X41042857Y37735715D01*
X41042857Y37592858D01*
X41014285Y37535715D01*
X40985714Y37507143D01*
X40928571Y37478572D01*
X40785714Y37478572D01*
X40728571Y37507143D01*
X40700000Y37535715D01*
X21671428Y62678572D02*
X21385714Y62478572D01*
X21671428Y62335715D02*
X21071428Y62335715D01*
X21071428Y62564286D01*
X21100000Y62621429D01*
X21128571Y62650000D01*
X21185714Y62678572D01*
X21271428Y62678572D01*
X21328571Y62650000D01*
X21357142Y62621429D01*
X21385714Y62564286D01*
X21385714Y62335715D01*
X21271428Y63192858D02*
X21671428Y63192858D01*
X21042857Y63050000D02*
X21471428Y62907143D01*
X21471428Y63278572D01*
X21671428Y63821429D02*
X21671428Y63478572D01*
X21671428Y63650000D02*
X21071428Y63650000D01*
X21157142Y63592858D01*
X21214285Y63535715D01*
X21242857Y63478572D01*
X21071428Y64335715D02*
X21071428Y64221429D01*
X21100000Y64164286D01*
X21128571Y64135715D01*
X21214285Y64078572D01*
X21328571Y64050000D01*
X21557142Y64050000D01*
X21614285Y64078572D01*
X21642857Y64107143D01*
X21671428Y64164286D01*
X21671428Y64278572D01*
X21642857Y64335715D01*
X21614285Y64364286D01*
X21557142Y64392858D01*
X21414285Y64392858D01*
X21357142Y64364286D01*
X21328571Y64335715D01*
X21300000Y64278572D01*
X21300000Y64164286D01*
X21328571Y64107143D01*
X21357142Y64078572D01*
X21414285Y64050000D01*
X42471428Y62678572D02*
X42185714Y62478572D01*
X42471428Y62335715D02*
X41871428Y62335715D01*
X41871428Y62564286D01*
X41900000Y62621429D01*
X41928571Y62650000D01*
X41985714Y62678572D01*
X42071428Y62678572D01*
X42128571Y62650000D01*
X42157142Y62621429D01*
X42185714Y62564286D01*
X42185714Y62335715D01*
X42071428Y63192858D02*
X42471428Y63192858D01*
X41842857Y63050000D02*
X42271428Y62907143D01*
X42271428Y63278572D01*
X41928571Y63478572D02*
X41900000Y63507143D01*
X41871428Y63564286D01*
X41871428Y63707143D01*
X41900000Y63764286D01*
X41928571Y63792858D01*
X41985714Y63821429D01*
X42042857Y63821429D01*
X42128571Y63792858D01*
X42471428Y63450000D01*
X42471428Y63821429D01*
X41871428Y64192858D02*
X41871428Y64250000D01*
X41900000Y64307143D01*
X41928571Y64335715D01*
X41985714Y64364286D01*
X42100000Y64392858D01*
X42242857Y64392858D01*
X42357142Y64364286D01*
X42414285Y64335715D01*
X42442857Y64307143D01*
X42471428Y64250000D01*
X42471428Y64192858D01*
X42442857Y64135715D01*
X42414285Y64107143D01*
X42357142Y64078572D01*
X42242857Y64050000D01*
X42100000Y64050000D01*
X41985714Y64078572D01*
X41928571Y64107143D01*
X41900000Y64135715D01*
X41871428Y64192858D01*
X41396428Y52678572D02*
X41110714Y52478572D01*
X41396428Y52335715D02*
X40796428Y52335715D01*
X40796428Y52564286D01*
X40825000Y52621429D01*
X40853571Y52650000D01*
X40910714Y52678572D01*
X40996428Y52678572D01*
X41053571Y52650000D01*
X41082142Y52621429D01*
X41110714Y52564286D01*
X41110714Y52335715D01*
X40996428Y53192858D02*
X41396428Y53192858D01*
X40767857Y53050000D02*
X41196428Y52907143D01*
X41196428Y53278572D01*
X40853571Y53478572D02*
X40825000Y53507143D01*
X40796428Y53564286D01*
X40796428Y53707143D01*
X40825000Y53764286D01*
X40853571Y53792858D01*
X40910714Y53821429D01*
X40967857Y53821429D01*
X41053571Y53792858D01*
X41396428Y53450000D01*
X41396428Y53821429D01*
X40853571Y54050000D02*
X40825000Y54078572D01*
X40796428Y54135715D01*
X40796428Y54278572D01*
X40825000Y54335715D01*
X40853571Y54364286D01*
X40910714Y54392858D01*
X40967857Y54392858D01*
X41053571Y54364286D01*
X41396428Y54021429D01*
X41396428Y54392858D01*
X29821428Y49628572D02*
X29535714Y49428572D01*
X29821428Y49285715D02*
X29221428Y49285715D01*
X29221428Y49514286D01*
X29250000Y49571429D01*
X29278571Y49600000D01*
X29335714Y49628572D01*
X29421428Y49628572D01*
X29478571Y49600000D01*
X29507142Y49571429D01*
X29535714Y49514286D01*
X29535714Y49285715D01*
X29421428Y50142858D02*
X29821428Y50142858D01*
X29192857Y50000000D02*
X29621428Y49857143D01*
X29621428Y50228572D01*
X29278571Y50428572D02*
X29250000Y50457143D01*
X29221428Y50514286D01*
X29221428Y50657143D01*
X29250000Y50714286D01*
X29278571Y50742858D01*
X29335714Y50771429D01*
X29392857Y50771429D01*
X29478571Y50742858D01*
X29821428Y50400000D01*
X29821428Y50771429D01*
X29221428Y50971429D02*
X29221428Y51342858D01*
X29450000Y51142858D01*
X29450000Y51228572D01*
X29478571Y51285715D01*
X29507142Y51314286D01*
X29564285Y51342858D01*
X29707142Y51342858D01*
X29764285Y51314286D01*
X29792857Y51285715D01*
X29821428Y51228572D01*
X29821428Y51057143D01*
X29792857Y51000000D01*
X29764285Y50971429D01*
X9075000Y43328572D02*
X8789285Y43328572D01*
X8789285Y43928572D01*
X9589285Y43328572D02*
X9246428Y43328572D01*
X9417857Y43328572D02*
X9417857Y43928572D01*
X9360714Y43842858D01*
X9303571Y43785715D01*
X9246428Y43757143D01*
X14278571Y42960715D02*
X14250000Y42932143D01*
X14164285Y42903572D01*
X14107142Y42903572D01*
X14021428Y42932143D01*
X13964285Y42989286D01*
X13935714Y43046429D01*
X13907142Y43160715D01*
X13907142Y43246429D01*
X13935714Y43360715D01*
X13964285Y43417858D01*
X14021428Y43475000D01*
X14107142Y43503572D01*
X14164285Y43503572D01*
X14250000Y43475000D01*
X14278571Y43446429D01*
X14792857Y43303572D02*
X14792857Y42903572D01*
X14650000Y43532143D02*
X14507142Y43103572D01*
X14878571Y43103572D01*
X15221428Y43503572D02*
X15278571Y43503572D01*
X15335714Y43475000D01*
X15364285Y43446429D01*
X15392857Y43389286D01*
X15421428Y43275000D01*
X15421428Y43132143D01*
X15392857Y43017858D01*
X15364285Y42960715D01*
X15335714Y42932143D01*
X15278571Y42903572D01*
X15221428Y42903572D01*
X15164285Y42932143D01*
X15135714Y42960715D01*
X15107142Y43017858D01*
X15078571Y43132143D01*
X15078571Y43275000D01*
X15107142Y43389286D01*
X15135714Y43446429D01*
X15164285Y43475000D01*
X15221428Y43503572D01*
X15992857Y42903572D02*
X15650000Y42903572D01*
X15821428Y42903572D02*
X15821428Y43503572D01*
X15764285Y43417858D01*
X15707142Y43360715D01*
X15650000Y43332143D01*
X19401428Y42953572D02*
X19115714Y42753572D01*
X19401428Y42610715D02*
X18801428Y42610715D01*
X18801428Y42839286D01*
X18830000Y42896429D01*
X18858571Y42925000D01*
X18915714Y42953572D01*
X19001428Y42953572D01*
X19058571Y42925000D01*
X19087142Y42896429D01*
X19115714Y42839286D01*
X19115714Y42610715D01*
X18858571Y43182143D02*
X18830000Y43210715D01*
X18801428Y43267858D01*
X18801428Y43410715D01*
X18830000Y43467858D01*
X18858571Y43496429D01*
X18915714Y43525000D01*
X18972857Y43525000D01*
X19058571Y43496429D01*
X19401428Y43153572D01*
X19401428Y43525000D01*
X18801428Y43896429D02*
X18801428Y43953572D01*
X18830000Y44010715D01*
X18858571Y44039286D01*
X18915714Y44067858D01*
X19030000Y44096429D01*
X19172857Y44096429D01*
X19287142Y44067858D01*
X19344285Y44039286D01*
X19372857Y44010715D01*
X19401428Y43953572D01*
X19401428Y43896429D01*
X19372857Y43839286D01*
X19344285Y43810715D01*
X19287142Y43782143D01*
X19172857Y43753572D01*
X19030000Y43753572D01*
X18915714Y43782143D01*
X18858571Y43810715D01*
X18830000Y43839286D01*
X18801428Y43896429D01*
X18858571Y44325000D02*
X18830000Y44353572D01*
X18801428Y44410715D01*
X18801428Y44553572D01*
X18830000Y44610715D01*
X18858571Y44639286D01*
X18915714Y44667858D01*
X18972857Y44667858D01*
X19058571Y44639286D01*
X19401428Y44296429D01*
X19401428Y44667858D01*
X16128571Y39628572D02*
X15928571Y39914286D01*
X15785714Y39628572D02*
X15785714Y40228572D01*
X16014285Y40228572D01*
X16071428Y40200000D01*
X16100000Y40171429D01*
X16128571Y40114286D01*
X16128571Y40028572D01*
X16100000Y39971429D01*
X16071428Y39942858D01*
X16014285Y39914286D01*
X15785714Y39914286D01*
X16357142Y40171429D02*
X16385714Y40200000D01*
X16442857Y40228572D01*
X16585714Y40228572D01*
X16642857Y40200000D01*
X16671428Y40171429D01*
X16700000Y40114286D01*
X16700000Y40057143D01*
X16671428Y39971429D01*
X16328571Y39628572D01*
X16700000Y39628572D01*
X17071428Y40228572D02*
X17128571Y40228572D01*
X17185714Y40200000D01*
X17214285Y40171429D01*
X17242857Y40114286D01*
X17271428Y40000000D01*
X17271428Y39857143D01*
X17242857Y39742858D01*
X17214285Y39685715D01*
X17185714Y39657143D01*
X17128571Y39628572D01*
X17071428Y39628572D01*
X17014285Y39657143D01*
X16985714Y39685715D01*
X16957142Y39742858D01*
X16928571Y39857143D01*
X16928571Y40000000D01*
X16957142Y40114286D01*
X16985714Y40171429D01*
X17014285Y40200000D01*
X17071428Y40228572D01*
X17471428Y40228572D02*
X17842857Y40228572D01*
X17642857Y40000000D01*
X17728571Y40000000D01*
X17785714Y39971429D01*
X17814285Y39942858D01*
X17842857Y39885715D01*
X17842857Y39742858D01*
X17814285Y39685715D01*
X17785714Y39657143D01*
X17728571Y39628572D01*
X17557142Y39628572D01*
X17500000Y39657143D01*
X17471428Y39685715D01*
X20646428Y39378572D02*
X20360714Y39178572D01*
X20646428Y39035715D02*
X20046428Y39035715D01*
X20046428Y39264286D01*
X20075000Y39321429D01*
X20103571Y39350000D01*
X20160714Y39378572D01*
X20246428Y39378572D01*
X20303571Y39350000D01*
X20332142Y39321429D01*
X20360714Y39264286D01*
X20360714Y39035715D01*
X20103571Y39607143D02*
X20075000Y39635715D01*
X20046428Y39692858D01*
X20046428Y39835715D01*
X20075000Y39892858D01*
X20103571Y39921429D01*
X20160714Y39950000D01*
X20217857Y39950000D01*
X20303571Y39921429D01*
X20646428Y39578572D01*
X20646428Y39950000D01*
X20046428Y40321429D02*
X20046428Y40378572D01*
X20075000Y40435715D01*
X20103571Y40464286D01*
X20160714Y40492858D01*
X20275000Y40521429D01*
X20417857Y40521429D01*
X20532142Y40492858D01*
X20589285Y40464286D01*
X20617857Y40435715D01*
X20646428Y40378572D01*
X20646428Y40321429D01*
X20617857Y40264286D01*
X20589285Y40235715D01*
X20532142Y40207143D01*
X20417857Y40178572D01*
X20275000Y40178572D01*
X20160714Y40207143D01*
X20103571Y40235715D01*
X20075000Y40264286D01*
X20046428Y40321429D01*
X20246428Y41035715D02*
X20646428Y41035715D01*
X20017857Y40892858D02*
X20446428Y40750000D01*
X20446428Y41121429D01*
X23271428Y34728572D02*
X22985714Y34528572D01*
X23271428Y34385715D02*
X22671428Y34385715D01*
X22671428Y34614286D01*
X22700000Y34671429D01*
X22728571Y34700000D01*
X22785714Y34728572D01*
X22871428Y34728572D01*
X22928571Y34700000D01*
X22957142Y34671429D01*
X22985714Y34614286D01*
X22985714Y34385715D01*
X22728571Y34957143D02*
X22700000Y34985715D01*
X22671428Y35042858D01*
X22671428Y35185715D01*
X22700000Y35242858D01*
X22728571Y35271429D01*
X22785714Y35300000D01*
X22842857Y35300000D01*
X22928571Y35271429D01*
X23271428Y34928572D01*
X23271428Y35300000D01*
X22671428Y35671429D02*
X22671428Y35728572D01*
X22700000Y35785715D01*
X22728571Y35814286D01*
X22785714Y35842858D01*
X22900000Y35871429D01*
X23042857Y35871429D01*
X23157142Y35842858D01*
X23214285Y35814286D01*
X23242857Y35785715D01*
X23271428Y35728572D01*
X23271428Y35671429D01*
X23242857Y35614286D01*
X23214285Y35585715D01*
X23157142Y35557143D01*
X23042857Y35528572D01*
X22900000Y35528572D01*
X22785714Y35557143D01*
X22728571Y35585715D01*
X22700000Y35614286D01*
X22671428Y35671429D01*
X22671428Y36414286D02*
X22671428Y36128572D01*
X22957142Y36100000D01*
X22928571Y36128572D01*
X22900000Y36185715D01*
X22900000Y36328572D01*
X22928571Y36385715D01*
X22957142Y36414286D01*
X23014285Y36442858D01*
X23157142Y36442858D01*
X23214285Y36414286D01*
X23242857Y36385715D01*
X23271428Y36328572D01*
X23271428Y36185715D01*
X23242857Y36128572D01*
X23214285Y36100000D01*
X10678571Y40860715D02*
X10650000Y40832143D01*
X10564285Y40803572D01*
X10507142Y40803572D01*
X10421428Y40832143D01*
X10364285Y40889286D01*
X10335714Y40946429D01*
X10307142Y41060715D01*
X10307142Y41146429D01*
X10335714Y41260715D01*
X10364285Y41317858D01*
X10421428Y41375000D01*
X10507142Y41403572D01*
X10564285Y41403572D01*
X10650000Y41375000D01*
X10678571Y41346429D01*
X11221428Y41403572D02*
X10935714Y41403572D01*
X10907142Y41117858D01*
X10935714Y41146429D01*
X10992857Y41175000D01*
X11135714Y41175000D01*
X11192857Y41146429D01*
X11221428Y41117858D01*
X11250000Y41060715D01*
X11250000Y40917858D01*
X11221428Y40860715D01*
X11192857Y40832143D01*
X11135714Y40803572D01*
X10992857Y40803572D01*
X10935714Y40832143D01*
X10907142Y40860715D01*
X11621428Y41403572D02*
X11678571Y41403572D01*
X11735714Y41375000D01*
X11764285Y41346429D01*
X11792857Y41289286D01*
X11821428Y41175000D01*
X11821428Y41032143D01*
X11792857Y40917858D01*
X11764285Y40860715D01*
X11735714Y40832143D01*
X11678571Y40803572D01*
X11621428Y40803572D01*
X11564285Y40832143D01*
X11535714Y40860715D01*
X11507142Y40917858D01*
X11478571Y41032143D01*
X11478571Y41175000D01*
X11507142Y41289286D01*
X11535714Y41346429D01*
X11564285Y41375000D01*
X11621428Y41403572D01*
X12050000Y41346429D02*
X12078571Y41375000D01*
X12135714Y41403572D01*
X12278571Y41403572D01*
X12335714Y41375000D01*
X12364285Y41346429D01*
X12392857Y41289286D01*
X12392857Y41232143D01*
X12364285Y41146429D01*
X12021428Y40803572D01*
X12392857Y40803572D01*
X3778571Y29460715D02*
X3750000Y29432143D01*
X3664285Y29403572D01*
X3607142Y29403572D01*
X3521428Y29432143D01*
X3464285Y29489286D01*
X3435714Y29546429D01*
X3407142Y29660715D01*
X3407142Y29746429D01*
X3435714Y29860715D01*
X3464285Y29917858D01*
X3521428Y29975000D01*
X3607142Y30003572D01*
X3664285Y30003572D01*
X3750000Y29975000D01*
X3778571Y29946429D01*
X4321428Y30003572D02*
X4035714Y30003572D01*
X4007142Y29717858D01*
X4035714Y29746429D01*
X4092857Y29775000D01*
X4235714Y29775000D01*
X4292857Y29746429D01*
X4321428Y29717858D01*
X4350000Y29660715D01*
X4350000Y29517858D01*
X4321428Y29460715D01*
X4292857Y29432143D01*
X4235714Y29403572D01*
X4092857Y29403572D01*
X4035714Y29432143D01*
X4007142Y29460715D01*
X4721428Y30003572D02*
X4778571Y30003572D01*
X4835714Y29975000D01*
X4864285Y29946429D01*
X4892857Y29889286D01*
X4921428Y29775000D01*
X4921428Y29632143D01*
X4892857Y29517858D01*
X4864285Y29460715D01*
X4835714Y29432143D01*
X4778571Y29403572D01*
X4721428Y29403572D01*
X4664285Y29432143D01*
X4635714Y29460715D01*
X4607142Y29517858D01*
X4578571Y29632143D01*
X4578571Y29775000D01*
X4607142Y29889286D01*
X4635714Y29946429D01*
X4664285Y29975000D01*
X4721428Y30003572D01*
X5435714Y29803572D02*
X5435714Y29403572D01*
X5292857Y30032143D02*
X5150000Y29603572D01*
X5521428Y29603572D01*
X2596428Y29203572D02*
X2596428Y28917858D01*
X1996428Y28917858D01*
X1996428Y29346429D02*
X1996428Y29717858D01*
X2225000Y29517858D01*
X2225000Y29603572D01*
X2253571Y29660715D01*
X2282142Y29689286D01*
X2339285Y29717858D01*
X2482142Y29717858D01*
X2539285Y29689286D01*
X2567857Y29660715D01*
X2596428Y29603572D01*
X2596428Y29432143D01*
X2567857Y29375000D01*
X2539285Y29346429D01*
X1996428Y30089286D02*
X1996428Y30146429D01*
X2025000Y30203572D01*
X2053571Y30232143D01*
X2110714Y30260715D01*
X2225000Y30289286D01*
X2367857Y30289286D01*
X2482142Y30260715D01*
X2539285Y30232143D01*
X2567857Y30203572D01*
X2596428Y30146429D01*
X2596428Y30089286D01*
X2567857Y30032143D01*
X2539285Y30003572D01*
X2482142Y29975000D01*
X2367857Y29946429D01*
X2225000Y29946429D01*
X2110714Y29975000D01*
X2053571Y30003572D01*
X2025000Y30032143D01*
X1996428Y30089286D01*
X2596428Y30860715D02*
X2596428Y30517858D01*
X2596428Y30689286D02*
X1996428Y30689286D01*
X2082142Y30632143D01*
X2139285Y30575000D01*
X2167857Y30517858D01*
X45803571Y24860715D02*
X45775000Y24832143D01*
X45689285Y24803572D01*
X45632142Y24803572D01*
X45546428Y24832143D01*
X45489285Y24889286D01*
X45460714Y24946429D01*
X45432142Y25060715D01*
X45432142Y25146429D01*
X45460714Y25260715D01*
X45489285Y25317858D01*
X45546428Y25375000D01*
X45632142Y25403572D01*
X45689285Y25403572D01*
X45775000Y25375000D01*
X45803571Y25346429D01*
X46003571Y25403572D02*
X46375000Y25403572D01*
X46175000Y25175000D01*
X46260714Y25175000D01*
X46317857Y25146429D01*
X46346428Y25117858D01*
X46375000Y25060715D01*
X46375000Y24917858D01*
X46346428Y24860715D01*
X46317857Y24832143D01*
X46260714Y24803572D01*
X46089285Y24803572D01*
X46032142Y24832143D01*
X46003571Y24860715D01*
X46746428Y25403572D02*
X46803571Y25403572D01*
X46860714Y25375000D01*
X46889285Y25346429D01*
X46917857Y25289286D01*
X46946428Y25175000D01*
X46946428Y25032143D01*
X46917857Y24917858D01*
X46889285Y24860715D01*
X46860714Y24832143D01*
X46803571Y24803572D01*
X46746428Y24803572D01*
X46689285Y24832143D01*
X46660714Y24860715D01*
X46632142Y24917858D01*
X46603571Y25032143D01*
X46603571Y25175000D01*
X46632142Y25289286D01*
X46660714Y25346429D01*
X46689285Y25375000D01*
X46746428Y25403572D01*
X47517857Y24803572D02*
X47175000Y24803572D01*
X47346428Y24803572D02*
X47346428Y25403572D01*
X47289285Y25317858D01*
X47232142Y25260715D01*
X47175000Y25232143D01*
X39353571Y30210715D02*
X39325000Y30182143D01*
X39239285Y30153572D01*
X39182142Y30153572D01*
X39096428Y30182143D01*
X39039285Y30239286D01*
X39010714Y30296429D01*
X38982142Y30410715D01*
X38982142Y30496429D01*
X39010714Y30610715D01*
X39039285Y30667858D01*
X39096428Y30725000D01*
X39182142Y30753572D01*
X39239285Y30753572D01*
X39325000Y30725000D01*
X39353571Y30696429D01*
X39553571Y30753572D02*
X39925000Y30753572D01*
X39725000Y30525000D01*
X39810714Y30525000D01*
X39867857Y30496429D01*
X39896428Y30467858D01*
X39925000Y30410715D01*
X39925000Y30267858D01*
X39896428Y30210715D01*
X39867857Y30182143D01*
X39810714Y30153572D01*
X39639285Y30153572D01*
X39582142Y30182143D01*
X39553571Y30210715D01*
X40296428Y30753572D02*
X40353571Y30753572D01*
X40410714Y30725000D01*
X40439285Y30696429D01*
X40467857Y30639286D01*
X40496428Y30525000D01*
X40496428Y30382143D01*
X40467857Y30267858D01*
X40439285Y30210715D01*
X40410714Y30182143D01*
X40353571Y30153572D01*
X40296428Y30153572D01*
X40239285Y30182143D01*
X40210714Y30210715D01*
X40182142Y30267858D01*
X40153571Y30382143D01*
X40153571Y30525000D01*
X40182142Y30639286D01*
X40210714Y30696429D01*
X40239285Y30725000D01*
X40296428Y30753572D01*
X40725000Y30696429D02*
X40753571Y30725000D01*
X40810714Y30753572D01*
X40953571Y30753572D01*
X41010714Y30725000D01*
X41039285Y30696429D01*
X41067857Y30639286D01*
X41067857Y30582143D01*
X41039285Y30496429D01*
X40696428Y30153572D01*
X41067857Y30153572D01*
X48060714Y29153572D02*
X48060714Y29753572D01*
X48203571Y29753572D01*
X48289285Y29725000D01*
X48346428Y29667858D01*
X48375000Y29610715D01*
X48403571Y29496429D01*
X48403571Y29410715D01*
X48375000Y29296429D01*
X48346428Y29239286D01*
X48289285Y29182143D01*
X48203571Y29153572D01*
X48060714Y29153572D01*
X48603571Y29753572D02*
X48975000Y29753572D01*
X48775000Y29525000D01*
X48860714Y29525000D01*
X48917857Y29496429D01*
X48946428Y29467858D01*
X48975000Y29410715D01*
X48975000Y29267858D01*
X48946428Y29210715D01*
X48917857Y29182143D01*
X48860714Y29153572D01*
X48689285Y29153572D01*
X48632142Y29182143D01*
X48603571Y29210715D01*
X49346428Y29753572D02*
X49403571Y29753572D01*
X49460714Y29725000D01*
X49489285Y29696429D01*
X49517857Y29639286D01*
X49546428Y29525000D01*
X49546428Y29382143D01*
X49517857Y29267858D01*
X49489285Y29210715D01*
X49460714Y29182143D01*
X49403571Y29153572D01*
X49346428Y29153572D01*
X49289285Y29182143D01*
X49260714Y29210715D01*
X49232142Y29267858D01*
X49203571Y29382143D01*
X49203571Y29525000D01*
X49232142Y29639286D01*
X49260714Y29696429D01*
X49289285Y29725000D01*
X49346428Y29753572D01*
X49775000Y29696429D02*
X49803571Y29725000D01*
X49860714Y29753572D01*
X50003571Y29753572D01*
X50060714Y29725000D01*
X50089285Y29696429D01*
X50117857Y29639286D01*
X50117857Y29582143D01*
X50089285Y29496429D01*
X49746428Y29153572D01*
X50117857Y29153572D01*
X49178571Y30742858D02*
X48978571Y30742858D01*
X48978571Y30428572D02*
X48978571Y31028572D01*
X49264285Y31028572D01*
X49435714Y31028572D02*
X49807142Y31028572D01*
X49607142Y30800000D01*
X49692857Y30800000D01*
X49750000Y30771429D01*
X49778571Y30742858D01*
X49807142Y30685715D01*
X49807142Y30542858D01*
X49778571Y30485715D01*
X49750000Y30457143D01*
X49692857Y30428572D01*
X49521428Y30428572D01*
X49464285Y30457143D01*
X49435714Y30485715D01*
X50178571Y31028572D02*
X50235714Y31028572D01*
X50292857Y31000000D01*
X50321428Y30971429D01*
X50350000Y30914286D01*
X50378571Y30800000D01*
X50378571Y30657143D01*
X50350000Y30542858D01*
X50321428Y30485715D01*
X50292857Y30457143D01*
X50235714Y30428572D01*
X50178571Y30428572D01*
X50121428Y30457143D01*
X50092857Y30485715D01*
X50064285Y30542858D01*
X50035714Y30657143D01*
X50035714Y30800000D01*
X50064285Y30914286D01*
X50092857Y30971429D01*
X50121428Y31000000D01*
X50178571Y31028572D01*
X50607142Y30971429D02*
X50635714Y31000000D01*
X50692857Y31028572D01*
X50835714Y31028572D01*
X50892857Y31000000D01*
X50921428Y30971429D01*
X50950000Y30914286D01*
X50950000Y30857143D01*
X50921428Y30771429D01*
X50578571Y30428572D01*
X50950000Y30428572D01*
X50953571Y24803572D02*
X50667857Y24803572D01*
X50667857Y25403572D01*
X51096428Y25403572D02*
X51467857Y25403572D01*
X51267857Y25175000D01*
X51353571Y25175000D01*
X51410714Y25146429D01*
X51439285Y25117858D01*
X51467857Y25060715D01*
X51467857Y24917858D01*
X51439285Y24860715D01*
X51410714Y24832143D01*
X51353571Y24803572D01*
X51182142Y24803572D01*
X51125000Y24832143D01*
X51096428Y24860715D01*
X51839285Y25403572D02*
X51896428Y25403572D01*
X51953571Y25375000D01*
X51982142Y25346429D01*
X52010714Y25289286D01*
X52039285Y25175000D01*
X52039285Y25032143D01*
X52010714Y24917858D01*
X51982142Y24860715D01*
X51953571Y24832143D01*
X51896428Y24803572D01*
X51839285Y24803572D01*
X51782142Y24832143D01*
X51753571Y24860715D01*
X51725000Y24917858D01*
X51696428Y25032143D01*
X51696428Y25175000D01*
X51725000Y25289286D01*
X51753571Y25346429D01*
X51782142Y25375000D01*
X51839285Y25403572D01*
X52267857Y25346429D02*
X52296428Y25375000D01*
X52353571Y25403572D01*
X52496428Y25403572D01*
X52553571Y25375000D01*
X52582142Y25346429D01*
X52610714Y25289286D01*
X52610714Y25232143D01*
X52582142Y25146429D01*
X52239285Y24803572D01*
X52610714Y24803572D01*
X32071428Y62628572D02*
X31785714Y62428572D01*
X32071428Y62285715D02*
X31471428Y62285715D01*
X31471428Y62514286D01*
X31500000Y62571429D01*
X31528571Y62600000D01*
X31585714Y62628572D01*
X31671428Y62628572D01*
X31728571Y62600000D01*
X31757142Y62571429D01*
X31785714Y62514286D01*
X31785714Y62285715D01*
X31671428Y63142858D02*
X32071428Y63142858D01*
X31442857Y63000000D02*
X31871428Y62857143D01*
X31871428Y63228572D01*
X31471428Y63571429D02*
X31471428Y63628572D01*
X31500000Y63685715D01*
X31528571Y63714286D01*
X31585714Y63742858D01*
X31700000Y63771429D01*
X31842857Y63771429D01*
X31957142Y63742858D01*
X32014285Y63714286D01*
X32042857Y63685715D01*
X32071428Y63628572D01*
X32071428Y63571429D01*
X32042857Y63514286D01*
X32014285Y63485715D01*
X31957142Y63457143D01*
X31842857Y63428572D01*
X31700000Y63428572D01*
X31585714Y63457143D01*
X31528571Y63485715D01*
X31500000Y63514286D01*
X31471428Y63571429D01*
X31471428Y63971429D02*
X31471428Y64342858D01*
X31700000Y64142858D01*
X31700000Y64228572D01*
X31728571Y64285715D01*
X31757142Y64314286D01*
X31814285Y64342858D01*
X31957142Y64342858D01*
X32014285Y64314286D01*
X32042857Y64285715D01*
X32071428Y64228572D01*
X32071428Y64057143D01*
X32042857Y64000000D01*
X32014285Y63971429D01*
X42246428Y30653572D02*
X42246428Y30167858D01*
X42275000Y30110715D01*
X42303571Y30082143D01*
X42360714Y30053572D01*
X42475000Y30053572D01*
X42532142Y30082143D01*
X42560714Y30110715D01*
X42589285Y30167858D01*
X42589285Y30653572D01*
X42817857Y30653572D02*
X43189285Y30653572D01*
X42989285Y30425000D01*
X43075000Y30425000D01*
X43132142Y30396429D01*
X43160714Y30367858D01*
X43189285Y30310715D01*
X43189285Y30167858D01*
X43160714Y30110715D01*
X43132142Y30082143D01*
X43075000Y30053572D01*
X42903571Y30053572D01*
X42846428Y30082143D01*
X42817857Y30110715D01*
X43560714Y30653572D02*
X43617857Y30653572D01*
X43675000Y30625000D01*
X43703571Y30596429D01*
X43732142Y30539286D01*
X43760714Y30425000D01*
X43760714Y30282143D01*
X43732142Y30167858D01*
X43703571Y30110715D01*
X43675000Y30082143D01*
X43617857Y30053572D01*
X43560714Y30053572D01*
X43503571Y30082143D01*
X43475000Y30110715D01*
X43446428Y30167858D01*
X43417857Y30282143D01*
X43417857Y30425000D01*
X43446428Y30539286D01*
X43475000Y30596429D01*
X43503571Y30625000D01*
X43560714Y30653572D01*
X44332142Y30053572D02*
X43989285Y30053572D01*
X44160714Y30053572D02*
X44160714Y30653572D01*
X44103571Y30567858D01*
X44046428Y30510715D01*
X43989285Y30482143D01*
X12555714Y19908572D02*
X12555714Y20508572D01*
X12698571Y20508572D01*
X12784285Y20480000D01*
X12841428Y20422858D01*
X12870000Y20365715D01*
X12898571Y20251429D01*
X12898571Y20165715D01*
X12870000Y20051429D01*
X12841428Y19994286D01*
X12784285Y19937143D01*
X12698571Y19908572D01*
X12555714Y19908572D01*
X13441428Y20508572D02*
X13155714Y20508572D01*
X13127142Y20222858D01*
X13155714Y20251429D01*
X13212857Y20280000D01*
X13355714Y20280000D01*
X13412857Y20251429D01*
X13441428Y20222858D01*
X13470000Y20165715D01*
X13470000Y20022858D01*
X13441428Y19965715D01*
X13412857Y19937143D01*
X13355714Y19908572D01*
X13212857Y19908572D01*
X13155714Y19937143D01*
X13127142Y19965715D01*
X13841428Y20508572D02*
X13898571Y20508572D01*
X13955714Y20480000D01*
X13984285Y20451429D01*
X14012857Y20394286D01*
X14041428Y20280000D01*
X14041428Y20137143D01*
X14012857Y20022858D01*
X13984285Y19965715D01*
X13955714Y19937143D01*
X13898571Y19908572D01*
X13841428Y19908572D01*
X13784285Y19937143D01*
X13755714Y19965715D01*
X13727142Y20022858D01*
X13698571Y20137143D01*
X13698571Y20280000D01*
X13727142Y20394286D01*
X13755714Y20451429D01*
X13784285Y20480000D01*
X13841428Y20508572D01*
X14612857Y19908572D02*
X14270000Y19908572D01*
X14441428Y19908572D02*
X14441428Y20508572D01*
X14384285Y20422858D01*
X14327142Y20365715D01*
X14270000Y20337143D01*
X46085714Y16578572D02*
X46085714Y17178572D01*
X46228571Y17178572D01*
X46314285Y17150000D01*
X46371428Y17092858D01*
X46400000Y17035715D01*
X46428571Y16921429D01*
X46428571Y16835715D01*
X46400000Y16721429D01*
X46371428Y16664286D01*
X46314285Y16607143D01*
X46228571Y16578572D01*
X46085714Y16578572D01*
X46971428Y17178572D02*
X46685714Y17178572D01*
X46657142Y16892858D01*
X46685714Y16921429D01*
X46742857Y16950000D01*
X46885714Y16950000D01*
X46942857Y16921429D01*
X46971428Y16892858D01*
X47000000Y16835715D01*
X47000000Y16692858D01*
X46971428Y16635715D01*
X46942857Y16607143D01*
X46885714Y16578572D01*
X46742857Y16578572D01*
X46685714Y16607143D01*
X46657142Y16635715D01*
X47371428Y17178572D02*
X47428571Y17178572D01*
X47485714Y17150000D01*
X47514285Y17121429D01*
X47542857Y17064286D01*
X47571428Y16950000D01*
X47571428Y16807143D01*
X47542857Y16692858D01*
X47514285Y16635715D01*
X47485714Y16607143D01*
X47428571Y16578572D01*
X47371428Y16578572D01*
X47314285Y16607143D01*
X47285714Y16635715D01*
X47257142Y16692858D01*
X47228571Y16807143D01*
X47228571Y16950000D01*
X47257142Y17064286D01*
X47285714Y17121429D01*
X47314285Y17150000D01*
X47371428Y17178572D01*
X47800000Y17121429D02*
X47828571Y17150000D01*
X47885714Y17178572D01*
X48028571Y17178572D01*
X48085714Y17150000D01*
X48114285Y17121429D01*
X48142857Y17064286D01*
X48142857Y17007143D01*
X48114285Y16921429D01*
X47771428Y16578572D01*
X48142857Y16578572D01*
X14128571Y36678572D02*
X13928571Y36964286D01*
X13785714Y36678572D02*
X13785714Y37278572D01*
X14014285Y37278572D01*
X14071428Y37250000D01*
X14100000Y37221429D01*
X14128571Y37164286D01*
X14128571Y37078572D01*
X14100000Y37021429D01*
X14071428Y36992858D01*
X14014285Y36964286D01*
X13785714Y36964286D01*
X14357142Y37221429D02*
X14385714Y37250000D01*
X14442857Y37278572D01*
X14585714Y37278572D01*
X14642857Y37250000D01*
X14671428Y37221429D01*
X14700000Y37164286D01*
X14700000Y37107143D01*
X14671428Y37021429D01*
X14328571Y36678572D01*
X14700000Y36678572D01*
X15071428Y37278572D02*
X15128571Y37278572D01*
X15185714Y37250000D01*
X15214285Y37221429D01*
X15242857Y37164286D01*
X15271428Y37050000D01*
X15271428Y36907143D01*
X15242857Y36792858D01*
X15214285Y36735715D01*
X15185714Y36707143D01*
X15128571Y36678572D01*
X15071428Y36678572D01*
X15014285Y36707143D01*
X14985714Y36735715D01*
X14957142Y36792858D01*
X14928571Y36907143D01*
X14928571Y37050000D01*
X14957142Y37164286D01*
X14985714Y37221429D01*
X15014285Y37250000D01*
X15071428Y37278572D01*
X15614285Y37021429D02*
X15557142Y37050000D01*
X15528571Y37078572D01*
X15500000Y37135715D01*
X15500000Y37164286D01*
X15528571Y37221429D01*
X15557142Y37250000D01*
X15614285Y37278572D01*
X15728571Y37278572D01*
X15785714Y37250000D01*
X15814285Y37221429D01*
X15842857Y37164286D01*
X15842857Y37135715D01*
X15814285Y37078572D01*
X15785714Y37050000D01*
X15728571Y37021429D01*
X15614285Y37021429D01*
X15557142Y36992858D01*
X15528571Y36964286D01*
X15500000Y36907143D01*
X15500000Y36792858D01*
X15528571Y36735715D01*
X15557142Y36707143D01*
X15614285Y36678572D01*
X15728571Y36678572D01*
X15785714Y36707143D01*
X15814285Y36735715D01*
X15842857Y36792858D01*
X15842857Y36907143D01*
X15814285Y36964286D01*
X15785714Y36992858D01*
X15728571Y37021429D01*
X14128571Y38978572D02*
X13928571Y39264286D01*
X13785714Y38978572D02*
X13785714Y39578572D01*
X14014285Y39578572D01*
X14071428Y39550000D01*
X14100000Y39521429D01*
X14128571Y39464286D01*
X14128571Y39378572D01*
X14100000Y39321429D01*
X14071428Y39292858D01*
X14014285Y39264286D01*
X13785714Y39264286D01*
X14357142Y39521429D02*
X14385714Y39550000D01*
X14442857Y39578572D01*
X14585714Y39578572D01*
X14642857Y39550000D01*
X14671428Y39521429D01*
X14700000Y39464286D01*
X14700000Y39407143D01*
X14671428Y39321429D01*
X14328571Y38978572D01*
X14700000Y38978572D01*
X15071428Y39578572D02*
X15128571Y39578572D01*
X15185714Y39550000D01*
X15214285Y39521429D01*
X15242857Y39464286D01*
X15271428Y39350000D01*
X15271428Y39207143D01*
X15242857Y39092858D01*
X15214285Y39035715D01*
X15185714Y39007143D01*
X15128571Y38978572D01*
X15071428Y38978572D01*
X15014285Y39007143D01*
X14985714Y39035715D01*
X14957142Y39092858D01*
X14928571Y39207143D01*
X14928571Y39350000D01*
X14957142Y39464286D01*
X14985714Y39521429D01*
X15014285Y39550000D01*
X15071428Y39578572D01*
X15557142Y38978572D02*
X15671428Y38978572D01*
X15728571Y39007143D01*
X15757142Y39035715D01*
X15814285Y39121429D01*
X15842857Y39235715D01*
X15842857Y39464286D01*
X15814285Y39521429D01*
X15785714Y39550000D01*
X15728571Y39578572D01*
X15614285Y39578572D01*
X15557142Y39550000D01*
X15528571Y39521429D01*
X15500000Y39464286D01*
X15500000Y39321429D01*
X15528571Y39264286D01*
X15557142Y39235715D01*
X15614285Y39207143D01*
X15728571Y39207143D01*
X15785714Y39235715D01*
X15814285Y39264286D01*
X15842857Y39321429D01*
X28578571Y2778572D02*
X28378571Y3064286D01*
X28235714Y2778572D02*
X28235714Y3378572D01*
X28464285Y3378572D01*
X28521428Y3350000D01*
X28550000Y3321429D01*
X28578571Y3264286D01*
X28578571Y3178572D01*
X28550000Y3121429D01*
X28521428Y3092858D01*
X28464285Y3064286D01*
X28235714Y3064286D01*
X28807142Y3321429D02*
X28835714Y3350000D01*
X28892857Y3378572D01*
X29035714Y3378572D01*
X29092857Y3350000D01*
X29121428Y3321429D01*
X29150000Y3264286D01*
X29150000Y3207143D01*
X29121428Y3121429D01*
X28778571Y2778572D01*
X29150000Y2778572D01*
X29721428Y2778572D02*
X29378571Y2778572D01*
X29550000Y2778572D02*
X29550000Y3378572D01*
X29492857Y3292858D01*
X29435714Y3235715D01*
X29378571Y3207143D01*
X30092857Y3378572D02*
X30150000Y3378572D01*
X30207142Y3350000D01*
X30235714Y3321429D01*
X30264285Y3264286D01*
X30292857Y3150000D01*
X30292857Y3007143D01*
X30264285Y2892858D01*
X30235714Y2835715D01*
X30207142Y2807143D01*
X30150000Y2778572D01*
X30092857Y2778572D01*
X30035714Y2807143D01*
X30007142Y2835715D01*
X29978571Y2892858D01*
X29950000Y3007143D01*
X29950000Y3150000D01*
X29978571Y3264286D01*
X30007142Y3321429D01*
X30035714Y3350000D01*
X30092857Y3378572D01*
X23728571Y2778572D02*
X23528571Y3064286D01*
X23385714Y2778572D02*
X23385714Y3378572D01*
X23614285Y3378572D01*
X23671428Y3350000D01*
X23700000Y3321429D01*
X23728571Y3264286D01*
X23728571Y3178572D01*
X23700000Y3121429D01*
X23671428Y3092858D01*
X23614285Y3064286D01*
X23385714Y3064286D01*
X23957142Y3321429D02*
X23985714Y3350000D01*
X24042857Y3378572D01*
X24185714Y3378572D01*
X24242857Y3350000D01*
X24271428Y3321429D01*
X24300000Y3264286D01*
X24300000Y3207143D01*
X24271428Y3121429D01*
X23928571Y2778572D01*
X24300000Y2778572D01*
X24871428Y2778572D02*
X24528571Y2778572D01*
X24700000Y2778572D02*
X24700000Y3378572D01*
X24642857Y3292858D01*
X24585714Y3235715D01*
X24528571Y3207143D01*
X25442857Y2778572D02*
X25100000Y2778572D01*
X25271428Y2778572D02*
X25271428Y3378572D01*
X25214285Y3292858D01*
X25157142Y3235715D01*
X25100000Y3207143D01*
X12578571Y25653572D02*
X12378571Y25939286D01*
X12235714Y25653572D02*
X12235714Y26253572D01*
X12464285Y26253572D01*
X12521428Y26225000D01*
X12550000Y26196429D01*
X12578571Y26139286D01*
X12578571Y26053572D01*
X12550000Y25996429D01*
X12521428Y25967858D01*
X12464285Y25939286D01*
X12235714Y25939286D01*
X12807142Y26196429D02*
X12835714Y26225000D01*
X12892857Y26253572D01*
X13035714Y26253572D01*
X13092857Y26225000D01*
X13121428Y26196429D01*
X13150000Y26139286D01*
X13150000Y26082143D01*
X13121428Y25996429D01*
X12778571Y25653572D01*
X13150000Y25653572D01*
X13721428Y25653572D02*
X13378571Y25653572D01*
X13550000Y25653572D02*
X13550000Y26253572D01*
X13492857Y26167858D01*
X13435714Y26110715D01*
X13378571Y26082143D01*
X13950000Y26196429D02*
X13978571Y26225000D01*
X14035714Y26253572D01*
X14178571Y26253572D01*
X14235714Y26225000D01*
X14264285Y26196429D01*
X14292857Y26139286D01*
X14292857Y26082143D01*
X14264285Y25996429D01*
X13921428Y25653572D01*
X14292857Y25653572D01*
X22053571Y25653572D02*
X21853571Y25939286D01*
X21710714Y25653572D02*
X21710714Y26253572D01*
X21939285Y26253572D01*
X21996428Y26225000D01*
X22025000Y26196429D01*
X22053571Y26139286D01*
X22053571Y26053572D01*
X22025000Y25996429D01*
X21996428Y25967858D01*
X21939285Y25939286D01*
X21710714Y25939286D01*
X22282142Y26196429D02*
X22310714Y26225000D01*
X22367857Y26253572D01*
X22510714Y26253572D01*
X22567857Y26225000D01*
X22596428Y26196429D01*
X22625000Y26139286D01*
X22625000Y26082143D01*
X22596428Y25996429D01*
X22253571Y25653572D01*
X22625000Y25653572D01*
X23196428Y25653572D02*
X22853571Y25653572D01*
X23025000Y25653572D02*
X23025000Y26253572D01*
X22967857Y26167858D01*
X22910714Y26110715D01*
X22853571Y26082143D01*
X23396428Y26253572D02*
X23767857Y26253572D01*
X23567857Y26025000D01*
X23653571Y26025000D01*
X23710714Y25996429D01*
X23739285Y25967858D01*
X23767857Y25910715D01*
X23767857Y25767858D01*
X23739285Y25710715D01*
X23710714Y25682143D01*
X23653571Y25653572D01*
X23482142Y25653572D01*
X23425000Y25682143D01*
X23396428Y25710715D01*
X19471428Y45921429D02*
X19957142Y45921429D01*
X20014285Y45950000D01*
X20042857Y45978572D01*
X20071428Y46035715D01*
X20071428Y46150000D01*
X20042857Y46207143D01*
X20014285Y46235715D01*
X19957142Y46264286D01*
X19471428Y46264286D01*
X19671428Y46807143D02*
X20071428Y46807143D01*
X19442857Y46664286D02*
X19871428Y46521429D01*
X19871428Y46892858D01*
X19471428Y47235715D02*
X19471428Y47292858D01*
X19500000Y47350000D01*
X19528571Y47378572D01*
X19585714Y47407143D01*
X19700000Y47435715D01*
X19842857Y47435715D01*
X19957142Y47407143D01*
X20014285Y47378572D01*
X20042857Y47350000D01*
X20071428Y47292858D01*
X20071428Y47235715D01*
X20042857Y47178572D01*
X20014285Y47150000D01*
X19957142Y47121429D01*
X19842857Y47092858D01*
X19700000Y47092858D01*
X19585714Y47121429D01*
X19528571Y47150000D01*
X19500000Y47178572D01*
X19471428Y47235715D01*
X20071428Y48007143D02*
X20071428Y47664286D01*
X20071428Y47835715D02*
X19471428Y47835715D01*
X19557142Y47778572D01*
X19614285Y47721429D01*
X19642857Y47664286D01*
X51528571Y53571429D02*
X51500000Y53514286D01*
X51442857Y53457143D01*
X51357142Y53371429D01*
X51328571Y53314286D01*
X51328571Y53257143D01*
X51471428Y53285715D02*
X51442857Y53228572D01*
X51385714Y53171429D01*
X51271428Y53142858D01*
X51071428Y53142858D01*
X50957142Y53171429D01*
X50900000Y53228572D01*
X50871428Y53285715D01*
X50871428Y53400000D01*
X50900000Y53457143D01*
X50957142Y53514286D01*
X51071428Y53542858D01*
X51271428Y53542858D01*
X51385714Y53514286D01*
X51442857Y53457143D01*
X51471428Y53400000D01*
X51471428Y53285715D01*
X51071428Y54057143D02*
X51471428Y54057143D01*
X50842857Y53914286D02*
X51271428Y53771429D01*
X51271428Y54142858D01*
X51471428Y54685715D02*
X51471428Y54342858D01*
X51471428Y54514286D02*
X50871428Y54514286D01*
X50957142Y54457143D01*
X51014285Y54400000D01*
X51042857Y54342858D01*
X50928571Y54914286D02*
X50900000Y54942858D01*
X50871428Y55000000D01*
X50871428Y55142858D01*
X50900000Y55200000D01*
X50928571Y55228572D01*
X50985714Y55257143D01*
X51042857Y55257143D01*
X51128571Y55228572D01*
X51471428Y54885715D01*
X51471428Y55257143D01*
X31128571Y53721429D02*
X31100000Y53664286D01*
X31042857Y53607143D01*
X30957142Y53521429D01*
X30928571Y53464286D01*
X30928571Y53407143D01*
X31071428Y53435715D02*
X31042857Y53378572D01*
X30985714Y53321429D01*
X30871428Y53292858D01*
X30671428Y53292858D01*
X30557142Y53321429D01*
X30500000Y53378572D01*
X30471428Y53435715D01*
X30471428Y53550000D01*
X30500000Y53607143D01*
X30557142Y53664286D01*
X30671428Y53692858D01*
X30871428Y53692858D01*
X30985714Y53664286D01*
X31042857Y53607143D01*
X31071428Y53550000D01*
X31071428Y53435715D01*
X30671428Y54207143D02*
X31071428Y54207143D01*
X30442857Y54064286D02*
X30871428Y53921429D01*
X30871428Y54292858D01*
X31071428Y54835715D02*
X31071428Y54492858D01*
X31071428Y54664286D02*
X30471428Y54664286D01*
X30557142Y54607143D01*
X30614285Y54550000D01*
X30642857Y54492858D01*
X30471428Y55035715D02*
X30471428Y55407143D01*
X30700000Y55207143D01*
X30700000Y55292858D01*
X30728571Y55350000D01*
X30757142Y55378572D01*
X30814285Y55407143D01*
X30957142Y55407143D01*
X31014285Y55378572D01*
X31042857Y55350000D01*
X31071428Y55292858D01*
X31071428Y55121429D01*
X31042857Y55064286D01*
X31014285Y55035715D01*
D14*
X3709523Y22772620D02*
X3709523Y23772620D01*
X4090476Y23772620D01*
X4185714Y23725000D01*
X4233333Y23677381D01*
X4280952Y23582143D01*
X4280952Y23439286D01*
X4233333Y23344048D01*
X4185714Y23296429D01*
X4090476Y23248810D01*
X3709523Y23248810D01*
X5138095Y23439286D02*
X5138095Y22772620D01*
X4900000Y23820239D02*
X4661904Y23105953D01*
X5280952Y23105953D01*
X5852380Y23772620D02*
X5947619Y23772620D01*
X6042857Y23725000D01*
X6090476Y23677381D01*
X6138095Y23582143D01*
X6185714Y23391667D01*
X6185714Y23153572D01*
X6138095Y22963096D01*
X6090476Y22867858D01*
X6042857Y22820239D01*
X5947619Y22772620D01*
X5852380Y22772620D01*
X5757142Y22820239D01*
X5709523Y22867858D01*
X5661904Y22963096D01*
X5614285Y23153572D01*
X5614285Y23391667D01*
X5661904Y23582143D01*
X5709523Y23677381D01*
X5757142Y23725000D01*
X5852380Y23772620D01*
X7138095Y22772620D02*
X6566666Y22772620D01*
X6852380Y22772620D02*
X6852380Y23772620D01*
X6757142Y23629762D01*
X6661904Y23534524D01*
X6566666Y23486905D01*
M02*
