M48
; DRILL file {KiCad (5.1.8)-1} date 02/13/21 14:21:57
; FORMAT={-:-/ absolute / inch / decimal}
; #@! TF.CreationDate,2021-02-13T14:21:57-08:00
; #@! TF.GenerationSoftware,Kicad,Pcbnew,(5.1.8)-1
FMAT,2
INCH
T1C0.0157
T2C0.0236
T3C0.0394
T4C0.1969
T5C0.2185
T6C0.1181
%
G90
G05
T1
X0.0335Y0.3199
X0.0394Y0.9961
X0.0394Y0.9528
X0.0758Y0.3199
X0.0787Y1.0354
X0.0787Y0.9961
X0.0787Y0.9528
X0.122Y1.1201
X0.1368Y1.6545
X0.1378Y1.5797
X0.1535Y0.3199
X0.2539Y1.2549
X0.2539Y1.2156
X0.4272Y1.4596
X0.4272Y1.4124
X0.4272Y1.3711
X0.4626Y0.6634
X0.4675Y0.3642
X0.4902Y0.7549
X0.5118Y0.31
X0.5128Y0.2028
X0.5384Y0.503
X0.5512Y2.0748
X0.5551Y1.7372
X0.5906Y2.0748
X0.6232Y1.7354
X0.6988Y1.2687
X0.814Y1.0827
X0.8228Y0.6624
X0.8425Y2.4331
X0.8967Y0.6624
X0.9173Y0.2451
X0.9311Y0.1673
X0.9646Y0.3898
X0.9677Y0.4579
X1.0728Y1.2165
X1.1319Y0.5118
X1.1319Y0.4626
X1.1319Y0.4173
X1.1476Y1.2156
X1.1713Y0.3445
X1.187Y0.1673
X1.1969Y0.9679
X1.2106Y2.0335
X1.2146Y0.8819
X1.252Y2.4331
X1.2835Y1.1496
X1.311Y0.2136
X1.4252Y0.5138
X1.437Y1.1506
X1.5236Y1.4409
X1.5315Y0.9675
X1.5758Y1.3435
X1.5758Y1.1545
X1.6073Y1.5177
X1.6181Y2.0344
X1.624Y1.2687
X1.6614Y2.4331
X1.8297Y1.125
X1.8947Y1.1329
X1.9695Y1.1329
X2.0315Y0.5394
X2.0669Y0.4606
X2.1024Y0.6201
X2.2106Y0.6988
T2
X0.3839Y1.9213
X0.689Y2.252
X0.689Y2.1929
X0.689Y2.1339
X0.689Y2.0748
X0.8474Y1.8386
X0.861Y1.3433
X0.9252Y1.8386
X1.0207Y1.3031
X2.0738Y1.8563
X2.0748Y1.7697
X2.0748Y1.687
X2.3228Y0.2874
X2.3268Y0.7953
T3
X0.4724Y2.4705
X0.5669Y2.5492
X0.5669Y2.3917
X0.5669Y2.2421
X0.9606Y2.7402
X1.0945Y2.7402
X1.1319Y2.1949
X1.2205Y2.7402
X1.25Y2.1949
X1.3307Y2.7402
X1.3681Y2.1949
X1.3967Y1.8238
X1.4488Y2.7402
X1.4862Y2.1949
X1.5059Y1.8209
X1.5669Y2.7402
X1.6043Y2.1949
X1.6142Y1.8209
X1.7126Y1.8209
X1.9193Y1.8209
X1.9886Y1.4555
X1.998Y1.7323
X2.1024Y2.748
X2.1024Y2.4016
X2.1024Y2.0079
X2.2362Y1.7953
X2.2441Y2.5984
X2.3937Y2.748
X2.3937Y2.5984
X2.3937Y2.4016
X2.3937Y2.0079
X2.3937Y1.6299
T4
X0.2106Y2.3504
X1.8169Y3.1594
X0.6358Y3.1594
T5
X0.6358Y3.1594
X1.8169Y3.1594
T6
X2.3346Y0.1535
X2.252Y2.2047
X0.126Y2.748
X0.1181Y0.1811
T0
M30
