%TF.GenerationSoftware,KiCad,Pcbnew,(5.1.8)-1*%
%TF.CreationDate,2021-02-13T14:21:55-08:00*%
%TF.ProjectId,20190720_Project_OCP-OVP-UVP,32303139-3037-4323-905f-50726f6a6563,A1*%
%TF.SameCoordinates,PX6ff61c0PY8823130*%
%TF.FileFunction,Paste,Bot*%
%TF.FilePolarity,Positive*%
%FSLAX46Y46*%
G04 Gerber Fmt 4.6, Leading zero omitted, Abs format (unit mm)*
G04 Created by KiCad (PCBNEW (5.1.8)-1) date 2021-02-13 14:21:55*
%MOMM*%
%LPD*%
G01*
G04 APERTURE LIST*
%ADD10R,1.000000X3.000000*%
%ADD11R,0.650000X0.400000*%
G04 APERTURE END LIST*
G36*
G01*
X7750000Y13362500D02*
X7750000Y12887500D01*
G75*
G02*
X7512500Y12650000I-237500J0D01*
G01*
X6937500Y12650000D01*
G75*
G02*
X6700000Y12887500I0J237500D01*
G01*
X6700000Y13362500D01*
G75*
G02*
X6937500Y13600000I237500J0D01*
G01*
X7512500Y13600000D01*
G75*
G02*
X7750000Y13362500I0J-237500D01*
G01*
G37*
G36*
G01*
X9500000Y13362500D02*
X9500000Y12887500D01*
G75*
G02*
X9262500Y12650000I-237500J0D01*
G01*
X8687500Y12650000D01*
G75*
G02*
X8450000Y12887500I0J237500D01*
G01*
X8450000Y13362500D01*
G75*
G02*
X8687500Y13600000I237500J0D01*
G01*
X9262500Y13600000D01*
G75*
G02*
X9500000Y13362500I0J-237500D01*
G01*
G37*
G36*
G01*
X9425000Y7587500D02*
X9425000Y8062500D01*
G75*
G02*
X9662500Y8300000I237500J0D01*
G01*
X10237500Y8300000D01*
G75*
G02*
X10475000Y8062500I0J-237500D01*
G01*
X10475000Y7587500D01*
G75*
G02*
X10237500Y7350000I-237500J0D01*
G01*
X9662500Y7350000D01*
G75*
G02*
X9425000Y7587500I0J237500D01*
G01*
G37*
G36*
G01*
X11175000Y7587500D02*
X11175000Y8062500D01*
G75*
G02*
X11412500Y8300000I237500J0D01*
G01*
X11987500Y8300000D01*
G75*
G02*
X12225000Y8062500I0J-237500D01*
G01*
X12225000Y7587500D01*
G75*
G02*
X11987500Y7350000I-237500J0D01*
G01*
X11412500Y7350000D01*
G75*
G02*
X11175000Y7587500I0J237500D01*
G01*
G37*
G36*
G01*
X6200000Y10937500D02*
X6200000Y10462500D01*
G75*
G02*
X5962500Y10225000I-237500J0D01*
G01*
X5387500Y10225000D01*
G75*
G02*
X5150000Y10462500I0J237500D01*
G01*
X5150000Y10937500D01*
G75*
G02*
X5387500Y11175000I237500J0D01*
G01*
X5962500Y11175000D01*
G75*
G02*
X6200000Y10937500I0J-237500D01*
G01*
G37*
G36*
G01*
X4450000Y10937500D02*
X4450000Y10462500D01*
G75*
G02*
X4212500Y10225000I-237500J0D01*
G01*
X3637500Y10225000D01*
G75*
G02*
X3400000Y10462500I0J237500D01*
G01*
X3400000Y10937500D01*
G75*
G02*
X3637500Y11175000I237500J0D01*
G01*
X4212500Y11175000D01*
G75*
G02*
X4450000Y10937500I0J-237500D01*
G01*
G37*
G36*
G01*
X4400000Y13362500D02*
X4400000Y12887500D01*
G75*
G02*
X4162500Y12650000I-237500J0D01*
G01*
X3587500Y12650000D01*
G75*
G02*
X3350000Y12887500I0J237500D01*
G01*
X3350000Y13362500D01*
G75*
G02*
X3587500Y13600000I237500J0D01*
G01*
X4162500Y13600000D01*
G75*
G02*
X4400000Y13362500I0J-237500D01*
G01*
G37*
G36*
G01*
X6150000Y13362500D02*
X6150000Y12887500D01*
G75*
G02*
X5912500Y12650000I-237500J0D01*
G01*
X5337500Y12650000D01*
G75*
G02*
X5100000Y12887500I0J237500D01*
G01*
X5100000Y13362500D01*
G75*
G02*
X5337500Y13600000I237500J0D01*
G01*
X5912500Y13600000D01*
G75*
G02*
X6150000Y13362500I0J-237500D01*
G01*
G37*
D10*
X7875000Y15950000D03*
X3875000Y15950000D03*
X7875000Y24850000D03*
X3875000Y24850000D03*
D11*
X8975000Y9400000D03*
X8975000Y10700000D03*
X8975000Y10050000D03*
X10875000Y10700000D03*
X10875000Y9400000D03*
M02*
