M48
; DRILL file {KiCad (5.1.8)-1} date 02/13/21 13:26:26
; FORMAT={-:-/ absolute / inch / decimal}
; #@! TF.CreationDate,2021-02-13T13:26:26-08:00
; #@! TF.GenerationSoftware,Kicad,Pcbnew,(5.1.8)-1
FMAT,2
INCH
T1C0.0157
T2C0.0236
T3C0.0394
T4C0.1339
%
G90
G05
T1
X0.0748Y1.6142
X0.4055Y0.9094
X0.4055Y0.185
X0.4429Y0.9626
X0.4459Y0.7441
X0.4469Y1.0433
X0.4626Y0.9252
X0.4724Y1.2628
X0.4823Y1.0906
X0.5098Y0.877
X0.5295Y0.9173
X0.5335Y0.6713
X0.5866Y0.9114
X0.6004Y0.9724
X0.6614Y1.4685
X0.6811Y0.8209
X0.687Y1.1801
X0.688Y1.1233
X0.8051Y0.8238
X0.8543Y0.4921
X0.9154Y0.7352
X0.939Y0.4921
X0.9459Y0.6467
X1.0079Y1.9252
X1.0079Y1.8898
X1.0079Y1.8543
X1.0394Y0.0354
X1.0433Y1.9252
X1.0433Y1.8898
X1.0443Y1.8543
X1.0551Y1.5
X1.1211Y1.5758
X1.126Y0.2776
X1.2402Y1.6476
X1.2402Y1.6142
X1.4331Y0.185
X1.5118Y0.2264
X1.5709Y1.5925
X1.5906Y0.3465
X1.7323Y0.0315
X1.8661Y0.4183
X1.9449Y0.3563
X2.0728Y1.8061
X2.124Y1.5817
X2.1358Y1.6841
X2.1693Y1.3622
X2.1693Y0.5433
X2.1742Y1.6841
X2.1742Y1.5817
T2
X0.4518Y1.7087
X0.8051Y1.4744
X0.9557Y1.2933
X1.4409Y1.3681
X1.4409Y1.25
X1.4409Y1.1319
X1.4409Y1.0138
X1.4409Y0.8957
X1.4409Y0.7776
X1.4409Y0.6594
X1.4409Y0.5413
X1.8356Y1.7746
X1.9085Y1.7746
T3
X0.0571Y1.3665
X0.0571Y1.2665
X0.0571Y1.1665
X0.0571Y1.0665
X0.0571Y0.9665
X0.0571Y0.8665
X0.0571Y0.7665
X0.0571Y0.6665
X0.0571Y0.5665
X1.7028Y1.3528
X1.7028Y1.2528
X1.7028Y1.1528
X1.7028Y1.0528
X1.7028Y0.9528
X1.7028Y0.8528
X1.7028Y0.7528
X1.7028Y0.6528
X1.7028Y0.5528
X1.8455Y1.6837
X1.8455Y1.5837
X1.8455Y1.4837
T4
X0.1398Y1.813
X0.1398Y0.1437
T0
M30
