%TF.GenerationSoftware,KiCad,Pcbnew,(5.1.8)-1*%
%TF.CreationDate,2021-02-13T13:26:22-08:00*%
%TF.ProjectId,20200103_8SBMS_A0,32303230-3031-4303-935f-3853424d535f,rev?*%
%TF.SameCoordinates,PXb061cf0PYa92e8c0*%
%TF.FileFunction,Copper,L1,Top*%
%TF.FilePolarity,Positive*%
%FSLAX46Y46*%
G04 Gerber Fmt 4.6, Leading zero omitted, Abs format (unit mm)*
G04 Created by KiCad (PCBNEW (5.1.8)-1) date 2021-02-13 13:26:22*
%MOMM*%
%LPD*%
G01*
G04 APERTURE LIST*
%TA.AperFunction,SMDPad,CuDef*%
%ADD10R,3.500000X1.000000*%
%TD*%
%TA.AperFunction,SMDPad,CuDef*%
%ADD11R,3.500000X1.600000*%
%TD*%
%TA.AperFunction,SMDPad,CuDef*%
%ADD12R,1.500000X3.500000*%
%TD*%
%TA.AperFunction,ComponentPad*%
%ADD13C,2.000000*%
%TD*%
%TA.AperFunction,ComponentPad*%
%ADD14C,6.000000*%
%TD*%
%TA.AperFunction,SMDPad,CuDef*%
%ADD15R,1.500000X0.450000*%
%TD*%
%TA.AperFunction,SMDPad,CuDef*%
%ADD16R,0.800000X0.900000*%
%TD*%
%TA.AperFunction,SMDPad,CuDef*%
%ADD17R,0.550000X1.600000*%
%TD*%
%TA.AperFunction,SMDPad,CuDef*%
%ADD18R,1.600000X0.550000*%
%TD*%
%TA.AperFunction,SMDPad,CuDef*%
%ADD19R,0.650000X1.560000*%
%TD*%
%TA.AperFunction,SMDPad,CuDef*%
%ADD20R,2.200000X2.000000*%
%TD*%
%TA.AperFunction,SMDPad,CuDef*%
%ADD21R,1.150000X1.000000*%
%TD*%
%TA.AperFunction,ViaPad*%
%ADD22C,0.800000*%
%TD*%
%TA.AperFunction,ViaPad*%
%ADD23C,1.000000*%
%TD*%
%TA.AperFunction,Conductor*%
%ADD24C,0.450000*%
%TD*%
%TA.AperFunction,Conductor*%
%ADD25C,0.550000*%
%TD*%
%TA.AperFunction,Conductor*%
%ADD26C,0.400000*%
%TD*%
%TA.AperFunction,Conductor*%
%ADD27C,0.800000*%
%TD*%
%TA.AperFunction,Conductor*%
%ADD28C,0.950000*%
%TD*%
%TA.AperFunction,Conductor*%
%ADD29C,0.600000*%
%TD*%
%TA.AperFunction,Conductor*%
%ADD30C,0.650000*%
%TD*%
%TA.AperFunction,Conductor*%
%ADD31C,0.850000*%
%TD*%
%TA.AperFunction,Conductor*%
%ADD32C,0.500000*%
%TD*%
%TA.AperFunction,Conductor*%
%ADD33C,1.000000*%
%TD*%
%TA.AperFunction,Conductor*%
%ADD34C,0.254000*%
%TD*%
%TA.AperFunction,Conductor*%
%ADD35C,0.100000*%
%TD*%
G04 APERTURE END LIST*
D10*
X48250000Y32200000D03*
X48250000Y30200000D03*
X48250000Y28200000D03*
X48250000Y26200000D03*
X48250000Y24200000D03*
D11*
X53750000Y34600000D03*
X53750000Y13800000D03*
D10*
X48250000Y22200000D03*
X48250000Y20200000D03*
X48250000Y18200000D03*
X48250000Y16200000D03*
D12*
X37700000Y47400000D03*
X34200000Y47400000D03*
D13*
X1450000Y34710000D03*
X43250000Y34360000D03*
X43250000Y31820000D03*
X43250000Y29280000D03*
X43250000Y26740000D03*
X43250000Y14040000D03*
X43250000Y16580000D03*
X43250000Y19120000D03*
X43250000Y21660000D03*
X43250000Y24200000D03*
X1450000Y32170000D03*
X1450000Y29630000D03*
X1450000Y27090000D03*
X1450000Y14390000D03*
X1450000Y16930000D03*
X1450000Y19470000D03*
X1450000Y22010000D03*
X1450000Y24550000D03*
D14*
X3550000Y46050000D03*
X3550000Y3650000D03*
D15*
X28475000Y38750000D03*
X28475000Y38100000D03*
X28475000Y37450000D03*
X28475000Y36800000D03*
X28475000Y36150000D03*
X28475000Y35500000D03*
X28475000Y34850000D03*
X28475000Y34200000D03*
X22575000Y34200000D03*
X22575000Y34850000D03*
X22575000Y35500000D03*
X22575000Y36150000D03*
X22575000Y36800000D03*
X22575000Y37450000D03*
X22575000Y38100000D03*
X22575000Y38750000D03*
%TA.AperFunction,SMDPad,CuDef*%
G36*
G01*
X13870000Y36537500D02*
X13870000Y36062500D01*
G75*
G02*
X13632500Y35825000I-237500J0D01*
G01*
X13057500Y35825000D01*
G75*
G02*
X12820000Y36062500I0J237500D01*
G01*
X12820000Y36537500D01*
G75*
G02*
X13057500Y36775000I237500J0D01*
G01*
X13632500Y36775000D01*
G75*
G02*
X13870000Y36537500I0J-237500D01*
G01*
G37*
%TD.AperFunction*%
%TA.AperFunction,SMDPad,CuDef*%
G36*
G01*
X12120000Y36537500D02*
X12120000Y36062500D01*
G75*
G02*
X11882500Y35825000I-237500J0D01*
G01*
X11307500Y35825000D01*
G75*
G02*
X11070000Y36062500I0J237500D01*
G01*
X11070000Y36537500D01*
G75*
G02*
X11307500Y36775000I237500J0D01*
G01*
X11882500Y36775000D01*
G75*
G02*
X12120000Y36537500I0J-237500D01*
G01*
G37*
%TD.AperFunction*%
%TA.AperFunction,SMDPad,CuDef*%
G36*
G01*
X14250000Y31887500D02*
X14250000Y31412500D01*
G75*
G02*
X14012500Y31175000I-237500J0D01*
G01*
X13437500Y31175000D01*
G75*
G02*
X13200000Y31412500I0J237500D01*
G01*
X13200000Y31887500D01*
G75*
G02*
X13437500Y32125000I237500J0D01*
G01*
X14012500Y32125000D01*
G75*
G02*
X14250000Y31887500I0J-237500D01*
G01*
G37*
%TD.AperFunction*%
%TA.AperFunction,SMDPad,CuDef*%
G36*
G01*
X12500000Y31887500D02*
X12500000Y31412500D01*
G75*
G02*
X12262500Y31175000I-237500J0D01*
G01*
X11687500Y31175000D01*
G75*
G02*
X11450000Y31412500I0J237500D01*
G01*
X11450000Y31887500D01*
G75*
G02*
X11687500Y32125000I237500J0D01*
G01*
X12262500Y32125000D01*
G75*
G02*
X12500000Y31887500I0J-237500D01*
G01*
G37*
%TD.AperFunction*%
%TA.AperFunction,SMDPad,CuDef*%
G36*
G01*
X10312500Y19400000D02*
X10787500Y19400000D01*
G75*
G02*
X11025000Y19162500I0J-237500D01*
G01*
X11025000Y18587500D01*
G75*
G02*
X10787500Y18350000I-237500J0D01*
G01*
X10312500Y18350000D01*
G75*
G02*
X10075000Y18587500I0J237500D01*
G01*
X10075000Y19162500D01*
G75*
G02*
X10312500Y19400000I237500J0D01*
G01*
G37*
%TD.AperFunction*%
%TA.AperFunction,SMDPad,CuDef*%
G36*
G01*
X10312500Y17650000D02*
X10787500Y17650000D01*
G75*
G02*
X11025000Y17412500I0J-237500D01*
G01*
X11025000Y16837500D01*
G75*
G02*
X10787500Y16600000I-237500J0D01*
G01*
X10312500Y16600000D01*
G75*
G02*
X10075000Y16837500I0J237500D01*
G01*
X10075000Y17412500D01*
G75*
G02*
X10312500Y17650000I237500J0D01*
G01*
G37*
%TD.AperFunction*%
%TA.AperFunction,SMDPad,CuDef*%
G36*
G01*
X18175000Y25437500D02*
X18175000Y25912500D01*
G75*
G02*
X18412500Y26150000I237500J0D01*
G01*
X18987500Y26150000D01*
G75*
G02*
X19225000Y25912500I0J-237500D01*
G01*
X19225000Y25437500D01*
G75*
G02*
X18987500Y25200000I-237500J0D01*
G01*
X18412500Y25200000D01*
G75*
G02*
X18175000Y25437500I0J237500D01*
G01*
G37*
%TD.AperFunction*%
%TA.AperFunction,SMDPad,CuDef*%
G36*
G01*
X19925000Y25437500D02*
X19925000Y25912500D01*
G75*
G02*
X20162500Y26150000I237500J0D01*
G01*
X20737500Y26150000D01*
G75*
G02*
X20975000Y25912500I0J-237500D01*
G01*
X20975000Y25437500D01*
G75*
G02*
X20737500Y25200000I-237500J0D01*
G01*
X20162500Y25200000D01*
G75*
G02*
X19925000Y25437500I0J237500D01*
G01*
G37*
%TD.AperFunction*%
%TA.AperFunction,SMDPad,CuDef*%
G36*
G01*
X11912500Y17650000D02*
X12387500Y17650000D01*
G75*
G02*
X12625000Y17412500I0J-237500D01*
G01*
X12625000Y16837500D01*
G75*
G02*
X12387500Y16600000I-237500J0D01*
G01*
X11912500Y16600000D01*
G75*
G02*
X11675000Y16837500I0J237500D01*
G01*
X11675000Y17412500D01*
G75*
G02*
X11912500Y17650000I237500J0D01*
G01*
G37*
%TD.AperFunction*%
%TA.AperFunction,SMDPad,CuDef*%
G36*
G01*
X11912500Y19400000D02*
X12387500Y19400000D01*
G75*
G02*
X12625000Y19162500I0J-237500D01*
G01*
X12625000Y18587500D01*
G75*
G02*
X12387500Y18350000I-237500J0D01*
G01*
X11912500Y18350000D01*
G75*
G02*
X11675000Y18587500I0J237500D01*
G01*
X11675000Y19162500D01*
G75*
G02*
X11912500Y19400000I237500J0D01*
G01*
G37*
%TD.AperFunction*%
%TA.AperFunction,SMDPad,CuDef*%
G36*
G01*
X23487500Y17650000D02*
X23012500Y17650000D01*
G75*
G02*
X22775000Y17887500I0J237500D01*
G01*
X22775000Y18462500D01*
G75*
G02*
X23012500Y18700000I237500J0D01*
G01*
X23487500Y18700000D01*
G75*
G02*
X23725000Y18462500I0J-237500D01*
G01*
X23725000Y17887500D01*
G75*
G02*
X23487500Y17650000I-237500J0D01*
G01*
G37*
%TD.AperFunction*%
%TA.AperFunction,SMDPad,CuDef*%
G36*
G01*
X23487500Y15900000D02*
X23012500Y15900000D01*
G75*
G02*
X22775000Y16137500I0J237500D01*
G01*
X22775000Y16712500D01*
G75*
G02*
X23012500Y16950000I237500J0D01*
G01*
X23487500Y16950000D01*
G75*
G02*
X23725000Y16712500I0J-237500D01*
G01*
X23725000Y16137500D01*
G75*
G02*
X23487500Y15900000I-237500J0D01*
G01*
G37*
%TD.AperFunction*%
%TA.AperFunction,SMDPad,CuDef*%
G36*
G01*
X30562500Y36500000D02*
X30087500Y36500000D01*
G75*
G02*
X29850000Y36737500I0J237500D01*
G01*
X29850000Y37312500D01*
G75*
G02*
X30087500Y37550000I237500J0D01*
G01*
X30562500Y37550000D01*
G75*
G02*
X30800000Y37312500I0J-237500D01*
G01*
X30800000Y36737500D01*
G75*
G02*
X30562500Y36500000I-237500J0D01*
G01*
G37*
%TD.AperFunction*%
%TA.AperFunction,SMDPad,CuDef*%
G36*
G01*
X30562500Y38250000D02*
X30087500Y38250000D01*
G75*
G02*
X29850000Y38487500I0J237500D01*
G01*
X29850000Y39062500D01*
G75*
G02*
X30087500Y39300000I237500J0D01*
G01*
X30562500Y39300000D01*
G75*
G02*
X30800000Y39062500I0J-237500D01*
G01*
X30800000Y38487500D01*
G75*
G02*
X30562500Y38250000I-237500J0D01*
G01*
G37*
%TD.AperFunction*%
%TA.AperFunction,SMDPad,CuDef*%
G36*
G01*
X23650000Y12737500D02*
X23650000Y12262500D01*
G75*
G02*
X23412500Y12025000I-237500J0D01*
G01*
X22837500Y12025000D01*
G75*
G02*
X22600000Y12262500I0J237500D01*
G01*
X22600000Y12737500D01*
G75*
G02*
X22837500Y12975000I237500J0D01*
G01*
X23412500Y12975000D01*
G75*
G02*
X23650000Y12737500I0J-237500D01*
G01*
G37*
%TD.AperFunction*%
%TA.AperFunction,SMDPad,CuDef*%
G36*
G01*
X21900000Y12737500D02*
X21900000Y12262500D01*
G75*
G02*
X21662500Y12025000I-237500J0D01*
G01*
X21087500Y12025000D01*
G75*
G02*
X20850000Y12262500I0J237500D01*
G01*
X20850000Y12737500D01*
G75*
G02*
X21087500Y12975000I237500J0D01*
G01*
X21662500Y12975000D01*
G75*
G02*
X21900000Y12737500I0J-237500D01*
G01*
G37*
%TD.AperFunction*%
%TA.AperFunction,SMDPad,CuDef*%
G36*
G01*
X32112500Y37000000D02*
X31637500Y37000000D01*
G75*
G02*
X31400000Y37237500I0J237500D01*
G01*
X31400000Y37812500D01*
G75*
G02*
X31637500Y38050000I237500J0D01*
G01*
X32112500Y38050000D01*
G75*
G02*
X32350000Y37812500I0J-237500D01*
G01*
X32350000Y37237500D01*
G75*
G02*
X32112500Y37000000I-237500J0D01*
G01*
G37*
%TD.AperFunction*%
%TA.AperFunction,SMDPad,CuDef*%
G36*
G01*
X32112500Y38750000D02*
X31637500Y38750000D01*
G75*
G02*
X31400000Y38987500I0J237500D01*
G01*
X31400000Y39562500D01*
G75*
G02*
X31637500Y39800000I237500J0D01*
G01*
X32112500Y39800000D01*
G75*
G02*
X32350000Y39562500I0J-237500D01*
G01*
X32350000Y38987500D01*
G75*
G02*
X32112500Y38750000I-237500J0D01*
G01*
G37*
%TD.AperFunction*%
%TA.AperFunction,SMDPad,CuDef*%
G36*
G01*
X25087500Y17650000D02*
X24612500Y17650000D01*
G75*
G02*
X24375000Y17887500I0J237500D01*
G01*
X24375000Y18462500D01*
G75*
G02*
X24612500Y18700000I237500J0D01*
G01*
X25087500Y18700000D01*
G75*
G02*
X25325000Y18462500I0J-237500D01*
G01*
X25325000Y17887500D01*
G75*
G02*
X25087500Y17650000I-237500J0D01*
G01*
G37*
%TD.AperFunction*%
%TA.AperFunction,SMDPad,CuDef*%
G36*
G01*
X25087500Y15900000D02*
X24612500Y15900000D01*
G75*
G02*
X24375000Y16137500I0J237500D01*
G01*
X24375000Y16712500D01*
G75*
G02*
X24612500Y16950000I237500J0D01*
G01*
X25087500Y16950000D01*
G75*
G02*
X25325000Y16712500I0J-237500D01*
G01*
X25325000Y16137500D01*
G75*
G02*
X25087500Y15900000I-237500J0D01*
G01*
G37*
%TD.AperFunction*%
%TA.AperFunction,SMDPad,CuDef*%
G36*
G01*
X25650000Y33087500D02*
X25650000Y32612500D01*
G75*
G02*
X25412500Y32375000I-237500J0D01*
G01*
X24837500Y32375000D01*
G75*
G02*
X24600000Y32612500I0J237500D01*
G01*
X24600000Y33087500D01*
G75*
G02*
X24837500Y33325000I237500J0D01*
G01*
X25412500Y33325000D01*
G75*
G02*
X25650000Y33087500I0J-237500D01*
G01*
G37*
%TD.AperFunction*%
%TA.AperFunction,SMDPad,CuDef*%
G36*
G01*
X27400000Y33087500D02*
X27400000Y32612500D01*
G75*
G02*
X27162500Y32375000I-237500J0D01*
G01*
X26587500Y32375000D01*
G75*
G02*
X26350000Y32612500I0J237500D01*
G01*
X26350000Y33087500D01*
G75*
G02*
X26587500Y33325000I237500J0D01*
G01*
X27162500Y33325000D01*
G75*
G02*
X27400000Y33087500I0J-237500D01*
G01*
G37*
%TD.AperFunction*%
%TA.AperFunction,SMDPad,CuDef*%
G36*
G01*
X46387500Y46350000D02*
X46862500Y46350000D01*
G75*
G02*
X47100000Y46112500I0J-237500D01*
G01*
X47100000Y45537500D01*
G75*
G02*
X46862500Y45300000I-237500J0D01*
G01*
X46387500Y45300000D01*
G75*
G02*
X46150000Y45537500I0J237500D01*
G01*
X46150000Y46112500D01*
G75*
G02*
X46387500Y46350000I237500J0D01*
G01*
G37*
%TD.AperFunction*%
%TA.AperFunction,SMDPad,CuDef*%
G36*
G01*
X46387500Y48100000D02*
X46862500Y48100000D01*
G75*
G02*
X47100000Y47862500I0J-237500D01*
G01*
X47100000Y47287500D01*
G75*
G02*
X46862500Y47050000I-237500J0D01*
G01*
X46387500Y47050000D01*
G75*
G02*
X46150000Y47287500I0J237500D01*
G01*
X46150000Y47862500D01*
G75*
G02*
X46387500Y48100000I237500J0D01*
G01*
G37*
%TD.AperFunction*%
%TA.AperFunction,SMDPad,CuDef*%
G36*
G01*
X44787500Y46350000D02*
X45262500Y46350000D01*
G75*
G02*
X45500000Y46112500I0J-237500D01*
G01*
X45500000Y45537500D01*
G75*
G02*
X45262500Y45300000I-237500J0D01*
G01*
X44787500Y45300000D01*
G75*
G02*
X44550000Y45537500I0J237500D01*
G01*
X44550000Y46112500D01*
G75*
G02*
X44787500Y46350000I237500J0D01*
G01*
G37*
%TD.AperFunction*%
%TA.AperFunction,SMDPad,CuDef*%
G36*
G01*
X44787500Y48100000D02*
X45262500Y48100000D01*
G75*
G02*
X45500000Y47862500I0J-237500D01*
G01*
X45500000Y47287500D01*
G75*
G02*
X45262500Y47050000I-237500J0D01*
G01*
X44787500Y47050000D01*
G75*
G02*
X44550000Y47287500I0J237500D01*
G01*
X44550000Y47862500D01*
G75*
G02*
X44787500Y48100000I237500J0D01*
G01*
G37*
%TD.AperFunction*%
%TA.AperFunction,SMDPad,CuDef*%
G36*
G01*
X37562500Y43325000D02*
X38037500Y43325000D01*
G75*
G02*
X38275000Y43087500I0J-237500D01*
G01*
X38275000Y42512500D01*
G75*
G02*
X38037500Y42275000I-237500J0D01*
G01*
X37562500Y42275000D01*
G75*
G02*
X37325000Y42512500I0J237500D01*
G01*
X37325000Y43087500D01*
G75*
G02*
X37562500Y43325000I237500J0D01*
G01*
G37*
%TD.AperFunction*%
%TA.AperFunction,SMDPad,CuDef*%
G36*
G01*
X37562500Y45075000D02*
X38037500Y45075000D01*
G75*
G02*
X38275000Y44837500I0J-237500D01*
G01*
X38275000Y44262500D01*
G75*
G02*
X38037500Y44025000I-237500J0D01*
G01*
X37562500Y44025000D01*
G75*
G02*
X37325000Y44262500I0J237500D01*
G01*
X37325000Y44837500D01*
G75*
G02*
X37562500Y45075000I237500J0D01*
G01*
G37*
%TD.AperFunction*%
D16*
X48475000Y45700000D03*
X50375000Y45700000D03*
X49425000Y47700000D03*
%TA.AperFunction,SMDPad,CuDef*%
G36*
G01*
X41725000Y34606250D02*
X41725000Y34093750D01*
G75*
G02*
X41506250Y33875000I-218750J0D01*
G01*
X41068750Y33875000D01*
G75*
G02*
X40850000Y34093750I0J218750D01*
G01*
X40850000Y34606250D01*
G75*
G02*
X41068750Y34825000I218750J0D01*
G01*
X41506250Y34825000D01*
G75*
G02*
X41725000Y34606250I0J-218750D01*
G01*
G37*
%TD.AperFunction*%
%TA.AperFunction,SMDPad,CuDef*%
G36*
G01*
X40150000Y34606250D02*
X40150000Y34093750D01*
G75*
G02*
X39931250Y33875000I-218750J0D01*
G01*
X39493750Y33875000D01*
G75*
G02*
X39275000Y34093750I0J218750D01*
G01*
X39275000Y34606250D01*
G75*
G02*
X39493750Y34825000I218750J0D01*
G01*
X39931250Y34825000D01*
G75*
G02*
X40150000Y34606250I0J-218750D01*
G01*
G37*
%TD.AperFunction*%
%TA.AperFunction,SMDPad,CuDef*%
G36*
G01*
X41725000Y32106250D02*
X41725000Y31593750D01*
G75*
G02*
X41506250Y31375000I-218750J0D01*
G01*
X41068750Y31375000D01*
G75*
G02*
X40850000Y31593750I0J218750D01*
G01*
X40850000Y32106250D01*
G75*
G02*
X41068750Y32325000I218750J0D01*
G01*
X41506250Y32325000D01*
G75*
G02*
X41725000Y32106250I0J-218750D01*
G01*
G37*
%TD.AperFunction*%
%TA.AperFunction,SMDPad,CuDef*%
G36*
G01*
X40150000Y32106250D02*
X40150000Y31593750D01*
G75*
G02*
X39931250Y31375000I-218750J0D01*
G01*
X39493750Y31375000D01*
G75*
G02*
X39275000Y31593750I0J218750D01*
G01*
X39275000Y32106250D01*
G75*
G02*
X39493750Y32325000I218750J0D01*
G01*
X39931250Y32325000D01*
G75*
G02*
X40150000Y32106250I0J-218750D01*
G01*
G37*
%TD.AperFunction*%
%TA.AperFunction,SMDPad,CuDef*%
G36*
G01*
X40150000Y29556250D02*
X40150000Y29043750D01*
G75*
G02*
X39931250Y28825000I-218750J0D01*
G01*
X39493750Y28825000D01*
G75*
G02*
X39275000Y29043750I0J218750D01*
G01*
X39275000Y29556250D01*
G75*
G02*
X39493750Y29775000I218750J0D01*
G01*
X39931250Y29775000D01*
G75*
G02*
X40150000Y29556250I0J-218750D01*
G01*
G37*
%TD.AperFunction*%
%TA.AperFunction,SMDPad,CuDef*%
G36*
G01*
X41725000Y29556250D02*
X41725000Y29043750D01*
G75*
G02*
X41506250Y28825000I-218750J0D01*
G01*
X41068750Y28825000D01*
G75*
G02*
X40850000Y29043750I0J218750D01*
G01*
X40850000Y29556250D01*
G75*
G02*
X41068750Y29775000I218750J0D01*
G01*
X41506250Y29775000D01*
G75*
G02*
X41725000Y29556250I0J-218750D01*
G01*
G37*
%TD.AperFunction*%
%TA.AperFunction,SMDPad,CuDef*%
G36*
G01*
X41725000Y27006250D02*
X41725000Y26493750D01*
G75*
G02*
X41506250Y26275000I-218750J0D01*
G01*
X41068750Y26275000D01*
G75*
G02*
X40850000Y26493750I0J218750D01*
G01*
X40850000Y27006250D01*
G75*
G02*
X41068750Y27225000I218750J0D01*
G01*
X41506250Y27225000D01*
G75*
G02*
X41725000Y27006250I0J-218750D01*
G01*
G37*
%TD.AperFunction*%
%TA.AperFunction,SMDPad,CuDef*%
G36*
G01*
X40150000Y27006250D02*
X40150000Y26493750D01*
G75*
G02*
X39931250Y26275000I-218750J0D01*
G01*
X39493750Y26275000D01*
G75*
G02*
X39275000Y26493750I0J218750D01*
G01*
X39275000Y27006250D01*
G75*
G02*
X39493750Y27225000I218750J0D01*
G01*
X39931250Y27225000D01*
G75*
G02*
X40150000Y27006250I0J-218750D01*
G01*
G37*
%TD.AperFunction*%
%TA.AperFunction,SMDPad,CuDef*%
G36*
G01*
X40150000Y24456250D02*
X40150000Y23943750D01*
G75*
G02*
X39931250Y23725000I-218750J0D01*
G01*
X39493750Y23725000D01*
G75*
G02*
X39275000Y23943750I0J218750D01*
G01*
X39275000Y24456250D01*
G75*
G02*
X39493750Y24675000I218750J0D01*
G01*
X39931250Y24675000D01*
G75*
G02*
X40150000Y24456250I0J-218750D01*
G01*
G37*
%TD.AperFunction*%
%TA.AperFunction,SMDPad,CuDef*%
G36*
G01*
X41725000Y24456250D02*
X41725000Y23943750D01*
G75*
G02*
X41506250Y23725000I-218750J0D01*
G01*
X41068750Y23725000D01*
G75*
G02*
X40850000Y23943750I0J218750D01*
G01*
X40850000Y24456250D01*
G75*
G02*
X41068750Y24675000I218750J0D01*
G01*
X41506250Y24675000D01*
G75*
G02*
X41725000Y24456250I0J-218750D01*
G01*
G37*
%TD.AperFunction*%
%TA.AperFunction,SMDPad,CuDef*%
G36*
G01*
X41725000Y21906250D02*
X41725000Y21393750D01*
G75*
G02*
X41506250Y21175000I-218750J0D01*
G01*
X41068750Y21175000D01*
G75*
G02*
X40850000Y21393750I0J218750D01*
G01*
X40850000Y21906250D01*
G75*
G02*
X41068750Y22125000I218750J0D01*
G01*
X41506250Y22125000D01*
G75*
G02*
X41725000Y21906250I0J-218750D01*
G01*
G37*
%TD.AperFunction*%
%TA.AperFunction,SMDPad,CuDef*%
G36*
G01*
X40150000Y21906250D02*
X40150000Y21393750D01*
G75*
G02*
X39931250Y21175000I-218750J0D01*
G01*
X39493750Y21175000D01*
G75*
G02*
X39275000Y21393750I0J218750D01*
G01*
X39275000Y21906250D01*
G75*
G02*
X39493750Y22125000I218750J0D01*
G01*
X39931250Y22125000D01*
G75*
G02*
X40150000Y21906250I0J-218750D01*
G01*
G37*
%TD.AperFunction*%
%TA.AperFunction,SMDPad,CuDef*%
G36*
G01*
X40150000Y19356250D02*
X40150000Y18843750D01*
G75*
G02*
X39931250Y18625000I-218750J0D01*
G01*
X39493750Y18625000D01*
G75*
G02*
X39275000Y18843750I0J218750D01*
G01*
X39275000Y19356250D01*
G75*
G02*
X39493750Y19575000I218750J0D01*
G01*
X39931250Y19575000D01*
G75*
G02*
X40150000Y19356250I0J-218750D01*
G01*
G37*
%TD.AperFunction*%
%TA.AperFunction,SMDPad,CuDef*%
G36*
G01*
X41725000Y19356250D02*
X41725000Y18843750D01*
G75*
G02*
X41506250Y18625000I-218750J0D01*
G01*
X41068750Y18625000D01*
G75*
G02*
X40850000Y18843750I0J218750D01*
G01*
X40850000Y19356250D01*
G75*
G02*
X41068750Y19575000I218750J0D01*
G01*
X41506250Y19575000D01*
G75*
G02*
X41725000Y19356250I0J-218750D01*
G01*
G37*
%TD.AperFunction*%
%TA.AperFunction,SMDPad,CuDef*%
G36*
G01*
X41725000Y16856250D02*
X41725000Y16343750D01*
G75*
G02*
X41506250Y16125000I-218750J0D01*
G01*
X41068750Y16125000D01*
G75*
G02*
X40850000Y16343750I0J218750D01*
G01*
X40850000Y16856250D01*
G75*
G02*
X41068750Y17075000I218750J0D01*
G01*
X41506250Y17075000D01*
G75*
G02*
X41725000Y16856250I0J-218750D01*
G01*
G37*
%TD.AperFunction*%
%TA.AperFunction,SMDPad,CuDef*%
G36*
G01*
X40150000Y16856250D02*
X40150000Y16343750D01*
G75*
G02*
X39931250Y16125000I-218750J0D01*
G01*
X39493750Y16125000D01*
G75*
G02*
X39275000Y16343750I0J218750D01*
G01*
X39275000Y16856250D01*
G75*
G02*
X39493750Y17075000I218750J0D01*
G01*
X39931250Y17075000D01*
G75*
G02*
X40150000Y16856250I0J-218750D01*
G01*
G37*
%TD.AperFunction*%
%TA.AperFunction,SMDPad,CuDef*%
G36*
G01*
X53125000Y47418750D02*
X53125000Y47931250D01*
G75*
G02*
X53343750Y48150000I218750J0D01*
G01*
X53781250Y48150000D01*
G75*
G02*
X54000000Y47931250I0J-218750D01*
G01*
X54000000Y47418750D01*
G75*
G02*
X53781250Y47200000I-218750J0D01*
G01*
X53343750Y47200000D01*
G75*
G02*
X53125000Y47418750I0J218750D01*
G01*
G37*
%TD.AperFunction*%
%TA.AperFunction,SMDPad,CuDef*%
G36*
G01*
X51550000Y47418750D02*
X51550000Y47931250D01*
G75*
G02*
X51768750Y48150000I218750J0D01*
G01*
X52206250Y48150000D01*
G75*
G02*
X52425000Y47931250I0J-218750D01*
G01*
X52425000Y47418750D01*
G75*
G02*
X52206250Y47200000I-218750J0D01*
G01*
X51768750Y47200000D01*
G75*
G02*
X51550000Y47418750I0J218750D01*
G01*
G37*
%TD.AperFunction*%
%TA.AperFunction,SMDPad,CuDef*%
G36*
G01*
X15962500Y33650000D02*
X16437500Y33650000D01*
G75*
G02*
X16675000Y33412500I0J-237500D01*
G01*
X16675000Y32837500D01*
G75*
G02*
X16437500Y32600000I-237500J0D01*
G01*
X15962500Y32600000D01*
G75*
G02*
X15725000Y32837500I0J237500D01*
G01*
X15725000Y33412500D01*
G75*
G02*
X15962500Y33650000I237500J0D01*
G01*
G37*
%TD.AperFunction*%
%TA.AperFunction,SMDPad,CuDef*%
G36*
G01*
X15962500Y31900000D02*
X16437500Y31900000D01*
G75*
G02*
X16675000Y31662500I0J-237500D01*
G01*
X16675000Y31087500D01*
G75*
G02*
X16437500Y30850000I-237500J0D01*
G01*
X15962500Y30850000D01*
G75*
G02*
X15725000Y31087500I0J237500D01*
G01*
X15725000Y31662500D01*
G75*
G02*
X15962500Y31900000I237500J0D01*
G01*
G37*
%TD.AperFunction*%
%TA.AperFunction,SMDPad,CuDef*%
G36*
G01*
X33300000Y34512500D02*
X33300000Y34987500D01*
G75*
G02*
X33537500Y35225000I237500J0D01*
G01*
X34112500Y35225000D01*
G75*
G02*
X34350000Y34987500I0J-237500D01*
G01*
X34350000Y34512500D01*
G75*
G02*
X34112500Y34275000I-237500J0D01*
G01*
X33537500Y34275000D01*
G75*
G02*
X33300000Y34512500I0J237500D01*
G01*
G37*
%TD.AperFunction*%
%TA.AperFunction,SMDPad,CuDef*%
G36*
G01*
X35050000Y34512500D02*
X35050000Y34987500D01*
G75*
G02*
X35287500Y35225000I237500J0D01*
G01*
X35862500Y35225000D01*
G75*
G02*
X36100000Y34987500I0J-237500D01*
G01*
X36100000Y34512500D01*
G75*
G02*
X35862500Y34275000I-237500J0D01*
G01*
X35287500Y34275000D01*
G75*
G02*
X35050000Y34512500I0J237500D01*
G01*
G37*
%TD.AperFunction*%
%TA.AperFunction,SMDPad,CuDef*%
G36*
G01*
X33300000Y31512500D02*
X33300000Y31987500D01*
G75*
G02*
X33537500Y32225000I237500J0D01*
G01*
X34112500Y32225000D01*
G75*
G02*
X34350000Y31987500I0J-237500D01*
G01*
X34350000Y31512500D01*
G75*
G02*
X34112500Y31275000I-237500J0D01*
G01*
X33537500Y31275000D01*
G75*
G02*
X33300000Y31512500I0J237500D01*
G01*
G37*
%TD.AperFunction*%
%TA.AperFunction,SMDPad,CuDef*%
G36*
G01*
X35050000Y31512500D02*
X35050000Y31987500D01*
G75*
G02*
X35287500Y32225000I237500J0D01*
G01*
X35862500Y32225000D01*
G75*
G02*
X36100000Y31987500I0J-237500D01*
G01*
X36100000Y31512500D01*
G75*
G02*
X35862500Y31275000I-237500J0D01*
G01*
X35287500Y31275000D01*
G75*
G02*
X35050000Y31512500I0J237500D01*
G01*
G37*
%TD.AperFunction*%
%TA.AperFunction,SMDPad,CuDef*%
G36*
G01*
X35050000Y28512500D02*
X35050000Y28987500D01*
G75*
G02*
X35287500Y29225000I237500J0D01*
G01*
X35862500Y29225000D01*
G75*
G02*
X36100000Y28987500I0J-237500D01*
G01*
X36100000Y28512500D01*
G75*
G02*
X35862500Y28275000I-237500J0D01*
G01*
X35287500Y28275000D01*
G75*
G02*
X35050000Y28512500I0J237500D01*
G01*
G37*
%TD.AperFunction*%
%TA.AperFunction,SMDPad,CuDef*%
G36*
G01*
X33300000Y28512500D02*
X33300000Y28987500D01*
G75*
G02*
X33537500Y29225000I237500J0D01*
G01*
X34112500Y29225000D01*
G75*
G02*
X34350000Y28987500I0J-237500D01*
G01*
X34350000Y28512500D01*
G75*
G02*
X34112500Y28275000I-237500J0D01*
G01*
X33537500Y28275000D01*
G75*
G02*
X33300000Y28512500I0J237500D01*
G01*
G37*
%TD.AperFunction*%
%TA.AperFunction,SMDPad,CuDef*%
G36*
G01*
X33300000Y25512500D02*
X33300000Y25987500D01*
G75*
G02*
X33537500Y26225000I237500J0D01*
G01*
X34112500Y26225000D01*
G75*
G02*
X34350000Y25987500I0J-237500D01*
G01*
X34350000Y25512500D01*
G75*
G02*
X34112500Y25275000I-237500J0D01*
G01*
X33537500Y25275000D01*
G75*
G02*
X33300000Y25512500I0J237500D01*
G01*
G37*
%TD.AperFunction*%
%TA.AperFunction,SMDPad,CuDef*%
G36*
G01*
X35050000Y25512500D02*
X35050000Y25987500D01*
G75*
G02*
X35287500Y26225000I237500J0D01*
G01*
X35862500Y26225000D01*
G75*
G02*
X36100000Y25987500I0J-237500D01*
G01*
X36100000Y25512500D01*
G75*
G02*
X35862500Y25275000I-237500J0D01*
G01*
X35287500Y25275000D01*
G75*
G02*
X35050000Y25512500I0J237500D01*
G01*
G37*
%TD.AperFunction*%
%TA.AperFunction,SMDPad,CuDef*%
G36*
G01*
X35050000Y22512500D02*
X35050000Y22987500D01*
G75*
G02*
X35287500Y23225000I237500J0D01*
G01*
X35862500Y23225000D01*
G75*
G02*
X36100000Y22987500I0J-237500D01*
G01*
X36100000Y22512500D01*
G75*
G02*
X35862500Y22275000I-237500J0D01*
G01*
X35287500Y22275000D01*
G75*
G02*
X35050000Y22512500I0J237500D01*
G01*
G37*
%TD.AperFunction*%
%TA.AperFunction,SMDPad,CuDef*%
G36*
G01*
X33300000Y22512500D02*
X33300000Y22987500D01*
G75*
G02*
X33537500Y23225000I237500J0D01*
G01*
X34112500Y23225000D01*
G75*
G02*
X34350000Y22987500I0J-237500D01*
G01*
X34350000Y22512500D01*
G75*
G02*
X34112500Y22275000I-237500J0D01*
G01*
X33537500Y22275000D01*
G75*
G02*
X33300000Y22512500I0J237500D01*
G01*
G37*
%TD.AperFunction*%
%TA.AperFunction,SMDPad,CuDef*%
G36*
G01*
X33300000Y19512500D02*
X33300000Y19987500D01*
G75*
G02*
X33537500Y20225000I237500J0D01*
G01*
X34112500Y20225000D01*
G75*
G02*
X34350000Y19987500I0J-237500D01*
G01*
X34350000Y19512500D01*
G75*
G02*
X34112500Y19275000I-237500J0D01*
G01*
X33537500Y19275000D01*
G75*
G02*
X33300000Y19512500I0J237500D01*
G01*
G37*
%TD.AperFunction*%
%TA.AperFunction,SMDPad,CuDef*%
G36*
G01*
X35050000Y19512500D02*
X35050000Y19987500D01*
G75*
G02*
X35287500Y20225000I237500J0D01*
G01*
X35862500Y20225000D01*
G75*
G02*
X36100000Y19987500I0J-237500D01*
G01*
X36100000Y19512500D01*
G75*
G02*
X35862500Y19275000I-237500J0D01*
G01*
X35287500Y19275000D01*
G75*
G02*
X35050000Y19512500I0J237500D01*
G01*
G37*
%TD.AperFunction*%
%TA.AperFunction,SMDPad,CuDef*%
G36*
G01*
X35050000Y16512500D02*
X35050000Y16987500D01*
G75*
G02*
X35287500Y17225000I237500J0D01*
G01*
X35862500Y17225000D01*
G75*
G02*
X36100000Y16987500I0J-237500D01*
G01*
X36100000Y16512500D01*
G75*
G02*
X35862500Y16275000I-237500J0D01*
G01*
X35287500Y16275000D01*
G75*
G02*
X35050000Y16512500I0J237500D01*
G01*
G37*
%TD.AperFunction*%
%TA.AperFunction,SMDPad,CuDef*%
G36*
G01*
X33300000Y16512500D02*
X33300000Y16987500D01*
G75*
G02*
X33537500Y17225000I237500J0D01*
G01*
X34112500Y17225000D01*
G75*
G02*
X34350000Y16987500I0J-237500D01*
G01*
X34350000Y16512500D01*
G75*
G02*
X34112500Y16275000I-237500J0D01*
G01*
X33537500Y16275000D01*
G75*
G02*
X33300000Y16512500I0J237500D01*
G01*
G37*
%TD.AperFunction*%
%TA.AperFunction,SMDPad,CuDef*%
G36*
G01*
X33300000Y13512500D02*
X33300000Y13987500D01*
G75*
G02*
X33537500Y14225000I237500J0D01*
G01*
X34112500Y14225000D01*
G75*
G02*
X34350000Y13987500I0J-237500D01*
G01*
X34350000Y13512500D01*
G75*
G02*
X34112500Y13275000I-237500J0D01*
G01*
X33537500Y13275000D01*
G75*
G02*
X33300000Y13512500I0J237500D01*
G01*
G37*
%TD.AperFunction*%
%TA.AperFunction,SMDPad,CuDef*%
G36*
G01*
X35050000Y13512500D02*
X35050000Y13987500D01*
G75*
G02*
X35287500Y14225000I237500J0D01*
G01*
X35862500Y14225000D01*
G75*
G02*
X36100000Y13987500I0J-237500D01*
G01*
X36100000Y13512500D01*
G75*
G02*
X35862500Y13275000I-237500J0D01*
G01*
X35287500Y13275000D01*
G75*
G02*
X35050000Y13512500I0J237500D01*
G01*
G37*
%TD.AperFunction*%
%TA.AperFunction,SMDPad,CuDef*%
G36*
G01*
X42962500Y46350000D02*
X43437500Y46350000D01*
G75*
G02*
X43675000Y46112500I0J-237500D01*
G01*
X43675000Y45537500D01*
G75*
G02*
X43437500Y45300000I-237500J0D01*
G01*
X42962500Y45300000D01*
G75*
G02*
X42725000Y45537500I0J237500D01*
G01*
X42725000Y46112500D01*
G75*
G02*
X42962500Y46350000I237500J0D01*
G01*
G37*
%TD.AperFunction*%
%TA.AperFunction,SMDPad,CuDef*%
G36*
G01*
X42962500Y48100000D02*
X43437500Y48100000D01*
G75*
G02*
X43675000Y47862500I0J-237500D01*
G01*
X43675000Y47287500D01*
G75*
G02*
X43437500Y47050000I-237500J0D01*
G01*
X42962500Y47050000D01*
G75*
G02*
X42725000Y47287500I0J237500D01*
G01*
X42725000Y47862500D01*
G75*
G02*
X42962500Y48100000I237500J0D01*
G01*
G37*
%TD.AperFunction*%
%TA.AperFunction,SMDPad,CuDef*%
G36*
G01*
X41025000Y40687500D02*
X41025000Y40212500D01*
G75*
G02*
X40787500Y39975000I-237500J0D01*
G01*
X40212500Y39975000D01*
G75*
G02*
X39975000Y40212500I0J237500D01*
G01*
X39975000Y40687500D01*
G75*
G02*
X40212500Y40925000I237500J0D01*
G01*
X40787500Y40925000D01*
G75*
G02*
X41025000Y40687500I0J-237500D01*
G01*
G37*
%TD.AperFunction*%
%TA.AperFunction,SMDPad,CuDef*%
G36*
G01*
X42775000Y40687500D02*
X42775000Y40212500D01*
G75*
G02*
X42537500Y39975000I-237500J0D01*
G01*
X41962500Y39975000D01*
G75*
G02*
X41725000Y40212500I0J237500D01*
G01*
X41725000Y40687500D01*
G75*
G02*
X41962500Y40925000I237500J0D01*
G01*
X42537500Y40925000D01*
G75*
G02*
X42775000Y40687500I0J-237500D01*
G01*
G37*
%TD.AperFunction*%
D17*
X15350000Y29350000D03*
X14550000Y29350000D03*
X13750000Y29350000D03*
X12950000Y29350000D03*
X12150000Y29350000D03*
X11350000Y29350000D03*
X10550000Y29350000D03*
X9750000Y29350000D03*
D18*
X8300000Y27900000D03*
X8300000Y27100000D03*
X8300000Y26300000D03*
X8300000Y25500000D03*
X8300000Y24700000D03*
X8300000Y23900000D03*
X8300000Y23100000D03*
X8300000Y22300000D03*
D17*
X9750000Y20850000D03*
X10550000Y20850000D03*
X11350000Y20850000D03*
X12150000Y20850000D03*
X12950000Y20850000D03*
X13750000Y20850000D03*
X14550000Y20850000D03*
X15350000Y20850000D03*
D18*
X16800000Y22300000D03*
X16800000Y23100000D03*
X16800000Y23900000D03*
X16800000Y24700000D03*
X16800000Y25500000D03*
X16800000Y26300000D03*
X16800000Y27100000D03*
X16800000Y27900000D03*
D15*
X15500000Y18375000D03*
X15500000Y17725000D03*
X15500000Y17075000D03*
X15500000Y16425000D03*
X15500000Y15775000D03*
X15500000Y15125000D03*
X15500000Y14475000D03*
X15500000Y13825000D03*
X21400000Y13825000D03*
X21400000Y14475000D03*
X21400000Y15125000D03*
X21400000Y15775000D03*
X21400000Y16425000D03*
X21400000Y17075000D03*
X21400000Y17725000D03*
X21400000Y18375000D03*
D19*
X39550000Y42325000D03*
X40500000Y42325000D03*
X41450000Y42325000D03*
X41450000Y45025000D03*
X39550000Y45025000D03*
X40500000Y45025000D03*
D20*
X13940000Y42510000D03*
X8860000Y42510000D03*
X8860000Y38310000D03*
X13940000Y38310000D03*
%TA.AperFunction,SMDPad,CuDef*%
G36*
G01*
X34350000Y36487500D02*
X34350000Y36012500D01*
G75*
G02*
X34112500Y35775000I-237500J0D01*
G01*
X33537500Y35775000D01*
G75*
G02*
X33300000Y36012500I0J237500D01*
G01*
X33300000Y36487500D01*
G75*
G02*
X33537500Y36725000I237500J0D01*
G01*
X34112500Y36725000D01*
G75*
G02*
X34350000Y36487500I0J-237500D01*
G01*
G37*
%TD.AperFunction*%
%TA.AperFunction,SMDPad,CuDef*%
G36*
G01*
X36100000Y36487500D02*
X36100000Y36012500D01*
G75*
G02*
X35862500Y35775000I-237500J0D01*
G01*
X35287500Y35775000D01*
G75*
G02*
X35050000Y36012500I0J237500D01*
G01*
X35050000Y36487500D01*
G75*
G02*
X35287500Y36725000I237500J0D01*
G01*
X35862500Y36725000D01*
G75*
G02*
X36100000Y36487500I0J-237500D01*
G01*
G37*
%TD.AperFunction*%
%TA.AperFunction,SMDPad,CuDef*%
G36*
G01*
X36100000Y33487500D02*
X36100000Y33012500D01*
G75*
G02*
X35862500Y32775000I-237500J0D01*
G01*
X35287500Y32775000D01*
G75*
G02*
X35050000Y33012500I0J237500D01*
G01*
X35050000Y33487500D01*
G75*
G02*
X35287500Y33725000I237500J0D01*
G01*
X35862500Y33725000D01*
G75*
G02*
X36100000Y33487500I0J-237500D01*
G01*
G37*
%TD.AperFunction*%
%TA.AperFunction,SMDPad,CuDef*%
G36*
G01*
X34350000Y33487500D02*
X34350000Y33012500D01*
G75*
G02*
X34112500Y32775000I-237500J0D01*
G01*
X33537500Y32775000D01*
G75*
G02*
X33300000Y33012500I0J237500D01*
G01*
X33300000Y33487500D01*
G75*
G02*
X33537500Y33725000I237500J0D01*
G01*
X34112500Y33725000D01*
G75*
G02*
X34350000Y33487500I0J-237500D01*
G01*
G37*
%TD.AperFunction*%
%TA.AperFunction,SMDPad,CuDef*%
G36*
G01*
X36100000Y30487500D02*
X36100000Y30012500D01*
G75*
G02*
X35862500Y29775000I-237500J0D01*
G01*
X35287500Y29775000D01*
G75*
G02*
X35050000Y30012500I0J237500D01*
G01*
X35050000Y30487500D01*
G75*
G02*
X35287500Y30725000I237500J0D01*
G01*
X35862500Y30725000D01*
G75*
G02*
X36100000Y30487500I0J-237500D01*
G01*
G37*
%TD.AperFunction*%
%TA.AperFunction,SMDPad,CuDef*%
G36*
G01*
X34350000Y30487500D02*
X34350000Y30012500D01*
G75*
G02*
X34112500Y29775000I-237500J0D01*
G01*
X33537500Y29775000D01*
G75*
G02*
X33300000Y30012500I0J237500D01*
G01*
X33300000Y30487500D01*
G75*
G02*
X33537500Y30725000I237500J0D01*
G01*
X34112500Y30725000D01*
G75*
G02*
X34350000Y30487500I0J-237500D01*
G01*
G37*
%TD.AperFunction*%
%TA.AperFunction,SMDPad,CuDef*%
G36*
G01*
X34350000Y27487500D02*
X34350000Y27012500D01*
G75*
G02*
X34112500Y26775000I-237500J0D01*
G01*
X33537500Y26775000D01*
G75*
G02*
X33300000Y27012500I0J237500D01*
G01*
X33300000Y27487500D01*
G75*
G02*
X33537500Y27725000I237500J0D01*
G01*
X34112500Y27725000D01*
G75*
G02*
X34350000Y27487500I0J-237500D01*
G01*
G37*
%TD.AperFunction*%
%TA.AperFunction,SMDPad,CuDef*%
G36*
G01*
X36100000Y27487500D02*
X36100000Y27012500D01*
G75*
G02*
X35862500Y26775000I-237500J0D01*
G01*
X35287500Y26775000D01*
G75*
G02*
X35050000Y27012500I0J237500D01*
G01*
X35050000Y27487500D01*
G75*
G02*
X35287500Y27725000I237500J0D01*
G01*
X35862500Y27725000D01*
G75*
G02*
X36100000Y27487500I0J-237500D01*
G01*
G37*
%TD.AperFunction*%
%TA.AperFunction,SMDPad,CuDef*%
G36*
G01*
X36100000Y24487500D02*
X36100000Y24012500D01*
G75*
G02*
X35862500Y23775000I-237500J0D01*
G01*
X35287500Y23775000D01*
G75*
G02*
X35050000Y24012500I0J237500D01*
G01*
X35050000Y24487500D01*
G75*
G02*
X35287500Y24725000I237500J0D01*
G01*
X35862500Y24725000D01*
G75*
G02*
X36100000Y24487500I0J-237500D01*
G01*
G37*
%TD.AperFunction*%
%TA.AperFunction,SMDPad,CuDef*%
G36*
G01*
X34350000Y24487500D02*
X34350000Y24012500D01*
G75*
G02*
X34112500Y23775000I-237500J0D01*
G01*
X33537500Y23775000D01*
G75*
G02*
X33300000Y24012500I0J237500D01*
G01*
X33300000Y24487500D01*
G75*
G02*
X33537500Y24725000I237500J0D01*
G01*
X34112500Y24725000D01*
G75*
G02*
X34350000Y24487500I0J-237500D01*
G01*
G37*
%TD.AperFunction*%
%TA.AperFunction,SMDPad,CuDef*%
G36*
G01*
X36100000Y21487500D02*
X36100000Y21012500D01*
G75*
G02*
X35862500Y20775000I-237500J0D01*
G01*
X35287500Y20775000D01*
G75*
G02*
X35050000Y21012500I0J237500D01*
G01*
X35050000Y21487500D01*
G75*
G02*
X35287500Y21725000I237500J0D01*
G01*
X35862500Y21725000D01*
G75*
G02*
X36100000Y21487500I0J-237500D01*
G01*
G37*
%TD.AperFunction*%
%TA.AperFunction,SMDPad,CuDef*%
G36*
G01*
X34350000Y21487500D02*
X34350000Y21012500D01*
G75*
G02*
X34112500Y20775000I-237500J0D01*
G01*
X33537500Y20775000D01*
G75*
G02*
X33300000Y21012500I0J237500D01*
G01*
X33300000Y21487500D01*
G75*
G02*
X33537500Y21725000I237500J0D01*
G01*
X34112500Y21725000D01*
G75*
G02*
X34350000Y21487500I0J-237500D01*
G01*
G37*
%TD.AperFunction*%
%TA.AperFunction,SMDPad,CuDef*%
G36*
G01*
X34350000Y18487500D02*
X34350000Y18012500D01*
G75*
G02*
X34112500Y17775000I-237500J0D01*
G01*
X33537500Y17775000D01*
G75*
G02*
X33300000Y18012500I0J237500D01*
G01*
X33300000Y18487500D01*
G75*
G02*
X33537500Y18725000I237500J0D01*
G01*
X34112500Y18725000D01*
G75*
G02*
X34350000Y18487500I0J-237500D01*
G01*
G37*
%TD.AperFunction*%
%TA.AperFunction,SMDPad,CuDef*%
G36*
G01*
X36100000Y18487500D02*
X36100000Y18012500D01*
G75*
G02*
X35862500Y17775000I-237500J0D01*
G01*
X35287500Y17775000D01*
G75*
G02*
X35050000Y18012500I0J237500D01*
G01*
X35050000Y18487500D01*
G75*
G02*
X35287500Y18725000I237500J0D01*
G01*
X35862500Y18725000D01*
G75*
G02*
X36100000Y18487500I0J-237500D01*
G01*
G37*
%TD.AperFunction*%
%TA.AperFunction,SMDPad,CuDef*%
G36*
G01*
X36100000Y15487500D02*
X36100000Y15012500D01*
G75*
G02*
X35862500Y14775000I-237500J0D01*
G01*
X35287500Y14775000D01*
G75*
G02*
X35050000Y15012500I0J237500D01*
G01*
X35050000Y15487500D01*
G75*
G02*
X35287500Y15725000I237500J0D01*
G01*
X35862500Y15725000D01*
G75*
G02*
X36100000Y15487500I0J-237500D01*
G01*
G37*
%TD.AperFunction*%
%TA.AperFunction,SMDPad,CuDef*%
G36*
G01*
X34350000Y15487500D02*
X34350000Y15012500D01*
G75*
G02*
X34112500Y14775000I-237500J0D01*
G01*
X33537500Y14775000D01*
G75*
G02*
X33300000Y15012500I0J237500D01*
G01*
X33300000Y15487500D01*
G75*
G02*
X33537500Y15725000I237500J0D01*
G01*
X34112500Y15725000D01*
G75*
G02*
X34350000Y15487500I0J-237500D01*
G01*
G37*
%TD.AperFunction*%
%TA.AperFunction,SMDPad,CuDef*%
G36*
G01*
X32750000Y44162500D02*
X32750000Y43687500D01*
G75*
G02*
X32512500Y43450000I-237500J0D01*
G01*
X31937500Y43450000D01*
G75*
G02*
X31700000Y43687500I0J237500D01*
G01*
X31700000Y44162500D01*
G75*
G02*
X31937500Y44400000I237500J0D01*
G01*
X32512500Y44400000D01*
G75*
G02*
X32750000Y44162500I0J-237500D01*
G01*
G37*
%TD.AperFunction*%
%TA.AperFunction,SMDPad,CuDef*%
G36*
G01*
X34500000Y44162500D02*
X34500000Y43687500D01*
G75*
G02*
X34262500Y43450000I-237500J0D01*
G01*
X33687500Y43450000D01*
G75*
G02*
X33450000Y43687500I0J237500D01*
G01*
X33450000Y44162500D01*
G75*
G02*
X33687500Y44400000I237500J0D01*
G01*
X34262500Y44400000D01*
G75*
G02*
X34500000Y44162500I0J-237500D01*
G01*
G37*
%TD.AperFunction*%
%TA.AperFunction,SMDPad,CuDef*%
G36*
G01*
X29787500Y46200000D02*
X30262500Y46200000D01*
G75*
G02*
X30500000Y45962500I0J-237500D01*
G01*
X30500000Y45387500D01*
G75*
G02*
X30262500Y45150000I-237500J0D01*
G01*
X29787500Y45150000D01*
G75*
G02*
X29550000Y45387500I0J237500D01*
G01*
X29550000Y45962500D01*
G75*
G02*
X29787500Y46200000I237500J0D01*
G01*
G37*
%TD.AperFunction*%
%TA.AperFunction,SMDPad,CuDef*%
G36*
G01*
X29787500Y44450000D02*
X30262500Y44450000D01*
G75*
G02*
X30500000Y44212500I0J-237500D01*
G01*
X30500000Y43637500D01*
G75*
G02*
X30262500Y43400000I-237500J0D01*
G01*
X29787500Y43400000D01*
G75*
G02*
X29550000Y43637500I0J237500D01*
G01*
X29550000Y44212500D01*
G75*
G02*
X29787500Y44450000I237500J0D01*
G01*
G37*
%TD.AperFunction*%
D21*
X30025000Y47400000D03*
X32375000Y47400000D03*
%TA.AperFunction,SMDPad,CuDef*%
G36*
G01*
X39975000Y38637500D02*
X39975000Y39112500D01*
G75*
G02*
X40212500Y39350000I237500J0D01*
G01*
X40787500Y39350000D01*
G75*
G02*
X41025000Y39112500I0J-237500D01*
G01*
X41025000Y38637500D01*
G75*
G02*
X40787500Y38400000I-237500J0D01*
G01*
X40212500Y38400000D01*
G75*
G02*
X39975000Y38637500I0J237500D01*
G01*
G37*
%TD.AperFunction*%
%TA.AperFunction,SMDPad,CuDef*%
G36*
G01*
X41725000Y38637500D02*
X41725000Y39112500D01*
G75*
G02*
X41962500Y39350000I237500J0D01*
G01*
X42537500Y39350000D01*
G75*
G02*
X42775000Y39112500I0J-237500D01*
G01*
X42775000Y38637500D01*
G75*
G02*
X42537500Y38400000I-237500J0D01*
G01*
X41962500Y38400000D01*
G75*
G02*
X41725000Y38637500I0J237500D01*
G01*
G37*
%TD.AperFunction*%
X54500000Y45875000D03*
X52150000Y45875000D03*
%TA.AperFunction,SMDPad,CuDef*%
G36*
G01*
X53625000Y42525000D02*
X53625000Y43025000D01*
G75*
G02*
X53875000Y43275000I250000J0D01*
G01*
X55375000Y43275000D01*
G75*
G02*
X55625000Y43025000I0J-250000D01*
G01*
X55625000Y42525000D01*
G75*
G02*
X55375000Y42275000I-250000J0D01*
G01*
X53875000Y42275000D01*
G75*
G02*
X53625000Y42525000I0J250000D01*
G01*
G37*
%TD.AperFunction*%
%TA.AperFunction,SMDPad,CuDef*%
G36*
G01*
X53625000Y39925000D02*
X53625000Y40425000D01*
G75*
G02*
X53875000Y40675000I250000J0D01*
G01*
X55375000Y40675000D01*
G75*
G02*
X55625000Y40425000I0J-250000D01*
G01*
X55625000Y39925000D01*
G75*
G02*
X55375000Y39675000I-250000J0D01*
G01*
X53875000Y39675000D01*
G75*
G02*
X53625000Y39925000I0J250000D01*
G01*
G37*
%TD.AperFunction*%
D13*
X46875000Y37685000D03*
X46875000Y40225000D03*
X46875000Y42765000D03*
%TA.AperFunction,SMDPad,CuDef*%
G36*
G01*
X47637500Y6525000D02*
X47162500Y6525000D01*
G75*
G02*
X46925000Y6762500I0J237500D01*
G01*
X46925000Y7337500D01*
G75*
G02*
X47162500Y7575000I237500J0D01*
G01*
X47637500Y7575000D01*
G75*
G02*
X47875000Y7337500I0J-237500D01*
G01*
X47875000Y6762500D01*
G75*
G02*
X47637500Y6525000I-237500J0D01*
G01*
G37*
%TD.AperFunction*%
%TA.AperFunction,SMDPad,CuDef*%
G36*
G01*
X47637500Y8275000D02*
X47162500Y8275000D01*
G75*
G02*
X46925000Y8512500I0J237500D01*
G01*
X46925000Y9087500D01*
G75*
G02*
X47162500Y9325000I237500J0D01*
G01*
X47637500Y9325000D01*
G75*
G02*
X47875000Y9087500I0J-237500D01*
G01*
X47875000Y8512500D01*
G75*
G02*
X47637500Y8275000I-237500J0D01*
G01*
G37*
%TD.AperFunction*%
%TA.AperFunction,SMDPad,CuDef*%
G36*
G01*
X48450000Y6812500D02*
X48450000Y7287500D01*
G75*
G02*
X48687500Y7525000I237500J0D01*
G01*
X49262500Y7525000D01*
G75*
G02*
X49500000Y7287500I0J-237500D01*
G01*
X49500000Y6812500D01*
G75*
G02*
X49262500Y6575000I-237500J0D01*
G01*
X48687500Y6575000D01*
G75*
G02*
X48450000Y6812500I0J237500D01*
G01*
G37*
%TD.AperFunction*%
%TA.AperFunction,SMDPad,CuDef*%
G36*
G01*
X50200000Y6812500D02*
X50200000Y7287500D01*
G75*
G02*
X50437500Y7525000I237500J0D01*
G01*
X51012500Y7525000D01*
G75*
G02*
X51250000Y7287500I0J-237500D01*
G01*
X51250000Y6812500D01*
G75*
G02*
X51012500Y6575000I-237500J0D01*
G01*
X50437500Y6575000D01*
G75*
G02*
X50200000Y6812500I0J237500D01*
G01*
G37*
%TD.AperFunction*%
D22*
X16800000Y37300000D03*
X23850000Y12500006D03*
X11325000Y18900000D03*
X40400000Y8800000D03*
D23*
X11475000Y43400000D03*
D22*
X24025000Y16425000D03*
X25600000Y48000000D03*
X25600000Y48900000D03*
X26500000Y48000000D03*
X25600000Y47100000D03*
X26500000Y48900000D03*
X26525000Y47100000D03*
X55100000Y34600000D03*
X55100000Y13800000D03*
X53950000Y40175000D03*
X55225000Y40175000D03*
X31500000Y41850000D03*
D23*
X48475000Y45075000D03*
X46625000Y45075000D03*
X36600000Y13750000D03*
X36600000Y16750000D03*
X36600000Y19750000D03*
X36600000Y22750000D03*
X36600000Y25750000D03*
X36600000Y28750000D03*
X36600000Y31750000D03*
X36600000Y34750000D03*
X24275000Y32850000D03*
X20450000Y37450000D03*
D22*
X12950000Y22275000D03*
X23250000Y18675000D03*
X21700000Y12500000D03*
X39900000Y40450000D03*
X12000000Y32075000D03*
X13550000Y17050000D03*
X47400000Y10625000D03*
X31500000Y41000000D03*
X26400000Y900000D03*
X44000000Y800000D03*
X20450000Y20925000D03*
X13450000Y23300000D03*
X11750000Y23500000D03*
X14900000Y23150000D03*
X26800000Y38100000D03*
X15250000Y24700000D03*
X28475000Y40025000D03*
X11250000Y24450000D03*
X38400000Y5750000D03*
X10300000Y23100000D03*
X10300000Y4700000D03*
X36400000Y4700000D03*
X17475000Y28532612D03*
X17450000Y29975000D03*
X12249998Y27700000D03*
X11350000Y26499980D03*
X52650000Y45875000D03*
X55225000Y42775000D03*
X54250000Y42775000D03*
X17300000Y20850000D03*
X28600000Y7050000D03*
X1900000Y41000000D03*
X49400000Y9050000D03*
D24*
X21400000Y16425000D02*
X23250000Y16425000D01*
X21400000Y15775000D02*
X21400000Y16425000D01*
D25*
X24850000Y16425000D02*
X24025000Y16425000D01*
D26*
X28025000Y34175000D02*
X28050000Y34200000D01*
X28050000Y36800000D02*
X28050000Y36475000D01*
X28050000Y36475000D02*
X28050000Y36150000D01*
D27*
X23125006Y12500006D02*
X23125000Y12500000D01*
X23850000Y12500006D02*
X23125006Y12500006D01*
D24*
X23125000Y12824990D02*
X23125000Y12500000D01*
X23125000Y12824990D02*
X23048879Y13207674D01*
X23048879Y13207674D02*
X22832106Y13532097D01*
X22832106Y13532097D02*
X22507683Y13748870D01*
X22507683Y13748870D02*
X22125000Y13824990D01*
X22125000Y13824990D02*
X21400000Y13824990D01*
D25*
X24025000Y16425000D02*
X23250000Y16425000D01*
D27*
X10575000Y18900000D02*
X10550000Y18875000D01*
X11350000Y18900000D02*
X10575000Y18900000D01*
X12125000Y18900000D02*
X12150000Y18875000D01*
X11350000Y18900000D02*
X12125000Y18900000D01*
D25*
X10550000Y20850000D02*
X10550000Y18875000D01*
X12150000Y20850000D02*
X12150000Y18875000D01*
X13303553Y31178554D02*
X13725000Y31600000D01*
X13303553Y31178554D02*
X13262699Y31135645D01*
X13262699Y31135645D02*
X13224000Y31090782D01*
X13224000Y31090782D02*
X13187548Y31044074D01*
X13187548Y31044074D02*
X13153433Y30995634D01*
X13153433Y30995634D02*
X13121736Y30945578D01*
X13121736Y30945578D02*
X13092533Y30894027D01*
X13092533Y30894027D02*
X13065894Y30841106D01*
X13065894Y30841106D02*
X13041885Y30786941D01*
X13041885Y30786941D02*
X13020562Y30731663D01*
X13020562Y30731663D02*
X13001977Y30675405D01*
X13001977Y30675405D02*
X12986175Y30618304D01*
X12986175Y30618304D02*
X12973193Y30560496D01*
X12973193Y30560496D02*
X12963064Y30502120D01*
X12963064Y30502120D02*
X12955812Y30443318D01*
X12955812Y30443318D02*
X12951453Y30384230D01*
X12951453Y30384230D02*
X12950000Y30325000D01*
X12950000Y30325000D02*
X12950000Y29350000D01*
D28*
X13345000Y37715000D02*
X13940000Y38310000D01*
X13345000Y36300000D02*
X13345000Y37715000D01*
D24*
X22575000Y37450000D02*
X24750000Y37450000D01*
D25*
X12150000Y31425000D02*
X11975000Y31600000D01*
X12150000Y29350000D02*
X12150000Y31425000D01*
D28*
X36600000Y34750000D02*
X35575000Y34750000D01*
X36600000Y31750000D02*
X35575000Y31750000D01*
X36600000Y28750000D02*
X35575000Y28750000D01*
X36600000Y25750000D02*
X35575000Y25750000D01*
X36600000Y22750000D02*
X35575000Y22750000D01*
X36600000Y19750000D02*
X35575000Y19750000D01*
X36600000Y16750000D02*
X35575000Y16750000D01*
X36600000Y13750000D02*
X35575000Y13750000D01*
D24*
X22150000Y38100000D02*
X22150000Y38750000D01*
X22150000Y36800000D02*
X22150000Y36150000D01*
D29*
X10550000Y17125000D02*
X12150000Y17125000D01*
D24*
X15500000Y15775000D02*
X15500000Y16425000D01*
D27*
X23275000Y18150000D02*
X23250000Y18175000D01*
X24050000Y18150000D02*
X23275000Y18150000D01*
X24825000Y18150000D02*
X24850000Y18175000D01*
X24050000Y18150000D02*
X24825000Y18150000D01*
D25*
X12950000Y20850000D02*
X12950000Y22275000D01*
D30*
X40500000Y42325000D02*
X40500000Y40450000D01*
D31*
X39900000Y40450000D02*
X40500000Y40450000D01*
D29*
X10887893Y40482107D02*
X8860000Y42510000D01*
X10887893Y40482107D02*
X10969600Y40396287D01*
X10969600Y40396287D02*
X11046998Y40306562D01*
X11046998Y40306562D02*
X11119900Y40213146D01*
X11119900Y40213146D02*
X11188131Y40116266D01*
X11188131Y40116266D02*
X11251526Y40016154D01*
X11251526Y40016154D02*
X11309932Y39913053D01*
X11309932Y39913053D02*
X11363209Y39807210D01*
X11363209Y39807210D02*
X11411228Y39698880D01*
X11411228Y39698880D02*
X11453874Y39588325D01*
X11453874Y39588325D02*
X11491044Y39475810D01*
X11491044Y39475810D02*
X11522648Y39361607D01*
X11522648Y39361607D02*
X11548611Y39245990D01*
X11548611Y39245990D02*
X11568869Y39129239D01*
X11568869Y39129239D02*
X11583374Y39011635D01*
X11583374Y39011635D02*
X11592091Y38893460D01*
X11592091Y38893460D02*
X11595000Y38775000D01*
X11595000Y38775000D02*
X11595000Y36300000D01*
X13550000Y17050000D02*
X12225000Y17050000D01*
X12225000Y17050000D02*
X12150000Y17125000D01*
X47400000Y8800000D02*
X47400000Y10625000D01*
D32*
X18525000Y25500000D02*
X18700000Y25675000D01*
X16800000Y25500000D02*
X18525000Y25500000D01*
D26*
X18700000Y25675000D02*
X18375000Y25675000D01*
X18375000Y30375000D02*
X18375000Y25675000D01*
X18375000Y30375000D02*
X18370184Y30473018D01*
X18370184Y30473018D02*
X18355785Y30570091D01*
X18355785Y30570091D02*
X18331940Y30665285D01*
X18331940Y30665285D02*
X18298879Y30757684D01*
X18298879Y30757684D02*
X18256921Y30846397D01*
X18256921Y30846397D02*
X18206469Y30930571D01*
X18206469Y30930571D02*
X18148010Y31009394D01*
X18148010Y31009394D02*
X18082106Y31082107D01*
X18082106Y31082107D02*
X18009393Y31148011D01*
X18009393Y31148011D02*
X17930570Y31206470D01*
X17930570Y31206470D02*
X17846396Y31256922D01*
X17846396Y31256922D02*
X17757683Y31298880D01*
X17757683Y31298880D02*
X17665284Y31331941D01*
X17665284Y31331941D02*
X17570090Y31355786D01*
X17570090Y31355786D02*
X17473017Y31370185D01*
X17473017Y31370185D02*
X17375000Y31375000D01*
X17375000Y31375000D02*
X16200000Y31375000D01*
D25*
X20450000Y25675000D02*
X20450000Y20925000D01*
D27*
X49437500Y47687500D02*
X49425000Y47700000D01*
X52025000Y47687500D02*
X49437500Y47687500D01*
X46750000Y47700000D02*
X46625000Y47575000D01*
X49425000Y47700000D02*
X46750000Y47700000D01*
X45025000Y47575000D02*
X46625000Y47575000D01*
D33*
X45025000Y47575000D02*
X43200000Y47575000D01*
X43260000Y34350000D02*
X43250000Y34360000D01*
X43240000Y34350000D02*
X43250000Y34360000D01*
X41287500Y34350000D02*
X43240000Y34350000D01*
X46800000Y32200000D02*
X48250000Y32200000D01*
X46800000Y32200000D02*
X46740770Y32201455D01*
X46740770Y32201455D02*
X46681682Y32205813D01*
X46681682Y32205813D02*
X46622880Y32213066D01*
X46622880Y32213066D02*
X46564504Y32223195D01*
X46564504Y32223195D02*
X46506696Y32236176D01*
X46506696Y32236176D02*
X46449595Y32251978D01*
X46449595Y32251978D02*
X46393337Y32270563D01*
X46393337Y32270563D02*
X46338059Y32291886D01*
X46338059Y32291886D02*
X46283894Y32315896D01*
X46283894Y32315896D02*
X46230973Y32342534D01*
X46230973Y32342534D02*
X46179422Y32371737D01*
X46179422Y32371737D02*
X46129366Y32403435D01*
X46129366Y32403435D02*
X46080926Y32437550D01*
X46080926Y32437550D02*
X46034218Y32474001D01*
X46034218Y32474001D02*
X45989355Y32512700D01*
X45989355Y32512700D02*
X45946446Y32553554D01*
X43650000Y34350000D02*
X43260000Y34350000D01*
X43650000Y34350000D02*
X43709229Y34348546D01*
X43709229Y34348546D02*
X43768317Y34344188D01*
X43768317Y34344188D02*
X43827119Y34336935D01*
X43827119Y34336935D02*
X43885494Y34326806D01*
X43885494Y34326806D02*
X43943302Y34313825D01*
X43943302Y34313825D02*
X44000404Y34298023D01*
X44000404Y34298023D02*
X44056661Y34279438D01*
X44056661Y34279438D02*
X44111939Y34258115D01*
X44111939Y34258115D02*
X44166104Y34234105D01*
X44166104Y34234105D02*
X44219025Y34207467D01*
X44219025Y34207467D02*
X44270576Y34178264D01*
X44270576Y34178264D02*
X44320632Y34146566D01*
X44320632Y34146566D02*
X44369072Y34112451D01*
X44369072Y34112451D02*
X44415779Y34076000D01*
X44415779Y34076000D02*
X44460642Y34037301D01*
X44460642Y34037301D02*
X44503553Y33996447D01*
X44503553Y33996447D02*
X45946446Y32553554D01*
D27*
X39750000Y35250000D02*
X39750000Y34350000D01*
X39750000Y35250000D02*
X39673879Y35632684D01*
X39673879Y35632684D02*
X39457106Y35957107D01*
X39457106Y35957107D02*
X39132683Y36173880D01*
X39132683Y36173880D02*
X38750000Y36250000D01*
X38750000Y36250000D02*
X35575000Y36250000D01*
D33*
X43220000Y31850000D02*
X43250000Y31820000D01*
X41287500Y31850000D02*
X43220000Y31850000D01*
X44080000Y31820000D02*
X43250000Y31820000D01*
X44080000Y31820000D02*
X44139229Y31818546D01*
X44139229Y31818546D02*
X44198317Y31814188D01*
X44198317Y31814188D02*
X44257119Y31806935D01*
X44257119Y31806935D02*
X44315494Y31796806D01*
X44315494Y31796806D02*
X44373302Y31783825D01*
X44373302Y31783825D02*
X44430404Y31768023D01*
X44430404Y31768023D02*
X44486661Y31749438D01*
X44486661Y31749438D02*
X44541939Y31728115D01*
X44541939Y31728115D02*
X44596104Y31704105D01*
X44596104Y31704105D02*
X44649025Y31677467D01*
X44649025Y31677467D02*
X44700576Y31648264D01*
X44700576Y31648264D02*
X44750632Y31616566D01*
X44750632Y31616566D02*
X44799072Y31582451D01*
X44799072Y31582451D02*
X44845779Y31546000D01*
X44845779Y31546000D02*
X44890642Y31507301D01*
X44890642Y31507301D02*
X44933553Y31466447D01*
X46700000Y30200000D02*
X48250000Y30200000D01*
X46700000Y30200000D02*
X46640770Y30201455D01*
X46640770Y30201455D02*
X46581682Y30205813D01*
X46581682Y30205813D02*
X46522880Y30213066D01*
X46522880Y30213066D02*
X46464504Y30223195D01*
X46464504Y30223195D02*
X46406696Y30236176D01*
X46406696Y30236176D02*
X46349595Y30251978D01*
X46349595Y30251978D02*
X46293337Y30270563D01*
X46293337Y30270563D02*
X46238059Y30291886D01*
X46238059Y30291886D02*
X46183894Y30315896D01*
X46183894Y30315896D02*
X46130973Y30342534D01*
X46130973Y30342534D02*
X46079422Y30371737D01*
X46079422Y30371737D02*
X46029366Y30403435D01*
X46029366Y30403435D02*
X45980926Y30437550D01*
X45980926Y30437550D02*
X45934218Y30474001D01*
X45934218Y30474001D02*
X45889355Y30512700D01*
X45889355Y30512700D02*
X45846446Y30553554D01*
X45846446Y30553554D02*
X44933553Y31466447D01*
D27*
X39650000Y31900000D02*
X39712500Y31900000D01*
X37300000Y33250000D02*
X35575000Y33250000D01*
X37300000Y33250000D02*
X37770989Y33203612D01*
X37770989Y33203612D02*
X38223878Y33066230D01*
X38223878Y33066230D02*
X38641264Y32843132D01*
X38641264Y32843132D02*
X39007106Y32542894D01*
X39007106Y32542894D02*
X39650000Y31900000D01*
X39469606Y29542894D02*
X39712500Y29300000D01*
X39469606Y29542894D02*
X39103765Y29843134D01*
X39103765Y29843134D02*
X38686379Y30066231D01*
X38686379Y30066231D02*
X38233489Y30203614D01*
X38233489Y30203614D02*
X37762500Y30250000D01*
X37762500Y30250000D02*
X35575000Y30250000D01*
D33*
X43270000Y29300000D02*
X43250000Y29280000D01*
X43230000Y29300000D02*
X43250000Y29280000D01*
X41287500Y29300000D02*
X43230000Y29300000D01*
X43850000Y29300000D02*
X43270000Y29300000D01*
X43850000Y29300000D02*
X43909229Y29298546D01*
X43909229Y29298546D02*
X43968317Y29294188D01*
X43968317Y29294188D02*
X44027119Y29286935D01*
X44027119Y29286935D02*
X44085494Y29276806D01*
X44085494Y29276806D02*
X44143302Y29263825D01*
X44143302Y29263825D02*
X44200404Y29248023D01*
X44200404Y29248023D02*
X44256661Y29229438D01*
X44256661Y29229438D02*
X44311939Y29208115D01*
X44311939Y29208115D02*
X44366104Y29184105D01*
X44366104Y29184105D02*
X44419025Y29157467D01*
X44419025Y29157467D02*
X44470576Y29128264D01*
X44470576Y29128264D02*
X44520632Y29096566D01*
X44520632Y29096566D02*
X44569072Y29062451D01*
X44569072Y29062451D02*
X44615779Y29026000D01*
X44615779Y29026000D02*
X44660642Y28987301D01*
X44660642Y28987301D02*
X44703553Y28946447D01*
X45950000Y28200000D02*
X48250000Y28200000D01*
X45950000Y28200000D02*
X45890770Y28201455D01*
X45890770Y28201455D02*
X45831682Y28205813D01*
X45831682Y28205813D02*
X45772880Y28213066D01*
X45772880Y28213066D02*
X45714504Y28223195D01*
X45714504Y28223195D02*
X45656696Y28236176D01*
X45656696Y28236176D02*
X45599595Y28251978D01*
X45599595Y28251978D02*
X45543337Y28270563D01*
X45543337Y28270563D02*
X45488059Y28291886D01*
X45488059Y28291886D02*
X45433894Y28315896D01*
X45433894Y28315896D02*
X45380973Y28342534D01*
X45380973Y28342534D02*
X45329422Y28371737D01*
X45329422Y28371737D02*
X45279366Y28403435D01*
X45279366Y28403435D02*
X45230926Y28437550D01*
X45230926Y28437550D02*
X45184218Y28474001D01*
X45184218Y28474001D02*
X45139355Y28512700D01*
X45139355Y28512700D02*
X45096446Y28553554D01*
X45096446Y28553554D02*
X44703553Y28946447D01*
X43790000Y26200000D02*
X43250000Y26740000D01*
X48250000Y26200000D02*
X43790000Y26200000D01*
X43240000Y26750000D02*
X43250000Y26740000D01*
X41287500Y26750000D02*
X43240000Y26750000D01*
D27*
X39566053Y26896447D02*
X39712500Y26750000D01*
X39566053Y26896447D02*
X39383132Y27046567D01*
X39383132Y27046567D02*
X39174439Y27158116D01*
X39174439Y27158116D02*
X38947994Y27226807D01*
X38947994Y27226807D02*
X38712500Y27250000D01*
X38712500Y27250000D02*
X35575000Y27250000D01*
X39662500Y24250000D02*
X39712500Y24200000D01*
X35575000Y24250000D02*
X39662500Y24250000D01*
D33*
X48250000Y24200000D02*
X43250000Y24200000D01*
X41287500Y24200000D02*
X43250000Y24200000D01*
X43790000Y22200000D02*
X43250000Y21660000D01*
X48250000Y22200000D02*
X43790000Y22200000D01*
X43240000Y21650000D02*
X43250000Y21660000D01*
X41287500Y21650000D02*
X43240000Y21650000D01*
D27*
X39666053Y21603554D02*
X39712500Y21650000D01*
X39666053Y21603554D02*
X39483132Y21453435D01*
X39483132Y21453435D02*
X39274439Y21341887D01*
X39274439Y21341887D02*
X39047994Y21273195D01*
X39047994Y21273195D02*
X38812500Y21250000D01*
X38812500Y21250000D02*
X35575000Y21250000D01*
X39569606Y18957107D02*
X39712500Y19100000D01*
X39569606Y18957107D02*
X39203764Y18656870D01*
X39203764Y18656870D02*
X38786378Y18433772D01*
X38786378Y18433772D02*
X38333489Y18296389D01*
X38333489Y18296389D02*
X37862500Y18250000D01*
X37862500Y18250000D02*
X35575000Y18250000D01*
D33*
X43280000Y19150000D02*
X43250000Y19120000D01*
X43230000Y19100000D02*
X43250000Y19120000D01*
X41287500Y19100000D02*
X43230000Y19100000D01*
X44100000Y19150000D02*
X43280000Y19150000D01*
X44100000Y19150000D02*
X44159229Y19151455D01*
X44159229Y19151455D02*
X44218317Y19155813D01*
X44218317Y19155813D02*
X44277119Y19163066D01*
X44277119Y19163066D02*
X44335494Y19173195D01*
X44335494Y19173195D02*
X44393302Y19186176D01*
X44393302Y19186176D02*
X44450404Y19201979D01*
X44450404Y19201979D02*
X44506661Y19220564D01*
X44506661Y19220564D02*
X44561939Y19241887D01*
X44561939Y19241887D02*
X44616104Y19265896D01*
X44616104Y19265896D02*
X44669025Y19292535D01*
X44669025Y19292535D02*
X44720576Y19321738D01*
X44720576Y19321738D02*
X44770632Y19353435D01*
X44770632Y19353435D02*
X44819072Y19387551D01*
X44819072Y19387551D02*
X44865779Y19424002D01*
X44865779Y19424002D02*
X44910642Y19462701D01*
X44910642Y19462701D02*
X44953553Y19503554D01*
X46150000Y20200000D02*
X48250000Y20200000D01*
X46150000Y20200000D02*
X46090770Y20198547D01*
X46090770Y20198547D02*
X46031682Y20194188D01*
X46031682Y20194188D02*
X45972880Y20186936D01*
X45972880Y20186936D02*
X45914504Y20176807D01*
X45914504Y20176807D02*
X45856696Y20163825D01*
X45856696Y20163825D02*
X45799595Y20148023D01*
X45799595Y20148023D02*
X45743337Y20129438D01*
X45743337Y20129438D02*
X45688059Y20108115D01*
X45688059Y20108115D02*
X45633894Y20084106D01*
X45633894Y20084106D02*
X45580973Y20057467D01*
X45580973Y20057467D02*
X45529422Y20028264D01*
X45529422Y20028264D02*
X45479366Y19996567D01*
X45479366Y19996567D02*
X45430926Y19962452D01*
X45430926Y19962452D02*
X45384218Y19926000D01*
X45384218Y19926000D02*
X45339355Y19887301D01*
X45339355Y19887301D02*
X45296446Y19846447D01*
X45296446Y19846447D02*
X44953553Y19503554D01*
X43230000Y16600000D02*
X43250000Y16580000D01*
X41287500Y16600000D02*
X43230000Y16600000D01*
X44783553Y16933554D02*
X44740642Y16892701D01*
X44740642Y16892701D02*
X44695779Y16854002D01*
X44695779Y16854002D02*
X44649072Y16817551D01*
X44649072Y16817551D02*
X44600632Y16783435D01*
X44600632Y16783435D02*
X44550576Y16751738D01*
X44550576Y16751738D02*
X44499025Y16722535D01*
X44499025Y16722535D02*
X44446104Y16695896D01*
X44446104Y16695896D02*
X44391939Y16671887D01*
X44391939Y16671887D02*
X44336661Y16650564D01*
X44336661Y16650564D02*
X44280404Y16631979D01*
X44280404Y16631979D02*
X44223302Y16616176D01*
X44223302Y16616176D02*
X44165494Y16603195D01*
X44165494Y16603195D02*
X44107119Y16593066D01*
X44107119Y16593066D02*
X44048317Y16585814D01*
X44048317Y16585814D02*
X43989229Y16581455D01*
X43989229Y16581455D02*
X43930000Y16580000D01*
X43930000Y16580000D02*
X43250000Y16580000D01*
X46550000Y18200000D02*
X48250000Y18200000D01*
X46550000Y18200000D02*
X46490770Y18198547D01*
X46490770Y18198547D02*
X46431682Y18194188D01*
X46431682Y18194188D02*
X46372880Y18186936D01*
X46372880Y18186936D02*
X46314504Y18176807D01*
X46314504Y18176807D02*
X46256696Y18163825D01*
X46256696Y18163825D02*
X46199595Y18148023D01*
X46199595Y18148023D02*
X46143337Y18129438D01*
X46143337Y18129438D02*
X46088059Y18108115D01*
X46088059Y18108115D02*
X46033894Y18084106D01*
X46033894Y18084106D02*
X45980973Y18057467D01*
X45980973Y18057467D02*
X45929422Y18028264D01*
X45929422Y18028264D02*
X45879366Y17996567D01*
X45879366Y17996567D02*
X45830926Y17962452D01*
X45830926Y17962452D02*
X45784218Y17926000D01*
X45784218Y17926000D02*
X45739355Y17887301D01*
X45739355Y17887301D02*
X45696446Y17846447D01*
X45696446Y17846447D02*
X44783553Y16933554D01*
D27*
X39750000Y16250000D02*
X39750000Y16600000D01*
X39750000Y16250000D02*
X39673879Y15867317D01*
X39673879Y15867317D02*
X39457106Y15542894D01*
X39457106Y15542894D02*
X39132683Y15326121D01*
X39132683Y15326121D02*
X38750000Y15250000D01*
X38750000Y15250000D02*
X35575000Y15250000D01*
D26*
X15196446Y25946447D02*
X15239355Y25987301D01*
X15239355Y25987301D02*
X15284218Y26026000D01*
X15284218Y26026000D02*
X15330926Y26062452D01*
X15330926Y26062452D02*
X15379366Y26096567D01*
X15379366Y26096567D02*
X15429422Y26128264D01*
X15429422Y26128264D02*
X15480973Y26157467D01*
X15480973Y26157467D02*
X15533894Y26184106D01*
X15533894Y26184106D02*
X15588059Y26208115D01*
X15588059Y26208115D02*
X15643337Y26229438D01*
X15643337Y26229438D02*
X15699595Y26248023D01*
X15699595Y26248023D02*
X15756696Y26263825D01*
X15756696Y26263825D02*
X15814504Y26276807D01*
X15814504Y26276807D02*
X15872880Y26286936D01*
X15872880Y26286936D02*
X15931682Y26294188D01*
X15931682Y26294188D02*
X15990770Y26298547D01*
X15990770Y26298547D02*
X16050000Y26300000D01*
X16050000Y26300000D02*
X16800000Y26300000D01*
X13450000Y23700000D02*
X13450000Y23300000D01*
X13450000Y23700000D02*
X13451453Y23759230D01*
X13451453Y23759230D02*
X13455812Y23818318D01*
X13455812Y23818318D02*
X13463064Y23877120D01*
X13463064Y23877120D02*
X13473193Y23935496D01*
X13473193Y23935496D02*
X13486175Y23993304D01*
X13486175Y23993304D02*
X13501977Y24050405D01*
X13501977Y24050405D02*
X13520562Y24106663D01*
X13520562Y24106663D02*
X13541885Y24161941D01*
X13541885Y24161941D02*
X13565894Y24216106D01*
X13565894Y24216106D02*
X13592533Y24269027D01*
X13592533Y24269027D02*
X13621736Y24320578D01*
X13621736Y24320578D02*
X13653433Y24370634D01*
X13653433Y24370634D02*
X13687548Y24419074D01*
X13687548Y24419074D02*
X13724000Y24465782D01*
X13724000Y24465782D02*
X13762699Y24510645D01*
X13762699Y24510645D02*
X13803553Y24553554D01*
X13803553Y24553554D02*
X15196446Y25946447D01*
X15039355Y26787301D02*
X14996446Y26746447D01*
X16800000Y27100000D02*
X15850000Y27100000D01*
X15672880Y27086936D02*
X15614504Y27076807D01*
X15130926Y26862452D02*
X15084218Y26826000D01*
X15850000Y27100000D02*
X15790770Y27098547D01*
X15614504Y27076807D02*
X15556696Y27063825D01*
X14996446Y26746447D02*
X11749999Y23500000D01*
X15179366Y26896567D02*
X15130926Y26862452D01*
X15790770Y27098547D02*
X15731682Y27094188D01*
X15388059Y27008115D02*
X15333894Y26984106D01*
X15731682Y27094188D02*
X15672880Y27086936D01*
X15499595Y27048023D02*
X15443337Y27029438D01*
X15556696Y27063825D02*
X15499595Y27048023D01*
X15443337Y27029438D02*
X15388059Y27008115D01*
X15333894Y26984106D02*
X15280973Y26957467D01*
X15280973Y26957467D02*
X15229422Y26928264D01*
X11749999Y23500000D02*
X11700000Y23500000D01*
X15084218Y26826000D02*
X15039355Y26787301D01*
X15229422Y26928264D02*
X15179366Y26896567D01*
D24*
X17800000Y23900000D02*
X16800000Y23900000D01*
X17800000Y23900000D02*
X17849008Y23897593D01*
X17849008Y23897593D02*
X17897545Y23890393D01*
X17897545Y23890393D02*
X17945142Y23878471D01*
X17945142Y23878471D02*
X17991341Y23861940D01*
X17991341Y23861940D02*
X18035698Y23840961D01*
X18035698Y23840961D02*
X18077785Y23815735D01*
X18077785Y23815735D02*
X18117196Y23786506D01*
X18117196Y23786506D02*
X18153553Y23753554D01*
X18153553Y23753554D02*
X18186505Y23717197D01*
X18186505Y23717197D02*
X18215734Y23677786D01*
X18215734Y23677786D02*
X18240960Y23635699D01*
X18240960Y23635699D02*
X18261939Y23591342D01*
X18261939Y23591342D02*
X18278470Y23545143D01*
X18278470Y23545143D02*
X18290392Y23497546D01*
X18290392Y23497546D02*
X18297592Y23449009D01*
X18297592Y23449009D02*
X18300000Y23400000D01*
X18800000Y17725000D02*
X21400000Y17725000D01*
X18800000Y17725000D02*
X18750991Y17727408D01*
X18750991Y17727408D02*
X18702454Y17734608D01*
X18702454Y17734608D02*
X18654857Y17746530D01*
X18654857Y17746530D02*
X18608658Y17763061D01*
X18608658Y17763061D02*
X18564301Y17784040D01*
X18564301Y17784040D02*
X18522214Y17809266D01*
X18522214Y17809266D02*
X18482803Y17838495D01*
X18482803Y17838495D02*
X18446446Y17871447D01*
X18446446Y17871447D02*
X18413494Y17907804D01*
X18413494Y17907804D02*
X18384265Y17947215D01*
X18384265Y17947215D02*
X18359039Y17989302D01*
X18359039Y17989302D02*
X18338060Y18033659D01*
X18338060Y18033659D02*
X18321529Y18079858D01*
X18321529Y18079858D02*
X18309607Y18127455D01*
X18309607Y18127455D02*
X18302407Y18175992D01*
X18302407Y18175992D02*
X18300000Y18225000D01*
X18300000Y18225000D02*
X18300000Y23400000D01*
X15437867Y23687868D02*
X14900000Y23150000D01*
X15437867Y23687868D02*
X15463612Y23712381D01*
X15463612Y23712381D02*
X15490530Y23735600D01*
X15490530Y23735600D02*
X15518555Y23757471D01*
X15518555Y23757471D02*
X15547619Y23777940D01*
X15547619Y23777940D02*
X15577653Y23796959D01*
X15577653Y23796959D02*
X15608583Y23814481D01*
X15608583Y23814481D02*
X15640336Y23830464D01*
X15640336Y23830464D02*
X15672835Y23844869D01*
X15672835Y23844869D02*
X15706002Y23857663D01*
X15706002Y23857663D02*
X15739756Y23868814D01*
X15739756Y23868814D02*
X15774017Y23878295D01*
X15774017Y23878295D02*
X15808702Y23886084D01*
X15808702Y23886084D02*
X15843728Y23892162D01*
X15843728Y23892162D02*
X15879009Y23896513D01*
X15879009Y23896513D02*
X15914461Y23899128D01*
X15914461Y23899128D02*
X15950000Y23900000D01*
X15950000Y23900000D02*
X16800000Y23900000D01*
X28475000Y38100000D02*
X26800000Y38100000D01*
D26*
X19150000Y18875000D02*
X19152407Y18825992D01*
X19152407Y18825992D02*
X19159607Y18777455D01*
X19159607Y18777455D02*
X19171529Y18729858D01*
X19171529Y18729858D02*
X19188060Y18683659D01*
X19188060Y18683659D02*
X19209039Y18639302D01*
X19209039Y18639302D02*
X19234265Y18597215D01*
X19234265Y18597215D02*
X19263494Y18557804D01*
X19263494Y18557804D02*
X19296446Y18521447D01*
X19296446Y18521447D02*
X19332803Y18488495D01*
X19332803Y18488495D02*
X19372214Y18459266D01*
X19372214Y18459266D02*
X19414301Y18434040D01*
X19414301Y18434040D02*
X19458658Y18413061D01*
X19458658Y18413061D02*
X19504857Y18396530D01*
X19504857Y18396530D02*
X19552454Y18384608D01*
X19552454Y18384608D02*
X19600991Y18377408D01*
X19600991Y18377408D02*
X19650000Y18375000D01*
X19650000Y18375000D02*
X21400000Y18375000D01*
X18650000Y24700000D02*
X16800000Y24700000D01*
X18650000Y24700000D02*
X18699008Y24697593D01*
X18699008Y24697593D02*
X18747545Y24690393D01*
X18747545Y24690393D02*
X18795142Y24678471D01*
X18795142Y24678471D02*
X18841341Y24661940D01*
X18841341Y24661940D02*
X18885698Y24640961D01*
X18885698Y24640961D02*
X18927785Y24615735D01*
X18927785Y24615735D02*
X18967196Y24586506D01*
X18967196Y24586506D02*
X19003553Y24553554D01*
X19003553Y24553554D02*
X19036505Y24517197D01*
X19036505Y24517197D02*
X19065734Y24477786D01*
X19065734Y24477786D02*
X19090960Y24435699D01*
X19090960Y24435699D02*
X19111939Y24391342D01*
X19111939Y24391342D02*
X19128470Y24345143D01*
X19128470Y24345143D02*
X19140392Y24297546D01*
X19140392Y24297546D02*
X19147592Y24249009D01*
X19147592Y24249009D02*
X19150000Y24200000D01*
X19150000Y24200000D02*
X19150000Y18875000D01*
X16800000Y24700000D02*
X15250000Y24700000D01*
X28475000Y40025000D02*
X28475000Y38925001D01*
D33*
X33800000Y35500000D02*
X33825000Y35525000D01*
D25*
X8300000Y24700000D02*
X1450000Y24700000D01*
X6400000Y23900000D02*
X8300000Y23900000D01*
X6400000Y23900000D02*
X6164504Y23876807D01*
X6164504Y23876807D02*
X5938059Y23808115D01*
X5938059Y23808115D02*
X5729366Y23696567D01*
X5729366Y23696567D02*
X5546446Y23546447D01*
X3510000Y22010000D02*
X1450000Y22010000D01*
X3510000Y22010000D02*
X3745494Y22033195D01*
X3745494Y22033195D02*
X3971939Y22101887D01*
X3971939Y22101887D02*
X4180632Y22213435D01*
X4180632Y22213435D02*
X4363553Y22363554D01*
X4363553Y22363554D02*
X5546446Y23546447D01*
D24*
X11400000Y24550000D02*
X11150000Y24550000D01*
X14550000Y28200000D02*
X14550000Y29350000D01*
X14550000Y28200000D02*
X14548545Y28140771D01*
X14548545Y28140771D02*
X14544187Y28081683D01*
X14544187Y28081683D02*
X14536934Y28022881D01*
X14536934Y28022881D02*
X14526805Y27964506D01*
X14526805Y27964506D02*
X14513824Y27906698D01*
X14513824Y27906698D02*
X14498021Y27849596D01*
X14498021Y27849596D02*
X14479436Y27793339D01*
X14479436Y27793339D02*
X14458113Y27738061D01*
X14458113Y27738061D02*
X14434104Y27683896D01*
X14434104Y27683896D02*
X14407465Y27630975D01*
X14407465Y27630975D02*
X14378262Y27579424D01*
X14378262Y27579424D02*
X14346565Y27529368D01*
X14346565Y27529368D02*
X14312449Y27480928D01*
X14312449Y27480928D02*
X14275998Y27434221D01*
X14275998Y27434221D02*
X14237299Y27389358D01*
X14237299Y27389358D02*
X14196446Y27346447D01*
X14196446Y27346447D02*
X11400000Y24550000D01*
D25*
X3130000Y16930000D02*
X1450000Y16930000D01*
X3130000Y16930000D02*
X3365494Y16953195D01*
X3365494Y16953195D02*
X3591939Y17021887D01*
X3591939Y17021887D02*
X3800632Y17133435D01*
X3800632Y17133435D02*
X3983553Y17283554D01*
X8300000Y22100000D02*
X8300000Y22300000D01*
X8300000Y22100000D02*
X8276805Y21864506D01*
X8276805Y21864506D02*
X8208113Y21638061D01*
X8208113Y21638061D02*
X8096565Y21429368D01*
X8096565Y21429368D02*
X7946446Y21246447D01*
X7946446Y21246447D02*
X3983553Y17283554D01*
X3860000Y27090000D02*
X1450000Y27090000D01*
X4095494Y27066806D02*
X3860000Y27090000D01*
X4713553Y26736447D02*
X4530632Y26886566D01*
X4530632Y26886566D02*
X4321939Y26998115D01*
X4321939Y26998115D02*
X4095494Y27066806D01*
X5596446Y25853554D02*
X4713553Y26736447D01*
X5596446Y25853554D02*
X5779366Y25703435D01*
X5779366Y25703435D02*
X5988059Y25591886D01*
X5988059Y25591886D02*
X6214504Y25523195D01*
X6214504Y25523195D02*
X6450000Y25500000D01*
X6450000Y25500000D02*
X8300000Y25500000D01*
X6950000Y26300000D02*
X8300000Y26300000D01*
X6950000Y26300000D02*
X6714504Y26323195D01*
X6714504Y26323195D02*
X6488059Y26391886D01*
X6488059Y26391886D02*
X6279366Y26503435D01*
X6279366Y26503435D02*
X6096446Y26653554D01*
X2620000Y29630000D02*
X1450000Y29630000D01*
X2620000Y29630000D02*
X2855494Y29606806D01*
X2855494Y29606806D02*
X3081939Y29538115D01*
X3081939Y29538115D02*
X3290632Y29426566D01*
X3290632Y29426566D02*
X3473553Y29276447D01*
X3473553Y29276447D02*
X6096446Y26653554D01*
X2099998Y32170000D02*
X1450000Y32170000D01*
X7669998Y27100000D02*
X8300000Y27100000D01*
X7669998Y27100000D02*
X7434502Y27123195D01*
X7434502Y27123195D02*
X7208057Y27191886D01*
X7208057Y27191886D02*
X6999364Y27303435D01*
X6999364Y27303435D02*
X6816444Y27453554D01*
X6816444Y27453554D02*
X2099998Y32170000D01*
X8300000Y28850000D02*
X8300000Y27900000D01*
X8300000Y28850000D02*
X8276805Y29085496D01*
X8276805Y29085496D02*
X8208114Y29311941D01*
X8208114Y29311941D02*
X8096565Y29520634D01*
X8096565Y29520634D02*
X7946446Y29703554D01*
X2440000Y34710000D02*
X1450000Y34710000D01*
X2440000Y34710000D02*
X2675494Y34686806D01*
X2675494Y34686806D02*
X2901939Y34618115D01*
X2901939Y34618115D02*
X3110632Y34506566D01*
X3110632Y34506566D02*
X3293553Y34356447D01*
X3293553Y34356447D02*
X7946446Y29703554D01*
D32*
X10550000Y30580000D02*
X10550000Y29350000D01*
X10550000Y30580000D02*
X10548545Y30639230D01*
X10548545Y30639230D02*
X10544187Y30698318D01*
X10544187Y30698318D02*
X10536934Y30757120D01*
X10536934Y30757120D02*
X10526805Y30815496D01*
X10526805Y30815496D02*
X10513824Y30873304D01*
X10513824Y30873304D02*
X10498022Y30930405D01*
X10498022Y30930405D02*
X10479437Y30986663D01*
X10479437Y30986663D02*
X10458114Y31041941D01*
X10458114Y31041941D02*
X10434104Y31096106D01*
X10434104Y31096106D02*
X10407466Y31149027D01*
X10407466Y31149027D02*
X10378263Y31200578D01*
X10378263Y31200578D02*
X10346565Y31250634D01*
X10346565Y31250634D02*
X10312450Y31299074D01*
X10312450Y31299074D02*
X10275999Y31345782D01*
X10275999Y31345782D02*
X10237300Y31390645D01*
X10237300Y31390645D02*
X10196446Y31433554D01*
X10196446Y31433554D02*
X9490000Y32140000D01*
D28*
X8860000Y33270000D02*
X8860000Y38310000D01*
X8860000Y33270000D02*
X8861454Y33210771D01*
X8861454Y33210771D02*
X8865812Y33151683D01*
X8865812Y33151683D02*
X8873065Y33092881D01*
X8873065Y33092881D02*
X8883194Y33034506D01*
X8883194Y33034506D02*
X8896175Y32976698D01*
X8896175Y32976698D02*
X8911977Y32919596D01*
X8911977Y32919596D02*
X8930562Y32863339D01*
X8930562Y32863339D02*
X8951885Y32808061D01*
X8951885Y32808061D02*
X8975895Y32753896D01*
X8975895Y32753896D02*
X9002533Y32700975D01*
X9002533Y32700975D02*
X9031736Y32649424D01*
X9031736Y32649424D02*
X9063434Y32599368D01*
X9063434Y32599368D02*
X9097549Y32550928D01*
X9097549Y32550928D02*
X9134000Y32504221D01*
X9134000Y32504221D02*
X9172699Y32459358D01*
X9172699Y32459358D02*
X9213553Y32416447D01*
X9213553Y32416447D02*
X9490000Y32140000D01*
D24*
X13550000Y5750000D02*
X38400000Y5750000D01*
X12574548Y5846074D02*
X13059914Y5774077D01*
X12098576Y5965299D02*
X12574548Y5846074D01*
X11636582Y6130603D02*
X12098576Y5965299D01*
X10772148Y6592652D02*
X11193016Y6340394D01*
X10014466Y7214467D02*
X10378033Y6884948D01*
X8574076Y10259915D02*
X8646073Y9774549D01*
X10378033Y6884948D02*
X10772148Y6592652D01*
X8550000Y10750000D02*
X8574076Y10259915D01*
X9392651Y7972149D02*
X9684947Y7578034D01*
X11193016Y6340394D02*
X11636582Y6130603D01*
X9750000Y20850000D02*
X9750000Y20350000D01*
X13059914Y5774077D02*
X13550000Y5750000D01*
X9140393Y8393017D02*
X9392651Y7972149D01*
X8646073Y9774549D02*
X8765298Y9298577D01*
X8765298Y9298577D02*
X8930602Y8836583D01*
X8930602Y8836583D02*
X9140393Y8393017D01*
X9684947Y7578034D02*
X10014466Y7214467D01*
X8550000Y18150000D02*
X8550000Y10750000D01*
X8550000Y18150000D02*
X8552907Y18268460D01*
X8552907Y18268460D02*
X8561624Y18386635D01*
X8561624Y18386635D02*
X8576129Y18504239D01*
X8576129Y18504239D02*
X8596387Y18620990D01*
X8596387Y18620990D02*
X8622350Y18736607D01*
X8622350Y18736607D02*
X8653954Y18850810D01*
X8653954Y18850810D02*
X8691124Y18963325D01*
X8691124Y18963325D02*
X8733770Y19073880D01*
X8733770Y19073880D02*
X8781789Y19182210D01*
X8781789Y19182210D02*
X8835066Y19288053D01*
X8835066Y19288053D02*
X8893472Y19391154D01*
X8893472Y19391154D02*
X8956867Y19491266D01*
X8956867Y19491266D02*
X9025098Y19588146D01*
X9025098Y19588146D02*
X9098000Y19681562D01*
X9098000Y19681562D02*
X9175398Y19771287D01*
X9175398Y19771287D02*
X9257106Y19857107D01*
X9257106Y19857107D02*
X9750000Y20350000D01*
X8300000Y23100000D02*
X10300000Y23100000D01*
X10300000Y4700000D02*
X36400000Y4700000D01*
D26*
X13250000Y27700000D02*
X12249998Y27700000D01*
X13250000Y27700000D02*
X13299008Y27702408D01*
X13299008Y27702408D02*
X13347545Y27709608D01*
X13347545Y27709608D02*
X13395142Y27721530D01*
X13395142Y27721530D02*
X13441341Y27738061D01*
X13441341Y27738061D02*
X13485698Y27759040D01*
X13485698Y27759040D02*
X13527785Y27784266D01*
X13527785Y27784266D02*
X13567196Y27813495D01*
X13567196Y27813495D02*
X13603553Y27846447D01*
X13603553Y27846447D02*
X13636505Y27882804D01*
X13636505Y27882804D02*
X13665734Y27922215D01*
X13665734Y27922215D02*
X13690960Y27964302D01*
X13690960Y27964302D02*
X13711939Y28008659D01*
X13711939Y28008659D02*
X13728470Y28054858D01*
X13728470Y28054858D02*
X13740392Y28102455D01*
X13740392Y28102455D02*
X13747592Y28150992D01*
X13747592Y28150992D02*
X13750000Y28200000D01*
X13750000Y28200000D02*
X13750000Y29350000D01*
X11350000Y29350000D02*
X11350000Y26499980D01*
D27*
X46885000Y42775000D02*
X46875000Y42765000D01*
X54625000Y42775000D02*
X46885000Y42775000D01*
D24*
X15350000Y20850000D02*
X17300000Y20850000D01*
D29*
X28600000Y7050000D02*
X45900000Y7050000D01*
X45900000Y7050000D02*
X47400000Y7050000D01*
X48975000Y7050000D02*
X47400000Y7050000D01*
D25*
X9750000Y29350000D02*
X9750000Y29850000D01*
X9750000Y29850000D02*
X8600000Y31000000D01*
X2607106Y36992894D02*
X8600000Y31000000D01*
X2607106Y36992894D02*
X2525398Y37078715D01*
X2525398Y37078715D02*
X2448000Y37168440D01*
X2448000Y37168440D02*
X2375098Y37261856D01*
X2375098Y37261856D02*
X2306867Y37358736D01*
X2306867Y37358736D02*
X2243472Y37458847D01*
X2243472Y37458847D02*
X2185066Y37561949D01*
X2185066Y37561949D02*
X2131789Y37667792D01*
X2131789Y37667792D02*
X2083770Y37776121D01*
X2083770Y37776121D02*
X2041124Y37886677D01*
X2041124Y37886677D02*
X2003954Y37999192D01*
X2003954Y37999192D02*
X1972350Y38113395D01*
X1972350Y38113395D02*
X1946387Y38229011D01*
X1946387Y38229011D02*
X1926129Y38345762D01*
X1926129Y38345762D02*
X1911624Y38463366D01*
X1911624Y38463366D02*
X1902907Y38581541D01*
X1902907Y38581541D02*
X1900000Y38700000D01*
X1900000Y38700000D02*
X1900000Y41000000D01*
D29*
X50725000Y8050000D02*
X50725000Y7050000D01*
X50725000Y8050000D02*
X50720184Y8148018D01*
X50720184Y8148018D02*
X50705785Y8245091D01*
X50705785Y8245091D02*
X50681940Y8340285D01*
X50681940Y8340285D02*
X50648879Y8432684D01*
X50648879Y8432684D02*
X50606921Y8521397D01*
X50606921Y8521397D02*
X50556469Y8605571D01*
X50556469Y8605571D02*
X50498010Y8684394D01*
X50498010Y8684394D02*
X50432106Y8757107D01*
X50432106Y8757107D02*
X50359393Y8823011D01*
X50359393Y8823011D02*
X50280570Y8881470D01*
X50280570Y8881470D02*
X50196396Y8931922D01*
X50196396Y8931922D02*
X50107683Y8973880D01*
X50107683Y8973880D02*
X50015284Y9006941D01*
X50015284Y9006941D02*
X49920090Y9030786D01*
X49920090Y9030786D02*
X49823017Y9045185D01*
X49823017Y9045185D02*
X49725000Y9050000D01*
X49725000Y9050000D02*
X49400000Y9050000D01*
D34*
X50458455Y46207460D02*
X50534269Y46168965D01*
X50594450Y46108905D01*
X50633096Y46033170D01*
X50648000Y45939191D01*
X50648000Y45385141D01*
X50633126Y45291250D01*
X50594559Y45215579D01*
X50534488Y45155529D01*
X50458799Y45116987D01*
X50364904Y45102147D01*
X49223953Y45102556D01*
X49191073Y45098238D01*
X49091625Y45071622D01*
X49068321Y45062859D01*
X49047176Y45049718D01*
X49034672Y45038759D01*
X48961864Y44965977D01*
X48946067Y44946734D01*
X48934327Y44924780D01*
X48928980Y44909034D01*
X48902330Y44809595D01*
X48902321Y44809563D01*
X48884474Y44742900D01*
X48859735Y44718130D01*
X48809228Y44704540D01*
X44960347Y44699705D01*
X44866388Y44714477D01*
X44790633Y44752993D01*
X44730502Y44813048D01*
X44691891Y44888755D01*
X44677001Y44982694D01*
X44677000Y45928322D01*
X44691829Y46022072D01*
X44730288Y46097662D01*
X44790198Y46157694D01*
X44865714Y46196305D01*
X44959431Y46211322D01*
X50364447Y46222175D01*
X50458455Y46207460D01*
%TA.AperFunction,Conductor*%
D35*
G36*
X50458455Y46207460D02*
G01*
X50534269Y46168965D01*
X50594450Y46108905D01*
X50633096Y46033170D01*
X50648000Y45939191D01*
X50648000Y45385141D01*
X50633126Y45291250D01*
X50594559Y45215579D01*
X50534488Y45155529D01*
X50458799Y45116987D01*
X50364904Y45102147D01*
X49223953Y45102556D01*
X49191073Y45098238D01*
X49091625Y45071622D01*
X49068321Y45062859D01*
X49047176Y45049718D01*
X49034672Y45038759D01*
X48961864Y44965977D01*
X48946067Y44946734D01*
X48934327Y44924780D01*
X48928980Y44909034D01*
X48902330Y44809595D01*
X48902321Y44809563D01*
X48884474Y44742900D01*
X48859735Y44718130D01*
X48809228Y44704540D01*
X44960347Y44699705D01*
X44866388Y44714477D01*
X44790633Y44752993D01*
X44730502Y44813048D01*
X44691891Y44888755D01*
X44677001Y44982694D01*
X44677000Y45928322D01*
X44691829Y46022072D01*
X44730288Y46097662D01*
X44790198Y46157694D01*
X44865714Y46196305D01*
X44959431Y46211322D01*
X50364447Y46222175D01*
X50458455Y46207460D01*
G37*
%TD.AperFunction*%
D34*
X49683871Y16558134D02*
X49759533Y16519582D01*
X49819582Y16459533D01*
X49858134Y16383871D01*
X49873000Y16290008D01*
X49873000Y13459992D01*
X49858134Y13366129D01*
X49819582Y13290467D01*
X49759533Y13230418D01*
X49683871Y13191866D01*
X49590008Y13177000D01*
X42659992Y13177000D01*
X42566129Y13191866D01*
X42490467Y13230418D01*
X42430418Y13290467D01*
X42391866Y13366129D01*
X42377000Y13459992D01*
X42377000Y14590008D01*
X42391866Y14683871D01*
X42430418Y14759533D01*
X42490467Y14819582D01*
X42566129Y14858134D01*
X42659992Y14873000D01*
X46100000Y14873000D01*
X46119867Y14874564D01*
X46243474Y14894141D01*
X46267563Y14900427D01*
X46281264Y14906419D01*
X46392771Y14963235D01*
X46413739Y14976658D01*
X46424917Y14986590D01*
X46513410Y15075083D01*
X46529204Y15094329D01*
X46536765Y15107229D01*
X46593581Y15218736D01*
X46602655Y15241920D01*
X46605859Y15256526D01*
X46625436Y15380133D01*
X46627000Y15400000D01*
X46627000Y16290008D01*
X46641866Y16383871D01*
X46680418Y16459533D01*
X46740467Y16519582D01*
X46816129Y16558134D01*
X46909992Y16573000D01*
X49590008Y16573000D01*
X49683871Y16558134D01*
%TA.AperFunction,Conductor*%
D35*
G36*
X49683871Y16558134D02*
G01*
X49759533Y16519582D01*
X49819582Y16459533D01*
X49858134Y16383871D01*
X49873000Y16290008D01*
X49873000Y13459992D01*
X49858134Y13366129D01*
X49819582Y13290467D01*
X49759533Y13230418D01*
X49683871Y13191866D01*
X49590008Y13177000D01*
X42659992Y13177000D01*
X42566129Y13191866D01*
X42490467Y13230418D01*
X42430418Y13290467D01*
X42391866Y13366129D01*
X42377000Y13459992D01*
X42377000Y14590008D01*
X42391866Y14683871D01*
X42430418Y14759533D01*
X42490467Y14819582D01*
X42566129Y14858134D01*
X42659992Y14873000D01*
X46100000Y14873000D01*
X46119867Y14874564D01*
X46243474Y14894141D01*
X46267563Y14900427D01*
X46281264Y14906419D01*
X46392771Y14963235D01*
X46413739Y14976658D01*
X46424917Y14986590D01*
X46513410Y15075083D01*
X46529204Y15094329D01*
X46536765Y15107229D01*
X46593581Y15218736D01*
X46602655Y15241920D01*
X46605859Y15256526D01*
X46625436Y15380133D01*
X46627000Y15400000D01*
X46627000Y16290008D01*
X46641866Y16383871D01*
X46680418Y16459533D01*
X46740467Y16519582D01*
X46816129Y16558134D01*
X46909992Y16573000D01*
X49590008Y16573000D01*
X49683871Y16558134D01*
G37*
%TD.AperFunction*%
D34*
X17196257Y19159231D02*
X17285955Y19122077D01*
X17362976Y19062976D01*
X17422077Y18985955D01*
X17459231Y18896257D01*
X17473000Y18791672D01*
X17473000Y17358328D01*
X17459231Y17253743D01*
X17422077Y17164045D01*
X17362976Y17087024D01*
X17285955Y17027923D01*
X17196257Y16990769D01*
X17091672Y16977000D01*
X16266061Y16977000D01*
X16250000Y16978582D01*
X15511046Y16978582D01*
X15500000Y16979670D01*
X15488954Y16978582D01*
X14979556Y16978582D01*
X14938448Y16986759D01*
X14907463Y17007463D01*
X14886759Y17038448D01*
X14879488Y17075000D01*
X14886759Y17111552D01*
X14907463Y17142537D01*
X14938448Y17163241D01*
X14979556Y17171418D01*
X16250000Y17171418D01*
X16314103Y17177732D01*
X16367898Y17194050D01*
X16376199Y17195365D01*
X16400289Y17201651D01*
X16413989Y17207643D01*
X16532466Y17268010D01*
X16553434Y17281433D01*
X16564612Y17291365D01*
X16658635Y17385388D01*
X16674429Y17404634D01*
X16681990Y17417534D01*
X16742357Y17536011D01*
X16751431Y17559195D01*
X16754635Y17573801D01*
X16775436Y17705133D01*
X16776902Y17729986D01*
X16775436Y17744867D01*
X16754635Y17876199D01*
X16748349Y17900289D01*
X16742357Y17913989D01*
X16681990Y18032466D01*
X16668567Y18053434D01*
X16658635Y18064612D01*
X16564612Y18158635D01*
X16545366Y18174429D01*
X16532466Y18181990D01*
X16413989Y18242357D01*
X16390805Y18251431D01*
X16376199Y18254635D01*
X16367898Y18255950D01*
X16314103Y18272268D01*
X16250000Y18278582D01*
X14935815Y18278582D01*
X14903242Y18287310D01*
X14887310Y18303242D01*
X14849226Y18445371D01*
X14840457Y18468671D01*
X14827310Y18489813D01*
X14816357Y18502303D01*
X14752303Y18566357D01*
X14733057Y18582151D01*
X14711101Y18593887D01*
X14695371Y18599226D01*
X14607871Y18622672D01*
X14575000Y18627000D01*
X11709992Y18627000D01*
X11616129Y18641866D01*
X11540467Y18680418D01*
X11480418Y18740467D01*
X11441866Y18816129D01*
X11428583Y18900000D01*
X11441866Y18983871D01*
X11480418Y19059533D01*
X11540467Y19119582D01*
X11616129Y19158134D01*
X11709992Y19173000D01*
X17091672Y19173000D01*
X17196257Y19159231D01*
%TA.AperFunction,Conductor*%
D35*
G36*
X17196257Y19159231D02*
G01*
X17285955Y19122077D01*
X17362976Y19062976D01*
X17422077Y18985955D01*
X17459231Y18896257D01*
X17473000Y18791672D01*
X17473000Y17358328D01*
X17459231Y17253743D01*
X17422077Y17164045D01*
X17362976Y17087024D01*
X17285955Y17027923D01*
X17196257Y16990769D01*
X17091672Y16977000D01*
X16266061Y16977000D01*
X16250000Y16978582D01*
X15511046Y16978582D01*
X15500000Y16979670D01*
X15488954Y16978582D01*
X14979556Y16978582D01*
X14938448Y16986759D01*
X14907463Y17007463D01*
X14886759Y17038448D01*
X14879488Y17075000D01*
X14886759Y17111552D01*
X14907463Y17142537D01*
X14938448Y17163241D01*
X14979556Y17171418D01*
X16250000Y17171418D01*
X16314103Y17177732D01*
X16367898Y17194050D01*
X16376199Y17195365D01*
X16400289Y17201651D01*
X16413989Y17207643D01*
X16532466Y17268010D01*
X16553434Y17281433D01*
X16564612Y17291365D01*
X16658635Y17385388D01*
X16674429Y17404634D01*
X16681990Y17417534D01*
X16742357Y17536011D01*
X16751431Y17559195D01*
X16754635Y17573801D01*
X16775436Y17705133D01*
X16776902Y17729986D01*
X16775436Y17744867D01*
X16754635Y17876199D01*
X16748349Y17900289D01*
X16742357Y17913989D01*
X16681990Y18032466D01*
X16668567Y18053434D01*
X16658635Y18064612D01*
X16564612Y18158635D01*
X16545366Y18174429D01*
X16532466Y18181990D01*
X16413989Y18242357D01*
X16390805Y18251431D01*
X16376199Y18254635D01*
X16367898Y18255950D01*
X16314103Y18272268D01*
X16250000Y18278582D01*
X14935815Y18278582D01*
X14903242Y18287310D01*
X14887310Y18303242D01*
X14849226Y18445371D01*
X14840457Y18468671D01*
X14827310Y18489813D01*
X14816357Y18502303D01*
X14752303Y18566357D01*
X14733057Y18582151D01*
X14711101Y18593887D01*
X14695371Y18599226D01*
X14607871Y18622672D01*
X14575000Y18627000D01*
X11709992Y18627000D01*
X11616129Y18641866D01*
X11540467Y18680418D01*
X11480418Y18740467D01*
X11441866Y18816129D01*
X11428583Y18900000D01*
X11441866Y18983871D01*
X11480418Y19059533D01*
X11540467Y19119582D01*
X11616129Y19158134D01*
X11709992Y19173000D01*
X17091672Y19173000D01*
X17196257Y19159231D01*
G37*
%TD.AperFunction*%
D34*
X43307047Y46204463D02*
X43403617Y46155258D01*
X43480258Y46078617D01*
X43529463Y45982047D01*
X43548000Y45865008D01*
X43548000Y45808328D01*
X43534231Y45703743D01*
X43497077Y45614045D01*
X43437976Y45537024D01*
X43360955Y45477923D01*
X43271257Y45440769D01*
X43166672Y45427000D01*
X42250000Y45427000D01*
X42233423Y45425914D01*
X42104013Y45408877D01*
X42071989Y45400296D01*
X41951399Y45350346D01*
X41922687Y45333768D01*
X41819134Y45254308D01*
X41795692Y45230866D01*
X41716232Y45127313D01*
X41699654Y45098601D01*
X41649704Y44978011D01*
X41641123Y44945987D01*
X41624086Y44816577D01*
X41623000Y44800000D01*
X41623000Y44575010D01*
X41606580Y44492463D01*
X41566909Y44433091D01*
X41507537Y44393420D01*
X41437500Y44379489D01*
X41367463Y44393420D01*
X41308091Y44433091D01*
X41268420Y44492463D01*
X41252000Y44575010D01*
X41252000Y45841672D01*
X41265769Y45946257D01*
X41302923Y46035955D01*
X41362024Y46112976D01*
X41439045Y46172077D01*
X41528743Y46209231D01*
X41633328Y46223000D01*
X43190008Y46223000D01*
X43307047Y46204463D01*
%TA.AperFunction,Conductor*%
D35*
G36*
X43307047Y46204463D02*
G01*
X43403617Y46155258D01*
X43480258Y46078617D01*
X43529463Y45982047D01*
X43548000Y45865008D01*
X43548000Y45808328D01*
X43534231Y45703743D01*
X43497077Y45614045D01*
X43437976Y45537024D01*
X43360955Y45477923D01*
X43271257Y45440769D01*
X43166672Y45427000D01*
X42250000Y45427000D01*
X42233423Y45425914D01*
X42104013Y45408877D01*
X42071989Y45400296D01*
X41951399Y45350346D01*
X41922687Y45333768D01*
X41819134Y45254308D01*
X41795692Y45230866D01*
X41716232Y45127313D01*
X41699654Y45098601D01*
X41649704Y44978011D01*
X41641123Y44945987D01*
X41624086Y44816577D01*
X41623000Y44800000D01*
X41623000Y44575010D01*
X41606580Y44492463D01*
X41566909Y44433091D01*
X41507537Y44393420D01*
X41437500Y44379489D01*
X41367463Y44393420D01*
X41308091Y44433091D01*
X41268420Y44492463D01*
X41252000Y44575010D01*
X41252000Y45841672D01*
X41265769Y45946257D01*
X41302923Y46035955D01*
X41362024Y46112976D01*
X41439045Y46172077D01*
X41528743Y46209231D01*
X41633328Y46223000D01*
X43190008Y46223000D01*
X43307047Y46204463D01*
G37*
%TD.AperFunction*%
D34*
X43221257Y47959231D02*
X43310955Y47922077D01*
X43387976Y47862976D01*
X43447077Y47785955D01*
X43484231Y47696257D01*
X43498000Y47591672D01*
X43498000Y47558328D01*
X43484231Y47453743D01*
X43447077Y47364045D01*
X43387976Y47287024D01*
X43310955Y47227923D01*
X43221257Y47190769D01*
X43116672Y47177000D01*
X41325000Y47177000D01*
X41308423Y47175914D01*
X41179013Y47158877D01*
X41146989Y47150296D01*
X41026399Y47100346D01*
X40997687Y47083768D01*
X40894134Y47004308D01*
X40870692Y46980866D01*
X40791232Y46877313D01*
X40774654Y46848601D01*
X40724704Y46728011D01*
X40716123Y46695987D01*
X40699086Y46566577D01*
X40698000Y46550000D01*
X40698000Y44588056D01*
X40680747Y44503448D01*
X40639165Y44443117D01*
X40577284Y44403887D01*
X40504356Y44391915D01*
X40427630Y44409879D01*
X40362661Y44455585D01*
X40319487Y44522259D01*
X40302000Y44612438D01*
X40302000Y47591672D01*
X40315769Y47696257D01*
X40352923Y47785955D01*
X40412024Y47862976D01*
X40489045Y47922077D01*
X40578743Y47959231D01*
X40683328Y47973000D01*
X43116672Y47973000D01*
X43221257Y47959231D01*
%TA.AperFunction,Conductor*%
D35*
G36*
X43221257Y47959231D02*
G01*
X43310955Y47922077D01*
X43387976Y47862976D01*
X43447077Y47785955D01*
X43484231Y47696257D01*
X43498000Y47591672D01*
X43498000Y47558328D01*
X43484231Y47453743D01*
X43447077Y47364045D01*
X43387976Y47287024D01*
X43310955Y47227923D01*
X43221257Y47190769D01*
X43116672Y47177000D01*
X41325000Y47177000D01*
X41308423Y47175914D01*
X41179013Y47158877D01*
X41146989Y47150296D01*
X41026399Y47100346D01*
X40997687Y47083768D01*
X40894134Y47004308D01*
X40870692Y46980866D01*
X40791232Y46877313D01*
X40774654Y46848601D01*
X40724704Y46728011D01*
X40716123Y46695987D01*
X40699086Y46566577D01*
X40698000Y46550000D01*
X40698000Y44588056D01*
X40680747Y44503448D01*
X40639165Y44443117D01*
X40577284Y44403887D01*
X40504356Y44391915D01*
X40427630Y44409879D01*
X40362661Y44455585D01*
X40319487Y44522259D01*
X40302000Y44612438D01*
X40302000Y47591672D01*
X40315769Y47696257D01*
X40352923Y47785955D01*
X40412024Y47862976D01*
X40489045Y47922077D01*
X40578743Y47959231D01*
X40683328Y47973000D01*
X43116672Y47973000D01*
X43221257Y47959231D01*
G37*
%TD.AperFunction*%
D34*
X38046257Y47784231D02*
X38135955Y47747077D01*
X38212976Y47687976D01*
X38272077Y47610955D01*
X38309231Y47521257D01*
X38323000Y47416672D01*
X38323000Y46300000D01*
X38324086Y46283423D01*
X38341123Y46154013D01*
X38349704Y46121989D01*
X38399654Y46001399D01*
X38416232Y45972687D01*
X38495692Y45869134D01*
X38519134Y45845692D01*
X38622687Y45766232D01*
X38651399Y45749654D01*
X38771989Y45699704D01*
X38804013Y45691123D01*
X38933423Y45674086D01*
X38950000Y45673000D01*
X39366672Y45673000D01*
X39471257Y45659231D01*
X39560955Y45622077D01*
X39637976Y45562976D01*
X39697077Y45485955D01*
X39734231Y45396257D01*
X39745934Y45307365D01*
X39745934Y44742635D01*
X39734231Y44653743D01*
X39697077Y44564045D01*
X39637976Y44487024D01*
X39560955Y44427923D01*
X39471257Y44390769D01*
X39366672Y44377000D01*
X38387500Y44377000D01*
X38354630Y44372673D01*
X38298380Y44357601D01*
X38275080Y44348831D01*
X38253938Y44335684D01*
X38241447Y44324731D01*
X38200269Y44283553D01*
X38184475Y44264307D01*
X38172739Y44242351D01*
X38167399Y44226620D01*
X38147531Y44152469D01*
X38145779Y44152000D01*
X37458328Y44152000D01*
X37353743Y44165769D01*
X37264045Y44202923D01*
X37187024Y44262024D01*
X37127923Y44339045D01*
X37090769Y44428743D01*
X37077000Y44533328D01*
X37077000Y47416672D01*
X37090769Y47521257D01*
X37127923Y47610955D01*
X37187024Y47687976D01*
X37264045Y47747077D01*
X37353743Y47784231D01*
X37458328Y47798000D01*
X37941672Y47798000D01*
X38046257Y47784231D01*
%TA.AperFunction,Conductor*%
D35*
G36*
X38046257Y47784231D02*
G01*
X38135955Y47747077D01*
X38212976Y47687976D01*
X38272077Y47610955D01*
X38309231Y47521257D01*
X38323000Y47416672D01*
X38323000Y46300000D01*
X38324086Y46283423D01*
X38341123Y46154013D01*
X38349704Y46121989D01*
X38399654Y46001399D01*
X38416232Y45972687D01*
X38495692Y45869134D01*
X38519134Y45845692D01*
X38622687Y45766232D01*
X38651399Y45749654D01*
X38771989Y45699704D01*
X38804013Y45691123D01*
X38933423Y45674086D01*
X38950000Y45673000D01*
X39366672Y45673000D01*
X39471257Y45659231D01*
X39560955Y45622077D01*
X39637976Y45562976D01*
X39697077Y45485955D01*
X39734231Y45396257D01*
X39745934Y45307365D01*
X39745934Y44742635D01*
X39734231Y44653743D01*
X39697077Y44564045D01*
X39637976Y44487024D01*
X39560955Y44427923D01*
X39471257Y44390769D01*
X39366672Y44377000D01*
X38387500Y44377000D01*
X38354630Y44372673D01*
X38298380Y44357601D01*
X38275080Y44348831D01*
X38253938Y44335684D01*
X38241447Y44324731D01*
X38200269Y44283553D01*
X38184475Y44264307D01*
X38172739Y44242351D01*
X38167399Y44226620D01*
X38147531Y44152469D01*
X38145779Y44152000D01*
X37458328Y44152000D01*
X37353743Y44165769D01*
X37264045Y44202923D01*
X37187024Y44262024D01*
X37127923Y44339045D01*
X37090769Y44428743D01*
X37077000Y44533328D01*
X37077000Y47416672D01*
X37090769Y47521257D01*
X37127923Y47610955D01*
X37187024Y47687976D01*
X37264045Y47747077D01*
X37353743Y47784231D01*
X37458328Y47798000D01*
X37941672Y47798000D01*
X38046257Y47784231D01*
G37*
%TD.AperFunction*%
D34*
X38147531Y43197531D02*
X38167399Y43123380D01*
X38176169Y43100080D01*
X38189316Y43078938D01*
X38200269Y43066447D01*
X38241447Y43025269D01*
X38260693Y43009475D01*
X38282649Y42997739D01*
X38298380Y42992399D01*
X38354630Y42977327D01*
X38387500Y42973000D01*
X39366672Y42973000D01*
X39471257Y42959231D01*
X39560955Y42922077D01*
X39637976Y42862976D01*
X39697077Y42785955D01*
X39734231Y42696257D01*
X39748000Y42591672D01*
X39748000Y41862509D01*
X39730629Y41775181D01*
X39688248Y41711752D01*
X39624819Y41669371D01*
X39550000Y41654488D01*
X39475181Y41669371D01*
X39411752Y41711752D01*
X39369371Y41775181D01*
X39352000Y41862509D01*
X39352000Y41900000D01*
X39350436Y41919867D01*
X39332082Y42035748D01*
X39325796Y42059838D01*
X39319804Y42073538D01*
X39266539Y42178076D01*
X39253116Y42199044D01*
X39243184Y42210222D01*
X39160222Y42293184D01*
X39140976Y42308978D01*
X39128076Y42316539D01*
X39023538Y42369804D01*
X39000354Y42378878D01*
X38985748Y42382082D01*
X38869867Y42400436D01*
X38850000Y42402000D01*
X37833328Y42402000D01*
X37728743Y42415769D01*
X37639045Y42452923D01*
X37562024Y42512024D01*
X37502923Y42589045D01*
X37465769Y42678743D01*
X37452000Y42783328D01*
X37452000Y42840008D01*
X37470537Y42957047D01*
X37519742Y43053617D01*
X37596383Y43130258D01*
X37692953Y43179463D01*
X37809992Y43198000D01*
X38145779Y43198000D01*
X38147531Y43197531D01*
%TA.AperFunction,Conductor*%
D35*
G36*
X38147531Y43197531D02*
G01*
X38167399Y43123380D01*
X38176169Y43100080D01*
X38189316Y43078938D01*
X38200269Y43066447D01*
X38241447Y43025269D01*
X38260693Y43009475D01*
X38282649Y42997739D01*
X38298380Y42992399D01*
X38354630Y42977327D01*
X38387500Y42973000D01*
X39366672Y42973000D01*
X39471257Y42959231D01*
X39560955Y42922077D01*
X39637976Y42862976D01*
X39697077Y42785955D01*
X39734231Y42696257D01*
X39748000Y42591672D01*
X39748000Y41862509D01*
X39730629Y41775181D01*
X39688248Y41711752D01*
X39624819Y41669371D01*
X39550000Y41654488D01*
X39475181Y41669371D01*
X39411752Y41711752D01*
X39369371Y41775181D01*
X39352000Y41862509D01*
X39352000Y41900000D01*
X39350436Y41919867D01*
X39332082Y42035748D01*
X39325796Y42059838D01*
X39319804Y42073538D01*
X39266539Y42178076D01*
X39253116Y42199044D01*
X39243184Y42210222D01*
X39160222Y42293184D01*
X39140976Y42308978D01*
X39128076Y42316539D01*
X39023538Y42369804D01*
X39000354Y42378878D01*
X38985748Y42382082D01*
X38869867Y42400436D01*
X38850000Y42402000D01*
X37833328Y42402000D01*
X37728743Y42415769D01*
X37639045Y42452923D01*
X37562024Y42512024D01*
X37502923Y42589045D01*
X37465769Y42678743D01*
X37452000Y42783328D01*
X37452000Y42840008D01*
X37470537Y42957047D01*
X37519742Y43053617D01*
X37596383Y43130258D01*
X37692953Y43179463D01*
X37809992Y43198000D01*
X38145779Y43198000D01*
X38147531Y43197531D01*
G37*
%TD.AperFunction*%
D34*
X42371257Y42959231D02*
X42460955Y42922077D01*
X42537976Y42862976D01*
X42597077Y42785955D01*
X42634231Y42696257D01*
X42648000Y42591672D01*
X42648000Y38908328D01*
X42634231Y38803743D01*
X42597077Y38714045D01*
X42537976Y38637024D01*
X42460955Y38577923D01*
X42371257Y38540769D01*
X42266672Y38527000D01*
X42233328Y38527000D01*
X42128743Y38540769D01*
X42039045Y38577923D01*
X41962024Y38637024D01*
X41902923Y38714045D01*
X41865769Y38803743D01*
X41852000Y38908328D01*
X41852000Y41250000D01*
X41849560Y41274776D01*
X41826724Y41389581D01*
X41819497Y41413406D01*
X41807761Y41435363D01*
X41742729Y41532690D01*
X41726934Y41551935D01*
X41707690Y41567729D01*
X41610363Y41632761D01*
X41588406Y41644497D01*
X41564581Y41651724D01*
X41359749Y41692467D01*
X41304430Y41729430D01*
X41267467Y41784749D01*
X41254066Y41852122D01*
X41254066Y42607365D01*
X41265769Y42696257D01*
X41302923Y42785955D01*
X41362024Y42862976D01*
X41439045Y42922077D01*
X41528743Y42959231D01*
X41633328Y42973000D01*
X42266672Y42973000D01*
X42371257Y42959231D01*
%TA.AperFunction,Conductor*%
D35*
G36*
X42371257Y42959231D02*
G01*
X42460955Y42922077D01*
X42537976Y42862976D01*
X42597077Y42785955D01*
X42634231Y42696257D01*
X42648000Y42591672D01*
X42648000Y38908328D01*
X42634231Y38803743D01*
X42597077Y38714045D01*
X42537976Y38637024D01*
X42460955Y38577923D01*
X42371257Y38540769D01*
X42266672Y38527000D01*
X42233328Y38527000D01*
X42128743Y38540769D01*
X42039045Y38577923D01*
X41962024Y38637024D01*
X41902923Y38714045D01*
X41865769Y38803743D01*
X41852000Y38908328D01*
X41852000Y41250000D01*
X41849560Y41274776D01*
X41826724Y41389581D01*
X41819497Y41413406D01*
X41807761Y41435363D01*
X41742729Y41532690D01*
X41726934Y41551935D01*
X41707690Y41567729D01*
X41610363Y41632761D01*
X41588406Y41644497D01*
X41564581Y41651724D01*
X41359749Y41692467D01*
X41304430Y41729430D01*
X41267467Y41784749D01*
X41254066Y41852122D01*
X41254066Y42607365D01*
X41265769Y42696257D01*
X41302923Y42785955D01*
X41362024Y42862976D01*
X41439045Y42922077D01*
X41528743Y42959231D01*
X41633328Y42973000D01*
X42266672Y42973000D01*
X42371257Y42959231D01*
G37*
%TD.AperFunction*%
D34*
X34546257Y49009231D02*
X34635955Y48972077D01*
X34712976Y48912976D01*
X34772077Y48835955D01*
X34809231Y48746257D01*
X34823000Y48641672D01*
X34823000Y39850000D01*
X34824086Y39833423D01*
X34841123Y39704013D01*
X34849704Y39671989D01*
X34899654Y39551399D01*
X34916232Y39522687D01*
X34995692Y39419134D01*
X35019134Y39395692D01*
X35122687Y39316232D01*
X35151399Y39299654D01*
X35271989Y39249704D01*
X35304013Y39241123D01*
X35433423Y39224086D01*
X35450000Y39223000D01*
X40540008Y39223000D01*
X40657047Y39204463D01*
X40753617Y39155258D01*
X40830258Y39078617D01*
X40879463Y38982047D01*
X40896417Y38875000D01*
X40879463Y38767953D01*
X40830258Y38671383D01*
X40753617Y38594742D01*
X40657047Y38545537D01*
X40540008Y38527000D01*
X33958328Y38527000D01*
X33853743Y38540769D01*
X33764045Y38577923D01*
X33687024Y38637024D01*
X33627923Y38714045D01*
X33590769Y38803743D01*
X33577000Y38908328D01*
X33577000Y46400707D01*
X33575911Y46417306D01*
X33558827Y46546892D01*
X33550222Y46578958D01*
X33500137Y46699687D01*
X33483516Y46728427D01*
X33403852Y46832051D01*
X33380352Y46855500D01*
X33276555Y46934937D01*
X33247779Y46951495D01*
X33126940Y47001317D01*
X33094856Y47009851D01*
X32965234Y47026652D01*
X32948632Y47027706D01*
X32308854Y47026309D01*
X32204361Y47039850D01*
X32114716Y47076800D01*
X32037703Y47135718D01*
X31978589Y47212574D01*
X31941407Y47302127D01*
X31928637Y47398711D01*
X31941299Y47495298D01*
X31978335Y47584925D01*
X32037282Y47661928D01*
X32114135Y47721076D01*
X32203663Y47758342D01*
X32308100Y47772307D01*
X32951128Y47773711D01*
X32967676Y47774830D01*
X33096847Y47792095D01*
X33128806Y47800719D01*
X33249128Y47850778D01*
X33277772Y47867368D01*
X33381070Y47946819D01*
X33404454Y47970246D01*
X33483713Y48073693D01*
X33500249Y48102368D01*
X33550083Y48222782D01*
X33558647Y48254756D01*
X33575672Y48383959D01*
X33576760Y48400509D01*
X33576837Y48641795D01*
X33590633Y48746352D01*
X33627802Y48836024D01*
X33686904Y48913018D01*
X33763922Y48972099D01*
X33853602Y49009237D01*
X33958162Y49023000D01*
X34441672Y49023000D01*
X34546257Y49009231D01*
%TA.AperFunction,Conductor*%
D35*
G36*
X34546257Y49009231D02*
G01*
X34635955Y48972077D01*
X34712976Y48912976D01*
X34772077Y48835955D01*
X34809231Y48746257D01*
X34823000Y48641672D01*
X34823000Y39850000D01*
X34824086Y39833423D01*
X34841123Y39704013D01*
X34849704Y39671989D01*
X34899654Y39551399D01*
X34916232Y39522687D01*
X34995692Y39419134D01*
X35019134Y39395692D01*
X35122687Y39316232D01*
X35151399Y39299654D01*
X35271989Y39249704D01*
X35304013Y39241123D01*
X35433423Y39224086D01*
X35450000Y39223000D01*
X40540008Y39223000D01*
X40657047Y39204463D01*
X40753617Y39155258D01*
X40830258Y39078617D01*
X40879463Y38982047D01*
X40896417Y38875000D01*
X40879463Y38767953D01*
X40830258Y38671383D01*
X40753617Y38594742D01*
X40657047Y38545537D01*
X40540008Y38527000D01*
X33958328Y38527000D01*
X33853743Y38540769D01*
X33764045Y38577923D01*
X33687024Y38637024D01*
X33627923Y38714045D01*
X33590769Y38803743D01*
X33577000Y38908328D01*
X33577000Y46400707D01*
X33575911Y46417306D01*
X33558827Y46546892D01*
X33550222Y46578958D01*
X33500137Y46699687D01*
X33483516Y46728427D01*
X33403852Y46832051D01*
X33380352Y46855500D01*
X33276555Y46934937D01*
X33247779Y46951495D01*
X33126940Y47001317D01*
X33094856Y47009851D01*
X32965234Y47026652D01*
X32948632Y47027706D01*
X32308854Y47026309D01*
X32204361Y47039850D01*
X32114716Y47076800D01*
X32037703Y47135718D01*
X31978589Y47212574D01*
X31941407Y47302127D01*
X31928637Y47398711D01*
X31941299Y47495298D01*
X31978335Y47584925D01*
X32037282Y47661928D01*
X32114135Y47721076D01*
X32203663Y47758342D01*
X32308100Y47772307D01*
X32951128Y47773711D01*
X32967676Y47774830D01*
X33096847Y47792095D01*
X33128806Y47800719D01*
X33249128Y47850778D01*
X33277772Y47867368D01*
X33381070Y47946819D01*
X33404454Y47970246D01*
X33483713Y48073693D01*
X33500249Y48102368D01*
X33550083Y48222782D01*
X33558647Y48254756D01*
X33575672Y48383959D01*
X33576760Y48400509D01*
X33576837Y48641795D01*
X33590633Y48746352D01*
X33627802Y48836024D01*
X33686904Y48913018D01*
X33763922Y48972099D01*
X33853602Y49009237D01*
X33958162Y49023000D01*
X34441672Y49023000D01*
X34546257Y49009231D01*
G37*
%TD.AperFunction*%
D34*
X32346257Y44309231D02*
X32435955Y44272077D01*
X32512976Y44212976D01*
X32572077Y44135955D01*
X32609231Y44046257D01*
X32623000Y43941672D01*
X32623000Y43822492D01*
X32609969Y43740217D01*
X32576743Y43675008D01*
X32524992Y43623257D01*
X32459783Y43590031D01*
X32255614Y43557694D01*
X32231524Y43551408D01*
X32217824Y43545416D01*
X32116771Y43493927D01*
X32095803Y43480504D01*
X32084625Y43470572D01*
X32004428Y43390375D01*
X31988634Y43371129D01*
X31981073Y43358229D01*
X31929584Y43257176D01*
X31920510Y43233992D01*
X31917306Y43219386D01*
X31899564Y43107367D01*
X31898000Y43087500D01*
X31898000Y39258328D01*
X31884231Y39153743D01*
X31847077Y39064045D01*
X31787976Y38987024D01*
X31710955Y38927923D01*
X31621257Y38890769D01*
X31516672Y38877000D01*
X30358328Y38877000D01*
X30253743Y38890769D01*
X30164045Y38927923D01*
X30087024Y38987024D01*
X30027923Y39064045D01*
X29990769Y39153743D01*
X29977000Y39258328D01*
X29977000Y43250000D01*
X29972673Y43282870D01*
X29952577Y43357870D01*
X29943807Y43381170D01*
X29930660Y43402312D01*
X29919707Y43414803D01*
X29864803Y43469707D01*
X29845557Y43485501D01*
X29823601Y43497237D01*
X29807870Y43502577D01*
X29690741Y43533961D01*
X29683961Y43540741D01*
X29677000Y43566721D01*
X29677000Y43941672D01*
X29690769Y44046257D01*
X29727923Y44135955D01*
X29787024Y44212976D01*
X29864045Y44272077D01*
X29953743Y44309231D01*
X30058328Y44323000D01*
X32241672Y44323000D01*
X32346257Y44309231D01*
%TA.AperFunction,Conductor*%
D35*
G36*
X32346257Y44309231D02*
G01*
X32435955Y44272077D01*
X32512976Y44212976D01*
X32572077Y44135955D01*
X32609231Y44046257D01*
X32623000Y43941672D01*
X32623000Y43822492D01*
X32609969Y43740217D01*
X32576743Y43675008D01*
X32524992Y43623257D01*
X32459783Y43590031D01*
X32255614Y43557694D01*
X32231524Y43551408D01*
X32217824Y43545416D01*
X32116771Y43493927D01*
X32095803Y43480504D01*
X32084625Y43470572D01*
X32004428Y43390375D01*
X31988634Y43371129D01*
X31981073Y43358229D01*
X31929584Y43257176D01*
X31920510Y43233992D01*
X31917306Y43219386D01*
X31899564Y43107367D01*
X31898000Y43087500D01*
X31898000Y39258328D01*
X31884231Y39153743D01*
X31847077Y39064045D01*
X31787976Y38987024D01*
X31710955Y38927923D01*
X31621257Y38890769D01*
X31516672Y38877000D01*
X30358328Y38877000D01*
X30253743Y38890769D01*
X30164045Y38927923D01*
X30087024Y38987024D01*
X30027923Y39064045D01*
X29990769Y39153743D01*
X29977000Y39258328D01*
X29977000Y43250000D01*
X29972673Y43282870D01*
X29952577Y43357870D01*
X29943807Y43381170D01*
X29930660Y43402312D01*
X29919707Y43414803D01*
X29864803Y43469707D01*
X29845557Y43485501D01*
X29823601Y43497237D01*
X29807870Y43502577D01*
X29690741Y43533961D01*
X29683961Y43540741D01*
X29677000Y43566721D01*
X29677000Y43941672D01*
X29690769Y44046257D01*
X29727923Y44135955D01*
X29787024Y44212976D01*
X29864045Y44272077D01*
X29953743Y44309231D01*
X30058328Y44323000D01*
X32241672Y44323000D01*
X32346257Y44309231D01*
G37*
%TD.AperFunction*%
D34*
X30195697Y49233445D02*
X30285548Y49196374D01*
X30362730Y49137283D01*
X30421960Y49060218D01*
X30459200Y48970433D01*
X30473000Y48865732D01*
X30473000Y47005569D01*
X30466043Y47002687D01*
X30444086Y46990951D01*
X30424841Y46975157D01*
X30409048Y46955911D01*
X30397313Y46933957D01*
X30382668Y46898602D01*
X30375441Y46874778D01*
X30373000Y46850000D01*
X30373000Y45634992D01*
X30354463Y45517953D01*
X30305258Y45421383D01*
X30228617Y45344742D01*
X30132047Y45295537D01*
X30025000Y45278583D01*
X29917953Y45295537D01*
X29821383Y45344742D01*
X29744742Y45421383D01*
X29695537Y45517953D01*
X29677000Y45634992D01*
X29677000Y45699516D01*
X29675912Y45716103D01*
X29658854Y45845591D01*
X29650263Y45877633D01*
X29600253Y45998285D01*
X29583657Y46027009D01*
X29504107Y46130594D01*
X29480638Y46154040D01*
X29376977Y46233489D01*
X29348236Y46250058D01*
X29227535Y46299951D01*
X29195486Y46308511D01*
X29065983Y46325444D01*
X29049394Y46326516D01*
X25874399Y46323446D01*
X25857834Y46322345D01*
X25728519Y46305204D01*
X25696521Y46296602D01*
X25576041Y46246595D01*
X25547358Y46230011D01*
X25443912Y46150542D01*
X25420494Y46127101D01*
X25341125Y46023579D01*
X25324567Y45994879D01*
X25274677Y45874350D01*
X25266107Y45842345D01*
X25249091Y45713014D01*
X25248006Y45696447D01*
X25247999Y37525000D01*
X25249086Y37508423D01*
X25266123Y37379014D01*
X25274703Y37346990D01*
X25324654Y37226399D01*
X25341231Y37197687D01*
X25420690Y37094134D01*
X25444133Y37070692D01*
X25547686Y36991232D01*
X25576399Y36974654D01*
X25696990Y36924704D01*
X25729013Y36916124D01*
X25858422Y36899087D01*
X25874999Y36898000D01*
X27708939Y36898000D01*
X27725000Y36896418D01*
X29225000Y36896418D01*
X29241061Y36898000D01*
X29587500Y36898000D01*
X29612277Y36900440D01*
X29712731Y36920422D01*
X29736555Y36927650D01*
X29758510Y36939385D01*
X29843672Y36996287D01*
X29862918Y37012080D01*
X29878713Y37031328D01*
X29935615Y37116490D01*
X29947351Y37138447D01*
X29954578Y37162269D01*
X29989614Y37338404D01*
X30018446Y37381554D01*
X30061596Y37410386D01*
X30125011Y37423000D01*
X31150000Y37423000D01*
X31174776Y37425440D01*
X31270447Y37444470D01*
X31294272Y37451697D01*
X31316228Y37463433D01*
X31397334Y37517626D01*
X31416579Y37533420D01*
X31432374Y37552666D01*
X31486567Y37633772D01*
X31498303Y37655729D01*
X31505530Y37679553D01*
X31538662Y37846119D01*
X31564785Y37885215D01*
X31603881Y37911338D01*
X31662509Y37923000D01*
X31865008Y37923000D01*
X31982047Y37904463D01*
X32078617Y37855258D01*
X32155258Y37778617D01*
X32204463Y37682047D01*
X32223000Y37565008D01*
X32223000Y36883328D01*
X32209231Y36778743D01*
X32172077Y36689045D01*
X32112976Y36612024D01*
X32035955Y36552923D01*
X31946257Y36515769D01*
X31841672Y36502000D01*
X29450001Y36502000D01*
X29425225Y36499560D01*
X29339121Y36482433D01*
X29315296Y36475206D01*
X29293339Y36463469D01*
X29220344Y36414695D01*
X29201099Y36398901D01*
X29185306Y36379657D01*
X29136532Y36306662D01*
X29124795Y36284705D01*
X29117568Y36260880D01*
X29100441Y36174776D01*
X29100442Y36174776D01*
X29088243Y36113450D01*
X29067537Y36082463D01*
X29036552Y36061759D01*
X28995444Y36053582D01*
X27725000Y36053582D01*
X27660897Y36047268D01*
X27645690Y36042655D01*
X27579013Y36033877D01*
X27546989Y36025296D01*
X27426399Y35975346D01*
X27397687Y35958768D01*
X27294134Y35879308D01*
X27270692Y35855866D01*
X27191232Y35752313D01*
X27174654Y35723601D01*
X27124704Y35603011D01*
X27116123Y35570987D01*
X27099086Y35441577D01*
X27098000Y35425000D01*
X27098000Y34925000D01*
X27099086Y34908423D01*
X27116123Y34779013D01*
X27124704Y34746989D01*
X27174654Y34626399D01*
X27191232Y34597687D01*
X27270692Y34494134D01*
X27294134Y34470692D01*
X27397687Y34391232D01*
X27426399Y34374654D01*
X27546989Y34324704D01*
X27579013Y34316123D01*
X27645690Y34307345D01*
X27660897Y34302732D01*
X27725000Y34296418D01*
X28728688Y34296418D01*
X28821257Y34284231D01*
X28910955Y34247077D01*
X28987976Y34187976D01*
X29047077Y34110955D01*
X29084231Y34021257D01*
X29098000Y33916672D01*
X29098000Y32883328D01*
X29084231Y32778743D01*
X29047077Y32689045D01*
X28987976Y32612024D01*
X28910955Y32552923D01*
X28821257Y32515769D01*
X28716672Y32502000D01*
X26858328Y32502000D01*
X26753743Y32515769D01*
X26664045Y32552923D01*
X26587024Y32612024D01*
X26527923Y32689045D01*
X26490769Y32778743D01*
X26477000Y32883328D01*
X26477000Y33475000D01*
X26475914Y33491577D01*
X26458877Y33620987D01*
X26450296Y33653011D01*
X26400346Y33773601D01*
X26383768Y33802313D01*
X26304308Y33905866D01*
X26280866Y33929308D01*
X26177313Y34008768D01*
X26148601Y34025346D01*
X26028011Y34075296D01*
X25995987Y34083877D01*
X25866577Y34100914D01*
X25850000Y34102000D01*
X24408328Y34102000D01*
X24303743Y34115769D01*
X24214045Y34152923D01*
X24137024Y34212024D01*
X24077923Y34289045D01*
X24040769Y34378743D01*
X24027000Y34483328D01*
X24027000Y48855119D01*
X24040736Y48959578D01*
X24077802Y49049183D01*
X24136778Y49126165D01*
X24213648Y49185282D01*
X24303183Y49222516D01*
X24407617Y49236447D01*
X30090970Y49247049D01*
X30195697Y49233445D01*
%TA.AperFunction,Conductor*%
D35*
G36*
X30195697Y49233445D02*
G01*
X30285548Y49196374D01*
X30362730Y49137283D01*
X30421960Y49060218D01*
X30459200Y48970433D01*
X30473000Y48865732D01*
X30473000Y47005569D01*
X30466043Y47002687D01*
X30444086Y46990951D01*
X30424841Y46975157D01*
X30409048Y46955911D01*
X30397313Y46933957D01*
X30382668Y46898602D01*
X30375441Y46874778D01*
X30373000Y46850000D01*
X30373000Y45634992D01*
X30354463Y45517953D01*
X30305258Y45421383D01*
X30228617Y45344742D01*
X30132047Y45295537D01*
X30025000Y45278583D01*
X29917953Y45295537D01*
X29821383Y45344742D01*
X29744742Y45421383D01*
X29695537Y45517953D01*
X29677000Y45634992D01*
X29677000Y45699516D01*
X29675912Y45716103D01*
X29658854Y45845591D01*
X29650263Y45877633D01*
X29600253Y45998285D01*
X29583657Y46027009D01*
X29504107Y46130594D01*
X29480638Y46154040D01*
X29376977Y46233489D01*
X29348236Y46250058D01*
X29227535Y46299951D01*
X29195486Y46308511D01*
X29065983Y46325444D01*
X29049394Y46326516D01*
X25874399Y46323446D01*
X25857834Y46322345D01*
X25728519Y46305204D01*
X25696521Y46296602D01*
X25576041Y46246595D01*
X25547358Y46230011D01*
X25443912Y46150542D01*
X25420494Y46127101D01*
X25341125Y46023579D01*
X25324567Y45994879D01*
X25274677Y45874350D01*
X25266107Y45842345D01*
X25249091Y45713014D01*
X25248006Y45696447D01*
X25247999Y37525000D01*
X25249086Y37508423D01*
X25266123Y37379014D01*
X25274703Y37346990D01*
X25324654Y37226399D01*
X25341231Y37197687D01*
X25420690Y37094134D01*
X25444133Y37070692D01*
X25547686Y36991232D01*
X25576399Y36974654D01*
X25696990Y36924704D01*
X25729013Y36916124D01*
X25858422Y36899087D01*
X25874999Y36898000D01*
X27708939Y36898000D01*
X27725000Y36896418D01*
X29225000Y36896418D01*
X29241061Y36898000D01*
X29587500Y36898000D01*
X29612277Y36900440D01*
X29712731Y36920422D01*
X29736555Y36927650D01*
X29758510Y36939385D01*
X29843672Y36996287D01*
X29862918Y37012080D01*
X29878713Y37031328D01*
X29935615Y37116490D01*
X29947351Y37138447D01*
X29954578Y37162269D01*
X29989614Y37338404D01*
X30018446Y37381554D01*
X30061596Y37410386D01*
X30125011Y37423000D01*
X31150000Y37423000D01*
X31174776Y37425440D01*
X31270447Y37444470D01*
X31294272Y37451697D01*
X31316228Y37463433D01*
X31397334Y37517626D01*
X31416579Y37533420D01*
X31432374Y37552666D01*
X31486567Y37633772D01*
X31498303Y37655729D01*
X31505530Y37679553D01*
X31538662Y37846119D01*
X31564785Y37885215D01*
X31603881Y37911338D01*
X31662509Y37923000D01*
X31865008Y37923000D01*
X31982047Y37904463D01*
X32078617Y37855258D01*
X32155258Y37778617D01*
X32204463Y37682047D01*
X32223000Y37565008D01*
X32223000Y36883328D01*
X32209231Y36778743D01*
X32172077Y36689045D01*
X32112976Y36612024D01*
X32035955Y36552923D01*
X31946257Y36515769D01*
X31841672Y36502000D01*
X29450001Y36502000D01*
X29425225Y36499560D01*
X29339121Y36482433D01*
X29315296Y36475206D01*
X29293339Y36463469D01*
X29220344Y36414695D01*
X29201099Y36398901D01*
X29185306Y36379657D01*
X29136532Y36306662D01*
X29124795Y36284705D01*
X29117568Y36260880D01*
X29100441Y36174776D01*
X29100442Y36174776D01*
X29088243Y36113450D01*
X29067537Y36082463D01*
X29036552Y36061759D01*
X28995444Y36053582D01*
X27725000Y36053582D01*
X27660897Y36047268D01*
X27645690Y36042655D01*
X27579013Y36033877D01*
X27546989Y36025296D01*
X27426399Y35975346D01*
X27397687Y35958768D01*
X27294134Y35879308D01*
X27270692Y35855866D01*
X27191232Y35752313D01*
X27174654Y35723601D01*
X27124704Y35603011D01*
X27116123Y35570987D01*
X27099086Y35441577D01*
X27098000Y35425000D01*
X27098000Y34925000D01*
X27099086Y34908423D01*
X27116123Y34779013D01*
X27124704Y34746989D01*
X27174654Y34626399D01*
X27191232Y34597687D01*
X27270692Y34494134D01*
X27294134Y34470692D01*
X27397687Y34391232D01*
X27426399Y34374654D01*
X27546989Y34324704D01*
X27579013Y34316123D01*
X27645690Y34307345D01*
X27660897Y34302732D01*
X27725000Y34296418D01*
X28728688Y34296418D01*
X28821257Y34284231D01*
X28910955Y34247077D01*
X28987976Y34187976D01*
X29047077Y34110955D01*
X29084231Y34021257D01*
X29098000Y33916672D01*
X29098000Y32883328D01*
X29084231Y32778743D01*
X29047077Y32689045D01*
X28987976Y32612024D01*
X28910955Y32552923D01*
X28821257Y32515769D01*
X28716672Y32502000D01*
X26858328Y32502000D01*
X26753743Y32515769D01*
X26664045Y32552923D01*
X26587024Y32612024D01*
X26527923Y32689045D01*
X26490769Y32778743D01*
X26477000Y32883328D01*
X26477000Y33475000D01*
X26475914Y33491577D01*
X26458877Y33620987D01*
X26450296Y33653011D01*
X26400346Y33773601D01*
X26383768Y33802313D01*
X26304308Y33905866D01*
X26280866Y33929308D01*
X26177313Y34008768D01*
X26148601Y34025346D01*
X26028011Y34075296D01*
X25995987Y34083877D01*
X25866577Y34100914D01*
X25850000Y34102000D01*
X24408328Y34102000D01*
X24303743Y34115769D01*
X24214045Y34152923D01*
X24137024Y34212024D01*
X24077923Y34289045D01*
X24040769Y34378743D01*
X24027000Y34483328D01*
X24027000Y48855119D01*
X24040736Y48959578D01*
X24077802Y49049183D01*
X24136778Y49126165D01*
X24213648Y49185282D01*
X24303183Y49222516D01*
X24407617Y49236447D01*
X30090970Y49247049D01*
X30195697Y49233445D01*
G37*
%TD.AperFunction*%
D34*
X16796257Y39159231D02*
X16885955Y39122077D01*
X16962976Y39062976D01*
X17022077Y38985955D01*
X17059231Y38896257D01*
X17073000Y38791672D01*
X17073000Y33108328D01*
X17059231Y33003743D01*
X17022077Y32914045D01*
X16962976Y32837024D01*
X16885955Y32777923D01*
X16796257Y32740769D01*
X16691672Y32727000D01*
X14750000Y32727000D01*
X14733423Y32725914D01*
X14604013Y32708877D01*
X14571989Y32700296D01*
X14451399Y32650346D01*
X14422687Y32633768D01*
X14319134Y32554308D01*
X14295692Y32530866D01*
X14216232Y32427313D01*
X14199654Y32398601D01*
X14149704Y32278011D01*
X14141123Y32245987D01*
X14124086Y32116577D01*
X14123000Y32100000D01*
X14123000Y31683328D01*
X14109231Y31578743D01*
X14072077Y31489045D01*
X14012976Y31412024D01*
X13935955Y31352923D01*
X13846257Y31315769D01*
X13741672Y31302000D01*
X13708328Y31302000D01*
X13603743Y31315769D01*
X13514045Y31352923D01*
X13437024Y31412024D01*
X13377923Y31489045D01*
X13340769Y31578743D01*
X13327000Y31683328D01*
X13327000Y35637500D01*
X13322673Y35670370D01*
X13297553Y35764120D01*
X13288783Y35787420D01*
X13275636Y35808562D01*
X13264683Y35821053D01*
X13196053Y35889683D01*
X13176807Y35905477D01*
X13154851Y35917213D01*
X13139120Y35922553D01*
X12984491Y35963985D01*
X12963985Y35984491D01*
X12952000Y36029221D01*
X12952000Y38791672D01*
X12965769Y38896257D01*
X13002923Y38985955D01*
X13062024Y39062976D01*
X13139045Y39122077D01*
X13228743Y39159231D01*
X13333328Y39173000D01*
X16691672Y39173000D01*
X16796257Y39159231D01*
%TA.AperFunction,Conductor*%
D35*
G36*
X16796257Y39159231D02*
G01*
X16885955Y39122077D01*
X16962976Y39062976D01*
X17022077Y38985955D01*
X17059231Y38896257D01*
X17073000Y38791672D01*
X17073000Y33108328D01*
X17059231Y33003743D01*
X17022077Y32914045D01*
X16962976Y32837024D01*
X16885955Y32777923D01*
X16796257Y32740769D01*
X16691672Y32727000D01*
X14750000Y32727000D01*
X14733423Y32725914D01*
X14604013Y32708877D01*
X14571989Y32700296D01*
X14451399Y32650346D01*
X14422687Y32633768D01*
X14319134Y32554308D01*
X14295692Y32530866D01*
X14216232Y32427313D01*
X14199654Y32398601D01*
X14149704Y32278011D01*
X14141123Y32245987D01*
X14124086Y32116577D01*
X14123000Y32100000D01*
X14123000Y31683328D01*
X14109231Y31578743D01*
X14072077Y31489045D01*
X14012976Y31412024D01*
X13935955Y31352923D01*
X13846257Y31315769D01*
X13741672Y31302000D01*
X13708328Y31302000D01*
X13603743Y31315769D01*
X13514045Y31352923D01*
X13437024Y31412024D01*
X13377923Y31489045D01*
X13340769Y31578743D01*
X13327000Y31683328D01*
X13327000Y35637500D01*
X13322673Y35670370D01*
X13297553Y35764120D01*
X13288783Y35787420D01*
X13275636Y35808562D01*
X13264683Y35821053D01*
X13196053Y35889683D01*
X13176807Y35905477D01*
X13154851Y35917213D01*
X13139120Y35922553D01*
X12984491Y35963985D01*
X12963985Y35984491D01*
X12952000Y36029221D01*
X12952000Y38791672D01*
X12965769Y38896257D01*
X13002923Y38985955D01*
X13062024Y39062976D01*
X13139045Y39122077D01*
X13228743Y39159231D01*
X13333328Y39173000D01*
X16691672Y39173000D01*
X16796257Y39159231D01*
G37*
%TD.AperFunction*%
D34*
X11721257Y36634231D02*
X11810955Y36597077D01*
X11887976Y36537976D01*
X11947077Y36460955D01*
X11984231Y36371257D01*
X11998000Y36266672D01*
X11998000Y32637500D01*
X12002327Y32604630D01*
X12027447Y32510880D01*
X12036217Y32487580D01*
X12049364Y32466438D01*
X12060317Y32453947D01*
X12128947Y32385317D01*
X12148193Y32369523D01*
X12170149Y32357787D01*
X12185880Y32352447D01*
X12340509Y32311015D01*
X12361015Y32290509D01*
X12373000Y32245779D01*
X12373000Y31683328D01*
X12359231Y31578743D01*
X12322077Y31489045D01*
X12262976Y31412024D01*
X12185955Y31352923D01*
X12096257Y31315769D01*
X11991672Y31302000D01*
X11583328Y31302000D01*
X11478743Y31315769D01*
X11389045Y31352923D01*
X11312024Y31412024D01*
X11252923Y31489045D01*
X11215769Y31578743D01*
X11202000Y31683328D01*
X11202000Y36266672D01*
X11215769Y36371257D01*
X11252923Y36460955D01*
X11312024Y36537976D01*
X11389045Y36597077D01*
X11478743Y36634231D01*
X11583328Y36648000D01*
X11616672Y36648000D01*
X11721257Y36634231D01*
%TA.AperFunction,Conductor*%
D35*
G36*
X11721257Y36634231D02*
G01*
X11810955Y36597077D01*
X11887976Y36537976D01*
X11947077Y36460955D01*
X11984231Y36371257D01*
X11998000Y36266672D01*
X11998000Y32637500D01*
X12002327Y32604630D01*
X12027447Y32510880D01*
X12036217Y32487580D01*
X12049364Y32466438D01*
X12060317Y32453947D01*
X12128947Y32385317D01*
X12148193Y32369523D01*
X12170149Y32357787D01*
X12185880Y32352447D01*
X12340509Y32311015D01*
X12361015Y32290509D01*
X12373000Y32245779D01*
X12373000Y31683328D01*
X12359231Y31578743D01*
X12322077Y31489045D01*
X12262976Y31412024D01*
X12185955Y31352923D01*
X12096257Y31315769D01*
X11991672Y31302000D01*
X11583328Y31302000D01*
X11478743Y31315769D01*
X11389045Y31352923D01*
X11312024Y31412024D01*
X11252923Y31489045D01*
X11215769Y31578743D01*
X11202000Y31683328D01*
X11202000Y36266672D01*
X11215769Y36371257D01*
X11252923Y36460955D01*
X11312024Y36537976D01*
X11389045Y36597077D01*
X11478743Y36634231D01*
X11583328Y36648000D01*
X11616672Y36648000D01*
X11721257Y36634231D01*
G37*
%TD.AperFunction*%
D34*
X54671257Y48009231D02*
X54760955Y47972077D01*
X54837976Y47912976D01*
X54876528Y47862735D01*
X54916953Y47787970D01*
X54934231Y47746257D01*
X54948000Y47641672D01*
X54948000Y45883328D01*
X54934231Y45778743D01*
X54897077Y45689045D01*
X54837976Y45612024D01*
X54760955Y45552923D01*
X54671257Y45515769D01*
X54566672Y45502000D01*
X54433328Y45502000D01*
X54328743Y45515769D01*
X54239045Y45552923D01*
X54162024Y45612024D01*
X54102923Y45689045D01*
X54065769Y45778743D01*
X54052000Y45883328D01*
X54052000Y46800000D01*
X54050436Y46819867D01*
X54030859Y46943474D01*
X54024573Y46967563D01*
X54018581Y46981264D01*
X53961765Y47092771D01*
X53948342Y47113739D01*
X53938410Y47124917D01*
X53849917Y47213410D01*
X53830671Y47229204D01*
X53817771Y47236765D01*
X53706264Y47293581D01*
X53683080Y47302655D01*
X53668474Y47305859D01*
X53441129Y47341866D01*
X53365467Y47380418D01*
X53305418Y47440467D01*
X53266866Y47516129D01*
X53252000Y47609992D01*
X53252000Y47665008D01*
X53270537Y47782047D01*
X53319742Y47878617D01*
X53396383Y47955258D01*
X53492953Y48004463D01*
X53609992Y48023000D01*
X54566672Y48023000D01*
X54671257Y48009231D01*
%TA.AperFunction,Conductor*%
D35*
G36*
X54671257Y48009231D02*
G01*
X54760955Y47972077D01*
X54837976Y47912976D01*
X54876528Y47862735D01*
X54916953Y47787970D01*
X54934231Y47746257D01*
X54948000Y47641672D01*
X54948000Y45883328D01*
X54934231Y45778743D01*
X54897077Y45689045D01*
X54837976Y45612024D01*
X54760955Y45552923D01*
X54671257Y45515769D01*
X54566672Y45502000D01*
X54433328Y45502000D01*
X54328743Y45515769D01*
X54239045Y45552923D01*
X54162024Y45612024D01*
X54102923Y45689045D01*
X54065769Y45778743D01*
X54052000Y45883328D01*
X54052000Y46800000D01*
X54050436Y46819867D01*
X54030859Y46943474D01*
X54024573Y46967563D01*
X54018581Y46981264D01*
X53961765Y47092771D01*
X53948342Y47113739D01*
X53938410Y47124917D01*
X53849917Y47213410D01*
X53830671Y47229204D01*
X53817771Y47236765D01*
X53706264Y47293581D01*
X53683080Y47302655D01*
X53668474Y47305859D01*
X53441129Y47341866D01*
X53365467Y47380418D01*
X53305418Y47440467D01*
X53266866Y47516129D01*
X53252000Y47609992D01*
X53252000Y47665008D01*
X53270537Y47782047D01*
X53319742Y47878617D01*
X53396383Y47955258D01*
X53492953Y48004463D01*
X53609992Y48023000D01*
X54566672Y48023000D01*
X54671257Y48009231D01*
G37*
%TD.AperFunction*%
D34*
X14750000Y17821418D02*
X16020444Y17821418D01*
X16061552Y17813241D01*
X16092537Y17792537D01*
X16113241Y17761552D01*
X16120512Y17725000D01*
X16113241Y17688448D01*
X16092537Y17657463D01*
X16061552Y17636759D01*
X16020444Y17628582D01*
X14750000Y17628582D01*
X14685897Y17622268D01*
X14659420Y17614236D01*
X14606526Y17605859D01*
X14582437Y17599573D01*
X14568736Y17593581D01*
X14457229Y17536765D01*
X14436261Y17523342D01*
X14425083Y17513410D01*
X14336590Y17424917D01*
X14320796Y17405671D01*
X14313235Y17392771D01*
X14256419Y17281264D01*
X14247345Y17258080D01*
X14244141Y17243474D01*
X14224564Y17119867D01*
X14223000Y17100000D01*
X14223000Y17050000D01*
X14224564Y17030133D01*
X14244141Y16906526D01*
X14250427Y16882437D01*
X14256419Y16868736D01*
X14313235Y16757229D01*
X14326658Y16736261D01*
X14336590Y16725083D01*
X14425083Y16636590D01*
X14444329Y16620796D01*
X14457229Y16613235D01*
X14568736Y16556419D01*
X14591920Y16547345D01*
X14606526Y16544141D01*
X14659420Y16535764D01*
X14685897Y16527732D01*
X14750000Y16521418D01*
X15849997Y16521418D01*
X15933871Y16508134D01*
X16009533Y16469582D01*
X16069582Y16409533D01*
X16108134Y16333871D01*
X16123000Y16240008D01*
X16123000Y15959992D01*
X16108134Y15866129D01*
X16069582Y15790467D01*
X16009533Y15730418D01*
X15933871Y15691866D01*
X15849997Y15678582D01*
X14750000Y15678582D01*
X14733939Y15677000D01*
X13334992Y15677000D01*
X13241129Y15691866D01*
X13165467Y15730418D01*
X13105418Y15790467D01*
X13066866Y15866129D01*
X13052000Y15959992D01*
X13052000Y17540008D01*
X13066866Y17633871D01*
X13105418Y17709533D01*
X13165467Y17769582D01*
X13241129Y17808134D01*
X13334992Y17823000D01*
X14733939Y17823000D01*
X14750000Y17821418D01*
%TA.AperFunction,Conductor*%
D35*
G36*
X14750000Y17821418D02*
G01*
X16020444Y17821418D01*
X16061552Y17813241D01*
X16092537Y17792537D01*
X16113241Y17761552D01*
X16120512Y17725000D01*
X16113241Y17688448D01*
X16092537Y17657463D01*
X16061552Y17636759D01*
X16020444Y17628582D01*
X14750000Y17628582D01*
X14685897Y17622268D01*
X14659420Y17614236D01*
X14606526Y17605859D01*
X14582437Y17599573D01*
X14568736Y17593581D01*
X14457229Y17536765D01*
X14436261Y17523342D01*
X14425083Y17513410D01*
X14336590Y17424917D01*
X14320796Y17405671D01*
X14313235Y17392771D01*
X14256419Y17281264D01*
X14247345Y17258080D01*
X14244141Y17243474D01*
X14224564Y17119867D01*
X14223000Y17100000D01*
X14223000Y17050000D01*
X14224564Y17030133D01*
X14244141Y16906526D01*
X14250427Y16882437D01*
X14256419Y16868736D01*
X14313235Y16757229D01*
X14326658Y16736261D01*
X14336590Y16725083D01*
X14425083Y16636590D01*
X14444329Y16620796D01*
X14457229Y16613235D01*
X14568736Y16556419D01*
X14591920Y16547345D01*
X14606526Y16544141D01*
X14659420Y16535764D01*
X14685897Y16527732D01*
X14750000Y16521418D01*
X15849997Y16521418D01*
X15933871Y16508134D01*
X16009533Y16469582D01*
X16069582Y16409533D01*
X16108134Y16333871D01*
X16123000Y16240008D01*
X16123000Y15959992D01*
X16108134Y15866129D01*
X16069582Y15790467D01*
X16009533Y15730418D01*
X15933871Y15691866D01*
X15849997Y15678582D01*
X14750000Y15678582D01*
X14733939Y15677000D01*
X13334992Y15677000D01*
X13241129Y15691866D01*
X13165467Y15730418D01*
X13105418Y15790467D01*
X13066866Y15866129D01*
X13052000Y15959992D01*
X13052000Y17540008D01*
X13066866Y17633871D01*
X13105418Y17709533D01*
X13165467Y17769582D01*
X13241129Y17808134D01*
X13334992Y17823000D01*
X14733939Y17823000D01*
X14750000Y17821418D01*
G37*
%TD.AperFunction*%
D34*
X25063651Y16469133D02*
X25118970Y16432170D01*
X25155933Y16376851D01*
X25171400Y16299091D01*
X25171400Y15962509D01*
X25155933Y15884749D01*
X25118970Y15829430D01*
X25063651Y15792467D01*
X24985891Y15777000D01*
X20988109Y15777000D01*
X20910349Y15792467D01*
X20855030Y15829430D01*
X20818067Y15884749D01*
X20802600Y15962509D01*
X20802600Y16299091D01*
X20818067Y16376851D01*
X20855030Y16432170D01*
X20910349Y16469133D01*
X20920620Y16471176D01*
X22150000Y16471176D01*
X22223905Y16478455D01*
X22244163Y16484600D01*
X24985891Y16484600D01*
X25063651Y16469133D01*
%TA.AperFunction,Conductor*%
D35*
G36*
X25063651Y16469133D02*
G01*
X25118970Y16432170D01*
X25155933Y16376851D01*
X25171400Y16299091D01*
X25171400Y15962509D01*
X25155933Y15884749D01*
X25118970Y15829430D01*
X25063651Y15792467D01*
X24985891Y15777000D01*
X20988109Y15777000D01*
X20910349Y15792467D01*
X20855030Y15829430D01*
X20818067Y15884749D01*
X20802600Y15962509D01*
X20802600Y16299091D01*
X20818067Y16376851D01*
X20855030Y16432170D01*
X20910349Y16469133D01*
X20920620Y16471176D01*
X22150000Y16471176D01*
X22223905Y16478455D01*
X22244163Y16484600D01*
X24985891Y16484600D01*
X25063651Y16469133D01*
G37*
%TD.AperFunction*%
D34*
X17507047Y28779463D02*
X17603617Y28730258D01*
X17680258Y28653617D01*
X17729463Y28557047D01*
X17748000Y28440008D01*
X17748000Y28133328D01*
X17734231Y28028743D01*
X17697077Y27939045D01*
X17637976Y27862024D01*
X17560955Y27802923D01*
X17471257Y27765769D01*
X17380527Y27753824D01*
X16278339Y27753824D01*
X16219314Y27765565D01*
X16172108Y27797108D01*
X16140565Y27844314D01*
X16129488Y27900000D01*
X16140565Y27955686D01*
X16172108Y28002892D01*
X16219314Y28034435D01*
X16287509Y28048000D01*
X16550000Y28048000D01*
X16569867Y28049564D01*
X16685748Y28067918D01*
X16709838Y28074204D01*
X16723538Y28080196D01*
X16828076Y28133461D01*
X16849044Y28146884D01*
X16860222Y28156816D01*
X16943184Y28239778D01*
X16958978Y28259024D01*
X16966539Y28271924D01*
X17019804Y28376462D01*
X17028878Y28399646D01*
X17032082Y28414252D01*
X17065643Y28626144D01*
X17100644Y28694838D01*
X17155162Y28749356D01*
X17223856Y28784357D01*
X17309992Y28798000D01*
X17390008Y28798000D01*
X17507047Y28779463D01*
%TA.AperFunction,Conductor*%
D35*
G36*
X17507047Y28779463D02*
G01*
X17603617Y28730258D01*
X17680258Y28653617D01*
X17729463Y28557047D01*
X17748000Y28440008D01*
X17748000Y28133328D01*
X17734231Y28028743D01*
X17697077Y27939045D01*
X17637976Y27862024D01*
X17560955Y27802923D01*
X17471257Y27765769D01*
X17380527Y27753824D01*
X16278339Y27753824D01*
X16219314Y27765565D01*
X16172108Y27797108D01*
X16140565Y27844314D01*
X16129488Y27900000D01*
X16140565Y27955686D01*
X16172108Y28002892D01*
X16219314Y28034435D01*
X16287509Y28048000D01*
X16550000Y28048000D01*
X16569867Y28049564D01*
X16685748Y28067918D01*
X16709838Y28074204D01*
X16723538Y28080196D01*
X16828076Y28133461D01*
X16849044Y28146884D01*
X16860222Y28156816D01*
X16943184Y28239778D01*
X16958978Y28259024D01*
X16966539Y28271924D01*
X17019804Y28376462D01*
X17028878Y28399646D01*
X17032082Y28414252D01*
X17065643Y28626144D01*
X17100644Y28694838D01*
X17155162Y28749356D01*
X17223856Y28784357D01*
X17309992Y28798000D01*
X17390008Y28798000D01*
X17507047Y28779463D01*
G37*
%TD.AperFunction*%
D34*
X17533871Y30233134D02*
X17609533Y30194582D01*
X17669582Y30134533D01*
X17708134Y30058871D01*
X17721417Y29975000D01*
X17708134Y29891129D01*
X17669582Y29815467D01*
X17609533Y29755418D01*
X17533871Y29716866D01*
X17440008Y29702000D01*
X16125000Y29702000D01*
X16108423Y29700914D01*
X15979013Y29683877D01*
X15946989Y29675296D01*
X15826399Y29625346D01*
X15797687Y29608768D01*
X15694134Y29529308D01*
X15670692Y29505866D01*
X15591232Y29402313D01*
X15574654Y29373601D01*
X15524704Y29253011D01*
X15516123Y29220987D01*
X15499086Y29091577D01*
X15498000Y29075000D01*
X15498000Y28837509D01*
X15484435Y28769314D01*
X15452892Y28722108D01*
X15405686Y28690565D01*
X15350000Y28679488D01*
X15294314Y28690565D01*
X15247108Y28722108D01*
X15215565Y28769314D01*
X15203824Y28828339D01*
X15203824Y29880527D01*
X15215769Y29971257D01*
X15252923Y30060955D01*
X15312024Y30137976D01*
X15389045Y30197077D01*
X15478743Y30234231D01*
X15583328Y30248000D01*
X17440008Y30248000D01*
X17533871Y30233134D01*
%TA.AperFunction,Conductor*%
D35*
G36*
X17533871Y30233134D02*
G01*
X17609533Y30194582D01*
X17669582Y30134533D01*
X17708134Y30058871D01*
X17721417Y29975000D01*
X17708134Y29891129D01*
X17669582Y29815467D01*
X17609533Y29755418D01*
X17533871Y29716866D01*
X17440008Y29702000D01*
X16125000Y29702000D01*
X16108423Y29700914D01*
X15979013Y29683877D01*
X15946989Y29675296D01*
X15826399Y29625346D01*
X15797687Y29608768D01*
X15694134Y29529308D01*
X15670692Y29505866D01*
X15591232Y29402313D01*
X15574654Y29373601D01*
X15524704Y29253011D01*
X15516123Y29220987D01*
X15499086Y29091577D01*
X15498000Y29075000D01*
X15498000Y28837509D01*
X15484435Y28769314D01*
X15452892Y28722108D01*
X15405686Y28690565D01*
X15350000Y28679488D01*
X15294314Y28690565D01*
X15247108Y28722108D01*
X15215565Y28769314D01*
X15203824Y28828339D01*
X15203824Y29880527D01*
X15215769Y29971257D01*
X15252923Y30060955D01*
X15312024Y30137976D01*
X15389045Y30197077D01*
X15478743Y30234231D01*
X15583328Y30248000D01*
X17440008Y30248000D01*
X17533871Y30233134D01*
G37*
%TD.AperFunction*%
D34*
X22816889Y38846214D02*
X22921424Y38832396D01*
X23011075Y38795217D01*
X23088050Y38736111D01*
X23147114Y38659101D01*
X23184242Y38569429D01*
X23198000Y38464890D01*
X23198000Y38384949D01*
X23184247Y38280423D01*
X23147133Y38190767D01*
X23088097Y38113770D01*
X23011143Y38054658D01*
X22921523Y38017465D01*
X22817013Y38003620D01*
X22774385Y38003582D01*
X21825000Y38003582D01*
X21816329Y38002728D01*
X21424887Y38002379D01*
X21405032Y38000799D01*
X21273673Y37979886D01*
X21249589Y37973581D01*
X21235913Y37967588D01*
X21117435Y37907127D01*
X21096476Y37893691D01*
X21085320Y37883767D01*
X20991308Y37789671D01*
X20975523Y37770419D01*
X20967978Y37757535D01*
X20907623Y37639003D01*
X20898555Y37615817D01*
X20895358Y37601233D01*
X20874562Y37469856D01*
X20873098Y37445003D01*
X20874564Y37430133D01*
X20895365Y37298801D01*
X20901651Y37274711D01*
X20907643Y37261011D01*
X20968010Y37142534D01*
X20981433Y37121566D01*
X20991365Y37110388D01*
X21085388Y37016365D01*
X21104634Y37000571D01*
X21117534Y36993010D01*
X21236011Y36932643D01*
X21259195Y36923569D01*
X21273801Y36920365D01*
X21405133Y36899564D01*
X21425000Y36898000D01*
X21808939Y36898000D01*
X21825000Y36896418D01*
X22828688Y36896418D01*
X22921257Y36884231D01*
X23010955Y36847077D01*
X23087976Y36787976D01*
X23147077Y36710955D01*
X23184231Y36621257D01*
X23198000Y36516672D01*
X23198000Y36430056D01*
X23184212Y36325399D01*
X23147005Y36235648D01*
X23087820Y36158595D01*
X23010700Y36099502D01*
X22920907Y36062401D01*
X22853360Y36053582D01*
X21825000Y36053582D01*
X21808939Y36052000D01*
X20404479Y36052000D01*
X20303393Y36065419D01*
X20213795Y36102624D01*
X20136870Y36161733D01*
X20077848Y36238731D01*
X20040748Y36328372D01*
X20027000Y36432875D01*
X20027000Y38466247D01*
X20040778Y38570865D01*
X20077957Y38660587D01*
X20137099Y38737624D01*
X20214171Y38796724D01*
X20303912Y38833852D01*
X20408536Y38847570D01*
X22816889Y38846214D01*
%TA.AperFunction,Conductor*%
D35*
G36*
X22816889Y38846214D02*
G01*
X22921424Y38832396D01*
X23011075Y38795217D01*
X23088050Y38736111D01*
X23147114Y38659101D01*
X23184242Y38569429D01*
X23198000Y38464890D01*
X23198000Y38384949D01*
X23184247Y38280423D01*
X23147133Y38190767D01*
X23088097Y38113770D01*
X23011143Y38054658D01*
X22921523Y38017465D01*
X22817013Y38003620D01*
X22774385Y38003582D01*
X21825000Y38003582D01*
X21816329Y38002728D01*
X21424887Y38002379D01*
X21405032Y38000799D01*
X21273673Y37979886D01*
X21249589Y37973581D01*
X21235913Y37967588D01*
X21117435Y37907127D01*
X21096476Y37893691D01*
X21085320Y37883767D01*
X20991308Y37789671D01*
X20975523Y37770419D01*
X20967978Y37757535D01*
X20907623Y37639003D01*
X20898555Y37615817D01*
X20895358Y37601233D01*
X20874562Y37469856D01*
X20873098Y37445003D01*
X20874564Y37430133D01*
X20895365Y37298801D01*
X20901651Y37274711D01*
X20907643Y37261011D01*
X20968010Y37142534D01*
X20981433Y37121566D01*
X20991365Y37110388D01*
X21085388Y37016365D01*
X21104634Y37000571D01*
X21117534Y36993010D01*
X21236011Y36932643D01*
X21259195Y36923569D01*
X21273801Y36920365D01*
X21405133Y36899564D01*
X21425000Y36898000D01*
X21808939Y36898000D01*
X21825000Y36896418D01*
X22828688Y36896418D01*
X22921257Y36884231D01*
X23010955Y36847077D01*
X23087976Y36787976D01*
X23147077Y36710955D01*
X23184231Y36621257D01*
X23198000Y36516672D01*
X23198000Y36430056D01*
X23184212Y36325399D01*
X23147005Y36235648D01*
X23087820Y36158595D01*
X23010700Y36099502D01*
X22920907Y36062401D01*
X22853360Y36053582D01*
X21825000Y36053582D01*
X21808939Y36052000D01*
X20404479Y36052000D01*
X20303393Y36065419D01*
X20213795Y36102624D01*
X20136870Y36161733D01*
X20077848Y36238731D01*
X20040748Y36328372D01*
X20027000Y36432875D01*
X20027000Y38466247D01*
X20040778Y38570865D01*
X20077957Y38660587D01*
X20137099Y38737624D01*
X20214171Y38796724D01*
X20303912Y38833852D01*
X20408536Y38847570D01*
X22816889Y38846214D01*
G37*
%TD.AperFunction*%
D34*
X21825000Y34946418D02*
X22670444Y34946418D01*
X22711552Y34938241D01*
X22742537Y34917537D01*
X22763241Y34886552D01*
X22770512Y34850000D01*
X22763241Y34813448D01*
X22742537Y34782463D01*
X22711552Y34761759D01*
X22670444Y34753582D01*
X21825000Y34753582D01*
X21808939Y34752000D01*
X21750000Y34752000D01*
X21725224Y34749560D01*
X21610419Y34726724D01*
X21586594Y34719497D01*
X21564637Y34707761D01*
X21467310Y34642729D01*
X21448065Y34626934D01*
X21432271Y34607690D01*
X21367239Y34510363D01*
X21355503Y34488406D01*
X21348276Y34464581D01*
X21325440Y34349776D01*
X21323000Y34325000D01*
X21323000Y31025000D01*
X21325440Y31000224D01*
X21348276Y30885419D01*
X21355503Y30861594D01*
X21367239Y30839637D01*
X21432271Y30742310D01*
X21448066Y30723065D01*
X21467310Y30707271D01*
X21564637Y30642239D01*
X21586594Y30630503D01*
X21610419Y30623276D01*
X21725224Y30600440D01*
X21750000Y30598000D01*
X34037491Y30598000D01*
X34115251Y30582533D01*
X34170570Y30545570D01*
X34207533Y30490251D01*
X34223000Y30412491D01*
X34223000Y28587509D01*
X34207533Y28509749D01*
X34170570Y28454430D01*
X34115251Y28417467D01*
X34037491Y28402000D01*
X33612509Y28402000D01*
X33534749Y28417467D01*
X33479430Y28454430D01*
X33442467Y28509749D01*
X33427000Y28587509D01*
X33427000Y29475000D01*
X33424560Y29499776D01*
X33401724Y29614581D01*
X33394497Y29638406D01*
X33382761Y29660363D01*
X33317729Y29757690D01*
X33301934Y29776935D01*
X33282690Y29792729D01*
X33185363Y29857761D01*
X33163406Y29869497D01*
X33139581Y29876724D01*
X33024776Y29899560D01*
X33000000Y29902000D01*
X21012509Y29902000D01*
X20934749Y29917467D01*
X20879430Y29954430D01*
X20842467Y30009749D01*
X20827000Y30087509D01*
X20827000Y34762491D01*
X20842467Y34840251D01*
X20879430Y34895570D01*
X20934749Y34932533D01*
X21012509Y34948000D01*
X21808939Y34948000D01*
X21825000Y34946418D01*
%TA.AperFunction,Conductor*%
D35*
G36*
X21825000Y34946418D02*
G01*
X22670444Y34946418D01*
X22711552Y34938241D01*
X22742537Y34917537D01*
X22763241Y34886552D01*
X22770512Y34850000D01*
X22763241Y34813448D01*
X22742537Y34782463D01*
X22711552Y34761759D01*
X22670444Y34753582D01*
X21825000Y34753582D01*
X21808939Y34752000D01*
X21750000Y34752000D01*
X21725224Y34749560D01*
X21610419Y34726724D01*
X21586594Y34719497D01*
X21564637Y34707761D01*
X21467310Y34642729D01*
X21448065Y34626934D01*
X21432271Y34607690D01*
X21367239Y34510363D01*
X21355503Y34488406D01*
X21348276Y34464581D01*
X21325440Y34349776D01*
X21323000Y34325000D01*
X21323000Y31025000D01*
X21325440Y31000224D01*
X21348276Y30885419D01*
X21355503Y30861594D01*
X21367239Y30839637D01*
X21432271Y30742310D01*
X21448066Y30723065D01*
X21467310Y30707271D01*
X21564637Y30642239D01*
X21586594Y30630503D01*
X21610419Y30623276D01*
X21725224Y30600440D01*
X21750000Y30598000D01*
X34037491Y30598000D01*
X34115251Y30582533D01*
X34170570Y30545570D01*
X34207533Y30490251D01*
X34223000Y30412491D01*
X34223000Y28587509D01*
X34207533Y28509749D01*
X34170570Y28454430D01*
X34115251Y28417467D01*
X34037491Y28402000D01*
X33612509Y28402000D01*
X33534749Y28417467D01*
X33479430Y28454430D01*
X33442467Y28509749D01*
X33427000Y28587509D01*
X33427000Y29475000D01*
X33424560Y29499776D01*
X33401724Y29614581D01*
X33394497Y29638406D01*
X33382761Y29660363D01*
X33317729Y29757690D01*
X33301934Y29776935D01*
X33282690Y29792729D01*
X33185363Y29857761D01*
X33163406Y29869497D01*
X33139581Y29876724D01*
X33024776Y29899560D01*
X33000000Y29902000D01*
X21012509Y29902000D01*
X20934749Y29917467D01*
X20879430Y29954430D01*
X20842467Y30009749D01*
X20827000Y30087509D01*
X20827000Y34762491D01*
X20842467Y34840251D01*
X20879430Y34895570D01*
X20934749Y34932533D01*
X21012509Y34948000D01*
X21808939Y34948000D01*
X21825000Y34946418D01*
G37*
%TD.AperFunction*%
D34*
X21825000Y35596418D02*
X22138954Y35596418D01*
X22150000Y35595330D01*
X22161046Y35596418D01*
X22670444Y35596418D01*
X22711552Y35588241D01*
X22742537Y35567537D01*
X22763241Y35536552D01*
X22770512Y35500000D01*
X22763241Y35463448D01*
X22742537Y35432463D01*
X22711552Y35411759D01*
X22670444Y35403582D01*
X21825000Y35403582D01*
X21808939Y35402000D01*
X20500000Y35402000D01*
X20475224Y35399560D01*
X20360419Y35376724D01*
X20336594Y35369497D01*
X20314637Y35357761D01*
X20217310Y35292729D01*
X20198065Y35276934D01*
X20182271Y35257690D01*
X20117239Y35160363D01*
X20105503Y35138406D01*
X20098276Y35114581D01*
X20075440Y34999776D01*
X20073000Y34975000D01*
X20073000Y28025000D01*
X20075440Y28000224D01*
X20098276Y27885419D01*
X20105503Y27861594D01*
X20117239Y27839637D01*
X20182271Y27742310D01*
X20198066Y27723065D01*
X20217310Y27707271D01*
X20314637Y27642239D01*
X20336594Y27630503D01*
X20360419Y27623276D01*
X20475224Y27600440D01*
X20500000Y27598000D01*
X34059333Y27598000D01*
X34137564Y27582335D01*
X34193083Y27544930D01*
X34229919Y27489032D01*
X34244786Y27410642D01*
X34226127Y25582053D01*
X34210300Y25505469D01*
X34173733Y25450968D01*
X34119293Y25414308D01*
X34042739Y25398351D01*
X33609552Y25393194D01*
X33531829Y25407648D01*
X33476169Y25443751D01*
X33438499Y25498361D01*
X33421842Y25575642D01*
X33406860Y26482057D01*
X33404065Y26506534D01*
X33379825Y26619808D01*
X33372254Y26643525D01*
X33360500Y26664876D01*
X33295153Y26760522D01*
X33279161Y26779603D01*
X33260192Y26794910D01*
X33163479Y26858668D01*
X33141450Y26870268D01*
X33118096Y26877247D01*
X33004437Y26899611D01*
X32979918Y26902000D01*
X19687509Y26902000D01*
X19609749Y26917467D01*
X19554430Y26954430D01*
X19517467Y27009749D01*
X19502000Y27087509D01*
X19502000Y35412491D01*
X19517467Y35490251D01*
X19554430Y35545570D01*
X19609749Y35582533D01*
X19687509Y35598000D01*
X21808939Y35598000D01*
X21825000Y35596418D01*
%TA.AperFunction,Conductor*%
D35*
G36*
X21825000Y35596418D02*
G01*
X22138954Y35596418D01*
X22150000Y35595330D01*
X22161046Y35596418D01*
X22670444Y35596418D01*
X22711552Y35588241D01*
X22742537Y35567537D01*
X22763241Y35536552D01*
X22770512Y35500000D01*
X22763241Y35463448D01*
X22742537Y35432463D01*
X22711552Y35411759D01*
X22670444Y35403582D01*
X21825000Y35403582D01*
X21808939Y35402000D01*
X20500000Y35402000D01*
X20475224Y35399560D01*
X20360419Y35376724D01*
X20336594Y35369497D01*
X20314637Y35357761D01*
X20217310Y35292729D01*
X20198065Y35276934D01*
X20182271Y35257690D01*
X20117239Y35160363D01*
X20105503Y35138406D01*
X20098276Y35114581D01*
X20075440Y34999776D01*
X20073000Y34975000D01*
X20073000Y28025000D01*
X20075440Y28000224D01*
X20098276Y27885419D01*
X20105503Y27861594D01*
X20117239Y27839637D01*
X20182271Y27742310D01*
X20198066Y27723065D01*
X20217310Y27707271D01*
X20314637Y27642239D01*
X20336594Y27630503D01*
X20360419Y27623276D01*
X20475224Y27600440D01*
X20500000Y27598000D01*
X34059333Y27598000D01*
X34137564Y27582335D01*
X34193083Y27544930D01*
X34229919Y27489032D01*
X34244786Y27410642D01*
X34226127Y25582053D01*
X34210300Y25505469D01*
X34173733Y25450968D01*
X34119293Y25414308D01*
X34042739Y25398351D01*
X33609552Y25393194D01*
X33531829Y25407648D01*
X33476169Y25443751D01*
X33438499Y25498361D01*
X33421842Y25575642D01*
X33406860Y26482057D01*
X33404065Y26506534D01*
X33379825Y26619808D01*
X33372254Y26643525D01*
X33360500Y26664876D01*
X33295153Y26760522D01*
X33279161Y26779603D01*
X33260192Y26794910D01*
X33163479Y26858668D01*
X33141450Y26870268D01*
X33118096Y26877247D01*
X33004437Y26899611D01*
X32979918Y26902000D01*
X19687509Y26902000D01*
X19609749Y26917467D01*
X19554430Y26954430D01*
X19517467Y27009749D01*
X19502000Y27087509D01*
X19502000Y35412491D01*
X19517467Y35490251D01*
X19554430Y35545570D01*
X19609749Y35582533D01*
X19687509Y35598000D01*
X21808939Y35598000D01*
X21825000Y35596418D01*
G37*
%TD.AperFunction*%
D34*
X23093964Y34282806D02*
X23148992Y34246462D01*
X23186122Y34191953D01*
X23202414Y34115080D01*
X23206289Y33843900D01*
X23209036Y33819384D01*
X23233087Y33705901D01*
X23240611Y33682169D01*
X23252364Y33660735D01*
X23317670Y33564861D01*
X23333635Y33545758D01*
X23352643Y33530385D01*
X23449440Y33466455D01*
X23471459Y33454837D01*
X23494876Y33447824D01*
X23608691Y33425396D01*
X23633245Y33423000D01*
X25337491Y33423000D01*
X25415251Y33407533D01*
X25470570Y33370570D01*
X25507533Y33315251D01*
X25523000Y33237491D01*
X25523000Y32687509D01*
X25507533Y32609749D01*
X25470570Y32554430D01*
X25415251Y32517467D01*
X25337491Y32502000D01*
X22137509Y32502000D01*
X22059749Y32517467D01*
X22004430Y32554430D01*
X21967467Y32609749D01*
X21952000Y32687509D01*
X21952000Y34112491D01*
X21967467Y34190251D01*
X22004430Y34245570D01*
X22059749Y34282533D01*
X22129556Y34296418D01*
X23024888Y34296418D01*
X23093964Y34282806D01*
%TA.AperFunction,Conductor*%
D35*
G36*
X23093964Y34282806D02*
G01*
X23148992Y34246462D01*
X23186122Y34191953D01*
X23202414Y34115080D01*
X23206289Y33843900D01*
X23209036Y33819384D01*
X23233087Y33705901D01*
X23240611Y33682169D01*
X23252364Y33660735D01*
X23317670Y33564861D01*
X23333635Y33545758D01*
X23352643Y33530385D01*
X23449440Y33466455D01*
X23471459Y33454837D01*
X23494876Y33447824D01*
X23608691Y33425396D01*
X23633245Y33423000D01*
X25337491Y33423000D01*
X25415251Y33407533D01*
X25470570Y33370570D01*
X25507533Y33315251D01*
X25523000Y33237491D01*
X25523000Y32687509D01*
X25507533Y32609749D01*
X25470570Y32554430D01*
X25415251Y32517467D01*
X25337491Y32502000D01*
X22137509Y32502000D01*
X22059749Y32517467D01*
X22004430Y32554430D01*
X21967467Y32609749D01*
X21952000Y32687509D01*
X21952000Y34112491D01*
X21967467Y34190251D01*
X22004430Y34245570D01*
X22059749Y34282533D01*
X22129556Y34296418D01*
X23024888Y34296418D01*
X23093964Y34282806D01*
G37*
%TD.AperFunction*%
D34*
X33946257Y36584231D02*
X34035955Y36547077D01*
X34112976Y36487976D01*
X34172077Y36410955D01*
X34209231Y36321257D01*
X34223000Y36216672D01*
X34223000Y34783328D01*
X34209231Y34678743D01*
X34172077Y34589045D01*
X34112976Y34512024D01*
X34035955Y34452923D01*
X33946257Y34415769D01*
X33841672Y34402000D01*
X33808328Y34402000D01*
X33703743Y34415769D01*
X33614045Y34452923D01*
X33537024Y34512024D01*
X33477923Y34589045D01*
X33440769Y34678743D01*
X33408877Y34920987D01*
X33400296Y34953011D01*
X33350346Y35073601D01*
X33333768Y35102313D01*
X33254308Y35205866D01*
X33230866Y35229308D01*
X33127313Y35308768D01*
X33098601Y35325346D01*
X32978011Y35375296D01*
X32945987Y35383877D01*
X32816577Y35400914D01*
X32800000Y35402000D01*
X29241061Y35402000D01*
X29225000Y35403582D01*
X27954556Y35403582D01*
X27913448Y35411759D01*
X27882463Y35432463D01*
X27861759Y35463448D01*
X27854488Y35500000D01*
X27861759Y35536552D01*
X27882463Y35567537D01*
X27913448Y35588241D01*
X27954556Y35596418D01*
X29225000Y35596418D01*
X29241061Y35598000D01*
X29512500Y35598000D01*
X29545370Y35602327D01*
X29639120Y35627447D01*
X29662420Y35636217D01*
X29683562Y35649364D01*
X29696053Y35660317D01*
X29764683Y35728947D01*
X29780477Y35748193D01*
X29792213Y35770149D01*
X29797553Y35785880D01*
X29838985Y35940509D01*
X29859491Y35961015D01*
X29904221Y35973000D01*
X32987500Y35973000D01*
X33012277Y35975440D01*
X33131866Y35999228D01*
X33155690Y36006455D01*
X33177646Y36018191D01*
X33279028Y36085932D01*
X33298273Y36101726D01*
X33314068Y36120972D01*
X33381809Y36222354D01*
X33393545Y36244310D01*
X33400772Y36268134D01*
X33443420Y36482537D01*
X33483091Y36541909D01*
X33542463Y36581580D01*
X33625010Y36598000D01*
X33841672Y36598000D01*
X33946257Y36584231D01*
%TA.AperFunction,Conductor*%
D35*
G36*
X33946257Y36584231D02*
G01*
X34035955Y36547077D01*
X34112976Y36487976D01*
X34172077Y36410955D01*
X34209231Y36321257D01*
X34223000Y36216672D01*
X34223000Y34783328D01*
X34209231Y34678743D01*
X34172077Y34589045D01*
X34112976Y34512024D01*
X34035955Y34452923D01*
X33946257Y34415769D01*
X33841672Y34402000D01*
X33808328Y34402000D01*
X33703743Y34415769D01*
X33614045Y34452923D01*
X33537024Y34512024D01*
X33477923Y34589045D01*
X33440769Y34678743D01*
X33408877Y34920987D01*
X33400296Y34953011D01*
X33350346Y35073601D01*
X33333768Y35102313D01*
X33254308Y35205866D01*
X33230866Y35229308D01*
X33127313Y35308768D01*
X33098601Y35325346D01*
X32978011Y35375296D01*
X32945987Y35383877D01*
X32816577Y35400914D01*
X32800000Y35402000D01*
X29241061Y35402000D01*
X29225000Y35403582D01*
X27954556Y35403582D01*
X27913448Y35411759D01*
X27882463Y35432463D01*
X27861759Y35463448D01*
X27854488Y35500000D01*
X27861759Y35536552D01*
X27882463Y35567537D01*
X27913448Y35588241D01*
X27954556Y35596418D01*
X29225000Y35596418D01*
X29241061Y35598000D01*
X29512500Y35598000D01*
X29545370Y35602327D01*
X29639120Y35627447D01*
X29662420Y35636217D01*
X29683562Y35649364D01*
X29696053Y35660317D01*
X29764683Y35728947D01*
X29780477Y35748193D01*
X29792213Y35770149D01*
X29797553Y35785880D01*
X29838985Y35940509D01*
X29859491Y35961015D01*
X29904221Y35973000D01*
X32987500Y35973000D01*
X33012277Y35975440D01*
X33131866Y35999228D01*
X33155690Y36006455D01*
X33177646Y36018191D01*
X33279028Y36085932D01*
X33298273Y36101726D01*
X33314068Y36120972D01*
X33381809Y36222354D01*
X33393545Y36244310D01*
X33400772Y36268134D01*
X33443420Y36482537D01*
X33483091Y36541909D01*
X33542463Y36581580D01*
X33625010Y36598000D01*
X33841672Y36598000D01*
X33946257Y36584231D01*
G37*
%TD.AperFunction*%
D34*
X31015089Y34933989D02*
X31105436Y34896199D01*
X31182789Y34836129D01*
X31241778Y34757950D01*
X31278311Y34667087D01*
X31290854Y34561428D01*
X31286303Y34233708D01*
X31287177Y34216972D01*
X31302700Y34086217D01*
X31310982Y34053813D01*
X31360102Y33931644D01*
X31376555Y33902526D01*
X31455864Y33797416D01*
X31479348Y33773603D01*
X31583346Y33692842D01*
X31612233Y33675986D01*
X31733708Y33625175D01*
X31765993Y33616444D01*
X31896520Y33599106D01*
X31913243Y33598000D01*
X33865008Y33598000D01*
X33982047Y33579463D01*
X34078617Y33530258D01*
X34155258Y33453617D01*
X34204463Y33357047D01*
X34223000Y33240008D01*
X34223000Y31783328D01*
X34209231Y31678743D01*
X34172077Y31589045D01*
X34112976Y31512024D01*
X34035955Y31452923D01*
X33946257Y31415769D01*
X33841672Y31402000D01*
X33808328Y31402000D01*
X33703743Y31415769D01*
X33614045Y31452923D01*
X33537024Y31512024D01*
X33477923Y31589045D01*
X33440769Y31678743D01*
X33427000Y31783328D01*
X33427000Y32275000D01*
X33425914Y32291577D01*
X33408877Y32420987D01*
X33400296Y32453011D01*
X33350346Y32573601D01*
X33333768Y32602313D01*
X33254308Y32705866D01*
X33230866Y32729308D01*
X33127313Y32808768D01*
X33098601Y32825346D01*
X32978011Y32875296D01*
X32945987Y32883877D01*
X32816577Y32900914D01*
X32800000Y32902000D01*
X30933328Y32902000D01*
X30828743Y32915769D01*
X30739045Y32952923D01*
X30662024Y33012024D01*
X30602923Y33089045D01*
X30565769Y33178743D01*
X30552000Y33283328D01*
X30552000Y34125000D01*
X30550914Y34141577D01*
X30533877Y34270987D01*
X30525296Y34303011D01*
X30475346Y34423601D01*
X30458768Y34452313D01*
X30379308Y34555866D01*
X30355866Y34579308D01*
X30252313Y34658768D01*
X30223601Y34675346D01*
X30103011Y34725296D01*
X30070987Y34733877D01*
X29941577Y34750914D01*
X29925000Y34752000D01*
X29241061Y34752000D01*
X29225000Y34753582D01*
X27954556Y34753582D01*
X27913448Y34761759D01*
X27882463Y34782463D01*
X27861759Y34813448D01*
X27854488Y34850000D01*
X27861759Y34886552D01*
X27882463Y34917537D01*
X27913448Y34938241D01*
X27954556Y34946418D01*
X29225000Y34946418D01*
X29241061Y34948000D01*
X30909610Y34948000D01*
X31015089Y34933989D01*
%TA.AperFunction,Conductor*%
D35*
G36*
X31015089Y34933989D02*
G01*
X31105436Y34896199D01*
X31182789Y34836129D01*
X31241778Y34757950D01*
X31278311Y34667087D01*
X31290854Y34561428D01*
X31286303Y34233708D01*
X31287177Y34216972D01*
X31302700Y34086217D01*
X31310982Y34053813D01*
X31360102Y33931644D01*
X31376555Y33902526D01*
X31455864Y33797416D01*
X31479348Y33773603D01*
X31583346Y33692842D01*
X31612233Y33675986D01*
X31733708Y33625175D01*
X31765993Y33616444D01*
X31896520Y33599106D01*
X31913243Y33598000D01*
X33865008Y33598000D01*
X33982047Y33579463D01*
X34078617Y33530258D01*
X34155258Y33453617D01*
X34204463Y33357047D01*
X34223000Y33240008D01*
X34223000Y31783328D01*
X34209231Y31678743D01*
X34172077Y31589045D01*
X34112976Y31512024D01*
X34035955Y31452923D01*
X33946257Y31415769D01*
X33841672Y31402000D01*
X33808328Y31402000D01*
X33703743Y31415769D01*
X33614045Y31452923D01*
X33537024Y31512024D01*
X33477923Y31589045D01*
X33440769Y31678743D01*
X33427000Y31783328D01*
X33427000Y32275000D01*
X33425914Y32291577D01*
X33408877Y32420987D01*
X33400296Y32453011D01*
X33350346Y32573601D01*
X33333768Y32602313D01*
X33254308Y32705866D01*
X33230866Y32729308D01*
X33127313Y32808768D01*
X33098601Y32825346D01*
X32978011Y32875296D01*
X32945987Y32883877D01*
X32816577Y32900914D01*
X32800000Y32902000D01*
X30933328Y32902000D01*
X30828743Y32915769D01*
X30739045Y32952923D01*
X30662024Y33012024D01*
X30602923Y33089045D01*
X30565769Y33178743D01*
X30552000Y33283328D01*
X30552000Y34125000D01*
X30550914Y34141577D01*
X30533877Y34270987D01*
X30525296Y34303011D01*
X30475346Y34423601D01*
X30458768Y34452313D01*
X30379308Y34555866D01*
X30355866Y34579308D01*
X30252313Y34658768D01*
X30223601Y34675346D01*
X30103011Y34725296D01*
X30070987Y34733877D01*
X29941577Y34750914D01*
X29925000Y34752000D01*
X29241061Y34752000D01*
X29225000Y34753582D01*
X27954556Y34753582D01*
X27913448Y34761759D01*
X27882463Y34782463D01*
X27861759Y34813448D01*
X27854488Y34850000D01*
X27861759Y34886552D01*
X27882463Y34917537D01*
X27913448Y34938241D01*
X27954556Y34946418D01*
X29225000Y34946418D01*
X29241061Y34948000D01*
X30909610Y34948000D01*
X31015089Y34933989D01*
G37*
%TD.AperFunction*%
D34*
X33946257Y24584231D02*
X34035955Y24547077D01*
X34112976Y24487976D01*
X34172077Y24410955D01*
X34209231Y24321257D01*
X34223000Y24216672D01*
X34223000Y22783328D01*
X34209231Y22678743D01*
X34172077Y22589045D01*
X34112976Y22512024D01*
X34035955Y22452923D01*
X33946257Y22415769D01*
X33841672Y22402000D01*
X33808328Y22402000D01*
X33703743Y22415769D01*
X33614045Y22452923D01*
X33537024Y22512024D01*
X33477923Y22589045D01*
X33440769Y22678743D01*
X33427000Y22783328D01*
X33427000Y23275000D01*
X33425914Y23291577D01*
X33408877Y23420987D01*
X33400296Y23453011D01*
X33350346Y23573601D01*
X33333768Y23602313D01*
X33254308Y23705866D01*
X33230866Y23729308D01*
X33127313Y23808768D01*
X33098601Y23825346D01*
X32978011Y23875296D01*
X32945987Y23883877D01*
X32816577Y23900914D01*
X32800000Y23902000D01*
X27700000Y23902000D01*
X27683423Y23900914D01*
X27554013Y23883877D01*
X27521989Y23875296D01*
X27401399Y23825346D01*
X27372687Y23808768D01*
X27269134Y23729308D01*
X27245692Y23705866D01*
X27166232Y23602313D01*
X27149654Y23573601D01*
X27099704Y23453011D01*
X27091123Y23420987D01*
X27074086Y23291577D01*
X27073000Y23275000D01*
X27073000Y15408328D01*
X27059231Y15303743D01*
X27022077Y15214045D01*
X26962976Y15137024D01*
X26885955Y15077923D01*
X26796257Y15040769D01*
X26691672Y15027000D01*
X22166061Y15027000D01*
X22150000Y15028582D01*
X20879556Y15028582D01*
X20838448Y15036759D01*
X20807463Y15057463D01*
X20786759Y15088448D01*
X20779488Y15125000D01*
X20786759Y15161552D01*
X20807463Y15192537D01*
X20838448Y15213241D01*
X20879556Y15221418D01*
X21388954Y15221418D01*
X21400000Y15220330D01*
X21411046Y15221418D01*
X22150000Y15221418D01*
X22166061Y15223000D01*
X25500000Y15223000D01*
X25516577Y15224086D01*
X25645987Y15241123D01*
X25678011Y15249704D01*
X25798601Y15299654D01*
X25827313Y15316232D01*
X25930866Y15395692D01*
X25954308Y15419134D01*
X26033768Y15522687D01*
X26050346Y15551399D01*
X26100296Y15671989D01*
X26108877Y15704013D01*
X26125914Y15833423D01*
X26127000Y15850000D01*
X26127000Y24216672D01*
X26140769Y24321257D01*
X26177923Y24410955D01*
X26237024Y24487976D01*
X26314045Y24547077D01*
X26403743Y24584231D01*
X26508328Y24598000D01*
X33841672Y24598000D01*
X33946257Y24584231D01*
%TA.AperFunction,Conductor*%
D35*
G36*
X33946257Y24584231D02*
G01*
X34035955Y24547077D01*
X34112976Y24487976D01*
X34172077Y24410955D01*
X34209231Y24321257D01*
X34223000Y24216672D01*
X34223000Y22783328D01*
X34209231Y22678743D01*
X34172077Y22589045D01*
X34112976Y22512024D01*
X34035955Y22452923D01*
X33946257Y22415769D01*
X33841672Y22402000D01*
X33808328Y22402000D01*
X33703743Y22415769D01*
X33614045Y22452923D01*
X33537024Y22512024D01*
X33477923Y22589045D01*
X33440769Y22678743D01*
X33427000Y22783328D01*
X33427000Y23275000D01*
X33425914Y23291577D01*
X33408877Y23420987D01*
X33400296Y23453011D01*
X33350346Y23573601D01*
X33333768Y23602313D01*
X33254308Y23705866D01*
X33230866Y23729308D01*
X33127313Y23808768D01*
X33098601Y23825346D01*
X32978011Y23875296D01*
X32945987Y23883877D01*
X32816577Y23900914D01*
X32800000Y23902000D01*
X27700000Y23902000D01*
X27683423Y23900914D01*
X27554013Y23883877D01*
X27521989Y23875296D01*
X27401399Y23825346D01*
X27372687Y23808768D01*
X27269134Y23729308D01*
X27245692Y23705866D01*
X27166232Y23602313D01*
X27149654Y23573601D01*
X27099704Y23453011D01*
X27091123Y23420987D01*
X27074086Y23291577D01*
X27073000Y23275000D01*
X27073000Y15408328D01*
X27059231Y15303743D01*
X27022077Y15214045D01*
X26962976Y15137024D01*
X26885955Y15077923D01*
X26796257Y15040769D01*
X26691672Y15027000D01*
X22166061Y15027000D01*
X22150000Y15028582D01*
X20879556Y15028582D01*
X20838448Y15036759D01*
X20807463Y15057463D01*
X20786759Y15088448D01*
X20779488Y15125000D01*
X20786759Y15161552D01*
X20807463Y15192537D01*
X20838448Y15213241D01*
X20879556Y15221418D01*
X21388954Y15221418D01*
X21400000Y15220330D01*
X21411046Y15221418D01*
X22150000Y15221418D01*
X22166061Y15223000D01*
X25500000Y15223000D01*
X25516577Y15224086D01*
X25645987Y15241123D01*
X25678011Y15249704D01*
X25798601Y15299654D01*
X25827313Y15316232D01*
X25930866Y15395692D01*
X25954308Y15419134D01*
X26033768Y15522687D01*
X26050346Y15551399D01*
X26100296Y15671989D01*
X26108877Y15704013D01*
X26125914Y15833423D01*
X26127000Y15850000D01*
X26127000Y24216672D01*
X26140769Y24321257D01*
X26177923Y24410955D01*
X26237024Y24487976D01*
X26314045Y24547077D01*
X26403743Y24584231D01*
X26508328Y24598000D01*
X33841672Y24598000D01*
X33946257Y24584231D01*
G37*
%TD.AperFunction*%
D34*
X33946257Y21584231D02*
X34035955Y21547077D01*
X34112976Y21487976D01*
X34172077Y21410955D01*
X34209231Y21321257D01*
X34223000Y21216672D01*
X34223000Y19783328D01*
X34209231Y19678743D01*
X34172077Y19589045D01*
X34112976Y19512024D01*
X34035955Y19452923D01*
X33946257Y19415769D01*
X33841672Y19402000D01*
X33808328Y19402000D01*
X33703743Y19415769D01*
X33614045Y19452923D01*
X33537024Y19512024D01*
X33477923Y19589045D01*
X33440769Y19678743D01*
X33427000Y19783328D01*
X33427000Y20275000D01*
X33425914Y20291577D01*
X33408877Y20420987D01*
X33400296Y20453011D01*
X33350346Y20573601D01*
X33333768Y20602313D01*
X33254308Y20705866D01*
X33230866Y20729308D01*
X33127313Y20808768D01*
X33098601Y20825346D01*
X32978011Y20875296D01*
X32945987Y20883877D01*
X32816577Y20900914D01*
X32800000Y20902000D01*
X29400000Y20902000D01*
X29383423Y20900914D01*
X29254013Y20883877D01*
X29221989Y20875296D01*
X29101399Y20825346D01*
X29072687Y20808768D01*
X28969134Y20729308D01*
X28945692Y20705866D01*
X28866232Y20602313D01*
X28849654Y20573601D01*
X28799704Y20453011D01*
X28791123Y20420987D01*
X28774086Y20291577D01*
X28773000Y20275000D01*
X28773000Y14758328D01*
X28759231Y14653743D01*
X28722077Y14564045D01*
X28662976Y14487024D01*
X28585955Y14427923D01*
X28496257Y14390769D01*
X28391672Y14377000D01*
X22166061Y14377000D01*
X22150000Y14378582D01*
X22135936Y14378582D01*
X22125000Y14379659D01*
X22114065Y14378582D01*
X20879556Y14378582D01*
X20838448Y14386759D01*
X20807463Y14407463D01*
X20786759Y14438448D01*
X20779488Y14475000D01*
X20786759Y14511552D01*
X20807463Y14542537D01*
X20838448Y14563241D01*
X20879556Y14571418D01*
X22150000Y14571418D01*
X22166061Y14573000D01*
X27200000Y14573000D01*
X27216577Y14574086D01*
X27345987Y14591123D01*
X27378011Y14599704D01*
X27498601Y14649654D01*
X27527313Y14666232D01*
X27630866Y14745692D01*
X27654308Y14769134D01*
X27733768Y14872687D01*
X27750346Y14901399D01*
X27800296Y15021989D01*
X27808877Y15054013D01*
X27825914Y15183423D01*
X27827000Y15200000D01*
X27827000Y21216672D01*
X27840769Y21321257D01*
X27877923Y21410955D01*
X27937024Y21487976D01*
X28014045Y21547077D01*
X28103743Y21584231D01*
X28208328Y21598000D01*
X33841672Y21598000D01*
X33946257Y21584231D01*
%TA.AperFunction,Conductor*%
D35*
G36*
X33946257Y21584231D02*
G01*
X34035955Y21547077D01*
X34112976Y21487976D01*
X34172077Y21410955D01*
X34209231Y21321257D01*
X34223000Y21216672D01*
X34223000Y19783328D01*
X34209231Y19678743D01*
X34172077Y19589045D01*
X34112976Y19512024D01*
X34035955Y19452923D01*
X33946257Y19415769D01*
X33841672Y19402000D01*
X33808328Y19402000D01*
X33703743Y19415769D01*
X33614045Y19452923D01*
X33537024Y19512024D01*
X33477923Y19589045D01*
X33440769Y19678743D01*
X33427000Y19783328D01*
X33427000Y20275000D01*
X33425914Y20291577D01*
X33408877Y20420987D01*
X33400296Y20453011D01*
X33350346Y20573601D01*
X33333768Y20602313D01*
X33254308Y20705866D01*
X33230866Y20729308D01*
X33127313Y20808768D01*
X33098601Y20825346D01*
X32978011Y20875296D01*
X32945987Y20883877D01*
X32816577Y20900914D01*
X32800000Y20902000D01*
X29400000Y20902000D01*
X29383423Y20900914D01*
X29254013Y20883877D01*
X29221989Y20875296D01*
X29101399Y20825346D01*
X29072687Y20808768D01*
X28969134Y20729308D01*
X28945692Y20705866D01*
X28866232Y20602313D01*
X28849654Y20573601D01*
X28799704Y20453011D01*
X28791123Y20420987D01*
X28774086Y20291577D01*
X28773000Y20275000D01*
X28773000Y14758328D01*
X28759231Y14653743D01*
X28722077Y14564045D01*
X28662976Y14487024D01*
X28585955Y14427923D01*
X28496257Y14390769D01*
X28391672Y14377000D01*
X22166061Y14377000D01*
X22150000Y14378582D01*
X22135936Y14378582D01*
X22125000Y14379659D01*
X22114065Y14378582D01*
X20879556Y14378582D01*
X20838448Y14386759D01*
X20807463Y14407463D01*
X20786759Y14438448D01*
X20779488Y14475000D01*
X20786759Y14511552D01*
X20807463Y14542537D01*
X20838448Y14563241D01*
X20879556Y14571418D01*
X22150000Y14571418D01*
X22166061Y14573000D01*
X27200000Y14573000D01*
X27216577Y14574086D01*
X27345987Y14591123D01*
X27378011Y14599704D01*
X27498601Y14649654D01*
X27527313Y14666232D01*
X27630866Y14745692D01*
X27654308Y14769134D01*
X27733768Y14872687D01*
X27750346Y14901399D01*
X27800296Y15021989D01*
X27808877Y15054013D01*
X27825914Y15183423D01*
X27827000Y15200000D01*
X27827000Y21216672D01*
X27840769Y21321257D01*
X27877923Y21410955D01*
X27937024Y21487976D01*
X28014045Y21547077D01*
X28103743Y21584231D01*
X28208328Y21598000D01*
X33841672Y21598000D01*
X33946257Y21584231D01*
G37*
%TD.AperFunction*%
D34*
X34115251Y18582533D02*
X34170570Y18545570D01*
X34207533Y18490251D01*
X34223000Y18412491D01*
X34223000Y16587509D01*
X34207533Y16509749D01*
X34170570Y16454430D01*
X34115251Y16417467D01*
X34037491Y16402000D01*
X33612509Y16402000D01*
X33534749Y16417467D01*
X33479430Y16454430D01*
X33442467Y16509749D01*
X33427000Y16587509D01*
X33427000Y17475000D01*
X33424560Y17499776D01*
X33401724Y17614581D01*
X33394497Y17638406D01*
X33382761Y17660363D01*
X33317729Y17757690D01*
X33301934Y17776935D01*
X33282690Y17792729D01*
X33185363Y17857761D01*
X33163406Y17869497D01*
X33139581Y17876724D01*
X33024776Y17899560D01*
X33000000Y17902000D01*
X30900000Y17902000D01*
X30875224Y17899560D01*
X30760419Y17876724D01*
X30736594Y17869497D01*
X30714637Y17857761D01*
X30617310Y17792729D01*
X30598065Y17776934D01*
X30582271Y17757690D01*
X30517239Y17660363D01*
X30505503Y17638406D01*
X30498276Y17614581D01*
X30475440Y17499776D01*
X30473000Y17475000D01*
X30473000Y10512509D01*
X30457533Y10434749D01*
X30420570Y10379430D01*
X30365251Y10342467D01*
X30287491Y10327000D01*
X13537509Y10327000D01*
X13459749Y10342467D01*
X13404430Y10379430D01*
X13367467Y10434749D01*
X13352000Y10512509D01*
X13352000Y14387491D01*
X13367467Y14465251D01*
X13404430Y14520570D01*
X13459749Y14557533D01*
X13537509Y14573000D01*
X14733939Y14573000D01*
X14750000Y14571418D01*
X16020444Y14571418D01*
X16061552Y14563241D01*
X16092537Y14542537D01*
X16113241Y14511552D01*
X16120512Y14475000D01*
X16113241Y14438448D01*
X16092537Y14407463D01*
X16061552Y14386759D01*
X16020444Y14378582D01*
X14750000Y14378582D01*
X14733939Y14377000D01*
X14725000Y14377000D01*
X14700224Y14374560D01*
X14691452Y14372815D01*
X14685897Y14372268D01*
X14680556Y14370648D01*
X14585419Y14351724D01*
X14561594Y14344497D01*
X14539637Y14332761D01*
X14442310Y14267729D01*
X14423065Y14251934D01*
X14407271Y14232690D01*
X14342239Y14135363D01*
X14330503Y14113406D01*
X14323276Y14089581D01*
X14300440Y13974776D01*
X14298000Y13950000D01*
X14298000Y11700000D01*
X14300440Y11675224D01*
X14323276Y11560419D01*
X14330503Y11536594D01*
X14342239Y11514637D01*
X14407271Y11417310D01*
X14423066Y11398065D01*
X14442310Y11382271D01*
X14539637Y11317239D01*
X14561594Y11305503D01*
X14585419Y11298276D01*
X14700224Y11275440D01*
X14725000Y11273000D01*
X29100000Y11273000D01*
X29124776Y11275440D01*
X29239581Y11298276D01*
X29263406Y11305503D01*
X29285363Y11317239D01*
X29382690Y11382271D01*
X29401935Y11398066D01*
X29417729Y11417310D01*
X29482761Y11514637D01*
X29494497Y11536594D01*
X29501724Y11560419D01*
X29524560Y11675224D01*
X29527000Y11700000D01*
X29527000Y18412491D01*
X29542467Y18490251D01*
X29579430Y18545570D01*
X29634749Y18582533D01*
X29712509Y18598000D01*
X34037491Y18598000D01*
X34115251Y18582533D01*
%TA.AperFunction,Conductor*%
D35*
G36*
X34115251Y18582533D02*
G01*
X34170570Y18545570D01*
X34207533Y18490251D01*
X34223000Y18412491D01*
X34223000Y16587509D01*
X34207533Y16509749D01*
X34170570Y16454430D01*
X34115251Y16417467D01*
X34037491Y16402000D01*
X33612509Y16402000D01*
X33534749Y16417467D01*
X33479430Y16454430D01*
X33442467Y16509749D01*
X33427000Y16587509D01*
X33427000Y17475000D01*
X33424560Y17499776D01*
X33401724Y17614581D01*
X33394497Y17638406D01*
X33382761Y17660363D01*
X33317729Y17757690D01*
X33301934Y17776935D01*
X33282690Y17792729D01*
X33185363Y17857761D01*
X33163406Y17869497D01*
X33139581Y17876724D01*
X33024776Y17899560D01*
X33000000Y17902000D01*
X30900000Y17902000D01*
X30875224Y17899560D01*
X30760419Y17876724D01*
X30736594Y17869497D01*
X30714637Y17857761D01*
X30617310Y17792729D01*
X30598065Y17776934D01*
X30582271Y17757690D01*
X30517239Y17660363D01*
X30505503Y17638406D01*
X30498276Y17614581D01*
X30475440Y17499776D01*
X30473000Y17475000D01*
X30473000Y10512509D01*
X30457533Y10434749D01*
X30420570Y10379430D01*
X30365251Y10342467D01*
X30287491Y10327000D01*
X13537509Y10327000D01*
X13459749Y10342467D01*
X13404430Y10379430D01*
X13367467Y10434749D01*
X13352000Y10512509D01*
X13352000Y14387491D01*
X13367467Y14465251D01*
X13404430Y14520570D01*
X13459749Y14557533D01*
X13537509Y14573000D01*
X14733939Y14573000D01*
X14750000Y14571418D01*
X16020444Y14571418D01*
X16061552Y14563241D01*
X16092537Y14542537D01*
X16113241Y14511552D01*
X16120512Y14475000D01*
X16113241Y14438448D01*
X16092537Y14407463D01*
X16061552Y14386759D01*
X16020444Y14378582D01*
X14750000Y14378582D01*
X14733939Y14377000D01*
X14725000Y14377000D01*
X14700224Y14374560D01*
X14691452Y14372815D01*
X14685897Y14372268D01*
X14680556Y14370648D01*
X14585419Y14351724D01*
X14561594Y14344497D01*
X14539637Y14332761D01*
X14442310Y14267729D01*
X14423065Y14251934D01*
X14407271Y14232690D01*
X14342239Y14135363D01*
X14330503Y14113406D01*
X14323276Y14089581D01*
X14300440Y13974776D01*
X14298000Y13950000D01*
X14298000Y11700000D01*
X14300440Y11675224D01*
X14323276Y11560419D01*
X14330503Y11536594D01*
X14342239Y11514637D01*
X14407271Y11417310D01*
X14423066Y11398065D01*
X14442310Y11382271D01*
X14539637Y11317239D01*
X14561594Y11305503D01*
X14585419Y11298276D01*
X14700224Y11275440D01*
X14725000Y11273000D01*
X29100000Y11273000D01*
X29124776Y11275440D01*
X29239581Y11298276D01*
X29263406Y11305503D01*
X29285363Y11317239D01*
X29382690Y11382271D01*
X29401935Y11398066D01*
X29417729Y11417310D01*
X29482761Y11514637D01*
X29494497Y11536594D01*
X29501724Y11560419D01*
X29524560Y11675224D01*
X29527000Y11700000D01*
X29527000Y18412491D01*
X29542467Y18490251D01*
X29579430Y18545570D01*
X29634749Y18582533D01*
X29712509Y18598000D01*
X34037491Y18598000D01*
X34115251Y18582533D01*
G37*
%TD.AperFunction*%
D34*
X34115251Y15582533D02*
X34170570Y15545570D01*
X34207533Y15490251D01*
X34223000Y15412491D01*
X34223000Y13587509D01*
X34207533Y13509749D01*
X34170570Y13454430D01*
X34115251Y13417467D01*
X34037491Y13402000D01*
X33612509Y13402000D01*
X33534749Y13417467D01*
X33479430Y13454430D01*
X33442467Y13509749D01*
X33427000Y13587509D01*
X33427000Y14475000D01*
X33424560Y14499776D01*
X33401724Y14614581D01*
X33394497Y14638406D01*
X33382761Y14660363D01*
X33317729Y14757690D01*
X33301934Y14776935D01*
X33282690Y14792729D01*
X33185363Y14857761D01*
X33163406Y14869497D01*
X33139581Y14876724D01*
X33024776Y14899560D01*
X33000000Y14902000D01*
X32600000Y14902000D01*
X32575224Y14899560D01*
X32460419Y14876724D01*
X32436594Y14869497D01*
X32414637Y14857761D01*
X32317310Y14792729D01*
X32298065Y14776934D01*
X32282271Y14757690D01*
X32217239Y14660363D01*
X32205503Y14638406D01*
X32198276Y14614581D01*
X32175440Y14499776D01*
X32173000Y14475000D01*
X32173000Y8812509D01*
X32157533Y8734749D01*
X32120570Y8679430D01*
X32065251Y8642467D01*
X31987491Y8627000D01*
X11837509Y8627000D01*
X11759749Y8642467D01*
X11704430Y8679430D01*
X11667467Y8734749D01*
X11652000Y8812509D01*
X11652000Y15037491D01*
X11667467Y15115251D01*
X11704430Y15170570D01*
X11759749Y15207533D01*
X11837509Y15223000D01*
X14733939Y15223000D01*
X14750000Y15221418D01*
X15488954Y15221418D01*
X15500000Y15220330D01*
X15511046Y15221418D01*
X16020444Y15221418D01*
X16061552Y15213241D01*
X16092537Y15192537D01*
X16113241Y15161552D01*
X16120512Y15125000D01*
X16113241Y15088448D01*
X16092537Y15057463D01*
X16061552Y15036759D01*
X16020444Y15028582D01*
X14750000Y15028582D01*
X14733939Y15027000D01*
X13025000Y15027000D01*
X13000224Y15024560D01*
X12885419Y15001724D01*
X12861594Y14994497D01*
X12839637Y14982761D01*
X12742310Y14917729D01*
X12723065Y14901934D01*
X12707271Y14882690D01*
X12642239Y14785363D01*
X12630503Y14763406D01*
X12623276Y14739581D01*
X12600440Y14624776D01*
X12598000Y14600000D01*
X12598000Y9975408D01*
X12600444Y9950610D01*
X12623319Y9835711D01*
X12630551Y9811888D01*
X12642314Y9789898D01*
X12707451Y9692521D01*
X12723255Y9673284D01*
X12742545Y9657475D01*
X12840011Y9592471D01*
X12861978Y9580754D01*
X12885850Y9573539D01*
X13000780Y9550820D01*
X13025581Y9548409D01*
X30800581Y9572592D01*
X30825334Y9575062D01*
X30940014Y9598016D01*
X30963829Y9605272D01*
X30985735Y9617009D01*
X31082923Y9682067D01*
X31102155Y9697877D01*
X31117908Y9717100D01*
X31182835Y9814377D01*
X31194560Y9836340D01*
X31201767Y9860126D01*
X31224564Y9974837D01*
X31227000Y9999592D01*
X31227000Y15412491D01*
X31242467Y15490251D01*
X31279430Y15545570D01*
X31334749Y15582533D01*
X31412509Y15598000D01*
X34037491Y15598000D01*
X34115251Y15582533D01*
%TA.AperFunction,Conductor*%
D35*
G36*
X34115251Y15582533D02*
G01*
X34170570Y15545570D01*
X34207533Y15490251D01*
X34223000Y15412491D01*
X34223000Y13587509D01*
X34207533Y13509749D01*
X34170570Y13454430D01*
X34115251Y13417467D01*
X34037491Y13402000D01*
X33612509Y13402000D01*
X33534749Y13417467D01*
X33479430Y13454430D01*
X33442467Y13509749D01*
X33427000Y13587509D01*
X33427000Y14475000D01*
X33424560Y14499776D01*
X33401724Y14614581D01*
X33394497Y14638406D01*
X33382761Y14660363D01*
X33317729Y14757690D01*
X33301934Y14776935D01*
X33282690Y14792729D01*
X33185363Y14857761D01*
X33163406Y14869497D01*
X33139581Y14876724D01*
X33024776Y14899560D01*
X33000000Y14902000D01*
X32600000Y14902000D01*
X32575224Y14899560D01*
X32460419Y14876724D01*
X32436594Y14869497D01*
X32414637Y14857761D01*
X32317310Y14792729D01*
X32298065Y14776934D01*
X32282271Y14757690D01*
X32217239Y14660363D01*
X32205503Y14638406D01*
X32198276Y14614581D01*
X32175440Y14499776D01*
X32173000Y14475000D01*
X32173000Y8812509D01*
X32157533Y8734749D01*
X32120570Y8679430D01*
X32065251Y8642467D01*
X31987491Y8627000D01*
X11837509Y8627000D01*
X11759749Y8642467D01*
X11704430Y8679430D01*
X11667467Y8734749D01*
X11652000Y8812509D01*
X11652000Y15037491D01*
X11667467Y15115251D01*
X11704430Y15170570D01*
X11759749Y15207533D01*
X11837509Y15223000D01*
X14733939Y15223000D01*
X14750000Y15221418D01*
X15488954Y15221418D01*
X15500000Y15220330D01*
X15511046Y15221418D01*
X16020444Y15221418D01*
X16061552Y15213241D01*
X16092537Y15192537D01*
X16113241Y15161552D01*
X16120512Y15125000D01*
X16113241Y15088448D01*
X16092537Y15057463D01*
X16061552Y15036759D01*
X16020444Y15028582D01*
X14750000Y15028582D01*
X14733939Y15027000D01*
X13025000Y15027000D01*
X13000224Y15024560D01*
X12885419Y15001724D01*
X12861594Y14994497D01*
X12839637Y14982761D01*
X12742310Y14917729D01*
X12723065Y14901934D01*
X12707271Y14882690D01*
X12642239Y14785363D01*
X12630503Y14763406D01*
X12623276Y14739581D01*
X12600440Y14624776D01*
X12598000Y14600000D01*
X12598000Y9975408D01*
X12600444Y9950610D01*
X12623319Y9835711D01*
X12630551Y9811888D01*
X12642314Y9789898D01*
X12707451Y9692521D01*
X12723255Y9673284D01*
X12742545Y9657475D01*
X12840011Y9592471D01*
X12861978Y9580754D01*
X12885850Y9573539D01*
X13000780Y9550820D01*
X13025581Y9548409D01*
X30800581Y9572592D01*
X30825334Y9575062D01*
X30940014Y9598016D01*
X30963829Y9605272D01*
X30985735Y9617009D01*
X31082923Y9682067D01*
X31102155Y9697877D01*
X31117908Y9717100D01*
X31182835Y9814377D01*
X31194560Y9836340D01*
X31201767Y9860126D01*
X31224564Y9974837D01*
X31227000Y9999592D01*
X31227000Y15412491D01*
X31242467Y15490251D01*
X31279430Y15545570D01*
X31334749Y15582533D01*
X31412509Y15598000D01*
X34037491Y15598000D01*
X34115251Y15582533D01*
G37*
%TD.AperFunction*%
D34*
X16015251Y13907533D02*
X16070570Y13870570D01*
X16107533Y13815251D01*
X16123000Y13737491D01*
X16123000Y13275000D01*
X16125440Y13250224D01*
X16148276Y13135419D01*
X16155503Y13111594D01*
X16167239Y13089637D01*
X16232271Y12992310D01*
X16248066Y12973065D01*
X16267310Y12957271D01*
X16364637Y12892239D01*
X16386594Y12880503D01*
X16410419Y12873276D01*
X16525224Y12850440D01*
X16550000Y12848000D01*
X21787491Y12848000D01*
X21865251Y12832533D01*
X21920570Y12795570D01*
X21957533Y12740251D01*
X21973000Y12662491D01*
X21973000Y12337509D01*
X21957533Y12259749D01*
X21920570Y12204430D01*
X21865251Y12167467D01*
X21787491Y12152000D01*
X15462509Y12152000D01*
X15384749Y12167467D01*
X15329430Y12204430D01*
X15292467Y12259749D01*
X15277000Y12337509D01*
X15277000Y13737491D01*
X15292467Y13815251D01*
X15329430Y13870570D01*
X15384749Y13907533D01*
X15454556Y13921418D01*
X15945444Y13921418D01*
X16015251Y13907533D01*
%TA.AperFunction,Conductor*%
D35*
G36*
X16015251Y13907533D02*
G01*
X16070570Y13870570D01*
X16107533Y13815251D01*
X16123000Y13737491D01*
X16123000Y13275000D01*
X16125440Y13250224D01*
X16148276Y13135419D01*
X16155503Y13111594D01*
X16167239Y13089637D01*
X16232271Y12992310D01*
X16248066Y12973065D01*
X16267310Y12957271D01*
X16364637Y12892239D01*
X16386594Y12880503D01*
X16410419Y12873276D01*
X16525224Y12850440D01*
X16550000Y12848000D01*
X21787491Y12848000D01*
X21865251Y12832533D01*
X21920570Y12795570D01*
X21957533Y12740251D01*
X21973000Y12662491D01*
X21973000Y12337509D01*
X21957533Y12259749D01*
X21920570Y12204430D01*
X21865251Y12167467D01*
X21787491Y12152000D01*
X15462509Y12152000D01*
X15384749Y12167467D01*
X15329430Y12204430D01*
X15292467Y12259749D01*
X15277000Y12337509D01*
X15277000Y13737491D01*
X15292467Y13815251D01*
X15329430Y13870570D01*
X15384749Y13907533D01*
X15454556Y13921418D01*
X15945444Y13921418D01*
X16015251Y13907533D01*
G37*
%TD.AperFunction*%
M02*
