%TF.GenerationSoftware,KiCad,Pcbnew,(5.1.8)-1*%
%TF.CreationDate,2021-02-13T13:26:23-08:00*%
%TF.ProjectId,20200103_8SBMS_A0,32303230-3031-4303-935f-3853424d535f,rev?*%
%TF.SameCoordinates,PXb061cf0PYa92e8c0*%
%TF.FileFunction,Copper,L4,Bot*%
%TF.FilePolarity,Positive*%
%FSLAX46Y46*%
G04 Gerber Fmt 4.6, Leading zero omitted, Abs format (unit mm)*
G04 Created by KiCad (PCBNEW (5.1.8)-1) date 2021-02-13 13:26:23*
%MOMM*%
%LPD*%
G01*
G04 APERTURE LIST*
%TA.AperFunction,SMDPad,CuDef*%
%ADD10R,1.500000X3.400000*%
%TD*%
%TA.AperFunction,SMDPad,CuDef*%
%ADD11R,1.000000X3.500000*%
%TD*%
%TA.AperFunction,SMDPad,CuDef*%
%ADD12R,1.600000X3.500000*%
%TD*%
%TA.AperFunction,ComponentPad*%
%ADD13C,2.000000*%
%TD*%
%TA.AperFunction,ComponentPad*%
%ADD14C,6.000000*%
%TD*%
%TA.AperFunction,SMDPad,CuDef*%
%ADD15R,1.400000X1.000000*%
%TD*%
%TA.AperFunction,SMDPad,CuDef*%
%ADD16R,1.400000X1.200000*%
%TD*%
%TA.AperFunction,ViaPad*%
%ADD17C,0.800000*%
%TD*%
%TA.AperFunction,ViaPad*%
%ADD18C,1.000000*%
%TD*%
%TA.AperFunction,Conductor*%
%ADD19C,0.500000*%
%TD*%
%TA.AperFunction,Conductor*%
%ADD20C,0.600000*%
%TD*%
%TA.AperFunction,Conductor*%
%ADD21C,0.450000*%
%TD*%
%TA.AperFunction,Conductor*%
%ADD22C,0.650000*%
%TD*%
%TA.AperFunction,Conductor*%
%ADD23C,0.550000*%
%TD*%
%TA.AperFunction,Conductor*%
%ADD24C,1.000000*%
%TD*%
%TA.AperFunction,Conductor*%
%ADD25C,1.200000*%
%TD*%
%TA.AperFunction,Conductor*%
%ADD26C,0.400000*%
%TD*%
%TA.AperFunction,Conductor*%
%ADD27C,0.800000*%
%TD*%
%TA.AperFunction,Conductor*%
%ADD28C,0.300000*%
%TD*%
%TA.AperFunction,Conductor*%
%ADD29C,0.254000*%
%TD*%
%TA.AperFunction,Conductor*%
%ADD30C,0.100000*%
%TD*%
G04 APERTURE END LIST*
D10*
X51750000Y2000000D03*
X45050000Y2000000D03*
D11*
X49400000Y7750000D03*
X47400000Y7750000D03*
X14350000Y7550000D03*
D12*
X11950000Y2050000D03*
X24750000Y2050000D03*
D11*
X16350000Y7550000D03*
X18350000Y7550000D03*
X20350000Y7550000D03*
X22350000Y7550000D03*
X30400000Y7550000D03*
X32400000Y7550000D03*
D12*
X28000000Y2050000D03*
X42800000Y2050000D03*
D11*
X34400000Y7550000D03*
X36400000Y7550000D03*
X38400000Y7550000D03*
X40400000Y7550000D03*
D13*
X1450000Y34710000D03*
X43250000Y34360000D03*
X43250000Y31820000D03*
X43250000Y29280000D03*
X43250000Y26740000D03*
X43250000Y14040000D03*
X43250000Y16580000D03*
X43250000Y19120000D03*
X43250000Y21660000D03*
X43250000Y24200000D03*
X1450000Y32170000D03*
X1450000Y29630000D03*
X1450000Y27090000D03*
X1450000Y14390000D03*
X1450000Y16930000D03*
X1450000Y19470000D03*
X1450000Y22010000D03*
X1450000Y24550000D03*
D14*
X3550000Y46050000D03*
X3550000Y3650000D03*
%TA.AperFunction,SMDPad,CuDef*%
G36*
G01*
X29737500Y38600000D02*
X30212500Y38600000D01*
G75*
G02*
X30450000Y38362500I0J-237500D01*
G01*
X30450000Y37787500D01*
G75*
G02*
X30212500Y37550000I-237500J0D01*
G01*
X29737500Y37550000D01*
G75*
G02*
X29500000Y37787500I0J237500D01*
G01*
X29500000Y38362500D01*
G75*
G02*
X29737500Y38600000I237500J0D01*
G01*
G37*
%TD.AperFunction*%
%TA.AperFunction,SMDPad,CuDef*%
G36*
G01*
X29737500Y40350000D02*
X30212500Y40350000D01*
G75*
G02*
X30450000Y40112500I0J-237500D01*
G01*
X30450000Y39537500D01*
G75*
G02*
X30212500Y39300000I-237500J0D01*
G01*
X29737500Y39300000D01*
G75*
G02*
X29500000Y39537500I0J237500D01*
G01*
X29500000Y40112500D01*
G75*
G02*
X29737500Y40350000I237500J0D01*
G01*
G37*
%TD.AperFunction*%
%TA.AperFunction,SMDPad,CuDef*%
G36*
G01*
X17962500Y37875000D02*
X18437500Y37875000D01*
G75*
G02*
X18675000Y37637500I0J-237500D01*
G01*
X18675000Y37062500D01*
G75*
G02*
X18437500Y36825000I-237500J0D01*
G01*
X17962500Y36825000D01*
G75*
G02*
X17725000Y37062500I0J237500D01*
G01*
X17725000Y37637500D01*
G75*
G02*
X17962500Y37875000I237500J0D01*
G01*
G37*
%TD.AperFunction*%
%TA.AperFunction,SMDPad,CuDef*%
G36*
G01*
X17962500Y36125000D02*
X18437500Y36125000D01*
G75*
G02*
X18675000Y35887500I0J-237500D01*
G01*
X18675000Y35312500D01*
G75*
G02*
X18437500Y35075000I-237500J0D01*
G01*
X17962500Y35075000D01*
G75*
G02*
X17725000Y35312500I0J237500D01*
G01*
X17725000Y35887500D01*
G75*
G02*
X17962500Y36125000I237500J0D01*
G01*
G37*
%TD.AperFunction*%
%TA.AperFunction,SMDPad,CuDef*%
G36*
G01*
X11100000Y38962500D02*
X11100000Y39437500D01*
G75*
G02*
X11337500Y39675000I237500J0D01*
G01*
X11912500Y39675000D01*
G75*
G02*
X12150000Y39437500I0J-237500D01*
G01*
X12150000Y38962500D01*
G75*
G02*
X11912500Y38725000I-237500J0D01*
G01*
X11337500Y38725000D01*
G75*
G02*
X11100000Y38962500I0J237500D01*
G01*
G37*
%TD.AperFunction*%
%TA.AperFunction,SMDPad,CuDef*%
G36*
G01*
X12850000Y38962500D02*
X12850000Y39437500D01*
G75*
G02*
X13087500Y39675000I237500J0D01*
G01*
X13662500Y39675000D01*
G75*
G02*
X13900000Y39437500I0J-237500D01*
G01*
X13900000Y38962500D01*
G75*
G02*
X13662500Y38725000I-237500J0D01*
G01*
X13087500Y38725000D01*
G75*
G02*
X12850000Y38962500I0J237500D01*
G01*
G37*
%TD.AperFunction*%
%TA.AperFunction,SMDPad,CuDef*%
G36*
G01*
X16050000Y39437500D02*
X16050000Y38962500D01*
G75*
G02*
X15812500Y38725000I-237500J0D01*
G01*
X15237500Y38725000D01*
G75*
G02*
X15000000Y38962500I0J237500D01*
G01*
X15000000Y39437500D01*
G75*
G02*
X15237500Y39675000I237500J0D01*
G01*
X15812500Y39675000D01*
G75*
G02*
X16050000Y39437500I0J-237500D01*
G01*
G37*
%TD.AperFunction*%
%TA.AperFunction,SMDPad,CuDef*%
G36*
G01*
X17800000Y39437500D02*
X17800000Y38962500D01*
G75*
G02*
X17562500Y38725000I-237500J0D01*
G01*
X16987500Y38725000D01*
G75*
G02*
X16750000Y38962500I0J237500D01*
G01*
X16750000Y39437500D01*
G75*
G02*
X16987500Y39675000I237500J0D01*
G01*
X17562500Y39675000D01*
G75*
G02*
X17800000Y39437500I0J-237500D01*
G01*
G37*
%TD.AperFunction*%
D15*
X24503200Y12496800D03*
X24503200Y10596800D03*
X26703200Y10596800D03*
D16*
X26703200Y12316800D03*
D13*
X46875000Y37685000D03*
X46875000Y40225000D03*
X46875000Y42765000D03*
D11*
X11475000Y42175000D03*
X13475000Y42175000D03*
X15475000Y42175000D03*
X17475000Y42175000D03*
D12*
X9075000Y47675000D03*
X21875000Y47675000D03*
D11*
X19475000Y42175000D03*
D17*
X16800000Y37300000D03*
X23850000Y12500006D03*
X11325000Y18900000D03*
X40400000Y8800000D03*
D18*
X11475000Y43400000D03*
D17*
X24025000Y16425000D03*
X25600000Y48000000D03*
X25600000Y48900000D03*
X26500000Y48000000D03*
X25600000Y47100000D03*
X26500000Y48900000D03*
X26525000Y47100000D03*
X55100000Y34600000D03*
X55100000Y13800000D03*
X53950000Y40175000D03*
X55225000Y40175000D03*
X31500000Y41850000D03*
D18*
X48475000Y45075000D03*
X46625000Y45075000D03*
X36600000Y13750000D03*
X36600000Y16750000D03*
X36600000Y19750000D03*
X36600000Y22750000D03*
X36600000Y25750000D03*
X36600000Y28750000D03*
X36600000Y31750000D03*
X36600000Y34750000D03*
X24275000Y32850000D03*
X20450000Y37450000D03*
D17*
X12950000Y22275000D03*
X23250000Y18675000D03*
X21700000Y12500000D03*
X39900000Y40450000D03*
X12000000Y32075000D03*
X13550000Y17050000D03*
X47400000Y10625000D03*
X31500000Y41000000D03*
X26400000Y900000D03*
X44000000Y800000D03*
X20450000Y20925000D03*
X13450000Y23300000D03*
X11750000Y23500000D03*
X14900000Y23150000D03*
X26800000Y38100000D03*
X15250000Y24700000D03*
X28475000Y40025000D03*
X11250000Y24450000D03*
X38400000Y5750000D03*
X10300000Y23100000D03*
X10300000Y4700000D03*
X36400000Y4700000D03*
X17475000Y28532612D03*
X17450000Y29975000D03*
X12249998Y27700000D03*
X11350000Y26499980D03*
X52650000Y45875000D03*
X55225000Y42775000D03*
X54250000Y42775000D03*
X17300000Y20850000D03*
X28600000Y7050000D03*
X1900000Y41000000D03*
X49400000Y9050000D03*
D19*
X23853206Y12496800D02*
X23850000Y12500006D01*
X24808000Y12496800D02*
X23853206Y12496800D01*
X23057106Y11707113D02*
X23850000Y12500006D01*
X23057106Y11707113D02*
X22975397Y11621294D01*
X22975397Y11621294D02*
X22897999Y11531568D01*
X22897999Y11531568D02*
X22825097Y11438153D01*
X22825097Y11438153D02*
X22756867Y11341272D01*
X22756867Y11341272D02*
X22693472Y11241161D01*
X22693472Y11241161D02*
X22635066Y11138059D01*
X22635066Y11138059D02*
X22581789Y11032216D01*
X22581789Y11032216D02*
X22533770Y10923886D01*
X22533770Y10923886D02*
X22491124Y10813331D01*
X22491124Y10813331D02*
X22453954Y10700816D01*
X22453954Y10700816D02*
X22422350Y10586613D01*
X22422350Y10586613D02*
X22396387Y10470996D01*
X22396387Y10470996D02*
X22376129Y10354245D01*
X22376129Y10354245D02*
X22361624Y10236641D01*
X22361624Y10236641D02*
X22352907Y10118466D01*
X22352907Y10118466D02*
X22350000Y10000006D01*
X22350000Y10000006D02*
X22350000Y7575000D01*
D20*
X11475000Y39350000D02*
X11625000Y39200000D01*
X11475000Y42175000D02*
X11475000Y39350000D01*
D21*
X29975000Y46000000D02*
X29975000Y39825000D01*
X29975000Y46000000D02*
X29965369Y46196035D01*
X29965369Y46196035D02*
X29936570Y46390181D01*
X29936570Y46390181D02*
X29888880Y46580570D01*
X29888880Y46580570D02*
X29822759Y46765367D01*
X29822759Y46765367D02*
X29738842Y46942794D01*
X29738842Y46942794D02*
X29637939Y47111141D01*
X29637939Y47111141D02*
X29521020Y47268787D01*
X29521020Y47268787D02*
X29389213Y47414214D01*
X29389213Y47414214D02*
X29243786Y47546021D01*
X29243786Y47546021D02*
X29086140Y47662940D01*
X29086140Y47662940D02*
X28917793Y47763843D01*
X28917793Y47763843D02*
X28740366Y47847760D01*
X28740366Y47847760D02*
X28555569Y47913881D01*
X28555569Y47913881D02*
X28365180Y47961571D01*
X28365180Y47961571D02*
X28171034Y47990370D01*
X28171034Y47990370D02*
X27975000Y48000000D01*
X27975000Y48000000D02*
X26500000Y48000000D01*
D19*
X25670000Y13919200D02*
X25768017Y13914385D01*
X25768017Y13914385D02*
X25865090Y13899986D01*
X25865090Y13899986D02*
X25960284Y13876141D01*
X25960284Y13876141D02*
X26052683Y13843080D01*
X26052683Y13843080D02*
X26141396Y13801122D01*
X26141396Y13801122D02*
X26225570Y13750670D01*
X26225570Y13750670D02*
X26304393Y13692211D01*
X26304393Y13692211D02*
X26377106Y13626307D01*
X26377106Y13626307D02*
X26443010Y13553594D01*
X26443010Y13553594D02*
X26501469Y13474771D01*
X26501469Y13474771D02*
X26551921Y13390597D01*
X26551921Y13390597D02*
X26593879Y13301884D01*
X26593879Y13301884D02*
X26626940Y13209485D01*
X26626940Y13209485D02*
X26650785Y13114291D01*
X26650785Y13114291D02*
X26665184Y13017218D01*
X26665184Y13017218D02*
X26670000Y12919200D01*
X26670000Y12919200D02*
X26670000Y12316800D01*
X21700000Y12919200D02*
X21700000Y12500000D01*
X21700000Y12919200D02*
X21704815Y13017218D01*
X21704815Y13017218D02*
X21719214Y13114291D01*
X21719214Y13114291D02*
X21743059Y13209485D01*
X21743059Y13209485D02*
X21776120Y13301884D01*
X21776120Y13301884D02*
X21818078Y13390597D01*
X21818078Y13390597D02*
X21868530Y13474771D01*
X21868530Y13474771D02*
X21926989Y13553594D01*
X21926989Y13553594D02*
X21992893Y13626307D01*
X21992893Y13626307D02*
X22065606Y13692211D01*
X22065606Y13692211D02*
X22144429Y13750670D01*
X22144429Y13750670D02*
X22228603Y13801122D01*
X22228603Y13801122D02*
X22317316Y13843080D01*
X22317316Y13843080D02*
X22409715Y13876141D01*
X22409715Y13876141D02*
X22504909Y13899986D01*
X22504909Y13899986D02*
X22601982Y13914385D01*
X22601982Y13914385D02*
X22700000Y13919200D01*
X22700000Y13919200D02*
X25670000Y13919200D01*
D22*
X47400000Y7850000D02*
X47400000Y10625000D01*
D23*
X30400000Y7550000D02*
X30400000Y950000D01*
X14350000Y7550000D02*
X14350000Y1050000D01*
D24*
X19475000Y42175000D02*
X19475000Y47650000D01*
D25*
X9075000Y47675000D02*
X21875000Y47675000D01*
D20*
X51750000Y2000000D02*
X51750000Y1300000D01*
D19*
X20250000Y7675000D02*
X20350000Y7575000D01*
D23*
X20450000Y7650000D02*
X20350000Y7550000D01*
D26*
X20450000Y20925000D02*
X20450000Y7650000D01*
D27*
X50060000Y37675000D02*
X50050000Y37685000D01*
X53175000Y17580000D02*
X53175000Y36675000D01*
X53170184Y17481983D02*
X53175000Y17580000D01*
X53155785Y17384910D02*
X53170184Y17481983D01*
X53131940Y17289716D02*
X53155785Y17384910D01*
X53098879Y17197317D02*
X53131940Y17289716D01*
X53056921Y17108604D02*
X53098879Y17197317D01*
X53006469Y17024430D02*
X53056921Y17108604D01*
X52948010Y16945607D02*
X53006469Y17024430D01*
X52882106Y16872894D02*
X52948010Y16945607D01*
X52809393Y16806990D02*
X52882106Y16872894D01*
X52730570Y16748531D02*
X52809393Y16806990D01*
X52646396Y16698079D02*
X52730570Y16748531D01*
X52557683Y16656121D02*
X52646396Y16698079D01*
X52465284Y16623060D02*
X52557683Y16656121D01*
X52370090Y16599215D02*
X52465284Y16623060D01*
X52273017Y16584816D02*
X52370090Y16599215D01*
X52175000Y16580000D02*
X52273017Y16584816D01*
X52175000Y16580000D02*
X43250000Y16580000D01*
X52175000Y37675000D02*
X50060000Y37675000D01*
X52273017Y37670185D02*
X52175000Y37675000D01*
X52370090Y37655786D02*
X52273017Y37670185D01*
X52465284Y37631941D02*
X52370090Y37655786D01*
X52557683Y37598880D02*
X52465284Y37631941D01*
X52646396Y37556922D02*
X52557683Y37598880D01*
X52730570Y37506470D02*
X52646396Y37556922D01*
X52809393Y37448011D02*
X52730570Y37506470D01*
X52882106Y37382107D02*
X52809393Y37448011D01*
X52948010Y37309394D02*
X52882106Y37382107D01*
X53006469Y37230571D02*
X52948010Y37309394D01*
X53056921Y37146397D02*
X53006469Y37230571D01*
X53098879Y37057684D02*
X53056921Y37146397D01*
X53131940Y36965285D02*
X53098879Y37057684D01*
X53155785Y36870091D02*
X53131940Y36965285D01*
X53170184Y36773018D02*
X53155785Y36870091D01*
X53175000Y36675000D02*
X53170184Y36773018D01*
X46885000Y37675000D02*
X46875000Y37685000D01*
X50060000Y37675000D02*
X46885000Y37675000D01*
D26*
X18350000Y16400000D02*
X18350000Y7575000D01*
X18350000Y16400000D02*
X18344183Y16636920D01*
X18344183Y16636920D02*
X18326749Y16873269D01*
X18326749Y16873269D02*
X18297739Y17108478D01*
X18297739Y17108478D02*
X18257223Y17341980D01*
X18257223Y17341980D02*
X18205298Y17573213D01*
X18205298Y17573213D02*
X18142089Y17801619D01*
X18142089Y17801619D02*
X18067749Y18026649D01*
X18067749Y18026649D02*
X17982457Y18247760D01*
X17982457Y18247760D02*
X17886419Y18464419D01*
X17886419Y18464419D02*
X17779865Y18676106D01*
X17779865Y18676106D02*
X17663052Y18882309D01*
X17663052Y18882309D02*
X17536263Y19082531D01*
X17536263Y19082531D02*
X17399801Y19276292D01*
X17399801Y19276292D02*
X17253997Y19463123D01*
X17253997Y19463123D02*
X17099201Y19642575D01*
X17099201Y19642575D02*
X16935786Y19814214D01*
X16935786Y19814214D02*
X13450000Y23300000D01*
D28*
X23601217Y5237216D02*
X23503200Y5232400D01*
X23698290Y5251615D02*
X23601217Y5237216D01*
X24503200Y10596800D02*
X24503200Y6232400D01*
X24503200Y6232400D02*
X24498384Y6134383D01*
X24498384Y6134383D02*
X24483985Y6037310D01*
X24276210Y5598007D02*
X24210306Y5525294D01*
X23885883Y5308521D02*
X23793484Y5275460D01*
X24460140Y5942116D02*
X24427079Y5849717D01*
X24427079Y5849717D02*
X24385121Y5761004D01*
X24334669Y5676830D02*
X24276210Y5598007D01*
X24210306Y5525294D02*
X24137593Y5459390D01*
X23793484Y5275460D02*
X23698290Y5251615D01*
X24137593Y5459390D02*
X24058770Y5400931D01*
X24483985Y6037310D02*
X24460140Y5942116D01*
X23974596Y5350479D02*
X23885883Y5308521D01*
X24385121Y5761004D02*
X24334669Y5676830D01*
X24058770Y5400931D02*
X23974596Y5350479D01*
X18850000Y5232400D02*
X23503200Y5232400D01*
X18850000Y5232400D02*
X18800991Y5234808D01*
X18800991Y5234808D02*
X18752454Y5242008D01*
X18752454Y5242008D02*
X18704857Y5253930D01*
X18704857Y5253930D02*
X18658658Y5270461D01*
X18658658Y5270461D02*
X18614301Y5291440D01*
X18614301Y5291440D02*
X18572214Y5316666D01*
X18572214Y5316666D02*
X18532803Y5345895D01*
X18532803Y5345895D02*
X18496446Y5378847D01*
X18496446Y5378847D02*
X18463494Y5415204D01*
X18463494Y5415204D02*
X18434265Y5454615D01*
X18434265Y5454615D02*
X18409039Y5496702D01*
X18409039Y5496702D02*
X18388060Y5541059D01*
X18388060Y5541059D02*
X18371529Y5587258D01*
X18371529Y5587258D02*
X18359607Y5634855D01*
X18359607Y5634855D02*
X18352407Y5683392D01*
X18352407Y5683392D02*
X18350000Y5732400D01*
X18350000Y5732400D02*
X18350000Y7550000D01*
X26703200Y5521200D02*
X26703200Y10596800D01*
X26703200Y5521200D02*
X26698384Y5423183D01*
X26698384Y5423183D02*
X26683985Y5326110D01*
X26683985Y5326110D02*
X26660140Y5230916D01*
X26660140Y5230916D02*
X26627079Y5138517D01*
X26627079Y5138517D02*
X26585121Y5049804D01*
X26585121Y5049804D02*
X26534669Y4965630D01*
X26534669Y4965630D02*
X26476210Y4886807D01*
X26476210Y4886807D02*
X26410306Y4814094D01*
X26410306Y4814094D02*
X26337593Y4748190D01*
X26337593Y4748190D02*
X26258770Y4689731D01*
X26258770Y4689731D02*
X26174596Y4639279D01*
X26174596Y4639279D02*
X26085883Y4597321D01*
X26085883Y4597321D02*
X25993484Y4564260D01*
X25993484Y4564260D02*
X25898290Y4540415D01*
X25898290Y4540415D02*
X25801217Y4526016D01*
X25801217Y4526016D02*
X25703200Y4521200D01*
X16357600Y5021200D02*
X16360007Y4972192D01*
X16360007Y4972192D02*
X16367207Y4923655D01*
X16367207Y4923655D02*
X16379129Y4876058D01*
X16379129Y4876058D02*
X16395660Y4829859D01*
X16395660Y4829859D02*
X16416639Y4785502D01*
X16416639Y4785502D02*
X16441865Y4743415D01*
X16441865Y4743415D02*
X16471094Y4704004D01*
X16471094Y4704004D02*
X16504046Y4667647D01*
X16504046Y4667647D02*
X16540403Y4634695D01*
X16540403Y4634695D02*
X16579814Y4605466D01*
X16579814Y4605466D02*
X16621901Y4580240D01*
X16621901Y4580240D02*
X16666258Y4559261D01*
X16666258Y4559261D02*
X16712457Y4542730D01*
X16712457Y4542730D02*
X16760054Y4530808D01*
X16760054Y4530808D02*
X16808591Y4523608D01*
X16808591Y4523608D02*
X16857600Y4521200D01*
X16857600Y4521200D02*
X25703200Y4521200D01*
D26*
X16450000Y7675000D02*
X16350000Y7575000D01*
X16500000Y7600000D02*
X16350000Y7450000D01*
X12457106Y20342894D02*
X12375398Y20428715D01*
X12375398Y20428715D02*
X12298000Y20518440D01*
X12298000Y20518440D02*
X12225098Y20611856D01*
X12225098Y20611856D02*
X12156867Y20708736D01*
X12156867Y20708736D02*
X12093472Y20808847D01*
X12093472Y20808847D02*
X12035066Y20911949D01*
X12035066Y20911949D02*
X11981789Y21017792D01*
X11981789Y21017792D02*
X11933770Y21126121D01*
X11933770Y21126121D02*
X11891124Y21236677D01*
X11891124Y21236677D02*
X11853954Y21349192D01*
X11853954Y21349192D02*
X11822350Y21463395D01*
X11822350Y21463395D02*
X11796387Y21579011D01*
X11796387Y21579011D02*
X11776129Y21695762D01*
X11776129Y21695762D02*
X11761624Y21813366D01*
X11761624Y21813366D02*
X11752907Y21931541D01*
X11752907Y21931541D02*
X11750000Y22050000D01*
X11750000Y22050000D02*
X11750000Y23500000D01*
X16500000Y15300000D02*
X16500000Y7600000D01*
X16500000Y15300000D02*
X16497091Y15418460D01*
X16497091Y15418460D02*
X16488374Y15536635D01*
X16488374Y15536635D02*
X16473869Y15654239D01*
X16473869Y15654239D02*
X16453611Y15770990D01*
X16453611Y15770990D02*
X16427649Y15886607D01*
X16427649Y15886607D02*
X16396044Y16000810D01*
X16396044Y16000810D02*
X16358874Y16113325D01*
X16358874Y16113325D02*
X16316228Y16223880D01*
X16316228Y16223880D02*
X16268209Y16332210D01*
X16268209Y16332210D02*
X16214932Y16438053D01*
X16214932Y16438053D02*
X16156526Y16541155D01*
X16156526Y16541155D02*
X16093131Y16641266D01*
X16093131Y16641266D02*
X16024900Y16738146D01*
X16024900Y16738146D02*
X15951998Y16831562D01*
X15951998Y16831562D02*
X15874600Y16921288D01*
X15874600Y16921288D02*
X15792893Y17007107D01*
X15792893Y17007107D02*
X12457106Y20342894D01*
D28*
X16357600Y7542400D02*
X16350000Y7550000D01*
X16357600Y5021200D02*
X16357600Y7542400D01*
D21*
X26425000Y38100000D02*
X30000000Y38100000D01*
X16470184Y24051983D02*
X16475000Y24150000D01*
X16455785Y23954910D02*
X16470184Y24051983D01*
X16431940Y23859716D02*
X16455785Y23954910D01*
X16398879Y23767317D02*
X16431940Y23859716D01*
X14900000Y23150000D02*
X15475000Y23150000D01*
X15475000Y23150000D02*
X15573017Y23154816D01*
X15573017Y23154816D02*
X15670090Y23169215D01*
X15670090Y23169215D02*
X15765284Y23193060D01*
X16306469Y23594430D02*
X16356921Y23678604D01*
X15765284Y23193060D02*
X15857683Y23226121D01*
X16248010Y23515607D02*
X16306469Y23594430D01*
X15946396Y23268079D02*
X16030570Y23318531D01*
X15857683Y23226121D02*
X15946396Y23268079D01*
X16030570Y23318531D02*
X16109393Y23376990D01*
X16109393Y23376990D02*
X16182106Y23442894D01*
X16182106Y23442894D02*
X16248010Y23515607D01*
X16356921Y23678604D02*
X16398879Y23767317D01*
X24250000Y38100000D02*
X26800000Y38100000D01*
X24250000Y38100000D02*
X24151982Y38095185D01*
X24151982Y38095185D02*
X24054909Y38080786D01*
X24054909Y38080786D02*
X23959715Y38056941D01*
X23959715Y38056941D02*
X23867316Y38023880D01*
X23867316Y38023880D02*
X23778603Y37981922D01*
X23778603Y37981922D02*
X23694429Y37931470D01*
X23694429Y37931470D02*
X23615606Y37873011D01*
X23615606Y37873011D02*
X23542893Y37807107D01*
X23542893Y37807107D02*
X23476989Y37734394D01*
X23476989Y37734394D02*
X23418530Y37655571D01*
X23418530Y37655571D02*
X23368078Y37571397D01*
X23368078Y37571397D02*
X23326120Y37482684D01*
X23326120Y37482684D02*
X23293059Y37390285D01*
X23293059Y37390285D02*
X23269214Y37295091D01*
X23269214Y37295091D02*
X23254815Y37198018D01*
X23254815Y37198018D02*
X23250000Y37100000D01*
X23250000Y35050000D02*
X23250000Y37100000D01*
X23250000Y35050000D02*
X23240369Y34853966D01*
X23240369Y34853966D02*
X23211570Y34659820D01*
X23211570Y34659820D02*
X23163880Y34469431D01*
X23163880Y34469431D02*
X23097759Y34284634D01*
X23097759Y34284634D02*
X23013842Y34107207D01*
X23013842Y34107207D02*
X22912939Y33938860D01*
X22912939Y33938860D02*
X22796020Y33781214D01*
X22796020Y33781214D02*
X22664213Y33635787D01*
X22664213Y33635787D02*
X22518786Y33503980D01*
X22518786Y33503980D02*
X22361140Y33387061D01*
X22361140Y33387061D02*
X22192793Y33286158D01*
X22192793Y33286158D02*
X22015366Y33202241D01*
X22015366Y33202241D02*
X21830569Y33136120D01*
X21830569Y33136120D02*
X21640180Y33088430D01*
X21640180Y33088430D02*
X21446034Y33059631D01*
X21446034Y33059631D02*
X21250000Y33050000D01*
X16475000Y32050000D02*
X16475000Y24150000D01*
X16475000Y32050000D02*
X16479815Y32148018D01*
X16479815Y32148018D02*
X16494214Y32245091D01*
X16494214Y32245091D02*
X16518059Y32340285D01*
X16518059Y32340285D02*
X16551120Y32432684D01*
X16551120Y32432684D02*
X16593078Y32521397D01*
X16593078Y32521397D02*
X16643530Y32605571D01*
X16643530Y32605571D02*
X16701989Y32684394D01*
X16701989Y32684394D02*
X16767893Y32757107D01*
X16767893Y32757107D02*
X16840606Y32823011D01*
X16840606Y32823011D02*
X16919429Y32881470D01*
X16919429Y32881470D02*
X17003603Y32931922D01*
X17003603Y32931922D02*
X17092316Y32973880D01*
X17092316Y32973880D02*
X17184715Y33006941D01*
X17184715Y33006941D02*
X17279909Y33030786D01*
X17279909Y33030786D02*
X17376982Y33045185D01*
X17376982Y33045185D02*
X17475000Y33050000D01*
X17475000Y33050000D02*
X21250000Y33050000D01*
D26*
X15250000Y33550000D02*
X15250000Y24700000D01*
X15250000Y33550000D02*
X15254815Y33648018D01*
X15254815Y33648018D02*
X15269214Y33745091D01*
X15269214Y33745091D02*
X15293059Y33840285D01*
X15293059Y33840285D02*
X15326120Y33932684D01*
X15326120Y33932684D02*
X15368078Y34021397D01*
X15368078Y34021397D02*
X15418530Y34105571D01*
X15418530Y34105571D02*
X15476989Y34184394D01*
X15476989Y34184394D02*
X15542893Y34257107D01*
X15542893Y34257107D02*
X15615606Y34323011D01*
X15615606Y34323011D02*
X15694429Y34381470D01*
X15694429Y34381470D02*
X15778603Y34431922D01*
X15778603Y34431922D02*
X15867316Y34473880D01*
X15867316Y34473880D02*
X15959715Y34506941D01*
X15959715Y34506941D02*
X16054909Y34530786D01*
X16054909Y34530786D02*
X16151982Y34545185D01*
X16151982Y34545185D02*
X16250000Y34550000D01*
X16250000Y34550000D02*
X18125000Y34550000D01*
X23800000Y40025000D02*
X28475000Y40025000D01*
X23603965Y40015370D02*
X23800000Y40025000D01*
X23409819Y39986571D02*
X23603965Y40015370D01*
X23219430Y39938881D02*
X23409819Y39986571D01*
X23034633Y39872760D02*
X23219430Y39938881D01*
X22857206Y39788843D02*
X23034633Y39872760D01*
X22688859Y39687940D02*
X22857206Y39788843D01*
X21346020Y35306214D02*
X21462939Y35463860D01*
X20911140Y34912061D02*
X21068786Y35028980D01*
X21214213Y35160787D02*
X21346020Y35306214D01*
X18200000Y34650000D02*
X18125000Y34575000D01*
X21068786Y35028980D02*
X21214213Y35160787D01*
X18125000Y34575000D02*
X19800000Y34575000D01*
X20565366Y34727241D02*
X20742793Y34811158D01*
X22137060Y39136141D02*
X22253979Y39293787D01*
X20190180Y34613430D02*
X20380569Y34661120D01*
X19996034Y34584631D02*
X20190180Y34613430D01*
X20742793Y34811158D02*
X20911140Y34912061D01*
X21761570Y36184820D02*
X21790369Y36378966D01*
X19800000Y34575000D02*
X19996034Y34584631D01*
X20380569Y34661120D02*
X20565366Y34727241D01*
X21713880Y35994431D02*
X21761570Y36184820D01*
X18200000Y35600000D02*
X18200000Y34650000D01*
X21563842Y35632207D02*
X21647759Y35809634D01*
X22531213Y39571021D02*
X22688859Y39687940D01*
X21647759Y35809634D02*
X21713880Y35994431D01*
X21790369Y36378966D02*
X21800000Y36575000D01*
X21800000Y36575000D02*
X21800000Y38025000D01*
X21800000Y38025000D02*
X21809630Y38221035D01*
X21809630Y38221035D02*
X21838429Y38415181D01*
X21838429Y38415181D02*
X21886119Y38605570D01*
X21462939Y35463860D02*
X21563842Y35632207D01*
X21886119Y38605570D02*
X21952240Y38790367D01*
X21952240Y38790367D02*
X22036157Y38967794D01*
X22036157Y38967794D02*
X22137060Y39136141D01*
X22253979Y39293787D02*
X22385786Y39439214D01*
X22385786Y39439214D02*
X22531213Y39571021D01*
D21*
X1570000Y19350000D02*
X1450000Y19470000D01*
X11150000Y24550000D02*
X11150000Y24350000D01*
D20*
X10250000Y24450000D02*
X11250000Y24450000D01*
X10250000Y24450000D02*
X10131540Y24447093D01*
X10131540Y24447093D02*
X10013365Y24438376D01*
X10013365Y24438376D02*
X9895761Y24423871D01*
X9895761Y24423871D02*
X9779010Y24403613D01*
X9779010Y24403613D02*
X9663393Y24377650D01*
X9663393Y24377650D02*
X9549190Y24346046D01*
X9549190Y24346046D02*
X9436675Y24308876D01*
X9436675Y24308876D02*
X9326120Y24266230D01*
X9326120Y24266230D02*
X9217790Y24218211D01*
X9217790Y24218211D02*
X9111947Y24164934D01*
X9111947Y24164934D02*
X9008846Y24106528D01*
X9008846Y24106528D02*
X8908734Y24043133D01*
X8908734Y24043133D02*
X8811854Y23974902D01*
X8811854Y23974902D02*
X8718438Y23902000D01*
X8718438Y23902000D02*
X8628713Y23824602D01*
X8628713Y23824602D02*
X8542893Y23742894D01*
X3150000Y19350000D02*
X1570000Y19350000D01*
X3150000Y19350000D02*
X3268459Y19352909D01*
X3268459Y19352909D02*
X3386634Y19361626D01*
X3386634Y19361626D02*
X3504238Y19376131D01*
X3504238Y19376131D02*
X3620989Y19396389D01*
X3620989Y19396389D02*
X3736605Y19422352D01*
X3736605Y19422352D02*
X3850808Y19453956D01*
X3850808Y19453956D02*
X3963323Y19491126D01*
X3963323Y19491126D02*
X4073879Y19533772D01*
X4073879Y19533772D02*
X4182208Y19581791D01*
X4182208Y19581791D02*
X4288051Y19635068D01*
X4288051Y19635068D02*
X4391153Y19693475D01*
X4391153Y19693475D02*
X4491264Y19756869D01*
X4491264Y19756869D02*
X4588144Y19825100D01*
X4588144Y19825100D02*
X4681559Y19898002D01*
X4681559Y19898002D02*
X4771285Y19975400D01*
X4771285Y19975400D02*
X4857106Y20057107D01*
X4857106Y20057107D02*
X8542893Y23742894D01*
D21*
X38400000Y7600000D02*
X38400000Y5750000D01*
X10300000Y23100000D02*
X10300000Y4700000D01*
X36400000Y4700000D02*
X36400000Y7600000D01*
X31996020Y27793787D02*
X31864213Y27939214D01*
X32450000Y7600000D02*
X32450000Y26525000D01*
X32450000Y26525000D02*
X32440369Y26721035D01*
X32440369Y26721035D02*
X32411570Y26915181D01*
X32297759Y27290367D02*
X32213842Y27467794D01*
X32411570Y26915181D02*
X32363880Y27105570D01*
X17582602Y28525000D02*
X17574990Y28532612D01*
X32363880Y27105570D02*
X32297759Y27290367D01*
X30450000Y28525000D02*
X17582602Y28525000D01*
X31864213Y27939214D02*
X31718786Y28071021D01*
X30646034Y28515370D02*
X30450000Y28525000D01*
X32213842Y27467794D02*
X32112939Y27636141D01*
X30840180Y28486571D02*
X30646034Y28515370D01*
X31030569Y28438881D02*
X30840180Y28486571D01*
X31215366Y28372760D02*
X31030569Y28438881D01*
X31392793Y28288843D02*
X31215366Y28372760D01*
X31718786Y28071021D02*
X31561140Y28187940D01*
X32112939Y27636141D02*
X31996020Y27793787D01*
X31561140Y28187940D02*
X31392793Y28288843D01*
X32425000Y29975000D02*
X17450000Y29975000D01*
X32425000Y29975000D02*
X32621034Y29965370D01*
X32621034Y29965370D02*
X32815180Y29936571D01*
X32815180Y29936571D02*
X33005569Y29888881D01*
X33005569Y29888881D02*
X33190366Y29822760D01*
X33190366Y29822760D02*
X33367793Y29738843D01*
X33367793Y29738843D02*
X33536140Y29637940D01*
X33536140Y29637940D02*
X33693786Y29521021D01*
X33693786Y29521021D02*
X33839213Y29389214D01*
X33839213Y29389214D02*
X33971020Y29243787D01*
X33971020Y29243787D02*
X34087939Y29086141D01*
X34087939Y29086141D02*
X34188842Y28917794D01*
X34188842Y28917794D02*
X34272759Y28740367D01*
X34272759Y28740367D02*
X34338880Y28555570D01*
X34338880Y28555570D02*
X34386570Y28365181D01*
X34386570Y28365181D02*
X34415369Y28171035D01*
X34415369Y28171035D02*
X34425000Y27975000D01*
X34425000Y27975000D02*
X34425000Y7600000D01*
D26*
X12250000Y27700002D02*
X12249998Y27700000D01*
X13450000Y39275000D02*
X13375000Y39200000D01*
X11500000Y27700000D02*
X12249998Y27700000D01*
X11207106Y35807107D02*
X12667893Y37267894D01*
X11125398Y35721287D02*
X11207106Y35807107D01*
X11048000Y35631562D02*
X11125398Y35721287D01*
X10975098Y35538146D02*
X11048000Y35631562D01*
X10906867Y35441266D02*
X10975098Y35538146D01*
X10843472Y35341154D02*
X10906867Y35441266D01*
X10785066Y35238053D02*
X10843472Y35341154D01*
X10731789Y35132210D02*
X10785066Y35238053D01*
X10683770Y35023880D02*
X10731789Y35132210D01*
X10641124Y34913325D02*
X10683770Y35023880D01*
X10603954Y34800810D02*
X10641124Y34913325D01*
X10572350Y34686607D02*
X10603954Y34800810D01*
X10546387Y34570990D02*
X10572350Y34686607D01*
X10526129Y34454239D02*
X10546387Y34570990D01*
X10511624Y34336635D02*
X10526129Y34454239D01*
X10502907Y34218460D02*
X10511624Y34336635D01*
X10500000Y34100000D02*
X10502907Y34218460D01*
X10500000Y34100000D02*
X10500000Y28700000D01*
X12749600Y37353715D02*
X12667893Y37267894D01*
X12826998Y37443441D02*
X12749600Y37353715D01*
X12899900Y37536856D02*
X12826998Y37443441D01*
X12968131Y37633736D02*
X12899900Y37536856D01*
X13031525Y37733847D02*
X12968131Y37633736D01*
X13089932Y37836949D02*
X13031525Y37733847D01*
X13143209Y37942792D02*
X13089932Y37836949D01*
X13191228Y38051121D02*
X13143209Y37942792D01*
X13233874Y38161677D02*
X13191228Y38051121D01*
X13271044Y38274192D02*
X13233874Y38161677D01*
X13302648Y38388395D02*
X13271044Y38274192D01*
X13328611Y38504011D02*
X13302648Y38388395D01*
X13348869Y38620762D02*
X13328611Y38504011D01*
X13363374Y38738366D02*
X13348869Y38620762D01*
X13372091Y38856541D02*
X13363374Y38738366D01*
X13375000Y38975000D02*
X13372091Y38856541D01*
X13375000Y38975000D02*
X13375000Y39200000D01*
X10504815Y28601983D02*
X10500000Y28700000D01*
X10519214Y28504910D02*
X10504815Y28601983D01*
X10543059Y28409716D02*
X10519214Y28504910D01*
X10576120Y28317317D02*
X10543059Y28409716D01*
X10618078Y28228604D02*
X10576120Y28317317D01*
X10668530Y28144430D02*
X10618078Y28228604D01*
X10726989Y28065607D02*
X10668530Y28144430D01*
X10792893Y27992894D02*
X10726989Y28065607D01*
X10865606Y27926990D02*
X10792893Y27992894D01*
X10944429Y27868531D02*
X10865606Y27926990D01*
X11028603Y27818079D02*
X10944429Y27868531D01*
X11117316Y27776121D02*
X11028603Y27818079D01*
X11209715Y27743060D02*
X11117316Y27776121D01*
X11304909Y27719215D02*
X11209715Y27743060D01*
X11401982Y27704816D02*
X11304909Y27719215D01*
X11500000Y27700000D02*
X11401982Y27704816D01*
X13375000Y42075000D02*
X13475000Y42175000D01*
X13375000Y39200000D02*
X13375000Y42075000D01*
X13907086Y36257087D02*
X14817893Y37167894D01*
X13825378Y36171267D02*
X13907086Y36257087D01*
X13747980Y36081542D02*
X13825378Y36171267D01*
X13675078Y35988126D02*
X13747980Y36081542D01*
X13606847Y35891246D02*
X13675078Y35988126D01*
X13543452Y35791134D02*
X13606847Y35891246D01*
X13485046Y35688033D02*
X13543452Y35791134D01*
X13431769Y35582190D02*
X13485046Y35688033D01*
X13383750Y35473860D02*
X13431769Y35582190D01*
X13341104Y35363305D02*
X13383750Y35473860D01*
X13303934Y35250790D02*
X13341104Y35363305D01*
X13272330Y35136587D02*
X13303934Y35250790D01*
X13246367Y35020970D02*
X13272330Y35136587D01*
X13226109Y34904219D02*
X13246367Y35020970D01*
X13211604Y34786615D02*
X13226109Y34904219D01*
X13202887Y34668440D02*
X13211604Y34786615D01*
X13199980Y34549980D02*
X13202887Y34668440D01*
X13199980Y34549980D02*
X13199980Y27499980D01*
X14899600Y37253715D02*
X14817893Y37167894D01*
X14976998Y37343441D02*
X14899600Y37253715D01*
X15049900Y37436856D02*
X14976998Y37343441D01*
X15118131Y37533736D02*
X15049900Y37436856D01*
X15181525Y37633847D02*
X15118131Y37533736D01*
X15239932Y37736949D02*
X15181525Y37633847D01*
X15293209Y37842792D02*
X15239932Y37736949D01*
X15341228Y37951121D02*
X15293209Y37842792D01*
X15383874Y38061677D02*
X15341228Y37951121D01*
X15421044Y38174192D02*
X15383874Y38061677D01*
X15452648Y38288395D02*
X15421044Y38174192D01*
X15478611Y38404011D02*
X15452648Y38288395D01*
X15498869Y38520762D02*
X15478611Y38404011D01*
X15513374Y38638366D02*
X15498869Y38520762D01*
X15522091Y38756541D02*
X15513374Y38638366D01*
X15525000Y38875000D02*
X15522091Y38756541D01*
X15525000Y38875000D02*
X15525000Y39200000D01*
X12972990Y26865587D02*
X13031449Y26944410D01*
X12834373Y26726970D02*
X12907086Y26792874D01*
X12755550Y26668511D02*
X12834373Y26726970D01*
X12907086Y26792874D02*
X12972990Y26865587D01*
X11350000Y26499980D02*
X12199980Y26499980D01*
X12582663Y26576101D02*
X12671376Y26618059D01*
X13195164Y27401963D02*
X13199980Y27499980D01*
X12671376Y26618059D02*
X12755550Y26668511D01*
X12199980Y26499980D02*
X12297997Y26504796D01*
X12297997Y26504796D02*
X12395070Y26519195D01*
X12490264Y26543040D02*
X12582663Y26576101D01*
X13180765Y27304890D02*
X13195164Y27401963D01*
X12395070Y26519195D02*
X12490264Y26543040D01*
X13031449Y26944410D02*
X13081901Y27028584D01*
X13081901Y27028584D02*
X13123859Y27117297D01*
X13123859Y27117297D02*
X13156920Y27209696D01*
X13156920Y27209696D02*
X13180765Y27304890D01*
X15450000Y39275000D02*
X15525000Y39200000D01*
X15525000Y42125000D02*
X15475000Y42175000D01*
X15525000Y39200000D02*
X15525000Y42125000D01*
D27*
X52650000Y41225000D02*
X52650000Y45875000D01*
X52645184Y41126983D02*
X52650000Y41225000D01*
X52630785Y41029910D02*
X52645184Y41126983D01*
X52606940Y40934716D02*
X52630785Y41029910D01*
X52573879Y40842317D02*
X52606940Y40934716D01*
X52531921Y40753604D02*
X52573879Y40842317D01*
X52481469Y40669430D02*
X52531921Y40753604D01*
X52423010Y40590607D02*
X52481469Y40669430D01*
X52357106Y40517894D02*
X52423010Y40590607D01*
X52284393Y40451990D02*
X52357106Y40517894D01*
X52205570Y40393531D02*
X52284393Y40451990D01*
X52121396Y40343079D02*
X52205570Y40393531D01*
X52032683Y40301121D02*
X52121396Y40343079D01*
X51940284Y40268060D02*
X52032683Y40301121D01*
X51845090Y40244215D02*
X51940284Y40268060D01*
X51748017Y40229816D02*
X51845090Y40244215D01*
X51650000Y40225000D02*
X51748017Y40229816D01*
X51650000Y40225000D02*
X50050000Y40225000D01*
X50050000Y40225000D02*
X46875000Y40225000D01*
D21*
X28600000Y19900000D02*
X28600000Y7050000D01*
X28585554Y20194052D02*
X28600000Y19900000D01*
X28542355Y20485271D02*
X28585554Y20194052D01*
X28470821Y20770855D02*
X28542355Y20485271D01*
X28371638Y21048051D02*
X28470821Y20770855D01*
X28245763Y21314191D02*
X28371638Y21048051D01*
X25600000Y22900000D02*
X25894051Y22885555D01*
X25894051Y22885555D02*
X26185270Y22842356D01*
X27014190Y22545764D02*
X27266710Y22394409D01*
X26185270Y22842356D02*
X26470854Y22770822D01*
X27919031Y21803180D02*
X28094408Y21566711D01*
X26470854Y22770822D02*
X26748050Y22671639D01*
X26748050Y22671639D02*
X27014190Y22545764D01*
X27266710Y22394409D02*
X27503179Y22219032D01*
X27503179Y22219032D02*
X27721320Y22021321D01*
X27721320Y22021321D02*
X27919031Y21803180D01*
X28094408Y21566711D02*
X28245763Y21314191D01*
X20350000Y22900000D02*
X25600000Y22900000D01*
X20350000Y22900000D02*
X20231540Y22897093D01*
X20231540Y22897093D02*
X20113365Y22888376D01*
X20113365Y22888376D02*
X19995761Y22873871D01*
X19995761Y22873871D02*
X19879010Y22853613D01*
X19879010Y22853613D02*
X19763393Y22827650D01*
X19763393Y22827650D02*
X19649190Y22796046D01*
X19649190Y22796046D02*
X19536675Y22758876D01*
X19536675Y22758876D02*
X19426120Y22716230D01*
X19426120Y22716230D02*
X19317790Y22668211D01*
X19317790Y22668211D02*
X19211947Y22614934D01*
X19211947Y22614934D02*
X19108846Y22556528D01*
X19108846Y22556528D02*
X19008734Y22493133D01*
X19008734Y22493133D02*
X18911854Y22424902D01*
X18911854Y22424902D02*
X18818438Y22352000D01*
X18818438Y22352000D02*
X18728713Y22274602D01*
X18728713Y22274602D02*
X18642893Y22192894D01*
X18642893Y22192894D02*
X17300000Y20850000D01*
D26*
X16475000Y44925000D02*
X16573017Y44920185D01*
X16573017Y44920185D02*
X16670090Y44905786D01*
X16670090Y44905786D02*
X16765284Y44881941D01*
X16765284Y44881941D02*
X16857683Y44848880D01*
X16857683Y44848880D02*
X16946396Y44806922D01*
X16946396Y44806922D02*
X17030570Y44756470D01*
X17030570Y44756470D02*
X17109393Y44698011D01*
X17109393Y44698011D02*
X17182106Y44632107D01*
X17182106Y44632107D02*
X17248010Y44559394D01*
X17248010Y44559394D02*
X17306469Y44480571D01*
X17306469Y44480571D02*
X17356921Y44396397D01*
X17356921Y44396397D02*
X17398879Y44307684D01*
X17398879Y44307684D02*
X17431940Y44215285D01*
X17431940Y44215285D02*
X17455785Y44120091D01*
X17455785Y44120091D02*
X17470184Y44023018D01*
X17470184Y44023018D02*
X17475000Y43925000D01*
X17475000Y43925000D02*
X17475000Y42175000D01*
X8900000Y43925000D02*
X8904815Y44023018D01*
X8904815Y44023018D02*
X8919214Y44120091D01*
X8919214Y44120091D02*
X8943059Y44215285D01*
X8943059Y44215285D02*
X8976120Y44307684D01*
X8976120Y44307684D02*
X9018078Y44396397D01*
X9018078Y44396397D02*
X9068530Y44480571D01*
X9068530Y44480571D02*
X9126989Y44559394D01*
X9126989Y44559394D02*
X9192893Y44632107D01*
X9192893Y44632107D02*
X9265606Y44698011D01*
X9265606Y44698011D02*
X9344429Y44756470D01*
X9344429Y44756470D02*
X9428603Y44806922D01*
X9428603Y44806922D02*
X9517316Y44848880D01*
X9517316Y44848880D02*
X9609715Y44881941D01*
X9609715Y44881941D02*
X9704909Y44905786D01*
X9704909Y44905786D02*
X9801982Y44920185D01*
X9801982Y44920185D02*
X9900000Y44925000D01*
X9900000Y44925000D02*
X16475000Y44925000D01*
X7900000Y41000000D02*
X1900000Y41000000D01*
X7900000Y41000000D02*
X7998017Y41004816D01*
X7998017Y41004816D02*
X8095090Y41019215D01*
X8095090Y41019215D02*
X8190284Y41043060D01*
X8190284Y41043060D02*
X8282683Y41076121D01*
X8282683Y41076121D02*
X8371396Y41118079D01*
X8371396Y41118079D02*
X8455570Y41168531D01*
X8455570Y41168531D02*
X8534393Y41226990D01*
X8534393Y41226990D02*
X8607106Y41292894D01*
X8607106Y41292894D02*
X8673010Y41365607D01*
X8673010Y41365607D02*
X8731469Y41444430D01*
X8731469Y41444430D02*
X8781921Y41528604D01*
X8781921Y41528604D02*
X8823879Y41617317D01*
X8823879Y41617317D02*
X8856940Y41709716D01*
X8856940Y41709716D02*
X8880785Y41804910D01*
X8880785Y41804910D02*
X8895184Y41901983D01*
X8895184Y41901983D02*
X8900000Y42000000D01*
X8900000Y42000000D02*
X8900000Y43925000D01*
D29*
X12346257Y3659231D02*
X12435955Y3622077D01*
X12512976Y3562976D01*
X12572077Y3485955D01*
X12609231Y3396257D01*
X12623000Y3291672D01*
X12623000Y2400000D01*
X12624086Y2383423D01*
X12641123Y2254013D01*
X12649704Y2221989D01*
X12699654Y2101399D01*
X12716232Y2072687D01*
X12795692Y1969134D01*
X12819134Y1945692D01*
X12922687Y1866232D01*
X12951399Y1849654D01*
X13071989Y1799704D01*
X13104013Y1791123D01*
X13233423Y1774086D01*
X13250000Y1773000D01*
X23450000Y1773000D01*
X23466577Y1774086D01*
X23595987Y1791123D01*
X23628011Y1799704D01*
X23748601Y1849654D01*
X23777313Y1866232D01*
X23880866Y1945692D01*
X23904308Y1969134D01*
X23983768Y2072687D01*
X24000346Y2101399D01*
X24050296Y2221989D01*
X24058877Y2254013D01*
X24075914Y2383423D01*
X24077000Y2400000D01*
X24077000Y3291672D01*
X24090769Y3396257D01*
X24127923Y3485955D01*
X24187024Y3562976D01*
X24264045Y3622077D01*
X24353743Y3659231D01*
X24458328Y3673000D01*
X28291672Y3673000D01*
X28396257Y3659231D01*
X28485955Y3622077D01*
X28562976Y3562976D01*
X28622077Y3485955D01*
X28659231Y3396257D01*
X28673000Y3291672D01*
X28673000Y2400000D01*
X28674086Y2383423D01*
X28691123Y2254013D01*
X28699704Y2221989D01*
X28749654Y2101399D01*
X28766232Y2072687D01*
X28845692Y1969134D01*
X28869134Y1945692D01*
X28972687Y1866232D01*
X29001399Y1849654D01*
X29121989Y1799704D01*
X29154013Y1791123D01*
X29283423Y1774086D01*
X29300000Y1773000D01*
X41500000Y1773000D01*
X41516577Y1774086D01*
X41645987Y1791123D01*
X41678011Y1799704D01*
X41798601Y1849654D01*
X41827313Y1866232D01*
X41930866Y1945692D01*
X41954308Y1969134D01*
X42033768Y2072687D01*
X42050346Y2101399D01*
X42100296Y2221989D01*
X42108877Y2254013D01*
X42125914Y2383423D01*
X42127000Y2400000D01*
X42127000Y3191672D01*
X42140769Y3296257D01*
X42177923Y3385955D01*
X42237024Y3462976D01*
X42314045Y3522077D01*
X42403743Y3559231D01*
X42508328Y3573000D01*
X45291672Y3573000D01*
X45396257Y3559231D01*
X45485955Y3522077D01*
X45562976Y3462976D01*
X45622077Y3385955D01*
X45659231Y3296257D01*
X45673000Y3191672D01*
X45673000Y2400000D01*
X45674086Y2383423D01*
X45691123Y2254013D01*
X45699704Y2221989D01*
X45749654Y2101399D01*
X45766232Y2072687D01*
X45845692Y1969134D01*
X45869134Y1945692D01*
X45972687Y1866232D01*
X46001399Y1849654D01*
X46121989Y1799704D01*
X46154013Y1791123D01*
X46283423Y1774086D01*
X46300000Y1773000D01*
X51991672Y1773000D01*
X52096257Y1759231D01*
X52185955Y1722077D01*
X52262976Y1662976D01*
X52322077Y1585955D01*
X52359231Y1496257D01*
X52373000Y1391672D01*
X52373000Y908328D01*
X52359231Y803743D01*
X52322077Y714045D01*
X52262976Y637024D01*
X52185955Y577923D01*
X52096257Y540769D01*
X51991672Y527000D01*
X11658328Y527000D01*
X11553743Y540769D01*
X11464045Y577923D01*
X11387024Y637024D01*
X11327923Y714045D01*
X11290769Y803743D01*
X11277000Y908328D01*
X11277000Y3291672D01*
X11290769Y3396257D01*
X11327923Y3485955D01*
X11387024Y3562976D01*
X11464045Y3622077D01*
X11553743Y3659231D01*
X11658328Y3673000D01*
X12241672Y3673000D01*
X12346257Y3659231D01*
%TA.AperFunction,Conductor*%
D30*
G36*
X12346257Y3659231D02*
G01*
X12435955Y3622077D01*
X12512976Y3562976D01*
X12572077Y3485955D01*
X12609231Y3396257D01*
X12623000Y3291672D01*
X12623000Y2400000D01*
X12624086Y2383423D01*
X12641123Y2254013D01*
X12649704Y2221989D01*
X12699654Y2101399D01*
X12716232Y2072687D01*
X12795692Y1969134D01*
X12819134Y1945692D01*
X12922687Y1866232D01*
X12951399Y1849654D01*
X13071989Y1799704D01*
X13104013Y1791123D01*
X13233423Y1774086D01*
X13250000Y1773000D01*
X23450000Y1773000D01*
X23466577Y1774086D01*
X23595987Y1791123D01*
X23628011Y1799704D01*
X23748601Y1849654D01*
X23777313Y1866232D01*
X23880866Y1945692D01*
X23904308Y1969134D01*
X23983768Y2072687D01*
X24000346Y2101399D01*
X24050296Y2221989D01*
X24058877Y2254013D01*
X24075914Y2383423D01*
X24077000Y2400000D01*
X24077000Y3291672D01*
X24090769Y3396257D01*
X24127923Y3485955D01*
X24187024Y3562976D01*
X24264045Y3622077D01*
X24353743Y3659231D01*
X24458328Y3673000D01*
X28291672Y3673000D01*
X28396257Y3659231D01*
X28485955Y3622077D01*
X28562976Y3562976D01*
X28622077Y3485955D01*
X28659231Y3396257D01*
X28673000Y3291672D01*
X28673000Y2400000D01*
X28674086Y2383423D01*
X28691123Y2254013D01*
X28699704Y2221989D01*
X28749654Y2101399D01*
X28766232Y2072687D01*
X28845692Y1969134D01*
X28869134Y1945692D01*
X28972687Y1866232D01*
X29001399Y1849654D01*
X29121989Y1799704D01*
X29154013Y1791123D01*
X29283423Y1774086D01*
X29300000Y1773000D01*
X41500000Y1773000D01*
X41516577Y1774086D01*
X41645987Y1791123D01*
X41678011Y1799704D01*
X41798601Y1849654D01*
X41827313Y1866232D01*
X41930866Y1945692D01*
X41954308Y1969134D01*
X42033768Y2072687D01*
X42050346Y2101399D01*
X42100296Y2221989D01*
X42108877Y2254013D01*
X42125914Y2383423D01*
X42127000Y2400000D01*
X42127000Y3191672D01*
X42140769Y3296257D01*
X42177923Y3385955D01*
X42237024Y3462976D01*
X42314045Y3522077D01*
X42403743Y3559231D01*
X42508328Y3573000D01*
X45291672Y3573000D01*
X45396257Y3559231D01*
X45485955Y3522077D01*
X45562976Y3462976D01*
X45622077Y3385955D01*
X45659231Y3296257D01*
X45673000Y3191672D01*
X45673000Y2400000D01*
X45674086Y2383423D01*
X45691123Y2254013D01*
X45699704Y2221989D01*
X45749654Y2101399D01*
X45766232Y2072687D01*
X45845692Y1969134D01*
X45869134Y1945692D01*
X45972687Y1866232D01*
X46001399Y1849654D01*
X46121989Y1799704D01*
X46154013Y1791123D01*
X46283423Y1774086D01*
X46300000Y1773000D01*
X51991672Y1773000D01*
X52096257Y1759231D01*
X52185955Y1722077D01*
X52262976Y1662976D01*
X52322077Y1585955D01*
X52359231Y1496257D01*
X52373000Y1391672D01*
X52373000Y908328D01*
X52359231Y803743D01*
X52322077Y714045D01*
X52262976Y637024D01*
X52185955Y577923D01*
X52096257Y540769D01*
X51991672Y527000D01*
X11658328Y527000D01*
X11553743Y540769D01*
X11464045Y577923D01*
X11387024Y637024D01*
X11327923Y714045D01*
X11290769Y803743D01*
X11277000Y908328D01*
X11277000Y3291672D01*
X11290769Y3396257D01*
X11327923Y3485955D01*
X11387024Y3562976D01*
X11464045Y3622077D01*
X11553743Y3659231D01*
X11658328Y3673000D01*
X12241672Y3673000D01*
X12346257Y3659231D01*
G37*
%TD.AperFunction*%
D29*
X18271257Y39534231D02*
X18360955Y39497077D01*
X18437976Y39437976D01*
X18497077Y39360955D01*
X18534231Y39271257D01*
X18548000Y39166672D01*
X18548000Y37333328D01*
X18534231Y37228743D01*
X18497077Y37139045D01*
X18437976Y37062024D01*
X18360955Y37002923D01*
X18271257Y36965769D01*
X18166672Y36952000D01*
X16783328Y36952000D01*
X16678743Y36965769D01*
X16589045Y37002923D01*
X16512024Y37062024D01*
X16452923Y37139045D01*
X16415769Y37228743D01*
X16402000Y37333328D01*
X16402000Y37606240D01*
X16412235Y37657694D01*
X16434294Y37690706D01*
X16467306Y37712765D01*
X16531027Y37725440D01*
X16619655Y37742991D01*
X16643486Y37750198D01*
X16665270Y37761794D01*
X16740612Y37811856D01*
X16759898Y37827601D01*
X16775620Y37846625D01*
X16826198Y37921623D01*
X16838028Y37943529D01*
X16845314Y37967109D01*
X16863493Y38055722D01*
X16866081Y38080375D01*
X16873539Y39169267D01*
X16887902Y39273307D01*
X16925353Y39362426D01*
X16984507Y39438882D01*
X17061365Y39497509D01*
X17150740Y39534351D01*
X17254875Y39548000D01*
X18166672Y39548000D01*
X18271257Y39534231D01*
%TA.AperFunction,Conductor*%
D30*
G36*
X18271257Y39534231D02*
G01*
X18360955Y39497077D01*
X18437976Y39437976D01*
X18497077Y39360955D01*
X18534231Y39271257D01*
X18548000Y39166672D01*
X18548000Y37333328D01*
X18534231Y37228743D01*
X18497077Y37139045D01*
X18437976Y37062024D01*
X18360955Y37002923D01*
X18271257Y36965769D01*
X18166672Y36952000D01*
X16783328Y36952000D01*
X16678743Y36965769D01*
X16589045Y37002923D01*
X16512024Y37062024D01*
X16452923Y37139045D01*
X16415769Y37228743D01*
X16402000Y37333328D01*
X16402000Y37606240D01*
X16412235Y37657694D01*
X16434294Y37690706D01*
X16467306Y37712765D01*
X16531027Y37725440D01*
X16619655Y37742991D01*
X16643486Y37750198D01*
X16665270Y37761794D01*
X16740612Y37811856D01*
X16759898Y37827601D01*
X16775620Y37846625D01*
X16826198Y37921623D01*
X16838028Y37943529D01*
X16845314Y37967109D01*
X16863493Y38055722D01*
X16866081Y38080375D01*
X16873539Y39169267D01*
X16887902Y39273307D01*
X16925353Y39362426D01*
X16984507Y39438882D01*
X17061365Y39497509D01*
X17150740Y39534351D01*
X17254875Y39548000D01*
X18166672Y39548000D01*
X18271257Y39534231D01*
G37*
%TD.AperFunction*%
D29*
X20371257Y43784231D02*
X20460955Y43747077D01*
X20537976Y43687976D01*
X20597077Y43610955D01*
X20634231Y43521257D01*
X20648000Y43416672D01*
X20648000Y37333328D01*
X20634231Y37228743D01*
X20597077Y37139045D01*
X20537976Y37062024D01*
X20460955Y37002923D01*
X20371257Y36965769D01*
X20266672Y36952000D01*
X20158328Y36952000D01*
X20053743Y36965769D01*
X19964045Y37002923D01*
X19887024Y37062024D01*
X19827923Y37139045D01*
X19790769Y37228743D01*
X19777000Y37333328D01*
X19777000Y40087500D01*
X19775436Y40107367D01*
X19758918Y40211660D01*
X19752632Y40235749D01*
X19746640Y40249450D01*
X19698701Y40343535D01*
X19685278Y40364503D01*
X19675346Y40375681D01*
X19600681Y40450346D01*
X19581435Y40466140D01*
X19568535Y40473701D01*
X19474450Y40521640D01*
X19451266Y40530714D01*
X19436660Y40533918D01*
X19247943Y40563807D01*
X19189703Y40593482D01*
X19143482Y40639703D01*
X19113807Y40697943D01*
X19102000Y40772492D01*
X19102000Y43416672D01*
X19115769Y43521257D01*
X19152923Y43610955D01*
X19212024Y43687976D01*
X19289045Y43747077D01*
X19378743Y43784231D01*
X19483328Y43798000D01*
X20266672Y43798000D01*
X20371257Y43784231D01*
%TA.AperFunction,Conductor*%
D30*
G36*
X20371257Y43784231D02*
G01*
X20460955Y43747077D01*
X20537976Y43687976D01*
X20597077Y43610955D01*
X20634231Y43521257D01*
X20648000Y43416672D01*
X20648000Y37333328D01*
X20634231Y37228743D01*
X20597077Y37139045D01*
X20537976Y37062024D01*
X20460955Y37002923D01*
X20371257Y36965769D01*
X20266672Y36952000D01*
X20158328Y36952000D01*
X20053743Y36965769D01*
X19964045Y37002923D01*
X19887024Y37062024D01*
X19827923Y37139045D01*
X19790769Y37228743D01*
X19777000Y37333328D01*
X19777000Y40087500D01*
X19775436Y40107367D01*
X19758918Y40211660D01*
X19752632Y40235749D01*
X19746640Y40249450D01*
X19698701Y40343535D01*
X19685278Y40364503D01*
X19675346Y40375681D01*
X19600681Y40450346D01*
X19581435Y40466140D01*
X19568535Y40473701D01*
X19474450Y40521640D01*
X19451266Y40530714D01*
X19436660Y40533918D01*
X19247943Y40563807D01*
X19189703Y40593482D01*
X19143482Y40639703D01*
X19113807Y40697943D01*
X19102000Y40772492D01*
X19102000Y43416672D01*
X19115769Y43521257D01*
X19152923Y43610955D01*
X19212024Y43687976D01*
X19289045Y43747077D01*
X19378743Y43784231D01*
X19483328Y43798000D01*
X20266672Y43798000D01*
X20371257Y43784231D01*
G37*
%TD.AperFunction*%
M02*
