%TF.GenerationSoftware,KiCad,Pcbnew,(5.1.8)-1*%
%TF.CreationDate,2021-02-13T13:26:22-08:00*%
%TF.ProjectId,20200103_8SBMS_A0,32303230-3031-4303-935f-3853424d535f,rev?*%
%TF.SameCoordinates,PXb061cf0PYa92e8c0*%
%TF.FileFunction,Copper,L2,Inr*%
%TF.FilePolarity,Positive*%
%FSLAX46Y46*%
G04 Gerber Fmt 4.6, Leading zero omitted, Abs format (unit mm)*
G04 Created by KiCad (PCBNEW (5.1.8)-1) date 2021-02-13 13:26:22*
%MOMM*%
%LPD*%
G01*
G04 APERTURE LIST*
%TA.AperFunction,ComponentPad*%
%ADD10C,2.000000*%
%TD*%
%TA.AperFunction,ComponentPad*%
%ADD11C,6.000000*%
%TD*%
%TA.AperFunction,ViaPad*%
%ADD12C,0.800000*%
%TD*%
%TA.AperFunction,ViaPad*%
%ADD13C,1.000000*%
%TD*%
%TA.AperFunction,Conductor*%
%ADD14C,0.254000*%
%TD*%
%TA.AperFunction,Conductor*%
%ADD15C,0.100000*%
%TD*%
G04 APERTURE END LIST*
D10*
X1450000Y34710000D03*
X43250000Y34360000D03*
X43250000Y31820000D03*
X43250000Y29280000D03*
X43250000Y26740000D03*
X43250000Y14040000D03*
X43250000Y16580000D03*
X43250000Y19120000D03*
X43250000Y21660000D03*
X43250000Y24200000D03*
X1450000Y32170000D03*
X1450000Y29630000D03*
X1450000Y27090000D03*
X1450000Y14390000D03*
X1450000Y16930000D03*
X1450000Y19470000D03*
X1450000Y22010000D03*
X1450000Y24550000D03*
D11*
X3550000Y46050000D03*
X3550000Y3650000D03*
D10*
X46875000Y37685000D03*
X46875000Y40225000D03*
X46875000Y42765000D03*
D12*
X16800000Y37300000D03*
X23850000Y12500006D03*
X11325000Y18900000D03*
X40400000Y8800000D03*
D13*
X11475000Y43400000D03*
D12*
X24025000Y16425000D03*
X25600000Y48000000D03*
X25600000Y48900000D03*
X26500000Y48000000D03*
X25600000Y47100000D03*
X26500000Y48900000D03*
X26525000Y47100000D03*
X55100000Y34600000D03*
X55100000Y13800000D03*
X53950000Y40175000D03*
X55225000Y40175000D03*
X31500000Y41850000D03*
D13*
X48475000Y45075000D03*
X46625000Y45075000D03*
X36600000Y13750000D03*
X36600000Y16750000D03*
X36600000Y19750000D03*
X36600000Y22750000D03*
X36600000Y25750000D03*
X36600000Y28750000D03*
X36600000Y31750000D03*
X36600000Y34750000D03*
X24275000Y32850000D03*
X20450000Y37450000D03*
D12*
X12950000Y22275000D03*
X23250000Y18675000D03*
X21700000Y12500000D03*
X39900000Y40450000D03*
X12000000Y32075000D03*
X13550000Y17050000D03*
X47400000Y10625000D03*
X31500000Y41000000D03*
X26400000Y900000D03*
X44000000Y800000D03*
X20450000Y20925000D03*
X13450000Y23300000D03*
X11750000Y23500000D03*
X14900000Y23150000D03*
X26800000Y38100000D03*
X15250000Y24700000D03*
X28475000Y40025000D03*
X11250000Y24450000D03*
X38400000Y5750000D03*
X10300000Y23100000D03*
X10300000Y4700000D03*
X36400000Y4700000D03*
X17475000Y28532612D03*
X17450000Y29975000D03*
X12249998Y27700000D03*
X11350000Y26499980D03*
X52650000Y45875000D03*
X55225000Y42775000D03*
X54250000Y42775000D03*
X17300000Y20850000D03*
X28600000Y7050000D03*
X1900000Y41000000D03*
X49400000Y9050000D03*
D14*
X35759231Y49246257D02*
X35773000Y49141672D01*
X35773000Y35175811D01*
X35708624Y35020396D01*
X35673000Y34841301D01*
X35673000Y34658699D01*
X35708624Y34479604D01*
X35773000Y34324189D01*
X35773000Y32175811D01*
X35708624Y32020396D01*
X35673000Y31841301D01*
X35673000Y31658699D01*
X35708624Y31479604D01*
X35773000Y31324189D01*
X35773000Y29175811D01*
X35708624Y29020396D01*
X35673000Y28841301D01*
X35673000Y28658699D01*
X35708624Y28479604D01*
X35773000Y28324189D01*
X35773000Y26175811D01*
X35708624Y26020396D01*
X35673000Y25841301D01*
X35673000Y25658699D01*
X35708624Y25479604D01*
X35773000Y25324189D01*
X35773000Y23175811D01*
X35708624Y23020396D01*
X35673000Y22841301D01*
X35673000Y22658699D01*
X35708624Y22479604D01*
X35773000Y22324189D01*
X35773000Y20175811D01*
X35708624Y20020396D01*
X35673000Y19841301D01*
X35673000Y19658699D01*
X35708624Y19479604D01*
X35773000Y19324189D01*
X35773000Y17175811D01*
X35708624Y17020396D01*
X35673000Y16841301D01*
X35673000Y16658699D01*
X35708624Y16479604D01*
X35773000Y16324189D01*
X35773000Y14175811D01*
X35708624Y14020396D01*
X35673000Y13841301D01*
X35673000Y13658699D01*
X35708624Y13479604D01*
X35773063Y13324036D01*
X35774086Y13308423D01*
X35791123Y13179013D01*
X35799704Y13146989D01*
X35849654Y13026399D01*
X35866232Y12997687D01*
X35945692Y12894134D01*
X35969134Y12870692D01*
X36072687Y12791232D01*
X36101399Y12774654D01*
X36221989Y12724704D01*
X36254013Y12716123D01*
X36383423Y12699086D01*
X36400000Y12698000D01*
X40491672Y12698000D01*
X40596257Y12684231D01*
X40685955Y12647077D01*
X40762976Y12587976D01*
X40822077Y12510955D01*
X40859231Y12421257D01*
X40873000Y12316672D01*
X40873000Y508328D01*
X40865584Y452000D01*
X27095279Y452000D01*
X27132877Y508269D01*
X27195218Y658773D01*
X27227000Y818548D01*
X27227000Y981452D01*
X27195218Y1141227D01*
X27132877Y1291731D01*
X27042372Y1427181D01*
X26927181Y1542372D01*
X26791731Y1632877D01*
X26641227Y1695218D01*
X26481452Y1727000D01*
X26318548Y1727000D01*
X26158773Y1695218D01*
X26008269Y1632877D01*
X25872819Y1542372D01*
X25757628Y1427181D01*
X25667123Y1291731D01*
X25604782Y1141227D01*
X25573000Y981452D01*
X25573000Y818548D01*
X25604782Y658773D01*
X25667123Y508269D01*
X25704721Y452000D01*
X4784529Y452000D01*
X5173293Y613032D01*
X5734585Y988075D01*
X6211925Y1465415D01*
X6586968Y2026707D01*
X6845303Y2650381D01*
X6977000Y3312470D01*
X6977000Y3987530D01*
X6845303Y4649619D01*
X6790696Y4781452D01*
X9473000Y4781452D01*
X9473000Y4618548D01*
X9504782Y4458773D01*
X9567123Y4308269D01*
X9657628Y4172819D01*
X9772819Y4057628D01*
X9908269Y3967123D01*
X10058773Y3904782D01*
X10218548Y3873000D01*
X10381452Y3873000D01*
X10541227Y3904782D01*
X10691731Y3967123D01*
X10827181Y4057628D01*
X10942372Y4172819D01*
X11032877Y4308269D01*
X11095218Y4458773D01*
X11127000Y4618548D01*
X11127000Y4781452D01*
X35573000Y4781452D01*
X35573000Y4618548D01*
X35604782Y4458773D01*
X35667123Y4308269D01*
X35757628Y4172819D01*
X35872819Y4057628D01*
X36008269Y3967123D01*
X36158773Y3904782D01*
X36318548Y3873000D01*
X36481452Y3873000D01*
X36641227Y3904782D01*
X36791731Y3967123D01*
X36927181Y4057628D01*
X37042372Y4172819D01*
X37132877Y4308269D01*
X37195218Y4458773D01*
X37227000Y4618548D01*
X37227000Y4781452D01*
X37195218Y4941227D01*
X37132877Y5091731D01*
X37042372Y5227181D01*
X36927181Y5342372D01*
X36791731Y5432877D01*
X36641227Y5495218D01*
X36481452Y5527000D01*
X36318548Y5527000D01*
X36158773Y5495218D01*
X36008269Y5432877D01*
X35872819Y5342372D01*
X35757628Y5227181D01*
X35667123Y5091731D01*
X35604782Y4941227D01*
X35573000Y4781452D01*
X11127000Y4781452D01*
X11095218Y4941227D01*
X11032877Y5091731D01*
X10942372Y5227181D01*
X10827181Y5342372D01*
X10691731Y5432877D01*
X10541227Y5495218D01*
X10381452Y5527000D01*
X10218548Y5527000D01*
X10058773Y5495218D01*
X9908269Y5432877D01*
X9772819Y5342372D01*
X9657628Y5227181D01*
X9567123Y5091731D01*
X9504782Y4941227D01*
X9473000Y4781452D01*
X6790696Y4781452D01*
X6586968Y5273293D01*
X6214019Y5831452D01*
X37573000Y5831452D01*
X37573000Y5668548D01*
X37604782Y5508773D01*
X37667123Y5358269D01*
X37757628Y5222819D01*
X37872819Y5107628D01*
X38008269Y5017123D01*
X38158773Y4954782D01*
X38318548Y4923000D01*
X38481452Y4923000D01*
X38641227Y4954782D01*
X38791731Y5017123D01*
X38927181Y5107628D01*
X39042372Y5222819D01*
X39132877Y5358269D01*
X39195218Y5508773D01*
X39227000Y5668548D01*
X39227000Y5831452D01*
X39195218Y5991227D01*
X39132877Y6141731D01*
X39042372Y6277181D01*
X38927181Y6392372D01*
X38791731Y6482877D01*
X38641227Y6545218D01*
X38481452Y6577000D01*
X38318548Y6577000D01*
X38158773Y6545218D01*
X38008269Y6482877D01*
X37872819Y6392372D01*
X37757628Y6277181D01*
X37667123Y6141731D01*
X37604782Y5991227D01*
X37573000Y5831452D01*
X6214019Y5831452D01*
X6211925Y5834585D01*
X5734585Y6311925D01*
X5173293Y6686968D01*
X4549619Y6945303D01*
X3887530Y7077000D01*
X3212470Y7077000D01*
X2550381Y6945303D01*
X1926707Y6686968D01*
X1365415Y6311925D01*
X888075Y5834585D01*
X513032Y5273293D01*
X452000Y5125949D01*
X452000Y7131452D01*
X27773000Y7131452D01*
X27773000Y6968548D01*
X27804782Y6808773D01*
X27867123Y6658269D01*
X27957628Y6522819D01*
X28072819Y6407628D01*
X28208269Y6317123D01*
X28358773Y6254782D01*
X28518548Y6223000D01*
X28681452Y6223000D01*
X28841227Y6254782D01*
X28991731Y6317123D01*
X29127181Y6407628D01*
X29242372Y6522819D01*
X29332877Y6658269D01*
X29395218Y6808773D01*
X29427000Y6968548D01*
X29427000Y7131452D01*
X29395218Y7291227D01*
X29332877Y7441731D01*
X29242372Y7577181D01*
X29127181Y7692372D01*
X28991731Y7782877D01*
X28841227Y7845218D01*
X28681452Y7877000D01*
X28518548Y7877000D01*
X28358773Y7845218D01*
X28208269Y7782877D01*
X28072819Y7692372D01*
X27957628Y7577181D01*
X27867123Y7441731D01*
X27804782Y7291227D01*
X27773000Y7131452D01*
X452000Y7131452D01*
X452000Y12581452D01*
X20873000Y12581452D01*
X20873000Y12418548D01*
X20904782Y12258773D01*
X20967123Y12108269D01*
X21057628Y11972819D01*
X21172819Y11857628D01*
X21308269Y11767123D01*
X21458773Y11704782D01*
X21618548Y11673000D01*
X21781452Y11673000D01*
X21941227Y11704782D01*
X22091731Y11767123D01*
X22227181Y11857628D01*
X22342372Y11972819D01*
X22432877Y12108269D01*
X22495218Y12258773D01*
X22527000Y12418548D01*
X22527000Y12581452D01*
X22495218Y12741227D01*
X22432877Y12891731D01*
X22342372Y13027181D01*
X22227181Y13142372D01*
X22091731Y13232877D01*
X21941227Y13295218D01*
X21781452Y13327000D01*
X21618548Y13327000D01*
X21458773Y13295218D01*
X21308269Y13232877D01*
X21172819Y13142372D01*
X21057628Y13027181D01*
X20967123Y12891731D01*
X20904782Y12741227D01*
X20873000Y12581452D01*
X452000Y12581452D01*
X452000Y13369916D01*
X540340Y13281576D01*
X774062Y13125409D01*
X1033759Y13017838D01*
X1309453Y12963000D01*
X1590547Y12963000D01*
X1866241Y13017838D01*
X2125938Y13125409D01*
X2359660Y13281576D01*
X2558424Y13480340D01*
X2714591Y13714062D01*
X2822162Y13973759D01*
X2877000Y14249453D01*
X2877000Y14530547D01*
X2822162Y14806241D01*
X2714591Y15065938D01*
X2558424Y15299660D01*
X2359660Y15498424D01*
X2125938Y15654591D01*
X2112880Y15660000D01*
X2125938Y15665409D01*
X2359660Y15821576D01*
X2558424Y16020340D01*
X2714591Y16254062D01*
X2822162Y16513759D01*
X2877000Y16789453D01*
X2877000Y17070547D01*
X2864886Y17131452D01*
X12723000Y17131452D01*
X12723000Y16968548D01*
X12754782Y16808773D01*
X12817123Y16658269D01*
X12907628Y16522819D01*
X13022819Y16407628D01*
X13158269Y16317123D01*
X13308773Y16254782D01*
X13468548Y16223000D01*
X13631452Y16223000D01*
X13791227Y16254782D01*
X13941731Y16317123D01*
X14077181Y16407628D01*
X14192372Y16522819D01*
X14282877Y16658269D01*
X14345218Y16808773D01*
X14377000Y16968548D01*
X14377000Y17131452D01*
X14345218Y17291227D01*
X14282877Y17441731D01*
X14192372Y17577181D01*
X14077181Y17692372D01*
X13941731Y17782877D01*
X13791227Y17845218D01*
X13631452Y17877000D01*
X13468548Y17877000D01*
X13308773Y17845218D01*
X13158269Y17782877D01*
X13022819Y17692372D01*
X12907628Y17577181D01*
X12817123Y17441731D01*
X12754782Y17291227D01*
X12723000Y17131452D01*
X2864886Y17131452D01*
X2822162Y17346241D01*
X2714591Y17605938D01*
X2558424Y17839660D01*
X2359660Y18038424D01*
X2125938Y18194591D01*
X2112880Y18200000D01*
X2125938Y18205409D01*
X2359660Y18361576D01*
X2558424Y18560340D01*
X2689460Y18756452D01*
X22423000Y18756452D01*
X22423000Y18593548D01*
X22454782Y18433773D01*
X22517123Y18283269D01*
X22607628Y18147819D01*
X22722819Y18032628D01*
X22858269Y17942123D01*
X23008773Y17879782D01*
X23168548Y17848000D01*
X23331452Y17848000D01*
X23491227Y17879782D01*
X23641731Y17942123D01*
X23777181Y18032628D01*
X23892372Y18147819D01*
X23982877Y18283269D01*
X24045218Y18433773D01*
X24077000Y18593548D01*
X24077000Y18756452D01*
X24045218Y18916227D01*
X23982877Y19066731D01*
X23892372Y19202181D01*
X23777181Y19317372D01*
X23641731Y19407877D01*
X23491227Y19470218D01*
X23331452Y19502000D01*
X23168548Y19502000D01*
X23008773Y19470218D01*
X22858269Y19407877D01*
X22722819Y19317372D01*
X22607628Y19202181D01*
X22517123Y19066731D01*
X22454782Y18916227D01*
X22423000Y18756452D01*
X2689460Y18756452D01*
X2714591Y18794062D01*
X2822162Y19053759D01*
X2877000Y19329453D01*
X2877000Y19610547D01*
X2822162Y19886241D01*
X2714591Y20145938D01*
X2558424Y20379660D01*
X2359660Y20578424D01*
X2125938Y20734591D01*
X2112880Y20740000D01*
X2125938Y20745409D01*
X2359660Y20901576D01*
X2389536Y20931452D01*
X16473000Y20931452D01*
X16473000Y20768548D01*
X16504782Y20608773D01*
X16567123Y20458269D01*
X16657628Y20322819D01*
X16772819Y20207628D01*
X16908269Y20117123D01*
X17058773Y20054782D01*
X17218548Y20023000D01*
X17381452Y20023000D01*
X17541227Y20054782D01*
X17691731Y20117123D01*
X17827181Y20207628D01*
X17942372Y20322819D01*
X18032877Y20458269D01*
X18095218Y20608773D01*
X18127000Y20768548D01*
X18127000Y20931452D01*
X18112082Y21006452D01*
X19623000Y21006452D01*
X19623000Y20843548D01*
X19654782Y20683773D01*
X19717123Y20533269D01*
X19807628Y20397819D01*
X19922819Y20282628D01*
X20058269Y20192123D01*
X20208773Y20129782D01*
X20368548Y20098000D01*
X20531452Y20098000D01*
X20691227Y20129782D01*
X20841731Y20192123D01*
X20977181Y20282628D01*
X21092372Y20397819D01*
X21182877Y20533269D01*
X21245218Y20683773D01*
X21277000Y20843548D01*
X21277000Y21006452D01*
X21245218Y21166227D01*
X21182877Y21316731D01*
X21092372Y21452181D01*
X20977181Y21567372D01*
X20841731Y21657877D01*
X20691227Y21720218D01*
X20531452Y21752000D01*
X20368548Y21752000D01*
X20208773Y21720218D01*
X20058269Y21657877D01*
X19922819Y21567372D01*
X19807628Y21452181D01*
X19717123Y21316731D01*
X19654782Y21166227D01*
X19623000Y21006452D01*
X18112082Y21006452D01*
X18095218Y21091227D01*
X18032877Y21241731D01*
X17942372Y21377181D01*
X17827181Y21492372D01*
X17691731Y21582877D01*
X17541227Y21645218D01*
X17381452Y21677000D01*
X17218548Y21677000D01*
X17058773Y21645218D01*
X16908269Y21582877D01*
X16772819Y21492372D01*
X16657628Y21377181D01*
X16567123Y21241731D01*
X16504782Y21091227D01*
X16473000Y20931452D01*
X2389536Y20931452D01*
X2558424Y21100340D01*
X2714591Y21334062D01*
X2822162Y21593759D01*
X2877000Y21869453D01*
X2877000Y22150547D01*
X2822162Y22426241D01*
X2714591Y22685938D01*
X2558424Y22919660D01*
X2359660Y23118424D01*
X2265332Y23181452D01*
X9473000Y23181452D01*
X9473000Y23018548D01*
X9504782Y22858773D01*
X9567123Y22708269D01*
X9657628Y22572819D01*
X9772819Y22457628D01*
X9908269Y22367123D01*
X10058773Y22304782D01*
X10218548Y22273000D01*
X10381452Y22273000D01*
X10541227Y22304782D01*
X10665969Y22356452D01*
X12123000Y22356452D01*
X12123000Y22193548D01*
X12154782Y22033773D01*
X12217123Y21883269D01*
X12307628Y21747819D01*
X12422819Y21632628D01*
X12558269Y21542123D01*
X12708773Y21479782D01*
X12868548Y21448000D01*
X13031452Y21448000D01*
X13191227Y21479782D01*
X13341731Y21542123D01*
X13477181Y21632628D01*
X13592372Y21747819D01*
X13682877Y21883269D01*
X13745218Y22033773D01*
X13777000Y22193548D01*
X13777000Y22356452D01*
X13745218Y22516227D01*
X13741358Y22525547D01*
X13841731Y22567123D01*
X13977181Y22657628D01*
X14092372Y22772819D01*
X14134797Y22836312D01*
X14167123Y22758269D01*
X14257628Y22622819D01*
X14372819Y22507628D01*
X14508269Y22417123D01*
X14658773Y22354782D01*
X14818548Y22323000D01*
X14981452Y22323000D01*
X15141227Y22354782D01*
X15291731Y22417123D01*
X15427181Y22507628D01*
X15542372Y22622819D01*
X15632877Y22758269D01*
X15695218Y22908773D01*
X15727000Y23068548D01*
X15727000Y23231452D01*
X15695218Y23391227D01*
X15632877Y23541731D01*
X15542372Y23677181D01*
X15427181Y23792372D01*
X15306513Y23873000D01*
X15331452Y23873000D01*
X15491227Y23904782D01*
X15641731Y23967123D01*
X15777181Y24057628D01*
X15892372Y24172819D01*
X15982877Y24308269D01*
X16045218Y24458773D01*
X16077000Y24618548D01*
X16077000Y24781452D01*
X16045218Y24941227D01*
X15982877Y25091731D01*
X15892372Y25227181D01*
X15777181Y25342372D01*
X15641731Y25432877D01*
X15491227Y25495218D01*
X15331452Y25527000D01*
X15168548Y25527000D01*
X15008773Y25495218D01*
X14858269Y25432877D01*
X14722819Y25342372D01*
X14607628Y25227181D01*
X14517123Y25091731D01*
X14454782Y24941227D01*
X14423000Y24781452D01*
X14423000Y24618548D01*
X14454782Y24458773D01*
X14517123Y24308269D01*
X14607628Y24172819D01*
X14722819Y24057628D01*
X14843487Y23977000D01*
X14818548Y23977000D01*
X14658773Y23945218D01*
X14508269Y23882877D01*
X14372819Y23792372D01*
X14257628Y23677181D01*
X14215203Y23613688D01*
X14182877Y23691731D01*
X14092372Y23827181D01*
X13977181Y23942372D01*
X13841731Y24032877D01*
X13691227Y24095218D01*
X13531452Y24127000D01*
X13368548Y24127000D01*
X13208773Y24095218D01*
X13058269Y24032877D01*
X12922819Y23942372D01*
X12807628Y23827181D01*
X12717123Y23691731D01*
X12654782Y23541227D01*
X12623000Y23381452D01*
X12623000Y23218548D01*
X12654782Y23058773D01*
X12658642Y23049453D01*
X12558269Y23007877D01*
X12422819Y22917372D01*
X12307628Y22802181D01*
X12217123Y22666731D01*
X12154782Y22516227D01*
X12123000Y22356452D01*
X10665969Y22356452D01*
X10691731Y22367123D01*
X10827181Y22457628D01*
X10942372Y22572819D01*
X11032877Y22708269D01*
X11095218Y22858773D01*
X11116199Y22964248D01*
X11222819Y22857628D01*
X11358269Y22767123D01*
X11508773Y22704782D01*
X11668548Y22673000D01*
X11831452Y22673000D01*
X11991227Y22704782D01*
X12141731Y22767123D01*
X12277181Y22857628D01*
X12392372Y22972819D01*
X12482877Y23108269D01*
X12545218Y23258773D01*
X12577000Y23418548D01*
X12577000Y23581452D01*
X12545218Y23741227D01*
X12482877Y23891731D01*
X12392372Y24027181D01*
X12277181Y24142372D01*
X12141731Y24232877D01*
X12056995Y24267976D01*
X12077000Y24368548D01*
X12077000Y24531452D01*
X12045218Y24691227D01*
X11982877Y24841731D01*
X11892372Y24977181D01*
X11777181Y25092372D01*
X11641731Y25182877D01*
X11491227Y25245218D01*
X11331452Y25277000D01*
X11168548Y25277000D01*
X11008773Y25245218D01*
X10858269Y25182877D01*
X10722819Y25092372D01*
X10607628Y24977181D01*
X10517123Y24841731D01*
X10454782Y24691227D01*
X10423000Y24531452D01*
X10423000Y24368548D01*
X10454782Y24208773D01*
X10517123Y24058269D01*
X10607628Y23922819D01*
X10709328Y23821119D01*
X10691731Y23832877D01*
X10541227Y23895218D01*
X10381452Y23927000D01*
X10218548Y23927000D01*
X10058773Y23895218D01*
X9908269Y23832877D01*
X9772819Y23742372D01*
X9657628Y23627181D01*
X9567123Y23491731D01*
X9504782Y23341227D01*
X9473000Y23181452D01*
X2265332Y23181452D01*
X2125938Y23274591D01*
X2112880Y23280000D01*
X2125938Y23285409D01*
X2359660Y23441576D01*
X2558424Y23640340D01*
X2714591Y23874062D01*
X2822162Y24133759D01*
X2877000Y24409453D01*
X2877000Y24690547D01*
X2822162Y24966241D01*
X2714591Y25225938D01*
X2558424Y25459660D01*
X2359660Y25658424D01*
X2125938Y25814591D01*
X2112880Y25820000D01*
X2125938Y25825409D01*
X2359660Y25981576D01*
X2558424Y26180340D01*
X2714591Y26414062D01*
X2783918Y26581432D01*
X10523000Y26581432D01*
X10523000Y26418528D01*
X10554782Y26258753D01*
X10617123Y26108249D01*
X10707628Y25972799D01*
X10822819Y25857608D01*
X10958269Y25767103D01*
X11108773Y25704762D01*
X11268548Y25672980D01*
X11431452Y25672980D01*
X11591227Y25704762D01*
X11741731Y25767103D01*
X11877181Y25857608D01*
X11992372Y25972799D01*
X12082877Y26108249D01*
X12145218Y26258753D01*
X12177000Y26418528D01*
X12177000Y26581432D01*
X12145218Y26741207D01*
X12083631Y26889891D01*
X12168546Y26873000D01*
X12331450Y26873000D01*
X12491225Y26904782D01*
X12641729Y26967123D01*
X12777179Y27057628D01*
X12892370Y27172819D01*
X12982875Y27308269D01*
X13045216Y27458773D01*
X13076998Y27618548D01*
X13076998Y27781452D01*
X13045216Y27941227D01*
X12982875Y28091731D01*
X12892370Y28227181D01*
X12777179Y28342372D01*
X12641729Y28432877D01*
X12491225Y28495218D01*
X12331450Y28527000D01*
X12168546Y28527000D01*
X12008771Y28495218D01*
X11858267Y28432877D01*
X11722817Y28342372D01*
X11607626Y28227181D01*
X11517121Y28091731D01*
X11454780Y27941227D01*
X11422998Y27781452D01*
X11422998Y27618548D01*
X11454780Y27458773D01*
X11516367Y27310089D01*
X11431452Y27326980D01*
X11268548Y27326980D01*
X11108773Y27295198D01*
X10958269Y27232857D01*
X10822819Y27142352D01*
X10707628Y27027161D01*
X10617123Y26891711D01*
X10554782Y26741207D01*
X10523000Y26581432D01*
X2783918Y26581432D01*
X2822162Y26673759D01*
X2877000Y26949453D01*
X2877000Y27230547D01*
X2822162Y27506241D01*
X2714591Y27765938D01*
X2558424Y27999660D01*
X2359660Y28198424D01*
X2125938Y28354591D01*
X2112880Y28360000D01*
X2125938Y28365409D01*
X2359660Y28521576D01*
X2558424Y28720340D01*
X2714591Y28954062D01*
X2822162Y29213759D01*
X2877000Y29489453D01*
X2877000Y29770547D01*
X2822162Y30046241D01*
X2817933Y30056452D01*
X16623000Y30056452D01*
X16623000Y29893548D01*
X16654782Y29733773D01*
X16717123Y29583269D01*
X16807628Y29447819D01*
X16922819Y29332628D01*
X17053284Y29245454D01*
X16947819Y29174984D01*
X16832628Y29059793D01*
X16742123Y28924343D01*
X16679782Y28773839D01*
X16648000Y28614064D01*
X16648000Y28451160D01*
X16679782Y28291385D01*
X16742123Y28140881D01*
X16832628Y28005431D01*
X16947819Y27890240D01*
X17083269Y27799735D01*
X17233773Y27737394D01*
X17393548Y27705612D01*
X17556452Y27705612D01*
X17716227Y27737394D01*
X17866731Y27799735D01*
X18002181Y27890240D01*
X18117372Y28005431D01*
X18207877Y28140881D01*
X18270218Y28291385D01*
X18302000Y28451160D01*
X18302000Y28614064D01*
X18270218Y28773839D01*
X18207877Y28924343D01*
X18117372Y29059793D01*
X18002181Y29174984D01*
X17871716Y29262158D01*
X17977181Y29332628D01*
X18092372Y29447819D01*
X18182877Y29583269D01*
X18245218Y29733773D01*
X18277000Y29893548D01*
X18277000Y30056452D01*
X18245218Y30216227D01*
X18182877Y30366731D01*
X18092372Y30502181D01*
X17977181Y30617372D01*
X17841731Y30707877D01*
X17691227Y30770218D01*
X17531452Y30802000D01*
X17368548Y30802000D01*
X17208773Y30770218D01*
X17058269Y30707877D01*
X16922819Y30617372D01*
X16807628Y30502181D01*
X16717123Y30366731D01*
X16654782Y30216227D01*
X16623000Y30056452D01*
X2817933Y30056452D01*
X2714591Y30305938D01*
X2558424Y30539660D01*
X2359660Y30738424D01*
X2125938Y30894591D01*
X2112880Y30900000D01*
X2125938Y30905409D01*
X2359660Y31061576D01*
X2558424Y31260340D01*
X2714591Y31494062D01*
X2822162Y31753759D01*
X2877000Y32029453D01*
X2877000Y32156452D01*
X11173000Y32156452D01*
X11173000Y31993548D01*
X11204782Y31833773D01*
X11267123Y31683269D01*
X11357628Y31547819D01*
X11472819Y31432628D01*
X11608269Y31342123D01*
X11758773Y31279782D01*
X11918548Y31248000D01*
X12081452Y31248000D01*
X12241227Y31279782D01*
X12391731Y31342123D01*
X12527181Y31432628D01*
X12642372Y31547819D01*
X12732877Y31683269D01*
X12795218Y31833773D01*
X12827000Y31993548D01*
X12827000Y32156452D01*
X12795218Y32316227D01*
X12732877Y32466731D01*
X12642372Y32602181D01*
X12527181Y32717372D01*
X12391731Y32807877D01*
X12241227Y32870218D01*
X12081452Y32902000D01*
X11918548Y32902000D01*
X11758773Y32870218D01*
X11608269Y32807877D01*
X11472819Y32717372D01*
X11357628Y32602181D01*
X11267123Y32466731D01*
X11204782Y32316227D01*
X11173000Y32156452D01*
X2877000Y32156452D01*
X2877000Y32310547D01*
X2822162Y32586241D01*
X2714591Y32845938D01*
X2650872Y32941301D01*
X23348000Y32941301D01*
X23348000Y32758699D01*
X23383624Y32579604D01*
X23453504Y32410901D01*
X23554952Y32259072D01*
X23684072Y32129952D01*
X23835901Y32028504D01*
X24004604Y31958624D01*
X24183699Y31923000D01*
X24366301Y31923000D01*
X24545396Y31958624D01*
X24714099Y32028504D01*
X24865928Y32129952D01*
X24995048Y32259072D01*
X25096496Y32410901D01*
X25166376Y32579604D01*
X25202000Y32758699D01*
X25202000Y32941301D01*
X25166376Y33120396D01*
X25096496Y33289099D01*
X24995048Y33440928D01*
X24865928Y33570048D01*
X24714099Y33671496D01*
X24545396Y33741376D01*
X24366301Y33777000D01*
X24183699Y33777000D01*
X24004604Y33741376D01*
X23835901Y33671496D01*
X23684072Y33570048D01*
X23554952Y33440928D01*
X23453504Y33289099D01*
X23383624Y33120396D01*
X23348000Y32941301D01*
X2650872Y32941301D01*
X2558424Y33079660D01*
X2359660Y33278424D01*
X2125938Y33434591D01*
X2112880Y33440000D01*
X2125938Y33445409D01*
X2359660Y33601576D01*
X2558424Y33800340D01*
X2714591Y34034062D01*
X2822162Y34293759D01*
X2877000Y34569453D01*
X2877000Y34850547D01*
X2822162Y35126241D01*
X2714591Y35385938D01*
X2558424Y35619660D01*
X2359660Y35818424D01*
X2125938Y35974591D01*
X1866241Y36082162D01*
X1590547Y36137000D01*
X1309453Y36137000D01*
X1033759Y36082162D01*
X774062Y35974591D01*
X540340Y35818424D01*
X452000Y35730084D01*
X452000Y37541301D01*
X19523000Y37541301D01*
X19523000Y37358699D01*
X19558624Y37179604D01*
X19628504Y37010901D01*
X19729952Y36859072D01*
X19859072Y36729952D01*
X20010901Y36628504D01*
X20179604Y36558624D01*
X20358699Y36523000D01*
X20541301Y36523000D01*
X20720396Y36558624D01*
X20889099Y36628504D01*
X21040928Y36729952D01*
X21170048Y36859072D01*
X21271496Y37010901D01*
X21341376Y37179604D01*
X21377000Y37358699D01*
X21377000Y37541301D01*
X21341376Y37720396D01*
X21271496Y37889099D01*
X21170048Y38040928D01*
X21040928Y38170048D01*
X21023861Y38181452D01*
X25973000Y38181452D01*
X25973000Y38018548D01*
X26004782Y37858773D01*
X26067123Y37708269D01*
X26157628Y37572819D01*
X26272819Y37457628D01*
X26408269Y37367123D01*
X26558773Y37304782D01*
X26718548Y37273000D01*
X26881452Y37273000D01*
X27041227Y37304782D01*
X27191731Y37367123D01*
X27327181Y37457628D01*
X27442372Y37572819D01*
X27532877Y37708269D01*
X27595218Y37858773D01*
X27627000Y38018548D01*
X27627000Y38181452D01*
X27595218Y38341227D01*
X27532877Y38491731D01*
X27442372Y38627181D01*
X27327181Y38742372D01*
X27191731Y38832877D01*
X27041227Y38895218D01*
X26881452Y38927000D01*
X26718548Y38927000D01*
X26558773Y38895218D01*
X26408269Y38832877D01*
X26272819Y38742372D01*
X26157628Y38627181D01*
X26067123Y38491731D01*
X26004782Y38341227D01*
X25973000Y38181452D01*
X21023861Y38181452D01*
X20889099Y38271496D01*
X20720396Y38341376D01*
X20541301Y38377000D01*
X20358699Y38377000D01*
X20179604Y38341376D01*
X20010901Y38271496D01*
X19859072Y38170048D01*
X19729952Y38040928D01*
X19628504Y37889099D01*
X19558624Y37720396D01*
X19523000Y37541301D01*
X452000Y37541301D01*
X452000Y40106452D01*
X27648000Y40106452D01*
X27648000Y39943548D01*
X27679782Y39783773D01*
X27742123Y39633269D01*
X27832628Y39497819D01*
X27947819Y39382628D01*
X28083269Y39292123D01*
X28233773Y39229782D01*
X28393548Y39198000D01*
X28556452Y39198000D01*
X28716227Y39229782D01*
X28866731Y39292123D01*
X29002181Y39382628D01*
X29117372Y39497819D01*
X29207877Y39633269D01*
X29270218Y39783773D01*
X29302000Y39943548D01*
X29302000Y40106452D01*
X29270218Y40266227D01*
X29207877Y40416731D01*
X29117372Y40552181D01*
X29002181Y40667372D01*
X28866731Y40757877D01*
X28716227Y40820218D01*
X28556452Y40852000D01*
X28393548Y40852000D01*
X28233773Y40820218D01*
X28083269Y40757877D01*
X27947819Y40667372D01*
X27832628Y40552181D01*
X27742123Y40416731D01*
X27679782Y40266227D01*
X27648000Y40106452D01*
X452000Y40106452D01*
X452000Y41081452D01*
X1073000Y41081452D01*
X1073000Y40918548D01*
X1104782Y40758773D01*
X1167123Y40608269D01*
X1257628Y40472819D01*
X1372819Y40357628D01*
X1508269Y40267123D01*
X1658773Y40204782D01*
X1818548Y40173000D01*
X1981452Y40173000D01*
X2141227Y40204782D01*
X2291731Y40267123D01*
X2427181Y40357628D01*
X2542372Y40472819D01*
X2632877Y40608269D01*
X2695218Y40758773D01*
X2727000Y40918548D01*
X2727000Y41081452D01*
X2695218Y41241227D01*
X2632877Y41391731D01*
X2542372Y41527181D01*
X2427181Y41642372D01*
X2291731Y41732877D01*
X2141227Y41795218D01*
X1981452Y41827000D01*
X1818548Y41827000D01*
X1658773Y41795218D01*
X1508269Y41732877D01*
X1372819Y41642372D01*
X1257628Y41527181D01*
X1167123Y41391731D01*
X1104782Y41241227D01*
X1073000Y41081452D01*
X452000Y41081452D01*
X452000Y41931452D01*
X30673000Y41931452D01*
X30673000Y41768548D01*
X30704782Y41608773D01*
X30767123Y41458269D01*
X30789353Y41425000D01*
X30767123Y41391731D01*
X30704782Y41241227D01*
X30673000Y41081452D01*
X30673000Y40918548D01*
X30704782Y40758773D01*
X30767123Y40608269D01*
X30857628Y40472819D01*
X30972819Y40357628D01*
X31108269Y40267123D01*
X31258773Y40204782D01*
X31418548Y40173000D01*
X31581452Y40173000D01*
X31741227Y40204782D01*
X31891731Y40267123D01*
X32027181Y40357628D01*
X32142372Y40472819D01*
X32232877Y40608269D01*
X32295218Y40758773D01*
X32327000Y40918548D01*
X32327000Y41081452D01*
X32295218Y41241227D01*
X32232877Y41391731D01*
X32210647Y41425000D01*
X32232877Y41458269D01*
X32295218Y41608773D01*
X32327000Y41768548D01*
X32327000Y41931452D01*
X32295218Y42091227D01*
X32232877Y42241731D01*
X32142372Y42377181D01*
X32027181Y42492372D01*
X31891731Y42582877D01*
X31741227Y42645218D01*
X31581452Y42677000D01*
X31418548Y42677000D01*
X31258773Y42645218D01*
X31108269Y42582877D01*
X30972819Y42492372D01*
X30857628Y42377181D01*
X30767123Y42241731D01*
X30704782Y42091227D01*
X30673000Y41931452D01*
X452000Y41931452D01*
X452000Y44574051D01*
X513032Y44426707D01*
X888075Y43865415D01*
X1365415Y43388075D01*
X1926707Y43013032D01*
X2550381Y42754697D01*
X3212470Y42623000D01*
X3887530Y42623000D01*
X4549619Y42754697D01*
X5173293Y43013032D01*
X5734585Y43388075D01*
X6211925Y43865415D01*
X6586968Y44426707D01*
X6845303Y45050381D01*
X6977000Y45712470D01*
X6977000Y46387530D01*
X6845303Y47049619D01*
X6586968Y47673293D01*
X6211925Y48234585D01*
X5734585Y48711925D01*
X5173293Y49086968D01*
X4784529Y49248000D01*
X35758509Y49248000D01*
X35759231Y49246257D01*
%TA.AperFunction,Conductor*%
D15*
G36*
X35759231Y49246257D02*
G01*
X35773000Y49141672D01*
X35773000Y35175811D01*
X35708624Y35020396D01*
X35673000Y34841301D01*
X35673000Y34658699D01*
X35708624Y34479604D01*
X35773000Y34324189D01*
X35773000Y32175811D01*
X35708624Y32020396D01*
X35673000Y31841301D01*
X35673000Y31658699D01*
X35708624Y31479604D01*
X35773000Y31324189D01*
X35773000Y29175811D01*
X35708624Y29020396D01*
X35673000Y28841301D01*
X35673000Y28658699D01*
X35708624Y28479604D01*
X35773000Y28324189D01*
X35773000Y26175811D01*
X35708624Y26020396D01*
X35673000Y25841301D01*
X35673000Y25658699D01*
X35708624Y25479604D01*
X35773000Y25324189D01*
X35773000Y23175811D01*
X35708624Y23020396D01*
X35673000Y22841301D01*
X35673000Y22658699D01*
X35708624Y22479604D01*
X35773000Y22324189D01*
X35773000Y20175811D01*
X35708624Y20020396D01*
X35673000Y19841301D01*
X35673000Y19658699D01*
X35708624Y19479604D01*
X35773000Y19324189D01*
X35773000Y17175811D01*
X35708624Y17020396D01*
X35673000Y16841301D01*
X35673000Y16658699D01*
X35708624Y16479604D01*
X35773000Y16324189D01*
X35773000Y14175811D01*
X35708624Y14020396D01*
X35673000Y13841301D01*
X35673000Y13658699D01*
X35708624Y13479604D01*
X35773063Y13324036D01*
X35774086Y13308423D01*
X35791123Y13179013D01*
X35799704Y13146989D01*
X35849654Y13026399D01*
X35866232Y12997687D01*
X35945692Y12894134D01*
X35969134Y12870692D01*
X36072687Y12791232D01*
X36101399Y12774654D01*
X36221989Y12724704D01*
X36254013Y12716123D01*
X36383423Y12699086D01*
X36400000Y12698000D01*
X40491672Y12698000D01*
X40596257Y12684231D01*
X40685955Y12647077D01*
X40762976Y12587976D01*
X40822077Y12510955D01*
X40859231Y12421257D01*
X40873000Y12316672D01*
X40873000Y508328D01*
X40865584Y452000D01*
X27095279Y452000D01*
X27132877Y508269D01*
X27195218Y658773D01*
X27227000Y818548D01*
X27227000Y981452D01*
X27195218Y1141227D01*
X27132877Y1291731D01*
X27042372Y1427181D01*
X26927181Y1542372D01*
X26791731Y1632877D01*
X26641227Y1695218D01*
X26481452Y1727000D01*
X26318548Y1727000D01*
X26158773Y1695218D01*
X26008269Y1632877D01*
X25872819Y1542372D01*
X25757628Y1427181D01*
X25667123Y1291731D01*
X25604782Y1141227D01*
X25573000Y981452D01*
X25573000Y818548D01*
X25604782Y658773D01*
X25667123Y508269D01*
X25704721Y452000D01*
X4784529Y452000D01*
X5173293Y613032D01*
X5734585Y988075D01*
X6211925Y1465415D01*
X6586968Y2026707D01*
X6845303Y2650381D01*
X6977000Y3312470D01*
X6977000Y3987530D01*
X6845303Y4649619D01*
X6790696Y4781452D01*
X9473000Y4781452D01*
X9473000Y4618548D01*
X9504782Y4458773D01*
X9567123Y4308269D01*
X9657628Y4172819D01*
X9772819Y4057628D01*
X9908269Y3967123D01*
X10058773Y3904782D01*
X10218548Y3873000D01*
X10381452Y3873000D01*
X10541227Y3904782D01*
X10691731Y3967123D01*
X10827181Y4057628D01*
X10942372Y4172819D01*
X11032877Y4308269D01*
X11095218Y4458773D01*
X11127000Y4618548D01*
X11127000Y4781452D01*
X35573000Y4781452D01*
X35573000Y4618548D01*
X35604782Y4458773D01*
X35667123Y4308269D01*
X35757628Y4172819D01*
X35872819Y4057628D01*
X36008269Y3967123D01*
X36158773Y3904782D01*
X36318548Y3873000D01*
X36481452Y3873000D01*
X36641227Y3904782D01*
X36791731Y3967123D01*
X36927181Y4057628D01*
X37042372Y4172819D01*
X37132877Y4308269D01*
X37195218Y4458773D01*
X37227000Y4618548D01*
X37227000Y4781452D01*
X37195218Y4941227D01*
X37132877Y5091731D01*
X37042372Y5227181D01*
X36927181Y5342372D01*
X36791731Y5432877D01*
X36641227Y5495218D01*
X36481452Y5527000D01*
X36318548Y5527000D01*
X36158773Y5495218D01*
X36008269Y5432877D01*
X35872819Y5342372D01*
X35757628Y5227181D01*
X35667123Y5091731D01*
X35604782Y4941227D01*
X35573000Y4781452D01*
X11127000Y4781452D01*
X11095218Y4941227D01*
X11032877Y5091731D01*
X10942372Y5227181D01*
X10827181Y5342372D01*
X10691731Y5432877D01*
X10541227Y5495218D01*
X10381452Y5527000D01*
X10218548Y5527000D01*
X10058773Y5495218D01*
X9908269Y5432877D01*
X9772819Y5342372D01*
X9657628Y5227181D01*
X9567123Y5091731D01*
X9504782Y4941227D01*
X9473000Y4781452D01*
X6790696Y4781452D01*
X6586968Y5273293D01*
X6214019Y5831452D01*
X37573000Y5831452D01*
X37573000Y5668548D01*
X37604782Y5508773D01*
X37667123Y5358269D01*
X37757628Y5222819D01*
X37872819Y5107628D01*
X38008269Y5017123D01*
X38158773Y4954782D01*
X38318548Y4923000D01*
X38481452Y4923000D01*
X38641227Y4954782D01*
X38791731Y5017123D01*
X38927181Y5107628D01*
X39042372Y5222819D01*
X39132877Y5358269D01*
X39195218Y5508773D01*
X39227000Y5668548D01*
X39227000Y5831452D01*
X39195218Y5991227D01*
X39132877Y6141731D01*
X39042372Y6277181D01*
X38927181Y6392372D01*
X38791731Y6482877D01*
X38641227Y6545218D01*
X38481452Y6577000D01*
X38318548Y6577000D01*
X38158773Y6545218D01*
X38008269Y6482877D01*
X37872819Y6392372D01*
X37757628Y6277181D01*
X37667123Y6141731D01*
X37604782Y5991227D01*
X37573000Y5831452D01*
X6214019Y5831452D01*
X6211925Y5834585D01*
X5734585Y6311925D01*
X5173293Y6686968D01*
X4549619Y6945303D01*
X3887530Y7077000D01*
X3212470Y7077000D01*
X2550381Y6945303D01*
X1926707Y6686968D01*
X1365415Y6311925D01*
X888075Y5834585D01*
X513032Y5273293D01*
X452000Y5125949D01*
X452000Y7131452D01*
X27773000Y7131452D01*
X27773000Y6968548D01*
X27804782Y6808773D01*
X27867123Y6658269D01*
X27957628Y6522819D01*
X28072819Y6407628D01*
X28208269Y6317123D01*
X28358773Y6254782D01*
X28518548Y6223000D01*
X28681452Y6223000D01*
X28841227Y6254782D01*
X28991731Y6317123D01*
X29127181Y6407628D01*
X29242372Y6522819D01*
X29332877Y6658269D01*
X29395218Y6808773D01*
X29427000Y6968548D01*
X29427000Y7131452D01*
X29395218Y7291227D01*
X29332877Y7441731D01*
X29242372Y7577181D01*
X29127181Y7692372D01*
X28991731Y7782877D01*
X28841227Y7845218D01*
X28681452Y7877000D01*
X28518548Y7877000D01*
X28358773Y7845218D01*
X28208269Y7782877D01*
X28072819Y7692372D01*
X27957628Y7577181D01*
X27867123Y7441731D01*
X27804782Y7291227D01*
X27773000Y7131452D01*
X452000Y7131452D01*
X452000Y12581452D01*
X20873000Y12581452D01*
X20873000Y12418548D01*
X20904782Y12258773D01*
X20967123Y12108269D01*
X21057628Y11972819D01*
X21172819Y11857628D01*
X21308269Y11767123D01*
X21458773Y11704782D01*
X21618548Y11673000D01*
X21781452Y11673000D01*
X21941227Y11704782D01*
X22091731Y11767123D01*
X22227181Y11857628D01*
X22342372Y11972819D01*
X22432877Y12108269D01*
X22495218Y12258773D01*
X22527000Y12418548D01*
X22527000Y12581452D01*
X22495218Y12741227D01*
X22432877Y12891731D01*
X22342372Y13027181D01*
X22227181Y13142372D01*
X22091731Y13232877D01*
X21941227Y13295218D01*
X21781452Y13327000D01*
X21618548Y13327000D01*
X21458773Y13295218D01*
X21308269Y13232877D01*
X21172819Y13142372D01*
X21057628Y13027181D01*
X20967123Y12891731D01*
X20904782Y12741227D01*
X20873000Y12581452D01*
X452000Y12581452D01*
X452000Y13369916D01*
X540340Y13281576D01*
X774062Y13125409D01*
X1033759Y13017838D01*
X1309453Y12963000D01*
X1590547Y12963000D01*
X1866241Y13017838D01*
X2125938Y13125409D01*
X2359660Y13281576D01*
X2558424Y13480340D01*
X2714591Y13714062D01*
X2822162Y13973759D01*
X2877000Y14249453D01*
X2877000Y14530547D01*
X2822162Y14806241D01*
X2714591Y15065938D01*
X2558424Y15299660D01*
X2359660Y15498424D01*
X2125938Y15654591D01*
X2112880Y15660000D01*
X2125938Y15665409D01*
X2359660Y15821576D01*
X2558424Y16020340D01*
X2714591Y16254062D01*
X2822162Y16513759D01*
X2877000Y16789453D01*
X2877000Y17070547D01*
X2864886Y17131452D01*
X12723000Y17131452D01*
X12723000Y16968548D01*
X12754782Y16808773D01*
X12817123Y16658269D01*
X12907628Y16522819D01*
X13022819Y16407628D01*
X13158269Y16317123D01*
X13308773Y16254782D01*
X13468548Y16223000D01*
X13631452Y16223000D01*
X13791227Y16254782D01*
X13941731Y16317123D01*
X14077181Y16407628D01*
X14192372Y16522819D01*
X14282877Y16658269D01*
X14345218Y16808773D01*
X14377000Y16968548D01*
X14377000Y17131452D01*
X14345218Y17291227D01*
X14282877Y17441731D01*
X14192372Y17577181D01*
X14077181Y17692372D01*
X13941731Y17782877D01*
X13791227Y17845218D01*
X13631452Y17877000D01*
X13468548Y17877000D01*
X13308773Y17845218D01*
X13158269Y17782877D01*
X13022819Y17692372D01*
X12907628Y17577181D01*
X12817123Y17441731D01*
X12754782Y17291227D01*
X12723000Y17131452D01*
X2864886Y17131452D01*
X2822162Y17346241D01*
X2714591Y17605938D01*
X2558424Y17839660D01*
X2359660Y18038424D01*
X2125938Y18194591D01*
X2112880Y18200000D01*
X2125938Y18205409D01*
X2359660Y18361576D01*
X2558424Y18560340D01*
X2689460Y18756452D01*
X22423000Y18756452D01*
X22423000Y18593548D01*
X22454782Y18433773D01*
X22517123Y18283269D01*
X22607628Y18147819D01*
X22722819Y18032628D01*
X22858269Y17942123D01*
X23008773Y17879782D01*
X23168548Y17848000D01*
X23331452Y17848000D01*
X23491227Y17879782D01*
X23641731Y17942123D01*
X23777181Y18032628D01*
X23892372Y18147819D01*
X23982877Y18283269D01*
X24045218Y18433773D01*
X24077000Y18593548D01*
X24077000Y18756452D01*
X24045218Y18916227D01*
X23982877Y19066731D01*
X23892372Y19202181D01*
X23777181Y19317372D01*
X23641731Y19407877D01*
X23491227Y19470218D01*
X23331452Y19502000D01*
X23168548Y19502000D01*
X23008773Y19470218D01*
X22858269Y19407877D01*
X22722819Y19317372D01*
X22607628Y19202181D01*
X22517123Y19066731D01*
X22454782Y18916227D01*
X22423000Y18756452D01*
X2689460Y18756452D01*
X2714591Y18794062D01*
X2822162Y19053759D01*
X2877000Y19329453D01*
X2877000Y19610547D01*
X2822162Y19886241D01*
X2714591Y20145938D01*
X2558424Y20379660D01*
X2359660Y20578424D01*
X2125938Y20734591D01*
X2112880Y20740000D01*
X2125938Y20745409D01*
X2359660Y20901576D01*
X2389536Y20931452D01*
X16473000Y20931452D01*
X16473000Y20768548D01*
X16504782Y20608773D01*
X16567123Y20458269D01*
X16657628Y20322819D01*
X16772819Y20207628D01*
X16908269Y20117123D01*
X17058773Y20054782D01*
X17218548Y20023000D01*
X17381452Y20023000D01*
X17541227Y20054782D01*
X17691731Y20117123D01*
X17827181Y20207628D01*
X17942372Y20322819D01*
X18032877Y20458269D01*
X18095218Y20608773D01*
X18127000Y20768548D01*
X18127000Y20931452D01*
X18112082Y21006452D01*
X19623000Y21006452D01*
X19623000Y20843548D01*
X19654782Y20683773D01*
X19717123Y20533269D01*
X19807628Y20397819D01*
X19922819Y20282628D01*
X20058269Y20192123D01*
X20208773Y20129782D01*
X20368548Y20098000D01*
X20531452Y20098000D01*
X20691227Y20129782D01*
X20841731Y20192123D01*
X20977181Y20282628D01*
X21092372Y20397819D01*
X21182877Y20533269D01*
X21245218Y20683773D01*
X21277000Y20843548D01*
X21277000Y21006452D01*
X21245218Y21166227D01*
X21182877Y21316731D01*
X21092372Y21452181D01*
X20977181Y21567372D01*
X20841731Y21657877D01*
X20691227Y21720218D01*
X20531452Y21752000D01*
X20368548Y21752000D01*
X20208773Y21720218D01*
X20058269Y21657877D01*
X19922819Y21567372D01*
X19807628Y21452181D01*
X19717123Y21316731D01*
X19654782Y21166227D01*
X19623000Y21006452D01*
X18112082Y21006452D01*
X18095218Y21091227D01*
X18032877Y21241731D01*
X17942372Y21377181D01*
X17827181Y21492372D01*
X17691731Y21582877D01*
X17541227Y21645218D01*
X17381452Y21677000D01*
X17218548Y21677000D01*
X17058773Y21645218D01*
X16908269Y21582877D01*
X16772819Y21492372D01*
X16657628Y21377181D01*
X16567123Y21241731D01*
X16504782Y21091227D01*
X16473000Y20931452D01*
X2389536Y20931452D01*
X2558424Y21100340D01*
X2714591Y21334062D01*
X2822162Y21593759D01*
X2877000Y21869453D01*
X2877000Y22150547D01*
X2822162Y22426241D01*
X2714591Y22685938D01*
X2558424Y22919660D01*
X2359660Y23118424D01*
X2265332Y23181452D01*
X9473000Y23181452D01*
X9473000Y23018548D01*
X9504782Y22858773D01*
X9567123Y22708269D01*
X9657628Y22572819D01*
X9772819Y22457628D01*
X9908269Y22367123D01*
X10058773Y22304782D01*
X10218548Y22273000D01*
X10381452Y22273000D01*
X10541227Y22304782D01*
X10665969Y22356452D01*
X12123000Y22356452D01*
X12123000Y22193548D01*
X12154782Y22033773D01*
X12217123Y21883269D01*
X12307628Y21747819D01*
X12422819Y21632628D01*
X12558269Y21542123D01*
X12708773Y21479782D01*
X12868548Y21448000D01*
X13031452Y21448000D01*
X13191227Y21479782D01*
X13341731Y21542123D01*
X13477181Y21632628D01*
X13592372Y21747819D01*
X13682877Y21883269D01*
X13745218Y22033773D01*
X13777000Y22193548D01*
X13777000Y22356452D01*
X13745218Y22516227D01*
X13741358Y22525547D01*
X13841731Y22567123D01*
X13977181Y22657628D01*
X14092372Y22772819D01*
X14134797Y22836312D01*
X14167123Y22758269D01*
X14257628Y22622819D01*
X14372819Y22507628D01*
X14508269Y22417123D01*
X14658773Y22354782D01*
X14818548Y22323000D01*
X14981452Y22323000D01*
X15141227Y22354782D01*
X15291731Y22417123D01*
X15427181Y22507628D01*
X15542372Y22622819D01*
X15632877Y22758269D01*
X15695218Y22908773D01*
X15727000Y23068548D01*
X15727000Y23231452D01*
X15695218Y23391227D01*
X15632877Y23541731D01*
X15542372Y23677181D01*
X15427181Y23792372D01*
X15306513Y23873000D01*
X15331452Y23873000D01*
X15491227Y23904782D01*
X15641731Y23967123D01*
X15777181Y24057628D01*
X15892372Y24172819D01*
X15982877Y24308269D01*
X16045218Y24458773D01*
X16077000Y24618548D01*
X16077000Y24781452D01*
X16045218Y24941227D01*
X15982877Y25091731D01*
X15892372Y25227181D01*
X15777181Y25342372D01*
X15641731Y25432877D01*
X15491227Y25495218D01*
X15331452Y25527000D01*
X15168548Y25527000D01*
X15008773Y25495218D01*
X14858269Y25432877D01*
X14722819Y25342372D01*
X14607628Y25227181D01*
X14517123Y25091731D01*
X14454782Y24941227D01*
X14423000Y24781452D01*
X14423000Y24618548D01*
X14454782Y24458773D01*
X14517123Y24308269D01*
X14607628Y24172819D01*
X14722819Y24057628D01*
X14843487Y23977000D01*
X14818548Y23977000D01*
X14658773Y23945218D01*
X14508269Y23882877D01*
X14372819Y23792372D01*
X14257628Y23677181D01*
X14215203Y23613688D01*
X14182877Y23691731D01*
X14092372Y23827181D01*
X13977181Y23942372D01*
X13841731Y24032877D01*
X13691227Y24095218D01*
X13531452Y24127000D01*
X13368548Y24127000D01*
X13208773Y24095218D01*
X13058269Y24032877D01*
X12922819Y23942372D01*
X12807628Y23827181D01*
X12717123Y23691731D01*
X12654782Y23541227D01*
X12623000Y23381452D01*
X12623000Y23218548D01*
X12654782Y23058773D01*
X12658642Y23049453D01*
X12558269Y23007877D01*
X12422819Y22917372D01*
X12307628Y22802181D01*
X12217123Y22666731D01*
X12154782Y22516227D01*
X12123000Y22356452D01*
X10665969Y22356452D01*
X10691731Y22367123D01*
X10827181Y22457628D01*
X10942372Y22572819D01*
X11032877Y22708269D01*
X11095218Y22858773D01*
X11116199Y22964248D01*
X11222819Y22857628D01*
X11358269Y22767123D01*
X11508773Y22704782D01*
X11668548Y22673000D01*
X11831452Y22673000D01*
X11991227Y22704782D01*
X12141731Y22767123D01*
X12277181Y22857628D01*
X12392372Y22972819D01*
X12482877Y23108269D01*
X12545218Y23258773D01*
X12577000Y23418548D01*
X12577000Y23581452D01*
X12545218Y23741227D01*
X12482877Y23891731D01*
X12392372Y24027181D01*
X12277181Y24142372D01*
X12141731Y24232877D01*
X12056995Y24267976D01*
X12077000Y24368548D01*
X12077000Y24531452D01*
X12045218Y24691227D01*
X11982877Y24841731D01*
X11892372Y24977181D01*
X11777181Y25092372D01*
X11641731Y25182877D01*
X11491227Y25245218D01*
X11331452Y25277000D01*
X11168548Y25277000D01*
X11008773Y25245218D01*
X10858269Y25182877D01*
X10722819Y25092372D01*
X10607628Y24977181D01*
X10517123Y24841731D01*
X10454782Y24691227D01*
X10423000Y24531452D01*
X10423000Y24368548D01*
X10454782Y24208773D01*
X10517123Y24058269D01*
X10607628Y23922819D01*
X10709328Y23821119D01*
X10691731Y23832877D01*
X10541227Y23895218D01*
X10381452Y23927000D01*
X10218548Y23927000D01*
X10058773Y23895218D01*
X9908269Y23832877D01*
X9772819Y23742372D01*
X9657628Y23627181D01*
X9567123Y23491731D01*
X9504782Y23341227D01*
X9473000Y23181452D01*
X2265332Y23181452D01*
X2125938Y23274591D01*
X2112880Y23280000D01*
X2125938Y23285409D01*
X2359660Y23441576D01*
X2558424Y23640340D01*
X2714591Y23874062D01*
X2822162Y24133759D01*
X2877000Y24409453D01*
X2877000Y24690547D01*
X2822162Y24966241D01*
X2714591Y25225938D01*
X2558424Y25459660D01*
X2359660Y25658424D01*
X2125938Y25814591D01*
X2112880Y25820000D01*
X2125938Y25825409D01*
X2359660Y25981576D01*
X2558424Y26180340D01*
X2714591Y26414062D01*
X2783918Y26581432D01*
X10523000Y26581432D01*
X10523000Y26418528D01*
X10554782Y26258753D01*
X10617123Y26108249D01*
X10707628Y25972799D01*
X10822819Y25857608D01*
X10958269Y25767103D01*
X11108773Y25704762D01*
X11268548Y25672980D01*
X11431452Y25672980D01*
X11591227Y25704762D01*
X11741731Y25767103D01*
X11877181Y25857608D01*
X11992372Y25972799D01*
X12082877Y26108249D01*
X12145218Y26258753D01*
X12177000Y26418528D01*
X12177000Y26581432D01*
X12145218Y26741207D01*
X12083631Y26889891D01*
X12168546Y26873000D01*
X12331450Y26873000D01*
X12491225Y26904782D01*
X12641729Y26967123D01*
X12777179Y27057628D01*
X12892370Y27172819D01*
X12982875Y27308269D01*
X13045216Y27458773D01*
X13076998Y27618548D01*
X13076998Y27781452D01*
X13045216Y27941227D01*
X12982875Y28091731D01*
X12892370Y28227181D01*
X12777179Y28342372D01*
X12641729Y28432877D01*
X12491225Y28495218D01*
X12331450Y28527000D01*
X12168546Y28527000D01*
X12008771Y28495218D01*
X11858267Y28432877D01*
X11722817Y28342372D01*
X11607626Y28227181D01*
X11517121Y28091731D01*
X11454780Y27941227D01*
X11422998Y27781452D01*
X11422998Y27618548D01*
X11454780Y27458773D01*
X11516367Y27310089D01*
X11431452Y27326980D01*
X11268548Y27326980D01*
X11108773Y27295198D01*
X10958269Y27232857D01*
X10822819Y27142352D01*
X10707628Y27027161D01*
X10617123Y26891711D01*
X10554782Y26741207D01*
X10523000Y26581432D01*
X2783918Y26581432D01*
X2822162Y26673759D01*
X2877000Y26949453D01*
X2877000Y27230547D01*
X2822162Y27506241D01*
X2714591Y27765938D01*
X2558424Y27999660D01*
X2359660Y28198424D01*
X2125938Y28354591D01*
X2112880Y28360000D01*
X2125938Y28365409D01*
X2359660Y28521576D01*
X2558424Y28720340D01*
X2714591Y28954062D01*
X2822162Y29213759D01*
X2877000Y29489453D01*
X2877000Y29770547D01*
X2822162Y30046241D01*
X2817933Y30056452D01*
X16623000Y30056452D01*
X16623000Y29893548D01*
X16654782Y29733773D01*
X16717123Y29583269D01*
X16807628Y29447819D01*
X16922819Y29332628D01*
X17053284Y29245454D01*
X16947819Y29174984D01*
X16832628Y29059793D01*
X16742123Y28924343D01*
X16679782Y28773839D01*
X16648000Y28614064D01*
X16648000Y28451160D01*
X16679782Y28291385D01*
X16742123Y28140881D01*
X16832628Y28005431D01*
X16947819Y27890240D01*
X17083269Y27799735D01*
X17233773Y27737394D01*
X17393548Y27705612D01*
X17556452Y27705612D01*
X17716227Y27737394D01*
X17866731Y27799735D01*
X18002181Y27890240D01*
X18117372Y28005431D01*
X18207877Y28140881D01*
X18270218Y28291385D01*
X18302000Y28451160D01*
X18302000Y28614064D01*
X18270218Y28773839D01*
X18207877Y28924343D01*
X18117372Y29059793D01*
X18002181Y29174984D01*
X17871716Y29262158D01*
X17977181Y29332628D01*
X18092372Y29447819D01*
X18182877Y29583269D01*
X18245218Y29733773D01*
X18277000Y29893548D01*
X18277000Y30056452D01*
X18245218Y30216227D01*
X18182877Y30366731D01*
X18092372Y30502181D01*
X17977181Y30617372D01*
X17841731Y30707877D01*
X17691227Y30770218D01*
X17531452Y30802000D01*
X17368548Y30802000D01*
X17208773Y30770218D01*
X17058269Y30707877D01*
X16922819Y30617372D01*
X16807628Y30502181D01*
X16717123Y30366731D01*
X16654782Y30216227D01*
X16623000Y30056452D01*
X2817933Y30056452D01*
X2714591Y30305938D01*
X2558424Y30539660D01*
X2359660Y30738424D01*
X2125938Y30894591D01*
X2112880Y30900000D01*
X2125938Y30905409D01*
X2359660Y31061576D01*
X2558424Y31260340D01*
X2714591Y31494062D01*
X2822162Y31753759D01*
X2877000Y32029453D01*
X2877000Y32156452D01*
X11173000Y32156452D01*
X11173000Y31993548D01*
X11204782Y31833773D01*
X11267123Y31683269D01*
X11357628Y31547819D01*
X11472819Y31432628D01*
X11608269Y31342123D01*
X11758773Y31279782D01*
X11918548Y31248000D01*
X12081452Y31248000D01*
X12241227Y31279782D01*
X12391731Y31342123D01*
X12527181Y31432628D01*
X12642372Y31547819D01*
X12732877Y31683269D01*
X12795218Y31833773D01*
X12827000Y31993548D01*
X12827000Y32156452D01*
X12795218Y32316227D01*
X12732877Y32466731D01*
X12642372Y32602181D01*
X12527181Y32717372D01*
X12391731Y32807877D01*
X12241227Y32870218D01*
X12081452Y32902000D01*
X11918548Y32902000D01*
X11758773Y32870218D01*
X11608269Y32807877D01*
X11472819Y32717372D01*
X11357628Y32602181D01*
X11267123Y32466731D01*
X11204782Y32316227D01*
X11173000Y32156452D01*
X2877000Y32156452D01*
X2877000Y32310547D01*
X2822162Y32586241D01*
X2714591Y32845938D01*
X2650872Y32941301D01*
X23348000Y32941301D01*
X23348000Y32758699D01*
X23383624Y32579604D01*
X23453504Y32410901D01*
X23554952Y32259072D01*
X23684072Y32129952D01*
X23835901Y32028504D01*
X24004604Y31958624D01*
X24183699Y31923000D01*
X24366301Y31923000D01*
X24545396Y31958624D01*
X24714099Y32028504D01*
X24865928Y32129952D01*
X24995048Y32259072D01*
X25096496Y32410901D01*
X25166376Y32579604D01*
X25202000Y32758699D01*
X25202000Y32941301D01*
X25166376Y33120396D01*
X25096496Y33289099D01*
X24995048Y33440928D01*
X24865928Y33570048D01*
X24714099Y33671496D01*
X24545396Y33741376D01*
X24366301Y33777000D01*
X24183699Y33777000D01*
X24004604Y33741376D01*
X23835901Y33671496D01*
X23684072Y33570048D01*
X23554952Y33440928D01*
X23453504Y33289099D01*
X23383624Y33120396D01*
X23348000Y32941301D01*
X2650872Y32941301D01*
X2558424Y33079660D01*
X2359660Y33278424D01*
X2125938Y33434591D01*
X2112880Y33440000D01*
X2125938Y33445409D01*
X2359660Y33601576D01*
X2558424Y33800340D01*
X2714591Y34034062D01*
X2822162Y34293759D01*
X2877000Y34569453D01*
X2877000Y34850547D01*
X2822162Y35126241D01*
X2714591Y35385938D01*
X2558424Y35619660D01*
X2359660Y35818424D01*
X2125938Y35974591D01*
X1866241Y36082162D01*
X1590547Y36137000D01*
X1309453Y36137000D01*
X1033759Y36082162D01*
X774062Y35974591D01*
X540340Y35818424D01*
X452000Y35730084D01*
X452000Y37541301D01*
X19523000Y37541301D01*
X19523000Y37358699D01*
X19558624Y37179604D01*
X19628504Y37010901D01*
X19729952Y36859072D01*
X19859072Y36729952D01*
X20010901Y36628504D01*
X20179604Y36558624D01*
X20358699Y36523000D01*
X20541301Y36523000D01*
X20720396Y36558624D01*
X20889099Y36628504D01*
X21040928Y36729952D01*
X21170048Y36859072D01*
X21271496Y37010901D01*
X21341376Y37179604D01*
X21377000Y37358699D01*
X21377000Y37541301D01*
X21341376Y37720396D01*
X21271496Y37889099D01*
X21170048Y38040928D01*
X21040928Y38170048D01*
X21023861Y38181452D01*
X25973000Y38181452D01*
X25973000Y38018548D01*
X26004782Y37858773D01*
X26067123Y37708269D01*
X26157628Y37572819D01*
X26272819Y37457628D01*
X26408269Y37367123D01*
X26558773Y37304782D01*
X26718548Y37273000D01*
X26881452Y37273000D01*
X27041227Y37304782D01*
X27191731Y37367123D01*
X27327181Y37457628D01*
X27442372Y37572819D01*
X27532877Y37708269D01*
X27595218Y37858773D01*
X27627000Y38018548D01*
X27627000Y38181452D01*
X27595218Y38341227D01*
X27532877Y38491731D01*
X27442372Y38627181D01*
X27327181Y38742372D01*
X27191731Y38832877D01*
X27041227Y38895218D01*
X26881452Y38927000D01*
X26718548Y38927000D01*
X26558773Y38895218D01*
X26408269Y38832877D01*
X26272819Y38742372D01*
X26157628Y38627181D01*
X26067123Y38491731D01*
X26004782Y38341227D01*
X25973000Y38181452D01*
X21023861Y38181452D01*
X20889099Y38271496D01*
X20720396Y38341376D01*
X20541301Y38377000D01*
X20358699Y38377000D01*
X20179604Y38341376D01*
X20010901Y38271496D01*
X19859072Y38170048D01*
X19729952Y38040928D01*
X19628504Y37889099D01*
X19558624Y37720396D01*
X19523000Y37541301D01*
X452000Y37541301D01*
X452000Y40106452D01*
X27648000Y40106452D01*
X27648000Y39943548D01*
X27679782Y39783773D01*
X27742123Y39633269D01*
X27832628Y39497819D01*
X27947819Y39382628D01*
X28083269Y39292123D01*
X28233773Y39229782D01*
X28393548Y39198000D01*
X28556452Y39198000D01*
X28716227Y39229782D01*
X28866731Y39292123D01*
X29002181Y39382628D01*
X29117372Y39497819D01*
X29207877Y39633269D01*
X29270218Y39783773D01*
X29302000Y39943548D01*
X29302000Y40106452D01*
X29270218Y40266227D01*
X29207877Y40416731D01*
X29117372Y40552181D01*
X29002181Y40667372D01*
X28866731Y40757877D01*
X28716227Y40820218D01*
X28556452Y40852000D01*
X28393548Y40852000D01*
X28233773Y40820218D01*
X28083269Y40757877D01*
X27947819Y40667372D01*
X27832628Y40552181D01*
X27742123Y40416731D01*
X27679782Y40266227D01*
X27648000Y40106452D01*
X452000Y40106452D01*
X452000Y41081452D01*
X1073000Y41081452D01*
X1073000Y40918548D01*
X1104782Y40758773D01*
X1167123Y40608269D01*
X1257628Y40472819D01*
X1372819Y40357628D01*
X1508269Y40267123D01*
X1658773Y40204782D01*
X1818548Y40173000D01*
X1981452Y40173000D01*
X2141227Y40204782D01*
X2291731Y40267123D01*
X2427181Y40357628D01*
X2542372Y40472819D01*
X2632877Y40608269D01*
X2695218Y40758773D01*
X2727000Y40918548D01*
X2727000Y41081452D01*
X2695218Y41241227D01*
X2632877Y41391731D01*
X2542372Y41527181D01*
X2427181Y41642372D01*
X2291731Y41732877D01*
X2141227Y41795218D01*
X1981452Y41827000D01*
X1818548Y41827000D01*
X1658773Y41795218D01*
X1508269Y41732877D01*
X1372819Y41642372D01*
X1257628Y41527181D01*
X1167123Y41391731D01*
X1104782Y41241227D01*
X1073000Y41081452D01*
X452000Y41081452D01*
X452000Y41931452D01*
X30673000Y41931452D01*
X30673000Y41768548D01*
X30704782Y41608773D01*
X30767123Y41458269D01*
X30789353Y41425000D01*
X30767123Y41391731D01*
X30704782Y41241227D01*
X30673000Y41081452D01*
X30673000Y40918548D01*
X30704782Y40758773D01*
X30767123Y40608269D01*
X30857628Y40472819D01*
X30972819Y40357628D01*
X31108269Y40267123D01*
X31258773Y40204782D01*
X31418548Y40173000D01*
X31581452Y40173000D01*
X31741227Y40204782D01*
X31891731Y40267123D01*
X32027181Y40357628D01*
X32142372Y40472819D01*
X32232877Y40608269D01*
X32295218Y40758773D01*
X32327000Y40918548D01*
X32327000Y41081452D01*
X32295218Y41241227D01*
X32232877Y41391731D01*
X32210647Y41425000D01*
X32232877Y41458269D01*
X32295218Y41608773D01*
X32327000Y41768548D01*
X32327000Y41931452D01*
X32295218Y42091227D01*
X32232877Y42241731D01*
X32142372Y42377181D01*
X32027181Y42492372D01*
X31891731Y42582877D01*
X31741227Y42645218D01*
X31581452Y42677000D01*
X31418548Y42677000D01*
X31258773Y42645218D01*
X31108269Y42582877D01*
X30972819Y42492372D01*
X30857628Y42377181D01*
X30767123Y42241731D01*
X30704782Y42091227D01*
X30673000Y41931452D01*
X452000Y41931452D01*
X452000Y44574051D01*
X513032Y44426707D01*
X888075Y43865415D01*
X1365415Y43388075D01*
X1926707Y43013032D01*
X2550381Y42754697D01*
X3212470Y42623000D01*
X3887530Y42623000D01*
X4549619Y42754697D01*
X5173293Y43013032D01*
X5734585Y43388075D01*
X6211925Y43865415D01*
X6586968Y44426707D01*
X6845303Y45050381D01*
X6977000Y45712470D01*
X6977000Y46387530D01*
X6845303Y47049619D01*
X6586968Y47673293D01*
X6211925Y48234585D01*
X5734585Y48711925D01*
X5173293Y49086968D01*
X4784529Y49248000D01*
X35758509Y49248000D01*
X35759231Y49246257D01*
G37*
%TD.AperFunction*%
M02*
