%TF.GenerationSoftware,KiCad,Pcbnew,(5.1.8)-1*%
%TF.CreationDate,2021-02-13T13:26:23-08:00*%
%TF.ProjectId,20200103_8SBMS_A0,32303230-3031-4303-935f-3853424d535f,rev?*%
%TF.SameCoordinates,PXb061cf0PYa92e8c0*%
%TF.FileFunction,Legend,Bot*%
%TF.FilePolarity,Positive*%
%FSLAX46Y46*%
G04 Gerber Fmt 4.6, Leading zero omitted, Abs format (unit mm)*
G04 Created by KiCad (PCBNEW (5.1.8)-1) date 2021-02-13 13:26:23*
%MOMM*%
%LPD*%
G01*
G04 APERTURE LIST*
%ADD10C,0.120000*%
%ADD11C,0.150000*%
G04 APERTURE END LIST*
D10*
X44450000Y4100000D02*
X44450000Y8100000D01*
X50600000Y500000D02*
X46200000Y500000D01*
X50650000Y9100000D02*
G75*
G03*
X50650000Y9100000I-100000J0D01*
G01*
X52350000Y8100000D02*
X52350000Y4100000D01*
X50300000Y8100000D02*
X52350000Y8100000D01*
X44450000Y8100000D02*
X46500000Y8100000D01*
X10850000Y50000D02*
X25850000Y50000D01*
X25850000Y50000D02*
X25850000Y9550000D01*
X25850000Y9550000D02*
X12850000Y9550000D01*
X10850000Y9550000D02*
X12850000Y9550000D01*
X12850000Y50000D02*
X12850000Y50000D01*
X10850000Y50000D02*
X10850000Y9550000D01*
X26938000Y50000D02*
X26938000Y9550000D01*
X30900000Y50000D02*
X30900000Y50000D01*
X26938000Y9550000D02*
X30900000Y9550000D01*
X43900000Y9550000D02*
X30900000Y9550000D01*
X43900000Y50000D02*
X43900000Y9550000D01*
X26938000Y50000D02*
X43900000Y50000D01*
X30485000Y39121267D02*
X30485000Y38778733D01*
X29465000Y39121267D02*
X29465000Y38778733D01*
X17690000Y36646267D02*
X17690000Y36303733D01*
X18710000Y36646267D02*
X18710000Y36303733D01*
X12328733Y39710000D02*
X12671267Y39710000D01*
X12328733Y38690000D02*
X12671267Y38690000D01*
X16571267Y39710000D02*
X16228733Y39710000D01*
X16571267Y38690000D02*
X16228733Y38690000D01*
X26803200Y9996800D02*
X24403200Y9996800D01*
X24403200Y13096800D02*
X27353200Y13096800D01*
X50939000Y44543000D02*
X50939000Y40225000D01*
X45605000Y44543000D02*
X50939000Y44543000D01*
X45605000Y35907000D02*
X45605000Y44543000D01*
X50939000Y35907000D02*
X45605000Y35907000D01*
X50939000Y40225000D02*
X50939000Y35907000D01*
X22975000Y49675000D02*
X22975000Y40175000D01*
X20975000Y49675000D02*
X20975000Y49675000D01*
X22975000Y40175000D02*
X20975000Y40175000D01*
X7975000Y40175000D02*
X20975000Y40175000D01*
X7975000Y49675000D02*
X7975000Y40175000D01*
X22975000Y49675000D02*
X7975000Y49675000D01*
D11*
X46489285Y8403572D02*
X46489285Y9003572D01*
X46260714Y9003572D01*
X46203571Y8975000D01*
X46175000Y8946429D01*
X46146428Y8889286D01*
X46146428Y8803572D01*
X46175000Y8746429D01*
X46203571Y8717858D01*
X46260714Y8689286D01*
X46489285Y8689286D01*
X45917857Y8946429D02*
X45889285Y8975000D01*
X45832142Y9003572D01*
X45689285Y9003572D01*
X45632142Y8975000D01*
X45603571Y8946429D01*
X45575000Y8889286D01*
X45575000Y8832143D01*
X45603571Y8746429D01*
X45946428Y8403572D01*
X45575000Y8403572D01*
X45203571Y9003572D02*
X45146428Y9003572D01*
X45089285Y8975000D01*
X45060714Y8946429D01*
X45032142Y8889286D01*
X45003571Y8775000D01*
X45003571Y8632143D01*
X45032142Y8517858D01*
X45060714Y8460715D01*
X45089285Y8432143D01*
X45146428Y8403572D01*
X45203571Y8403572D01*
X45260714Y8432143D01*
X45289285Y8460715D01*
X45317857Y8517858D01*
X45346428Y8632143D01*
X45346428Y8775000D01*
X45317857Y8889286D01*
X45289285Y8946429D01*
X45260714Y8975000D01*
X45203571Y9003572D01*
X44489285Y8803572D02*
X44489285Y8403572D01*
X44632142Y9032143D02*
X44775000Y8603572D01*
X44403571Y8603572D01*
X10571428Y9389286D02*
X9971428Y9389286D01*
X9971428Y9160715D01*
X10000000Y9103572D01*
X10028571Y9075000D01*
X10085714Y9046429D01*
X10171428Y9046429D01*
X10228571Y9075000D01*
X10257142Y9103572D01*
X10285714Y9160715D01*
X10285714Y9389286D01*
X10028571Y8817858D02*
X10000000Y8789286D01*
X9971428Y8732143D01*
X9971428Y8589286D01*
X10000000Y8532143D01*
X10028571Y8503572D01*
X10085714Y8475000D01*
X10142857Y8475000D01*
X10228571Y8503572D01*
X10571428Y8846429D01*
X10571428Y8475000D01*
X9971428Y8103572D02*
X9971428Y8046429D01*
X10000000Y7989286D01*
X10028571Y7960715D01*
X10085714Y7932143D01*
X10200000Y7903572D01*
X10342857Y7903572D01*
X10457142Y7932143D01*
X10514285Y7960715D01*
X10542857Y7989286D01*
X10571428Y8046429D01*
X10571428Y8103572D01*
X10542857Y8160715D01*
X10514285Y8189286D01*
X10457142Y8217858D01*
X10342857Y8246429D01*
X10200000Y8246429D01*
X10085714Y8217858D01*
X10028571Y8189286D01*
X10000000Y8160715D01*
X9971428Y8103572D01*
X10571428Y7332143D02*
X10571428Y7675000D01*
X10571428Y7503572D02*
X9971428Y7503572D01*
X10057142Y7560715D01*
X10114285Y7617858D01*
X10142857Y7675000D01*
X43664285Y9878572D02*
X43664285Y10478572D01*
X43435714Y10478572D01*
X43378571Y10450000D01*
X43350000Y10421429D01*
X43321428Y10364286D01*
X43321428Y10278572D01*
X43350000Y10221429D01*
X43378571Y10192858D01*
X43435714Y10164286D01*
X43664285Y10164286D01*
X43092857Y10421429D02*
X43064285Y10450000D01*
X43007142Y10478572D01*
X42864285Y10478572D01*
X42807142Y10450000D01*
X42778571Y10421429D01*
X42750000Y10364286D01*
X42750000Y10307143D01*
X42778571Y10221429D01*
X43121428Y9878572D01*
X42750000Y9878572D01*
X42378571Y10478572D02*
X42321428Y10478572D01*
X42264285Y10450000D01*
X42235714Y10421429D01*
X42207142Y10364286D01*
X42178571Y10250000D01*
X42178571Y10107143D01*
X42207142Y9992858D01*
X42235714Y9935715D01*
X42264285Y9907143D01*
X42321428Y9878572D01*
X42378571Y9878572D01*
X42435714Y9907143D01*
X42464285Y9935715D01*
X42492857Y9992858D01*
X42521428Y10107143D01*
X42521428Y10250000D01*
X42492857Y10364286D01*
X42464285Y10421429D01*
X42435714Y10450000D01*
X42378571Y10478572D01*
X41978571Y10478572D02*
X41607142Y10478572D01*
X41807142Y10250000D01*
X41721428Y10250000D01*
X41664285Y10221429D01*
X41635714Y10192858D01*
X41607142Y10135715D01*
X41607142Y9992858D01*
X41635714Y9935715D01*
X41664285Y9907143D01*
X41721428Y9878572D01*
X41892857Y9878572D01*
X41950000Y9907143D01*
X41978571Y9935715D01*
X30256428Y42481429D02*
X29970714Y42681429D01*
X30256428Y42824286D02*
X29656428Y42824286D01*
X29656428Y42595715D01*
X29685000Y42538572D01*
X29713571Y42510000D01*
X29770714Y42481429D01*
X29856428Y42481429D01*
X29913571Y42510000D01*
X29942142Y42538572D01*
X29970714Y42595715D01*
X29970714Y42824286D01*
X29713571Y42252858D02*
X29685000Y42224286D01*
X29656428Y42167143D01*
X29656428Y42024286D01*
X29685000Y41967143D01*
X29713571Y41938572D01*
X29770714Y41910000D01*
X29827857Y41910000D01*
X29913571Y41938572D01*
X30256428Y42281429D01*
X30256428Y41910000D01*
X29656428Y41538572D02*
X29656428Y41481429D01*
X29685000Y41424286D01*
X29713571Y41395715D01*
X29770714Y41367143D01*
X29885000Y41338572D01*
X30027857Y41338572D01*
X30142142Y41367143D01*
X30199285Y41395715D01*
X30227857Y41424286D01*
X30256428Y41481429D01*
X30256428Y41538572D01*
X30227857Y41595715D01*
X30199285Y41624286D01*
X30142142Y41652858D01*
X30027857Y41681429D01*
X29885000Y41681429D01*
X29770714Y41652858D01*
X29713571Y41624286D01*
X29685000Y41595715D01*
X29656428Y41538572D01*
X30256428Y40767143D02*
X30256428Y41110000D01*
X30256428Y40938572D02*
X29656428Y40938572D01*
X29742142Y40995715D01*
X29799285Y41052858D01*
X29827857Y41110000D01*
X16971428Y35128572D02*
X17171428Y35414286D01*
X17314285Y35128572D02*
X17314285Y35728572D01*
X17085714Y35728572D01*
X17028571Y35700000D01*
X17000000Y35671429D01*
X16971428Y35614286D01*
X16971428Y35528572D01*
X17000000Y35471429D01*
X17028571Y35442858D01*
X17085714Y35414286D01*
X17314285Y35414286D01*
X16742857Y35671429D02*
X16714285Y35700000D01*
X16657142Y35728572D01*
X16514285Y35728572D01*
X16457142Y35700000D01*
X16428571Y35671429D01*
X16400000Y35614286D01*
X16400000Y35557143D01*
X16428571Y35471429D01*
X16771428Y35128572D01*
X16400000Y35128572D01*
X16028571Y35728572D02*
X15971428Y35728572D01*
X15914285Y35700000D01*
X15885714Y35671429D01*
X15857142Y35614286D01*
X15828571Y35500000D01*
X15828571Y35357143D01*
X15857142Y35242858D01*
X15885714Y35185715D01*
X15914285Y35157143D01*
X15971428Y35128572D01*
X16028571Y35128572D01*
X16085714Y35157143D01*
X16114285Y35185715D01*
X16142857Y35242858D01*
X16171428Y35357143D01*
X16171428Y35500000D01*
X16142857Y35614286D01*
X16114285Y35671429D01*
X16085714Y35700000D01*
X16028571Y35728572D01*
X15600000Y35671429D02*
X15571428Y35700000D01*
X15514285Y35728572D01*
X15371428Y35728572D01*
X15314285Y35700000D01*
X15285714Y35671429D01*
X15257142Y35614286D01*
X15257142Y35557143D01*
X15285714Y35471429D01*
X15628571Y35128572D01*
X15257142Y35128572D01*
X10246428Y38928572D02*
X10446428Y39214286D01*
X10589285Y38928572D02*
X10589285Y39528572D01*
X10360714Y39528572D01*
X10303571Y39500000D01*
X10275000Y39471429D01*
X10246428Y39414286D01*
X10246428Y39328572D01*
X10275000Y39271429D01*
X10303571Y39242858D01*
X10360714Y39214286D01*
X10589285Y39214286D01*
X10017857Y39471429D02*
X9989285Y39500000D01*
X9932142Y39528572D01*
X9789285Y39528572D01*
X9732142Y39500000D01*
X9703571Y39471429D01*
X9675000Y39414286D01*
X9675000Y39357143D01*
X9703571Y39271429D01*
X10046428Y38928572D01*
X9675000Y38928572D01*
X9303571Y39528572D02*
X9246428Y39528572D01*
X9189285Y39500000D01*
X9160714Y39471429D01*
X9132142Y39414286D01*
X9103571Y39300000D01*
X9103571Y39157143D01*
X9132142Y39042858D01*
X9160714Y38985715D01*
X9189285Y38957143D01*
X9246428Y38928572D01*
X9303571Y38928572D01*
X9360714Y38957143D01*
X9389285Y38985715D01*
X9417857Y39042858D01*
X9446428Y39157143D01*
X9446428Y39300000D01*
X9417857Y39414286D01*
X9389285Y39471429D01*
X9360714Y39500000D01*
X9303571Y39528572D01*
X8589285Y39328572D02*
X8589285Y38928572D01*
X8732142Y39557143D02*
X8875000Y39128572D01*
X8503571Y39128572D01*
X19921428Y38928572D02*
X20121428Y39214286D01*
X20264285Y38928572D02*
X20264285Y39528572D01*
X20035714Y39528572D01*
X19978571Y39500000D01*
X19950000Y39471429D01*
X19921428Y39414286D01*
X19921428Y39328572D01*
X19950000Y39271429D01*
X19978571Y39242858D01*
X20035714Y39214286D01*
X20264285Y39214286D01*
X19692857Y39471429D02*
X19664285Y39500000D01*
X19607142Y39528572D01*
X19464285Y39528572D01*
X19407142Y39500000D01*
X19378571Y39471429D01*
X19350000Y39414286D01*
X19350000Y39357143D01*
X19378571Y39271429D01*
X19721428Y38928572D01*
X19350000Y38928572D01*
X18978571Y39528572D02*
X18921428Y39528572D01*
X18864285Y39500000D01*
X18835714Y39471429D01*
X18807142Y39414286D01*
X18778571Y39300000D01*
X18778571Y39157143D01*
X18807142Y39042858D01*
X18835714Y38985715D01*
X18864285Y38957143D01*
X18921428Y38928572D01*
X18978571Y38928572D01*
X19035714Y38957143D01*
X19064285Y38985715D01*
X19092857Y39042858D01*
X19121428Y39157143D01*
X19121428Y39300000D01*
X19092857Y39414286D01*
X19064285Y39471429D01*
X19035714Y39500000D01*
X18978571Y39528572D01*
X18235714Y39528572D02*
X18521428Y39528572D01*
X18550000Y39242858D01*
X18521428Y39271429D01*
X18464285Y39300000D01*
X18321428Y39300000D01*
X18264285Y39271429D01*
X18235714Y39242858D01*
X18207142Y39185715D01*
X18207142Y39042858D01*
X18235714Y38985715D01*
X18264285Y38957143D01*
X18321428Y38928572D01*
X18464285Y38928572D01*
X18521428Y38957143D01*
X18550000Y38985715D01*
X26597485Y13495372D02*
X26597485Y14095372D01*
X26454628Y14095372D01*
X26368914Y14066800D01*
X26311771Y14009658D01*
X26283200Y13952515D01*
X26254628Y13838229D01*
X26254628Y13752515D01*
X26283200Y13638229D01*
X26311771Y13581086D01*
X26368914Y13523943D01*
X26454628Y13495372D01*
X26597485Y13495372D01*
X26026057Y14038229D02*
X25997485Y14066800D01*
X25940342Y14095372D01*
X25797485Y14095372D01*
X25740342Y14066800D01*
X25711771Y14038229D01*
X25683200Y13981086D01*
X25683200Y13923943D01*
X25711771Y13838229D01*
X26054628Y13495372D01*
X25683200Y13495372D01*
X25311771Y14095372D02*
X25254628Y14095372D01*
X25197485Y14066800D01*
X25168914Y14038229D01*
X25140342Y13981086D01*
X25111771Y13866800D01*
X25111771Y13723943D01*
X25140342Y13609658D01*
X25168914Y13552515D01*
X25197485Y13523943D01*
X25254628Y13495372D01*
X25311771Y13495372D01*
X25368914Y13523943D01*
X25397485Y13552515D01*
X25426057Y13609658D01*
X25454628Y13723943D01*
X25454628Y13866800D01*
X25426057Y13981086D01*
X25397485Y14038229D01*
X25368914Y14066800D01*
X25311771Y14095372D01*
X24540342Y13495372D02*
X24883200Y13495372D01*
X24711771Y13495372D02*
X24711771Y14095372D01*
X24768914Y14009658D01*
X24826057Y13952515D01*
X24883200Y13923943D01*
X45171428Y37964286D02*
X44571428Y37964286D01*
X44571428Y37735715D01*
X44600000Y37678572D01*
X44628571Y37650000D01*
X44685714Y37621429D01*
X44771428Y37621429D01*
X44828571Y37650000D01*
X44857142Y37678572D01*
X44885714Y37735715D01*
X44885714Y37964286D01*
X44771428Y37107143D02*
X45171428Y37107143D01*
X44542857Y37250000D02*
X44971428Y37392858D01*
X44971428Y37021429D01*
X44571428Y36678572D02*
X44571428Y36621429D01*
X44600000Y36564286D01*
X44628571Y36535715D01*
X44685714Y36507143D01*
X44800000Y36478572D01*
X44942857Y36478572D01*
X45057142Y36507143D01*
X45114285Y36535715D01*
X45142857Y36564286D01*
X45171428Y36621429D01*
X45171428Y36678572D01*
X45142857Y36735715D01*
X45114285Y36764286D01*
X45057142Y36792858D01*
X44942857Y36821429D01*
X44800000Y36821429D01*
X44685714Y36792858D01*
X44628571Y36764286D01*
X44600000Y36735715D01*
X44571428Y36678572D01*
X44571428Y36278572D02*
X44571428Y35907143D01*
X44800000Y36107143D01*
X44800000Y36021429D01*
X44828571Y35964286D01*
X44857142Y35935715D01*
X44914285Y35907143D01*
X45057142Y35907143D01*
X45114285Y35935715D01*
X45142857Y35964286D01*
X45171428Y36021429D01*
X45171428Y36192858D01*
X45142857Y36250000D01*
X45114285Y36278572D01*
X7196428Y42089286D02*
X6596428Y42089286D01*
X6596428Y41860715D01*
X6625000Y41803572D01*
X6653571Y41775000D01*
X6710714Y41746429D01*
X6796428Y41746429D01*
X6853571Y41775000D01*
X6882142Y41803572D01*
X6910714Y41860715D01*
X6910714Y42089286D01*
X6653571Y41517858D02*
X6625000Y41489286D01*
X6596428Y41432143D01*
X6596428Y41289286D01*
X6625000Y41232143D01*
X6653571Y41203572D01*
X6710714Y41175000D01*
X6767857Y41175000D01*
X6853571Y41203572D01*
X7196428Y41546429D01*
X7196428Y41175000D01*
X6596428Y40803572D02*
X6596428Y40746429D01*
X6625000Y40689286D01*
X6653571Y40660715D01*
X6710714Y40632143D01*
X6825000Y40603572D01*
X6967857Y40603572D01*
X7082142Y40632143D01*
X7139285Y40660715D01*
X7167857Y40689286D01*
X7196428Y40746429D01*
X7196428Y40803572D01*
X7167857Y40860715D01*
X7139285Y40889286D01*
X7082142Y40917858D01*
X6967857Y40946429D01*
X6825000Y40946429D01*
X6710714Y40917858D01*
X6653571Y40889286D01*
X6625000Y40860715D01*
X6596428Y40803572D01*
X6653571Y40375000D02*
X6625000Y40346429D01*
X6596428Y40289286D01*
X6596428Y40146429D01*
X6625000Y40089286D01*
X6653571Y40060715D01*
X6710714Y40032143D01*
X6767857Y40032143D01*
X6853571Y40060715D01*
X7196428Y40403572D01*
X7196428Y40032143D01*
M02*
