%TF.GenerationSoftware,KiCad,Pcbnew,(5.1.8)-1*%
%TF.CreationDate,2021-02-13T13:26:23-08:00*%
%TF.ProjectId,20200103_8SBMS_A0,32303230-3031-4303-935f-3853424d535f,rev?*%
%TF.SameCoordinates,PXb061cf0PYa92e8c0*%
%TF.FileFunction,Soldermask,Top*%
%TF.FilePolarity,Negative*%
%FSLAX46Y46*%
G04 Gerber Fmt 4.6, Leading zero omitted, Abs format (unit mm)*
G04 Created by KiCad (PCBNEW (5.1.8)-1) date 2021-02-13 13:26:23*
%MOMM*%
%LPD*%
G01*
G04 APERTURE LIST*
%ADD10R,3.500000X1.000000*%
%ADD11R,3.500000X1.600000*%
%ADD12R,1.500000X3.500000*%
%ADD13C,2.000000*%
%ADD14C,6.000000*%
%ADD15R,1.500000X0.450000*%
%ADD16R,0.800000X0.900000*%
%ADD17R,0.550000X1.600000*%
%ADD18R,1.600000X0.550000*%
%ADD19R,0.650000X1.560000*%
%ADD20R,2.200000X2.000000*%
%ADD21R,1.150000X1.000000*%
G04 APERTURE END LIST*
D10*
X48250000Y32200000D03*
X48250000Y30200000D03*
X48250000Y28200000D03*
X48250000Y26200000D03*
X48250000Y24200000D03*
D11*
X53750000Y34600000D03*
X53750000Y13800000D03*
D10*
X48250000Y22200000D03*
X48250000Y20200000D03*
X48250000Y18200000D03*
X48250000Y16200000D03*
D12*
X37700000Y47400000D03*
X34200000Y47400000D03*
D13*
X1450000Y34710000D03*
X43250000Y34360000D03*
X43250000Y31820000D03*
X43250000Y29280000D03*
X43250000Y26740000D03*
X43250000Y14040000D03*
X43250000Y16580000D03*
X43250000Y19120000D03*
X43250000Y21660000D03*
X43250000Y24200000D03*
X1450000Y32170000D03*
X1450000Y29630000D03*
X1450000Y27090000D03*
X1450000Y14390000D03*
X1450000Y16930000D03*
X1450000Y19470000D03*
X1450000Y22010000D03*
X1450000Y24550000D03*
D14*
X3550000Y46050000D03*
X3550000Y3650000D03*
D15*
X28475000Y38750000D03*
X28475000Y38100000D03*
X28475000Y37450000D03*
X28475000Y36800000D03*
X28475000Y36150000D03*
X28475000Y35500000D03*
X28475000Y34850000D03*
X28475000Y34200000D03*
X22575000Y34200000D03*
X22575000Y34850000D03*
X22575000Y35500000D03*
X22575000Y36150000D03*
X22575000Y36800000D03*
X22575000Y37450000D03*
X22575000Y38100000D03*
X22575000Y38750000D03*
G36*
G01*
X13870000Y36537500D02*
X13870000Y36062500D01*
G75*
G02*
X13632500Y35825000I-237500J0D01*
G01*
X13057500Y35825000D01*
G75*
G02*
X12820000Y36062500I0J237500D01*
G01*
X12820000Y36537500D01*
G75*
G02*
X13057500Y36775000I237500J0D01*
G01*
X13632500Y36775000D01*
G75*
G02*
X13870000Y36537500I0J-237500D01*
G01*
G37*
G36*
G01*
X12120000Y36537500D02*
X12120000Y36062500D01*
G75*
G02*
X11882500Y35825000I-237500J0D01*
G01*
X11307500Y35825000D01*
G75*
G02*
X11070000Y36062500I0J237500D01*
G01*
X11070000Y36537500D01*
G75*
G02*
X11307500Y36775000I237500J0D01*
G01*
X11882500Y36775000D01*
G75*
G02*
X12120000Y36537500I0J-237500D01*
G01*
G37*
G36*
G01*
X14250000Y31887500D02*
X14250000Y31412500D01*
G75*
G02*
X14012500Y31175000I-237500J0D01*
G01*
X13437500Y31175000D01*
G75*
G02*
X13200000Y31412500I0J237500D01*
G01*
X13200000Y31887500D01*
G75*
G02*
X13437500Y32125000I237500J0D01*
G01*
X14012500Y32125000D01*
G75*
G02*
X14250000Y31887500I0J-237500D01*
G01*
G37*
G36*
G01*
X12500000Y31887500D02*
X12500000Y31412500D01*
G75*
G02*
X12262500Y31175000I-237500J0D01*
G01*
X11687500Y31175000D01*
G75*
G02*
X11450000Y31412500I0J237500D01*
G01*
X11450000Y31887500D01*
G75*
G02*
X11687500Y32125000I237500J0D01*
G01*
X12262500Y32125000D01*
G75*
G02*
X12500000Y31887500I0J-237500D01*
G01*
G37*
G36*
G01*
X10312500Y19400000D02*
X10787500Y19400000D01*
G75*
G02*
X11025000Y19162500I0J-237500D01*
G01*
X11025000Y18587500D01*
G75*
G02*
X10787500Y18350000I-237500J0D01*
G01*
X10312500Y18350000D01*
G75*
G02*
X10075000Y18587500I0J237500D01*
G01*
X10075000Y19162500D01*
G75*
G02*
X10312500Y19400000I237500J0D01*
G01*
G37*
G36*
G01*
X10312500Y17650000D02*
X10787500Y17650000D01*
G75*
G02*
X11025000Y17412500I0J-237500D01*
G01*
X11025000Y16837500D01*
G75*
G02*
X10787500Y16600000I-237500J0D01*
G01*
X10312500Y16600000D01*
G75*
G02*
X10075000Y16837500I0J237500D01*
G01*
X10075000Y17412500D01*
G75*
G02*
X10312500Y17650000I237500J0D01*
G01*
G37*
G36*
G01*
X18175000Y25437500D02*
X18175000Y25912500D01*
G75*
G02*
X18412500Y26150000I237500J0D01*
G01*
X18987500Y26150000D01*
G75*
G02*
X19225000Y25912500I0J-237500D01*
G01*
X19225000Y25437500D01*
G75*
G02*
X18987500Y25200000I-237500J0D01*
G01*
X18412500Y25200000D01*
G75*
G02*
X18175000Y25437500I0J237500D01*
G01*
G37*
G36*
G01*
X19925000Y25437500D02*
X19925000Y25912500D01*
G75*
G02*
X20162500Y26150000I237500J0D01*
G01*
X20737500Y26150000D01*
G75*
G02*
X20975000Y25912500I0J-237500D01*
G01*
X20975000Y25437500D01*
G75*
G02*
X20737500Y25200000I-237500J0D01*
G01*
X20162500Y25200000D01*
G75*
G02*
X19925000Y25437500I0J237500D01*
G01*
G37*
G36*
G01*
X11912500Y17650000D02*
X12387500Y17650000D01*
G75*
G02*
X12625000Y17412500I0J-237500D01*
G01*
X12625000Y16837500D01*
G75*
G02*
X12387500Y16600000I-237500J0D01*
G01*
X11912500Y16600000D01*
G75*
G02*
X11675000Y16837500I0J237500D01*
G01*
X11675000Y17412500D01*
G75*
G02*
X11912500Y17650000I237500J0D01*
G01*
G37*
G36*
G01*
X11912500Y19400000D02*
X12387500Y19400000D01*
G75*
G02*
X12625000Y19162500I0J-237500D01*
G01*
X12625000Y18587500D01*
G75*
G02*
X12387500Y18350000I-237500J0D01*
G01*
X11912500Y18350000D01*
G75*
G02*
X11675000Y18587500I0J237500D01*
G01*
X11675000Y19162500D01*
G75*
G02*
X11912500Y19400000I237500J0D01*
G01*
G37*
G36*
G01*
X23487500Y17650000D02*
X23012500Y17650000D01*
G75*
G02*
X22775000Y17887500I0J237500D01*
G01*
X22775000Y18462500D01*
G75*
G02*
X23012500Y18700000I237500J0D01*
G01*
X23487500Y18700000D01*
G75*
G02*
X23725000Y18462500I0J-237500D01*
G01*
X23725000Y17887500D01*
G75*
G02*
X23487500Y17650000I-237500J0D01*
G01*
G37*
G36*
G01*
X23487500Y15900000D02*
X23012500Y15900000D01*
G75*
G02*
X22775000Y16137500I0J237500D01*
G01*
X22775000Y16712500D01*
G75*
G02*
X23012500Y16950000I237500J0D01*
G01*
X23487500Y16950000D01*
G75*
G02*
X23725000Y16712500I0J-237500D01*
G01*
X23725000Y16137500D01*
G75*
G02*
X23487500Y15900000I-237500J0D01*
G01*
G37*
G36*
G01*
X30562500Y36500000D02*
X30087500Y36500000D01*
G75*
G02*
X29850000Y36737500I0J237500D01*
G01*
X29850000Y37312500D01*
G75*
G02*
X30087500Y37550000I237500J0D01*
G01*
X30562500Y37550000D01*
G75*
G02*
X30800000Y37312500I0J-237500D01*
G01*
X30800000Y36737500D01*
G75*
G02*
X30562500Y36500000I-237500J0D01*
G01*
G37*
G36*
G01*
X30562500Y38250000D02*
X30087500Y38250000D01*
G75*
G02*
X29850000Y38487500I0J237500D01*
G01*
X29850000Y39062500D01*
G75*
G02*
X30087500Y39300000I237500J0D01*
G01*
X30562500Y39300000D01*
G75*
G02*
X30800000Y39062500I0J-237500D01*
G01*
X30800000Y38487500D01*
G75*
G02*
X30562500Y38250000I-237500J0D01*
G01*
G37*
G36*
G01*
X23650000Y12737500D02*
X23650000Y12262500D01*
G75*
G02*
X23412500Y12025000I-237500J0D01*
G01*
X22837500Y12025000D01*
G75*
G02*
X22600000Y12262500I0J237500D01*
G01*
X22600000Y12737500D01*
G75*
G02*
X22837500Y12975000I237500J0D01*
G01*
X23412500Y12975000D01*
G75*
G02*
X23650000Y12737500I0J-237500D01*
G01*
G37*
G36*
G01*
X21900000Y12737500D02*
X21900000Y12262500D01*
G75*
G02*
X21662500Y12025000I-237500J0D01*
G01*
X21087500Y12025000D01*
G75*
G02*
X20850000Y12262500I0J237500D01*
G01*
X20850000Y12737500D01*
G75*
G02*
X21087500Y12975000I237500J0D01*
G01*
X21662500Y12975000D01*
G75*
G02*
X21900000Y12737500I0J-237500D01*
G01*
G37*
G36*
G01*
X32112500Y37000000D02*
X31637500Y37000000D01*
G75*
G02*
X31400000Y37237500I0J237500D01*
G01*
X31400000Y37812500D01*
G75*
G02*
X31637500Y38050000I237500J0D01*
G01*
X32112500Y38050000D01*
G75*
G02*
X32350000Y37812500I0J-237500D01*
G01*
X32350000Y37237500D01*
G75*
G02*
X32112500Y37000000I-237500J0D01*
G01*
G37*
G36*
G01*
X32112500Y38750000D02*
X31637500Y38750000D01*
G75*
G02*
X31400000Y38987500I0J237500D01*
G01*
X31400000Y39562500D01*
G75*
G02*
X31637500Y39800000I237500J0D01*
G01*
X32112500Y39800000D01*
G75*
G02*
X32350000Y39562500I0J-237500D01*
G01*
X32350000Y38987500D01*
G75*
G02*
X32112500Y38750000I-237500J0D01*
G01*
G37*
G36*
G01*
X25087500Y17650000D02*
X24612500Y17650000D01*
G75*
G02*
X24375000Y17887500I0J237500D01*
G01*
X24375000Y18462500D01*
G75*
G02*
X24612500Y18700000I237500J0D01*
G01*
X25087500Y18700000D01*
G75*
G02*
X25325000Y18462500I0J-237500D01*
G01*
X25325000Y17887500D01*
G75*
G02*
X25087500Y17650000I-237500J0D01*
G01*
G37*
G36*
G01*
X25087500Y15900000D02*
X24612500Y15900000D01*
G75*
G02*
X24375000Y16137500I0J237500D01*
G01*
X24375000Y16712500D01*
G75*
G02*
X24612500Y16950000I237500J0D01*
G01*
X25087500Y16950000D01*
G75*
G02*
X25325000Y16712500I0J-237500D01*
G01*
X25325000Y16137500D01*
G75*
G02*
X25087500Y15900000I-237500J0D01*
G01*
G37*
G36*
G01*
X25650000Y33087500D02*
X25650000Y32612500D01*
G75*
G02*
X25412500Y32375000I-237500J0D01*
G01*
X24837500Y32375000D01*
G75*
G02*
X24600000Y32612500I0J237500D01*
G01*
X24600000Y33087500D01*
G75*
G02*
X24837500Y33325000I237500J0D01*
G01*
X25412500Y33325000D01*
G75*
G02*
X25650000Y33087500I0J-237500D01*
G01*
G37*
G36*
G01*
X27400000Y33087500D02*
X27400000Y32612500D01*
G75*
G02*
X27162500Y32375000I-237500J0D01*
G01*
X26587500Y32375000D01*
G75*
G02*
X26350000Y32612500I0J237500D01*
G01*
X26350000Y33087500D01*
G75*
G02*
X26587500Y33325000I237500J0D01*
G01*
X27162500Y33325000D01*
G75*
G02*
X27400000Y33087500I0J-237500D01*
G01*
G37*
G36*
G01*
X46387500Y46350000D02*
X46862500Y46350000D01*
G75*
G02*
X47100000Y46112500I0J-237500D01*
G01*
X47100000Y45537500D01*
G75*
G02*
X46862500Y45300000I-237500J0D01*
G01*
X46387500Y45300000D01*
G75*
G02*
X46150000Y45537500I0J237500D01*
G01*
X46150000Y46112500D01*
G75*
G02*
X46387500Y46350000I237500J0D01*
G01*
G37*
G36*
G01*
X46387500Y48100000D02*
X46862500Y48100000D01*
G75*
G02*
X47100000Y47862500I0J-237500D01*
G01*
X47100000Y47287500D01*
G75*
G02*
X46862500Y47050000I-237500J0D01*
G01*
X46387500Y47050000D01*
G75*
G02*
X46150000Y47287500I0J237500D01*
G01*
X46150000Y47862500D01*
G75*
G02*
X46387500Y48100000I237500J0D01*
G01*
G37*
G36*
G01*
X44787500Y46350000D02*
X45262500Y46350000D01*
G75*
G02*
X45500000Y46112500I0J-237500D01*
G01*
X45500000Y45537500D01*
G75*
G02*
X45262500Y45300000I-237500J0D01*
G01*
X44787500Y45300000D01*
G75*
G02*
X44550000Y45537500I0J237500D01*
G01*
X44550000Y46112500D01*
G75*
G02*
X44787500Y46350000I237500J0D01*
G01*
G37*
G36*
G01*
X44787500Y48100000D02*
X45262500Y48100000D01*
G75*
G02*
X45500000Y47862500I0J-237500D01*
G01*
X45500000Y47287500D01*
G75*
G02*
X45262500Y47050000I-237500J0D01*
G01*
X44787500Y47050000D01*
G75*
G02*
X44550000Y47287500I0J237500D01*
G01*
X44550000Y47862500D01*
G75*
G02*
X44787500Y48100000I237500J0D01*
G01*
G37*
G36*
G01*
X37562500Y43325000D02*
X38037500Y43325000D01*
G75*
G02*
X38275000Y43087500I0J-237500D01*
G01*
X38275000Y42512500D01*
G75*
G02*
X38037500Y42275000I-237500J0D01*
G01*
X37562500Y42275000D01*
G75*
G02*
X37325000Y42512500I0J237500D01*
G01*
X37325000Y43087500D01*
G75*
G02*
X37562500Y43325000I237500J0D01*
G01*
G37*
G36*
G01*
X37562500Y45075000D02*
X38037500Y45075000D01*
G75*
G02*
X38275000Y44837500I0J-237500D01*
G01*
X38275000Y44262500D01*
G75*
G02*
X38037500Y44025000I-237500J0D01*
G01*
X37562500Y44025000D01*
G75*
G02*
X37325000Y44262500I0J237500D01*
G01*
X37325000Y44837500D01*
G75*
G02*
X37562500Y45075000I237500J0D01*
G01*
G37*
D16*
X48475000Y45700000D03*
X50375000Y45700000D03*
X49425000Y47700000D03*
G36*
G01*
X41725000Y34606250D02*
X41725000Y34093750D01*
G75*
G02*
X41506250Y33875000I-218750J0D01*
G01*
X41068750Y33875000D01*
G75*
G02*
X40850000Y34093750I0J218750D01*
G01*
X40850000Y34606250D01*
G75*
G02*
X41068750Y34825000I218750J0D01*
G01*
X41506250Y34825000D01*
G75*
G02*
X41725000Y34606250I0J-218750D01*
G01*
G37*
G36*
G01*
X40150000Y34606250D02*
X40150000Y34093750D01*
G75*
G02*
X39931250Y33875000I-218750J0D01*
G01*
X39493750Y33875000D01*
G75*
G02*
X39275000Y34093750I0J218750D01*
G01*
X39275000Y34606250D01*
G75*
G02*
X39493750Y34825000I218750J0D01*
G01*
X39931250Y34825000D01*
G75*
G02*
X40150000Y34606250I0J-218750D01*
G01*
G37*
G36*
G01*
X41725000Y32106250D02*
X41725000Y31593750D01*
G75*
G02*
X41506250Y31375000I-218750J0D01*
G01*
X41068750Y31375000D01*
G75*
G02*
X40850000Y31593750I0J218750D01*
G01*
X40850000Y32106250D01*
G75*
G02*
X41068750Y32325000I218750J0D01*
G01*
X41506250Y32325000D01*
G75*
G02*
X41725000Y32106250I0J-218750D01*
G01*
G37*
G36*
G01*
X40150000Y32106250D02*
X40150000Y31593750D01*
G75*
G02*
X39931250Y31375000I-218750J0D01*
G01*
X39493750Y31375000D01*
G75*
G02*
X39275000Y31593750I0J218750D01*
G01*
X39275000Y32106250D01*
G75*
G02*
X39493750Y32325000I218750J0D01*
G01*
X39931250Y32325000D01*
G75*
G02*
X40150000Y32106250I0J-218750D01*
G01*
G37*
G36*
G01*
X40150000Y29556250D02*
X40150000Y29043750D01*
G75*
G02*
X39931250Y28825000I-218750J0D01*
G01*
X39493750Y28825000D01*
G75*
G02*
X39275000Y29043750I0J218750D01*
G01*
X39275000Y29556250D01*
G75*
G02*
X39493750Y29775000I218750J0D01*
G01*
X39931250Y29775000D01*
G75*
G02*
X40150000Y29556250I0J-218750D01*
G01*
G37*
G36*
G01*
X41725000Y29556250D02*
X41725000Y29043750D01*
G75*
G02*
X41506250Y28825000I-218750J0D01*
G01*
X41068750Y28825000D01*
G75*
G02*
X40850000Y29043750I0J218750D01*
G01*
X40850000Y29556250D01*
G75*
G02*
X41068750Y29775000I218750J0D01*
G01*
X41506250Y29775000D01*
G75*
G02*
X41725000Y29556250I0J-218750D01*
G01*
G37*
G36*
G01*
X41725000Y27006250D02*
X41725000Y26493750D01*
G75*
G02*
X41506250Y26275000I-218750J0D01*
G01*
X41068750Y26275000D01*
G75*
G02*
X40850000Y26493750I0J218750D01*
G01*
X40850000Y27006250D01*
G75*
G02*
X41068750Y27225000I218750J0D01*
G01*
X41506250Y27225000D01*
G75*
G02*
X41725000Y27006250I0J-218750D01*
G01*
G37*
G36*
G01*
X40150000Y27006250D02*
X40150000Y26493750D01*
G75*
G02*
X39931250Y26275000I-218750J0D01*
G01*
X39493750Y26275000D01*
G75*
G02*
X39275000Y26493750I0J218750D01*
G01*
X39275000Y27006250D01*
G75*
G02*
X39493750Y27225000I218750J0D01*
G01*
X39931250Y27225000D01*
G75*
G02*
X40150000Y27006250I0J-218750D01*
G01*
G37*
G36*
G01*
X40150000Y24456250D02*
X40150000Y23943750D01*
G75*
G02*
X39931250Y23725000I-218750J0D01*
G01*
X39493750Y23725000D01*
G75*
G02*
X39275000Y23943750I0J218750D01*
G01*
X39275000Y24456250D01*
G75*
G02*
X39493750Y24675000I218750J0D01*
G01*
X39931250Y24675000D01*
G75*
G02*
X40150000Y24456250I0J-218750D01*
G01*
G37*
G36*
G01*
X41725000Y24456250D02*
X41725000Y23943750D01*
G75*
G02*
X41506250Y23725000I-218750J0D01*
G01*
X41068750Y23725000D01*
G75*
G02*
X40850000Y23943750I0J218750D01*
G01*
X40850000Y24456250D01*
G75*
G02*
X41068750Y24675000I218750J0D01*
G01*
X41506250Y24675000D01*
G75*
G02*
X41725000Y24456250I0J-218750D01*
G01*
G37*
G36*
G01*
X41725000Y21906250D02*
X41725000Y21393750D01*
G75*
G02*
X41506250Y21175000I-218750J0D01*
G01*
X41068750Y21175000D01*
G75*
G02*
X40850000Y21393750I0J218750D01*
G01*
X40850000Y21906250D01*
G75*
G02*
X41068750Y22125000I218750J0D01*
G01*
X41506250Y22125000D01*
G75*
G02*
X41725000Y21906250I0J-218750D01*
G01*
G37*
G36*
G01*
X40150000Y21906250D02*
X40150000Y21393750D01*
G75*
G02*
X39931250Y21175000I-218750J0D01*
G01*
X39493750Y21175000D01*
G75*
G02*
X39275000Y21393750I0J218750D01*
G01*
X39275000Y21906250D01*
G75*
G02*
X39493750Y22125000I218750J0D01*
G01*
X39931250Y22125000D01*
G75*
G02*
X40150000Y21906250I0J-218750D01*
G01*
G37*
G36*
G01*
X40150000Y19356250D02*
X40150000Y18843750D01*
G75*
G02*
X39931250Y18625000I-218750J0D01*
G01*
X39493750Y18625000D01*
G75*
G02*
X39275000Y18843750I0J218750D01*
G01*
X39275000Y19356250D01*
G75*
G02*
X39493750Y19575000I218750J0D01*
G01*
X39931250Y19575000D01*
G75*
G02*
X40150000Y19356250I0J-218750D01*
G01*
G37*
G36*
G01*
X41725000Y19356250D02*
X41725000Y18843750D01*
G75*
G02*
X41506250Y18625000I-218750J0D01*
G01*
X41068750Y18625000D01*
G75*
G02*
X40850000Y18843750I0J218750D01*
G01*
X40850000Y19356250D01*
G75*
G02*
X41068750Y19575000I218750J0D01*
G01*
X41506250Y19575000D01*
G75*
G02*
X41725000Y19356250I0J-218750D01*
G01*
G37*
G36*
G01*
X41725000Y16856250D02*
X41725000Y16343750D01*
G75*
G02*
X41506250Y16125000I-218750J0D01*
G01*
X41068750Y16125000D01*
G75*
G02*
X40850000Y16343750I0J218750D01*
G01*
X40850000Y16856250D01*
G75*
G02*
X41068750Y17075000I218750J0D01*
G01*
X41506250Y17075000D01*
G75*
G02*
X41725000Y16856250I0J-218750D01*
G01*
G37*
G36*
G01*
X40150000Y16856250D02*
X40150000Y16343750D01*
G75*
G02*
X39931250Y16125000I-218750J0D01*
G01*
X39493750Y16125000D01*
G75*
G02*
X39275000Y16343750I0J218750D01*
G01*
X39275000Y16856250D01*
G75*
G02*
X39493750Y17075000I218750J0D01*
G01*
X39931250Y17075000D01*
G75*
G02*
X40150000Y16856250I0J-218750D01*
G01*
G37*
G36*
G01*
X53125000Y47418750D02*
X53125000Y47931250D01*
G75*
G02*
X53343750Y48150000I218750J0D01*
G01*
X53781250Y48150000D01*
G75*
G02*
X54000000Y47931250I0J-218750D01*
G01*
X54000000Y47418750D01*
G75*
G02*
X53781250Y47200000I-218750J0D01*
G01*
X53343750Y47200000D01*
G75*
G02*
X53125000Y47418750I0J218750D01*
G01*
G37*
G36*
G01*
X51550000Y47418750D02*
X51550000Y47931250D01*
G75*
G02*
X51768750Y48150000I218750J0D01*
G01*
X52206250Y48150000D01*
G75*
G02*
X52425000Y47931250I0J-218750D01*
G01*
X52425000Y47418750D01*
G75*
G02*
X52206250Y47200000I-218750J0D01*
G01*
X51768750Y47200000D01*
G75*
G02*
X51550000Y47418750I0J218750D01*
G01*
G37*
G36*
G01*
X15962500Y33650000D02*
X16437500Y33650000D01*
G75*
G02*
X16675000Y33412500I0J-237500D01*
G01*
X16675000Y32837500D01*
G75*
G02*
X16437500Y32600000I-237500J0D01*
G01*
X15962500Y32600000D01*
G75*
G02*
X15725000Y32837500I0J237500D01*
G01*
X15725000Y33412500D01*
G75*
G02*
X15962500Y33650000I237500J0D01*
G01*
G37*
G36*
G01*
X15962500Y31900000D02*
X16437500Y31900000D01*
G75*
G02*
X16675000Y31662500I0J-237500D01*
G01*
X16675000Y31087500D01*
G75*
G02*
X16437500Y30850000I-237500J0D01*
G01*
X15962500Y30850000D01*
G75*
G02*
X15725000Y31087500I0J237500D01*
G01*
X15725000Y31662500D01*
G75*
G02*
X15962500Y31900000I237500J0D01*
G01*
G37*
G36*
G01*
X33300000Y34512500D02*
X33300000Y34987500D01*
G75*
G02*
X33537500Y35225000I237500J0D01*
G01*
X34112500Y35225000D01*
G75*
G02*
X34350000Y34987500I0J-237500D01*
G01*
X34350000Y34512500D01*
G75*
G02*
X34112500Y34275000I-237500J0D01*
G01*
X33537500Y34275000D01*
G75*
G02*
X33300000Y34512500I0J237500D01*
G01*
G37*
G36*
G01*
X35050000Y34512500D02*
X35050000Y34987500D01*
G75*
G02*
X35287500Y35225000I237500J0D01*
G01*
X35862500Y35225000D01*
G75*
G02*
X36100000Y34987500I0J-237500D01*
G01*
X36100000Y34512500D01*
G75*
G02*
X35862500Y34275000I-237500J0D01*
G01*
X35287500Y34275000D01*
G75*
G02*
X35050000Y34512500I0J237500D01*
G01*
G37*
G36*
G01*
X33300000Y31512500D02*
X33300000Y31987500D01*
G75*
G02*
X33537500Y32225000I237500J0D01*
G01*
X34112500Y32225000D01*
G75*
G02*
X34350000Y31987500I0J-237500D01*
G01*
X34350000Y31512500D01*
G75*
G02*
X34112500Y31275000I-237500J0D01*
G01*
X33537500Y31275000D01*
G75*
G02*
X33300000Y31512500I0J237500D01*
G01*
G37*
G36*
G01*
X35050000Y31512500D02*
X35050000Y31987500D01*
G75*
G02*
X35287500Y32225000I237500J0D01*
G01*
X35862500Y32225000D01*
G75*
G02*
X36100000Y31987500I0J-237500D01*
G01*
X36100000Y31512500D01*
G75*
G02*
X35862500Y31275000I-237500J0D01*
G01*
X35287500Y31275000D01*
G75*
G02*
X35050000Y31512500I0J237500D01*
G01*
G37*
G36*
G01*
X35050000Y28512500D02*
X35050000Y28987500D01*
G75*
G02*
X35287500Y29225000I237500J0D01*
G01*
X35862500Y29225000D01*
G75*
G02*
X36100000Y28987500I0J-237500D01*
G01*
X36100000Y28512500D01*
G75*
G02*
X35862500Y28275000I-237500J0D01*
G01*
X35287500Y28275000D01*
G75*
G02*
X35050000Y28512500I0J237500D01*
G01*
G37*
G36*
G01*
X33300000Y28512500D02*
X33300000Y28987500D01*
G75*
G02*
X33537500Y29225000I237500J0D01*
G01*
X34112500Y29225000D01*
G75*
G02*
X34350000Y28987500I0J-237500D01*
G01*
X34350000Y28512500D01*
G75*
G02*
X34112500Y28275000I-237500J0D01*
G01*
X33537500Y28275000D01*
G75*
G02*
X33300000Y28512500I0J237500D01*
G01*
G37*
G36*
G01*
X33300000Y25512500D02*
X33300000Y25987500D01*
G75*
G02*
X33537500Y26225000I237500J0D01*
G01*
X34112500Y26225000D01*
G75*
G02*
X34350000Y25987500I0J-237500D01*
G01*
X34350000Y25512500D01*
G75*
G02*
X34112500Y25275000I-237500J0D01*
G01*
X33537500Y25275000D01*
G75*
G02*
X33300000Y25512500I0J237500D01*
G01*
G37*
G36*
G01*
X35050000Y25512500D02*
X35050000Y25987500D01*
G75*
G02*
X35287500Y26225000I237500J0D01*
G01*
X35862500Y26225000D01*
G75*
G02*
X36100000Y25987500I0J-237500D01*
G01*
X36100000Y25512500D01*
G75*
G02*
X35862500Y25275000I-237500J0D01*
G01*
X35287500Y25275000D01*
G75*
G02*
X35050000Y25512500I0J237500D01*
G01*
G37*
G36*
G01*
X35050000Y22512500D02*
X35050000Y22987500D01*
G75*
G02*
X35287500Y23225000I237500J0D01*
G01*
X35862500Y23225000D01*
G75*
G02*
X36100000Y22987500I0J-237500D01*
G01*
X36100000Y22512500D01*
G75*
G02*
X35862500Y22275000I-237500J0D01*
G01*
X35287500Y22275000D01*
G75*
G02*
X35050000Y22512500I0J237500D01*
G01*
G37*
G36*
G01*
X33300000Y22512500D02*
X33300000Y22987500D01*
G75*
G02*
X33537500Y23225000I237500J0D01*
G01*
X34112500Y23225000D01*
G75*
G02*
X34350000Y22987500I0J-237500D01*
G01*
X34350000Y22512500D01*
G75*
G02*
X34112500Y22275000I-237500J0D01*
G01*
X33537500Y22275000D01*
G75*
G02*
X33300000Y22512500I0J237500D01*
G01*
G37*
G36*
G01*
X33300000Y19512500D02*
X33300000Y19987500D01*
G75*
G02*
X33537500Y20225000I237500J0D01*
G01*
X34112500Y20225000D01*
G75*
G02*
X34350000Y19987500I0J-237500D01*
G01*
X34350000Y19512500D01*
G75*
G02*
X34112500Y19275000I-237500J0D01*
G01*
X33537500Y19275000D01*
G75*
G02*
X33300000Y19512500I0J237500D01*
G01*
G37*
G36*
G01*
X35050000Y19512500D02*
X35050000Y19987500D01*
G75*
G02*
X35287500Y20225000I237500J0D01*
G01*
X35862500Y20225000D01*
G75*
G02*
X36100000Y19987500I0J-237500D01*
G01*
X36100000Y19512500D01*
G75*
G02*
X35862500Y19275000I-237500J0D01*
G01*
X35287500Y19275000D01*
G75*
G02*
X35050000Y19512500I0J237500D01*
G01*
G37*
G36*
G01*
X35050000Y16512500D02*
X35050000Y16987500D01*
G75*
G02*
X35287500Y17225000I237500J0D01*
G01*
X35862500Y17225000D01*
G75*
G02*
X36100000Y16987500I0J-237500D01*
G01*
X36100000Y16512500D01*
G75*
G02*
X35862500Y16275000I-237500J0D01*
G01*
X35287500Y16275000D01*
G75*
G02*
X35050000Y16512500I0J237500D01*
G01*
G37*
G36*
G01*
X33300000Y16512500D02*
X33300000Y16987500D01*
G75*
G02*
X33537500Y17225000I237500J0D01*
G01*
X34112500Y17225000D01*
G75*
G02*
X34350000Y16987500I0J-237500D01*
G01*
X34350000Y16512500D01*
G75*
G02*
X34112500Y16275000I-237500J0D01*
G01*
X33537500Y16275000D01*
G75*
G02*
X33300000Y16512500I0J237500D01*
G01*
G37*
G36*
G01*
X33300000Y13512500D02*
X33300000Y13987500D01*
G75*
G02*
X33537500Y14225000I237500J0D01*
G01*
X34112500Y14225000D01*
G75*
G02*
X34350000Y13987500I0J-237500D01*
G01*
X34350000Y13512500D01*
G75*
G02*
X34112500Y13275000I-237500J0D01*
G01*
X33537500Y13275000D01*
G75*
G02*
X33300000Y13512500I0J237500D01*
G01*
G37*
G36*
G01*
X35050000Y13512500D02*
X35050000Y13987500D01*
G75*
G02*
X35287500Y14225000I237500J0D01*
G01*
X35862500Y14225000D01*
G75*
G02*
X36100000Y13987500I0J-237500D01*
G01*
X36100000Y13512500D01*
G75*
G02*
X35862500Y13275000I-237500J0D01*
G01*
X35287500Y13275000D01*
G75*
G02*
X35050000Y13512500I0J237500D01*
G01*
G37*
G36*
G01*
X42962500Y46350000D02*
X43437500Y46350000D01*
G75*
G02*
X43675000Y46112500I0J-237500D01*
G01*
X43675000Y45537500D01*
G75*
G02*
X43437500Y45300000I-237500J0D01*
G01*
X42962500Y45300000D01*
G75*
G02*
X42725000Y45537500I0J237500D01*
G01*
X42725000Y46112500D01*
G75*
G02*
X42962500Y46350000I237500J0D01*
G01*
G37*
G36*
G01*
X42962500Y48100000D02*
X43437500Y48100000D01*
G75*
G02*
X43675000Y47862500I0J-237500D01*
G01*
X43675000Y47287500D01*
G75*
G02*
X43437500Y47050000I-237500J0D01*
G01*
X42962500Y47050000D01*
G75*
G02*
X42725000Y47287500I0J237500D01*
G01*
X42725000Y47862500D01*
G75*
G02*
X42962500Y48100000I237500J0D01*
G01*
G37*
G36*
G01*
X41025000Y40687500D02*
X41025000Y40212500D01*
G75*
G02*
X40787500Y39975000I-237500J0D01*
G01*
X40212500Y39975000D01*
G75*
G02*
X39975000Y40212500I0J237500D01*
G01*
X39975000Y40687500D01*
G75*
G02*
X40212500Y40925000I237500J0D01*
G01*
X40787500Y40925000D01*
G75*
G02*
X41025000Y40687500I0J-237500D01*
G01*
G37*
G36*
G01*
X42775000Y40687500D02*
X42775000Y40212500D01*
G75*
G02*
X42537500Y39975000I-237500J0D01*
G01*
X41962500Y39975000D01*
G75*
G02*
X41725000Y40212500I0J237500D01*
G01*
X41725000Y40687500D01*
G75*
G02*
X41962500Y40925000I237500J0D01*
G01*
X42537500Y40925000D01*
G75*
G02*
X42775000Y40687500I0J-237500D01*
G01*
G37*
D17*
X15350000Y29350000D03*
X14550000Y29350000D03*
X13750000Y29350000D03*
X12950000Y29350000D03*
X12150000Y29350000D03*
X11350000Y29350000D03*
X10550000Y29350000D03*
X9750000Y29350000D03*
D18*
X8300000Y27900000D03*
X8300000Y27100000D03*
X8300000Y26300000D03*
X8300000Y25500000D03*
X8300000Y24700000D03*
X8300000Y23900000D03*
X8300000Y23100000D03*
X8300000Y22300000D03*
D17*
X9750000Y20850000D03*
X10550000Y20850000D03*
X11350000Y20850000D03*
X12150000Y20850000D03*
X12950000Y20850000D03*
X13750000Y20850000D03*
X14550000Y20850000D03*
X15350000Y20850000D03*
D18*
X16800000Y22300000D03*
X16800000Y23100000D03*
X16800000Y23900000D03*
X16800000Y24700000D03*
X16800000Y25500000D03*
X16800000Y26300000D03*
X16800000Y27100000D03*
X16800000Y27900000D03*
D15*
X15500000Y18375000D03*
X15500000Y17725000D03*
X15500000Y17075000D03*
X15500000Y16425000D03*
X15500000Y15775000D03*
X15500000Y15125000D03*
X15500000Y14475000D03*
X15500000Y13825000D03*
X21400000Y13825000D03*
X21400000Y14475000D03*
X21400000Y15125000D03*
X21400000Y15775000D03*
X21400000Y16425000D03*
X21400000Y17075000D03*
X21400000Y17725000D03*
X21400000Y18375000D03*
D19*
X39550000Y42325000D03*
X40500000Y42325000D03*
X41450000Y42325000D03*
X41450000Y45025000D03*
X39550000Y45025000D03*
X40500000Y45025000D03*
D20*
X13940000Y42510000D03*
X8860000Y42510000D03*
X8860000Y38310000D03*
X13940000Y38310000D03*
G36*
G01*
X34350000Y36487500D02*
X34350000Y36012500D01*
G75*
G02*
X34112500Y35775000I-237500J0D01*
G01*
X33537500Y35775000D01*
G75*
G02*
X33300000Y36012500I0J237500D01*
G01*
X33300000Y36487500D01*
G75*
G02*
X33537500Y36725000I237500J0D01*
G01*
X34112500Y36725000D01*
G75*
G02*
X34350000Y36487500I0J-237500D01*
G01*
G37*
G36*
G01*
X36100000Y36487500D02*
X36100000Y36012500D01*
G75*
G02*
X35862500Y35775000I-237500J0D01*
G01*
X35287500Y35775000D01*
G75*
G02*
X35050000Y36012500I0J237500D01*
G01*
X35050000Y36487500D01*
G75*
G02*
X35287500Y36725000I237500J0D01*
G01*
X35862500Y36725000D01*
G75*
G02*
X36100000Y36487500I0J-237500D01*
G01*
G37*
G36*
G01*
X36100000Y33487500D02*
X36100000Y33012500D01*
G75*
G02*
X35862500Y32775000I-237500J0D01*
G01*
X35287500Y32775000D01*
G75*
G02*
X35050000Y33012500I0J237500D01*
G01*
X35050000Y33487500D01*
G75*
G02*
X35287500Y33725000I237500J0D01*
G01*
X35862500Y33725000D01*
G75*
G02*
X36100000Y33487500I0J-237500D01*
G01*
G37*
G36*
G01*
X34350000Y33487500D02*
X34350000Y33012500D01*
G75*
G02*
X34112500Y32775000I-237500J0D01*
G01*
X33537500Y32775000D01*
G75*
G02*
X33300000Y33012500I0J237500D01*
G01*
X33300000Y33487500D01*
G75*
G02*
X33537500Y33725000I237500J0D01*
G01*
X34112500Y33725000D01*
G75*
G02*
X34350000Y33487500I0J-237500D01*
G01*
G37*
G36*
G01*
X36100000Y30487500D02*
X36100000Y30012500D01*
G75*
G02*
X35862500Y29775000I-237500J0D01*
G01*
X35287500Y29775000D01*
G75*
G02*
X35050000Y30012500I0J237500D01*
G01*
X35050000Y30487500D01*
G75*
G02*
X35287500Y30725000I237500J0D01*
G01*
X35862500Y30725000D01*
G75*
G02*
X36100000Y30487500I0J-237500D01*
G01*
G37*
G36*
G01*
X34350000Y30487500D02*
X34350000Y30012500D01*
G75*
G02*
X34112500Y29775000I-237500J0D01*
G01*
X33537500Y29775000D01*
G75*
G02*
X33300000Y30012500I0J237500D01*
G01*
X33300000Y30487500D01*
G75*
G02*
X33537500Y30725000I237500J0D01*
G01*
X34112500Y30725000D01*
G75*
G02*
X34350000Y30487500I0J-237500D01*
G01*
G37*
G36*
G01*
X34350000Y27487500D02*
X34350000Y27012500D01*
G75*
G02*
X34112500Y26775000I-237500J0D01*
G01*
X33537500Y26775000D01*
G75*
G02*
X33300000Y27012500I0J237500D01*
G01*
X33300000Y27487500D01*
G75*
G02*
X33537500Y27725000I237500J0D01*
G01*
X34112500Y27725000D01*
G75*
G02*
X34350000Y27487500I0J-237500D01*
G01*
G37*
G36*
G01*
X36100000Y27487500D02*
X36100000Y27012500D01*
G75*
G02*
X35862500Y26775000I-237500J0D01*
G01*
X35287500Y26775000D01*
G75*
G02*
X35050000Y27012500I0J237500D01*
G01*
X35050000Y27487500D01*
G75*
G02*
X35287500Y27725000I237500J0D01*
G01*
X35862500Y27725000D01*
G75*
G02*
X36100000Y27487500I0J-237500D01*
G01*
G37*
G36*
G01*
X36100000Y24487500D02*
X36100000Y24012500D01*
G75*
G02*
X35862500Y23775000I-237500J0D01*
G01*
X35287500Y23775000D01*
G75*
G02*
X35050000Y24012500I0J237500D01*
G01*
X35050000Y24487500D01*
G75*
G02*
X35287500Y24725000I237500J0D01*
G01*
X35862500Y24725000D01*
G75*
G02*
X36100000Y24487500I0J-237500D01*
G01*
G37*
G36*
G01*
X34350000Y24487500D02*
X34350000Y24012500D01*
G75*
G02*
X34112500Y23775000I-237500J0D01*
G01*
X33537500Y23775000D01*
G75*
G02*
X33300000Y24012500I0J237500D01*
G01*
X33300000Y24487500D01*
G75*
G02*
X33537500Y24725000I237500J0D01*
G01*
X34112500Y24725000D01*
G75*
G02*
X34350000Y24487500I0J-237500D01*
G01*
G37*
G36*
G01*
X36100000Y21487500D02*
X36100000Y21012500D01*
G75*
G02*
X35862500Y20775000I-237500J0D01*
G01*
X35287500Y20775000D01*
G75*
G02*
X35050000Y21012500I0J237500D01*
G01*
X35050000Y21487500D01*
G75*
G02*
X35287500Y21725000I237500J0D01*
G01*
X35862500Y21725000D01*
G75*
G02*
X36100000Y21487500I0J-237500D01*
G01*
G37*
G36*
G01*
X34350000Y21487500D02*
X34350000Y21012500D01*
G75*
G02*
X34112500Y20775000I-237500J0D01*
G01*
X33537500Y20775000D01*
G75*
G02*
X33300000Y21012500I0J237500D01*
G01*
X33300000Y21487500D01*
G75*
G02*
X33537500Y21725000I237500J0D01*
G01*
X34112500Y21725000D01*
G75*
G02*
X34350000Y21487500I0J-237500D01*
G01*
G37*
G36*
G01*
X34350000Y18487500D02*
X34350000Y18012500D01*
G75*
G02*
X34112500Y17775000I-237500J0D01*
G01*
X33537500Y17775000D01*
G75*
G02*
X33300000Y18012500I0J237500D01*
G01*
X33300000Y18487500D01*
G75*
G02*
X33537500Y18725000I237500J0D01*
G01*
X34112500Y18725000D01*
G75*
G02*
X34350000Y18487500I0J-237500D01*
G01*
G37*
G36*
G01*
X36100000Y18487500D02*
X36100000Y18012500D01*
G75*
G02*
X35862500Y17775000I-237500J0D01*
G01*
X35287500Y17775000D01*
G75*
G02*
X35050000Y18012500I0J237500D01*
G01*
X35050000Y18487500D01*
G75*
G02*
X35287500Y18725000I237500J0D01*
G01*
X35862500Y18725000D01*
G75*
G02*
X36100000Y18487500I0J-237500D01*
G01*
G37*
G36*
G01*
X36100000Y15487500D02*
X36100000Y15012500D01*
G75*
G02*
X35862500Y14775000I-237500J0D01*
G01*
X35287500Y14775000D01*
G75*
G02*
X35050000Y15012500I0J237500D01*
G01*
X35050000Y15487500D01*
G75*
G02*
X35287500Y15725000I237500J0D01*
G01*
X35862500Y15725000D01*
G75*
G02*
X36100000Y15487500I0J-237500D01*
G01*
G37*
G36*
G01*
X34350000Y15487500D02*
X34350000Y15012500D01*
G75*
G02*
X34112500Y14775000I-237500J0D01*
G01*
X33537500Y14775000D01*
G75*
G02*
X33300000Y15012500I0J237500D01*
G01*
X33300000Y15487500D01*
G75*
G02*
X33537500Y15725000I237500J0D01*
G01*
X34112500Y15725000D01*
G75*
G02*
X34350000Y15487500I0J-237500D01*
G01*
G37*
G36*
G01*
X32750000Y44162500D02*
X32750000Y43687500D01*
G75*
G02*
X32512500Y43450000I-237500J0D01*
G01*
X31937500Y43450000D01*
G75*
G02*
X31700000Y43687500I0J237500D01*
G01*
X31700000Y44162500D01*
G75*
G02*
X31937500Y44400000I237500J0D01*
G01*
X32512500Y44400000D01*
G75*
G02*
X32750000Y44162500I0J-237500D01*
G01*
G37*
G36*
G01*
X34500000Y44162500D02*
X34500000Y43687500D01*
G75*
G02*
X34262500Y43450000I-237500J0D01*
G01*
X33687500Y43450000D01*
G75*
G02*
X33450000Y43687500I0J237500D01*
G01*
X33450000Y44162500D01*
G75*
G02*
X33687500Y44400000I237500J0D01*
G01*
X34262500Y44400000D01*
G75*
G02*
X34500000Y44162500I0J-237500D01*
G01*
G37*
G36*
G01*
X29787500Y46200000D02*
X30262500Y46200000D01*
G75*
G02*
X30500000Y45962500I0J-237500D01*
G01*
X30500000Y45387500D01*
G75*
G02*
X30262500Y45150000I-237500J0D01*
G01*
X29787500Y45150000D01*
G75*
G02*
X29550000Y45387500I0J237500D01*
G01*
X29550000Y45962500D01*
G75*
G02*
X29787500Y46200000I237500J0D01*
G01*
G37*
G36*
G01*
X29787500Y44450000D02*
X30262500Y44450000D01*
G75*
G02*
X30500000Y44212500I0J-237500D01*
G01*
X30500000Y43637500D01*
G75*
G02*
X30262500Y43400000I-237500J0D01*
G01*
X29787500Y43400000D01*
G75*
G02*
X29550000Y43637500I0J237500D01*
G01*
X29550000Y44212500D01*
G75*
G02*
X29787500Y44450000I237500J0D01*
G01*
G37*
D21*
X30025000Y47400000D03*
X32375000Y47400000D03*
G36*
G01*
X39975000Y38637500D02*
X39975000Y39112500D01*
G75*
G02*
X40212500Y39350000I237500J0D01*
G01*
X40787500Y39350000D01*
G75*
G02*
X41025000Y39112500I0J-237500D01*
G01*
X41025000Y38637500D01*
G75*
G02*
X40787500Y38400000I-237500J0D01*
G01*
X40212500Y38400000D01*
G75*
G02*
X39975000Y38637500I0J237500D01*
G01*
G37*
G36*
G01*
X41725000Y38637500D02*
X41725000Y39112500D01*
G75*
G02*
X41962500Y39350000I237500J0D01*
G01*
X42537500Y39350000D01*
G75*
G02*
X42775000Y39112500I0J-237500D01*
G01*
X42775000Y38637500D01*
G75*
G02*
X42537500Y38400000I-237500J0D01*
G01*
X41962500Y38400000D01*
G75*
G02*
X41725000Y38637500I0J237500D01*
G01*
G37*
X54500000Y45875000D03*
X52150000Y45875000D03*
G36*
G01*
X53625000Y42525000D02*
X53625000Y43025000D01*
G75*
G02*
X53875000Y43275000I250000J0D01*
G01*
X55375000Y43275000D01*
G75*
G02*
X55625000Y43025000I0J-250000D01*
G01*
X55625000Y42525000D01*
G75*
G02*
X55375000Y42275000I-250000J0D01*
G01*
X53875000Y42275000D01*
G75*
G02*
X53625000Y42525000I0J250000D01*
G01*
G37*
G36*
G01*
X53625000Y39925000D02*
X53625000Y40425000D01*
G75*
G02*
X53875000Y40675000I250000J0D01*
G01*
X55375000Y40675000D01*
G75*
G02*
X55625000Y40425000I0J-250000D01*
G01*
X55625000Y39925000D01*
G75*
G02*
X55375000Y39675000I-250000J0D01*
G01*
X53875000Y39675000D01*
G75*
G02*
X53625000Y39925000I0J250000D01*
G01*
G37*
D13*
X46875000Y37685000D03*
X46875000Y40225000D03*
X46875000Y42765000D03*
G36*
G01*
X47637500Y6525000D02*
X47162500Y6525000D01*
G75*
G02*
X46925000Y6762500I0J237500D01*
G01*
X46925000Y7337500D01*
G75*
G02*
X47162500Y7575000I237500J0D01*
G01*
X47637500Y7575000D01*
G75*
G02*
X47875000Y7337500I0J-237500D01*
G01*
X47875000Y6762500D01*
G75*
G02*
X47637500Y6525000I-237500J0D01*
G01*
G37*
G36*
G01*
X47637500Y8275000D02*
X47162500Y8275000D01*
G75*
G02*
X46925000Y8512500I0J237500D01*
G01*
X46925000Y9087500D01*
G75*
G02*
X47162500Y9325000I237500J0D01*
G01*
X47637500Y9325000D01*
G75*
G02*
X47875000Y9087500I0J-237500D01*
G01*
X47875000Y8512500D01*
G75*
G02*
X47637500Y8275000I-237500J0D01*
G01*
G37*
G36*
G01*
X48450000Y6812500D02*
X48450000Y7287500D01*
G75*
G02*
X48687500Y7525000I237500J0D01*
G01*
X49262500Y7525000D01*
G75*
G02*
X49500000Y7287500I0J-237500D01*
G01*
X49500000Y6812500D01*
G75*
G02*
X49262500Y6575000I-237500J0D01*
G01*
X48687500Y6575000D01*
G75*
G02*
X48450000Y6812500I0J237500D01*
G01*
G37*
G36*
G01*
X50200000Y6812500D02*
X50200000Y7287500D01*
G75*
G02*
X50437500Y7525000I237500J0D01*
G01*
X51012500Y7525000D01*
G75*
G02*
X51250000Y7287500I0J-237500D01*
G01*
X51250000Y6812500D01*
G75*
G02*
X51012500Y6575000I-237500J0D01*
G01*
X50437500Y6575000D01*
G75*
G02*
X50200000Y6812500I0J237500D01*
G01*
G37*
M02*
