%TF.GenerationSoftware,KiCad,Pcbnew,(5.1.8)-1*%
%TF.CreationDate,2021-02-13T13:26:23-08:00*%
%TF.ProjectId,20200103_8SBMS_A0,32303230-3031-4303-935f-3853424d535f,rev?*%
%TF.SameCoordinates,PXb061cf0PYa92e8c0*%
%TF.FileFunction,Copper,L3,Inr*%
%TF.FilePolarity,Positive*%
%FSLAX46Y46*%
G04 Gerber Fmt 4.6, Leading zero omitted, Abs format (unit mm)*
G04 Created by KiCad (PCBNEW (5.1.8)-1) date 2021-02-13 13:26:23*
%MOMM*%
%LPD*%
G01*
G04 APERTURE LIST*
%TA.AperFunction,ComponentPad*%
%ADD10C,2.000000*%
%TD*%
%TA.AperFunction,ComponentPad*%
%ADD11C,6.000000*%
%TD*%
%TA.AperFunction,ViaPad*%
%ADD12C,0.800000*%
%TD*%
%TA.AperFunction,ViaPad*%
%ADD13C,1.000000*%
%TD*%
%TA.AperFunction,Conductor*%
%ADD14C,0.254000*%
%TD*%
%TA.AperFunction,Conductor*%
%ADD15C,0.100000*%
%TD*%
G04 APERTURE END LIST*
D10*
X1450000Y34710000D03*
X43250000Y34360000D03*
X43250000Y31820000D03*
X43250000Y29280000D03*
X43250000Y26740000D03*
X43250000Y14040000D03*
X43250000Y16580000D03*
X43250000Y19120000D03*
X43250000Y21660000D03*
X43250000Y24200000D03*
X1450000Y32170000D03*
X1450000Y29630000D03*
X1450000Y27090000D03*
X1450000Y14390000D03*
X1450000Y16930000D03*
X1450000Y19470000D03*
X1450000Y22010000D03*
X1450000Y24550000D03*
D11*
X3550000Y46050000D03*
X3550000Y3650000D03*
D10*
X46875000Y37685000D03*
X46875000Y40225000D03*
X46875000Y42765000D03*
D12*
X16800000Y37300000D03*
X23850000Y12500006D03*
X11325000Y18900000D03*
X40400000Y8800000D03*
D13*
X11475000Y43400000D03*
D12*
X24025000Y16425000D03*
X25600000Y48000000D03*
X25600000Y48900000D03*
X26500000Y48000000D03*
X25600000Y47100000D03*
X26500000Y48900000D03*
X26525000Y47100000D03*
X55100000Y34600000D03*
X55100000Y13800000D03*
X53950000Y40175000D03*
X55225000Y40175000D03*
X31500000Y41850000D03*
D13*
X48475000Y45075000D03*
X46625000Y45075000D03*
X36600000Y13750000D03*
X36600000Y16750000D03*
X36600000Y19750000D03*
X36600000Y22750000D03*
X36600000Y25750000D03*
X36600000Y28750000D03*
X36600000Y31750000D03*
X36600000Y34750000D03*
X24275000Y32850000D03*
X20450000Y37450000D03*
D12*
X12950000Y22275000D03*
X23250000Y18675000D03*
X21700000Y12500000D03*
X39900000Y40450000D03*
X12000000Y32075000D03*
X13550000Y17050000D03*
X47400000Y10625000D03*
X31500000Y41000000D03*
X26400000Y900000D03*
X44000000Y800000D03*
X20450000Y20925000D03*
X13450000Y23300000D03*
X11750000Y23500000D03*
X14900000Y23150000D03*
X26800000Y38100000D03*
X15250000Y24700000D03*
X28475000Y40025000D03*
X11250000Y24450000D03*
X38400000Y5750000D03*
X10300000Y23100000D03*
X10300000Y4700000D03*
X36400000Y4700000D03*
X17475000Y28532612D03*
X17450000Y29975000D03*
X12249998Y27700000D03*
X11350000Y26499980D03*
X52650000Y45875000D03*
X55225000Y42775000D03*
X54250000Y42775000D03*
X17300000Y20850000D03*
X28600000Y7050000D03*
X1900000Y41000000D03*
X49400000Y9050000D03*
D14*
X24804782Y49141227D02*
X24773000Y48981452D01*
X24773000Y48818548D01*
X24804782Y48658773D01*
X24867123Y48508269D01*
X24906057Y48450000D01*
X24867123Y48391731D01*
X24804782Y48241227D01*
X24773000Y48081452D01*
X24773000Y47918548D01*
X24804782Y47758773D01*
X24867123Y47608269D01*
X24906057Y47550000D01*
X24867123Y47491731D01*
X24804782Y47341227D01*
X24773000Y47181452D01*
X24773000Y47018548D01*
X24804782Y46858773D01*
X24867123Y46708269D01*
X24957628Y46572819D01*
X25072819Y46457628D01*
X25208269Y46367123D01*
X25358773Y46304782D01*
X25518548Y46273000D01*
X25681452Y46273000D01*
X25841227Y46304782D01*
X25991731Y46367123D01*
X26062500Y46414409D01*
X26133269Y46367123D01*
X26283773Y46304782D01*
X26443548Y46273000D01*
X26606452Y46273000D01*
X26766227Y46304782D01*
X26916731Y46367123D01*
X27052181Y46457628D01*
X27167372Y46572819D01*
X27257877Y46708269D01*
X27320218Y46858773D01*
X27352000Y47018548D01*
X27352000Y47181452D01*
X27320218Y47341227D01*
X27257877Y47491731D01*
X27206443Y47568708D01*
X27232877Y47608269D01*
X27295218Y47758773D01*
X27327000Y47918548D01*
X27327000Y48081452D01*
X27295218Y48241227D01*
X27232877Y48391731D01*
X27193943Y48450000D01*
X27232877Y48508269D01*
X27295218Y48658773D01*
X27327000Y48818548D01*
X27327000Y48981452D01*
X27295218Y49141227D01*
X27250991Y49248000D01*
X52277892Y49248000D01*
X52901319Y49186873D01*
X53479731Y49012239D01*
X54013208Y48728584D01*
X54481428Y48346713D01*
X54866561Y47881168D01*
X55153933Y47349685D01*
X55332601Y46772504D01*
X55397996Y46150301D01*
X55398001Y46148983D01*
X55398001Y43583789D01*
X55306452Y43602000D01*
X55143548Y43602000D01*
X54983773Y43570218D01*
X54833269Y43507877D01*
X54737500Y43443886D01*
X54641731Y43507877D01*
X54491227Y43570218D01*
X54331452Y43602000D01*
X54168548Y43602000D01*
X54008773Y43570218D01*
X53858269Y43507877D01*
X53722819Y43417372D01*
X53607628Y43302181D01*
X53517123Y43166731D01*
X53454782Y43016227D01*
X53423000Y42856452D01*
X53423000Y42693548D01*
X53454782Y42533773D01*
X53517123Y42383269D01*
X53607628Y42247819D01*
X53722819Y42132628D01*
X53858269Y42042123D01*
X54008773Y41979782D01*
X54168548Y41948000D01*
X54331452Y41948000D01*
X54491227Y41979782D01*
X54641731Y42042123D01*
X54737500Y42106114D01*
X54833269Y42042123D01*
X54983773Y41979782D01*
X55143548Y41948000D01*
X55306452Y41948000D01*
X55398001Y41966211D01*
X55398000Y3572109D01*
X55336873Y2948681D01*
X55162239Y2370269D01*
X54878585Y1836794D01*
X54496713Y1368572D01*
X54031166Y983438D01*
X53499685Y696067D01*
X52922504Y517399D01*
X52300300Y452004D01*
X52299268Y452000D01*
X4784529Y452000D01*
X5173293Y613032D01*
X5734585Y988075D01*
X6211925Y1465415D01*
X6586968Y2026707D01*
X6845303Y2650381D01*
X6977000Y3312470D01*
X6977000Y3987530D01*
X6845303Y4649619D01*
X6790696Y4781452D01*
X9473000Y4781452D01*
X9473000Y4618548D01*
X9504782Y4458773D01*
X9567123Y4308269D01*
X9657628Y4172819D01*
X9772819Y4057628D01*
X9908269Y3967123D01*
X10058773Y3904782D01*
X10218548Y3873000D01*
X10381452Y3873000D01*
X10541227Y3904782D01*
X10691731Y3967123D01*
X10827181Y4057628D01*
X10942372Y4172819D01*
X11032877Y4308269D01*
X11095218Y4458773D01*
X11127000Y4618548D01*
X11127000Y4781452D01*
X35573000Y4781452D01*
X35573000Y4618548D01*
X35604782Y4458773D01*
X35667123Y4308269D01*
X35757628Y4172819D01*
X35872819Y4057628D01*
X36008269Y3967123D01*
X36158773Y3904782D01*
X36318548Y3873000D01*
X36481452Y3873000D01*
X36641227Y3904782D01*
X36791731Y3967123D01*
X36927181Y4057628D01*
X37042372Y4172819D01*
X37132877Y4308269D01*
X37195218Y4458773D01*
X37227000Y4618548D01*
X37227000Y4781452D01*
X37195218Y4941227D01*
X37132877Y5091731D01*
X37042372Y5227181D01*
X36927181Y5342372D01*
X36791731Y5432877D01*
X36641227Y5495218D01*
X36481452Y5527000D01*
X36318548Y5527000D01*
X36158773Y5495218D01*
X36008269Y5432877D01*
X35872819Y5342372D01*
X35757628Y5227181D01*
X35667123Y5091731D01*
X35604782Y4941227D01*
X35573000Y4781452D01*
X11127000Y4781452D01*
X11095218Y4941227D01*
X11032877Y5091731D01*
X10942372Y5227181D01*
X10827181Y5342372D01*
X10691731Y5432877D01*
X10541227Y5495218D01*
X10381452Y5527000D01*
X10218548Y5527000D01*
X10058773Y5495218D01*
X9908269Y5432877D01*
X9772819Y5342372D01*
X9657628Y5227181D01*
X9567123Y5091731D01*
X9504782Y4941227D01*
X9473000Y4781452D01*
X6790696Y4781452D01*
X6586968Y5273293D01*
X6214019Y5831452D01*
X37573000Y5831452D01*
X37573000Y5668548D01*
X37604782Y5508773D01*
X37667123Y5358269D01*
X37757628Y5222819D01*
X37872819Y5107628D01*
X38008269Y5017123D01*
X38158773Y4954782D01*
X38318548Y4923000D01*
X38481452Y4923000D01*
X38641227Y4954782D01*
X38791731Y5017123D01*
X38927181Y5107628D01*
X39042372Y5222819D01*
X39132877Y5358269D01*
X39195218Y5508773D01*
X39227000Y5668548D01*
X39227000Y5831452D01*
X39195218Y5991227D01*
X39132877Y6141731D01*
X39042372Y6277181D01*
X38927181Y6392372D01*
X38791731Y6482877D01*
X38641227Y6545218D01*
X38481452Y6577000D01*
X38318548Y6577000D01*
X38158773Y6545218D01*
X38008269Y6482877D01*
X37872819Y6392372D01*
X37757628Y6277181D01*
X37667123Y6141731D01*
X37604782Y5991227D01*
X37573000Y5831452D01*
X6214019Y5831452D01*
X6211925Y5834585D01*
X5734585Y6311925D01*
X5173293Y6686968D01*
X4549619Y6945303D01*
X3887530Y7077000D01*
X3212470Y7077000D01*
X2550381Y6945303D01*
X1926707Y6686968D01*
X1365415Y6311925D01*
X888075Y5834585D01*
X513032Y5273293D01*
X452000Y5125949D01*
X452000Y7131452D01*
X27773000Y7131452D01*
X27773000Y6968548D01*
X27804782Y6808773D01*
X27867123Y6658269D01*
X27957628Y6522819D01*
X28072819Y6407628D01*
X28208269Y6317123D01*
X28358773Y6254782D01*
X28518548Y6223000D01*
X28681452Y6223000D01*
X28841227Y6254782D01*
X28991731Y6317123D01*
X29127181Y6407628D01*
X29242372Y6522819D01*
X29332877Y6658269D01*
X29395218Y6808773D01*
X29427000Y6968548D01*
X29427000Y7131452D01*
X29395218Y7291227D01*
X29332877Y7441731D01*
X29242372Y7577181D01*
X29127181Y7692372D01*
X28991731Y7782877D01*
X28841227Y7845218D01*
X28681452Y7877000D01*
X28518548Y7877000D01*
X28358773Y7845218D01*
X28208269Y7782877D01*
X28072819Y7692372D01*
X27957628Y7577181D01*
X27867123Y7441731D01*
X27804782Y7291227D01*
X27773000Y7131452D01*
X452000Y7131452D01*
X452000Y8881452D01*
X39573000Y8881452D01*
X39573000Y8718548D01*
X39604782Y8558773D01*
X39667123Y8408269D01*
X39757628Y8272819D01*
X39872819Y8157628D01*
X40008269Y8067123D01*
X40158773Y8004782D01*
X40318548Y7973000D01*
X40481452Y7973000D01*
X40641227Y8004782D01*
X40791731Y8067123D01*
X40927181Y8157628D01*
X41042372Y8272819D01*
X41132877Y8408269D01*
X41195218Y8558773D01*
X41227000Y8718548D01*
X41227000Y8881452D01*
X41195218Y9041227D01*
X41157846Y9131452D01*
X48573000Y9131452D01*
X48573000Y8968548D01*
X48604782Y8808773D01*
X48667123Y8658269D01*
X48757628Y8522819D01*
X48872819Y8407628D01*
X49008269Y8317123D01*
X49158773Y8254782D01*
X49318548Y8223000D01*
X49481452Y8223000D01*
X49641227Y8254782D01*
X49791731Y8317123D01*
X49927181Y8407628D01*
X50042372Y8522819D01*
X50132877Y8658269D01*
X50195218Y8808773D01*
X50227000Y8968548D01*
X50227000Y9131452D01*
X50195218Y9291227D01*
X50132877Y9441731D01*
X50042372Y9577181D01*
X49927181Y9692372D01*
X49791731Y9782877D01*
X49641227Y9845218D01*
X49481452Y9877000D01*
X49318548Y9877000D01*
X49158773Y9845218D01*
X49008269Y9782877D01*
X48872819Y9692372D01*
X48757628Y9577181D01*
X48667123Y9441731D01*
X48604782Y9291227D01*
X48573000Y9131452D01*
X41157846Y9131452D01*
X41132877Y9191731D01*
X41042372Y9327181D01*
X40927181Y9442372D01*
X40791731Y9532877D01*
X40641227Y9595218D01*
X40481452Y9627000D01*
X40318548Y9627000D01*
X40158773Y9595218D01*
X40008269Y9532877D01*
X39872819Y9442372D01*
X39757628Y9327181D01*
X39667123Y9191731D01*
X39604782Y9041227D01*
X39573000Y8881452D01*
X452000Y8881452D01*
X452000Y12581458D01*
X23023000Y12581458D01*
X23023000Y12418554D01*
X23054782Y12258779D01*
X23117123Y12108275D01*
X23207628Y11972825D01*
X23322819Y11857634D01*
X23458269Y11767129D01*
X23608773Y11704788D01*
X23768548Y11673006D01*
X23931452Y11673006D01*
X24091227Y11704788D01*
X24241731Y11767129D01*
X24377181Y11857634D01*
X24492372Y11972825D01*
X24582877Y12108275D01*
X24645218Y12258779D01*
X24677000Y12418554D01*
X24677000Y12581458D01*
X24645218Y12741233D01*
X24582877Y12891737D01*
X24492372Y13027187D01*
X24377181Y13142378D01*
X24241731Y13232883D01*
X24091227Y13295224D01*
X23931452Y13327006D01*
X23768548Y13327006D01*
X23608773Y13295224D01*
X23458269Y13232883D01*
X23322819Y13142378D01*
X23207628Y13027187D01*
X23117123Y12891737D01*
X23054782Y12741233D01*
X23023000Y12581458D01*
X452000Y12581458D01*
X452000Y15909916D01*
X540340Y15821576D01*
X774062Y15665409D01*
X1033759Y15557838D01*
X1309453Y15503000D01*
X1590547Y15503000D01*
X1866241Y15557838D01*
X2125938Y15665409D01*
X2359660Y15821576D01*
X2558424Y16020340D01*
X2714591Y16254062D01*
X2819135Y16506452D01*
X23198000Y16506452D01*
X23198000Y16343548D01*
X23229782Y16183773D01*
X23292123Y16033269D01*
X23382628Y15897819D01*
X23497819Y15782628D01*
X23633269Y15692123D01*
X23783773Y15629782D01*
X23943548Y15598000D01*
X24106452Y15598000D01*
X24266227Y15629782D01*
X24416731Y15692123D01*
X24552181Y15782628D01*
X24667372Y15897819D01*
X24757877Y16033269D01*
X24820218Y16183773D01*
X24852000Y16343548D01*
X24852000Y16506452D01*
X24820218Y16666227D01*
X24757877Y16816731D01*
X24667372Y16952181D01*
X24552181Y17067372D01*
X24416731Y17157877D01*
X24266227Y17220218D01*
X24106452Y17252000D01*
X23943548Y17252000D01*
X23783773Y17220218D01*
X23633269Y17157877D01*
X23497819Y17067372D01*
X23382628Y16952181D01*
X23292123Y16816731D01*
X23229782Y16666227D01*
X23198000Y16506452D01*
X2819135Y16506452D01*
X2822162Y16513759D01*
X2877000Y16789453D01*
X2877000Y17070547D01*
X2822162Y17346241D01*
X2714591Y17605938D01*
X2558424Y17839660D01*
X2359660Y18038424D01*
X2125938Y18194591D01*
X2112880Y18200000D01*
X2125938Y18205409D01*
X2359660Y18361576D01*
X2558424Y18560340D01*
X2714591Y18794062D01*
X2792211Y18981452D01*
X10498000Y18981452D01*
X10498000Y18818548D01*
X10529782Y18658773D01*
X10592123Y18508269D01*
X10682628Y18372819D01*
X10797819Y18257628D01*
X10933269Y18167123D01*
X11083773Y18104782D01*
X11243548Y18073000D01*
X11406452Y18073000D01*
X11566227Y18104782D01*
X11716731Y18167123D01*
X11852181Y18257628D01*
X11967372Y18372819D01*
X12057877Y18508269D01*
X12120218Y18658773D01*
X12152000Y18818548D01*
X12152000Y18981452D01*
X12120218Y19141227D01*
X12057877Y19291731D01*
X11967372Y19427181D01*
X11852181Y19542372D01*
X11716731Y19632877D01*
X11566227Y19695218D01*
X11406452Y19727000D01*
X11243548Y19727000D01*
X11083773Y19695218D01*
X10933269Y19632877D01*
X10797819Y19542372D01*
X10682628Y19427181D01*
X10592123Y19291731D01*
X10529782Y19141227D01*
X10498000Y18981452D01*
X2792211Y18981452D01*
X2822162Y19053759D01*
X2877000Y19329453D01*
X2877000Y19610547D01*
X2822162Y19886241D01*
X2714591Y20145938D01*
X2558424Y20379660D01*
X2359660Y20578424D01*
X2125938Y20734591D01*
X2112880Y20740000D01*
X2125938Y20745409D01*
X2359660Y20901576D01*
X2389536Y20931452D01*
X16473000Y20931452D01*
X16473000Y20768548D01*
X16504782Y20608773D01*
X16567123Y20458269D01*
X16657628Y20322819D01*
X16772819Y20207628D01*
X16908269Y20117123D01*
X17058773Y20054782D01*
X17218548Y20023000D01*
X17381452Y20023000D01*
X17541227Y20054782D01*
X17691731Y20117123D01*
X17827181Y20207628D01*
X17942372Y20322819D01*
X18032877Y20458269D01*
X18095218Y20608773D01*
X18127000Y20768548D01*
X18127000Y20931452D01*
X18112082Y21006452D01*
X19623000Y21006452D01*
X19623000Y20843548D01*
X19654782Y20683773D01*
X19717123Y20533269D01*
X19807628Y20397819D01*
X19922819Y20282628D01*
X20058269Y20192123D01*
X20208773Y20129782D01*
X20368548Y20098000D01*
X20531452Y20098000D01*
X20691227Y20129782D01*
X20841731Y20192123D01*
X20977181Y20282628D01*
X21092372Y20397819D01*
X21182877Y20533269D01*
X21245218Y20683773D01*
X21277000Y20843548D01*
X21277000Y21006452D01*
X21245218Y21166227D01*
X21182877Y21316731D01*
X21092372Y21452181D01*
X20977181Y21567372D01*
X20841731Y21657877D01*
X20691227Y21720218D01*
X20531452Y21752000D01*
X20368548Y21752000D01*
X20208773Y21720218D01*
X20058269Y21657877D01*
X19922819Y21567372D01*
X19807628Y21452181D01*
X19717123Y21316731D01*
X19654782Y21166227D01*
X19623000Y21006452D01*
X18112082Y21006452D01*
X18095218Y21091227D01*
X18032877Y21241731D01*
X17942372Y21377181D01*
X17827181Y21492372D01*
X17691731Y21582877D01*
X17541227Y21645218D01*
X17381452Y21677000D01*
X17218548Y21677000D01*
X17058773Y21645218D01*
X16908269Y21582877D01*
X16772819Y21492372D01*
X16657628Y21377181D01*
X16567123Y21241731D01*
X16504782Y21091227D01*
X16473000Y20931452D01*
X2389536Y20931452D01*
X2558424Y21100340D01*
X2714591Y21334062D01*
X2822162Y21593759D01*
X2877000Y21869453D01*
X2877000Y22150547D01*
X2822162Y22426241D01*
X2714591Y22685938D01*
X2558424Y22919660D01*
X2359660Y23118424D01*
X2265332Y23181452D01*
X9473000Y23181452D01*
X9473000Y23018548D01*
X9504782Y22858773D01*
X9567123Y22708269D01*
X9657628Y22572819D01*
X9772819Y22457628D01*
X9908269Y22367123D01*
X10058773Y22304782D01*
X10218548Y22273000D01*
X10381452Y22273000D01*
X10541227Y22304782D01*
X10691731Y22367123D01*
X10827181Y22457628D01*
X10942372Y22572819D01*
X11032877Y22708269D01*
X11095218Y22858773D01*
X11116199Y22964248D01*
X11222819Y22857628D01*
X11358269Y22767123D01*
X11508773Y22704782D01*
X11668548Y22673000D01*
X11831452Y22673000D01*
X11991227Y22704782D01*
X12141731Y22767123D01*
X12277181Y22857628D01*
X12392372Y22972819D01*
X12482877Y23108269D01*
X12545218Y23258773D01*
X12569620Y23381452D01*
X12623000Y23381452D01*
X12623000Y23218548D01*
X12654782Y23058773D01*
X12717123Y22908269D01*
X12807628Y22772819D01*
X12922819Y22657628D01*
X13058269Y22567123D01*
X13208773Y22504782D01*
X13368548Y22473000D01*
X13531452Y22473000D01*
X13691227Y22504782D01*
X13841731Y22567123D01*
X13977181Y22657628D01*
X14092372Y22772819D01*
X14134797Y22836312D01*
X14167123Y22758269D01*
X14257628Y22622819D01*
X14372819Y22507628D01*
X14508269Y22417123D01*
X14658773Y22354782D01*
X14818548Y22323000D01*
X14981452Y22323000D01*
X15141227Y22354782D01*
X15291731Y22417123D01*
X15427181Y22507628D01*
X15542372Y22622819D01*
X15632877Y22758269D01*
X15695218Y22908773D01*
X15727000Y23068548D01*
X15727000Y23231452D01*
X15695218Y23391227D01*
X15632877Y23541731D01*
X15542372Y23677181D01*
X15427181Y23792372D01*
X15306513Y23873000D01*
X15331452Y23873000D01*
X15491227Y23904782D01*
X15641731Y23967123D01*
X15777181Y24057628D01*
X15892372Y24172819D01*
X15982877Y24308269D01*
X16045218Y24458773D01*
X16077000Y24618548D01*
X16077000Y24781452D01*
X16045218Y24941227D01*
X15982877Y25091731D01*
X15892372Y25227181D01*
X15777181Y25342372D01*
X15641731Y25432877D01*
X15491227Y25495218D01*
X15331452Y25527000D01*
X15168548Y25527000D01*
X15008773Y25495218D01*
X14858269Y25432877D01*
X14722819Y25342372D01*
X14607628Y25227181D01*
X14517123Y25091731D01*
X14454782Y24941227D01*
X14423000Y24781452D01*
X14423000Y24618548D01*
X14454782Y24458773D01*
X14517123Y24308269D01*
X14607628Y24172819D01*
X14722819Y24057628D01*
X14843487Y23977000D01*
X14818548Y23977000D01*
X14658773Y23945218D01*
X14508269Y23882877D01*
X14372819Y23792372D01*
X14257628Y23677181D01*
X14215203Y23613688D01*
X14182877Y23691731D01*
X14092372Y23827181D01*
X13977181Y23942372D01*
X13841731Y24032877D01*
X13691227Y24095218D01*
X13531452Y24127000D01*
X13368548Y24127000D01*
X13208773Y24095218D01*
X13058269Y24032877D01*
X12922819Y23942372D01*
X12807628Y23827181D01*
X12717123Y23691731D01*
X12654782Y23541227D01*
X12623000Y23381452D01*
X12569620Y23381452D01*
X12577000Y23418548D01*
X12577000Y23581452D01*
X12545218Y23741227D01*
X12482877Y23891731D01*
X12392372Y24027181D01*
X12277181Y24142372D01*
X12141731Y24232877D01*
X12056995Y24267976D01*
X12077000Y24368548D01*
X12077000Y24531452D01*
X12045218Y24691227D01*
X11982877Y24841731D01*
X11892372Y24977181D01*
X11777181Y25092372D01*
X11641731Y25182877D01*
X11491227Y25245218D01*
X11331452Y25277000D01*
X11168548Y25277000D01*
X11008773Y25245218D01*
X10858269Y25182877D01*
X10722819Y25092372D01*
X10607628Y24977181D01*
X10517123Y24841731D01*
X10454782Y24691227D01*
X10423000Y24531452D01*
X10423000Y24368548D01*
X10454782Y24208773D01*
X10517123Y24058269D01*
X10607628Y23922819D01*
X10709328Y23821119D01*
X10691731Y23832877D01*
X10541227Y23895218D01*
X10381452Y23927000D01*
X10218548Y23927000D01*
X10058773Y23895218D01*
X9908269Y23832877D01*
X9772819Y23742372D01*
X9657628Y23627181D01*
X9567123Y23491731D01*
X9504782Y23341227D01*
X9473000Y23181452D01*
X2265332Y23181452D01*
X2125938Y23274591D01*
X2112880Y23280000D01*
X2125938Y23285409D01*
X2359660Y23441576D01*
X2558424Y23640340D01*
X2714591Y23874062D01*
X2822162Y24133759D01*
X2877000Y24409453D01*
X2877000Y24690547D01*
X2822162Y24966241D01*
X2714591Y25225938D01*
X2558424Y25459660D01*
X2359660Y25658424D01*
X2125938Y25814591D01*
X2112880Y25820000D01*
X2125938Y25825409D01*
X2359660Y25981576D01*
X2558424Y26180340D01*
X2714591Y26414062D01*
X2783918Y26581432D01*
X10523000Y26581432D01*
X10523000Y26418528D01*
X10554782Y26258753D01*
X10617123Y26108249D01*
X10707628Y25972799D01*
X10822819Y25857608D01*
X10958269Y25767103D01*
X11108773Y25704762D01*
X11268548Y25672980D01*
X11431452Y25672980D01*
X11591227Y25704762D01*
X11741731Y25767103D01*
X11877181Y25857608D01*
X11992372Y25972799D01*
X12082877Y26108249D01*
X12145218Y26258753D01*
X12177000Y26418528D01*
X12177000Y26581432D01*
X12145218Y26741207D01*
X12083631Y26889891D01*
X12168546Y26873000D01*
X12331450Y26873000D01*
X12491225Y26904782D01*
X12641729Y26967123D01*
X12777179Y27057628D01*
X12892370Y27172819D01*
X12982875Y27308269D01*
X13045216Y27458773D01*
X13076998Y27618548D01*
X13076998Y27781452D01*
X13045216Y27941227D01*
X12982875Y28091731D01*
X12892370Y28227181D01*
X12777179Y28342372D01*
X12641729Y28432877D01*
X12491225Y28495218D01*
X12331450Y28527000D01*
X12168546Y28527000D01*
X12008771Y28495218D01*
X11858267Y28432877D01*
X11722817Y28342372D01*
X11607626Y28227181D01*
X11517121Y28091731D01*
X11454780Y27941227D01*
X11422998Y27781452D01*
X11422998Y27618548D01*
X11454780Y27458773D01*
X11516367Y27310089D01*
X11431452Y27326980D01*
X11268548Y27326980D01*
X11108773Y27295198D01*
X10958269Y27232857D01*
X10822819Y27142352D01*
X10707628Y27027161D01*
X10617123Y26891711D01*
X10554782Y26741207D01*
X10523000Y26581432D01*
X2783918Y26581432D01*
X2822162Y26673759D01*
X2877000Y26949453D01*
X2877000Y27230547D01*
X2822162Y27506241D01*
X2714591Y27765938D01*
X2558424Y27999660D01*
X2359660Y28198424D01*
X2125938Y28354591D01*
X2112880Y28360000D01*
X2125938Y28365409D01*
X2359660Y28521576D01*
X2558424Y28720340D01*
X2714591Y28954062D01*
X2822162Y29213759D01*
X2877000Y29489453D01*
X2877000Y29770547D01*
X2822162Y30046241D01*
X2817933Y30056452D01*
X16623000Y30056452D01*
X16623000Y29893548D01*
X16654782Y29733773D01*
X16717123Y29583269D01*
X16807628Y29447819D01*
X16922819Y29332628D01*
X17053284Y29245454D01*
X16947819Y29174984D01*
X16832628Y29059793D01*
X16742123Y28924343D01*
X16679782Y28773839D01*
X16648000Y28614064D01*
X16648000Y28451160D01*
X16679782Y28291385D01*
X16742123Y28140881D01*
X16832628Y28005431D01*
X16947819Y27890240D01*
X17083269Y27799735D01*
X17233773Y27737394D01*
X17393548Y27705612D01*
X17556452Y27705612D01*
X17716227Y27737394D01*
X17866731Y27799735D01*
X18002181Y27890240D01*
X18117372Y28005431D01*
X18207877Y28140881D01*
X18270218Y28291385D01*
X18302000Y28451160D01*
X18302000Y28614064D01*
X18270218Y28773839D01*
X18207877Y28924343D01*
X18117372Y29059793D01*
X18002181Y29174984D01*
X17871716Y29262158D01*
X17977181Y29332628D01*
X18092372Y29447819D01*
X18182877Y29583269D01*
X18245218Y29733773D01*
X18277000Y29893548D01*
X18277000Y30056452D01*
X18245218Y30216227D01*
X18182877Y30366731D01*
X18092372Y30502181D01*
X17977181Y30617372D01*
X17841731Y30707877D01*
X17691227Y30770218D01*
X17531452Y30802000D01*
X17368548Y30802000D01*
X17208773Y30770218D01*
X17058269Y30707877D01*
X16922819Y30617372D01*
X16807628Y30502181D01*
X16717123Y30366731D01*
X16654782Y30216227D01*
X16623000Y30056452D01*
X2817933Y30056452D01*
X2714591Y30305938D01*
X2558424Y30539660D01*
X2359660Y30738424D01*
X2125938Y30894591D01*
X2112880Y30900000D01*
X2125938Y30905409D01*
X2359660Y31061576D01*
X2558424Y31260340D01*
X2714591Y31494062D01*
X2822162Y31753759D01*
X2877000Y32029453D01*
X2877000Y32310547D01*
X2822162Y32586241D01*
X2714591Y32845938D01*
X2558424Y33079660D01*
X2359660Y33278424D01*
X2125938Y33434591D01*
X2112880Y33440000D01*
X2125938Y33445409D01*
X2359660Y33601576D01*
X2558424Y33800340D01*
X2714591Y34034062D01*
X2822162Y34293759D01*
X2863293Y34500547D01*
X41823000Y34500547D01*
X41823000Y34219453D01*
X41877838Y33943759D01*
X41985409Y33684062D01*
X42141576Y33450340D01*
X42340340Y33251576D01*
X42574062Y33095409D01*
X42587120Y33090000D01*
X42574062Y33084591D01*
X42340340Y32928424D01*
X42141576Y32729660D01*
X41985409Y32495938D01*
X41877838Y32236241D01*
X41823000Y31960547D01*
X41823000Y31679453D01*
X41877838Y31403759D01*
X41985409Y31144062D01*
X42141576Y30910340D01*
X42340340Y30711576D01*
X42574062Y30555409D01*
X42587120Y30550000D01*
X42574062Y30544591D01*
X42340340Y30388424D01*
X42141576Y30189660D01*
X41985409Y29955938D01*
X41877838Y29696241D01*
X41823000Y29420547D01*
X41823000Y29139453D01*
X41877838Y28863759D01*
X41985409Y28604062D01*
X42141576Y28370340D01*
X42340340Y28171576D01*
X42574062Y28015409D01*
X42587120Y28010000D01*
X42574062Y28004591D01*
X42340340Y27848424D01*
X42141576Y27649660D01*
X41985409Y27415938D01*
X41877838Y27156241D01*
X41823000Y26880547D01*
X41823000Y26599453D01*
X41877838Y26323759D01*
X41985409Y26064062D01*
X42141576Y25830340D01*
X42340340Y25631576D01*
X42574062Y25475409D01*
X42587120Y25470000D01*
X42574062Y25464591D01*
X42340340Y25308424D01*
X42141576Y25109660D01*
X41985409Y24875938D01*
X41877838Y24616241D01*
X41823000Y24340547D01*
X41823000Y24059453D01*
X41877838Y23783759D01*
X41985409Y23524062D01*
X42141576Y23290340D01*
X42340340Y23091576D01*
X42574062Y22935409D01*
X42587120Y22930000D01*
X42574062Y22924591D01*
X42340340Y22768424D01*
X42141576Y22569660D01*
X41985409Y22335938D01*
X41877838Y22076241D01*
X41823000Y21800547D01*
X41823000Y21519453D01*
X41877838Y21243759D01*
X41985409Y20984062D01*
X42141576Y20750340D01*
X42340340Y20551576D01*
X42574062Y20395409D01*
X42587120Y20390000D01*
X42574062Y20384591D01*
X42340340Y20228424D01*
X42141576Y20029660D01*
X41985409Y19795938D01*
X41877838Y19536241D01*
X41823000Y19260547D01*
X41823000Y18979453D01*
X41877838Y18703759D01*
X41985409Y18444062D01*
X42141576Y18210340D01*
X42340340Y18011576D01*
X42574062Y17855409D01*
X42587120Y17850000D01*
X42574062Y17844591D01*
X42340340Y17688424D01*
X42141576Y17489660D01*
X41985409Y17255938D01*
X41877838Y16996241D01*
X41823000Y16720547D01*
X41823000Y16439453D01*
X41877838Y16163759D01*
X41985409Y15904062D01*
X42141576Y15670340D01*
X42340340Y15471576D01*
X42574062Y15315409D01*
X42833759Y15207838D01*
X43109453Y15153000D01*
X43390547Y15153000D01*
X43666241Y15207838D01*
X43925938Y15315409D01*
X44159660Y15471576D01*
X44358424Y15670340D01*
X44514591Y15904062D01*
X44622162Y16163759D01*
X44677000Y16439453D01*
X44677000Y16720547D01*
X44622162Y16996241D01*
X44514591Y17255938D01*
X44358424Y17489660D01*
X44159660Y17688424D01*
X43925938Y17844591D01*
X43912880Y17850000D01*
X43925938Y17855409D01*
X44159660Y18011576D01*
X44358424Y18210340D01*
X44514591Y18444062D01*
X44622162Y18703759D01*
X44677000Y18979453D01*
X44677000Y19260547D01*
X44622162Y19536241D01*
X44514591Y19795938D01*
X44358424Y20029660D01*
X44159660Y20228424D01*
X43925938Y20384591D01*
X43912880Y20390000D01*
X43925938Y20395409D01*
X44159660Y20551576D01*
X44358424Y20750340D01*
X44514591Y20984062D01*
X44622162Y21243759D01*
X44677000Y21519453D01*
X44677000Y21800547D01*
X44622162Y22076241D01*
X44514591Y22335938D01*
X44358424Y22569660D01*
X44159660Y22768424D01*
X43925938Y22924591D01*
X43912880Y22930000D01*
X43925938Y22935409D01*
X44159660Y23091576D01*
X44358424Y23290340D01*
X44514591Y23524062D01*
X44622162Y23783759D01*
X44677000Y24059453D01*
X44677000Y24340547D01*
X44622162Y24616241D01*
X44514591Y24875938D01*
X44358424Y25109660D01*
X44159660Y25308424D01*
X43925938Y25464591D01*
X43912880Y25470000D01*
X43925938Y25475409D01*
X44159660Y25631576D01*
X44358424Y25830340D01*
X44514591Y26064062D01*
X44622162Y26323759D01*
X44677000Y26599453D01*
X44677000Y26880547D01*
X44622162Y27156241D01*
X44514591Y27415938D01*
X44358424Y27649660D01*
X44159660Y27848424D01*
X43925938Y28004591D01*
X43912880Y28010000D01*
X43925938Y28015409D01*
X44159660Y28171576D01*
X44358424Y28370340D01*
X44514591Y28604062D01*
X44622162Y28863759D01*
X44677000Y29139453D01*
X44677000Y29420547D01*
X44622162Y29696241D01*
X44514591Y29955938D01*
X44358424Y30189660D01*
X44159660Y30388424D01*
X43925938Y30544591D01*
X43912880Y30550000D01*
X43925938Y30555409D01*
X44159660Y30711576D01*
X44358424Y30910340D01*
X44514591Y31144062D01*
X44622162Y31403759D01*
X44677000Y31679453D01*
X44677000Y31960547D01*
X44622162Y32236241D01*
X44514591Y32495938D01*
X44358424Y32729660D01*
X44159660Y32928424D01*
X43925938Y33084591D01*
X43912880Y33090000D01*
X43925938Y33095409D01*
X44159660Y33251576D01*
X44358424Y33450340D01*
X44514591Y33684062D01*
X44622162Y33943759D01*
X44677000Y34219453D01*
X44677000Y34500547D01*
X44622162Y34776241D01*
X44514591Y35035938D01*
X44358424Y35269660D01*
X44159660Y35468424D01*
X43925938Y35624591D01*
X43666241Y35732162D01*
X43390547Y35787000D01*
X43109453Y35787000D01*
X42833759Y35732162D01*
X42574062Y35624591D01*
X42340340Y35468424D01*
X42141576Y35269660D01*
X41985409Y35035938D01*
X41877838Y34776241D01*
X41823000Y34500547D01*
X2863293Y34500547D01*
X2877000Y34569453D01*
X2877000Y34850547D01*
X2822162Y35126241D01*
X2714591Y35385938D01*
X2558424Y35619660D01*
X2359660Y35818424D01*
X2125938Y35974591D01*
X1866241Y36082162D01*
X1590547Y36137000D01*
X1309453Y36137000D01*
X1033759Y36082162D01*
X774062Y35974591D01*
X540340Y35818424D01*
X452000Y35730084D01*
X452000Y37381452D01*
X15973000Y37381452D01*
X15973000Y37218548D01*
X16004782Y37058773D01*
X16067123Y36908269D01*
X16157628Y36772819D01*
X16272819Y36657628D01*
X16408269Y36567123D01*
X16558773Y36504782D01*
X16718548Y36473000D01*
X16881452Y36473000D01*
X17041227Y36504782D01*
X17191731Y36567123D01*
X17327181Y36657628D01*
X17442372Y36772819D01*
X17532877Y36908269D01*
X17595218Y37058773D01*
X17627000Y37218548D01*
X17627000Y37381452D01*
X17595218Y37541227D01*
X17532877Y37691731D01*
X17442372Y37827181D01*
X17327181Y37942372D01*
X17191731Y38032877D01*
X17041227Y38095218D01*
X16881452Y38127000D01*
X16718548Y38127000D01*
X16558773Y38095218D01*
X16408269Y38032877D01*
X16272819Y37942372D01*
X16157628Y37827181D01*
X16067123Y37691731D01*
X16004782Y37541227D01*
X15973000Y37381452D01*
X452000Y37381452D01*
X452000Y38181452D01*
X25973000Y38181452D01*
X25973000Y38018548D01*
X26004782Y37858773D01*
X26067123Y37708269D01*
X26157628Y37572819D01*
X26272819Y37457628D01*
X26408269Y37367123D01*
X26558773Y37304782D01*
X26718548Y37273000D01*
X26881452Y37273000D01*
X27041227Y37304782D01*
X27191731Y37367123D01*
X27327181Y37457628D01*
X27442372Y37572819D01*
X27532877Y37708269D01*
X27595218Y37858773D01*
X27627000Y38018548D01*
X27627000Y38181452D01*
X27595218Y38341227D01*
X27532877Y38491731D01*
X27442372Y38627181D01*
X27327181Y38742372D01*
X27191731Y38832877D01*
X27041227Y38895218D01*
X26881452Y38927000D01*
X26718548Y38927000D01*
X26558773Y38895218D01*
X26408269Y38832877D01*
X26272819Y38742372D01*
X26157628Y38627181D01*
X26067123Y38491731D01*
X26004782Y38341227D01*
X25973000Y38181452D01*
X452000Y38181452D01*
X452000Y40106452D01*
X27648000Y40106452D01*
X27648000Y39943548D01*
X27679782Y39783773D01*
X27742123Y39633269D01*
X27832628Y39497819D01*
X27947819Y39382628D01*
X28083269Y39292123D01*
X28233773Y39229782D01*
X28393548Y39198000D01*
X28556452Y39198000D01*
X28716227Y39229782D01*
X28866731Y39292123D01*
X29002181Y39382628D01*
X29117372Y39497819D01*
X29207877Y39633269D01*
X29270218Y39783773D01*
X29302000Y39943548D01*
X29302000Y40106452D01*
X29270218Y40266227D01*
X29207877Y40416731D01*
X29117372Y40552181D01*
X29002181Y40667372D01*
X28866731Y40757877D01*
X28716227Y40820218D01*
X28556452Y40852000D01*
X28393548Y40852000D01*
X28233773Y40820218D01*
X28083269Y40757877D01*
X27947819Y40667372D01*
X27832628Y40552181D01*
X27742123Y40416731D01*
X27679782Y40266227D01*
X27648000Y40106452D01*
X452000Y40106452D01*
X452000Y41081452D01*
X1073000Y41081452D01*
X1073000Y40918548D01*
X1104782Y40758773D01*
X1167123Y40608269D01*
X1257628Y40472819D01*
X1372819Y40357628D01*
X1508269Y40267123D01*
X1658773Y40204782D01*
X1818548Y40173000D01*
X1981452Y40173000D01*
X2141227Y40204782D01*
X2291731Y40267123D01*
X2427181Y40357628D01*
X2542372Y40472819D01*
X2632877Y40608269D01*
X2695218Y40758773D01*
X2727000Y40918548D01*
X2727000Y41081452D01*
X2695218Y41241227D01*
X2632877Y41391731D01*
X2542372Y41527181D01*
X2427181Y41642372D01*
X2291731Y41732877D01*
X2141227Y41795218D01*
X1981452Y41827000D01*
X1818548Y41827000D01*
X1658773Y41795218D01*
X1508269Y41732877D01*
X1372819Y41642372D01*
X1257628Y41527181D01*
X1167123Y41391731D01*
X1104782Y41241227D01*
X1073000Y41081452D01*
X452000Y41081452D01*
X452000Y44574051D01*
X513032Y44426707D01*
X888075Y43865415D01*
X1365415Y43388075D01*
X1926707Y43013032D01*
X2550381Y42754697D01*
X3212470Y42623000D01*
X3887530Y42623000D01*
X4549619Y42754697D01*
X5173293Y43013032D01*
X5734585Y43388075D01*
X5837811Y43491301D01*
X10548000Y43491301D01*
X10548000Y43308699D01*
X10583624Y43129604D01*
X10653504Y42960901D01*
X10754952Y42809072D01*
X10884072Y42679952D01*
X11035901Y42578504D01*
X11204604Y42508624D01*
X11383699Y42473000D01*
X11566301Y42473000D01*
X11745396Y42508624D01*
X11914099Y42578504D01*
X12065928Y42679952D01*
X12195048Y42809072D01*
X12259509Y42905547D01*
X45448000Y42905547D01*
X45448000Y42624453D01*
X45502838Y42348759D01*
X45610409Y42089062D01*
X45766576Y41855340D01*
X45965340Y41656576D01*
X46199062Y41500409D01*
X46212120Y41495000D01*
X46199062Y41489591D01*
X45965340Y41333424D01*
X45766576Y41134660D01*
X45610409Y40900938D01*
X45502838Y40641241D01*
X45448000Y40365547D01*
X45448000Y40084453D01*
X45502838Y39808759D01*
X45610409Y39549062D01*
X45766576Y39315340D01*
X45965340Y39116576D01*
X46199062Y38960409D01*
X46212120Y38955000D01*
X46199062Y38949591D01*
X45965340Y38793424D01*
X45766576Y38594660D01*
X45610409Y38360938D01*
X45502838Y38101241D01*
X45448000Y37825547D01*
X45448000Y37544453D01*
X45502838Y37268759D01*
X45610409Y37009062D01*
X45766576Y36775340D01*
X45965340Y36576576D01*
X46199062Y36420409D01*
X46458759Y36312838D01*
X46734453Y36258000D01*
X47015547Y36258000D01*
X47291241Y36312838D01*
X47550938Y36420409D01*
X47784660Y36576576D01*
X47983424Y36775340D01*
X48139591Y37009062D01*
X48247162Y37268759D01*
X48302000Y37544453D01*
X48302000Y37825547D01*
X48247162Y38101241D01*
X48139591Y38360938D01*
X47983424Y38594660D01*
X47784660Y38793424D01*
X47550938Y38949591D01*
X47537880Y38955000D01*
X47550938Y38960409D01*
X47784660Y39116576D01*
X47983424Y39315340D01*
X48139591Y39549062D01*
X48247162Y39808759D01*
X48302000Y40084453D01*
X48302000Y40365547D01*
X48247162Y40641241D01*
X48139591Y40900938D01*
X47983424Y41134660D01*
X47784660Y41333424D01*
X47550938Y41489591D01*
X47537880Y41495000D01*
X47550938Y41500409D01*
X47784660Y41656576D01*
X47983424Y41855340D01*
X48139591Y42089062D01*
X48247162Y42348759D01*
X48302000Y42624453D01*
X48302000Y42905547D01*
X48247162Y43181241D01*
X48139591Y43440938D01*
X47983424Y43674660D01*
X47784660Y43873424D01*
X47550938Y44029591D01*
X47291241Y44137162D01*
X47015547Y44192000D01*
X46734453Y44192000D01*
X46458759Y44137162D01*
X46199062Y44029591D01*
X45965340Y43873424D01*
X45766576Y43674660D01*
X45610409Y43440938D01*
X45502838Y43181241D01*
X45448000Y42905547D01*
X12259509Y42905547D01*
X12296496Y42960901D01*
X12366376Y43129604D01*
X12402000Y43308699D01*
X12402000Y43491301D01*
X12366376Y43670396D01*
X12296496Y43839099D01*
X12195048Y43990928D01*
X12065928Y44120048D01*
X11914099Y44221496D01*
X11745396Y44291376D01*
X11566301Y44327000D01*
X11383699Y44327000D01*
X11204604Y44291376D01*
X11035901Y44221496D01*
X10884072Y44120048D01*
X10754952Y43990928D01*
X10653504Y43839099D01*
X10583624Y43670396D01*
X10548000Y43491301D01*
X5837811Y43491301D01*
X6211925Y43865415D01*
X6586968Y44426707D01*
X6845303Y45050381D01*
X6977000Y45712470D01*
X6977000Y45956452D01*
X51823000Y45956452D01*
X51823000Y45793548D01*
X51854782Y45633773D01*
X51917123Y45483269D01*
X52007628Y45347819D01*
X52122819Y45232628D01*
X52258269Y45142123D01*
X52408773Y45079782D01*
X52568548Y45048000D01*
X52731452Y45048000D01*
X52891227Y45079782D01*
X53041731Y45142123D01*
X53177181Y45232628D01*
X53292372Y45347819D01*
X53382877Y45483269D01*
X53445218Y45633773D01*
X53477000Y45793548D01*
X53477000Y45956452D01*
X53445218Y46116227D01*
X53382877Y46266731D01*
X53292372Y46402181D01*
X53177181Y46517372D01*
X53041731Y46607877D01*
X52891227Y46670218D01*
X52731452Y46702000D01*
X52568548Y46702000D01*
X52408773Y46670218D01*
X52258269Y46607877D01*
X52122819Y46517372D01*
X52007628Y46402181D01*
X51917123Y46266731D01*
X51854782Y46116227D01*
X51823000Y45956452D01*
X6977000Y45956452D01*
X6977000Y46387530D01*
X6845303Y47049619D01*
X6586968Y47673293D01*
X6211925Y48234585D01*
X5734585Y48711925D01*
X5173293Y49086968D01*
X4784529Y49248000D01*
X24849009Y49248000D01*
X24804782Y49141227D01*
%TA.AperFunction,Conductor*%
D15*
G36*
X24804782Y49141227D02*
G01*
X24773000Y48981452D01*
X24773000Y48818548D01*
X24804782Y48658773D01*
X24867123Y48508269D01*
X24906057Y48450000D01*
X24867123Y48391731D01*
X24804782Y48241227D01*
X24773000Y48081452D01*
X24773000Y47918548D01*
X24804782Y47758773D01*
X24867123Y47608269D01*
X24906057Y47550000D01*
X24867123Y47491731D01*
X24804782Y47341227D01*
X24773000Y47181452D01*
X24773000Y47018548D01*
X24804782Y46858773D01*
X24867123Y46708269D01*
X24957628Y46572819D01*
X25072819Y46457628D01*
X25208269Y46367123D01*
X25358773Y46304782D01*
X25518548Y46273000D01*
X25681452Y46273000D01*
X25841227Y46304782D01*
X25991731Y46367123D01*
X26062500Y46414409D01*
X26133269Y46367123D01*
X26283773Y46304782D01*
X26443548Y46273000D01*
X26606452Y46273000D01*
X26766227Y46304782D01*
X26916731Y46367123D01*
X27052181Y46457628D01*
X27167372Y46572819D01*
X27257877Y46708269D01*
X27320218Y46858773D01*
X27352000Y47018548D01*
X27352000Y47181452D01*
X27320218Y47341227D01*
X27257877Y47491731D01*
X27206443Y47568708D01*
X27232877Y47608269D01*
X27295218Y47758773D01*
X27327000Y47918548D01*
X27327000Y48081452D01*
X27295218Y48241227D01*
X27232877Y48391731D01*
X27193943Y48450000D01*
X27232877Y48508269D01*
X27295218Y48658773D01*
X27327000Y48818548D01*
X27327000Y48981452D01*
X27295218Y49141227D01*
X27250991Y49248000D01*
X52277892Y49248000D01*
X52901319Y49186873D01*
X53479731Y49012239D01*
X54013208Y48728584D01*
X54481428Y48346713D01*
X54866561Y47881168D01*
X55153933Y47349685D01*
X55332601Y46772504D01*
X55397996Y46150301D01*
X55398001Y46148983D01*
X55398001Y43583789D01*
X55306452Y43602000D01*
X55143548Y43602000D01*
X54983773Y43570218D01*
X54833269Y43507877D01*
X54737500Y43443886D01*
X54641731Y43507877D01*
X54491227Y43570218D01*
X54331452Y43602000D01*
X54168548Y43602000D01*
X54008773Y43570218D01*
X53858269Y43507877D01*
X53722819Y43417372D01*
X53607628Y43302181D01*
X53517123Y43166731D01*
X53454782Y43016227D01*
X53423000Y42856452D01*
X53423000Y42693548D01*
X53454782Y42533773D01*
X53517123Y42383269D01*
X53607628Y42247819D01*
X53722819Y42132628D01*
X53858269Y42042123D01*
X54008773Y41979782D01*
X54168548Y41948000D01*
X54331452Y41948000D01*
X54491227Y41979782D01*
X54641731Y42042123D01*
X54737500Y42106114D01*
X54833269Y42042123D01*
X54983773Y41979782D01*
X55143548Y41948000D01*
X55306452Y41948000D01*
X55398001Y41966211D01*
X55398000Y3572109D01*
X55336873Y2948681D01*
X55162239Y2370269D01*
X54878585Y1836794D01*
X54496713Y1368572D01*
X54031166Y983438D01*
X53499685Y696067D01*
X52922504Y517399D01*
X52300300Y452004D01*
X52299268Y452000D01*
X4784529Y452000D01*
X5173293Y613032D01*
X5734585Y988075D01*
X6211925Y1465415D01*
X6586968Y2026707D01*
X6845303Y2650381D01*
X6977000Y3312470D01*
X6977000Y3987530D01*
X6845303Y4649619D01*
X6790696Y4781452D01*
X9473000Y4781452D01*
X9473000Y4618548D01*
X9504782Y4458773D01*
X9567123Y4308269D01*
X9657628Y4172819D01*
X9772819Y4057628D01*
X9908269Y3967123D01*
X10058773Y3904782D01*
X10218548Y3873000D01*
X10381452Y3873000D01*
X10541227Y3904782D01*
X10691731Y3967123D01*
X10827181Y4057628D01*
X10942372Y4172819D01*
X11032877Y4308269D01*
X11095218Y4458773D01*
X11127000Y4618548D01*
X11127000Y4781452D01*
X35573000Y4781452D01*
X35573000Y4618548D01*
X35604782Y4458773D01*
X35667123Y4308269D01*
X35757628Y4172819D01*
X35872819Y4057628D01*
X36008269Y3967123D01*
X36158773Y3904782D01*
X36318548Y3873000D01*
X36481452Y3873000D01*
X36641227Y3904782D01*
X36791731Y3967123D01*
X36927181Y4057628D01*
X37042372Y4172819D01*
X37132877Y4308269D01*
X37195218Y4458773D01*
X37227000Y4618548D01*
X37227000Y4781452D01*
X37195218Y4941227D01*
X37132877Y5091731D01*
X37042372Y5227181D01*
X36927181Y5342372D01*
X36791731Y5432877D01*
X36641227Y5495218D01*
X36481452Y5527000D01*
X36318548Y5527000D01*
X36158773Y5495218D01*
X36008269Y5432877D01*
X35872819Y5342372D01*
X35757628Y5227181D01*
X35667123Y5091731D01*
X35604782Y4941227D01*
X35573000Y4781452D01*
X11127000Y4781452D01*
X11095218Y4941227D01*
X11032877Y5091731D01*
X10942372Y5227181D01*
X10827181Y5342372D01*
X10691731Y5432877D01*
X10541227Y5495218D01*
X10381452Y5527000D01*
X10218548Y5527000D01*
X10058773Y5495218D01*
X9908269Y5432877D01*
X9772819Y5342372D01*
X9657628Y5227181D01*
X9567123Y5091731D01*
X9504782Y4941227D01*
X9473000Y4781452D01*
X6790696Y4781452D01*
X6586968Y5273293D01*
X6214019Y5831452D01*
X37573000Y5831452D01*
X37573000Y5668548D01*
X37604782Y5508773D01*
X37667123Y5358269D01*
X37757628Y5222819D01*
X37872819Y5107628D01*
X38008269Y5017123D01*
X38158773Y4954782D01*
X38318548Y4923000D01*
X38481452Y4923000D01*
X38641227Y4954782D01*
X38791731Y5017123D01*
X38927181Y5107628D01*
X39042372Y5222819D01*
X39132877Y5358269D01*
X39195218Y5508773D01*
X39227000Y5668548D01*
X39227000Y5831452D01*
X39195218Y5991227D01*
X39132877Y6141731D01*
X39042372Y6277181D01*
X38927181Y6392372D01*
X38791731Y6482877D01*
X38641227Y6545218D01*
X38481452Y6577000D01*
X38318548Y6577000D01*
X38158773Y6545218D01*
X38008269Y6482877D01*
X37872819Y6392372D01*
X37757628Y6277181D01*
X37667123Y6141731D01*
X37604782Y5991227D01*
X37573000Y5831452D01*
X6214019Y5831452D01*
X6211925Y5834585D01*
X5734585Y6311925D01*
X5173293Y6686968D01*
X4549619Y6945303D01*
X3887530Y7077000D01*
X3212470Y7077000D01*
X2550381Y6945303D01*
X1926707Y6686968D01*
X1365415Y6311925D01*
X888075Y5834585D01*
X513032Y5273293D01*
X452000Y5125949D01*
X452000Y7131452D01*
X27773000Y7131452D01*
X27773000Y6968548D01*
X27804782Y6808773D01*
X27867123Y6658269D01*
X27957628Y6522819D01*
X28072819Y6407628D01*
X28208269Y6317123D01*
X28358773Y6254782D01*
X28518548Y6223000D01*
X28681452Y6223000D01*
X28841227Y6254782D01*
X28991731Y6317123D01*
X29127181Y6407628D01*
X29242372Y6522819D01*
X29332877Y6658269D01*
X29395218Y6808773D01*
X29427000Y6968548D01*
X29427000Y7131452D01*
X29395218Y7291227D01*
X29332877Y7441731D01*
X29242372Y7577181D01*
X29127181Y7692372D01*
X28991731Y7782877D01*
X28841227Y7845218D01*
X28681452Y7877000D01*
X28518548Y7877000D01*
X28358773Y7845218D01*
X28208269Y7782877D01*
X28072819Y7692372D01*
X27957628Y7577181D01*
X27867123Y7441731D01*
X27804782Y7291227D01*
X27773000Y7131452D01*
X452000Y7131452D01*
X452000Y8881452D01*
X39573000Y8881452D01*
X39573000Y8718548D01*
X39604782Y8558773D01*
X39667123Y8408269D01*
X39757628Y8272819D01*
X39872819Y8157628D01*
X40008269Y8067123D01*
X40158773Y8004782D01*
X40318548Y7973000D01*
X40481452Y7973000D01*
X40641227Y8004782D01*
X40791731Y8067123D01*
X40927181Y8157628D01*
X41042372Y8272819D01*
X41132877Y8408269D01*
X41195218Y8558773D01*
X41227000Y8718548D01*
X41227000Y8881452D01*
X41195218Y9041227D01*
X41157846Y9131452D01*
X48573000Y9131452D01*
X48573000Y8968548D01*
X48604782Y8808773D01*
X48667123Y8658269D01*
X48757628Y8522819D01*
X48872819Y8407628D01*
X49008269Y8317123D01*
X49158773Y8254782D01*
X49318548Y8223000D01*
X49481452Y8223000D01*
X49641227Y8254782D01*
X49791731Y8317123D01*
X49927181Y8407628D01*
X50042372Y8522819D01*
X50132877Y8658269D01*
X50195218Y8808773D01*
X50227000Y8968548D01*
X50227000Y9131452D01*
X50195218Y9291227D01*
X50132877Y9441731D01*
X50042372Y9577181D01*
X49927181Y9692372D01*
X49791731Y9782877D01*
X49641227Y9845218D01*
X49481452Y9877000D01*
X49318548Y9877000D01*
X49158773Y9845218D01*
X49008269Y9782877D01*
X48872819Y9692372D01*
X48757628Y9577181D01*
X48667123Y9441731D01*
X48604782Y9291227D01*
X48573000Y9131452D01*
X41157846Y9131452D01*
X41132877Y9191731D01*
X41042372Y9327181D01*
X40927181Y9442372D01*
X40791731Y9532877D01*
X40641227Y9595218D01*
X40481452Y9627000D01*
X40318548Y9627000D01*
X40158773Y9595218D01*
X40008269Y9532877D01*
X39872819Y9442372D01*
X39757628Y9327181D01*
X39667123Y9191731D01*
X39604782Y9041227D01*
X39573000Y8881452D01*
X452000Y8881452D01*
X452000Y12581458D01*
X23023000Y12581458D01*
X23023000Y12418554D01*
X23054782Y12258779D01*
X23117123Y12108275D01*
X23207628Y11972825D01*
X23322819Y11857634D01*
X23458269Y11767129D01*
X23608773Y11704788D01*
X23768548Y11673006D01*
X23931452Y11673006D01*
X24091227Y11704788D01*
X24241731Y11767129D01*
X24377181Y11857634D01*
X24492372Y11972825D01*
X24582877Y12108275D01*
X24645218Y12258779D01*
X24677000Y12418554D01*
X24677000Y12581458D01*
X24645218Y12741233D01*
X24582877Y12891737D01*
X24492372Y13027187D01*
X24377181Y13142378D01*
X24241731Y13232883D01*
X24091227Y13295224D01*
X23931452Y13327006D01*
X23768548Y13327006D01*
X23608773Y13295224D01*
X23458269Y13232883D01*
X23322819Y13142378D01*
X23207628Y13027187D01*
X23117123Y12891737D01*
X23054782Y12741233D01*
X23023000Y12581458D01*
X452000Y12581458D01*
X452000Y15909916D01*
X540340Y15821576D01*
X774062Y15665409D01*
X1033759Y15557838D01*
X1309453Y15503000D01*
X1590547Y15503000D01*
X1866241Y15557838D01*
X2125938Y15665409D01*
X2359660Y15821576D01*
X2558424Y16020340D01*
X2714591Y16254062D01*
X2819135Y16506452D01*
X23198000Y16506452D01*
X23198000Y16343548D01*
X23229782Y16183773D01*
X23292123Y16033269D01*
X23382628Y15897819D01*
X23497819Y15782628D01*
X23633269Y15692123D01*
X23783773Y15629782D01*
X23943548Y15598000D01*
X24106452Y15598000D01*
X24266227Y15629782D01*
X24416731Y15692123D01*
X24552181Y15782628D01*
X24667372Y15897819D01*
X24757877Y16033269D01*
X24820218Y16183773D01*
X24852000Y16343548D01*
X24852000Y16506452D01*
X24820218Y16666227D01*
X24757877Y16816731D01*
X24667372Y16952181D01*
X24552181Y17067372D01*
X24416731Y17157877D01*
X24266227Y17220218D01*
X24106452Y17252000D01*
X23943548Y17252000D01*
X23783773Y17220218D01*
X23633269Y17157877D01*
X23497819Y17067372D01*
X23382628Y16952181D01*
X23292123Y16816731D01*
X23229782Y16666227D01*
X23198000Y16506452D01*
X2819135Y16506452D01*
X2822162Y16513759D01*
X2877000Y16789453D01*
X2877000Y17070547D01*
X2822162Y17346241D01*
X2714591Y17605938D01*
X2558424Y17839660D01*
X2359660Y18038424D01*
X2125938Y18194591D01*
X2112880Y18200000D01*
X2125938Y18205409D01*
X2359660Y18361576D01*
X2558424Y18560340D01*
X2714591Y18794062D01*
X2792211Y18981452D01*
X10498000Y18981452D01*
X10498000Y18818548D01*
X10529782Y18658773D01*
X10592123Y18508269D01*
X10682628Y18372819D01*
X10797819Y18257628D01*
X10933269Y18167123D01*
X11083773Y18104782D01*
X11243548Y18073000D01*
X11406452Y18073000D01*
X11566227Y18104782D01*
X11716731Y18167123D01*
X11852181Y18257628D01*
X11967372Y18372819D01*
X12057877Y18508269D01*
X12120218Y18658773D01*
X12152000Y18818548D01*
X12152000Y18981452D01*
X12120218Y19141227D01*
X12057877Y19291731D01*
X11967372Y19427181D01*
X11852181Y19542372D01*
X11716731Y19632877D01*
X11566227Y19695218D01*
X11406452Y19727000D01*
X11243548Y19727000D01*
X11083773Y19695218D01*
X10933269Y19632877D01*
X10797819Y19542372D01*
X10682628Y19427181D01*
X10592123Y19291731D01*
X10529782Y19141227D01*
X10498000Y18981452D01*
X2792211Y18981452D01*
X2822162Y19053759D01*
X2877000Y19329453D01*
X2877000Y19610547D01*
X2822162Y19886241D01*
X2714591Y20145938D01*
X2558424Y20379660D01*
X2359660Y20578424D01*
X2125938Y20734591D01*
X2112880Y20740000D01*
X2125938Y20745409D01*
X2359660Y20901576D01*
X2389536Y20931452D01*
X16473000Y20931452D01*
X16473000Y20768548D01*
X16504782Y20608773D01*
X16567123Y20458269D01*
X16657628Y20322819D01*
X16772819Y20207628D01*
X16908269Y20117123D01*
X17058773Y20054782D01*
X17218548Y20023000D01*
X17381452Y20023000D01*
X17541227Y20054782D01*
X17691731Y20117123D01*
X17827181Y20207628D01*
X17942372Y20322819D01*
X18032877Y20458269D01*
X18095218Y20608773D01*
X18127000Y20768548D01*
X18127000Y20931452D01*
X18112082Y21006452D01*
X19623000Y21006452D01*
X19623000Y20843548D01*
X19654782Y20683773D01*
X19717123Y20533269D01*
X19807628Y20397819D01*
X19922819Y20282628D01*
X20058269Y20192123D01*
X20208773Y20129782D01*
X20368548Y20098000D01*
X20531452Y20098000D01*
X20691227Y20129782D01*
X20841731Y20192123D01*
X20977181Y20282628D01*
X21092372Y20397819D01*
X21182877Y20533269D01*
X21245218Y20683773D01*
X21277000Y20843548D01*
X21277000Y21006452D01*
X21245218Y21166227D01*
X21182877Y21316731D01*
X21092372Y21452181D01*
X20977181Y21567372D01*
X20841731Y21657877D01*
X20691227Y21720218D01*
X20531452Y21752000D01*
X20368548Y21752000D01*
X20208773Y21720218D01*
X20058269Y21657877D01*
X19922819Y21567372D01*
X19807628Y21452181D01*
X19717123Y21316731D01*
X19654782Y21166227D01*
X19623000Y21006452D01*
X18112082Y21006452D01*
X18095218Y21091227D01*
X18032877Y21241731D01*
X17942372Y21377181D01*
X17827181Y21492372D01*
X17691731Y21582877D01*
X17541227Y21645218D01*
X17381452Y21677000D01*
X17218548Y21677000D01*
X17058773Y21645218D01*
X16908269Y21582877D01*
X16772819Y21492372D01*
X16657628Y21377181D01*
X16567123Y21241731D01*
X16504782Y21091227D01*
X16473000Y20931452D01*
X2389536Y20931452D01*
X2558424Y21100340D01*
X2714591Y21334062D01*
X2822162Y21593759D01*
X2877000Y21869453D01*
X2877000Y22150547D01*
X2822162Y22426241D01*
X2714591Y22685938D01*
X2558424Y22919660D01*
X2359660Y23118424D01*
X2265332Y23181452D01*
X9473000Y23181452D01*
X9473000Y23018548D01*
X9504782Y22858773D01*
X9567123Y22708269D01*
X9657628Y22572819D01*
X9772819Y22457628D01*
X9908269Y22367123D01*
X10058773Y22304782D01*
X10218548Y22273000D01*
X10381452Y22273000D01*
X10541227Y22304782D01*
X10691731Y22367123D01*
X10827181Y22457628D01*
X10942372Y22572819D01*
X11032877Y22708269D01*
X11095218Y22858773D01*
X11116199Y22964248D01*
X11222819Y22857628D01*
X11358269Y22767123D01*
X11508773Y22704782D01*
X11668548Y22673000D01*
X11831452Y22673000D01*
X11991227Y22704782D01*
X12141731Y22767123D01*
X12277181Y22857628D01*
X12392372Y22972819D01*
X12482877Y23108269D01*
X12545218Y23258773D01*
X12569620Y23381452D01*
X12623000Y23381452D01*
X12623000Y23218548D01*
X12654782Y23058773D01*
X12717123Y22908269D01*
X12807628Y22772819D01*
X12922819Y22657628D01*
X13058269Y22567123D01*
X13208773Y22504782D01*
X13368548Y22473000D01*
X13531452Y22473000D01*
X13691227Y22504782D01*
X13841731Y22567123D01*
X13977181Y22657628D01*
X14092372Y22772819D01*
X14134797Y22836312D01*
X14167123Y22758269D01*
X14257628Y22622819D01*
X14372819Y22507628D01*
X14508269Y22417123D01*
X14658773Y22354782D01*
X14818548Y22323000D01*
X14981452Y22323000D01*
X15141227Y22354782D01*
X15291731Y22417123D01*
X15427181Y22507628D01*
X15542372Y22622819D01*
X15632877Y22758269D01*
X15695218Y22908773D01*
X15727000Y23068548D01*
X15727000Y23231452D01*
X15695218Y23391227D01*
X15632877Y23541731D01*
X15542372Y23677181D01*
X15427181Y23792372D01*
X15306513Y23873000D01*
X15331452Y23873000D01*
X15491227Y23904782D01*
X15641731Y23967123D01*
X15777181Y24057628D01*
X15892372Y24172819D01*
X15982877Y24308269D01*
X16045218Y24458773D01*
X16077000Y24618548D01*
X16077000Y24781452D01*
X16045218Y24941227D01*
X15982877Y25091731D01*
X15892372Y25227181D01*
X15777181Y25342372D01*
X15641731Y25432877D01*
X15491227Y25495218D01*
X15331452Y25527000D01*
X15168548Y25527000D01*
X15008773Y25495218D01*
X14858269Y25432877D01*
X14722819Y25342372D01*
X14607628Y25227181D01*
X14517123Y25091731D01*
X14454782Y24941227D01*
X14423000Y24781452D01*
X14423000Y24618548D01*
X14454782Y24458773D01*
X14517123Y24308269D01*
X14607628Y24172819D01*
X14722819Y24057628D01*
X14843487Y23977000D01*
X14818548Y23977000D01*
X14658773Y23945218D01*
X14508269Y23882877D01*
X14372819Y23792372D01*
X14257628Y23677181D01*
X14215203Y23613688D01*
X14182877Y23691731D01*
X14092372Y23827181D01*
X13977181Y23942372D01*
X13841731Y24032877D01*
X13691227Y24095218D01*
X13531452Y24127000D01*
X13368548Y24127000D01*
X13208773Y24095218D01*
X13058269Y24032877D01*
X12922819Y23942372D01*
X12807628Y23827181D01*
X12717123Y23691731D01*
X12654782Y23541227D01*
X12623000Y23381452D01*
X12569620Y23381452D01*
X12577000Y23418548D01*
X12577000Y23581452D01*
X12545218Y23741227D01*
X12482877Y23891731D01*
X12392372Y24027181D01*
X12277181Y24142372D01*
X12141731Y24232877D01*
X12056995Y24267976D01*
X12077000Y24368548D01*
X12077000Y24531452D01*
X12045218Y24691227D01*
X11982877Y24841731D01*
X11892372Y24977181D01*
X11777181Y25092372D01*
X11641731Y25182877D01*
X11491227Y25245218D01*
X11331452Y25277000D01*
X11168548Y25277000D01*
X11008773Y25245218D01*
X10858269Y25182877D01*
X10722819Y25092372D01*
X10607628Y24977181D01*
X10517123Y24841731D01*
X10454782Y24691227D01*
X10423000Y24531452D01*
X10423000Y24368548D01*
X10454782Y24208773D01*
X10517123Y24058269D01*
X10607628Y23922819D01*
X10709328Y23821119D01*
X10691731Y23832877D01*
X10541227Y23895218D01*
X10381452Y23927000D01*
X10218548Y23927000D01*
X10058773Y23895218D01*
X9908269Y23832877D01*
X9772819Y23742372D01*
X9657628Y23627181D01*
X9567123Y23491731D01*
X9504782Y23341227D01*
X9473000Y23181452D01*
X2265332Y23181452D01*
X2125938Y23274591D01*
X2112880Y23280000D01*
X2125938Y23285409D01*
X2359660Y23441576D01*
X2558424Y23640340D01*
X2714591Y23874062D01*
X2822162Y24133759D01*
X2877000Y24409453D01*
X2877000Y24690547D01*
X2822162Y24966241D01*
X2714591Y25225938D01*
X2558424Y25459660D01*
X2359660Y25658424D01*
X2125938Y25814591D01*
X2112880Y25820000D01*
X2125938Y25825409D01*
X2359660Y25981576D01*
X2558424Y26180340D01*
X2714591Y26414062D01*
X2783918Y26581432D01*
X10523000Y26581432D01*
X10523000Y26418528D01*
X10554782Y26258753D01*
X10617123Y26108249D01*
X10707628Y25972799D01*
X10822819Y25857608D01*
X10958269Y25767103D01*
X11108773Y25704762D01*
X11268548Y25672980D01*
X11431452Y25672980D01*
X11591227Y25704762D01*
X11741731Y25767103D01*
X11877181Y25857608D01*
X11992372Y25972799D01*
X12082877Y26108249D01*
X12145218Y26258753D01*
X12177000Y26418528D01*
X12177000Y26581432D01*
X12145218Y26741207D01*
X12083631Y26889891D01*
X12168546Y26873000D01*
X12331450Y26873000D01*
X12491225Y26904782D01*
X12641729Y26967123D01*
X12777179Y27057628D01*
X12892370Y27172819D01*
X12982875Y27308269D01*
X13045216Y27458773D01*
X13076998Y27618548D01*
X13076998Y27781452D01*
X13045216Y27941227D01*
X12982875Y28091731D01*
X12892370Y28227181D01*
X12777179Y28342372D01*
X12641729Y28432877D01*
X12491225Y28495218D01*
X12331450Y28527000D01*
X12168546Y28527000D01*
X12008771Y28495218D01*
X11858267Y28432877D01*
X11722817Y28342372D01*
X11607626Y28227181D01*
X11517121Y28091731D01*
X11454780Y27941227D01*
X11422998Y27781452D01*
X11422998Y27618548D01*
X11454780Y27458773D01*
X11516367Y27310089D01*
X11431452Y27326980D01*
X11268548Y27326980D01*
X11108773Y27295198D01*
X10958269Y27232857D01*
X10822819Y27142352D01*
X10707628Y27027161D01*
X10617123Y26891711D01*
X10554782Y26741207D01*
X10523000Y26581432D01*
X2783918Y26581432D01*
X2822162Y26673759D01*
X2877000Y26949453D01*
X2877000Y27230547D01*
X2822162Y27506241D01*
X2714591Y27765938D01*
X2558424Y27999660D01*
X2359660Y28198424D01*
X2125938Y28354591D01*
X2112880Y28360000D01*
X2125938Y28365409D01*
X2359660Y28521576D01*
X2558424Y28720340D01*
X2714591Y28954062D01*
X2822162Y29213759D01*
X2877000Y29489453D01*
X2877000Y29770547D01*
X2822162Y30046241D01*
X2817933Y30056452D01*
X16623000Y30056452D01*
X16623000Y29893548D01*
X16654782Y29733773D01*
X16717123Y29583269D01*
X16807628Y29447819D01*
X16922819Y29332628D01*
X17053284Y29245454D01*
X16947819Y29174984D01*
X16832628Y29059793D01*
X16742123Y28924343D01*
X16679782Y28773839D01*
X16648000Y28614064D01*
X16648000Y28451160D01*
X16679782Y28291385D01*
X16742123Y28140881D01*
X16832628Y28005431D01*
X16947819Y27890240D01*
X17083269Y27799735D01*
X17233773Y27737394D01*
X17393548Y27705612D01*
X17556452Y27705612D01*
X17716227Y27737394D01*
X17866731Y27799735D01*
X18002181Y27890240D01*
X18117372Y28005431D01*
X18207877Y28140881D01*
X18270218Y28291385D01*
X18302000Y28451160D01*
X18302000Y28614064D01*
X18270218Y28773839D01*
X18207877Y28924343D01*
X18117372Y29059793D01*
X18002181Y29174984D01*
X17871716Y29262158D01*
X17977181Y29332628D01*
X18092372Y29447819D01*
X18182877Y29583269D01*
X18245218Y29733773D01*
X18277000Y29893548D01*
X18277000Y30056452D01*
X18245218Y30216227D01*
X18182877Y30366731D01*
X18092372Y30502181D01*
X17977181Y30617372D01*
X17841731Y30707877D01*
X17691227Y30770218D01*
X17531452Y30802000D01*
X17368548Y30802000D01*
X17208773Y30770218D01*
X17058269Y30707877D01*
X16922819Y30617372D01*
X16807628Y30502181D01*
X16717123Y30366731D01*
X16654782Y30216227D01*
X16623000Y30056452D01*
X2817933Y30056452D01*
X2714591Y30305938D01*
X2558424Y30539660D01*
X2359660Y30738424D01*
X2125938Y30894591D01*
X2112880Y30900000D01*
X2125938Y30905409D01*
X2359660Y31061576D01*
X2558424Y31260340D01*
X2714591Y31494062D01*
X2822162Y31753759D01*
X2877000Y32029453D01*
X2877000Y32310547D01*
X2822162Y32586241D01*
X2714591Y32845938D01*
X2558424Y33079660D01*
X2359660Y33278424D01*
X2125938Y33434591D01*
X2112880Y33440000D01*
X2125938Y33445409D01*
X2359660Y33601576D01*
X2558424Y33800340D01*
X2714591Y34034062D01*
X2822162Y34293759D01*
X2863293Y34500547D01*
X41823000Y34500547D01*
X41823000Y34219453D01*
X41877838Y33943759D01*
X41985409Y33684062D01*
X42141576Y33450340D01*
X42340340Y33251576D01*
X42574062Y33095409D01*
X42587120Y33090000D01*
X42574062Y33084591D01*
X42340340Y32928424D01*
X42141576Y32729660D01*
X41985409Y32495938D01*
X41877838Y32236241D01*
X41823000Y31960547D01*
X41823000Y31679453D01*
X41877838Y31403759D01*
X41985409Y31144062D01*
X42141576Y30910340D01*
X42340340Y30711576D01*
X42574062Y30555409D01*
X42587120Y30550000D01*
X42574062Y30544591D01*
X42340340Y30388424D01*
X42141576Y30189660D01*
X41985409Y29955938D01*
X41877838Y29696241D01*
X41823000Y29420547D01*
X41823000Y29139453D01*
X41877838Y28863759D01*
X41985409Y28604062D01*
X42141576Y28370340D01*
X42340340Y28171576D01*
X42574062Y28015409D01*
X42587120Y28010000D01*
X42574062Y28004591D01*
X42340340Y27848424D01*
X42141576Y27649660D01*
X41985409Y27415938D01*
X41877838Y27156241D01*
X41823000Y26880547D01*
X41823000Y26599453D01*
X41877838Y26323759D01*
X41985409Y26064062D01*
X42141576Y25830340D01*
X42340340Y25631576D01*
X42574062Y25475409D01*
X42587120Y25470000D01*
X42574062Y25464591D01*
X42340340Y25308424D01*
X42141576Y25109660D01*
X41985409Y24875938D01*
X41877838Y24616241D01*
X41823000Y24340547D01*
X41823000Y24059453D01*
X41877838Y23783759D01*
X41985409Y23524062D01*
X42141576Y23290340D01*
X42340340Y23091576D01*
X42574062Y22935409D01*
X42587120Y22930000D01*
X42574062Y22924591D01*
X42340340Y22768424D01*
X42141576Y22569660D01*
X41985409Y22335938D01*
X41877838Y22076241D01*
X41823000Y21800547D01*
X41823000Y21519453D01*
X41877838Y21243759D01*
X41985409Y20984062D01*
X42141576Y20750340D01*
X42340340Y20551576D01*
X42574062Y20395409D01*
X42587120Y20390000D01*
X42574062Y20384591D01*
X42340340Y20228424D01*
X42141576Y20029660D01*
X41985409Y19795938D01*
X41877838Y19536241D01*
X41823000Y19260547D01*
X41823000Y18979453D01*
X41877838Y18703759D01*
X41985409Y18444062D01*
X42141576Y18210340D01*
X42340340Y18011576D01*
X42574062Y17855409D01*
X42587120Y17850000D01*
X42574062Y17844591D01*
X42340340Y17688424D01*
X42141576Y17489660D01*
X41985409Y17255938D01*
X41877838Y16996241D01*
X41823000Y16720547D01*
X41823000Y16439453D01*
X41877838Y16163759D01*
X41985409Y15904062D01*
X42141576Y15670340D01*
X42340340Y15471576D01*
X42574062Y15315409D01*
X42833759Y15207838D01*
X43109453Y15153000D01*
X43390547Y15153000D01*
X43666241Y15207838D01*
X43925938Y15315409D01*
X44159660Y15471576D01*
X44358424Y15670340D01*
X44514591Y15904062D01*
X44622162Y16163759D01*
X44677000Y16439453D01*
X44677000Y16720547D01*
X44622162Y16996241D01*
X44514591Y17255938D01*
X44358424Y17489660D01*
X44159660Y17688424D01*
X43925938Y17844591D01*
X43912880Y17850000D01*
X43925938Y17855409D01*
X44159660Y18011576D01*
X44358424Y18210340D01*
X44514591Y18444062D01*
X44622162Y18703759D01*
X44677000Y18979453D01*
X44677000Y19260547D01*
X44622162Y19536241D01*
X44514591Y19795938D01*
X44358424Y20029660D01*
X44159660Y20228424D01*
X43925938Y20384591D01*
X43912880Y20390000D01*
X43925938Y20395409D01*
X44159660Y20551576D01*
X44358424Y20750340D01*
X44514591Y20984062D01*
X44622162Y21243759D01*
X44677000Y21519453D01*
X44677000Y21800547D01*
X44622162Y22076241D01*
X44514591Y22335938D01*
X44358424Y22569660D01*
X44159660Y22768424D01*
X43925938Y22924591D01*
X43912880Y22930000D01*
X43925938Y22935409D01*
X44159660Y23091576D01*
X44358424Y23290340D01*
X44514591Y23524062D01*
X44622162Y23783759D01*
X44677000Y24059453D01*
X44677000Y24340547D01*
X44622162Y24616241D01*
X44514591Y24875938D01*
X44358424Y25109660D01*
X44159660Y25308424D01*
X43925938Y25464591D01*
X43912880Y25470000D01*
X43925938Y25475409D01*
X44159660Y25631576D01*
X44358424Y25830340D01*
X44514591Y26064062D01*
X44622162Y26323759D01*
X44677000Y26599453D01*
X44677000Y26880547D01*
X44622162Y27156241D01*
X44514591Y27415938D01*
X44358424Y27649660D01*
X44159660Y27848424D01*
X43925938Y28004591D01*
X43912880Y28010000D01*
X43925938Y28015409D01*
X44159660Y28171576D01*
X44358424Y28370340D01*
X44514591Y28604062D01*
X44622162Y28863759D01*
X44677000Y29139453D01*
X44677000Y29420547D01*
X44622162Y29696241D01*
X44514591Y29955938D01*
X44358424Y30189660D01*
X44159660Y30388424D01*
X43925938Y30544591D01*
X43912880Y30550000D01*
X43925938Y30555409D01*
X44159660Y30711576D01*
X44358424Y30910340D01*
X44514591Y31144062D01*
X44622162Y31403759D01*
X44677000Y31679453D01*
X44677000Y31960547D01*
X44622162Y32236241D01*
X44514591Y32495938D01*
X44358424Y32729660D01*
X44159660Y32928424D01*
X43925938Y33084591D01*
X43912880Y33090000D01*
X43925938Y33095409D01*
X44159660Y33251576D01*
X44358424Y33450340D01*
X44514591Y33684062D01*
X44622162Y33943759D01*
X44677000Y34219453D01*
X44677000Y34500547D01*
X44622162Y34776241D01*
X44514591Y35035938D01*
X44358424Y35269660D01*
X44159660Y35468424D01*
X43925938Y35624591D01*
X43666241Y35732162D01*
X43390547Y35787000D01*
X43109453Y35787000D01*
X42833759Y35732162D01*
X42574062Y35624591D01*
X42340340Y35468424D01*
X42141576Y35269660D01*
X41985409Y35035938D01*
X41877838Y34776241D01*
X41823000Y34500547D01*
X2863293Y34500547D01*
X2877000Y34569453D01*
X2877000Y34850547D01*
X2822162Y35126241D01*
X2714591Y35385938D01*
X2558424Y35619660D01*
X2359660Y35818424D01*
X2125938Y35974591D01*
X1866241Y36082162D01*
X1590547Y36137000D01*
X1309453Y36137000D01*
X1033759Y36082162D01*
X774062Y35974591D01*
X540340Y35818424D01*
X452000Y35730084D01*
X452000Y37381452D01*
X15973000Y37381452D01*
X15973000Y37218548D01*
X16004782Y37058773D01*
X16067123Y36908269D01*
X16157628Y36772819D01*
X16272819Y36657628D01*
X16408269Y36567123D01*
X16558773Y36504782D01*
X16718548Y36473000D01*
X16881452Y36473000D01*
X17041227Y36504782D01*
X17191731Y36567123D01*
X17327181Y36657628D01*
X17442372Y36772819D01*
X17532877Y36908269D01*
X17595218Y37058773D01*
X17627000Y37218548D01*
X17627000Y37381452D01*
X17595218Y37541227D01*
X17532877Y37691731D01*
X17442372Y37827181D01*
X17327181Y37942372D01*
X17191731Y38032877D01*
X17041227Y38095218D01*
X16881452Y38127000D01*
X16718548Y38127000D01*
X16558773Y38095218D01*
X16408269Y38032877D01*
X16272819Y37942372D01*
X16157628Y37827181D01*
X16067123Y37691731D01*
X16004782Y37541227D01*
X15973000Y37381452D01*
X452000Y37381452D01*
X452000Y38181452D01*
X25973000Y38181452D01*
X25973000Y38018548D01*
X26004782Y37858773D01*
X26067123Y37708269D01*
X26157628Y37572819D01*
X26272819Y37457628D01*
X26408269Y37367123D01*
X26558773Y37304782D01*
X26718548Y37273000D01*
X26881452Y37273000D01*
X27041227Y37304782D01*
X27191731Y37367123D01*
X27327181Y37457628D01*
X27442372Y37572819D01*
X27532877Y37708269D01*
X27595218Y37858773D01*
X27627000Y38018548D01*
X27627000Y38181452D01*
X27595218Y38341227D01*
X27532877Y38491731D01*
X27442372Y38627181D01*
X27327181Y38742372D01*
X27191731Y38832877D01*
X27041227Y38895218D01*
X26881452Y38927000D01*
X26718548Y38927000D01*
X26558773Y38895218D01*
X26408269Y38832877D01*
X26272819Y38742372D01*
X26157628Y38627181D01*
X26067123Y38491731D01*
X26004782Y38341227D01*
X25973000Y38181452D01*
X452000Y38181452D01*
X452000Y40106452D01*
X27648000Y40106452D01*
X27648000Y39943548D01*
X27679782Y39783773D01*
X27742123Y39633269D01*
X27832628Y39497819D01*
X27947819Y39382628D01*
X28083269Y39292123D01*
X28233773Y39229782D01*
X28393548Y39198000D01*
X28556452Y39198000D01*
X28716227Y39229782D01*
X28866731Y39292123D01*
X29002181Y39382628D01*
X29117372Y39497819D01*
X29207877Y39633269D01*
X29270218Y39783773D01*
X29302000Y39943548D01*
X29302000Y40106452D01*
X29270218Y40266227D01*
X29207877Y40416731D01*
X29117372Y40552181D01*
X29002181Y40667372D01*
X28866731Y40757877D01*
X28716227Y40820218D01*
X28556452Y40852000D01*
X28393548Y40852000D01*
X28233773Y40820218D01*
X28083269Y40757877D01*
X27947819Y40667372D01*
X27832628Y40552181D01*
X27742123Y40416731D01*
X27679782Y40266227D01*
X27648000Y40106452D01*
X452000Y40106452D01*
X452000Y41081452D01*
X1073000Y41081452D01*
X1073000Y40918548D01*
X1104782Y40758773D01*
X1167123Y40608269D01*
X1257628Y40472819D01*
X1372819Y40357628D01*
X1508269Y40267123D01*
X1658773Y40204782D01*
X1818548Y40173000D01*
X1981452Y40173000D01*
X2141227Y40204782D01*
X2291731Y40267123D01*
X2427181Y40357628D01*
X2542372Y40472819D01*
X2632877Y40608269D01*
X2695218Y40758773D01*
X2727000Y40918548D01*
X2727000Y41081452D01*
X2695218Y41241227D01*
X2632877Y41391731D01*
X2542372Y41527181D01*
X2427181Y41642372D01*
X2291731Y41732877D01*
X2141227Y41795218D01*
X1981452Y41827000D01*
X1818548Y41827000D01*
X1658773Y41795218D01*
X1508269Y41732877D01*
X1372819Y41642372D01*
X1257628Y41527181D01*
X1167123Y41391731D01*
X1104782Y41241227D01*
X1073000Y41081452D01*
X452000Y41081452D01*
X452000Y44574051D01*
X513032Y44426707D01*
X888075Y43865415D01*
X1365415Y43388075D01*
X1926707Y43013032D01*
X2550381Y42754697D01*
X3212470Y42623000D01*
X3887530Y42623000D01*
X4549619Y42754697D01*
X5173293Y43013032D01*
X5734585Y43388075D01*
X5837811Y43491301D01*
X10548000Y43491301D01*
X10548000Y43308699D01*
X10583624Y43129604D01*
X10653504Y42960901D01*
X10754952Y42809072D01*
X10884072Y42679952D01*
X11035901Y42578504D01*
X11204604Y42508624D01*
X11383699Y42473000D01*
X11566301Y42473000D01*
X11745396Y42508624D01*
X11914099Y42578504D01*
X12065928Y42679952D01*
X12195048Y42809072D01*
X12259509Y42905547D01*
X45448000Y42905547D01*
X45448000Y42624453D01*
X45502838Y42348759D01*
X45610409Y42089062D01*
X45766576Y41855340D01*
X45965340Y41656576D01*
X46199062Y41500409D01*
X46212120Y41495000D01*
X46199062Y41489591D01*
X45965340Y41333424D01*
X45766576Y41134660D01*
X45610409Y40900938D01*
X45502838Y40641241D01*
X45448000Y40365547D01*
X45448000Y40084453D01*
X45502838Y39808759D01*
X45610409Y39549062D01*
X45766576Y39315340D01*
X45965340Y39116576D01*
X46199062Y38960409D01*
X46212120Y38955000D01*
X46199062Y38949591D01*
X45965340Y38793424D01*
X45766576Y38594660D01*
X45610409Y38360938D01*
X45502838Y38101241D01*
X45448000Y37825547D01*
X45448000Y37544453D01*
X45502838Y37268759D01*
X45610409Y37009062D01*
X45766576Y36775340D01*
X45965340Y36576576D01*
X46199062Y36420409D01*
X46458759Y36312838D01*
X46734453Y36258000D01*
X47015547Y36258000D01*
X47291241Y36312838D01*
X47550938Y36420409D01*
X47784660Y36576576D01*
X47983424Y36775340D01*
X48139591Y37009062D01*
X48247162Y37268759D01*
X48302000Y37544453D01*
X48302000Y37825547D01*
X48247162Y38101241D01*
X48139591Y38360938D01*
X47983424Y38594660D01*
X47784660Y38793424D01*
X47550938Y38949591D01*
X47537880Y38955000D01*
X47550938Y38960409D01*
X47784660Y39116576D01*
X47983424Y39315340D01*
X48139591Y39549062D01*
X48247162Y39808759D01*
X48302000Y40084453D01*
X48302000Y40365547D01*
X48247162Y40641241D01*
X48139591Y40900938D01*
X47983424Y41134660D01*
X47784660Y41333424D01*
X47550938Y41489591D01*
X47537880Y41495000D01*
X47550938Y41500409D01*
X47784660Y41656576D01*
X47983424Y41855340D01*
X48139591Y42089062D01*
X48247162Y42348759D01*
X48302000Y42624453D01*
X48302000Y42905547D01*
X48247162Y43181241D01*
X48139591Y43440938D01*
X47983424Y43674660D01*
X47784660Y43873424D01*
X47550938Y44029591D01*
X47291241Y44137162D01*
X47015547Y44192000D01*
X46734453Y44192000D01*
X46458759Y44137162D01*
X46199062Y44029591D01*
X45965340Y43873424D01*
X45766576Y43674660D01*
X45610409Y43440938D01*
X45502838Y43181241D01*
X45448000Y42905547D01*
X12259509Y42905547D01*
X12296496Y42960901D01*
X12366376Y43129604D01*
X12402000Y43308699D01*
X12402000Y43491301D01*
X12366376Y43670396D01*
X12296496Y43839099D01*
X12195048Y43990928D01*
X12065928Y44120048D01*
X11914099Y44221496D01*
X11745396Y44291376D01*
X11566301Y44327000D01*
X11383699Y44327000D01*
X11204604Y44291376D01*
X11035901Y44221496D01*
X10884072Y44120048D01*
X10754952Y43990928D01*
X10653504Y43839099D01*
X10583624Y43670396D01*
X10548000Y43491301D01*
X5837811Y43491301D01*
X6211925Y43865415D01*
X6586968Y44426707D01*
X6845303Y45050381D01*
X6977000Y45712470D01*
X6977000Y45956452D01*
X51823000Y45956452D01*
X51823000Y45793548D01*
X51854782Y45633773D01*
X51917123Y45483269D01*
X52007628Y45347819D01*
X52122819Y45232628D01*
X52258269Y45142123D01*
X52408773Y45079782D01*
X52568548Y45048000D01*
X52731452Y45048000D01*
X52891227Y45079782D01*
X53041731Y45142123D01*
X53177181Y45232628D01*
X53292372Y45347819D01*
X53382877Y45483269D01*
X53445218Y45633773D01*
X53477000Y45793548D01*
X53477000Y45956452D01*
X53445218Y46116227D01*
X53382877Y46266731D01*
X53292372Y46402181D01*
X53177181Y46517372D01*
X53041731Y46607877D01*
X52891227Y46670218D01*
X52731452Y46702000D01*
X52568548Y46702000D01*
X52408773Y46670218D01*
X52258269Y46607877D01*
X52122819Y46517372D01*
X52007628Y46402181D01*
X51917123Y46266731D01*
X51854782Y46116227D01*
X51823000Y45956452D01*
X6977000Y45956452D01*
X6977000Y46387530D01*
X6845303Y47049619D01*
X6586968Y47673293D01*
X6211925Y48234585D01*
X5734585Y48711925D01*
X5173293Y49086968D01*
X4784529Y49248000D01*
X24849009Y49248000D01*
X24804782Y49141227D01*
G37*
%TD.AperFunction*%
M02*
